<svg width="24" height="24" viewBox="0 0 24 24" fill="none" xmlns="http://www.w3.org/2000/svg">
<path d="M13.2929 10.7071C12.9024 10.3166 12.9024 9.68342 13.2929 9.29289C13.6834 8.90237 14.3166 8.90237 14.7071 9.29289L16.7071 11.2929C17.0976 11.6834 17.0976 12.3166 16.7071 12.7071L14.7071 14.7071C14.3166 15.0976 13.6834 15.0976 13.2929 14.7071C12.9024 14.3166 12.9024 13.6834 13.2929 13.2929L14.5858 12L13.2929 10.7071Z" fill="url(#paint0_linear_7393_77408)"/>
<path fill-rule="evenodd" clip-rule="evenodd" d="M18 21H6C5.2043 21 4.4413 20.6839 3.8787 20.1213C3.3161 19.5587 3 18.7957 3 18V6C3 5.20435 3.3161 4.44129 3.8787 3.87868C4.4413 3.31607 5.2044 3 6 3H18C18.7957 3 19.5587 3.31607 20.1213 3.87868C20.6839 4.44129 21 5.20435 21 6V18C21 18.7956 20.6839 19.5587 20.1213 20.1213C19.5587 20.6839 18.7957 21 18 21ZM18 5C18.2652 5 18.5196 5.10536 18.7071 5.29289C18.8946 5.48043 19 5.73478 19 6V18C19 18.2652 18.8946 18.5196 18.7071 18.7071C18.5196 18.8946 18.2652 19 18 19H10V5H18ZM6 5H8V19H6C5.7348 19 5.4804 18.8946 5.2929 18.7071C5.1054 18.5196 5 18.2652 5 18V6C5 5.73478 5.1054 5.48043 5.2929 5.29289C5.4804 5.10536 5.7348 5 6 5Z" fill="url(#paint1_linear_7393_77408)"/>
<defs>
<linearGradient id="paint0_linear_7393_77408" x1="17" y1="10.4423" x2="12.9767" y2="10.463" gradientUnits="userSpaceOnUse">
<stop stop-color="#5B03B2"/>
<stop offset="1" stop-color="#9D50BB"/>
</linearGradient>
<linearGradient id="paint1_linear_7393_77408" x1="21" y1="7.32693" x2="2.8956" y2="7.46659" gradientUnits="userSpaceOnUse">
<stop stop-color="#5B03B2"/>
<stop offset="1" stop-color="#9D50BB"/>
</linearGradient>
</defs>
</svg>
