<svg width="24" height="24" viewBox="0 0 24 24" fill="none" xmlns="http://www.w3.org/2000/svg">
<path d="M22 11.0002H17.535L15.835 8.44518C15.7311 8.28964 15.5856 8.16637 15.4151 8.08939C15.2446 8.0124 15.0559 7.98479 14.8705 8.00969C14.6851 8.03458 14.5104 8.11099 14.3662 8.23022C14.222 8.34945 14.1142 8.50673 14.055 8.68418L12.141 14.4262L9.97 5.75818C9.9173 5.54851 9.79806 5.36156 9.63017 5.22536C9.46227 5.08916 9.25476 5.01103 9.03872 5.0027C8.82269 4.99436 8.60977 5.05626 8.43188 5.17913C8.25398 5.30199 8.1207 5.47919 8.052 5.68418L6.279 11.0002H2C1.73478 11.0002 1.48043 11.1055 1.29289 11.2931C1.10536 11.4806 1 11.735 1 12.0002C1 12.2654 1.10536 12.5198 1.29289 12.7073C1.48043 12.8948 1.73478 13.0002 2 13.0002H7C7.20979 13 7.41422 12.9339 7.58436 12.8111C7.75449 12.6884 7.88171 12.5152 7.948 12.3162L8.862 9.57418L11.03 18.2422C11.0825 18.4523 11.2017 18.6396 11.3697 18.7761C11.5378 18.9126 11.7456 18.9909 11.962 18.9992H12C12.2098 18.999 12.4142 18.9329 12.5844 18.8101C12.7545 18.6874 12.8817 18.5142 12.948 18.3152L15.302 11.2552L16.168 12.5552C16.2593 12.6921 16.3831 12.8044 16.5282 12.882C16.6734 12.9596 16.8354 13.0002 17 13.0002H22C22.2652 13.0002 22.5196 12.8948 22.7071 12.7073C22.8946 12.5198 23 12.2654 23 12.0002C23 11.735 22.8946 11.4806 22.7071 11.2931C22.5196 11.1055 22.2652 11.0002 22 11.0002Z" fill="#A9A9B1"/>
</svg>
