<svg width="24" height="24" viewBox="0 0 24 24" fill="none" xmlns="http://www.w3.org/2000/svg">
<g clip-path="url(#clip0_7568_11196)">
<path d="M3.75391 13.9434V22.1934H9.75391V16.1934C9.75391 15.7955 9.91195 15.414 10.1932 15.1327C10.4745 14.8514 10.8561 14.6934 11.2539 14.6934H12.7539C13.1517 14.6934 13.5332 14.8514 13.8146 15.1327C14.0959 15.414 14.2539 15.7955 14.2539 16.1934V22.1934H20.2539V13.9434" stroke="#A9A9B1" stroke-width="1.5" stroke-linecap="round" stroke-linejoin="round"/>
<path d="M0.753906 12.4431L10.9429 2.25413C11.0822 2.11474 11.2476 2.00416 11.4296 1.92872C11.6117 1.85328 11.8068 1.81445 12.0039 1.81445C12.201 1.81445 12.3961 1.85328 12.5781 1.92872C12.7602 2.00416 12.9256 2.11474 13.0649 2.25413L23.2539 12.4431" stroke="#A9A9B1" stroke-width="1.5" stroke-linecap="round" stroke-linejoin="round"/>
</g>
<defs>
<clipPath id="clip0_7568_11196">
<rect width="24" height="24" fill="white"/>
</clipPath>
</defs>
</svg>
