<svg width="22" height="24" viewBox="0 0 22 24" fill="none" xmlns="http://www.w3.org/2000/svg">
<path d="M0.201174 10.269C0.0136713 10.4565 0.0136713 10.7605 0.201174 10.9478C0.388676 11.1353 0.692425 11.1353 0.879922 10.9478L1.49914 10.3286V10.6096C1.49914 10.8746 1.71383 11.0896 1.97914 11.0896C2.24445 11.0896 2.45914 10.8746 2.45914 10.6096V10.3286L3.07836 10.9478C3.26585 11.1353 3.56961 11.1353 3.75711 10.9478C3.94461 10.7605 3.94461 10.4565 3.75711 10.269L2.45914 8.97085V6.56947L4.84695 7.45681V11.1465C4.84695 11.3462 4.9707 11.525 5.15726 11.5956C7.44336 12.4588 9.55508 12.8783 11.6129 12.8781C13.659 12.8781 15.6587 12.4426 17.5552 11.5839C17.7273 11.5061 17.8374 11.335 17.8374 11.1465V7.43516L21.6638 5.64082C21.8354 5.56019 21.9437 5.38605 21.9399 5.19644C21.9357 5.00683 21.8209 4.83715 21.646 4.76379L11.5341 0.517145C11.4184 0.468632 11.289 0.466755 11.1723 0.512926L2.3068 3.99715L0.474927 4.76355C0.299617 4.83667 0.184302 5.00636 0.180082 5.19644C0.176334 5.38629 0.284612 5.56043 0.456644 5.64105L1.49914 6.12791V8.97085L0.201174 10.269ZM16.8774 7.88589V10.8332C15.1899 11.5532 13.4204 11.9181 11.6129 11.9181C9.76555 11.9183 7.86337 11.5562 5.80696 10.8123V7.8801L11.1441 10.3827C11.2088 10.4129 11.2782 10.4282 11.3481 10.4282C11.4174 10.4282 11.4873 10.4129 11.552 10.3827L16.8774 7.88589ZM11.342 1.47785L20.2782 5.23043L11.3481 9.41801L5.53086 6.69035C5.52664 6.68836 5.52202 6.68795 5.51774 6.6861L5.4943 6.67511L4.70844 6.38305L9.95932 6.01807C10.217 6.4352 10.7599 6.71941 11.4085 6.71941C12.3123 6.71941 13.0206 6.17238 13.0206 5.47417C13.0206 4.77597 12.3123 4.22894 11.4085 4.22894C10.6945 4.22894 10.1087 4.57277 9.89159 5.0605L2.56848 5.56942L1.84508 5.23089L11.342 1.47785ZM10.7565 5.47418C10.7565 5.38699 11.0031 5.18894 11.4085 5.18894C11.814 5.18894 12.0606 5.38699 12.0606 5.47418C12.0606 5.56136 11.814 5.75941 11.4085 5.75941C11.0031 5.75941 10.7565 5.56136 10.7565 5.47418ZM21.4838 17.0251C21.4998 17.0129 21.5148 16.9996 21.5288 16.9855C21.9461 16.5686 22.042 15.9718 21.834 15.4775C21.5584 14.8093 20.7713 14.4585 20.086 14.7088L14.8248 16.645C14.8327 16.5793 14.8365 16.5128 14.8365 16.4455C14.8365 15.5436 14.1029 14.81 13.201 14.81H8.89039C8.23146 14.5197 7.18787 13.6457 5.3607 13.6457H4.54976V12.6111C4.54976 12.346 4.33507 12.1311 4.06976 12.1311H0.660082C0.394772 12.1311 0.180082 12.346 0.180082 12.6111V22.0443C0.180082 22.3093 0.394772 22.5243 0.660082 22.5243H4.06977C4.33508 22.5243 4.54977 22.3093 4.54977 22.0443V21.17C6.01738 21.3002 6.64594 21.86 9.57243 23.0999C11.3002 23.8774 13.3962 23.5778 14.8459 22.1835L21.4838 17.0251ZM3.58977 21.5643H1.14008V13.0911H3.58977V14.1257V20.665L3.58977 21.5643ZM14.1962 21.4764C13.051 22.5898 11.3727 22.8569 9.96617 22.2243C7.15207 21.0439 6.29669 20.334 4.54977 20.2028V14.6057H5.3607C6.91166 14.6057 7.76188 15.3604 8.54445 15.7136C8.61383 15.7506 8.69164 15.77 8.77039 15.77H13.201C13.5737 15.77 13.8765 16.0731 13.8765 16.4455C13.8765 16.8372 13.5639 17.1254 13.201 17.1254H8.86414C8.59883 17.1254 8.38414 17.3404 8.38414 17.6054C8.38414 17.8705 8.59883 18.0854 8.86414 18.0854H13.201H13.3187C13.5952 18.0854 13.868 18.0308 14.1127 17.9296L20.4165 15.6102C20.626 15.5331 20.8623 15.6397 20.9476 15.8469C21.0133 16.0028 20.975 16.1687 20.867 16.2887L14.2365 21.4414C14.2224 21.4522 14.2088 21.4639 14.1962 21.4764Z" fill="#A9A9B1"/>
</svg>
