<svg width="24" height="24" viewBox="0 0 24 24" fill="none" xmlns="http://www.w3.org/2000/svg">
<path d="M10.7071 10.7071C11.0976 10.3166 11.0976 9.68342 10.7071 9.29289C10.3166 8.90237 9.68342 8.90237 9.29289 9.29289L7.29289 11.2929C6.90237 11.6834 6.90237 12.3166 7.29289 12.7071L9.29289 14.7071C9.68342 15.0976 10.3166 15.0976 10.7071 14.7071C11.0976 14.3166 11.0976 13.6834 10.7071 13.2929L9.41421 12L10.7071 10.7071Z" fill="url(#paint0_linear_7568_11162)"/>
<path fill-rule="evenodd" clip-rule="evenodd" d="M6 21H18C18.7957 21 19.5587 20.6839 20.1213 20.1213C20.6839 19.5587 21 18.7957 21 18V6C21 5.20435 20.6839 4.44129 20.1213 3.87868C19.5587 3.31607 18.7956 3 18 3H6C5.20435 3 4.44129 3.31607 3.87868 3.87868C3.31607 4.44129 3 5.20435 3 6V18C3 18.7956 3.31607 19.5587 3.87868 20.1213C4.44129 20.6839 5.20435 21 6 21ZM6 5C5.73478 5 5.48043 5.10536 5.29289 5.29289C5.10536 5.48043 5 5.73478 5 6V18C5 18.2652 5.10536 18.5196 5.29289 18.7071C5.48043 18.8946 5.73478 19 6 19H14V5H6ZM18 5H16V19H18C18.2652 19 18.5196 18.8946 18.7071 18.7071C18.8946 18.5196 19 18.2652 19 18V6C19 5.73478 18.8946 5.48043 18.7071 5.29289C18.5196 5.10536 18.2652 5 18 5Z" fill="url(#paint1_linear_7568_11162)"/>
<defs>
<linearGradient id="paint0_linear_7568_11162" x1="7" y1="10.4423" x2="11.0233" y2="10.463" gradientUnits="userSpaceOnUse">
<stop stop-color="#5B03B2"/>
<stop offset="1" stop-color="#9D50BB"/>
</linearGradient>
<linearGradient id="paint1_linear_7568_11162" x1="3" y1="7.32693" x2="21.1044" y2="7.46659" gradientUnits="userSpaceOnUse">
<stop stop-color="#5B03B2"/>
<stop offset="1" stop-color="#9D50BB"/>
</linearGradient>
</defs>
</svg>
