<svg width="24" height="24" viewBox="0 0 24 24" fill="none" xmlns="http://www.w3.org/2000/svg">
<path d="M2.48039 21.2899C2.67046 21.5124 2.90738 21.6913 3.1746 21.8139C3.44182 21.9366 3.7329 22.0001 4.02751 22H19.9729C20.2674 21.9998 20.5584 21.9362 20.8255 21.8136C21.0926 21.691 21.3296 21.5124 21.5198 21.2902C21.7101 21.0679 21.8491 20.8074 21.9273 20.5267C22.0054 20.246 22.0208 19.9518 21.9724 19.6646C21.6646 17.8363 20.8463 16.1295 19.6098 14.7364C18.3733 13.3434 16.7677 12.3196 14.9741 11.7805C15.9413 11.1484 16.6767 10.2251 17.0714 9.14733C17.466 8.06957 17.4989 6.89476 17.1651 5.79707C16.8314 4.69939 16.1487 3.73725 15.2184 3.0533C14.2881 2.36935 13.1596 2 12.0002 2C10.8409 2 9.7124 2.36935 8.78206 3.0533C7.85173 3.73725 7.16908 4.69939 6.83531 5.79707C6.50154 6.89476 6.53442 8.06957 6.92908 9.14733C7.32373 10.2251 8.05916 11.1484 9.02632 11.7805C7.23275 12.3196 5.6272 13.3434 4.39069 14.7364C3.15418 16.1295 2.33589 17.8363 2.02809 19.6646C1.97916 19.9517 1.99429 20.2459 2.07241 20.5267C2.15054 20.8074 2.28978 21.0679 2.48039 21.2899ZM7.95529 7.33649C7.95529 6.54554 8.19252 5.77234 8.63698 5.11469C9.08145 4.45703 9.71318 3.94445 10.4523 3.64177C11.1914 3.33908 12.0047 3.25989 12.7894 3.4142C13.574 3.5685 14.2947 3.94938 14.8604 4.50867C15.4261 5.06796 15.8114 5.78054 15.9674 6.5563C16.1235 7.33206 16.0434 8.13615 15.7373 8.8669C15.4311 9.59764 14.9127 10.2222 14.2475 10.6617C13.5823 11.1011 12.8002 11.3356 12.0002 11.3356C10.9278 11.3345 9.89964 10.9128 9.14132 10.163C8.383 9.41329 7.95646 8.39677 7.95529 7.33649ZM3.358 19.8859C3.70428 17.8675 4.76207 16.0355 6.34393 14.7145C7.92579 13.3935 9.92958 12.6687 12.0002 12.6687C14.0709 12.6687 16.0747 13.3935 17.6565 14.7145C19.2384 16.0355 20.2962 17.8675 20.6425 19.8859C20.6575 19.9818 20.6514 20.0798 20.6248 20.1733C20.5981 20.2667 20.5515 20.3534 20.488 20.4275C20.4245 20.5015 20.3457 20.5613 20.2568 20.6026C20.1679 20.6439 20.0711 20.6658 19.9729 20.667H4.02751C3.92931 20.6659 3.8325 20.6439 3.74363 20.6026C3.65476 20.5613 3.57591 20.5016 3.51242 20.4275C3.44893 20.3534 3.40228 20.2667 3.37564 20.1733C3.349 20.0798 3.34299 19.9818 3.358 19.8859Z" fill="#A9A9B1"/>
</svg>
