<svg width="24" height="24" viewBox="0 0 24 24" fill="none" xmlns="http://www.w3.org/2000/svg">
<g clip-path="url(#clip0_7568_11119)">
<path fill-rule="evenodd" clip-rule="evenodd" d="M12 0.75C13.518 0.75 14.75 1.982 14.75 3.5C14.75 5.018 13.518 6.25 12 6.25C10.482 6.25 9.25 5.018 9.25 3.5C9.25 1.982 10.482 0.75 12 0.75ZM12 2.25C11.31 2.25 10.75 2.81 10.75 3.5C10.75 4.19 11.31 4.75 12 4.75C12.69 4.75 13.25 4.19 13.25 3.5C13.25 2.81 12.69 2.25 12 2.25ZM19.25 13.75C20.768 13.75 22 14.982 22 16.5C22 18.018 20.768 19.25 19.25 19.25C17.732 19.25 16.5 18.018 16.5 16.5C16.5 14.982 17.732 13.75 19.25 13.75ZM19.25 15.25C18.56 15.25 18 15.81 18 16.5C18 17.19 18.56 17.75 19.25 17.75C19.94 17.75 20.5 17.19 20.5 16.5C20.5 15.81 19.94 15.25 19.25 15.25ZM4.75 13.75C6.268 13.75 7.5 14.982 7.5 16.5C7.5 18.018 6.268 19.25 4.75 19.25C3.232 19.25 2 18.018 2 16.5C2 14.982 3.232 13.75 4.75 13.75ZM4.75 15.25C4.06 15.25 3.5 15.81 3.5 16.5C3.5 17.19 4.06 17.75 4.75 17.75C5.44 17.75 6 17.19 6 16.5C6 15.81 5.44 15.25 4.75 15.25Z" fill="#A9A9B1"/>
<path fill-rule="evenodd" clip-rule="evenodd" d="M16 8.5V9.5C16 9.914 15.664 10.25 15.25 10.25H8.75C8.336 10.25 8 9.914 8 9.5V8.5C8 7.505 8.395 6.552 9.098 5.848C9.802 5.145 10.755 4.75 11.75 4.75H12.25C13.245 4.75 14.198 5.145 14.902 5.848C15.605 6.552 16 7.505 16 8.5ZM14.5 8.5C14.5 7.903 14.263 7.331 13.841 6.909C13.419 6.487 12.847 6.25 12.25 6.25H11.75C11.153 6.25 10.581 6.487 10.159 6.909C9.737 7.331 9.5 7.903 9.5 8.5V8.75H14.5V8.5ZM23.25 21.5V22.5C23.25 22.914 22.914 23.25 22.5 23.25H16C15.586 23.25 15.25 22.914 15.25 22.5V21.5C15.25 20.505 15.645 19.552 16.348 18.848C17.052 18.145 18.005 17.75 19 17.75H19.5C20.495 17.75 21.448 18.145 22.152 18.848C22.855 19.552 23.25 20.505 23.25 21.5ZM21.75 21.5C21.75 20.903 21.513 20.331 21.091 19.909C20.669 19.487 20.097 19.25 19.5 19.25H19C18.403 19.25 17.831 19.487 17.409 19.909C16.987 20.331 16.75 20.903 16.75 21.5V21.75H21.75V21.5ZM8.75 21.5V22.5C8.75 22.914 8.414 23.25 8 23.25H1.5C1.086 23.25 0.75 22.914 0.75 22.5V21.5C0.75 20.505 1.145 19.552 1.848 18.848C2.552 18.145 3.505 17.75 4.5 17.75H5C5.995 17.75 6.948 18.145 7.652 18.848C8.355 19.552 8.75 20.505 8.75 21.5ZM7.25 21.5C7.25 20.903 7.013 20.331 6.591 19.909C6.169 19.487 5.597 19.25 5 19.25H4.5C3.903 19.25 3.331 19.487 2.909 19.909C2.487 20.331 2.25 20.903 2.25 21.5V21.75H7.25V21.5ZM5.25 11.5C5.25 11.914 4.914 12.25 4.5 12.25C4.086 12.25 3.75 11.914 3.75 11.5C3.75 9.643 4.365 7.929 5.402 6.549C5.65 6.218 6.121 6.152 6.452 6.4C6.783 6.649 6.849 7.12 6.601 7.451C5.753 8.579 5.25 9.981 5.25 11.5ZM14.25 17.866C14.64 17.727 15.069 17.932 15.207 18.322C15.345 18.713 15.14 19.141 14.75 19.28C13.89 19.584 12.964 19.75 12 19.75C11.036 19.75 10.11 19.584 9.25 19.28C8.86 19.141 8.655 18.713 8.793 18.322C8.931 17.932 9.36 17.727 9.75 17.866C10.454 18.115 11.211 18.25 12 18.25C12.789 18.25 13.546 18.115 14.25 17.866ZM17.4 7.452C17.152 7.121 17.219 6.651 17.55 6.402C17.88 6.153 18.351 6.22 18.6 6.551C19.636 7.93 20.25 9.644 20.25 11.5C20.25 11.914 19.914 12.25 19.5 12.25C19.086 12.25 18.75 11.914 18.75 11.5C18.75 9.982 18.248 8.58 17.4 7.452Z" fill="#A9A9B1"/>
</g>
<defs>
<clipPath id="clip0_7568_11119">
<rect width="24" height="24" fill="white"/>
</clipPath>
</defs>
</svg>
