<svg width="20" height="21" viewBox="0 0 20 21" fill="none" xmlns="http://www.w3.org/2000/svg">
<path d="M19.4758 6.38037C19.4704 6.3584 19.4725 6.33606 19.4639 6.31445L19.4612 6.30768C19.4606 6.30634 19.4601 6.30505 19.4595 6.30365L17.4639 1.31445C17.3884 1.12439 17.2045 0.999695 17 1H3C2.79553 0.999695 2.61157 1.12439 2.53613 1.31445L0.540466 6.30365C0.539856 6.30505 0.539368 6.30634 0.538818 6.30768L0.536133 6.31445C0.526733 6.33801 0.528686 6.36224 0.52301 6.38617C0.513977 6.42377 0.5 6.45966 0.5 6.5C0.5 6.50256 0.500732 6.50488 0.500732 6.50745C0.500793 6.51001 0.501465 6.51233 0.501526 6.51489C0.508057 7.69544 1.09998 8.73438 2 9.3645V19.5C2 19.4998 2 19.5002 2 19.5C2.00018 19.776 2.224 20.0002 2.5 20H12.5H17.5C17.4998 20 17.5002 20 17.5 20C17.7759 19.9998 18.0002 19.776 18 19.5V9.3645C18.9004 8.73413 19.4925 7.6947 19.4986 6.51355C19.4986 6.51184 19.4991 6.51025 19.4991 6.50855C19.4991 6.50562 19.5 6.50293 19.5 6.5C19.5 6.45758 19.4858 6.41974 19.4758 6.38037ZM12 19H8V13H12V19ZM17 19H13V12.5C13 12.4998 13 12.5002 13 12.5C12.9998 12.2241 12.776 11.9998 12.5 12H7.5C7.49982 12 7.50018 12 7.5 12C7.224 12.0002 6.99982 12.224 7 12.5V19H3V9.83637C3.31885 9.93231 3.65002 9.99957 4 10C5.28156 9.99848 6.3902 9.30157 7 8.27362C7.6098 9.30157 8.71844 9.99848 10 10C11.2816 9.99848 12.3902 9.30157 13 8.27362C13.6098 9.30157 14.7184 9.99848 16 10C16.35 9.99957 16.6812 9.93231 17 9.83637V19ZM16 9C14.6193 9 13.5 7.88074 13.5 6.5C13.5 6.22388 13.2761 6 13 6C12.7239 6 12.5 6.22388 12.5 6.5C12.5 7.88074 11.3807 9 10 9C8.61926 9 7.5 7.88074 7.5 6.5C7.5 6.22388 7.27612 6 7 6C6.72388 6 6.5 6.22388 6.5 6.5C6.5 7.88074 5.38074 9 4 9C2.64532 9 1.54883 7.92078 1.50769 6.57611L3.33887 2H16.6611L18.4923 6.57611C18.4512 7.92078 17.3547 9 16 9Z" fill="#A9A9B1"/>
<path d="M2 19.5V9.3645C1.09998 8.73438 0.508057 7.69544 0.501526 6.51489C0.501465 6.51233 0.500793 6.51001 0.500732 6.50745C0.500732 6.50488 0.5 6.50256 0.5 6.5C0.5 6.45966 0.513977 6.42377 0.52301 6.38617C0.528686 6.36224 0.526733 6.33801 0.536133 6.31445L0.538818 6.30768C0.539368 6.30634 0.539856 6.30505 0.540466 6.30365L2.53613 1.31445C2.61157 1.12439 2.79553 0.999695 3 1H17C17.2045 0.999695 17.3884 1.12439 17.4639 1.31445L19.4595 6.30365C19.4601 6.30505 19.4606 6.30634 19.4612 6.30768L19.4639 6.31445C19.4725 6.33606 19.4704 6.3584 19.4758 6.38037C19.4858 6.41974 19.5 6.45758 19.5 6.5C19.5 6.50293 19.4991 6.50562 19.4991 6.50855C19.4991 6.51025 19.4986 6.51184 19.4986 6.51355C19.4925 7.6947 18.9004 8.73413 18 9.3645V19.5C18.0002 19.776 17.7759 19.9998 17.5 20M2 19.5C2 19.5002 2 19.4998 2 19.5ZM2 19.5C2.00018 19.776 2.224 20.0002 2.5 20H12.5H17.5M17.5 20C17.5002 20 17.4998 20 17.5 20ZM13 12.5V19H17V9.83637C16.6812 9.93231 16.35 9.99957 16 10C14.7184 9.99848 13.6098 9.30158 13 8.27362C12.3902 9.30158 11.2816 9.99848 10 10C8.71844 9.99848 7.6098 9.30158 7 8.27362C6.3902 9.30158 5.28156 9.99848 4 10C3.65002 9.99957 3.31885 9.93231 3 9.83637V19H7V12.5C6.99982 12.224 7.224 12.0002 7.5 12M13 12.5C13 12.4998 13 12.5002 13 12.5ZM13 12.5C12.9998 12.2241 12.776 11.9998 12.5 12H7.5M7.5 12C7.49982 12 7.50018 12 7.5 12ZM12 19H8V13H12V19ZM16 9C14.6193 9 13.5 7.88074 13.5 6.5C13.5 6.22388 13.2761 6 13 6C12.7239 6 12.5 6.22388 12.5 6.5C12.5 7.88074 11.3807 9 10 9C8.61926 9 7.5 7.88074 7.5 6.5C7.5 6.22388 7.27612 6 7 6C6.72388 6 6.5 6.22388 6.5 6.5C6.5 7.88074 5.38074 9 4 9C2.64532 9 1.54883 7.92078 1.50769 6.57611L3.33887 2H16.6611L18.4923 6.57611C18.4512 7.92078 17.3547 9 16 9Z" stroke="#A9A9B1" stroke-width="0.5"/>
</svg>
