<svg width="25" height="24" viewBox="0 0 25 24" fill="none" xmlns="http://www.w3.org/2000/svg">
<path d="M21.8647 15.8901C21.2285 17.3946 20.2335 18.7203 18.9666 19.7514C17.6997 20.7825 16.1995 21.4875 14.5971 21.8049C12.9948 22.1222 11.3391 22.0422 9.77485 21.5719C8.21057 21.1015 6.78533 20.2551 5.62372 19.1067C4.46211 17.9583 3.59951 16.5428 3.11134 14.984C2.62316 13.4252 2.52426 11.7706 2.8233 10.1647C3.12233 8.55886 3.8102 7.05071 4.82675 5.77211C5.8433 4.49351 7.15758 3.4834 8.6547 2.83008" stroke="#A9A9B1" stroke-width="1.5" stroke-linecap="round" stroke-linejoin="round"/>
<path d="M22.6543 12C22.6543 10.6868 22.3956 9.38642 21.8931 8.17317C21.3905 6.95991 20.654 5.85752 19.7254 4.92893C18.7968 4.00035 17.6944 3.26375 16.4811 2.7612C15.2679 2.25866 13.9675 2 12.6543 2V12H22.6543Z" stroke="#A9A9B1" stroke-width="1.5" stroke-linecap="round" stroke-linejoin="round"/>
</svg>
