<svg width="20" height="20" viewBox="0 0 20 20" fill="none" xmlns="http://www.w3.org/2000/svg">
<path d="M9.99935 10.8332C10.4596 10.8332 10.8327 10.4601 10.8327 9.99984C10.8327 9.5396 10.4596 9.1665 9.99935 9.1665C9.53911 9.1665 9.16602 9.5396 9.16602 9.99984C9.16602 10.4601 9.53911 10.8332 9.99935 10.8332Z" stroke="#333333" stroke-width="1.5" stroke-linecap="round" stroke-linejoin="round"/>
<path d="M9.99935 5.00016C10.4596 5.00016 10.8327 4.62707 10.8327 4.16683C10.8327 3.70659 10.4596 3.3335 9.99935 3.3335C9.53911 3.3335 9.16602 3.70659 9.16602 4.16683C9.16602 4.62707 9.53911 5.00016 9.99935 5.00016Z" stroke="#333333" stroke-width="1.5" stroke-linecap="round" stroke-linejoin="round"/>
<path d="M9.99935 16.6667C10.4596 16.6667 10.8327 16.2936 10.8327 15.8333C10.8327 15.3731 10.4596 15 9.99935 15C9.53911 15 9.16602 15.3731 9.16602 15.8333C9.16602 16.2936 9.53911 16.6667 9.99935 16.6667Z" stroke="#333333" stroke-width="1.5" stroke-linecap="round" stroke-linejoin="round"/>
</svg>
