<svg width="359" height="318" viewBox="0 0 359 318" fill="none" xmlns="http://www.w3.org/2000/svg">
<g opacity="0.86">
<path d="M216.287 43.2734C156.091 43.2734 145.838 113.38 78.0463 113.38C10.2544 113.38 -8.5672 246.206 170.402 246.206C396.048 246.206 353.532 43.2734 216.287 43.2734Z" fill="#D195FC" fill-opacity="0.1"/>
<path d="M284.836 277.475C284.836 277.475 262.601 293.109 206.294 293.109C149.987 293.109 133.766 275.306 133.766 275.306L135.054 264.845C135.054 264.845 156.872 251.447 208.713 251.447C260.566 251.447 284.271 264.845 284.271 264.845L284.836 277.475Z" fill="#DFE2E6"/>
<path d="M92.6848 60.5113C92.6848 60.5113 84.964 50.254 106.227 33.9868C106.227 33.9868 102.949 40.0983 106.227 44.4814C106.227 44.4814 107.188 34.8567 112.264 31.0949C117.34 27.3444 140.344 23.673 143.192 24.0232C146.041 24.3734 153.389 28.9824 153.389 28.9824C153.389 28.9824 120.358 70.6218 97.5909 63.053" fill="#C084FA"/>
<path d="M106.252 51.1798V44.5148L106.229 44.447C102.985 40.0639 106.24 33.9863 106.24 33.9863C84.9768 50.2535 92.6864 60.5108 92.6864 60.5108L97.5924 63.0525C107.122 66.2156 118.483 60.7593 128.431 53.3488C115.747 53.891 106.252 51.1798 106.252 51.1798Z" fill="#9D50BB"/>
<path d="M284.836 277.474C284.836 277.474 262.601 293.108 206.294 293.108C149.987 293.108 133.766 275.248 133.766 275.248L135.054 264.731L151.683 129.951C153.627 114.181 161.246 100.354 172.359 90.4015C183.471 80.4492 198.076 74.3942 213.97 74.1683C248.357 73.6938 276.901 100.602 278.438 134.933L284.271 264.833L284.836 277.474Z" stroke="#C084FA" stroke-width="10" stroke-miterlimit="10" stroke-linecap="round" stroke-linejoin="round"/>
<path d="M284.271 264.845C284.271 264.845 250.743 277.474 206.611 277.474C162.479 277.474 135.055 264.845 135.055 264.845C135.055 264.845 156.872 251.436 208.725 251.436C260.578 251.436 284.271 264.845 284.271 264.845Z" fill="#EBCEF7"/>
<path d="M284.271 264.844C284.271 264.844 250.743 277.473 206.611 277.473C162.479 277.473 135.055 264.844 135.055 264.844" stroke="#C084FA" stroke-width="10" stroke-miterlimit="10" stroke-linecap="round" stroke-linejoin="round"/>
<path d="M119.114 157.73L106.453 216.846" stroke="#C084FA" stroke-width="10" stroke-miterlimit="10" stroke-linecap="round" stroke-linejoin="round"/>
<path d="M133.765 165.219L121.771 221.363" stroke="#C084FA" stroke-width="10" stroke-miterlimit="10" stroke-linecap="round" stroke-linejoin="round"/>
<path d="M216.829 74.2246L210.521 277.44" stroke="#C084FA" stroke-width="10" stroke-miterlimit="10" stroke-linecap="round" stroke-linejoin="round"/>
<path d="M238.205 78.6094C238.205 78.6094 248.469 86.7994 250.086 148.151C251.691 209.503 249.374 273.691 249.374 273.691" stroke="#C084FA" stroke-width="10" stroke-miterlimit="10" stroke-linecap="round" stroke-linejoin="round"/>
<path d="M181.119 225.047C179.74 253.243 178.678 275.746 178.678 275.746" stroke="#C084FA" stroke-width="10" stroke-miterlimit="10" stroke-linecap="round" stroke-linejoin="round"/>
<path d="M197.137 76.6992C197.137 76.6992 188.297 89.5661 185.991 129.884C185.516 138.153 184.928 149.178 184.295 161.469" stroke="#C084FA" stroke-width="10" stroke-miterlimit="10" stroke-linecap="round" stroke-linejoin="round"/>
<path d="M153.604 222.312C151.637 248.747 150.303 270.097 150.303 270.097" stroke="#C084FA" stroke-width="10" stroke-miterlimit="10" stroke-linecap="round" stroke-linejoin="round"/>
<path d="M177.072 86.6055C177.072 86.6055 166.853 100.647 161.54 137.926C160.523 145.054 159.483 154.295 158.477 164.563" stroke="#C084FA" stroke-width="10" stroke-miterlimit="10" stroke-linecap="round" stroke-linejoin="round"/>
<path d="M260.623 93.5879C260.623 93.5879 267.078 111.47 269.859 137.927C272.64 164.384 274.143 268.064 274.143 268.064" stroke="#C084FA" stroke-width="10" stroke-miterlimit="10" stroke-linecap="round" stroke-linejoin="round"/>
<path d="M276.347 121.331C276.347 121.331 253.682 110.283 213.676 110.283C173.67 110.283 153.367 121.331 153.367 121.331C153.367 121.331 180.735 129.725 213.676 129.725C246.616 129.725 276.347 121.331 276.347 121.331Z" stroke="#C084FA" stroke-width="10" stroke-miterlimit="10" stroke-linecap="round" stroke-linejoin="round"/>
<path d="M108.918 182.177C108.918 182.177 93.0466 182.199 79.2553 156.228C65.4641 130.257 79.4927 114.182 90.277 115.809C101.061 117.436 101.118 138.165 85.8118 137.159C76.2823 136.538 57.1328 114.114 76.2484 84.2461" stroke="#D8B6FA" stroke-width="10" stroke-miterlimit="10" stroke-linecap="round" stroke-linejoin="round"/>
<path d="M84.9297 78.3269C84.9297 78.3269 106.781 45.6458 143.192 31.0957C143.192 31.0957 123.104 34.4621 92.6844 60.5121C85.7323 66.4654 84.9297 78.3269 84.9297 78.3269Z" fill="#DFE2E6"/>
<path d="M211.934 74.0339C211.934 74.0339 207.051 70.6336 207.051 66.002C207.051 61.3704 209.696 56.9082 216.648 56.9082C223.589 56.9082 225.522 61.6528 225.522 66.0698C225.522 70.498 220.107 74.1582 220.107 74.1582" stroke="#C084FA" stroke-width="10" stroke-miterlimit="10" stroke-linecap="round" stroke-linejoin="round"/>
<path d="M140.594 219.93C140.594 219.93 171.839 216.846 212.399 216.846C252.958 216.846 282.282 220.562 282.282 220.562C282.282 220.562 260.487 225.951 212.116 225.951C163.745 225.951 140.594 219.93 140.594 219.93ZM140.594 219.93C140.594 219.93 133.675 224.708 114.888 219.93C96.0999 215.151 91.0469 201.573 91.0469 201.573L107.585 146.129C107.585 146.129 115.148 156.714 126.452 162.373C137.756 168.033 147.173 166.565 147.173 166.565C147.173 166.565 173.161 160.351 214.151 160.351C255.14 160.351 279.851 166.565 279.851 166.565C279.851 166.565 252.28 169.479 213.857 169.479C175.433 169.479 147.161 166.565 147.161 166.565" stroke="#C084FA" stroke-width="10" stroke-miterlimit="10" stroke-linecap="round" stroke-linejoin="round"/>
</g>
</svg>
