<svg width="460" height="352" viewBox="0 0 460 352" fill="none" xmlns="http://www.w3.org/2000/svg">
<rect x="1.08712" y="0.451505" width="457.826" height="350.669" rx="21.2207" fill="white"/>
<rect x="1.08712" y="0.451505" width="457.826" height="350.669" rx="21.2207" stroke="#E7D7FB" stroke-width="0.903009"/>
<path d="M69.1832 29.2181L71.7201 40.1626L74.7608 29.2181H76.7391L79.7797 40.1626L82.3167 29.2181H84.3133L80.778 42.6721H78.8639L75.7591 31.5169L72.636 42.6721H70.7218L67.2049 29.2181H69.1832ZM85.5039 32.8632H87.07V34.5576C87.1983 34.2278 87.5127 33.8279 88.0134 33.3578C88.514 32.8815 89.091 32.6434 89.7444 32.6434C89.7749 32.6434 89.8268 32.6464 89.9001 32.6526C89.9733 32.6587 90.0985 32.6709 90.2756 32.6892V34.4293C90.1779 34.411 90.0863 34.3988 90.0008 34.3927C89.9214 34.3866 89.8329 34.3835 89.7352 34.3835C88.9048 34.3835 88.2668 34.6522 87.821 35.1895C87.3753 35.7207 87.1525 36.3343 87.1525 37.0304V42.6721H85.5039V32.8632ZM91.7043 32.909H93.3803V42.6721H91.7043V32.909ZM91.7043 29.2181H93.3803V31.0864H91.7043V29.2181ZM96.2104 30.1248H97.8772V32.8632H99.4434V34.2095H97.8772V40.6114C97.8772 40.9533 97.9933 41.1823 98.2253 41.2983C98.3535 41.3655 98.5672 41.3991 98.8664 41.3991C98.9458 41.3991 99.0312 41.3991 99.1228 41.3991C99.2144 41.393 99.3213 41.3838 99.4434 41.3716V42.6721C99.2541 42.7271 99.0557 42.7668 98.8481 42.7912C98.6466 42.8156 98.4268 42.8278 98.1886 42.8278C97.4193 42.8278 96.8973 42.6324 96.6225 42.2417C96.3477 41.8448 96.2104 41.3319 96.2104 40.703V34.2095H94.8824V32.8632H96.2104V30.1248ZM105.186 32.6434C105.882 32.6434 106.557 32.8082 107.21 33.138C107.863 33.4616 108.361 33.8829 108.703 34.4019C109.032 34.8964 109.252 35.4734 109.362 36.1328C109.46 36.5847 109.509 37.3051 109.509 38.2943H102.319C102.35 39.2895 102.585 40.0894 103.024 40.6939C103.464 41.2922 104.145 41.5914 105.067 41.5914C105.928 41.5914 106.615 41.3075 107.127 40.7396C107.421 40.4099 107.628 40.0283 107.75 39.5948H109.371C109.329 39.9551 109.185 40.358 108.941 40.8038C108.703 41.2434 108.434 41.6036 108.135 41.8845C107.634 42.3729 107.015 42.7026 106.276 42.8736C105.879 42.9713 105.43 43.0201 104.929 43.0201C103.708 43.0201 102.673 42.5775 101.825 41.6921C100.976 40.8007 100.552 39.5551 100.552 37.9554C100.552 36.3801 100.979 35.101 101.834 34.1179C102.689 33.1349 103.806 32.6434 105.186 32.6434ZM107.814 36.9846C107.747 36.2702 107.592 35.6993 107.347 35.2719C106.895 34.4782 106.141 34.0813 105.085 34.0813C104.328 34.0813 103.693 34.3561 103.18 34.9056C102.667 35.449 102.396 36.142 102.365 36.9846H107.814ZM118.026 40.0619C118.026 40.5382 118.2 40.9137 118.548 41.1884C118.896 41.4632 119.308 41.6006 119.785 41.6006C120.365 41.6006 120.927 41.4662 121.47 41.1976C122.386 40.7519 122.844 40.0222 122.844 39.0087V37.6807C122.642 37.8089 122.383 37.9157 122.065 38.0012C121.748 38.0867 121.436 38.1477 121.131 38.1844L120.133 38.3126C119.534 38.392 119.086 38.5171 118.786 38.6881C118.28 38.9751 118.026 39.433 118.026 40.0619ZM122.019 36.7282C122.398 36.6793 122.651 36.5206 122.78 36.2519C122.853 36.1054 122.89 35.8947 122.89 35.62C122.89 35.0582 122.688 34.6522 122.285 34.4019C121.888 34.1454 121.317 34.0172 120.572 34.0172C119.711 34.0172 119.101 34.2492 118.741 34.7132C118.539 34.9697 118.408 35.3513 118.347 35.8581H116.808C116.839 34.6491 117.229 33.8096 117.98 33.3395C118.738 32.8632 119.614 32.6251 120.609 32.6251C121.763 32.6251 122.7 32.8449 123.421 33.2845C124.135 33.7241 124.492 34.408 124.492 35.336V40.9869C124.492 41.1579 124.526 41.2953 124.593 41.3991C124.666 41.5029 124.816 41.5548 125.042 41.5548C125.115 41.5548 125.198 41.5517 125.289 41.5456C125.381 41.5334 125.478 41.5181 125.582 41.4998V42.7179C125.326 42.7912 125.13 42.837 124.996 42.8553C124.862 42.8736 124.679 42.8828 124.446 42.8828C123.879 42.8828 123.467 42.6813 123.21 42.2783C123.076 42.0646 122.981 41.7624 122.926 41.3716C122.59 41.8112 122.108 42.1928 121.479 42.5164C120.85 42.84 120.157 43.0018 119.4 43.0018C118.49 43.0018 117.745 42.7271 117.165 42.1776C116.591 41.6219 116.304 40.9289 116.304 40.0985C116.304 39.1888 116.588 38.4836 117.156 37.9829C117.724 37.4822 118.469 37.1739 119.391 37.0579L122.019 36.7282ZM136.563 41.5639C137.333 41.5639 137.971 41.2434 138.478 40.6023C138.99 39.9551 139.247 38.9903 139.247 37.7081C139.247 36.9266 139.134 36.255 138.908 35.6932C138.481 34.6125 137.699 34.0721 136.563 34.0721C135.422 34.0721 134.64 34.643 134.219 35.7848C133.993 36.3954 133.88 37.1708 133.88 38.1111C133.88 38.8682 133.993 39.5124 134.219 40.0436C134.646 41.0571 135.428 41.5639 136.563 41.5639ZM132.295 32.909H133.898V34.2095C134.228 33.7638 134.588 33.4188 134.979 33.1746C135.535 32.8082 136.188 32.6251 136.939 32.6251C138.05 32.6251 138.993 33.0525 139.769 33.9073C140.544 34.756 140.932 35.971 140.932 37.5524C140.932 39.6895 140.373 41.2159 139.256 42.1318C138.548 42.7118 137.723 43.0018 136.783 43.0018C136.044 43.0018 135.425 42.84 134.924 42.5164C134.631 42.3332 134.304 42.0188 133.944 41.5731V46.5829H132.295V32.909ZM142.91 32.8632H144.476V34.5576C144.605 34.2278 144.919 33.8279 145.42 33.3578C145.92 32.8815 146.497 32.6434 147.151 32.6434C147.181 32.6434 147.233 32.6464 147.306 32.6526C147.38 32.6587 147.505 32.6709 147.682 32.6892V34.4293C147.584 34.411 147.493 34.3988 147.407 34.3927C147.328 34.3866 147.239 34.3835 147.142 34.3835C146.311 34.3835 145.673 34.6522 145.227 35.1895C144.782 35.7207 144.559 36.3343 144.559 37.0304V42.6721H142.91V32.8632ZM153.003 41.6097C154.096 41.6097 154.844 41.1976 155.247 40.3733C155.656 39.5429 155.861 38.6209 155.861 37.6074C155.861 36.6915 155.714 35.9466 155.421 35.3727C154.957 34.469 154.157 34.0172 153.021 34.0172C152.014 34.0172 151.281 34.4019 150.823 35.1712C150.365 35.9405 150.137 36.8686 150.137 37.9554C150.137 38.9995 150.365 39.8696 150.823 40.5656C151.281 41.2617 152.008 41.6097 153.003 41.6097ZM153.067 32.5793C154.331 32.5793 155.4 33.0006 156.273 33.8432C157.146 34.6858 157.583 35.9252 157.583 37.5616C157.583 39.143 157.198 40.4496 156.429 41.4815C155.659 42.5134 154.466 43.0293 152.847 43.0293C151.498 43.0293 150.427 42.5744 149.633 41.6647C148.839 40.7488 148.442 39.5215 148.442 37.9829C148.442 36.3343 148.86 35.0216 149.697 34.0447C150.533 33.0677 151.657 32.5793 153.067 32.5793ZM159.552 32.8632H161.182V34.2553C161.573 33.773 161.927 33.4219 162.244 33.2021C162.788 32.8296 163.404 32.6434 164.094 32.6434C164.876 32.6434 165.505 32.8357 165.981 33.2204C166.25 33.4402 166.494 33.7638 166.714 34.1912C167.08 33.6661 167.51 33.2784 168.005 33.0281C168.5 32.7716 169.055 32.6434 169.672 32.6434C170.991 32.6434 171.888 33.1196 172.365 34.0721C172.621 34.585 172.749 35.275 172.749 36.142V42.6721H171.037V35.8581C171.037 35.2048 170.872 34.756 170.542 34.5118C170.218 34.2675 169.822 34.1454 169.351 34.1454C168.704 34.1454 168.145 34.3622 167.675 34.7957C167.211 35.2292 166.979 35.9527 166.979 36.9663V42.6721H165.303V36.2702C165.303 35.6047 165.224 35.1193 165.065 34.814C164.815 34.3561 164.348 34.1271 163.664 34.1271C163.041 34.1271 162.473 34.3683 161.96 34.8506C161.454 35.333 161.2 36.2061 161.2 37.47V42.6721H159.552V32.8632ZM179.316 41.5639C180.085 41.5639 180.723 41.2434 181.23 40.6023C181.743 39.9551 181.999 38.9903 181.999 37.7081C181.999 36.9266 181.887 36.255 181.661 35.6932C181.233 34.6125 180.452 34.0721 179.316 34.0721C178.174 34.0721 177.393 34.643 176.971 35.7848C176.745 36.3954 176.632 37.1708 176.632 38.1111C176.632 38.8682 176.745 39.5124 176.971 40.0436C177.399 41.0571 178.18 41.5639 179.316 41.5639ZM175.048 32.909H176.651V34.2095C176.981 33.7638 177.341 33.4188 177.732 33.1746C178.287 32.8082 178.94 32.6251 179.691 32.6251C180.803 32.6251 181.746 33.0525 182.522 33.9073C183.297 34.756 183.685 35.971 183.685 37.5524C183.685 39.6895 183.126 41.2159 182.009 42.1318C181.3 42.7118 180.476 43.0018 179.536 43.0018C178.797 43.0018 178.177 42.84 177.677 42.5164C177.384 42.3332 177.057 42.0188 176.697 41.5731V46.5829H175.048V32.909ZM185.947 30.1248H187.614V32.8632H189.18V34.2095H187.614V40.6114C187.614 40.9533 187.73 41.1823 187.962 41.2983C188.09 41.3655 188.304 41.3991 188.603 41.3991C188.682 41.3991 188.768 41.3991 188.859 41.3991C188.951 41.393 189.058 41.3838 189.18 41.3716V42.6721C188.991 42.7271 188.792 42.7668 188.585 42.7912C188.383 42.8156 188.163 42.8278 187.925 42.8278C187.156 42.8278 186.634 42.6324 186.359 42.2417C186.084 41.8448 185.947 41.3319 185.947 40.703V34.2095H184.619V32.8632H185.947V30.1248ZM191.231 40.6755H193.146V42.6721H191.231V40.6755ZM202.039 32.8632L203.925 40.5931L205.839 32.8632H207.689L209.613 40.5473L211.619 32.8632H213.267L210.419 42.6721H208.706L206.71 35.0796L204.777 42.6721H203.064L200.234 32.8632H202.039ZM218.918 32.6434C219.614 32.6434 220.289 32.8082 220.942 33.138C221.595 33.4616 222.093 33.8829 222.435 34.4019C222.765 34.8964 222.984 35.4734 223.094 36.1328C223.192 36.5847 223.241 37.3051 223.241 38.2943H216.051C216.082 39.2895 216.317 40.0894 216.757 40.6939C217.196 41.2922 217.877 41.5914 218.799 41.5914C219.66 41.5914 220.347 41.3075 220.86 40.7396C221.153 40.4099 221.36 40.0283 221.482 39.5948H223.104C223.061 39.9551 222.917 40.358 222.673 40.8038C222.435 41.2434 222.166 41.6036 221.867 41.8845C221.366 42.3729 220.747 42.7026 220.008 42.8736C219.611 42.9713 219.162 43.0201 218.662 43.0201C217.44 43.0201 216.405 42.5775 215.557 41.6921C214.708 40.8007 214.284 39.5551 214.284 37.9554C214.284 36.3801 214.711 35.101 215.566 34.1179C216.421 33.1349 217.538 32.6434 218.918 32.6434ZM221.547 36.9846C221.479 36.2702 221.324 35.6993 221.079 35.2719C220.628 34.4782 219.874 34.0813 218.817 34.0813C218.06 34.0813 217.425 34.3561 216.912 34.9056C216.399 35.449 216.128 36.142 216.097 36.9846H221.547ZM225.622 33.1288C225.958 33.0739 226.211 32.8846 226.382 32.561C226.559 32.2374 226.648 31.8649 226.648 31.4436C226.648 31.4009 226.645 31.3642 226.639 31.3337C226.639 31.2971 226.633 31.2574 226.62 31.2146H225.622V29.2181H227.582V31.0589C227.582 31.8405 227.42 32.506 227.097 33.0555C226.773 33.5989 226.282 33.9103 225.622 33.9897V33.1288ZM229.496 29.2181H231.145V42.6721H229.496V29.2181ZM233.673 29.2181H235.321V42.6721H233.673V29.2181ZM244.068 37.8821C244.068 38.9323 244.291 39.8116 244.736 40.5198C245.182 41.2281 245.896 41.5822 246.879 41.5822C247.643 41.5822 248.268 41.2556 248.757 40.6023C249.251 39.9428 249.499 38.9995 249.499 37.7722C249.499 36.5328 249.245 35.6169 248.739 35.0246C248.232 34.4263 247.606 34.1271 246.861 34.1271C246.031 34.1271 245.356 34.4446 244.837 35.0796C244.324 35.7146 244.068 36.6488 244.068 37.8821ZM246.55 32.6892C247.301 32.6892 247.93 32.8479 248.436 33.1654C248.729 33.3486 249.062 33.6692 249.435 34.1271V29.1723H251.019V42.6721H249.535V41.3075C249.151 41.912 248.696 42.3485 248.171 42.6172C247.646 42.8858 247.044 43.0201 246.366 43.0201C245.274 43.0201 244.327 42.5622 243.527 41.6463C242.727 40.7244 242.328 39.5002 242.328 37.9737C242.328 36.545 242.691 35.3086 243.417 34.2645C244.15 33.2143 245.194 32.6892 246.55 32.6892ZM257.357 41.6097C258.45 41.6097 259.198 41.1976 259.601 40.3733C260.01 39.5429 260.214 38.6209 260.214 37.6074C260.214 36.6915 260.068 35.9466 259.775 35.3727C259.311 34.469 258.511 34.0172 257.375 34.0172C256.368 34.0172 255.635 34.4019 255.177 35.1712C254.719 35.9405 254.49 36.8686 254.49 37.9554C254.49 38.9995 254.719 39.8696 255.177 40.5656C255.635 41.2617 256.362 41.6097 257.357 41.6097ZM257.421 32.5793C258.685 32.5793 259.753 33.0006 260.627 33.8432C261.5 34.6858 261.936 35.9252 261.936 37.5616C261.936 39.143 261.552 40.4496 260.782 41.4815C260.013 42.5134 258.819 43.0293 257.201 43.0293C255.852 43.0293 254.78 42.5744 253.986 41.6647C253.193 40.7488 252.796 39.5215 252.796 37.9829C252.796 36.3343 253.214 35.0216 254.051 34.0447C254.887 33.0677 256.011 32.5793 257.421 32.5793ZM269.455 30.1248H271.122V32.8632H272.688V34.2095H271.122V40.6114C271.122 40.9533 271.238 41.1823 271.47 41.2983C271.599 41.3655 271.812 41.3991 272.111 41.3991C272.191 41.3991 272.276 41.3991 272.368 41.3991C272.459 41.393 272.566 41.3838 272.688 41.3716V42.6721C272.499 42.7271 272.301 42.7668 272.093 42.7912C271.892 42.8156 271.672 42.8278 271.434 42.8278C270.664 42.8278 270.142 42.6324 269.868 42.2417C269.593 41.8448 269.455 41.3319 269.455 40.703V34.2095H268.127V32.8632H269.455V30.1248ZM274.346 29.1723H275.995V34.1912C276.385 33.6966 276.737 33.3486 277.048 33.1471C277.579 32.7991 278.242 32.6251 279.035 32.6251C280.458 32.6251 281.423 33.1227 281.93 34.1179C282.204 34.6614 282.342 35.4154 282.342 36.3801V42.6721H280.647V36.49C280.647 35.7695 280.556 35.2414 280.373 34.9056C280.073 34.3683 279.512 34.0996 278.687 34.0996C278.004 34.0996 277.384 34.3347 276.828 34.8048C276.273 35.275 275.995 36.1634 275.995 37.47V42.6721H274.346V29.1723ZM288.872 32.6434C289.568 32.6434 290.243 32.8082 290.896 33.138C291.549 33.4616 292.047 33.8829 292.389 34.4019C292.718 34.8964 292.938 35.4734 293.048 36.1328C293.146 36.5847 293.195 37.3051 293.195 38.2943H286.005C286.036 39.2895 286.271 40.0894 286.71 40.6939C287.15 41.2922 287.831 41.5914 288.753 41.5914C289.614 41.5914 290.301 41.3075 290.813 40.7396C291.107 40.4099 291.314 40.0283 291.436 39.5948H293.057C293.015 39.9551 292.871 40.358 292.627 40.8038C292.389 41.2434 292.12 41.6036 291.821 41.8845C291.32 42.3729 290.7 42.7026 289.962 42.8736C289.565 42.9713 289.116 43.0201 288.615 43.0201C287.394 43.0201 286.359 42.5775 285.511 41.6921C284.662 40.8007 284.238 39.5551 284.238 37.9554C284.238 36.3801 284.665 35.101 285.52 34.1179C286.375 33.1349 287.492 32.6434 288.872 32.6434ZM291.5 36.9846C291.433 36.2702 291.277 35.6993 291.033 35.2719C290.581 34.4782 289.827 34.0813 288.771 34.0813C288.014 34.0813 287.379 34.3561 286.866 34.9056C286.353 35.449 286.081 36.142 286.051 36.9846H291.5ZM300.494 32.8632H302.06V34.5576C302.188 34.2278 302.503 33.8279 303.004 33.3578C303.504 32.8815 304.081 32.6434 304.735 32.6434C304.765 32.6434 304.817 32.6464 304.89 32.6526C304.964 32.6587 305.089 32.6709 305.266 32.6892V34.4293C305.168 34.411 305.077 34.3988 304.991 34.3927C304.912 34.3866 304.823 34.3835 304.725 34.3835C303.895 34.3835 303.257 34.6522 302.811 35.1895C302.366 35.7207 302.143 36.3343 302.143 37.0304V42.6721H300.494V32.8632ZM310.779 32.6434C311.475 32.6434 312.15 32.8082 312.803 33.138C313.457 33.4616 313.954 33.8829 314.296 34.4019C314.626 34.8964 314.846 35.4734 314.956 36.1328C315.053 36.5847 315.102 37.3051 315.102 38.2943H307.913C307.943 39.2895 308.178 40.0894 308.618 40.6939C309.057 41.2922 309.738 41.5914 310.66 41.5914C311.521 41.5914 312.208 41.3075 312.721 40.7396C313.014 40.4099 313.222 40.0283 313.344 39.5948H314.965C314.922 39.9551 314.779 40.358 314.534 40.8038C314.296 41.2434 314.028 41.6036 313.728 41.8845C313.228 42.3729 312.608 42.7026 311.869 42.8736C311.472 42.9713 311.024 43.0201 310.523 43.0201C309.302 43.0201 308.267 42.5775 307.418 41.6921C306.569 40.8007 306.145 39.5551 306.145 37.9554C306.145 36.3801 306.572 35.101 307.427 34.1179C308.282 33.1349 309.399 32.6434 310.779 32.6434ZM313.408 36.9846C313.341 36.2702 313.185 35.6993 312.941 35.2719C312.489 34.4782 311.735 34.0813 310.679 34.0813C309.921 34.0813 309.286 34.3561 308.774 34.9056C308.261 35.449 307.989 36.142 307.958 36.9846H313.408ZM318.115 39.5948C318.164 40.1443 318.302 40.5656 318.528 40.8587C318.943 41.3899 319.663 41.6555 320.689 41.6555C321.3 41.6555 321.837 41.5242 322.301 41.2617C322.765 40.993 322.997 40.5809 322.997 40.0253C322.997 39.604 322.811 39.2834 322.438 39.0636C322.2 38.9293 321.73 38.7736 321.028 38.5965L319.718 38.2668C318.882 38.0592 318.265 37.8272 317.868 37.5707C317.16 37.125 316.806 36.5083 316.806 35.7207C316.806 34.7926 317.138 34.0416 317.804 33.4677C318.476 32.8937 319.376 32.6068 320.506 32.6068C321.983 32.6068 323.049 33.0403 323.702 33.9073C324.111 34.4568 324.31 35.0491 324.297 35.6841H322.74C322.71 35.3116 322.579 34.9727 322.347 34.6675C321.968 34.2339 321.312 34.0172 320.378 34.0172C319.755 34.0172 319.282 34.1363 318.958 34.3744C318.64 34.6125 318.482 34.927 318.482 35.3177C318.482 35.7451 318.692 36.087 319.114 36.3435C319.358 36.4961 319.718 36.6305 320.194 36.7465L321.284 37.0121C322.469 37.299 323.263 37.5769 323.666 37.8455C324.307 38.2668 324.627 38.9293 324.627 39.8329C324.627 40.7061 324.294 41.4601 323.629 42.0951C322.969 42.7301 321.962 43.0476 320.607 43.0476C319.147 43.0476 318.112 42.7179 317.502 42.0585C316.897 41.393 316.574 40.5717 316.531 39.5948H318.115ZM326.844 30.1248H328.51V32.8632H330.077V34.2095H328.51V40.6114C328.51 40.9533 328.626 41.1823 328.858 41.2983C328.987 41.3655 329.2 41.3991 329.5 41.3991C329.579 41.3991 329.664 41.3991 329.756 41.3991C329.848 41.393 329.954 41.3838 330.077 41.3716V42.6721C329.887 42.7271 329.689 42.7668 329.481 42.7912C329.28 42.8156 329.06 42.8278 328.822 42.8278C328.052 42.8278 327.53 42.6324 327.256 42.2417C326.981 41.8448 326.844 41.3319 326.844 40.703V34.2095H325.516V32.8632H326.844V30.1248ZM337.367 31.3703C337.391 30.6865 337.51 30.1858 337.724 29.8683C338.109 29.3066 338.851 29.0257 339.95 29.0257C340.053 29.0257 340.16 29.0288 340.27 29.0349C340.38 29.041 340.505 29.0501 340.646 29.0624V30.5644C340.475 30.5522 340.35 30.5461 340.27 30.5461C340.197 30.54 340.127 30.5369 340.059 30.5369C339.559 30.5369 339.26 30.6682 339.162 30.9307C339.064 31.1872 339.015 31.8466 339.015 32.909H340.646V34.2095H338.997V42.6721H337.367V34.2095H336.002V32.909H337.367V31.3703ZM346.068 41.6097C347.161 41.6097 347.908 41.1976 348.311 40.3733C348.721 39.5429 348.925 38.6209 348.925 37.6074C348.925 36.6915 348.779 35.9466 348.485 35.3727C348.021 34.469 347.222 34.0172 346.086 34.0172C345.078 34.0172 344.346 34.4019 343.888 35.1712C343.43 35.9405 343.201 36.8686 343.201 37.9554C343.201 38.9995 343.43 39.8696 343.888 40.5656C344.346 41.2617 345.072 41.6097 346.068 41.6097ZM346.132 32.5793C347.396 32.5793 348.464 33.0006 349.337 33.8432C350.21 34.6858 350.647 35.9252 350.647 37.5616C350.647 39.143 350.262 40.4496 349.493 41.4815C348.724 42.5134 347.53 43.0293 345.912 43.0293C344.563 43.0293 343.491 42.5744 342.697 41.6647C341.903 40.7488 341.507 39.5215 341.507 37.9829C341.507 36.3343 341.925 35.0216 342.761 34.0447C343.598 33.0677 344.721 32.5793 346.132 32.5793ZM352.662 32.8632H354.228V34.5576C354.356 34.2278 354.671 33.8279 355.171 33.3578C355.672 32.8815 356.249 32.6434 356.902 32.6434C356.933 32.6434 356.985 32.6464 357.058 32.6526C357.131 32.6587 357.256 32.6709 357.433 32.6892V34.4293C357.336 34.411 357.244 34.3988 357.159 34.3927C357.079 34.3866 356.991 34.3835 356.893 34.3835C356.063 34.3835 355.425 34.6522 354.979 35.1895C354.533 35.7207 354.31 36.3343 354.31 37.0304V42.6721H352.662V32.8632ZM370.21 32.8632H372.032C371.8 33.4921 371.284 34.927 370.485 37.1678C369.886 38.853 369.385 40.2268 368.983 41.2892C368.03 43.7925 367.358 45.319 366.968 45.8685C366.577 46.418 365.905 46.6928 364.953 46.6928C364.721 46.6928 364.541 46.6836 364.412 46.6653C364.29 46.647 364.138 46.6134 363.954 46.5645V45.0625C364.241 45.1419 364.449 45.1907 364.577 45.2091C364.705 45.2274 364.818 45.2365 364.916 45.2365C365.221 45.2365 365.444 45.1846 365.585 45.0808C365.731 44.9832 365.853 44.861 365.951 44.7145C365.982 44.6657 366.091 44.4153 366.281 43.9635C366.47 43.5117 366.607 43.1758 366.693 42.956L363.066 32.8632H364.934L367.563 40.8495L370.21 32.8632ZM377.354 41.6097C378.446 41.6097 379.194 41.1976 379.597 40.3733C380.006 39.5429 380.211 38.6209 380.211 37.6074C380.211 36.6915 380.064 35.9466 379.771 35.3727C379.307 34.469 378.508 34.0172 377.372 34.0172C376.364 34.0172 375.632 34.4019 375.174 35.1712C374.716 35.9405 374.487 36.8686 374.487 37.9554C374.487 38.9995 374.716 39.8696 375.174 40.5656C375.632 41.2617 376.358 41.6097 377.354 41.6097ZM377.418 32.5793C378.682 32.5793 379.75 33.0006 380.623 33.8432C381.496 34.6858 381.933 35.9252 381.933 37.5616C381.933 39.143 381.548 40.4496 380.779 41.4815C380.01 42.5134 378.816 43.0293 377.198 43.0293C375.848 43.0293 374.777 42.5744 373.983 41.6647C373.189 40.7488 372.793 39.5215 372.793 37.9829C372.793 36.3343 373.211 35.0216 374.047 34.0447C374.884 33.0677 376.007 32.5793 377.418 32.5793ZM385.551 32.8632V39.375C385.551 39.8757 385.63 40.2848 385.789 40.6023C386.082 41.1884 386.628 41.4815 387.428 41.4815C388.576 41.4815 389.357 40.9686 389.773 39.9428C389.999 39.3933 390.112 38.6393 390.112 37.6807V32.8632H391.76V42.6721H390.203L390.221 41.2251C390.008 41.5975 389.742 41.912 389.425 42.1684C388.796 42.6813 388.033 42.9377 387.135 42.9377C385.737 42.9377 384.784 42.4706 384.277 41.5364C384.003 41.0358 383.865 40.3672 383.865 39.5307V32.8632H385.551Z" fill="#333333"/>
<path d="M63.7899 62.9549V64.0235H60.7676V71.9243H59.5342V64.0235H56.5119V62.9549H63.7899ZM66.2481 65.2385C66.7122 65.2385 67.162 65.3484 67.5975 65.5682C68.033 65.7839 68.3648 66.0648 68.5927 66.4108C68.8126 66.7405 68.9591 67.1252 69.0324 67.5648C69.0975 67.866 69.1301 68.3463 69.1301 69.0058H64.337C64.3574 69.6693 64.5141 70.2025 64.8072 70.6055C65.1002 71.0044 65.5541 71.2038 66.1688 71.2038C66.7427 71.2038 67.2006 71.0146 67.5426 70.636C67.7379 70.4162 67.8763 70.1618 67.9577 69.8728H69.0385C69.01 70.1129 68.9143 70.3816 68.7515 70.6787C68.5927 70.9718 68.4136 71.212 68.2142 71.3992C67.8804 71.7249 67.4672 71.9447 66.9747 72.0586C66.7101 72.1238 66.4109 72.1563 66.0772 72.1563C65.2631 72.1563 64.5731 71.8612 64.0073 71.271C63.4415 70.6767 63.1586 69.8463 63.1586 68.7798C63.1586 67.7297 63.4435 66.8769 64.0134 66.2215C64.5833 65.5662 65.3282 65.2385 66.2481 65.2385ZM68.0005 68.1326C67.9557 67.6564 67.8519 67.2758 67.6891 66.9909C67.3879 66.4617 66.8852 66.1971 66.181 66.1971C65.6762 66.1971 65.2529 66.3803 64.911 66.7466C64.569 67.1089 64.3879 67.5709 64.3676 68.1326H68.0005ZM70.6724 62.9549H71.7714V71.9243H70.6724V62.9549ZM73.6129 62.9549H74.7119V71.9243H73.6129V62.9549ZM81.2586 65.385V69.7262C81.2586 70.06 81.3115 70.3327 81.4173 70.5444C81.6127 70.9352 81.977 71.1306 82.5102 71.1306C83.2755 71.1306 83.7965 70.7886 84.0733 70.1048C84.2239 69.7385 84.2992 69.2357 84.2992 68.5967V65.385H85.3983V71.9243H84.3603L84.3725 70.9596C84.23 71.2079 84.053 71.4175 83.8413 71.5885C83.422 71.9304 82.9132 72.1014 82.3149 72.1014C81.3827 72.1014 80.7477 71.79 80.4099 71.1672C80.2267 70.8334 80.1351 70.3877 80.1351 69.83V65.385H81.2586ZM87.9297 69.8728C87.9623 70.2391 88.0539 70.52 88.2045 70.7154C88.4813 71.0695 88.9616 71.2466 89.6454 71.2466C90.0525 71.2466 90.4107 71.1591 90.7201 70.984C91.0294 70.8049 91.1841 70.5302 91.1841 70.1597C91.1841 69.8789 91.0599 69.6652 90.8116 69.5186C90.6529 69.4291 90.3395 69.3253 89.8713 69.2072L88.9982 68.9874C88.4406 68.849 88.0294 68.6944 87.7649 68.5234C87.2927 68.2263 87.0566 67.8151 87.0566 67.29C87.0566 66.6713 87.2784 66.1706 87.7221 65.788C88.1699 65.4054 88.7703 65.2141 89.5233 65.2141C90.5084 65.2141 91.2187 65.5031 91.6542 66.0811C91.927 66.4474 92.0592 66.8423 92.0511 67.2656H91.0131C90.9928 67.0173 90.9053 66.7914 90.7506 66.5879C90.4982 66.2989 90.0606 66.1544 89.4378 66.1544C89.0226 66.1544 88.7072 66.2337 88.4914 66.3925C88.2798 66.5512 88.1739 66.7609 88.1739 67.0214C88.1739 67.3063 88.3144 67.5343 88.5952 67.7052C88.7581 67.807 88.9982 67.8965 89.3157 67.9739L90.0423 68.151C90.832 68.3423 91.3612 68.5275 91.6298 68.7066C92.0572 68.9874 92.2709 69.4291 92.2709 70.0315C92.2709 70.6136 92.0491 71.1163 91.6054 71.5397C91.1658 71.963 90.4941 72.1747 89.5905 72.1747C88.6176 72.1747 87.9277 71.9548 87.5206 71.5152C87.1176 71.0715 86.9019 70.5241 86.8734 69.8728H87.9297ZM97.5414 63.5594H98.6527V65.385H99.6968V66.2826H98.6527V70.5505C98.6527 70.7785 98.73 70.9311 98.8847 71.0085C98.9702 71.0532 99.1126 71.0756 99.3121 71.0756C99.365 71.0756 99.422 71.0756 99.4831 71.0756C99.5441 71.0715 99.6153 71.0654 99.6968 71.0573V71.9243C99.5706 71.961 99.4383 71.9874 99.2999 72.0037C99.1656 72.02 99.019 72.0281 98.8603 72.0281C98.3474 72.0281 97.9993 71.8979 97.8162 71.6373C97.633 71.3728 97.5414 71.0308 97.5414 70.6116V66.2826H96.6561V65.385H97.5414V63.5594ZM100.958 62.9244H102.057V66.2704C102.318 65.9407 102.552 65.7086 102.759 65.5743C103.114 65.3423 103.555 65.2263 104.084 65.2263C105.033 65.2263 105.676 65.558 106.014 66.2215C106.197 66.5838 106.289 67.0865 106.289 67.7297V71.9243H105.159V67.8029C105.159 67.3226 105.098 66.9705 104.976 66.7466C104.776 66.3884 104.402 66.2093 103.852 66.2093C103.396 66.2093 102.983 66.366 102.613 66.6795C102.242 66.9929 102.057 67.5851 102.057 68.4562V71.9243H100.958V62.9244ZM110.798 65.2385C111.262 65.2385 111.712 65.3484 112.148 65.5682C112.583 65.7839 112.915 66.0648 113.143 66.4108C113.363 66.7405 113.509 67.1252 113.582 67.5648C113.648 67.866 113.68 68.3463 113.68 69.0058H108.887C108.908 69.6693 109.064 70.2025 109.357 70.6055C109.65 71.0044 110.104 71.2038 110.719 71.2038C111.293 71.2038 111.751 71.0146 112.093 70.636C112.288 70.4162 112.426 70.1618 112.508 69.8728H113.589C113.56 70.1129 113.464 70.3816 113.302 70.6787C113.143 70.9718 112.964 71.212 112.764 71.3992C112.431 71.7249 112.017 71.9447 111.525 72.0586C111.26 72.1238 110.961 72.1563 110.627 72.1563C109.813 72.1563 109.123 71.8612 108.557 71.271C107.992 70.6767 107.709 69.8463 107.709 68.7798C107.709 67.7297 107.994 66.8769 108.564 66.2215C109.133 65.5662 109.878 65.2385 110.798 65.2385ZM112.551 68.1326C112.506 67.6564 112.402 67.2758 112.239 66.9909C111.938 66.4617 111.435 66.1971 110.731 66.1971C110.226 66.1971 109.803 66.3803 109.461 66.7466C109.119 67.1089 108.938 67.5709 108.918 68.1326H112.551ZM119.482 69.8728C119.514 70.2391 119.606 70.52 119.757 70.7154C120.033 71.0695 120.514 71.2466 121.198 71.2466C121.605 71.2466 121.963 71.1591 122.272 70.984C122.582 70.8049 122.736 70.5302 122.736 70.1597C122.736 69.8789 122.612 69.6652 122.364 69.5186C122.205 69.4291 121.892 69.3253 121.424 69.2072L120.55 68.9874C119.993 68.849 119.582 68.6944 119.317 68.5234C118.845 68.2263 118.609 67.8151 118.609 67.29C118.609 66.6713 118.831 66.1706 119.274 65.788C119.722 65.4054 120.322 65.2141 121.075 65.2141C122.061 65.2141 122.771 65.5031 123.206 66.0811C123.479 66.4474 123.611 66.8423 123.603 67.2656H122.565C122.545 67.0173 122.457 66.7914 122.303 66.5879C122.05 66.2989 121.613 66.1544 120.99 66.1544C120.575 66.1544 120.259 66.2337 120.044 66.3925C119.832 66.5512 119.726 66.7609 119.726 67.0214C119.726 67.3063 119.867 67.5343 120.147 67.7052C120.31 67.807 120.55 67.8965 120.868 67.9739L121.594 68.151C122.384 68.3423 122.913 68.5275 123.182 68.7066C123.609 68.9874 123.823 69.4291 123.823 70.0315C123.823 70.6136 123.601 71.1163 123.158 71.5397C122.718 71.963 122.046 72.1747 121.143 72.1747C120.17 72.1747 119.48 71.9548 119.073 71.5152C118.67 71.0715 118.454 70.5241 118.426 69.8728H119.482ZM126.336 65.385V69.7262C126.336 70.06 126.389 70.3327 126.495 70.5444C126.69 70.9352 127.055 71.1306 127.588 71.1306C128.353 71.1306 128.874 70.7886 129.151 70.1048C129.302 69.7385 129.377 69.2357 129.377 68.5967V65.385H130.476V71.9243H129.438L129.45 70.9596C129.308 71.2079 129.131 71.4175 128.919 71.5885C128.5 71.9304 127.991 72.1014 127.393 72.1014C126.46 72.1014 125.825 71.79 125.488 71.1672C125.304 70.8334 125.213 70.3877 125.213 69.83V65.385H126.336ZM132.385 65.385H133.429V66.5146C133.514 66.2948 133.724 66.0282 134.058 65.7147C134.391 65.3972 134.776 65.2385 135.212 65.2385C135.232 65.2385 135.267 65.2405 135.315 65.2446C135.364 65.2487 135.448 65.2568 135.566 65.269V66.4291C135.501 66.4169 135.44 66.4088 135.383 66.4047C135.33 66.4006 135.271 66.3986 135.205 66.3986C134.652 66.3986 134.227 66.5777 133.929 66.9359C133.632 67.29 133.484 67.6991 133.484 68.1632V71.9243H132.385V65.385ZM137.212 65.385L138.958 70.7093L140.784 65.385H141.987L139.52 71.9243H138.347L135.936 65.385H137.212ZM145.806 65.2385C146.27 65.2385 146.72 65.3484 147.156 65.5682C147.591 65.7839 147.923 66.0648 148.151 66.4108C148.371 66.7405 148.517 67.1252 148.591 67.5648C148.656 67.866 148.688 68.3463 148.688 69.0058H143.895C143.916 69.6693 144.072 70.2025 144.365 70.6055C144.658 71.0044 145.112 71.2038 145.727 71.2038C146.301 71.2038 146.759 71.0146 147.101 70.636C147.296 70.4162 147.435 70.1618 147.516 69.8728H148.597C148.568 70.1129 148.472 70.3816 148.31 70.6787C148.151 70.9718 147.972 71.212 147.772 71.3992C147.439 71.7249 147.025 71.9447 146.533 72.0586C146.268 72.1238 145.969 72.1563 145.635 72.1563C144.821 72.1563 144.131 71.8612 143.565 71.271C143 70.6767 142.717 69.8463 142.717 68.7798C142.717 67.7297 143.002 66.8769 143.572 66.2215C144.141 65.5662 144.886 65.2385 145.806 65.2385ZM147.559 68.1326C147.514 67.6564 147.41 67.2758 147.247 66.9909C146.946 66.4617 146.443 66.1971 145.739 66.1971C145.234 66.1971 144.811 66.3803 144.469 66.7466C144.127 67.1089 143.946 67.5709 143.926 68.1326H147.559ZM154.285 65.385H155.5C155.345 65.8043 155.001 66.7609 154.468 68.2547C154.069 69.3782 153.735 70.2941 153.467 71.0023C152.832 72.6713 152.384 73.6889 152.123 74.0552C151.863 74.4216 151.415 74.6047 150.78 74.6047C150.625 74.6047 150.505 74.5986 150.42 74.5864C150.338 74.5742 150.237 74.5518 150.115 74.5193V73.5179C150.306 73.5708 150.444 73.6034 150.53 73.6156C150.615 73.6278 150.691 73.6339 150.756 73.6339C150.959 73.6339 151.108 73.5993 151.201 73.5301C151.299 73.465 151.38 73.3836 151.446 73.2859C151.466 73.2533 151.539 73.0864 151.665 72.7852C151.792 72.484 151.883 72.2601 151.94 72.1136L149.522 65.385H150.768L152.52 70.7093L154.285 65.385ZM164.33 65.385H165.545C165.39 65.8043 165.046 66.7609 164.513 68.2547C164.114 69.3782 163.78 70.2941 163.512 71.0023C162.877 72.6713 162.429 73.6889 162.169 74.0552C161.908 74.4216 161.46 74.6047 160.825 74.6047C160.671 74.6047 160.551 74.5986 160.465 74.5864C160.384 74.5742 160.282 74.5518 160.16 74.5193V73.5179C160.351 73.5708 160.489 73.6034 160.575 73.6156C160.66 73.6278 160.736 73.6339 160.801 73.6339C161.004 73.6339 161.153 73.5993 161.247 73.5301C161.344 73.465 161.426 73.3836 161.491 73.2859C161.511 73.2533 161.584 73.0864 161.711 72.7852C161.837 72.484 161.928 72.2601 161.985 72.1136L159.567 65.385H160.813L162.565 70.7093L164.33 65.385ZM169.249 71.216C169.977 71.216 170.476 70.9413 170.745 70.3918C171.017 69.8382 171.154 69.2235 171.154 68.5478C171.154 67.9372 171.056 67.4406 170.861 67.058C170.551 66.4556 170.018 66.1544 169.261 66.1544C168.589 66.1544 168.101 66.4108 167.796 66.9237C167.49 67.4366 167.338 68.0553 167.338 68.7798C167.338 69.4759 167.49 70.056 167.796 70.52C168.101 70.984 168.585 71.216 169.249 71.216ZM169.292 65.1958C170.134 65.1958 170.846 65.4766 171.429 66.0384C172.011 66.6001 172.302 67.4264 172.302 68.5173C172.302 69.5716 172.045 70.4426 171.532 71.1306C171.019 71.8185 170.224 72.1624 169.145 72.1624C168.245 72.1624 167.531 71.8592 167.002 71.2527C166.473 70.6421 166.208 69.8239 166.208 68.7982C166.208 67.6991 166.487 66.824 167.045 66.1727C167.602 65.5214 168.351 65.1958 169.292 65.1958ZM174.87 65.385V69.7262C174.87 70.06 174.923 70.3327 175.029 70.5444C175.224 70.9352 175.588 71.1306 176.121 71.1306C176.887 71.1306 177.408 70.7886 177.685 70.1048C177.835 69.7385 177.91 69.2357 177.91 68.5967V65.385H179.009V71.9243H177.971L177.984 70.9596C177.841 71.2079 177.664 71.4175 177.452 71.5885C177.033 71.9304 176.524 72.1014 175.926 72.1014C174.994 72.1014 174.359 71.79 174.021 71.1672C173.838 70.8334 173.746 70.3877 173.746 69.83V65.385H174.87ZM185.031 65.385L186.289 70.5383L187.565 65.385H188.798L190.08 70.5078L191.418 65.385H192.517L190.618 71.9243H189.476L188.145 66.8626L186.857 71.9243H185.715L183.828 65.385H185.031ZM194.56 70.1842C194.56 70.5017 194.676 70.752 194.908 70.9352C195.14 71.1184 195.414 71.2099 195.732 71.2099C196.119 71.2099 196.493 71.1204 196.855 70.9413C197.466 70.6441 197.771 70.1577 197.771 69.482V68.5967C197.637 68.6822 197.464 68.7534 197.252 68.8104C197.041 68.8674 196.833 68.9081 196.63 68.9325L195.964 69.018C195.565 69.0709 195.266 69.1543 195.066 69.2683C194.729 69.4596 194.56 69.7649 194.56 70.1842ZM197.222 67.9617C197.474 67.9291 197.643 67.8233 197.729 67.6442C197.777 67.5465 197.802 67.406 197.802 67.2229C197.802 66.8484 197.667 66.5777 197.399 66.4108C197.134 66.2398 196.754 66.1544 196.257 66.1544C195.683 66.1544 195.276 66.309 195.036 66.6184C194.902 66.7894 194.814 67.0438 194.773 67.3816H193.748C193.768 66.5757 194.028 66.016 194.529 65.7025C195.034 65.385 195.618 65.2263 196.281 65.2263C197.051 65.2263 197.676 65.3728 198.156 65.6659C198.632 65.959 198.87 66.4149 198.87 67.0336V70.8009C198.87 70.9148 198.893 71.0064 198.937 71.0756C198.986 71.1448 199.086 71.1794 199.237 71.1794C199.286 71.1794 199.34 71.1774 199.402 71.1733C199.463 71.1652 199.528 71.155 199.597 71.1428V71.9548C199.426 72.0037 199.296 72.0342 199.206 72.0464C199.117 72.0586 198.994 72.0647 198.84 72.0647C198.461 72.0647 198.186 71.9304 198.016 71.6618C197.926 71.5193 197.863 71.3178 197.826 71.0573C197.602 71.3504 197.281 71.6048 196.862 71.8205C196.442 72.0363 195.98 72.1441 195.476 72.1441C194.869 72.1441 194.372 71.961 193.986 71.5946C193.603 71.2242 193.412 70.7622 193.412 70.2086C193.412 69.6021 193.601 69.1319 193.98 68.7982C194.358 68.4644 194.855 68.2588 195.469 68.1815L197.222 67.9617ZM200.834 65.385H201.878V66.3131C202.187 65.9305 202.515 65.6557 202.861 65.4888C203.207 65.3219 203.592 65.2385 204.015 65.2385C204.943 65.2385 205.57 65.5621 205.896 66.2093C206.075 66.5635 206.164 67.0702 206.164 67.7297V71.9243H205.047V67.8029C205.047 67.404 204.988 67.0824 204.87 66.8382C204.674 66.4312 204.32 66.2276 203.807 66.2276C203.547 66.2276 203.333 66.2541 203.166 66.307C202.865 66.3966 202.601 66.5757 202.373 66.8443C202.189 67.0601 202.069 67.2839 202.012 67.516C201.959 67.7439 201.933 68.0716 201.933 68.499V71.9243H200.834V65.385ZM208.171 63.5594H209.282V65.385H210.326V66.2826H209.282V70.5505C209.282 70.7785 209.359 70.9311 209.514 71.0085C209.599 71.0532 209.742 71.0756 209.941 71.0756C209.994 71.0756 210.051 71.0756 210.112 71.0756C210.173 71.0715 210.245 71.0654 210.326 71.0573V71.9243C210.2 71.961 210.067 71.9874 209.929 72.0037C209.795 72.02 209.648 72.0281 209.489 72.0281C208.977 72.0281 208.629 71.8979 208.445 71.6373C208.262 71.3728 208.171 71.0308 208.171 70.6116V66.2826H207.285V65.385H208.171V63.5594ZM215.444 63.5594H216.555V65.385H217.599V66.2826H216.555V70.5505C216.555 70.7785 216.632 70.9311 216.787 71.0085C216.873 71.0532 217.015 71.0756 217.214 71.0756C217.267 71.0756 217.324 71.0756 217.385 71.0756C217.447 71.0715 217.518 71.0654 217.599 71.0573V71.9243C217.473 71.961 217.341 71.9874 217.202 72.0037C217.068 72.02 216.921 72.0281 216.763 72.0281C216.25 72.0281 215.902 71.8979 215.719 71.6373C215.535 71.3728 215.444 71.0308 215.444 70.6116V66.2826H214.558V65.385H215.444V63.5594ZM221.456 71.216C222.184 71.216 222.683 70.9413 222.951 70.3918C223.224 69.8382 223.361 69.2235 223.361 68.5478C223.361 67.9372 223.263 67.4406 223.067 67.058C222.758 66.4556 222.225 66.1544 221.468 66.1544C220.796 66.1544 220.308 66.4108 220.002 66.9237C219.697 67.4366 219.544 68.0553 219.544 68.7798C219.544 69.4759 219.697 70.056 220.002 70.52C220.308 70.984 220.792 71.216 221.456 71.216ZM221.498 65.1958C222.341 65.1958 223.053 65.4766 223.635 66.0384C224.217 66.6001 224.508 67.4264 224.508 68.5173C224.508 69.5716 224.252 70.4426 223.739 71.1306C223.226 71.8185 222.43 72.1624 221.352 72.1624C220.452 72.1624 219.738 71.8592 219.209 71.2527C218.679 70.6421 218.415 69.8239 218.415 68.7982C218.415 67.6991 218.694 66.824 219.251 66.1727C219.809 65.5214 220.558 65.1958 221.498 65.1958ZM229.614 65.385H230.701V66.3131C230.961 65.9915 231.198 65.7575 231.409 65.611C231.771 65.3627 232.183 65.2385 232.643 65.2385C233.164 65.2385 233.583 65.3667 233.9 65.6232C234.079 65.7697 234.242 65.9854 234.389 66.2704C234.633 65.9203 234.92 65.6618 235.25 65.4949C235.579 65.324 235.95 65.2385 236.361 65.2385C237.24 65.2385 237.839 65.556 238.156 66.191C238.327 66.5329 238.412 66.9929 238.412 67.5709V71.9243H237.271V67.3816C237.271 66.9461 237.161 66.6469 236.941 66.4841C236.725 66.3213 236.461 66.2398 236.147 66.2398C235.716 66.2398 235.343 66.3843 235.03 66.6734C234.721 66.9624 234.566 67.4447 234.566 68.1204V71.9243H233.449V67.6564C233.449 67.2127 233.396 66.8891 233.29 66.6856C233.123 66.3803 232.811 66.2276 232.356 66.2276C231.94 66.2276 231.562 66.3884 231.22 66.71C230.882 67.0316 230.713 67.6136 230.713 68.4562V71.9243H229.614V65.385ZM241.029 70.1842C241.029 70.5017 241.145 70.752 241.377 70.9352C241.609 71.1184 241.884 71.2099 242.202 71.2099C242.588 71.2099 242.963 71.1204 243.325 70.9413C243.936 70.6441 244.241 70.1577 244.241 69.482V68.5967C244.107 68.6822 243.934 68.7534 243.722 68.8104C243.51 68.8674 243.303 68.9081 243.099 68.9325L242.434 69.018C242.035 69.0709 241.736 69.1543 241.536 69.2683C241.198 69.4596 241.029 69.7649 241.029 70.1842ZM243.692 67.9617C243.944 67.9291 244.113 67.8233 244.198 67.6442C244.247 67.5465 244.272 67.406 244.272 67.2229C244.272 66.8484 244.137 66.5777 243.869 66.4108C243.604 66.2398 243.223 66.1544 242.727 66.1544C242.153 66.1544 241.746 66.309 241.506 66.6184C241.371 66.7894 241.284 67.0438 241.243 67.3816H240.217C240.238 66.5757 240.498 66.016 240.999 65.7025C241.504 65.385 242.088 65.2263 242.751 65.2263C243.521 65.2263 244.145 65.3728 244.626 65.6659C245.102 65.959 245.34 66.4149 245.34 67.0336V70.8009C245.34 70.9148 245.362 71.0064 245.407 71.0756C245.456 71.1448 245.556 71.1794 245.706 71.1794C245.755 71.1794 245.81 71.1774 245.871 71.1733C245.932 71.1652 245.997 71.155 246.067 71.1428V71.9548C245.896 72.0037 245.765 72.0342 245.676 72.0464C245.586 72.0586 245.464 72.0647 245.31 72.0647C244.931 72.0647 244.656 71.9304 244.485 71.6618C244.396 71.5193 244.333 71.3178 244.296 71.0573C244.072 71.3504 243.751 71.6048 243.331 71.8205C242.912 72.0363 242.45 72.1441 241.945 72.1441C241.339 72.1441 240.842 71.961 240.455 71.5946C240.073 71.2242 239.882 70.7622 239.882 70.2086C239.882 69.6021 240.071 69.1319 240.449 68.7982C240.828 68.4644 241.325 68.2588 241.939 68.1815L243.692 67.9617ZM247.279 62.9549H248.336V68.1632L251.156 65.385H252.561L250.057 67.8335L252.701 71.9243H251.297L249.258 68.6272L248.336 69.4698V71.9243H247.279V62.9549ZM256.436 65.2385C256.9 65.2385 257.349 65.3484 257.785 65.5682C258.22 65.7839 258.552 66.0648 258.78 66.4108C259 66.7405 259.146 67.1252 259.22 67.5648C259.285 67.866 259.317 68.3463 259.317 69.0058H254.524C254.545 69.6693 254.701 70.2025 254.995 70.6055C255.288 71.0044 255.741 71.2038 256.356 71.2038C256.93 71.2038 257.388 71.0146 257.73 70.636C257.925 70.4162 258.064 70.1618 258.145 69.8728H259.226C259.197 70.1129 259.102 70.3816 258.939 70.6787C258.78 70.9718 258.601 71.212 258.402 71.3992C258.068 71.7249 257.655 71.9447 257.162 72.0586C256.898 72.1238 256.598 72.1563 256.265 72.1563C255.45 72.1563 254.76 71.8612 254.195 71.271C253.629 70.6767 253.346 69.8463 253.346 68.7798C253.346 67.7297 253.631 66.8769 254.201 66.2215C254.771 65.5662 255.516 65.2385 256.436 65.2385ZM258.188 68.1326C258.143 67.6564 258.039 67.2758 257.876 66.9909C257.575 66.4617 257.073 66.1971 256.368 66.1971C255.864 66.1971 255.44 66.3803 255.098 66.7466C254.756 67.1089 254.575 67.5709 254.555 68.1326H258.188ZM263.033 70.6543H264.248V71.9243H263.033V70.6543ZM260.976 65.7636C260.976 64.8844 261.224 64.1781 261.721 63.6449C262.217 63.1076 262.899 62.8389 263.766 62.8389C264.568 62.8389 265.209 63.0689 265.689 63.5289C266.174 63.9848 266.416 64.5689 266.416 65.2812C266.416 65.7127 266.326 66.0628 266.147 66.3314C265.972 66.6001 265.616 66.9949 265.079 67.516C264.688 67.8945 264.434 68.2161 264.316 68.4807C264.202 68.7412 264.145 69.1279 264.145 69.6408H263.058C263.058 69.0587 263.127 68.5906 263.265 68.2364C263.404 67.8782 263.707 67.4691 264.175 67.0092L264.664 66.5268C264.81 66.3884 264.928 66.2439 265.018 66.0933C265.181 65.8287 265.262 65.554 265.262 65.269C265.262 64.8701 265.142 64.5241 264.902 64.231C264.666 63.938 264.273 63.7914 263.723 63.7914C263.044 63.7914 262.573 64.0438 262.313 64.5485C262.166 64.8294 262.083 65.2344 262.063 65.7636H260.976ZM272.321 62.9549L274.013 70.2513L276.04 62.9549H277.359L279.386 70.2513L281.077 62.9549H282.408L280.051 71.9243H278.775L276.705 64.4875L274.623 71.9243H273.347L271.003 62.9549H272.321ZM286.051 65.2385C286.515 65.2385 286.965 65.3484 287.4 65.5682C287.836 65.7839 288.168 66.0648 288.396 66.4108C288.615 66.7405 288.762 67.1252 288.835 67.5648C288.9 67.866 288.933 68.3463 288.933 69.0058H284.14C284.16 69.6693 284.317 70.2025 284.61 70.6055C284.903 71.0044 285.357 71.2038 285.972 71.2038C286.545 71.2038 287.003 71.0146 287.345 70.636C287.541 70.4162 287.679 70.1618 287.761 69.8728H288.841C288.813 70.1129 288.717 70.3816 288.554 70.6787C288.396 70.9718 288.216 71.212 288.017 71.3992C287.683 71.7249 287.27 71.9447 286.778 72.0586C286.513 72.1238 286.214 72.1563 285.88 72.1563C285.066 72.1563 284.376 71.8612 283.81 71.271C283.244 70.6767 282.961 69.8463 282.961 68.7798C282.961 67.7297 283.246 66.8769 283.816 66.2215C284.386 65.5662 285.131 65.2385 286.051 65.2385ZM287.803 68.1326C287.759 67.6564 287.655 67.2758 287.492 66.9909C287.191 66.4617 286.688 66.1971 285.984 66.1971C285.479 66.1971 285.056 66.3803 284.714 66.7466C284.372 67.1089 284.191 67.5709 284.17 68.1326H287.803ZM294.588 65.385L295.846 70.5383L297.122 65.385H298.355L299.637 70.5078L300.975 65.385H302.074L300.175 71.9243H299.033L297.702 66.8626L296.414 71.9243H295.272L293.385 65.385H294.588ZM303.274 65.4156H304.391V71.9243H303.274V65.4156ZM303.274 62.9549H304.391V64.2005H303.274V62.9549ZM306.245 62.9549H307.344V71.9243H306.245V62.9549ZM309.186 62.9549H310.285V71.9243H309.186V62.9549ZM318.254 65.1958C318.991 65.1958 319.589 65.3749 320.049 65.7331C320.513 66.0913 320.792 66.708 320.886 67.5831H319.817C319.752 67.1801 319.603 66.8464 319.371 66.5818C319.139 66.3131 318.767 66.1788 318.254 66.1788C317.554 66.1788 317.053 66.5207 316.752 67.2046C316.557 67.6482 316.459 68.1957 316.459 68.847C316.459 69.5024 316.597 70.0539 316.874 70.5017C317.151 70.9494 317.586 71.1733 318.181 71.1733C318.637 71.1733 318.997 71.0349 319.261 70.7581C319.53 70.4772 319.715 70.0946 319.817 69.6102H320.886C320.763 70.4772 320.458 71.1122 319.97 71.5152C319.481 71.9141 318.856 72.1136 318.095 72.1136C317.24 72.1136 316.559 71.8022 316.05 71.1794C315.541 70.5526 315.287 69.771 315.287 68.8348C315.287 67.6869 315.565 66.7934 316.123 66.1544C316.681 65.5153 317.391 65.1958 318.254 65.1958ZM322.171 65.385H323.216V66.5146C323.301 66.2948 323.511 66.0282 323.844 65.7147C324.178 65.3972 324.563 65.2385 324.998 65.2385C325.019 65.2385 325.053 65.2405 325.102 65.2446C325.151 65.2487 325.235 65.2568 325.353 65.269V66.4291C325.287 66.4169 325.226 66.4088 325.169 66.4047C325.116 66.4006 325.057 66.3986 324.992 66.3986C324.439 66.3986 324.013 66.5777 323.716 66.9359C323.419 67.29 323.27 67.6991 323.27 68.1632V71.9243H322.171V65.385ZM329.185 65.2385C329.649 65.2385 330.098 65.3484 330.534 65.5682C330.969 65.7839 331.301 66.0648 331.529 66.4108C331.749 66.7405 331.895 67.1252 331.969 67.5648C332.034 67.866 332.066 68.3463 332.066 69.0058H327.273C327.294 69.6693 327.45 70.2025 327.744 70.6055C328.037 71.0044 328.491 71.2038 329.105 71.2038C329.679 71.2038 330.137 71.0146 330.479 70.636C330.674 70.4162 330.813 70.1618 330.894 69.8728H331.975C331.946 70.1129 331.851 70.3816 331.688 70.6787C331.529 70.9718 331.35 71.212 331.151 71.3992C330.817 71.7249 330.404 71.9447 329.911 72.0586C329.647 72.1238 329.347 72.1563 329.014 72.1563C328.199 72.1563 327.51 71.8612 326.944 71.271C326.378 70.6767 326.095 69.8463 326.095 68.7798C326.095 67.7297 326.38 66.8769 326.95 66.2215C327.52 65.5662 328.265 65.2385 329.185 65.2385ZM330.937 68.1326C330.892 67.6564 330.788 67.2758 330.625 66.9909C330.324 66.4617 329.822 66.1971 329.117 66.1971C328.613 66.1971 328.189 66.3803 327.847 66.7466C327.505 67.1089 327.324 67.5709 327.304 68.1326H330.937ZM334.421 70.1842C334.421 70.5017 334.537 70.752 334.769 70.9352C335.001 71.1184 335.276 71.2099 335.593 71.2099C335.98 71.2099 336.354 71.1204 336.717 70.9413C337.327 70.6441 337.632 70.1577 337.632 69.482V68.5967C337.498 68.6822 337.325 68.7534 337.113 68.8104C336.902 68.8674 336.694 68.9081 336.491 68.9325L335.825 69.018C335.426 69.0709 335.127 69.1543 334.928 69.2683C334.59 69.4596 334.421 69.7649 334.421 70.1842ZM337.083 67.9617C337.335 67.9291 337.504 67.8233 337.59 67.6442C337.639 67.5465 337.663 67.406 337.663 67.2229C337.663 66.8484 337.529 66.5777 337.26 66.4108C336.995 66.2398 336.615 66.1544 336.118 66.1544C335.544 66.1544 335.137 66.309 334.897 66.6184C334.763 66.7894 334.675 67.0438 334.635 67.3816H333.609C333.629 66.5757 333.89 66.016 334.39 65.7025C334.895 65.385 335.479 65.2263 336.143 65.2263C336.912 65.2263 337.537 65.3728 338.017 65.6659C338.493 65.959 338.732 66.4149 338.732 67.0336V70.8009C338.732 70.9148 338.754 71.0064 338.799 71.0756C338.848 71.1448 338.947 71.1794 339.098 71.1794C339.147 71.1794 339.202 71.1774 339.263 71.1733C339.324 71.1652 339.389 71.155 339.458 71.1428V71.9548C339.287 72.0037 339.157 72.0342 339.067 72.0464C338.978 72.0586 338.856 72.0647 338.701 72.0647C338.322 72.0647 338.048 71.9304 337.877 71.6618C337.787 71.5193 337.724 71.3178 337.687 71.0573C337.464 71.3504 337.142 71.6048 336.723 71.8205C336.303 72.0363 335.841 72.1441 335.337 72.1441C334.73 72.1441 334.234 71.961 333.847 71.5946C333.464 71.2242 333.273 70.7622 333.273 70.2086C333.273 69.6021 333.462 69.1319 333.841 68.7982C334.219 68.4644 334.716 68.2588 335.331 68.1815L337.083 67.9617ZM340.915 63.5594H342.026V65.385H343.07V66.2826H342.026V70.5505C342.026 70.7785 342.104 70.9311 342.258 71.0085C342.344 71.0532 342.486 71.0756 342.686 71.0756C342.739 71.0756 342.796 71.0756 342.857 71.0756C342.918 71.0715 342.989 71.0654 343.07 71.0573V71.9243C342.944 71.961 342.812 71.9874 342.673 72.0037C342.539 72.02 342.393 72.0281 342.234 72.0281C341.721 72.0281 341.373 71.8979 341.19 71.6373C341.007 71.3728 340.915 71.0308 340.915 70.6116V66.2826H340.03V65.385H340.915V63.5594ZM347.055 65.2385C347.519 65.2385 347.969 65.3484 348.404 65.5682C348.84 65.7839 349.172 66.0648 349.4 66.4108C349.619 66.7405 349.766 67.1252 349.839 67.5648C349.904 67.866 349.937 68.3463 349.937 69.0058H345.144C345.164 69.6693 345.321 70.2025 345.614 70.6055C345.907 71.0044 346.361 71.2038 346.976 71.2038C347.549 71.2038 348.007 71.0146 348.349 70.636C348.545 70.4162 348.683 70.1618 348.765 69.8728H349.845C349.817 70.1129 349.721 70.3816 349.558 70.6787C349.4 70.9718 349.22 71.212 349.021 71.3992C348.687 71.7249 348.274 71.9447 347.781 72.0586C347.517 72.1238 347.218 72.1563 346.884 72.1563C346.07 72.1563 345.38 71.8612 344.814 71.271C344.248 70.6767 343.965 69.8463 343.965 68.7798C343.965 67.7297 344.25 66.8769 344.82 66.2215C345.39 65.5662 346.135 65.2385 347.055 65.2385ZM348.807 68.1326C348.762 67.6564 348.659 67.2758 348.496 66.9909C348.195 66.4617 347.692 66.1971 346.988 66.1971C346.483 66.1971 346.06 66.3803 345.718 66.7466C345.376 67.1089 345.195 67.5709 345.174 68.1326H348.807ZM355.085 65.4156H356.203V71.9243H355.085V65.4156ZM355.085 62.9549H356.203V64.2005H355.085V62.9549ZM358.246 63.5594H359.357V65.385H360.401V66.2826H359.357V70.5505C359.357 70.7785 359.434 70.9311 359.589 71.0085C359.674 71.0532 359.817 71.0756 360.016 71.0756C360.069 71.0756 360.126 71.0756 360.187 71.0756C360.248 71.0715 360.319 71.0654 360.401 71.0573V71.9243C360.275 71.961 360.142 71.9874 360.004 72.0037C359.87 72.02 359.723 72.0281 359.564 72.0281C359.052 72.0281 358.703 71.8979 358.52 71.6373C358.337 71.3728 358.246 71.0308 358.246 70.6116V66.2826H357.36V65.385H358.246V63.5594ZM365.574 64.3898C365.59 63.9339 365.669 63.6001 365.812 63.3885C366.068 63.014 366.563 62.8267 367.296 62.8267C367.365 62.8267 367.436 62.8288 367.509 62.8328C367.583 62.8369 367.666 62.843 367.76 62.8511V63.8525C367.646 63.8443 367.562 63.8403 367.509 63.8403C367.46 63.8362 367.414 63.8342 367.369 63.8342C367.035 63.8342 366.836 63.9217 366.77 64.0967C366.705 64.2677 366.673 64.7073 366.673 65.4156H367.76V66.2826H366.661V71.9243H365.574V66.2826H364.664V65.4156H365.574V64.3898ZM371.53 71.216C372.259 71.216 372.758 70.9413 373.026 70.3918C373.299 69.8382 373.435 69.2235 373.435 68.5478C373.435 67.9372 373.338 67.4406 373.142 67.058C372.833 66.4556 372.3 66.1544 371.543 66.1544C370.871 66.1544 370.383 66.4108 370.077 66.9237C369.772 67.4366 369.619 68.0553 369.619 68.7798C369.619 69.4759 369.772 70.056 370.077 70.52C370.383 70.984 370.867 71.216 371.53 71.216ZM371.573 65.1958C372.416 65.1958 373.128 65.4766 373.71 66.0384C374.292 66.6001 374.583 67.4264 374.583 68.5173C374.583 69.5716 374.327 70.4426 373.814 71.1306C373.301 71.8185 372.505 72.1624 371.427 72.1624C370.527 72.1624 369.813 71.8592 369.284 71.2527C368.754 70.6421 368.49 69.8239 368.49 68.7982C368.49 67.6991 368.769 66.824 369.326 66.1727C369.884 65.5214 370.633 65.1958 371.573 65.1958ZM376.083 65.385H377.127V66.5146C377.213 66.2948 377.422 66.0282 377.756 65.7147C378.09 65.3972 378.474 65.2385 378.91 65.2385C378.93 65.2385 378.965 65.2405 379.014 65.2446C379.063 65.2487 379.146 65.2568 379.264 65.269V66.4291C379.199 66.4169 379.138 66.4088 379.081 66.4047C379.028 66.4006 378.969 66.3986 378.904 66.3986C378.35 66.3986 377.925 66.5777 377.628 66.9359C377.331 67.29 377.182 67.6991 377.182 68.1632V71.9243H376.083V65.385ZM388.094 65.385H389.309C389.155 65.8043 388.811 66.7609 388.277 68.2547C387.878 69.3782 387.545 70.2941 387.276 71.0023C386.641 72.6713 386.193 73.6889 385.933 74.0552C385.672 74.4216 385.225 74.6047 384.59 74.6047C384.435 74.6047 384.315 74.5986 384.229 74.5864C384.148 74.5742 384.046 74.5518 383.924 74.5193V73.5179C384.115 73.5708 384.254 73.6034 384.339 73.6156C384.425 73.6278 384.5 73.6339 384.565 73.6339C384.769 73.6339 384.917 73.5993 385.011 73.5301C385.108 73.465 385.19 73.3836 385.255 73.2859C385.275 73.2533 385.349 73.0864 385.475 72.7852C385.601 72.484 385.693 72.2601 385.75 72.1136L383.332 65.385H384.577L386.33 70.7093L388.094 65.385ZM393.013 71.216C393.742 71.216 394.24 70.9413 394.509 70.3918C394.782 69.8382 394.918 69.2235 394.918 68.5478C394.918 67.9372 394.82 67.4406 394.625 67.058C394.316 66.4556 393.782 66.1544 393.025 66.1544C392.354 66.1544 391.865 66.4108 391.56 66.9237C391.255 67.4366 391.102 68.0553 391.102 68.7798C391.102 69.4759 391.255 70.056 391.56 70.52C391.865 70.984 392.35 71.216 393.013 71.216ZM393.056 65.1958C393.898 65.1958 394.611 65.4766 395.193 66.0384C395.775 66.6001 396.066 67.4264 396.066 68.5173C396.066 69.5716 395.809 70.4426 395.297 71.1306C394.784 71.8185 393.988 72.1624 392.909 72.1624C392.01 72.1624 391.295 71.8592 390.766 71.2527C390.237 70.6421 389.972 69.8239 389.972 68.7982C389.972 67.6991 390.251 66.824 390.809 66.1727C391.367 65.5214 392.115 65.1958 393.056 65.1958ZM398.634 65.385V69.7262C398.634 70.06 398.687 70.3327 398.793 70.5444C398.988 70.9352 399.352 71.1306 399.886 71.1306C400.651 71.1306 401.172 70.7886 401.449 70.1048C401.599 69.7385 401.675 69.2357 401.675 68.5967V65.385H402.774V71.9243H401.736L401.748 70.9596C401.605 71.2079 401.428 71.4175 401.217 71.5885C400.797 71.9304 400.289 72.1014 399.69 72.1014C398.758 72.1014 398.123 71.79 397.785 71.1672C397.602 70.8334 397.511 70.3877 397.511 69.83V65.385H398.634Z" fill="#7A8699"/>
<path d="M22.5643 130.167H23.9808L26.5575 134.478L29.1341 130.167H30.5568L27.1681 135.522V139.137H25.953V135.522L22.5643 130.167ZM32.9014 138.428C33.63 138.428 34.1286 138.154 34.3973 137.604C34.67 137.051 34.8064 136.436 34.8064 135.76C34.8064 135.15 34.7087 134.653 34.5133 134.27C34.2039 133.668 33.6707 133.367 32.9136 133.367C32.2419 133.367 31.7535 133.623 31.4482 134.136C31.1429 134.649 30.9903 135.268 30.9903 135.992C30.9903 136.688 31.1429 137.268 31.4482 137.732C31.7535 138.196 32.2379 138.428 32.9014 138.428ZM32.9441 132.408C33.7867 132.408 34.499 132.689 35.0811 133.251C35.6632 133.812 35.9543 134.639 35.9543 135.73C35.9543 136.784 35.6978 137.655 35.1849 138.343C34.672 139.031 33.8763 139.375 32.7976 139.375C31.898 139.375 31.1836 139.072 30.6544 138.465C30.1253 137.855 29.8607 137.036 29.8607 136.011C29.8607 134.912 30.1395 134.036 30.6972 133.385C31.2548 132.734 32.0038 132.408 32.9441 132.408ZM38.366 132.597V136.939C38.366 137.272 38.419 137.545 38.5248 137.757C38.7202 138.148 39.0845 138.343 39.6177 138.343C40.383 138.343 40.904 138.001 41.1808 137.317C41.3314 136.951 41.4067 136.448 41.4067 135.809V132.597H42.5057V139.137H41.4678L41.48 138.172C41.3375 138.42 41.1604 138.63 40.9488 138.801C40.5295 139.143 40.0207 139.314 39.4223 139.314C38.4902 139.314 37.8552 139.002 37.5173 138.38C37.3342 138.046 37.2426 137.6 37.2426 137.042V132.597H38.366ZM44.2581 132.597H45.3022V133.727C45.3877 133.507 45.5973 133.241 45.9311 132.927C46.2649 132.61 46.6495 132.451 47.0851 132.451C47.1054 132.451 47.14 132.453 47.1889 132.457C47.2377 132.461 47.3212 132.469 47.4392 132.481V133.642C47.3741 133.629 47.313 133.621 47.256 133.617C47.2031 133.613 47.1441 133.611 47.079 133.611C46.5254 133.611 46.1 133.79 45.8029 134.148C45.5057 134.502 45.3571 134.912 45.3571 135.376V139.137H44.2581V132.597ZM52.1345 130.167H56.1705C56.9683 130.167 57.6114 130.393 58.0999 130.845C58.5883 131.293 58.8326 131.924 58.8326 132.738C58.8326 133.438 58.6148 134.049 58.1793 134.57C57.7437 135.087 57.0741 135.345 56.1705 135.345H53.3496V139.137H52.1345V130.167ZM57.6053 132.744C57.6053 132.085 57.3611 131.637 56.8726 131.401C56.604 131.275 56.2356 131.211 55.7675 131.211H53.3496V134.319H55.7675C56.3129 134.319 56.7546 134.203 57.0924 133.971C57.4343 133.739 57.6053 133.33 57.6053 132.744ZM60.243 132.597H61.2871V133.727C61.3726 133.507 61.5822 133.241 61.916 132.927C62.2498 132.61 62.6344 132.451 63.07 132.451C63.0903 132.451 63.1249 132.453 63.1738 132.457C63.2226 132.461 63.3061 132.469 63.4241 132.481V133.642C63.359 133.629 63.2979 133.621 63.2409 133.617C63.188 133.613 63.129 133.611 63.0639 133.611C62.5103 133.611 62.0849 133.79 61.7878 134.148C61.4906 134.502 61.342 134.912 61.342 135.376V139.137H60.243V132.597ZM66.9716 138.428C67.7002 138.428 68.1988 138.154 68.4675 137.604C68.7402 137.051 68.8766 136.436 68.8766 135.76C68.8766 135.15 68.7789 134.653 68.5835 134.27C68.2741 133.668 67.7409 133.367 66.9838 133.367C66.3121 133.367 65.8237 133.623 65.5184 134.136C65.2131 134.649 65.0605 135.268 65.0605 135.992C65.0605 136.688 65.2131 137.268 65.5184 137.732C65.8237 138.196 66.3081 138.428 66.9716 138.428ZM67.0143 132.408C67.8569 132.408 68.5692 132.689 69.1513 133.251C69.7334 133.812 70.0244 134.639 70.0244 135.73C70.0244 136.784 69.768 137.655 69.2551 138.343C68.7422 139.031 67.9464 139.375 66.8678 139.375C65.9682 139.375 65.2538 139.072 64.7246 138.465C64.1955 137.855 63.9309 137.036 63.9309 136.011C63.9309 134.912 64.2097 134.036 64.7674 133.385C65.325 132.734 66.074 132.408 67.0143 132.408ZM71.3372 132.597H72.424V133.526C72.6845 133.204 72.9206 132.97 73.1323 132.823C73.4946 132.575 73.9057 132.451 74.3656 132.451C74.8867 132.451 75.3059 132.579 75.6234 132.836C75.8025 132.982 75.9654 133.198 76.1119 133.483C76.3561 133.133 76.6431 132.874 76.9728 132.707C77.3025 132.536 77.6729 132.451 78.0841 132.451C78.9633 132.451 79.5617 132.768 79.8792 133.403C80.0501 133.745 80.1356 134.205 80.1356 134.783V139.137H78.9938V134.594C78.9938 134.158 78.8839 133.859 78.6641 133.696C78.4484 133.534 78.1838 133.452 77.8704 133.452C77.4389 133.452 77.0664 133.597 76.753 133.886C76.4436 134.175 76.289 134.657 76.289 135.333V139.137H75.1716V134.869C75.1716 134.425 75.1187 134.101 75.0129 133.898C74.846 133.593 74.5346 133.44 74.0787 133.44C73.6635 133.44 73.2849 133.601 72.943 133.922C72.6051 134.244 72.4362 134.826 72.4362 135.669V139.137H71.3372V132.597ZM84.5134 138.398C85.0263 138.398 85.4517 138.184 85.7895 137.757C86.1315 137.325 86.3024 136.682 86.3024 135.827C86.3024 135.306 86.2271 134.859 86.0765 134.484C85.7916 133.764 85.2706 133.403 84.5134 133.403C83.7522 133.403 83.2312 133.784 82.9504 134.545C82.7997 134.952 82.7244 135.469 82.7244 136.096C82.7244 136.601 82.7997 137.03 82.9504 137.384C83.2353 138.06 83.7563 138.398 84.5134 138.398ZM81.6681 132.628H82.7367V133.495C82.9565 133.198 83.1966 132.968 83.4571 132.805C83.8276 132.561 84.2631 132.439 84.7638 132.439C85.5046 132.439 86.1335 132.724 86.6505 133.293C87.1674 133.859 87.4259 134.669 87.4259 135.724C87.4259 137.148 87.0534 138.166 86.3085 138.776C85.8364 139.163 85.2868 139.357 84.66 139.357C84.1674 139.357 83.7543 139.249 83.4205 139.033C83.2251 138.911 83.0073 138.701 82.7672 138.404V141.744H81.6681V132.628ZM88.934 130.772H90.0453V132.597H91.0893V133.495H90.0453V137.763C90.0453 137.991 90.1226 138.144 90.2773 138.221C90.3628 138.266 90.5052 138.288 90.7047 138.288C90.7576 138.288 90.8146 138.288 90.8756 138.288C90.9367 138.284 91.0079 138.278 91.0893 138.27V139.137C90.9632 139.173 90.8309 139.2 90.6925 139.216C90.5581 139.232 90.4116 139.241 90.2529 139.241C89.74 139.241 89.3919 139.11 89.2088 138.85C89.0256 138.585 88.934 138.243 88.934 137.824V133.495H88.0487V132.597H88.934V130.772Z" fill="#4F4F4F"/>
<rect x="22.3079" y="159.524" width="415.384" height="107.071" rx="6.25231" stroke="#BDBDBD" stroke-width="0.781538"/>
<path d="M36.1641 182.433L37.644 188.817L39.4177 182.433H40.5717L42.3455 188.817L43.8253 182.433H44.99L42.9278 190.281H41.8112L40.0001 183.774L38.1783 190.281H37.0617L35.0101 182.433H36.1641ZM45.6846 184.559H46.5981V185.548C46.6729 185.355 46.8564 185.122 47.1484 184.848C47.4405 184.57 47.7771 184.431 48.1582 184.431C48.176 184.431 48.2062 184.433 48.249 184.437C48.2917 184.44 48.3647 184.447 48.468 184.458V185.473C48.411 185.462 48.3576 185.455 48.3077 185.452C48.2614 185.448 48.2098 185.446 48.1528 185.446C47.6684 185.446 47.2962 185.603 47.0362 185.916C46.7762 186.226 46.6462 186.584 46.6462 186.99V190.281H45.6846V184.559ZM49.3015 184.586H50.2791V190.281H49.3015V184.586ZM49.3015 182.433H50.2791V183.523H49.3015V182.433ZM51.93 182.962H52.9023V184.559H53.8159V185.345H52.9023V189.079C52.9023 189.279 52.97 189.412 53.1054 189.48C53.1801 189.519 53.3048 189.539 53.4793 189.539C53.5256 189.539 53.5755 189.539 53.6289 189.539C53.6823 189.535 53.7447 189.53 53.8159 189.523V190.281C53.7055 190.313 53.5897 190.336 53.4686 190.351C53.3511 190.365 53.2229 190.372 53.084 190.372C52.6352 190.372 52.3307 190.258 52.1704 190.03C52.0101 189.799 51.93 189.499 51.93 189.133V185.345H51.1553V184.559H51.93V182.962ZM57.1657 184.431C57.5717 184.431 57.9653 184.527 58.3464 184.72C58.7275 184.908 59.0178 185.154 59.2172 185.457C59.4096 185.745 59.5378 186.082 59.6019 186.467C59.6589 186.73 59.6874 187.151 59.6874 187.728H55.4935C55.5113 188.308 55.6484 188.775 55.9048 189.127C56.1613 189.476 56.5584 189.651 57.0962 189.651C57.5984 189.651 57.9991 189.485 58.2983 189.154C58.4693 188.962 58.5904 188.739 58.6616 188.486H59.6072C59.5823 188.696 59.4986 188.931 59.3561 189.191C59.2172 189.448 59.0605 189.658 58.886 189.822C58.5939 190.107 58.2324 190.299 57.8015 190.399C57.5699 190.456 57.3082 190.484 57.0161 190.484C56.3038 190.484 55.7001 190.226 55.205 189.71C54.7099 189.19 54.4624 188.463 54.4624 187.53C54.4624 186.611 54.7117 185.865 55.2103 185.291C55.709 184.718 56.3607 184.431 57.1657 184.431ZM58.699 186.964C58.6598 186.547 58.569 186.214 58.4265 185.964C58.163 185.501 57.7231 185.27 57.1069 185.27C56.6653 185.27 56.2949 185.43 55.9957 185.751C55.6965 186.068 55.538 186.472 55.5202 186.964H58.699ZM67.4928 184.559H68.556C68.4207 184.926 68.1197 185.763 67.6531 187.07C67.3041 188.053 67.012 188.855 66.7769 189.475C66.2213 190.935 65.8295 191.825 65.6016 192.146C65.3736 192.466 64.9818 192.627 64.4262 192.627C64.2909 192.627 64.1858 192.621 64.111 192.611C64.0398 192.6 63.9507 192.58 63.8439 192.552V191.676C64.0113 191.722 64.1324 191.75 64.2072 191.761C64.282 191.772 64.3479 191.777 64.4048 191.777C64.5829 191.777 64.7129 191.747 64.7948 191.686C64.8803 191.629 64.9516 191.558 65.0085 191.473C65.0264 191.444 65.0905 191.298 65.2009 191.035C65.3113 190.771 65.3914 190.575 65.4413 190.447L63.3256 184.559H64.4155L65.9488 189.218L67.4928 184.559ZM71.66 189.662C72.2976 189.662 72.7339 189.421 72.9689 188.94C73.2076 188.456 73.3269 187.918 73.3269 187.327C73.3269 186.793 73.2414 186.358 73.0705 186.023C72.7998 185.496 72.3332 185.233 71.6707 185.233C71.083 185.233 70.6556 185.457 70.3885 185.906C70.1214 186.354 69.9878 186.896 69.9878 187.53C69.9878 188.139 70.1214 188.646 70.3885 189.052C70.6556 189.458 71.0795 189.662 71.66 189.662ZM71.6974 184.394C72.4347 184.394 73.058 184.64 73.5673 185.131C74.0766 185.623 74.3313 186.346 74.3313 187.3C74.3313 188.223 74.1069 188.985 73.6581 189.587C73.2094 190.189 72.513 190.49 71.5692 190.49C70.7821 190.49 70.157 190.224 69.694 189.694C69.2309 189.159 68.9994 188.443 68.9994 187.546C68.9994 186.584 69.2434 185.818 69.7314 185.249C70.2193 184.679 70.8747 184.394 71.6974 184.394ZM76.4416 184.559V188.358C76.4416 188.65 76.4879 188.889 76.5805 189.074C76.7515 189.416 77.0702 189.587 77.5368 189.587C78.2064 189.587 78.6623 189.288 78.9045 188.689C79.0363 188.369 79.1022 187.929 79.1022 187.37V184.559H80.0638V190.281H79.1556L79.1663 189.437C79.0416 189.654 78.8867 189.838 78.7015 189.987C78.3346 190.287 77.8894 190.436 77.3659 190.436C76.5502 190.436 75.9946 190.164 75.699 189.619C75.5387 189.327 75.4586 188.937 75.4586 188.449V184.559H76.4416ZM81.5972 184.559H82.5107V185.548C82.5855 185.355 82.769 185.122 83.061 184.848C83.3531 184.57 83.6897 184.431 84.0708 184.431C84.0886 184.431 84.1188 184.433 84.1616 184.437C84.2043 184.44 84.2773 184.447 84.3806 184.458V185.473C84.3236 185.462 84.2702 185.455 84.2204 185.452C84.174 185.448 84.1224 185.446 84.0654 185.446C83.581 185.446 83.2088 185.603 82.9488 185.916C82.6888 186.226 82.5588 186.584 82.5588 186.99V190.281H81.5972V184.559ZM90.6742 189.635C91.1229 189.635 91.4951 189.448 91.7907 189.074C92.0899 188.696 92.2395 188.134 92.2395 187.386C92.2395 186.93 92.1736 186.538 92.0418 186.21C91.7925 185.58 91.3366 185.265 90.6742 185.265C90.0081 185.265 89.5522 185.598 89.3065 186.264C89.1747 186.62 89.1088 187.072 89.1088 187.621C89.1088 188.062 89.1747 188.438 89.3065 188.748C89.5558 189.339 90.0117 189.635 90.6742 189.635ZM88.1845 184.586H89.1195V185.345C89.3118 185.085 89.5219 184.883 89.7499 184.741C90.074 184.527 90.4551 184.42 90.8932 184.42C91.5414 184.42 92.0917 184.67 92.544 185.168C92.9964 185.664 93.2225 186.372 93.2225 187.295C93.2225 188.541 92.8967 189.432 92.2449 189.966C91.8317 190.304 91.3509 190.474 90.8024 190.474C90.3714 190.474 90.0099 190.379 89.7178 190.19C89.5469 190.084 89.3563 189.9 89.1462 189.64V192.563H88.1845V184.586ZM94.3765 184.559H95.2901V185.548C95.3649 185.355 95.5483 185.122 95.8404 184.848C96.1325 184.57 96.469 184.431 96.8501 184.431C96.8679 184.431 96.8982 184.433 96.941 184.437C96.9837 184.44 97.0567 184.447 97.16 184.458V185.473C97.103 185.462 97.0496 185.455 96.9997 185.452C96.9534 185.448 96.9018 185.446 96.8448 185.446C96.3604 185.446 95.9882 185.603 95.7282 185.916C95.4682 186.226 95.3382 186.584 95.3382 186.99V190.281H94.3765V184.559ZM100.264 189.662C100.902 189.662 101.338 189.421 101.573 188.94C101.812 188.456 101.931 187.918 101.931 187.327C101.931 186.793 101.845 186.358 101.674 186.023C101.404 185.496 100.937 185.233 100.275 185.233C99.687 185.233 99.2596 185.457 98.9925 185.906C98.7254 186.354 98.5918 186.896 98.5918 187.53C98.5918 188.139 98.7254 188.646 98.9925 189.052C99.2596 189.458 99.6835 189.662 100.264 189.662ZM100.301 184.394C101.039 184.394 101.662 184.64 102.171 185.131C102.681 185.623 102.935 186.346 102.935 187.3C102.935 188.223 102.711 188.985 102.262 189.587C101.813 190.189 101.117 190.49 100.173 190.49C99.3861 190.49 98.761 190.224 98.298 189.694C97.8349 189.159 97.6034 188.443 97.6034 187.546C97.6034 186.584 97.8474 185.818 98.3354 185.249C98.8233 184.679 99.4787 184.394 100.301 184.394ZM104.084 184.559H105.035V185.371C105.263 185.09 105.469 184.885 105.655 184.757C105.972 184.54 106.331 184.431 106.734 184.431C107.19 184.431 107.557 184.543 107.834 184.768C107.991 184.896 108.134 185.085 108.262 185.334C108.476 185.028 108.727 184.802 109.015 184.656C109.304 184.506 109.628 184.431 109.987 184.431C110.757 184.431 111.28 184.709 111.558 185.265C111.708 185.564 111.783 185.966 111.783 186.472V190.281H110.784V186.306C110.784 185.925 110.687 185.664 110.495 185.521C110.306 185.379 110.075 185.307 109.8 185.307C109.423 185.307 109.097 185.434 108.823 185.687C108.552 185.94 108.417 186.362 108.417 186.953V190.281H107.439V186.547C107.439 186.159 107.393 185.875 107.3 185.697C107.154 185.43 106.882 185.297 106.483 185.297C106.119 185.297 105.788 185.437 105.489 185.719C105.193 186 105.046 186.509 105.046 187.247V190.281H104.084V184.559ZM115.613 189.635C116.062 189.635 116.434 189.448 116.73 189.074C117.029 188.696 117.179 188.134 117.179 187.386C117.179 186.93 117.113 186.538 116.981 186.21C116.732 185.58 116.276 185.265 115.613 185.265C114.947 185.265 114.491 185.598 114.245 186.264C114.114 186.62 114.048 187.072 114.048 187.621C114.048 188.062 114.114 188.438 114.245 188.748C114.495 189.339 114.951 189.635 115.613 189.635ZM113.124 184.586H114.058V185.345C114.251 185.085 114.461 184.883 114.689 184.741C115.013 184.527 115.394 184.42 115.832 184.42C116.48 184.42 117.031 184.67 117.483 185.168C117.935 185.664 118.162 186.372 118.162 187.295C118.162 188.541 117.836 189.432 117.184 189.966C116.771 190.304 116.29 190.474 115.741 190.474C115.31 190.474 114.949 190.379 114.657 190.19C114.486 190.084 114.295 189.9 114.085 189.64V192.563H113.124V184.586ZM119.481 182.962H120.454V184.559H121.367V185.345H120.454V189.079C120.454 189.279 120.521 189.412 120.657 189.48C120.731 189.519 120.856 189.539 121.031 189.539C121.077 189.539 121.127 189.539 121.18 189.539C121.234 189.535 121.296 189.53 121.367 189.523V190.281C121.257 190.313 121.141 190.336 121.02 190.351C120.902 190.365 120.774 190.372 120.635 190.372C120.186 190.372 119.882 190.258 119.722 190.03C119.561 189.799 119.481 189.499 119.481 189.133V185.345H118.706V184.559H119.481V182.962Z" fill="#BDBDBD"/>
<path d="M337.147 243.44C338.137 243.44 338.853 243.848 339.295 244.663C339.637 245.294 339.808 246.158 339.808 247.255C339.808 248.295 339.653 249.155 339.343 249.835C338.894 250.811 338.161 251.299 337.142 251.299C336.223 251.299 335.539 250.9 335.09 250.102C334.716 249.436 334.529 248.542 334.529 247.42C334.529 246.551 334.642 245.805 334.866 245.182C335.286 244.021 336.047 243.44 337.147 243.44ZM337.137 250.423C337.635 250.423 338.032 250.202 338.328 249.76C338.624 249.319 338.771 248.496 338.771 247.292C338.771 246.423 338.665 245.709 338.451 245.15C338.237 244.587 337.822 244.306 337.206 244.306C336.64 244.306 336.225 244.573 335.961 245.107C335.701 245.638 335.571 246.421 335.571 247.458C335.571 248.238 335.655 248.865 335.822 249.338C336.079 250.061 336.517 250.423 337.137 250.423ZM342.924 243.242H343.736L341.246 251.091H340.434L342.924 243.242ZM344.683 245.673V244.936C345.378 244.868 345.862 244.756 346.136 244.599C346.41 244.439 346.615 244.063 346.751 243.472H347.509V251.091H346.483V245.673H344.683ZM352.842 243.44C353.833 243.44 354.549 243.848 354.99 244.663C355.332 245.294 355.503 246.158 355.503 247.255C355.503 248.295 355.348 249.155 355.038 249.835C354.589 250.811 353.856 251.299 352.837 251.299C351.918 251.299 351.234 250.9 350.786 250.102C350.412 249.436 350.225 248.542 350.225 247.42C350.225 246.551 350.337 245.805 350.561 245.182C350.981 244.021 351.742 243.44 352.842 243.44ZM352.832 250.423C353.33 250.423 353.728 250.202 354.023 249.76C354.319 249.319 354.467 248.496 354.467 247.292C354.467 246.423 354.36 245.709 354.146 245.15C353.932 244.587 353.517 244.306 352.901 244.306C352.335 244.306 351.92 244.573 351.656 245.107C351.396 245.638 351.266 246.421 351.266 247.458C351.266 248.238 351.35 248.865 351.518 249.338C351.774 250.061 352.212 250.423 352.832 250.423ZM359.089 243.44C360.079 243.44 360.795 243.848 361.237 244.663C361.579 245.294 361.75 246.158 361.75 247.255C361.75 248.295 361.595 249.155 361.285 249.835C360.836 250.811 360.103 251.299 359.084 251.299C358.165 251.299 357.481 250.9 357.032 250.102C356.658 249.436 356.471 248.542 356.471 247.42C356.471 246.551 356.584 245.805 356.808 245.182C357.228 244.021 357.989 243.44 359.089 243.44ZM359.079 250.423C359.577 250.423 359.974 250.202 360.27 249.76C360.566 249.319 360.713 248.496 360.713 247.292C360.713 246.423 360.607 245.709 360.393 245.15C360.179 244.587 359.764 244.306 359.148 244.306C358.582 244.306 358.167 244.573 357.903 245.107C357.643 245.638 357.513 246.421 357.513 247.458C357.513 248.238 357.597 248.865 357.764 249.338C358.021 250.061 358.459 250.423 359.079 250.423ZM365.336 243.44C366.326 243.44 367.042 243.848 367.484 244.663C367.826 245.294 367.997 246.158 367.997 247.255C367.997 248.295 367.842 249.155 367.532 249.835C367.083 250.811 366.349 251.299 365.331 251.299C364.412 251.299 363.728 250.9 363.279 250.102C362.905 249.436 362.718 248.542 362.718 247.42C362.718 246.551 362.83 245.805 363.055 245.182C363.475 244.021 364.236 243.44 365.336 243.44ZM365.325 250.423C365.824 250.423 366.221 250.202 366.517 249.76C366.812 249.319 366.96 248.496 366.96 247.292C366.96 246.423 366.853 245.709 366.64 245.15C366.426 244.587 366.011 244.306 365.395 244.306C364.829 244.306 364.414 244.573 364.15 245.107C363.89 245.638 363.76 246.421 363.76 247.458C363.76 248.238 363.844 248.865 364.011 249.338C364.268 250.061 364.706 250.423 365.325 250.423ZM374.736 245.203C375.381 245.203 375.905 245.36 376.307 245.673C376.713 245.987 376.957 246.526 377.039 247.292H376.104C376.047 246.939 375.917 246.647 375.714 246.416C375.511 246.181 375.185 246.063 374.736 246.063C374.124 246.063 373.686 246.362 373.422 246.961C373.251 247.349 373.166 247.828 373.166 248.398C373.166 248.971 373.287 249.454 373.529 249.846C373.771 250.238 374.152 250.433 374.672 250.433C375.071 250.433 375.386 250.312 375.618 250.07C375.853 249.824 376.015 249.49 376.104 249.066H377.039C376.932 249.824 376.665 250.38 376.238 250.733C375.81 251.082 375.264 251.256 374.597 251.256C373.85 251.256 373.253 250.984 372.808 250.439C372.362 249.89 372.14 249.206 372.14 248.387C372.14 247.383 372.384 246.601 372.872 246.042C373.36 245.483 373.981 245.203 374.736 245.203ZM378.157 243.216H379.119V246.143C379.347 245.855 379.551 245.652 379.733 245.534C380.043 245.331 380.429 245.23 380.892 245.23C381.722 245.23 382.285 245.52 382.581 246.101C382.741 246.418 382.821 246.857 382.821 247.42V251.091H381.833V247.484C381.833 247.064 381.779 246.756 381.672 246.56C381.498 246.247 381.17 246.09 380.689 246.09C380.29 246.09 379.929 246.227 379.605 246.501C379.281 246.776 379.119 247.294 379.119 248.056V251.091H378.157V243.216ZM385.141 249.568C385.141 249.846 385.243 250.065 385.446 250.225C385.649 250.385 385.889 250.465 386.167 250.465C386.505 250.465 386.833 250.387 387.15 250.23C387.684 249.97 387.951 249.545 387.951 248.954V248.179C387.834 248.254 387.682 248.316 387.497 248.366C387.312 248.416 387.13 248.451 386.952 248.473L386.37 248.548C386.021 248.594 385.759 248.667 385.584 248.767C385.289 248.934 385.141 249.201 385.141 249.568ZM387.47 247.623C387.691 247.595 387.839 247.502 387.914 247.345C387.957 247.26 387.978 247.137 387.978 246.977C387.978 246.649 387.86 246.412 387.625 246.266C387.394 246.117 387.061 246.042 386.626 246.042C386.124 246.042 385.768 246.177 385.558 246.448C385.44 246.597 385.364 246.82 385.328 247.116H384.43C384.448 246.411 384.676 245.921 385.114 245.647C385.556 245.369 386.067 245.23 386.648 245.23C387.321 245.23 387.868 245.358 388.288 245.614C388.705 245.871 388.913 246.27 388.913 246.811V250.108C388.913 250.207 388.932 250.287 388.972 250.348C389.014 250.409 389.102 250.439 389.233 250.439C389.276 250.439 389.324 250.437 389.378 250.433C389.431 250.426 389.488 250.417 389.549 250.407V251.117C389.399 251.16 389.285 251.187 389.207 251.197C389.128 251.208 389.022 251.213 388.886 251.213C388.555 251.213 388.315 251.096 388.165 250.861C388.087 250.736 388.031 250.56 387.999 250.332C387.803 250.588 387.522 250.811 387.155 251C386.788 251.189 386.384 251.283 385.942 251.283C385.412 251.283 384.977 251.123 384.639 250.802C384.304 250.478 384.137 250.074 384.137 249.589C384.137 249.059 384.302 248.647 384.634 248.355C384.965 248.063 385.399 247.883 385.937 247.816L387.47 247.623ZM390.677 245.369H391.591V246.357C391.666 246.165 391.849 245.931 392.141 245.657C392.433 245.379 392.77 245.24 393.151 245.24C393.169 245.24 393.199 245.242 393.242 245.246C393.284 245.249 393.357 245.257 393.461 245.267V246.282C393.404 246.272 393.35 246.264 393.301 246.261C393.254 246.257 393.203 246.256 393.146 246.256C392.661 246.256 392.289 246.412 392.029 246.726C391.769 247.036 391.639 247.394 391.639 247.8V251.091H390.677V245.369ZM395.188 249.568C395.188 249.846 395.289 250.065 395.492 250.225C395.695 250.385 395.936 250.465 396.214 250.465C396.552 250.465 396.88 250.387 397.197 250.23C397.731 249.97 397.998 249.545 397.998 248.954V248.179C397.88 248.254 397.729 248.316 397.544 248.366C397.359 248.416 397.177 248.451 396.999 248.473L396.417 248.548C396.068 248.594 395.806 248.667 395.631 248.767C395.336 248.934 395.188 249.201 395.188 249.568ZM397.517 247.623C397.738 247.595 397.886 247.502 397.961 247.345C398.003 247.26 398.025 247.137 398.025 246.977C398.025 246.649 397.907 246.412 397.672 246.266C397.441 246.117 397.108 246.042 396.673 246.042C396.171 246.042 395.815 246.177 395.605 246.448C395.487 246.597 395.41 246.82 395.375 247.116H394.477C394.495 246.411 394.723 245.921 395.161 245.647C395.603 245.369 396.114 245.23 396.694 245.23C397.368 245.23 397.914 245.358 398.335 245.614C398.751 245.871 398.96 246.27 398.96 246.811V250.108C398.96 250.207 398.979 250.287 399.018 250.348C399.061 250.409 399.148 250.439 399.28 250.439C399.323 250.439 399.371 250.437 399.424 250.433C399.478 250.426 399.535 250.417 399.595 250.407V251.117C399.446 251.16 399.332 251.187 399.253 251.197C399.175 251.208 399.068 251.213 398.933 251.213C398.602 251.213 398.361 251.096 398.212 250.861C398.133 250.736 398.078 250.56 398.046 250.332C397.85 250.588 397.569 250.811 397.202 251C396.835 251.189 396.431 251.283 395.989 251.283C395.458 251.283 395.024 251.123 394.686 250.802C394.351 250.478 394.183 250.074 394.183 249.589C394.183 249.059 394.349 248.647 394.68 248.355C395.011 248.063 395.446 247.883 395.984 247.816L397.517 247.623ZM402.904 245.203C403.548 245.203 404.072 245.36 404.475 245.673C404.881 245.987 405.125 246.526 405.206 247.292H404.271C404.215 246.939 404.085 246.647 403.881 246.416C403.678 246.181 403.353 246.063 402.904 246.063C402.291 246.063 401.853 246.362 401.59 246.961C401.419 247.349 401.333 247.828 401.333 248.398C401.333 248.971 401.454 249.454 401.696 249.846C401.939 250.238 402.32 250.433 402.84 250.433C403.239 250.433 403.554 250.312 403.785 250.07C404.02 249.824 404.182 249.49 404.271 249.066H405.206C405.1 249.824 404.832 250.38 404.405 250.733C403.978 251.082 403.431 251.256 402.765 251.256C402.017 251.256 401.42 250.984 400.975 250.439C400.53 249.89 400.307 249.206 400.307 248.387C400.307 247.383 400.551 246.601 401.039 246.042C401.527 245.483 402.149 245.203 402.904 245.203ZM406.517 243.771H407.489V245.369H408.403V246.154H407.489V249.889C407.489 250.088 407.557 250.222 407.692 250.289C407.767 250.328 407.892 250.348 408.066 250.348C408.112 250.348 408.162 250.348 408.216 250.348C408.269 250.344 408.331 250.339 408.403 250.332V251.091C408.292 251.123 408.176 251.146 408.055 251.16C407.938 251.174 407.81 251.181 407.671 251.181C407.222 251.181 406.917 251.067 406.757 250.839C406.597 250.608 406.517 250.309 406.517 249.942V246.154H405.742V245.369H406.517V243.771ZM411.909 245.24C412.315 245.24 412.708 245.337 413.089 245.529C413.471 245.718 413.761 245.964 413.96 246.266C414.153 246.555 414.281 246.891 414.345 247.276C414.402 247.54 414.43 247.96 414.43 248.537H410.237C410.254 249.117 410.391 249.584 410.648 249.937C410.904 250.286 411.301 250.46 411.839 250.46C412.341 250.46 412.742 250.295 413.041 249.963C413.212 249.771 413.333 249.548 413.405 249.295H414.35C414.325 249.506 414.242 249.741 414.099 250.001C413.96 250.257 413.804 250.467 413.629 250.631C413.337 250.916 412.975 251.108 412.545 251.208C412.313 251.265 412.051 251.294 411.759 251.294C411.047 251.294 410.443 251.035 409.948 250.519C409.453 249.999 409.205 249.272 409.205 248.339C409.205 247.42 409.455 246.674 409.953 246.101C410.452 245.527 411.104 245.24 411.909 245.24ZM413.442 247.773C413.403 247.356 413.312 247.023 413.17 246.774C412.906 246.311 412.466 246.079 411.85 246.079C411.408 246.079 411.038 246.24 410.739 246.56C410.44 246.877 410.281 247.281 410.263 247.773H413.442ZM415.799 245.369H416.713V246.357C416.788 246.165 416.971 245.931 417.263 245.657C417.555 245.379 417.892 245.24 418.273 245.24C418.291 245.24 418.321 245.242 418.364 245.246C418.407 245.249 418.48 245.257 418.583 245.267V246.282C418.526 246.272 418.473 246.264 418.423 246.261C418.376 246.257 418.325 246.256 418.268 246.256C417.783 246.256 417.411 246.412 417.151 246.726C416.891 247.036 416.761 247.394 416.761 247.8V251.091H415.799V245.369ZM420.144 249.295C420.173 249.616 420.253 249.862 420.385 250.033C420.627 250.343 421.047 250.498 421.646 250.498C422.002 250.498 422.315 250.421 422.586 250.268C422.857 250.111 422.992 249.871 422.992 249.547C422.992 249.301 422.883 249.114 422.666 248.986C422.527 248.907 422.253 248.816 421.843 248.713L421.079 248.521C420.591 248.4 420.232 248.264 420 248.115C419.587 247.855 419.38 247.495 419.38 247.036C419.38 246.494 419.574 246.056 419.963 245.721C420.355 245.387 420.88 245.219 421.539 245.219C422.401 245.219 423.022 245.472 423.403 245.978C423.642 246.298 423.758 246.644 423.751 247.014H422.842C422.825 246.797 422.748 246.599 422.613 246.421C422.392 246.168 422.009 246.042 421.464 246.042C421.101 246.042 420.825 246.111 420.636 246.25C420.451 246.389 420.358 246.573 420.358 246.801C420.358 247.05 420.481 247.249 420.727 247.399C420.869 247.488 421.079 247.566 421.357 247.634L421.993 247.789C422.684 247.956 423.147 248.118 423.382 248.275C423.756 248.521 423.943 248.907 423.943 249.434C423.943 249.944 423.749 250.384 423.361 250.754C422.976 251.124 422.388 251.31 421.598 251.31C420.746 251.31 420.143 251.117 419.786 250.733C419.434 250.344 419.245 249.865 419.22 249.295H420.144Z" fill="#7A8699"/>
<rect x="22.6986" y="291.995" width="125.902" height="37.5138" rx="4.29846" fill="white"/>
<rect x="22.6986" y="291.995" width="125.902" height="37.5138" rx="4.29846" stroke="url(#paint0_linear_2385_24758)" stroke-width="0.781538"/>
<path d="M49.0206 305.551C49.8632 305.551 50.5918 305.714 51.2065 306.039C52.0979 306.507 52.6434 307.328 52.8428 308.5H51.64C51.4934 307.845 51.1902 307.368 50.7302 307.071C50.2703 306.77 49.6902 306.619 48.9901 306.619C48.1597 306.619 47.4596 306.931 46.8897 307.553C46.3239 308.176 46.041 309.104 46.041 310.338C46.041 311.404 46.2751 312.273 46.7432 312.945C47.2113 313.612 47.9745 313.946 49.0328 313.946C49.8429 313.946 50.5125 313.712 51.0416 313.244C51.5749 312.772 51.8476 312.011 51.8598 310.961H49.0511V309.953H52.9894V314.752H52.2078L51.9147 313.598C51.5036 314.05 51.1393 314.363 50.8218 314.538C50.2886 314.84 49.6108 314.99 48.7886 314.99C47.7262 314.99 46.8124 314.646 46.0471 313.958C45.2126 313.095 44.7954 311.911 44.7954 310.405C44.7954 308.903 45.2025 307.708 46.0166 306.821C46.79 305.974 47.7913 305.551 49.0206 305.551ZM57.609 308.066C58.073 308.066 58.5228 308.176 58.9584 308.396C59.3939 308.612 59.7257 308.893 59.9536 309.239C60.1734 309.568 60.3199 309.953 60.3932 310.393C60.4583 310.694 60.4909 311.174 60.4909 311.834H55.6979C55.7182 312.497 55.8749 313.03 56.168 313.433C56.4611 313.832 56.915 314.032 57.5296 314.032C58.1036 314.032 58.5615 313.842 58.9034 313.464C59.0988 313.244 59.2372 312.99 59.3186 312.701H60.3993C60.3708 312.941 60.2752 313.209 60.1124 313.507C59.9536 313.8 59.7745 314.04 59.575 314.227C59.2413 314.553 58.8281 314.773 58.3356 314.887C58.071 314.952 57.7718 314.984 57.438 314.984C56.6239 314.984 55.934 314.689 55.3682 314.099C54.8024 313.505 54.5195 312.674 54.5195 311.608C54.5195 310.558 54.8044 309.705 55.3743 309.049C55.9441 308.394 56.689 308.066 57.609 308.066ZM59.3613 310.961C59.3166 310.484 59.2128 310.104 59.0499 309.819C58.7487 309.29 58.246 309.025 57.5418 309.025C57.0371 309.025 56.6137 309.208 56.2718 309.575C55.9299 309.937 55.7488 310.399 55.7284 310.961H59.3613ZM62.0027 308.213H63.0468V309.141C63.3561 308.758 63.6838 308.484 64.0298 308.317C64.3758 308.15 64.7605 308.066 65.1838 308.066C66.1119 308.066 66.7387 308.39 67.0644 309.037C67.2435 309.391 67.333 309.898 67.333 310.558V314.752H66.2157V310.631C66.2157 310.232 66.1567 309.91 66.0386 309.666C65.8432 309.259 65.4891 309.056 64.9762 309.056C64.7157 309.056 64.502 309.082 64.3351 309.135C64.0339 309.224 63.7693 309.404 63.5414 309.672C63.3582 309.888 63.2381 310.112 63.1811 310.344C63.1282 310.572 63.1017 310.899 63.1017 311.327V314.752H62.0027V308.213ZM71.8428 308.066C72.3068 308.066 72.7566 308.176 73.1921 308.396C73.6277 308.612 73.9594 308.893 74.1874 309.239C74.4072 309.568 74.5537 309.953 74.627 310.393C74.6921 310.694 74.7247 311.174 74.7247 311.834H69.9316C69.952 312.497 70.1087 313.03 70.4018 313.433C70.6949 313.832 71.1487 314.032 71.7634 314.032C72.3373 314.032 72.7953 313.842 73.1372 313.464C73.3326 313.244 73.471 312.99 73.5524 312.701H74.6331C74.6046 312.941 74.5089 313.209 74.3461 313.507C74.1874 313.8 74.0083 314.04 73.8088 314.227C73.475 314.553 73.0619 314.773 72.5693 314.887C72.3048 314.952 72.0056 314.984 71.6718 314.984C70.8577 314.984 70.1677 314.689 69.6019 314.099C69.0361 313.505 68.7532 312.674 68.7532 311.608C68.7532 310.558 69.0382 309.705 69.608 309.049C70.1779 308.394 70.9228 308.066 71.8428 308.066ZM73.5951 310.961C73.5503 310.484 73.4465 310.104 73.2837 309.819C72.9825 309.29 72.4798 309.025 71.7756 309.025C71.2708 309.025 70.8475 309.208 70.5056 309.575C70.1637 309.937 69.9825 310.399 69.9622 310.961H73.5951ZM76.267 308.213H77.3111V309.342C77.3966 309.123 77.6062 308.856 77.94 308.543C78.2738 308.225 78.6584 308.066 79.094 308.066C79.1143 308.066 79.1489 308.068 79.1978 308.072C79.2466 308.077 79.3301 308.085 79.4481 308.097V309.257C79.383 309.245 79.3219 309.237 79.2649 309.233C79.212 309.229 79.153 309.226 79.0879 309.226C78.5343 309.226 78.1089 309.406 77.8118 309.764C77.5146 310.118 77.366 310.527 77.366 310.991V314.752H76.267V308.213ZM81.3995 313.012C81.3995 313.33 81.5155 313.58 81.7475 313.763C81.9796 313.946 82.2543 314.038 82.5718 314.038C82.9585 314.038 83.333 313.948 83.6953 313.769C84.3058 313.472 84.6111 312.986 84.6111 312.31V311.425C84.4768 311.51 84.3038 311.581 84.0921 311.638C83.8805 311.695 83.6729 311.736 83.4694 311.76L82.8038 311.846C82.4049 311.899 82.1057 311.982 81.9063 312.096C81.5684 312.288 81.3995 312.593 81.3995 313.012ZM84.0616 310.79C84.314 310.757 84.4829 310.651 84.5684 310.472C84.6172 310.374 84.6417 310.234 84.6417 310.051C84.6417 309.676 84.5073 309.406 84.2387 309.239C83.9741 309.068 83.5935 308.982 83.0969 308.982C82.523 308.982 82.1159 309.137 81.8758 309.446C81.7414 309.617 81.6539 309.872 81.6132 310.21H80.5874C80.6078 309.404 80.8683 308.844 81.369 308.53C81.8737 308.213 82.4578 308.054 83.1213 308.054C83.8907 308.054 84.5155 308.201 84.9958 308.494C85.4721 308.787 85.7102 309.243 85.7102 309.861V313.629C85.7102 313.743 85.7326 313.834 85.7773 313.903C85.8262 313.973 85.9259 314.007 86.0765 314.007C86.1254 314.007 86.1803 314.005 86.2414 314.001C86.3024 313.993 86.3676 313.983 86.4368 313.971V314.783C86.2658 314.832 86.1355 314.862 86.046 314.874C85.9564 314.887 85.8343 314.893 85.6796 314.893C85.3011 314.893 85.0263 314.758 84.8554 314.49C84.7658 314.347 84.7027 314.146 84.6661 313.885C84.4422 314.178 84.1206 314.433 83.7014 314.648C83.2821 314.864 82.8201 314.972 82.3154 314.972C81.7089 314.972 81.2123 314.789 80.8256 314.422C80.4429 314.052 80.2516 313.59 80.2516 313.036C80.2516 312.43 80.4409 311.96 80.8195 311.626C81.198 311.292 81.6946 311.087 82.3093 311.009L84.0616 310.79ZM87.8936 306.387H89.0049V308.213H90.0489V309.11H89.0049V313.378C89.0049 313.606 89.0822 313.759 89.2369 313.836C89.3224 313.881 89.4648 313.903 89.6643 313.903C89.7172 313.903 89.7742 313.903 89.8352 313.903C89.8963 313.899 89.9675 313.893 90.0489 313.885V314.752C89.9228 314.789 89.7905 314.815 89.6521 314.832C89.5177 314.848 89.3712 314.856 89.2124 314.856C88.6996 314.856 88.3515 314.726 88.1684 314.465C87.9852 314.201 87.8936 313.859 87.8936 313.439V309.11H87.0083V308.213H87.8936V306.387ZM94.0336 308.066C94.4976 308.066 94.9474 308.176 95.3829 308.396C95.8185 308.612 96.1502 308.893 96.3782 309.239C96.598 309.568 96.7445 309.953 96.8178 310.393C96.8829 310.694 96.9155 311.174 96.9155 311.834H92.1225C92.1428 312.497 92.2995 313.03 92.5926 313.433C92.8857 313.832 93.3395 314.032 93.9542 314.032C94.5281 314.032 94.9861 313.842 95.328 313.464C95.5234 313.244 95.6618 312.99 95.7432 312.701H96.8239C96.7954 312.941 96.6997 313.209 96.5369 313.507C96.3782 313.8 96.1991 314.04 95.9996 314.227C95.6658 314.553 95.2527 314.773 94.7601 314.887C94.4956 314.952 94.1964 314.984 93.8626 314.984C93.0485 314.984 92.3585 314.689 91.7927 314.099C91.2269 313.505 90.944 312.674 90.944 311.608C90.944 310.558 91.229 309.705 91.7988 309.049C92.3687 308.394 93.1136 308.066 94.0336 308.066ZM95.7859 310.961C95.7411 310.484 95.6373 310.104 95.4745 309.819C95.1733 309.29 94.6706 309.025 93.9664 309.025C93.4617 309.025 93.0383 309.208 92.6964 309.575C92.3545 309.937 92.1733 310.399 92.153 310.961H95.7859Z" fill="url(#paint1_linear_2385_24758)"/>
<path d="M124.081 320.131C124.029 320.359 123.825 320.522 123.591 320.522C123.356 320.522 123.153 320.359 123.101 320.131L122.823 318.908C122.694 318.343 122.253 317.901 121.687 317.773L120.465 317.495C120.236 317.443 120.074 317.239 120.074 317.005C120.074 316.77 120.236 316.567 120.465 316.515L121.687 316.237C122.253 316.108 122.694 315.667 122.823 315.101L123.101 313.879C123.153 313.65 123.356 313.488 123.591 313.488C123.825 313.488 124.029 313.65 124.081 313.879L124.359 315.101C124.487 315.667 124.929 316.108 125.494 316.237L126.717 316.515C126.945 316.567 127.108 316.77 127.108 317.005C127.108 317.239 126.945 317.443 126.717 317.495L125.494 317.773C124.929 317.901 124.487 318.343 124.359 318.908L124.081 320.131Z" fill="url(#paint2_linear_2385_24758)"/>
<path d="M110.013 317.005C109.961 317.233 109.758 317.396 109.523 317.396C109.289 317.396 109.085 317.233 109.033 317.005L108.755 315.782C108.627 315.217 108.185 314.775 107.62 314.646L106.397 314.368C106.169 314.316 106.006 314.113 106.006 313.879C106.006 313.644 106.169 313.441 106.397 313.389L107.62 313.111C108.185 312.982 108.627 312.541 108.755 311.975L109.033 310.753C109.085 310.524 109.289 310.362 109.523 310.362C109.758 310.362 109.961 310.524 110.013 310.753L110.291 311.975C110.42 312.541 110.861 312.982 111.427 313.111L112.649 313.389C112.878 313.441 113.04 313.644 113.04 313.879C113.04 314.113 112.878 314.316 112.649 314.368L111.427 314.646C110.861 314.775 110.42 315.217 110.291 315.782L110.013 317.005Z" fill="url(#paint3_linear_2385_24758)"/>
<path d="M120.173 307.626C120.121 307.855 119.918 308.017 119.683 308.017C119.449 308.017 119.245 307.855 119.193 307.626L118.915 306.404C118.787 305.838 118.345 305.397 117.78 305.268L116.557 304.99C116.329 304.938 116.166 304.735 116.166 304.5C116.166 304.266 116.329 304.062 116.557 304.01L117.78 303.732C118.345 303.604 118.787 303.162 118.915 302.597L119.193 301.374C119.245 301.146 119.449 300.983 119.683 300.983C119.918 300.983 120.121 301.146 120.173 301.374L120.451 302.597C120.58 303.162 121.021 303.604 121.587 303.732L122.809 304.01C123.038 304.062 123.2 304.266 123.2 304.5C123.2 304.735 123.038 304.938 122.809 304.99L121.587 305.268C121.021 305.397 120.58 305.838 120.451 306.404L120.173 307.626Z" fill="url(#paint4_linear_2385_24758)"/>
<defs>
<linearGradient id="paint0_linear_2385_24758" x1="22.3079" y1="310.752" x2="148.991" y2="310.752" gradientUnits="userSpaceOnUse">
<stop stop-color="#5B03B2"/>
<stop offset="0.5" stop-color="#7C2AB7"/>
<stop offset="0.9" stop-color="#EB06AB"/>
</linearGradient>
<linearGradient id="paint1_linear_2385_24758" x1="60.7995" y1="296.941" x2="95.9259" y2="300.105" gradientUnits="userSpaceOnUse">
<stop stop-color="#5B03B2"/>
<stop offset="0.685517" stop-color="#9D50BB"/>
</linearGradient>
<linearGradient id="paint2_linear_2385_24758" x1="120.074" y1="318.831" x2="128.029" y2="318.755" gradientUnits="userSpaceOnUse">
<stop stop-color="#5B03B2"/>
<stop offset="0.453455" stop-color="#9D50BB"/>
<stop offset="0.731601" stop-color="#EB06AB"/>
</linearGradient>
<linearGradient id="paint3_linear_2385_24758" x1="106.006" y1="315.705" x2="113.961" y2="315.629" gradientUnits="userSpaceOnUse">
<stop stop-color="#5B03B2"/>
<stop offset="0.453455" stop-color="#9D50BB"/>
<stop offset="0.731601" stop-color="#EB06AB"/>
</linearGradient>
<linearGradient id="paint4_linear_2385_24758" x1="116.166" y1="306.326" x2="124.121" y2="306.251" gradientUnits="userSpaceOnUse">
<stop stop-color="#5B03B2"/>
<stop offset="0.453455" stop-color="#9D50BB"/>
<stop offset="0.731601" stop-color="#EB06AB"/>
</linearGradient>
</defs>
</svg>
