<svg width="1384" height="199" viewBox="0 0 1384 199" fill="none" xmlns="http://www.w3.org/2000/svg">
<g clip-path="url(#clip0_2326_9609)">
<path d="M420.075 69.0943H349.473V230.817H380.35V172.161H420.075C455.995 172.161 478.291 154.025 478.291 120.584C478.291 87.1421 455.995 69.0059 420.075 69.0059V69.0943ZM415.74 149.071H380.262V92.2733H415.74C436.266 92.2733 447.325 101.386 447.325 120.584C447.325 139.781 436.266 148.982 415.74 148.982V149.071Z" fill="white"/>
<path d="M545.531 111.383C507.31 111.383 485.988 135.447 485.988 172.25C485.988 209.053 507.31 233.117 545.531 233.117C583.752 233.117 605.251 209.23 605.251 172.25C605.251 135.27 583.84 111.383 545.531 111.383ZM545.531 210.911C526.155 210.911 515.273 198.171 515.273 172.25C515.273 146.328 526.155 133.677 545.531 133.677C564.907 133.677 575.966 146.328 575.966 172.25C575.966 198.171 565.084 210.911 545.531 210.911Z" fill="white"/>
<path d="M621.973 110.41V230.817H651.258V95.1929L621.973 110.41Z" fill="white"/>
<path d="M701.865 69.0942L672.668 84.1341V230.816H701.953V69.0942H701.865Z" fill="white"/>
<path d="M796.444 81.8341C822.367 81.8341 833.426 94.3083 833.426 117.576H851.121C851.386 115.541 851.386 113.418 851.386 111.471C851.386 83.515 833.249 66.9712 798.213 66.9712C758.931 66.9712 733.892 86.0806 733.892 118.991C733.892 140.135 745.483 151.017 770.963 154.91L794.763 158.537C817.501 161.987 824.313 168.092 824.313 181.451C824.313 206.045 804.76 218.254 776.891 218.254C749.022 218.254 736.901 205.78 736.901 180.389H718.763C718.586 183.132 718.321 185.609 718.321 188.086C718.321 217.9 737.874 233.294 775.121 233.294C819.182 233.294 843.954 213.477 843.954 179.504C843.954 157.033 829.621 146.505 803.522 142.701L779.722 138.985C760.612 135.977 753.622 130.315 753.622 116.514C753.622 93.1582 772.467 82.011 796.532 82.011L796.444 81.8341Z" fill="white"/>
<path d="M969.322 175.169C970.207 171.719 971.092 166.057 971.092 159.51C971.092 136.331 957.732 111.383 923.581 111.383C881.821 111.383 859.526 144.47 859.526 184.989C859.526 214.273 877.044 233.117 908.186 233.117C939.329 233.117 956.759 218.519 964.544 195.163H947.469C940.745 210.203 927.474 219.935 909.337 219.935C889.784 219.935 878.017 208.08 878.017 185.609C878.017 182.424 878.017 179.062 878.636 175.169H969.322ZM922.696 124.476C941.541 124.476 952.689 137.393 952.689 157.829C952.689 159.422 952.689 160.837 952.512 162.43H880.76C885.979 136.95 902.524 124.476 922.785 124.476H922.696Z" fill="white"/>
<path d="M1053.28 111.383C1037.54 111.383 1023.47 119.08 1014.44 132.439L1017.89 113.595H999.934L979.497 230.817H998.342L1009.84 163.757C1014 139.87 1029.66 126.511 1047.8 126.511C1062.4 126.511 1070.27 133.766 1070.27 147.655C1070.27 150.398 1070.01 153.052 1069.56 156.325L1056.38 230.817H1075.23L1088.85 153.317C1089.47 149.867 1089.74 146.24 1089.74 143.32C1089.74 122.176 1075.84 111.294 1053.2 111.294L1053.28 111.383Z" fill="white"/>
<path d="M1160.51 124.388C1181.39 124.388 1186 133.943 1186 147.478H1202.98C1203.25 145.709 1203.25 143.851 1203.25 142.259C1203.25 120.23 1185.73 111.383 1162.11 111.383C1132.82 111.383 1112.56 123.857 1112.56 148.805C1112.56 166.765 1124.15 174.992 1141.58 177.381L1160.43 180.389C1172.64 182.158 1179.27 186.759 1179.27 196.756C1179.27 211.353 1167.77 220.112 1146.62 220.112C1126.63 220.112 1118.05 211.884 1118.05 195.075H1100.97C1100.79 196.844 1100.53 198.791 1100.53 200.56C1100.53 219.669 1114.68 233.028 1145.03 233.028C1179.8 233.028 1198.2 217.812 1198.2 195.517C1198.2 176.673 1186 168.092 1165.73 165.084L1146.62 162.076C1137.51 160.749 1131.41 157.298 1131.41 147.301C1131.41 130.492 1143.62 124.211 1160.43 124.211L1160.51 124.388Z" fill="white"/>
<path d="M1325.87 175.169C1326.76 171.719 1327.64 166.057 1327.64 159.51C1327.64 136.331 1314.19 111.383 1280.13 111.383C1238.37 111.383 1216.08 144.47 1216.08 184.989C1216.08 214.273 1233.59 233.117 1264.65 233.117C1295.7 233.117 1313.31 218.519 1321.01 195.163H1303.93C1297.12 210.203 1283.94 219.935 1265.8 219.935C1246.25 219.935 1234.48 208.08 1234.48 185.609C1234.48 182.424 1234.48 179.062 1235.1 175.169H1325.78H1325.87ZM1279.25 124.476C1298.09 124.476 1309.24 137.393 1309.24 157.829C1309.24 159.422 1309.24 160.837 1309.06 162.43H1237.31C1242.53 136.95 1259.07 124.476 1279.34 124.476H1279.25Z" fill="white"/>
<path d="M1373.29 69.3599C1364.62 69.3599 1360.11 74.668 1360.11 81.3917C1360.11 86.4345 1363.92 90.3271 1370.55 90.3271C1379.22 90.3271 1383.91 85.2844 1383.91 78.2953C1383.91 73.2525 1380.02 69.3599 1373.21 69.3599H1373.29ZM1356.48 113.683L1336.05 230.905H1354.89L1375.33 113.683H1356.48Z" fill="white"/>
<path d="M194.378 4.15784L22.207 129.254L0 98.7317L113.247 16.4551C124.748 8.58132 138.197 3.18468 152.972 0.972942C167.305 -1.15033 181.46 0.0882471 194.466 4.06937L194.378 4.15784Z" fill="url(#paint0_linear_2326_9609)"/>
<path d="M241.888 39.9882L55.6502 175.346L33.4432 144.825L219.504 9.55469C228.794 17.9593 236.491 28.3102 241.888 39.9882Z" fill="url(#paint1_linear_2326_9609)"/>
<path d="M239.765 65.2017C239.765 91.1232 229.059 115.187 211.276 132.615L89.0934 221.439L66.8864 190.917L239.765 65.2017Z" fill="url(#paint2_linear_2326_9609)"/>
</g>
<defs>
<linearGradient id="paint0_linear_2326_9609" x1="98.8255" y1="62.8131" x2="71.7552" y2="-126.777" gradientUnits="userSpaceOnUse">
<stop stop-color="#5B03B2"/>
<stop offset="1" stop-color="#9D50BB"/>
</linearGradient>
<linearGradient id="paint1_linear_2326_9609" x1="142.089" y1="123.326" x2="101.484" y2="-161.015" gradientUnits="userSpaceOnUse">
<stop stop-color="#5B03B2"/>
<stop offset="1" stop-color="#9D50BB"/>
</linearGradient>
<linearGradient id="paint2_linear_2326_9609" x1="160.492" y1="178.177" x2="114.402" y2="-144.737" gradientUnits="userSpaceOnUse">
<stop stop-color="#5B03B2"/>
<stop offset="1" stop-color="#9D50BB"/>
</linearGradient>
<clipPath id="clip0_2326_9609">
<rect width="1384" height="300" fill="white"/>
</clipPath>
</defs>
</svg>
