<svg width="1440" height="246" viewBox="0 0 1440 246" fill="none" xmlns="http://www.w3.org/2000/svg">
<g opacity="0.3" clip-path="url(#clip0_7559_49167)">
<path d="M437.072 69.0943H363.613V230.817H395.74V172.161H437.072C474.446 172.161 497.644 154.025 497.644 120.584C497.644 87.1421 474.446 69.0059 437.072 69.0059V69.0943ZM432.562 149.071H395.648V92.2733H432.562C453.918 92.2733 465.425 101.386 465.425 120.584C465.425 139.781 453.918 148.982 432.562 148.982V149.071Z" fill="black"/>
<path d="M567.605 111.383C527.838 111.383 505.653 135.447 505.653 172.25C505.653 209.053 527.838 233.117 567.605 233.117C607.372 233.117 629.742 209.23 629.742 172.25C629.742 135.27 607.465 111.383 567.605 111.383ZM567.605 210.911C547.445 210.911 536.123 198.171 536.123 172.25C536.123 146.328 547.445 133.677 567.605 133.677C587.765 133.677 599.272 146.328 599.272 172.25C599.272 198.171 587.949 210.911 567.605 210.911Z" fill="black"/>
<path d="M647.139 110.41V230.817H677.609V95.1934L647.139 110.41Z" fill="black"/>
<path d="M730.264 69.0938L699.886 84.1336V230.816H730.356V69.0938H730.264Z" fill="black"/>
<path d="M828.669 81.8336C855.641 81.8336 867.147 94.3078 867.147 117.575H885.558C885.834 115.54 885.834 113.417 885.834 111.471C885.834 83.5145 866.963 66.9707 830.51 66.9707C789.638 66.9707 763.587 86.0801 763.587 118.991C763.587 140.135 775.646 151.017 802.157 154.909L826.92 158.537C850.578 161.987 857.666 168.091 857.666 181.45C857.666 206.045 837.322 218.254 808.325 218.254C779.328 218.254 766.717 205.779 766.717 180.389H747.845C747.661 183.131 747.385 185.608 747.385 188.085C747.385 217.9 767.729 233.293 806.484 233.293C852.327 233.293 878.102 213.476 878.102 179.504C878.102 157.033 863.189 146.505 836.033 142.701L811.271 138.985C791.387 135.977 784.115 130.315 784.115 116.514C784.115 93.1577 803.722 82.0105 828.761 82.0105L828.669 81.8336Z" fill="black"/>
<path d="M1008.54 175.169C1009.46 171.719 1010.38 166.057 1010.38 159.51C1010.38 136.331 996.484 111.383 960.951 111.383C917.501 111.383 894.304 144.47 894.304 184.989C894.304 214.273 912.53 233.117 944.933 233.117C977.336 233.117 995.471 218.519 1003.57 195.163H985.805C978.809 210.203 965.001 219.935 946.13 219.935C925.786 219.935 913.543 208.08 913.543 185.609C913.543 182.424 913.543 179.062 914.187 175.169H1008.54ZM960.03 124.476C979.638 124.476 991.237 137.393 991.237 157.829C991.237 159.422 991.237 160.837 991.052 162.43H916.397C921.828 136.95 939.042 124.476 960.122 124.476H960.03Z" fill="black"/>
<path d="M1095.9 111.381C1079.52 111.381 1064.88 119.078 1055.49 132.437L1059.08 113.593H1040.39L1019.13 230.815H1038.74L1050.7 163.755C1055.03 139.869 1071.32 126.51 1090.19 126.51C1105.38 126.51 1113.58 133.764 1113.58 147.654C1113.58 150.396 1113.3 153.051 1112.84 156.324L1099.12 230.815H1118.73L1132.91 153.316C1133.55 149.866 1133.83 146.238 1133.83 143.319C1133.83 122.175 1119.38 111.293 1095.81 111.293L1095.9 111.381Z" fill="black"/>
<path d="M1207.47 124.388C1229.2 124.388 1233.98 133.943 1233.98 147.478H1251.66C1251.93 145.709 1251.93 143.851 1251.93 142.259C1251.93 120.23 1233.71 111.383 1209.13 111.383C1178.66 111.383 1157.58 123.857 1157.58 148.805C1157.58 166.765 1169.64 174.992 1187.77 177.381L1207.38 180.389C1220.08 182.158 1226.99 186.759 1226.99 196.756C1226.99 211.353 1215.02 220.112 1193.02 220.112C1172.22 220.112 1163.29 211.884 1163.29 195.075H1145.52C1145.34 196.844 1145.06 198.791 1145.06 200.56C1145.06 219.669 1159.79 233.028 1191.36 233.028C1227.54 233.028 1246.69 217.812 1246.69 195.517C1246.69 176.673 1233.98 168.092 1212.9 165.084L1193.02 162.076C1183.54 160.749 1177.19 157.298 1177.19 147.301C1177.19 130.492 1189.89 124.211 1207.38 124.211L1207.47 124.388Z" fill="black"/>
<path d="M1379.52 175.169C1380.44 171.719 1381.36 166.057 1381.36 159.51C1381.36 136.331 1367.37 111.383 1331.93 111.383C1288.48 111.383 1265.28 144.47 1265.28 184.989C1265.28 214.273 1283.51 233.117 1315.82 233.117C1348.13 233.117 1366.45 218.519 1374.46 195.163H1356.69C1349.6 210.203 1335.89 219.935 1317.02 219.935C1296.67 219.935 1284.43 208.08 1284.43 185.609C1284.43 182.424 1284.43 179.062 1285.07 175.169H1379.43H1379.52ZM1331.01 124.476C1350.62 124.476 1362.21 137.393 1362.21 157.829C1362.21 159.422 1362.21 160.837 1362.03 162.43H1287.37C1292.81 136.95 1310.02 124.476 1331.1 124.476H1331.01Z" fill="black"/>
<path d="M1428.86 69.3594C1419.84 69.3594 1415.15 74.6675 1415.15 81.3912C1415.15 86.434 1419.1 90.3266 1426.01 90.3266C1435.03 90.3266 1439.91 85.2839 1439.91 78.2948C1439.91 73.252 1435.86 69.3594 1428.77 69.3594H1428.86ZM1411.37 113.683L1390.11 230.905H1409.71L1430.98 113.683H1411.37Z" fill="black"/>
<path d="M202.243 4.15833L23.1055 129.254L0 98.7322L117.829 16.4556C129.796 8.58181 143.788 3.18517 159.161 0.97343C174.074 -1.14984 188.803 0.0887353 202.335 4.06986L202.243 4.15833Z" fill="url(#paint0_linear_7559_49167)"/>
<path d="M251.675 39.9882L57.9019 175.346L34.7964 144.825L228.386 9.55469C238.051 17.9593 246.06 28.3102 251.675 39.9882Z" fill="url(#paint1_linear_7559_49167)"/>
<path d="M249.467 65.2031C249.467 91.1247 238.328 115.188 219.825 132.617L92.6988 221.44L69.5933 190.918L249.467 65.2031Z" fill="url(#paint2_linear_7559_49167)"/>
<path d="M178.86 300.001C207.788 300.001 231.239 277.463 231.239 249.661C231.239 221.86 207.788 199.322 178.86 199.322C149.932 199.322 126.481 221.86 126.481 249.661C126.481 277.463 149.932 300.001 178.86 300.001Z" fill="url(#paint3_linear_7559_49167)"/>
</g>
<defs>
<linearGradient id="paint0_linear_7559_49167" x1="102.824" y1="62.8136" x2="76.767" y2="-127.066" gradientUnits="userSpaceOnUse">
<stop stop-color="#5B03B2"/>
<stop offset="1" stop-color="#9D50BB"/>
</linearGradient>
<linearGradient id="paint1_linear_7559_49167" x1="147.839" y1="123.326" x2="108.753" y2="-161.449" gradientUnits="userSpaceOnUse">
<stop stop-color="#5B03B2"/>
<stop offset="1" stop-color="#9D50BB"/>
</linearGradient>
<linearGradient id="paint2_linear_7559_49167" x1="166.986" y1="178.179" x2="122.621" y2="-145.228" gradientUnits="userSpaceOnUse">
<stop stop-color="#5B03B2"/>
<stop offset="1" stop-color="#9D50BB"/>
</linearGradient>
<linearGradient id="paint3_linear_7559_49167" x1="182.726" y1="275.937" x2="130.867" y2="-102.139" gradientUnits="userSpaceOnUse">
<stop stop-color="#5B03B2"/>
<stop offset="1" stop-color="#9D50BB"/>
</linearGradient>
<clipPath id="clip0_7559_49167">
<rect width="1440" height="300" fill="white"/>
</clipPath>
</defs>
</svg>
