<svg width="1022" height="55" viewBox="0 0 1022 55" fill="none" xmlns="http://www.w3.org/2000/svg">
<mask id="path-1-inside-1_7559_37122" fill="white">
<path d="M0 6C0 2.68629 2.68629 0 6 0H261C264.314 0 267 2.68629 267 6V49C267 52.3137 264.314 55 261 55H6C2.68629 55 0 52.3137 0 49V6Z"/>
</mask>
<path d="M0 6C0 2.68629 2.68629 0 6 0H261C264.314 0 267 2.68629 267 6V49C267 52.3137 264.314 55 261 55H6C2.68629 55 0 52.3137 0 49V6Z" fill="white"/>
<path d="M0 0H267H0ZM267 55H0H267ZM6 55C1.02944 55 -3 50.9706 -3 46V9C-3 4.02944 1.02944 0 6 0C4.34315 0 3 2.68629 3 6V49C3 52.3137 4.34315 55 6 55ZM267 0V55V0Z" fill="#9D50BB" mask="url(#path-1-inside-1_7559_37122)"/>
<path d="M21.2784 33.5V21.8636H25.4261C26.3277 21.8636 27.0758 22.0189 27.6705 22.3295C28.2689 22.6402 28.7159 23.0701 29.0114 23.6193C29.3068 24.1648 29.4545 24.7955 29.4545 25.5114C29.4545 26.2235 29.3049 26.8504 29.0057 27.392C28.7102 27.9299 28.2633 28.3485 27.6648 28.6477C27.0701 28.947 26.322 29.0966 25.4205 29.0966H22.2784V27.5852H25.2614C25.8295 27.5852 26.2917 27.5038 26.6477 27.3409C27.0076 27.178 27.2708 26.9413 27.4375 26.6307C27.6042 26.3201 27.6875 25.947 27.6875 25.5114C27.6875 25.072 27.6023 24.6913 27.4318 24.3693C27.2652 24.0473 27.0019 23.8011 26.642 23.6307C26.286 23.4564 25.8182 23.3693 25.2386 23.3693H23.0341V33.5H21.2784ZM27.0227 28.25L29.8977 33.5H27.8977L25.0795 28.25H27.0227ZM34.7865 33.6761C33.9267 33.6761 33.1862 33.4924 32.5649 33.125C31.9475 32.7538 31.4702 32.233 31.1331 31.5625C30.7998 30.8883 30.6331 30.0985 30.6331 29.1932C30.6331 28.2992 30.7998 27.5114 31.1331 26.8295C31.4702 26.1477 31.9399 25.6155 32.5422 25.233C33.1483 24.8504 33.8566 24.6591 34.6672 24.6591C35.1596 24.6591 35.6369 24.7405 36.099 24.9034C36.5612 25.0663 36.9759 25.322 37.3434 25.6705C37.7108 26.0189 38.0005 26.4716 38.2127 27.0284C38.4248 27.5814 38.5309 28.2538 38.5309 29.0455V29.6477H31.5934V28.375H36.8661C36.8661 27.928 36.7752 27.5322 36.5934 27.1875C36.4115 26.839 36.1559 26.5644 35.8263 26.3636C35.5005 26.1629 35.118 26.0625 34.6786 26.0625C34.2013 26.0625 33.7846 26.1799 33.4286 26.4148C33.0763 26.6458 32.8036 26.9489 32.6104 27.3239C32.421 27.6951 32.3263 28.0985 32.3263 28.5341V29.5284C32.3263 30.1117 32.4286 30.608 32.6331 31.017C32.8415 31.4261 33.1312 31.7386 33.5024 31.9545C33.8737 32.1667 34.3074 32.2727 34.8036 32.2727C35.1255 32.2727 35.4191 32.2273 35.6843 32.1364C35.9494 32.0417 36.1786 31.9015 36.3718 31.7159C36.5649 31.5303 36.7127 31.3011 36.8149 31.0284L38.4229 31.3182C38.2941 31.7917 38.063 32.2064 37.7297 32.5625C37.4002 32.9148 36.9854 33.1894 36.4854 33.3864C35.9892 33.5795 35.4229 33.6761 34.7865 33.6761ZM42.6356 33.6932C42.0825 33.6932 41.5825 33.5909 41.1356 33.3864C40.6886 33.178 40.3344 32.8769 40.0731 32.483C39.8155 32.089 39.6867 31.6061 39.6867 31.0341C39.6867 30.5417 39.7814 30.1364 39.9708 29.8182C40.1602 29.5 40.4159 29.2481 40.7378 29.0625C41.0598 28.8769 41.4197 28.7367 41.8174 28.642C42.2151 28.5473 42.6204 28.4754 43.0333 28.4261C43.556 28.3655 43.9803 28.3163 44.306 28.2784C44.6318 28.2367 44.8685 28.1705 45.0163 28.0795C45.164 27.9886 45.2378 27.8409 45.2378 27.6364V27.5966C45.2378 27.1004 45.0977 26.7159 44.8174 26.4432C44.5409 26.1705 44.128 26.0341 43.5788 26.0341C43.0068 26.0341 42.556 26.161 42.2265 26.4148C41.9007 26.6648 41.6753 26.9432 41.5503 27.25L39.9538 26.8864C40.1431 26.3561 40.4197 25.928 40.7833 25.6023C41.1507 25.2727 41.5731 25.0341 42.0503 24.8864C42.5276 24.7348 43.0295 24.6591 43.556 24.6591C43.9045 24.6591 44.2738 24.7008 44.664 24.7841C45.0579 24.8636 45.4253 25.0114 45.7663 25.2273C46.1109 25.4432 46.3931 25.7519 46.6128 26.1534C46.8325 26.5511 46.9424 27.0682 46.9424 27.7045V33.5H45.2833V32.3068H45.2151C45.1053 32.5265 44.9405 32.7424 44.7208 32.9545C44.5011 33.1667 44.2189 33.3428 43.8742 33.483C43.5295 33.6231 43.1166 33.6932 42.6356 33.6932ZM43.0049 32.3295C43.4746 32.3295 43.8761 32.2367 44.2094 32.0511C44.5466 31.8655 44.8022 31.6231 44.9765 31.3239C45.1545 31.0208 45.2435 30.697 45.2435 30.3523V29.2273C45.1829 29.2879 45.0655 29.3447 44.8913 29.3977C44.7208 29.447 44.5257 29.4905 44.306 29.5284C44.0863 29.5625 43.8723 29.5947 43.664 29.625C43.4556 29.6515 43.2814 29.6742 43.1413 29.6932C42.8117 29.7348 42.5106 29.8049 42.2378 29.9034C41.9689 30.0019 41.753 30.1439 41.5901 30.3295C41.431 30.5114 41.3515 30.7538 41.3515 31.0568C41.3515 31.4773 41.5068 31.7955 41.8174 32.0114C42.128 32.2235 42.5238 32.3295 43.0049 32.3295ZM50.584 21.8636V33.5H48.8852V21.8636H50.584ZM57.6916 27.8466V29.3182H52.5325V27.8466H57.6916ZM58.2452 23.375V21.8636H67.2509V23.375H63.6202V33.5H61.8702V23.375H58.2452ZM68.7845 33.5V24.7727H70.4834V33.5H68.7845ZM69.6425 23.4261C69.347 23.4261 69.0933 23.3277 68.8811 23.1307C68.6728 22.9299 68.5686 22.6913 68.5686 22.4148C68.5686 22.1345 68.6728 21.8958 68.8811 21.6989C69.0933 21.4981 69.347 21.3977 69.6425 21.3977C69.938 21.3977 70.1899 21.4981 70.3982 21.6989C70.6103 21.8958 70.7164 22.1345 70.7164 22.4148C70.7164 22.6913 70.6103 22.9299 70.3982 23.1307C70.1899 23.3277 69.938 23.4261 69.6425 23.4261ZM72.4489 33.5V24.7727H74.0796V26.1932H74.1876C74.3694 25.7121 74.6667 25.3371 75.0796 25.0682C75.4925 24.7955 75.9868 24.6591 76.5626 24.6591C77.1459 24.6591 77.6345 24.7955 78.0285 25.0682C78.4262 25.3409 78.7198 25.7159 78.9091 26.1932H79.0001C79.2084 25.7273 79.5398 25.3561 79.9944 25.0795C80.4489 24.7992 80.9906 24.6591 81.6194 24.6591C82.411 24.6591 83.0569 24.9072 83.5569 25.4034C84.0607 25.8996 84.3126 26.6477 84.3126 27.6477V33.5H82.6137V27.8068C82.6137 27.2159 82.4527 26.7879 82.1307 26.5227C81.8088 26.2576 81.4243 26.125 80.9773 26.125C80.4243 26.125 79.9944 26.2955 79.6876 26.6364C79.3807 26.9735 79.2273 27.4072 79.2273 27.9375V33.5H77.5341V27.6989C77.5341 27.2254 77.3864 26.8447 77.091 26.5568C76.7955 26.2689 76.411 26.125 75.9376 26.125C75.6156 26.125 75.3182 26.2102 75.0455 26.3807C74.7766 26.5473 74.5588 26.7803 74.3921 27.0795C74.2292 27.3788 74.1478 27.7254 74.1478 28.1193V33.5H72.4489ZM90.0309 33.6761C89.1711 33.6761 88.4305 33.4924 87.8093 33.125C87.1919 32.7538 86.7146 32.233 86.3775 31.5625C86.0442 30.8883 85.8775 30.0985 85.8775 29.1932C85.8775 28.2992 86.0442 27.5114 86.3775 26.8295C86.7146 26.1477 87.1843 25.6155 87.7866 25.233C88.3927 24.8504 89.101 24.6591 89.9116 24.6591C90.404 24.6591 90.8813 24.7405 91.3434 24.9034C91.8055 25.0663 92.2203 25.322 92.5877 25.6705C92.9552 26.0189 93.2449 26.4716 93.457 27.0284C93.6692 27.5814 93.7752 28.2538 93.7752 29.0455V29.6477H86.8377V28.375H92.1105C92.1105 27.928 92.0195 27.5322 91.8377 27.1875C91.6559 26.839 91.4002 26.5644 91.0707 26.3636C90.7449 26.1629 90.3624 26.0625 89.923 26.0625C89.4457 26.0625 89.029 26.1799 88.673 26.4148C88.3207 26.6458 88.048 26.9489 87.8548 27.3239C87.6654 27.6951 87.5707 28.0985 87.5707 28.5341V29.5284C87.5707 30.1117 87.673 30.608 87.8775 31.017C88.0858 31.4261 88.3756 31.7386 88.7468 31.9545C89.118 32.1667 89.5517 32.2727 90.048 32.2727C90.3699 32.2727 90.6635 32.2273 90.9286 32.1364C91.1938 32.0417 91.423 31.9015 91.6161 31.7159C91.8093 31.5303 91.957 31.3011 92.0593 31.0284L93.6673 31.3182C93.5385 31.7917 93.3074 32.2064 92.9741 32.5625C92.6445 32.9148 92.2298 33.1894 91.7298 33.3864C91.2336 33.5795 90.6673 33.6761 90.0309 33.6761ZM99.3909 33.5V21.8636H103.539C104.44 21.8636 105.188 22.0189 105.783 22.3295C106.381 22.6402 106.828 23.0701 107.124 23.6193C107.419 24.1648 107.567 24.7955 107.567 25.5114C107.567 26.2235 107.417 26.8504 107.118 27.392C106.823 27.9299 106.376 28.3485 105.777 28.6477C105.183 28.947 104.434 29.0966 103.533 29.0966H100.391V27.5852H103.374C103.942 27.5852 104.404 27.5038 104.76 27.3409C105.12 27.178 105.383 26.9413 105.55 26.6307C105.717 26.3201 105.8 25.947 105.8 25.5114C105.8 25.072 105.715 24.6913 105.544 24.3693C105.378 24.0473 105.114 23.8011 104.755 23.6307C104.398 23.4564 103.931 23.3693 103.351 23.3693H101.147V33.5H99.3909ZM105.135 28.25L108.01 33.5H106.01L103.192 28.25H105.135ZM112.899 33.6761C112.039 33.6761 111.299 33.4924 110.677 33.125C110.06 32.7538 109.583 32.233 109.246 31.5625C108.912 30.8883 108.746 30.0985 108.746 29.1932C108.746 28.2992 108.912 27.5114 109.246 26.8295C109.583 26.1477 110.052 25.6155 110.655 25.233C111.261 24.8504 111.969 24.6591 112.78 24.6591C113.272 24.6591 113.749 24.7405 114.212 24.9034C114.674 25.0663 115.088 25.322 115.456 25.6705C115.823 26.0189 116.113 26.4716 116.325 27.0284C116.537 27.5814 116.643 28.2538 116.643 29.0455V29.6477H109.706V28.375H114.979C114.979 27.928 114.888 27.5322 114.706 27.1875C114.524 26.839 114.268 26.5644 113.939 26.3636C113.613 26.1629 113.23 26.0625 112.791 26.0625C112.314 26.0625 111.897 26.1799 111.541 26.4148C111.189 26.6458 110.916 26.9489 110.723 27.3239C110.534 27.6951 110.439 28.0985 110.439 28.5341V29.5284C110.439 30.1117 110.541 30.608 110.746 31.017C110.954 31.4261 111.244 31.7386 111.615 31.9545C111.986 32.1667 112.42 32.2727 112.916 32.2727C113.238 32.2727 113.532 32.2273 113.797 32.1364C114.062 32.0417 114.291 31.9015 114.484 31.7159C114.677 31.5303 114.825 31.3011 114.927 31.0284L116.535 31.3182C116.407 31.7917 116.176 32.2064 115.842 32.5625C115.513 32.9148 115.098 33.1894 114.598 33.3864C114.102 33.5795 113.535 33.6761 112.899 33.6761ZM118.208 36.7727V24.7727H119.867V26.1875H120.009C120.108 26.0057 120.25 25.7955 120.436 25.5568C120.621 25.3182 120.879 25.1098 121.208 24.9318C121.538 24.75 121.973 24.6591 122.515 24.6591C123.22 24.6591 123.848 24.8371 124.401 25.1932C124.955 25.5492 125.388 26.0625 125.703 26.733C126.021 27.4034 126.18 28.2102 126.18 29.1534C126.18 30.0966 126.023 30.9053 125.708 31.5795C125.394 32.25 124.962 32.767 124.413 33.1307C123.864 33.4905 123.237 33.6705 122.532 33.6705C122.002 33.6705 121.568 33.5814 121.231 33.4034C120.898 33.2254 120.636 33.017 120.447 32.7784C120.258 32.5398 120.112 32.3277 120.009 32.142H119.907V36.7727H118.208ZM119.873 29.1364C119.873 29.75 119.962 30.2879 120.14 30.75C120.318 31.2121 120.576 31.5739 120.913 31.8352C121.25 32.0928 121.663 32.2216 122.151 32.2216C122.659 32.2216 123.083 32.0871 123.424 31.8182C123.765 31.5455 124.023 31.1761 124.197 30.7102C124.375 30.2443 124.464 29.7197 124.464 29.1364C124.464 28.5606 124.377 28.0436 124.203 27.5852C124.032 27.1269 123.775 26.7652 123.43 26.5C123.089 26.2348 122.663 26.1023 122.151 26.1023C121.659 26.1023 121.242 26.2292 120.901 26.483C120.564 26.7367 120.309 27.0909 120.134 27.5455C119.96 28 119.873 28.5303 119.873 29.1364ZM131.439 33.6761C130.621 33.6761 129.907 33.4886 129.297 33.1136C128.688 32.7386 128.214 32.214 127.877 31.5398C127.54 30.8655 127.371 30.0777 127.371 29.1761C127.371 28.2708 127.54 27.4792 127.877 26.8011C128.214 26.1231 128.688 25.5966 129.297 25.2216C129.907 24.8466 130.621 24.6591 131.439 24.6591C132.258 24.6591 132.972 24.8466 133.581 25.2216C134.191 25.5966 134.665 26.1231 135.002 26.8011C135.339 27.4792 135.508 28.2708 135.508 29.1761C135.508 30.0777 135.339 30.8655 135.002 31.5398C134.665 32.214 134.191 32.7386 133.581 33.1136C132.972 33.4886 132.258 33.6761 131.439 33.6761ZM131.445 32.25C131.975 32.25 132.415 32.1098 132.763 31.8295C133.112 31.5492 133.369 31.1761 133.536 30.7102C133.706 30.2443 133.792 29.7311 133.792 29.1705C133.792 28.6136 133.706 28.1023 133.536 27.6364C133.369 27.1667 133.112 26.7898 132.763 26.5057C132.415 26.2216 131.975 26.0795 131.445 26.0795C130.911 26.0795 130.468 26.2216 130.116 26.5057C129.767 26.7898 129.508 27.1667 129.337 27.6364C129.17 28.1023 129.087 28.6136 129.087 29.1705C129.087 29.7311 129.17 30.2443 129.337 30.7102C129.508 31.1761 129.767 31.5492 130.116 31.8295C130.468 32.1098 130.911 32.25 131.445 32.25ZM137.084 33.5V24.7727H138.726V26.1591H138.817C138.976 25.6894 139.256 25.3201 139.658 25.0511C140.063 24.7784 140.521 24.642 141.033 24.642C141.139 24.642 141.264 24.6458 141.408 24.6534C141.556 24.661 141.671 24.6705 141.754 24.6818V26.3068C141.686 26.2879 141.565 26.267 141.391 26.2443C141.216 26.2178 141.042 26.2045 140.868 26.2045C140.466 26.2045 140.109 26.2898 139.794 26.4602C139.484 26.6269 139.237 26.8598 139.056 27.1591C138.874 27.4545 138.783 27.7917 138.783 28.1705V33.5H137.084ZM147.494 24.7727V26.1364H142.727V24.7727H147.494ZM144.005 22.6818H145.704V30.9375C145.704 31.267 145.754 31.5152 145.852 31.6818C145.95 31.8447 146.077 31.9564 146.233 32.017C146.392 32.0739 146.564 32.1023 146.75 32.1023C146.886 32.1023 147.005 32.0928 147.108 32.0739C147.21 32.0549 147.289 32.0398 147.346 32.0284L147.653 33.4318C147.555 33.4697 147.414 33.5076 147.233 33.5455C147.051 33.5871 146.824 33.6098 146.551 33.6136C146.104 33.6212 145.687 33.5417 145.301 33.375C144.914 33.2083 144.602 32.9508 144.363 32.6023C144.125 32.2538 144.005 31.8163 144.005 31.2898V22.6818ZM149.053 33.5V24.7727H150.752V33.5H149.053ZM149.911 23.4261C149.616 23.4261 149.362 23.3277 149.15 23.1307C148.942 22.9299 148.837 22.6913 148.837 22.4148C148.837 22.1345 148.942 21.8958 149.15 21.6989C149.362 21.4981 149.616 21.3977 149.911 21.3977C150.207 21.3977 150.459 21.4981 150.667 21.6989C150.879 21.8958 150.985 22.1345 150.985 22.4148C150.985 22.6913 150.879 22.9299 150.667 23.1307C150.459 23.3277 150.207 23.4261 149.911 23.4261ZM154.417 28.3182V33.5H152.718V24.7727H154.348V26.1932H154.456C154.657 25.7311 154.971 25.3598 155.399 25.0795C155.831 24.7992 156.375 24.6591 157.03 24.6591C157.625 24.6591 158.146 24.7841 158.593 25.0341C159.04 25.2803 159.386 25.6477 159.632 26.1364C159.879 26.625 160.002 27.2292 160.002 27.9489V33.5H158.303V28.1534C158.303 27.5208 158.138 27.0265 157.809 26.6705C157.479 26.3106 157.026 26.1307 156.451 26.1307C156.057 26.1307 155.706 26.2159 155.399 26.3864C155.096 26.5568 154.856 26.8068 154.678 27.1364C154.504 27.4621 154.417 27.8561 154.417 28.3182ZM165.619 36.9545C164.926 36.9545 164.329 36.8636 163.829 36.6818C163.333 36.5 162.928 36.2595 162.614 35.9602C162.299 35.661 162.064 35.3333 161.909 34.9773L163.369 34.375C163.472 34.5417 163.608 34.7178 163.778 34.9034C163.953 35.0928 164.187 35.2538 164.483 35.3864C164.782 35.5189 165.167 35.5852 165.636 35.5852C166.28 35.5852 166.812 35.428 167.233 35.1136C167.653 34.803 167.864 34.3068 167.864 33.625V31.9091H167.756C167.653 32.0947 167.506 32.3011 167.312 32.5284C167.123 32.7557 166.862 32.9527 166.528 33.1193C166.195 33.286 165.761 33.3693 165.227 33.3693C164.538 33.3693 163.917 33.2083 163.364 32.8864C162.814 32.5606 162.379 32.0814 162.057 31.4489C161.739 30.8125 161.579 30.0303 161.579 29.1023C161.579 28.1742 161.737 27.3788 162.051 26.7159C162.369 26.053 162.805 25.5455 163.358 25.1932C163.911 24.8371 164.538 24.6591 165.239 24.6591C165.78 24.6591 166.218 24.75 166.551 24.9318C166.884 25.1098 167.144 25.3182 167.329 25.5568C167.519 25.7955 167.665 26.0057 167.767 26.1875H167.892V24.7727H169.557V33.6932C169.557 34.4432 169.383 35.0587 169.034 35.5398C168.686 36.0208 168.214 36.3769 167.619 36.608C167.028 36.839 166.362 36.9545 165.619 36.9545ZM165.602 31.9602C166.091 31.9602 166.504 31.8466 166.841 31.6193C167.182 31.3883 167.439 31.0587 167.614 30.6307C167.792 30.1989 167.881 29.6818 167.881 29.0795C167.881 28.4924 167.794 27.9754 167.619 27.5284C167.445 27.0814 167.189 26.733 166.852 26.483C166.515 26.2292 166.098 26.1023 165.602 26.1023C165.091 26.1023 164.665 26.2348 164.324 26.5C163.983 26.7614 163.725 27.1174 163.551 27.5682C163.381 28.0189 163.295 28.5227 163.295 29.0795C163.295 29.6515 163.383 30.1534 163.557 30.5852C163.731 31.017 163.989 31.3542 164.329 31.5966C164.674 31.839 165.098 31.9602 165.602 31.9602ZM178.816 33.6648C178.036 33.6648 177.363 33.5227 176.799 33.2386C176.238 32.9545 175.806 32.5682 175.503 32.0795C175.2 31.5871 175.049 31.0303 175.049 30.4091C175.049 29.9356 175.147 29.5152 175.344 29.1477C175.541 28.7765 175.816 28.4337 176.168 28.1193C176.52 27.8049 176.928 27.4886 177.39 27.1705L179.265 25.8466C179.583 25.6383 179.831 25.4186 180.009 25.1875C180.187 24.9527 180.276 24.6629 180.276 24.3182C180.276 24.0455 180.159 23.7841 179.924 23.5341C179.689 23.2841 179.375 23.1591 178.981 23.1591C178.708 23.1591 178.467 23.2254 178.259 23.358C178.055 23.4905 177.894 23.661 177.776 23.8693C177.663 24.0739 177.606 24.2898 177.606 24.517C177.606 24.7822 177.678 25.0492 177.822 25.3182C177.969 25.5871 178.159 25.8655 178.39 26.1534C178.621 26.4375 178.863 26.733 179.117 27.0398L184.52 33.5H182.6L178.128 28.2443C177.753 27.8011 177.405 27.3845 177.083 26.9943C176.761 26.6004 176.5 26.2027 176.299 25.8011C176.102 25.3958 176.003 24.9583 176.003 24.4886C176.003 23.9545 176.125 23.4811 176.367 23.0682C176.613 22.6515 176.956 22.3258 177.395 22.0909C177.835 21.8561 178.35 21.7386 178.941 21.7386C179.539 21.7386 180.053 21.8561 180.481 22.0909C180.913 22.322 181.244 22.6307 181.475 23.017C181.71 23.3996 181.827 23.8182 181.827 24.2727C181.827 24.8258 181.689 25.3144 181.413 25.7386C181.14 26.1591 180.763 26.5455 180.282 26.8977L177.947 28.6193C177.492 28.9527 177.176 29.2822 176.998 29.608C176.823 29.9299 176.736 30.1818 176.736 30.3636C176.736 30.697 176.822 31.0057 176.992 31.2898C177.166 31.5739 177.409 31.8011 177.719 31.9716C178.034 32.142 178.401 32.2273 178.822 32.2273C179.253 32.2273 179.674 32.1345 180.083 31.9489C180.496 31.7595 180.869 31.4886 181.202 31.1364C181.539 30.7841 181.806 30.3617 182.003 29.8693C182.2 29.3769 182.299 28.8258 182.299 28.2159H183.833C183.833 28.9659 183.748 29.6004 183.577 30.1193C183.407 30.6345 183.2 31.0549 182.958 31.3807C182.719 31.7027 182.494 31.9545 182.282 32.1364C182.214 32.197 182.149 32.2576 182.089 32.3182C182.028 32.3788 181.964 32.4394 181.895 32.5C181.502 32.8977 181.024 33.1913 180.464 33.3807C179.907 33.5701 179.358 33.6648 178.816 33.6648ZM191.338 21.8636V33.5H189.582V21.8636H191.338ZM195.137 28.3182V33.5H193.438V24.7727H195.069V26.1932H195.177C195.378 25.7311 195.692 25.3598 196.12 25.0795C196.552 24.7992 197.095 24.6591 197.751 24.6591C198.345 24.6591 198.866 24.7841 199.313 25.0341C199.76 25.2803 200.107 25.6477 200.353 26.1364C200.599 26.625 200.722 27.2292 200.722 27.9489V33.5H199.024V28.1534C199.024 27.5208 198.859 27.0265 198.529 26.6705C198.2 26.3106 197.747 26.1307 197.171 26.1307C196.777 26.1307 196.427 26.2159 196.12 26.3864C195.817 26.5568 195.577 26.8068 195.399 27.1364C195.224 27.4621 195.137 27.8561 195.137 28.3182ZM209.221 26.9034L207.681 27.1761C207.616 26.9792 207.514 26.7917 207.374 26.6136C207.238 26.4356 207.052 26.2898 206.817 26.1761C206.582 26.0625 206.289 26.0057 205.936 26.0057C205.455 26.0057 205.054 26.1136 204.732 26.3295C204.41 26.5417 204.249 26.8163 204.249 27.1534C204.249 27.4451 204.357 27.6799 204.573 27.858C204.789 28.036 205.137 28.1818 205.618 28.2955L207.005 28.6136C207.808 28.7992 208.406 29.0852 208.8 29.4716C209.194 29.858 209.391 30.3598 209.391 30.9773C209.391 31.5 209.24 31.9659 208.936 32.375C208.637 32.7803 208.219 33.0985 207.681 33.3295C207.147 33.5606 206.527 33.6761 205.823 33.6761C204.846 33.6761 204.048 33.4678 203.431 33.0511C202.813 32.6307 202.435 32.0341 202.294 31.2614L203.936 31.0114C204.039 31.4394 204.249 31.7633 204.567 31.983C204.885 32.1989 205.3 32.3068 205.811 32.3068C206.368 32.3068 206.813 32.1913 207.147 31.9602C207.48 31.7254 207.647 31.4394 207.647 31.1023C207.647 30.8295 207.544 30.6004 207.34 30.4148C207.139 30.2292 206.83 30.089 206.414 29.9943L204.936 29.6705C204.122 29.4848 203.52 29.1894 203.13 28.7841C202.743 28.3788 202.55 27.8655 202.55 27.2443C202.55 26.7292 202.694 26.2784 202.982 25.892C203.27 25.5057 203.668 25.2045 204.175 24.9886C204.683 24.7689 205.264 24.6591 205.919 24.6591C206.863 24.6591 207.605 24.8636 208.147 25.2727C208.688 25.678 209.046 26.2216 209.221 26.9034ZM210.939 33.5V24.7727H212.638V33.5H210.939ZM211.797 23.4261C211.501 23.4261 211.248 23.3277 211.036 23.1307C210.827 22.9299 210.723 22.6913 210.723 22.4148C210.723 22.1345 210.827 21.8958 211.036 21.6989C211.248 21.4981 211.501 21.3977 211.797 21.3977C212.092 21.3977 212.344 21.4981 212.553 21.6989C212.765 21.8958 212.871 22.1345 212.871 22.4148C212.871 22.6913 212.765 22.9299 212.553 23.1307C212.344 23.3277 212.092 23.4261 211.797 23.4261ZM218.262 36.9545C217.569 36.9545 216.973 36.8636 216.473 36.6818C215.976 36.5 215.571 36.2595 215.257 35.9602C214.942 35.661 214.707 35.3333 214.552 34.9773L216.012 34.375C216.115 34.5417 216.251 34.7178 216.421 34.9034C216.596 35.0928 216.831 35.2538 217.126 35.3864C217.425 35.5189 217.81 35.5852 218.279 35.5852C218.923 35.5852 219.456 35.428 219.876 35.1136C220.296 34.803 220.507 34.3068 220.507 33.625V31.9091H220.399C220.296 32.0947 220.149 32.3011 219.956 32.5284C219.766 32.7557 219.505 32.9527 219.171 33.1193C218.838 33.286 218.404 33.3693 217.87 33.3693C217.181 33.3693 216.56 33.2083 216.007 32.8864C215.457 32.5606 215.022 32.0814 214.7 31.4489C214.382 30.8125 214.223 30.0303 214.223 29.1023C214.223 28.1742 214.38 27.3788 214.694 26.7159C215.012 26.053 215.448 25.5455 216.001 25.1932C216.554 24.8371 217.181 24.6591 217.882 24.6591C218.423 24.6591 218.861 24.75 219.194 24.9318C219.528 25.1098 219.787 25.3182 219.973 25.5568C220.162 25.7955 220.308 26.0057 220.41 26.1875H220.535V24.7727H222.2V33.6932C222.2 34.4432 222.026 35.0587 221.677 35.5398C221.329 36.0208 220.857 36.3769 220.262 36.608C219.671 36.839 219.005 36.9545 218.262 36.9545ZM218.245 31.9602C218.734 31.9602 219.147 31.8466 219.484 31.6193C219.825 31.3883 220.082 31.0587 220.257 30.6307C220.435 30.1989 220.524 29.6818 220.524 29.0795C220.524 28.4924 220.437 27.9754 220.262 27.5284C220.088 27.0814 219.832 26.733 219.495 26.483C219.158 26.2292 218.742 26.1023 218.245 26.1023C217.734 26.1023 217.308 26.2348 216.967 26.5C216.626 26.7614 216.368 27.1174 216.194 27.5682C216.024 28.0189 215.939 28.5227 215.939 29.0795C215.939 29.6515 216.026 30.1534 216.2 30.5852C216.374 31.017 216.632 31.3542 216.973 31.5966C217.317 31.839 217.742 31.9602 218.245 31.9602ZM225.857 28.3182V33.5H224.158V21.8636H225.834V26.1932H225.942C226.147 25.7235 226.459 25.3504 226.88 25.0739C227.3 24.7973 227.85 24.6591 228.528 24.6591C229.126 24.6591 229.649 24.7822 230.096 25.0284C230.547 25.2746 230.895 25.642 231.141 26.1307C231.391 26.6155 231.516 27.2216 231.516 27.9489V33.5H229.817V28.1534C229.817 27.5133 229.653 27.017 229.323 26.6648C228.994 26.3087 228.535 26.1307 227.948 26.1307C227.547 26.1307 227.187 26.2159 226.869 26.3864C226.554 26.5568 226.306 26.8068 226.124 27.1364C225.946 27.4621 225.857 27.8561 225.857 28.3182ZM237.537 24.7727V26.1364H232.77V24.7727H237.537ZM234.049 22.6818H235.747V30.9375C235.747 31.267 235.797 31.5152 235.895 31.6818C235.994 31.8447 236.12 31.9564 236.276 32.017C236.435 32.0739 236.607 32.1023 236.793 32.1023C236.929 32.1023 237.049 32.0928 237.151 32.0739C237.253 32.0549 237.333 32.0398 237.389 32.0284L237.696 33.4318C237.598 33.4697 237.458 33.5076 237.276 33.5455C237.094 33.5871 236.867 33.6098 236.594 33.6136C236.147 33.6212 235.73 33.5417 235.344 33.375C234.958 33.2083 234.645 32.9508 234.406 32.6023C234.168 32.2538 234.049 31.8163 234.049 31.2898V22.6818ZM245.496 26.9034L243.956 27.1761C243.891 26.9792 243.789 26.7917 243.649 26.6136C243.513 26.4356 243.327 26.2898 243.092 26.1761C242.857 26.0625 242.564 26.0057 242.211 26.0057C241.73 26.0057 241.329 26.1136 241.007 26.3295C240.685 26.5417 240.524 26.8163 240.524 27.1534C240.524 27.4451 240.632 27.6799 240.848 27.858C241.064 28.036 241.412 28.1818 241.893 28.2955L243.28 28.6136C244.083 28.7992 244.681 29.0852 245.075 29.4716C245.469 29.858 245.666 30.3598 245.666 30.9773C245.666 31.5 245.515 31.9659 245.211 32.375C244.912 32.7803 244.494 33.0985 243.956 33.3295C243.422 33.5606 242.802 33.6761 242.098 33.6761C241.121 33.6761 240.323 33.4678 239.706 33.0511C239.088 32.6307 238.71 32.0341 238.569 31.2614L240.211 31.0114C240.314 31.4394 240.524 31.7633 240.842 31.983C241.16 32.1989 241.575 32.3068 242.086 32.3068C242.643 32.3068 243.088 32.1913 243.422 31.9602C243.755 31.7254 243.922 31.4394 243.922 31.1023C243.922 30.8295 243.819 30.6004 243.615 30.4148C243.414 30.2292 243.105 30.089 242.689 29.9943L241.211 29.6705C240.397 29.4848 239.795 29.1894 239.405 28.7841C239.018 28.3788 238.825 27.8655 238.825 27.2443C238.825 26.7292 238.969 26.2784 239.257 25.892C239.545 25.5057 239.943 25.2045 240.45 24.9886C240.958 24.7689 241.539 24.6591 242.194 24.6591C243.138 24.6591 243.88 24.8636 244.422 25.2727C244.963 25.678 245.321 26.2216 245.496 26.9034Z" fill="black"/>
<mask id="path-4-inside-2_7559_37122" fill="white">
<path d="M412 6C412 2.68629 414.686 0 418 0H590C593.314 0 596 2.68629 596 6V49C596 52.3137 593.314 55 590 55H418C414.686 55 412 52.3137 412 49V6Z"/>
</mask>
<path d="M412 6C412 2.68629 414.686 0 418 0H590C593.314 0 596 2.68629 596 6V49C596 52.3137 593.314 55 590 55H418C414.686 55 412 52.3137 412 49V6Z" fill="white"/>
<path d="M412 0H596H412ZM596 55H412H596ZM418 55C413.029 55 409 50.9706 409 46V9C409 4.02944 413.029 0 418 0C416.343 0 415 2.68629 415 6V49C415 52.3137 416.343 55 418 55ZM596 0V55V0Z" fill="#9D50BB" mask="url(#path-4-inside-2_7559_37122)"/>
<path d="M434.261 33.5H432.398L436.585 21.8636H438.614L442.801 33.5H440.938L437.648 23.9773H437.557L434.261 33.5ZM434.574 28.9432H440.619V30.4205H434.574V28.9432ZM449.554 29.8807V24.7727H451.258V33.5H449.588V31.9886H449.497C449.296 32.4545 448.974 32.8428 448.531 33.1534C448.091 33.4602 447.544 33.6136 446.889 33.6136C446.328 33.6136 445.832 33.4905 445.4 33.2443C444.972 32.9943 444.635 32.625 444.389 32.1364C444.146 31.6477 444.025 31.0436 444.025 30.3239V24.7727H445.724V30.1193C445.724 30.714 445.889 31.1875 446.218 31.5398C446.548 31.892 446.976 32.0682 447.502 32.0682C447.821 32.0682 448.137 31.9886 448.451 31.8295C448.769 31.6705 449.033 31.4299 449.241 31.108C449.453 30.786 449.557 30.3769 449.554 29.8807ZM456.488 33.6705C455.783 33.6705 455.155 33.4905 454.601 33.1307C454.052 32.767 453.62 32.25 453.306 31.5795C452.995 30.9053 452.84 30.0966 452.84 29.1534C452.84 28.2102 452.997 27.4034 453.312 26.733C453.63 26.0625 454.065 25.5492 454.619 25.1932C455.172 24.8371 455.798 24.6591 456.499 24.6591C457.041 24.6591 457.476 24.75 457.806 24.9318C458.139 25.1098 458.397 25.3182 458.579 25.5568C458.764 25.7955 458.908 26.0057 459.011 26.1875H459.113V21.8636H460.812V33.5H459.153V32.142H459.011C458.908 32.3277 458.761 32.5398 458.567 32.7784C458.378 33.017 458.117 33.2254 457.783 33.4034C457.45 33.5814 457.018 33.6705 456.488 33.6705ZM456.863 32.2216C457.351 32.2216 457.764 32.0928 458.101 31.8352C458.442 31.5739 458.7 31.2121 458.874 30.75C459.052 30.2879 459.141 29.75 459.141 29.1364C459.141 28.5303 459.054 28 458.88 27.5455C458.706 27.0909 458.45 26.7367 458.113 26.483C457.776 26.2292 457.359 26.1023 456.863 26.1023C456.351 26.1023 455.925 26.2348 455.584 26.5C455.244 26.7652 454.986 27.1269 454.812 27.5852C454.641 28.0436 454.556 28.5606 454.556 29.1364C454.556 29.7197 454.643 30.2443 454.817 30.7102C454.992 31.1761 455.249 31.5455 455.59 31.8182C455.935 32.0871 456.359 32.2216 456.863 32.2216ZM462.916 33.5V24.7727H464.615V33.5H462.916ZM463.774 23.4261C463.479 23.4261 463.225 23.3277 463.013 23.1307C462.805 22.9299 462.701 22.6913 462.701 22.4148C462.701 22.1345 462.805 21.8958 463.013 21.6989C463.225 21.4981 463.479 21.3977 463.774 21.3977C464.07 21.3977 464.322 21.4981 464.53 21.6989C464.742 21.8958 464.848 22.1345 464.848 22.4148C464.848 22.6913 464.742 22.9299 464.53 23.1307C464.322 23.3277 464.07 23.4261 463.774 23.4261ZM470.342 33.6761C469.482 33.6761 468.742 33.4924 468.121 33.125C467.503 32.7538 467.026 32.233 466.689 31.5625C466.355 30.8883 466.189 30.0985 466.189 29.1932C466.189 28.2992 466.355 27.5114 466.689 26.8295C467.026 26.1477 467.496 25.6155 468.098 25.233C468.704 24.8504 469.412 24.6591 470.223 24.6591C470.715 24.6591 471.193 24.7405 471.655 24.9034C472.117 25.0663 472.532 25.322 472.899 25.6705C473.266 26.0189 473.556 26.4716 473.768 27.0284C473.98 27.5814 474.086 28.2538 474.086 29.0455V29.6477H467.149V28.375H472.422C472.422 27.928 472.331 27.5322 472.149 27.1875C471.967 26.839 471.711 26.5644 471.382 26.3636C471.056 26.1629 470.674 26.0625 470.234 26.0625C469.757 26.0625 469.34 26.1799 468.984 26.4148C468.632 26.6458 468.359 26.9489 468.166 27.3239C467.977 27.6951 467.882 28.0985 467.882 28.5341V29.5284C467.882 30.1117 467.984 30.608 468.189 31.017C468.397 31.4261 468.687 31.7386 469.058 31.9545C469.429 32.1667 469.863 32.2727 470.359 32.2727C470.681 32.2727 470.975 32.2273 471.24 32.1364C471.505 32.0417 471.734 31.9015 471.927 31.7159C472.121 31.5303 472.268 31.3011 472.371 31.0284L473.979 31.3182C473.85 31.7917 473.619 32.2064 473.285 32.5625C472.956 32.9148 472.541 33.1894 472.041 33.3864C471.545 33.5795 470.979 33.6761 470.342 33.6761ZM477.35 28.3182V33.5H475.651V24.7727H477.282V26.1932H477.39C477.591 25.7311 477.905 25.3598 478.333 25.0795C478.765 24.7992 479.309 24.6591 479.964 24.6591C480.559 24.6591 481.079 24.7841 481.526 25.0341C481.973 25.2803 482.32 25.6477 482.566 26.1364C482.812 26.625 482.936 27.2292 482.936 27.9489V33.5H481.237V28.1534C481.237 27.5208 481.072 27.0265 480.742 26.6705C480.413 26.3106 479.96 26.1307 479.384 26.1307C478.99 26.1307 478.64 26.2159 478.333 26.3864C478.03 26.5568 477.79 26.8068 477.612 27.1364C477.437 27.4621 477.35 27.8561 477.35 28.3182ZM488.57 33.6761C487.725 33.6761 486.998 33.4848 486.388 33.1023C485.782 32.7159 485.316 32.1837 484.991 31.5057C484.665 30.8277 484.502 30.0511 484.502 29.1761C484.502 28.2898 484.669 27.5076 485.002 26.8295C485.335 26.1477 485.805 25.6155 486.411 25.233C487.017 24.8504 487.731 24.6591 488.553 24.6591C489.216 24.6591 489.807 24.7822 490.326 25.0284C490.845 25.2708 491.263 25.6117 491.581 26.0511C491.903 26.4905 492.095 27.0038 492.155 27.5909H490.502C490.411 27.1818 490.203 26.8295 489.877 26.5341C489.555 26.2386 489.123 26.0909 488.581 26.0909C488.108 26.0909 487.693 26.2159 487.337 26.4659C486.985 26.7121 486.71 27.0644 486.513 27.5227C486.316 27.9773 486.218 28.5152 486.218 29.1364C486.218 29.7727 486.314 30.322 486.508 30.7841C486.701 31.2462 486.973 31.6042 487.326 31.858C487.682 32.1117 488.1 32.2386 488.581 32.2386C488.903 32.2386 489.195 32.1799 489.456 32.0625C489.722 31.9413 489.943 31.7689 490.121 31.5455C490.303 31.322 490.43 31.053 490.502 30.7386H492.155C492.095 31.303 491.911 31.8068 491.604 32.25C491.297 32.6932 490.886 33.0417 490.371 33.2955C489.86 33.5492 489.259 33.6761 488.57 33.6761ZM497.413 33.6761C496.554 33.6761 495.813 33.4924 495.192 33.125C494.574 32.7538 494.097 32.233 493.76 31.5625C493.427 30.8883 493.26 30.0985 493.26 29.1932C493.26 28.2992 493.427 27.5114 493.76 26.8295C494.097 26.1477 494.567 25.6155 495.169 25.233C495.775 24.8504 496.483 24.6591 497.294 24.6591C497.787 24.6591 498.264 24.7405 498.726 24.9034C499.188 25.0663 499.603 25.322 499.97 25.6705C500.338 26.0189 500.627 26.4716 500.84 27.0284C501.052 27.5814 501.158 28.2538 501.158 29.0455V29.6477H494.22V28.375H499.493C499.493 27.928 499.402 27.5322 499.22 27.1875C499.038 26.839 498.783 26.5644 498.453 26.3636C498.127 26.1629 497.745 26.0625 497.305 26.0625C496.828 26.0625 496.412 26.1799 496.055 26.4148C495.703 26.6458 495.43 26.9489 495.237 27.3239C495.048 27.6951 494.953 28.0985 494.953 28.5341V29.5284C494.953 30.1117 495.055 30.608 495.26 31.017C495.468 31.4261 495.758 31.7386 496.129 31.9545C496.501 32.1667 496.934 32.2727 497.43 32.2727C497.752 32.2727 498.046 32.2273 498.311 32.1364C498.576 32.0417 498.805 31.9015 498.999 31.7159C499.192 31.5303 499.34 31.3011 499.442 31.0284L501.05 31.3182C500.921 31.7917 500.69 32.2064 500.357 32.5625C500.027 32.9148 499.612 33.1894 499.112 33.3864C498.616 33.5795 498.05 33.6761 497.413 33.6761ZM506.2 23.375V21.8636H515.205V23.375H511.575V33.5H509.825V23.375H506.2ZM518.091 33.6932C517.538 33.6932 517.038 33.5909 516.591 33.3864C516.144 33.178 515.79 32.8769 515.529 32.483C515.271 32.089 515.142 31.6061 515.142 31.0341C515.142 30.5417 515.237 30.1364 515.426 29.8182C515.616 29.5 515.871 29.2481 516.193 29.0625C516.515 28.8769 516.875 28.7367 517.273 28.642C517.671 28.5473 518.076 28.4754 518.489 28.4261C519.012 28.3655 519.436 28.3163 519.762 28.2784C520.087 28.2367 520.324 28.1705 520.472 28.0795C520.62 27.9886 520.693 27.8409 520.693 27.6364V27.5966C520.693 27.1004 520.553 26.7159 520.273 26.4432C519.996 26.1705 519.584 26.0341 519.034 26.0341C518.462 26.0341 518.012 26.161 517.682 26.4148C517.356 26.6648 517.131 26.9432 517.006 27.25L515.409 26.8864C515.599 26.3561 515.875 25.928 516.239 25.6023C516.606 25.2727 517.029 25.0341 517.506 24.8864C517.983 24.7348 518.485 24.6591 519.012 24.6591C519.36 24.6591 519.729 24.7008 520.12 24.7841C520.514 24.8636 520.881 25.0114 521.222 25.2273C521.567 25.4432 521.849 25.7519 522.068 26.1534C522.288 26.5511 522.398 27.0682 522.398 27.7045V33.5H520.739V32.3068H520.671C520.561 32.5265 520.396 32.7424 520.176 32.9545C519.957 33.1667 519.675 33.3428 519.33 33.483C518.985 33.6231 518.572 33.6932 518.091 33.6932ZM518.461 32.3295C518.93 32.3295 519.332 32.2367 519.665 32.0511C520.002 31.8655 520.258 31.6231 520.432 31.3239C520.61 31.0208 520.699 30.697 520.699 30.3523V29.2273C520.639 29.2879 520.521 29.3447 520.347 29.3977C520.176 29.447 519.981 29.4905 519.762 29.5284C519.542 29.5625 519.328 29.5947 519.12 29.625C518.911 29.6515 518.737 29.6742 518.597 29.6932C518.267 29.7348 517.966 29.8049 517.693 29.9034C517.425 30.0019 517.209 30.1439 517.046 30.3295C516.887 30.5114 516.807 30.7538 516.807 31.0568C516.807 31.4773 516.962 31.7955 517.273 32.0114C517.584 32.2235 517.979 32.3295 518.461 32.3295ZM524.341 33.5V24.7727H525.983V26.1591H526.074C526.233 25.6894 526.513 25.3201 526.915 25.0511C527.32 24.7784 527.778 24.642 528.29 24.642C528.396 24.642 528.521 24.6458 528.665 24.6534C528.812 24.661 528.928 24.6705 529.011 24.6818V26.3068C528.943 26.2879 528.822 26.267 528.648 26.2443C528.473 26.2178 528.299 26.2045 528.125 26.2045C527.723 26.2045 527.365 26.2898 527.051 26.4602C526.74 26.6269 526.494 26.8598 526.312 27.1591C526.131 27.4545 526.04 27.7917 526.04 28.1705V33.5H524.341ZM533.508 36.9545C532.815 36.9545 532.218 36.8636 531.718 36.6818C531.222 36.5 530.817 36.2595 530.502 35.9602C530.188 35.661 529.953 35.3333 529.798 34.9773L531.258 34.375C531.36 34.5417 531.497 34.7178 531.667 34.9034C531.841 35.0928 532.076 35.2538 532.372 35.3864C532.671 35.5189 533.055 35.5852 533.525 35.5852C534.169 35.5852 534.701 35.428 535.122 35.1136C535.542 34.803 535.752 34.3068 535.752 33.625V31.9091H535.644C535.542 32.0947 535.394 32.3011 535.201 32.5284C535.012 32.7557 534.75 32.9527 534.417 33.1193C534.084 33.286 533.65 33.3693 533.116 33.3693C532.427 33.3693 531.805 33.2083 531.252 32.8864C530.703 32.5606 530.267 32.0814 529.946 31.4489C529.627 30.8125 529.468 30.0303 529.468 29.1023C529.468 28.1742 529.625 27.3788 529.94 26.7159C530.258 26.053 530.694 25.5455 531.247 25.1932C531.8 24.8371 532.427 24.6591 533.127 24.6591C533.669 24.6591 534.106 24.75 534.44 24.9318C534.773 25.1098 535.033 25.3182 535.218 25.5568C535.408 25.7955 535.553 26.0057 535.656 26.1875H535.781V24.7727H537.446V33.6932C537.446 34.4432 537.271 35.0587 536.923 35.5398C536.574 36.0208 536.103 36.3769 535.508 36.608C534.917 36.839 534.25 36.9545 533.508 36.9545ZM533.491 31.9602C533.98 31.9602 534.392 31.8466 534.73 31.6193C535.071 31.3883 535.328 31.0587 535.502 30.6307C535.68 30.1989 535.769 29.6818 535.769 29.0795C535.769 28.4924 535.682 27.9754 535.508 27.5284C535.334 27.0814 535.078 26.733 534.741 26.483C534.404 26.2292 533.987 26.1023 533.491 26.1023C532.98 26.1023 532.553 26.2348 532.213 26.5C531.872 26.7614 531.614 27.1174 531.44 27.5682C531.269 28.0189 531.184 28.5227 531.184 29.0795C531.184 29.6515 531.271 30.1534 531.446 30.5852C531.62 31.017 531.877 31.3542 532.218 31.5966C532.563 31.839 532.987 31.9602 533.491 31.9602ZM543.165 33.6761C542.305 33.6761 541.565 33.4924 540.944 33.125C540.326 32.7538 539.849 32.233 539.512 31.5625C539.179 30.8883 539.012 30.0985 539.012 29.1932C539.012 28.2992 539.179 27.5114 539.512 26.8295C539.849 26.1477 540.319 25.6155 540.921 25.233C541.527 24.8504 542.235 24.6591 543.046 24.6591C543.538 24.6591 544.016 24.7405 544.478 24.9034C544.94 25.0663 545.355 25.322 545.722 25.6705C546.09 26.0189 546.379 26.4716 546.591 27.0284C546.804 27.5814 546.91 28.2538 546.91 29.0455V29.6477H539.972V28.375H545.245C545.245 27.928 545.154 27.5322 544.972 27.1875C544.79 26.839 544.535 26.5644 544.205 26.3636C543.879 26.1629 543.497 26.0625 543.057 26.0625C542.58 26.0625 542.163 26.1799 541.807 26.4148C541.455 26.6458 541.182 26.9489 540.989 27.3239C540.8 27.6951 540.705 28.0985 540.705 28.5341V29.5284C540.705 30.1117 540.807 30.608 541.012 31.017C541.22 31.4261 541.51 31.7386 541.881 31.9545C542.252 32.1667 542.686 32.2727 543.182 32.2727C543.504 32.2727 543.798 32.2273 544.063 32.1364C544.328 32.0417 544.557 31.9015 544.751 31.7159C544.944 31.5303 545.091 31.3011 545.194 31.0284L546.802 31.3182C546.673 31.7917 546.442 32.2064 546.108 32.5625C545.779 32.9148 545.364 33.1894 544.864 33.3864C544.368 33.5795 543.802 33.6761 543.165 33.6761ZM552.548 24.7727V26.1364H547.781V24.7727H552.548ZM549.06 22.6818H550.759V30.9375C550.759 31.267 550.808 31.5152 550.906 31.6818C551.005 31.8447 551.132 31.9564 551.287 32.017C551.446 32.0739 551.618 32.1023 551.804 32.1023C551.94 32.1023 552.06 32.0928 552.162 32.0739C552.264 32.0549 552.344 32.0398 552.401 32.0284L552.707 33.4318C552.609 33.4697 552.469 33.5076 552.287 33.5455C552.105 33.5871 551.878 33.6098 551.605 33.6136C551.158 33.6212 550.742 33.5417 550.355 33.375C549.969 33.2083 549.656 32.9508 549.418 32.6023C549.179 32.2538 549.06 31.8163 549.06 31.2898V22.6818ZM554.108 33.5V24.7727H555.807V33.5H554.108ZM554.966 23.4261C554.67 23.4261 554.416 23.3277 554.204 23.1307C553.996 22.9299 553.892 22.6913 553.892 22.4148C553.892 22.1345 553.996 21.8958 554.204 21.6989C554.416 21.4981 554.67 21.3977 554.966 21.3977C555.261 21.3977 555.513 21.4981 555.721 21.6989C555.933 21.8958 556.039 22.1345 556.039 22.4148C556.039 22.6913 555.933 22.9299 555.721 23.1307C555.513 23.3277 555.261 23.4261 554.966 23.4261ZM559.471 28.3182V33.5H557.772V24.7727H559.403V26.1932H559.511C559.711 25.7311 560.026 25.3598 560.454 25.0795C560.886 24.7992 561.429 24.6591 562.085 24.6591C562.679 24.6591 563.2 24.7841 563.647 25.0341C564.094 25.2803 564.441 25.6477 564.687 26.1364C564.933 26.625 565.056 27.2292 565.056 27.9489V33.5H563.357V28.1534C563.357 27.5208 563.192 27.0265 562.863 26.6705C562.533 26.3106 562.081 26.1307 561.505 26.1307C561.111 26.1307 560.761 26.2159 560.454 26.3864C560.151 26.5568 559.91 26.8068 559.732 27.1364C559.558 27.4621 559.471 27.8561 559.471 28.3182ZM570.674 36.9545C569.98 36.9545 569.384 36.8636 568.884 36.6818C568.388 36.5 567.982 36.2595 567.668 35.9602C567.354 35.661 567.119 35.3333 566.963 34.9773L568.424 34.375C568.526 34.5417 568.662 34.7178 568.833 34.9034C569.007 35.0928 569.242 35.2538 569.537 35.3864C569.837 35.5189 570.221 35.5852 570.691 35.5852C571.335 35.5852 571.867 35.428 572.287 35.1136C572.708 34.803 572.918 34.3068 572.918 33.625V31.9091H572.81C572.708 32.0947 572.56 32.3011 572.367 32.5284C572.177 32.7557 571.916 32.9527 571.583 33.1193C571.249 33.286 570.816 33.3693 570.282 33.3693C569.592 33.3693 568.971 33.2083 568.418 32.8864C567.869 32.5606 567.433 32.0814 567.111 31.4489C566.793 30.8125 566.634 30.0303 566.634 29.1023C566.634 28.1742 566.791 27.3788 567.105 26.7159C567.424 26.053 567.859 25.5455 568.412 25.1932C568.965 24.8371 569.592 24.6591 570.293 24.6591C570.835 24.6591 571.272 24.75 571.605 24.9318C571.939 25.1098 572.198 25.3182 572.384 25.5568C572.573 25.7955 572.719 26.0057 572.821 26.1875H572.946V24.7727H574.611V33.6932C574.611 34.4432 574.437 35.0587 574.088 35.5398C573.74 36.0208 573.268 36.3769 572.674 36.608C572.083 36.839 571.416 36.9545 570.674 36.9545ZM570.657 31.9602C571.145 31.9602 571.558 31.8466 571.895 31.6193C572.236 31.3883 572.494 31.0587 572.668 30.6307C572.846 30.1989 572.935 29.6818 572.935 29.0795C572.935 28.4924 572.848 27.9754 572.674 27.5284C572.499 27.0814 572.244 26.733 571.907 26.483C571.569 26.2292 571.153 26.1023 570.657 26.1023C570.145 26.1023 569.719 26.2348 569.378 26.5C569.037 26.7614 568.78 27.1174 568.605 27.5682C568.435 28.0189 568.35 28.5227 568.35 29.0795C568.35 29.6515 568.437 30.1534 568.611 30.5852C568.785 31.017 569.043 31.3542 569.384 31.5966C569.729 31.839 570.153 31.9602 570.657 31.9602Z" fill="black"/>
<mask id="path-7-inside-3_7559_37122" fill="white">
<path d="M741 6C741 2.68629 743.686 0 747 0H1016C1019.31 0 1022 2.68629 1022 6V49C1022 52.3137 1019.31 55 1016 55H747C743.686 55 741 52.3137 741 49V6Z"/>
</mask>
<path d="M741 6C741 2.68629 743.686 0 747 0H1016C1019.31 0 1022 2.68629 1022 6V49C1022 52.3137 1019.31 55 1016 55H747C743.686 55 741 52.3137 741 49V6Z" fill="white"/>
<path d="M741 0H1022H741ZM1022 55H741H1022ZM747 55C742.029 55 738 50.9706 738 46V9C738 4.02944 742.029 0 747 0C745.343 0 744 2.68629 744 6V49C744 52.3137 745.343 55 747 55ZM1022 0V55V0Z" fill="#9D50BB" mask="url(#path-7-inside-3_7559_37122)"/>
<path d="M762.278 33.5V21.8636H766.426C767.331 21.8636 768.081 22.0284 768.676 22.358C769.271 22.6875 769.716 23.1383 770.011 23.7102C770.307 24.2784 770.455 24.9186 770.455 25.6307C770.455 26.3466 770.305 26.9905 770.006 27.5625C769.71 28.1307 769.263 28.5814 768.665 28.9148C768.07 29.2443 767.322 29.4091 766.42 29.4091H763.568V27.9205H766.261C766.833 27.9205 767.297 27.822 767.653 27.625C768.009 27.4242 768.271 27.1515 768.438 26.8068C768.604 26.4621 768.688 26.0701 768.688 25.6307C768.688 25.1913 768.604 24.8011 768.438 24.4602C768.271 24.1193 768.008 23.8523 767.648 23.6591C767.292 23.4659 766.822 23.3693 766.239 23.3693H764.034V33.5H762.278ZM777.585 29.8807V24.7727H779.289V33.5H777.619V31.9886H777.528C777.327 32.4545 777.005 32.8428 776.562 33.1534C776.123 33.4602 775.575 33.6136 774.92 33.6136C774.359 33.6136 773.863 33.4905 773.431 33.2443C773.003 32.9943 772.666 32.625 772.42 32.1364C772.178 31.6477 772.056 31.0436 772.056 30.3239V24.7727H773.755V30.1193C773.755 30.714 773.92 31.1875 774.25 31.5398C774.579 31.892 775.007 32.0682 775.534 32.0682C775.852 32.0682 776.168 31.9886 776.483 31.8295C776.801 31.6705 777.064 31.4299 777.272 31.108C777.484 30.786 777.589 30.3769 777.585 29.8807ZM781.252 33.5V24.7727H782.894V26.1591H782.985C783.144 25.6894 783.424 25.3201 783.826 25.0511C784.231 24.7784 784.69 24.642 785.201 24.642C785.307 24.642 785.432 24.6458 785.576 24.6534C785.724 24.661 785.839 24.6705 785.923 24.6818V26.3068C785.854 26.2879 785.733 26.267 785.559 26.2443C785.385 26.2178 785.21 26.2045 785.036 26.2045C784.635 26.2045 784.277 26.2898 783.962 26.4602C783.652 26.6269 783.405 26.8598 783.224 27.1591C783.042 27.4545 782.951 27.7917 782.951 28.1705V33.5H781.252ZM790.436 33.6761C789.592 33.6761 788.864 33.4848 788.254 33.1023C787.648 32.7159 787.183 32.1837 786.857 31.5057C786.531 30.8277 786.368 30.0511 786.368 29.1761C786.368 28.2898 786.535 27.5076 786.868 26.8295C787.201 26.1477 787.671 25.6155 788.277 25.233C788.883 24.8504 789.597 24.6591 790.419 24.6591C791.082 24.6591 791.673 24.7822 792.192 25.0284C792.711 25.2708 793.129 25.6117 793.448 26.0511C793.77 26.4905 793.961 27.0038 794.022 27.5909H792.368C792.277 27.1818 792.069 26.8295 791.743 26.5341C791.421 26.2386 790.989 26.0909 790.448 26.0909C789.974 26.0909 789.559 26.2159 789.203 26.4659C788.851 26.7121 788.576 27.0644 788.379 27.5227C788.183 27.9773 788.084 28.5152 788.084 29.1364C788.084 29.7727 788.181 30.322 788.374 30.7841C788.567 31.2462 788.84 31.6042 789.192 31.858C789.548 32.1117 789.967 32.2386 790.448 32.2386C790.77 32.2386 791.061 32.1799 791.323 32.0625C791.588 31.9413 791.809 31.7689 791.987 31.5455C792.169 31.322 792.296 31.053 792.368 30.7386H794.022C793.961 31.303 793.777 31.8068 793.47 32.25C793.164 32.6932 792.753 33.0417 792.237 33.2955C791.726 33.5492 791.126 33.6761 790.436 33.6761ZM797.217 28.3182V33.5H795.518V21.8636H797.194V26.1932H797.302C797.507 25.7235 797.819 25.3504 798.24 25.0739C798.66 24.7973 799.21 24.6591 799.888 24.6591C800.486 24.6591 801.009 24.7822 801.456 25.0284C801.907 25.2746 802.255 25.642 802.501 26.1307C802.751 26.6155 802.876 27.2216 802.876 27.9489V33.5H801.177V28.1534C801.177 27.5133 801.013 27.017 800.683 26.6648C800.354 26.3087 799.895 26.1307 799.308 26.1307C798.907 26.1307 798.547 26.2159 798.229 26.3864C797.914 26.5568 797.666 26.8068 797.484 27.1364C797.306 27.4621 797.217 27.8561 797.217 28.3182ZM807.363 33.6932C806.81 33.6932 806.31 33.5909 805.863 33.3864C805.416 33.178 805.062 32.8769 804.801 32.483C804.543 32.089 804.414 31.6061 804.414 31.0341C804.414 30.5417 804.509 30.1364 804.698 29.8182C804.888 29.5 805.143 29.2481 805.465 29.0625C805.787 28.8769 806.147 28.7367 806.545 28.642C806.943 28.5473 807.348 28.4754 807.761 28.4261C808.284 28.3655 808.708 28.3163 809.034 28.2784C809.359 28.2367 809.596 28.1705 809.744 28.0795C809.891 27.9886 809.965 27.8409 809.965 27.6364V27.5966C809.965 27.1004 809.825 26.7159 809.545 26.4432C809.268 26.1705 808.855 26.0341 808.306 26.0341C807.734 26.0341 807.284 26.161 806.954 26.4148C806.628 26.6648 806.403 26.9432 806.278 27.25L804.681 26.8864C804.871 26.3561 805.147 25.928 805.511 25.6023C805.878 25.2727 806.301 25.0341 806.778 24.8864C807.255 24.7348 807.757 24.6591 808.284 24.6591C808.632 24.6591 809.001 24.7008 809.391 24.7841C809.785 24.8636 810.153 25.0114 810.494 25.2273C810.838 25.4432 811.121 25.7519 811.34 26.1534C811.56 26.5511 811.67 27.0682 811.67 27.7045V33.5H810.011V32.3068H809.943C809.833 32.5265 809.668 32.7424 809.448 32.9545C809.229 33.1667 808.946 33.3428 808.602 33.483C808.257 33.6231 807.844 33.6932 807.363 33.6932ZM807.732 32.3295C808.202 32.3295 808.604 32.2367 808.937 32.0511C809.274 31.8655 809.53 31.6231 809.704 31.3239C809.882 31.0208 809.971 30.697 809.971 30.3523V29.2273C809.91 29.2879 809.793 29.3447 809.619 29.3977C809.448 29.447 809.253 29.4905 809.034 29.5284C808.814 29.5625 808.6 29.5947 808.391 29.625C808.183 29.6515 808.009 29.6742 807.869 29.6932C807.539 29.7348 807.238 29.8049 806.965 29.9034C806.696 30.0019 806.48 30.1439 806.318 30.3295C806.159 30.5114 806.079 30.7538 806.079 31.0568C806.079 31.4773 806.234 31.7955 806.545 32.0114C806.855 32.2235 807.251 32.3295 807.732 32.3295ZM820.152 26.9034L818.613 27.1761C818.548 26.9792 818.446 26.7917 818.306 26.6136C818.169 26.4356 817.984 26.2898 817.749 26.1761C817.514 26.0625 817.221 26.0057 816.868 26.0057C816.387 26.0057 815.986 26.1136 815.664 26.3295C815.342 26.5417 815.181 26.8163 815.181 27.1534C815.181 27.4451 815.289 27.6799 815.505 27.858C815.721 28.036 816.069 28.1818 816.55 28.2955L817.937 28.6136C818.74 28.7992 819.338 29.0852 819.732 29.4716C820.126 29.858 820.323 30.3598 820.323 30.9773C820.323 31.5 820.171 31.9659 819.868 32.375C819.569 32.7803 819.151 33.0985 818.613 33.3295C818.079 33.5606 817.459 33.6761 816.755 33.6761C815.777 33.6761 814.98 33.4678 814.363 33.0511C813.745 32.6307 813.366 32.0341 813.226 31.2614L814.868 31.0114C814.971 31.4394 815.181 31.7633 815.499 31.983C815.817 32.1989 816.232 32.3068 816.743 32.3068C817.3 32.3068 817.745 32.1913 818.079 31.9602C818.412 31.7254 818.579 31.4394 818.579 31.1023C818.579 30.8295 818.476 30.6004 818.272 30.4148C818.071 30.2292 817.762 30.089 817.346 29.9943L815.868 29.6705C815.054 29.4848 814.452 29.1894 814.062 28.7841C813.675 28.3788 813.482 27.8655 813.482 27.2443C813.482 26.7292 813.626 26.2784 813.914 25.892C814.202 25.5057 814.599 25.2045 815.107 24.9886C815.615 24.7689 816.196 24.6591 816.851 24.6591C817.794 24.6591 818.537 24.8636 819.079 25.2727C819.62 25.678 819.978 26.2216 820.152 26.9034ZM825.632 33.6761C824.772 33.6761 824.032 33.4924 823.411 33.125C822.793 32.7538 822.316 32.233 821.979 31.5625C821.645 30.8883 821.479 30.0985 821.479 29.1932C821.479 28.2992 821.645 27.5114 821.979 26.8295C822.316 26.1477 822.786 25.6155 823.388 25.233C823.994 24.8504 824.702 24.6591 825.513 24.6591C826.005 24.6591 826.483 24.7405 826.945 24.9034C827.407 25.0663 827.822 25.322 828.189 25.6705C828.556 26.0189 828.846 26.4716 829.058 27.0284C829.27 27.5814 829.376 28.2538 829.376 29.0455V29.6477H822.439V28.375H827.712C827.712 27.928 827.621 27.5322 827.439 27.1875C827.257 26.839 827.001 26.5644 826.672 26.3636C826.346 26.1629 825.964 26.0625 825.524 26.0625C825.047 26.0625 824.63 26.1799 824.274 26.4148C823.922 26.6458 823.649 26.9489 823.456 27.3239C823.267 27.6951 823.172 28.0985 823.172 28.5341V29.5284C823.172 30.1117 823.274 30.608 823.479 31.017C823.687 31.4261 823.977 31.7386 824.348 31.9545C824.719 32.1667 825.153 32.2727 825.649 32.2727C825.971 32.2727 826.265 32.2273 826.53 32.1364C826.795 32.0417 827.024 31.9015 827.217 31.7159C827.411 31.5303 827.558 31.3011 827.661 31.0284L829.269 31.3182C829.14 31.7917 828.909 32.2064 828.575 32.5625C828.246 32.9148 827.831 33.1894 827.331 33.3864C826.835 33.5795 826.269 33.6761 825.632 33.6761ZM834.418 23.375V21.8636H843.424V23.375H839.793V33.5H838.043V23.375H834.418ZM846.31 33.6932C845.757 33.6932 845.257 33.5909 844.81 33.3864C844.363 33.178 844.009 32.8769 843.747 32.483C843.49 32.089 843.361 31.6061 843.361 31.0341C843.361 30.5417 843.456 30.1364 843.645 29.8182C843.835 29.5 844.09 29.2481 844.412 29.0625C844.734 28.8769 845.094 28.7367 845.492 28.642C845.889 28.5473 846.295 28.4754 846.708 28.4261C847.23 28.3655 847.655 28.3163 847.98 28.2784C848.306 28.2367 848.543 28.1705 848.691 28.0795C848.838 27.9886 848.912 27.8409 848.912 27.6364V27.5966C848.912 27.1004 848.772 26.7159 848.492 26.4432C848.215 26.1705 847.802 26.0341 847.253 26.0341C846.681 26.0341 846.23 26.161 845.901 26.4148C845.575 26.6648 845.35 26.9432 845.225 27.25L843.628 26.8864C843.818 26.3561 844.094 25.928 844.458 25.6023C844.825 25.2727 845.247 25.0341 845.725 24.8864C846.202 24.7348 846.704 24.6591 847.23 24.6591C847.579 24.6591 847.948 24.7008 848.338 24.7841C848.732 24.8636 849.1 25.0114 849.441 25.2273C849.785 25.4432 850.068 25.7519 850.287 26.1534C850.507 26.5511 850.617 27.0682 850.617 27.7045V33.5H848.958V32.3068H848.889C848.78 32.5265 848.615 32.7424 848.395 32.9545C848.175 33.1667 847.893 33.3428 847.549 33.483C847.204 33.6231 846.791 33.6932 846.31 33.6932ZM846.679 32.3295C847.149 32.3295 847.55 32.2367 847.884 32.0511C848.221 31.8655 848.477 31.6231 848.651 31.3239C848.829 31.0208 848.918 30.697 848.918 30.3523V29.2273C848.857 29.2879 848.74 29.3447 848.566 29.3977C848.395 29.447 848.2 29.4905 847.98 29.5284C847.761 29.5625 847.547 29.5947 847.338 29.625C847.13 29.6515 846.956 29.6742 846.816 29.6932C846.486 29.7348 846.185 29.8049 845.912 29.9034C845.643 30.0019 845.427 30.1439 845.264 30.3295C845.105 30.5114 845.026 30.7538 845.026 31.0568C845.026 31.4773 845.181 31.7955 845.492 32.0114C845.802 32.2235 846.198 32.3295 846.679 32.3295ZM852.56 33.5V24.7727H854.202V26.1591H854.293C854.452 25.6894 854.732 25.3201 855.133 25.0511C855.539 24.7784 855.997 24.642 856.508 24.642C856.614 24.642 856.739 24.6458 856.883 24.6534C857.031 24.661 857.147 24.6705 857.23 24.6818V26.3068C857.162 26.2879 857.041 26.267 856.866 26.2443C856.692 26.2178 856.518 26.2045 856.344 26.2045C855.942 26.2045 855.584 26.2898 855.27 26.4602C854.959 26.6269 854.713 26.8598 854.531 27.1591C854.349 27.4545 854.258 27.7917 854.258 28.1705V33.5H852.56ZM861.727 36.9545C861.034 36.9545 860.437 36.8636 859.937 36.6818C859.441 36.5 859.035 36.2595 858.721 35.9602C858.407 35.661 858.172 35.3333 858.017 34.9773L859.477 34.375C859.579 34.5417 859.715 34.7178 859.886 34.9034C860.06 35.0928 860.295 35.2538 860.59 35.3864C860.89 35.5189 861.274 35.5852 861.744 35.5852C862.388 35.5852 862.92 35.428 863.34 35.1136C863.761 34.803 863.971 34.3068 863.971 33.625V31.9091H863.863C863.761 32.0947 863.613 32.3011 863.42 32.5284C863.231 32.7557 862.969 32.9527 862.636 33.1193C862.303 33.286 861.869 33.3693 861.335 33.3693C860.645 33.3693 860.024 33.2083 859.471 32.8864C858.922 32.5606 858.486 32.0814 858.164 31.4489C857.846 30.8125 857.687 30.0303 857.687 29.1023C857.687 28.1742 857.844 27.3788 858.159 26.7159C858.477 26.053 858.912 25.5455 859.465 25.1932C860.018 24.8371 860.645 24.6591 861.346 24.6591C861.888 24.6591 862.325 24.75 862.659 24.9318C862.992 25.1098 863.251 25.3182 863.437 25.5568C863.626 25.7955 863.772 26.0057 863.874 26.1875H863.999V24.7727H865.664V33.6932C865.664 34.4432 865.49 35.0587 865.142 35.5398C864.793 36.0208 864.321 36.3769 863.727 36.608C863.136 36.839 862.469 36.9545 861.727 36.9545ZM861.71 31.9602C862.198 31.9602 862.611 31.8466 862.948 31.6193C863.289 31.3883 863.547 31.0587 863.721 30.6307C863.899 30.1989 863.988 29.6818 863.988 29.0795C863.988 28.4924 863.901 27.9754 863.727 27.5284C863.553 27.0814 863.297 26.733 862.96 26.483C862.623 26.2292 862.206 26.1023 861.71 26.1023C861.198 26.1023 860.772 26.2348 860.431 26.5C860.09 26.7614 859.833 27.1174 859.659 27.5682C859.488 28.0189 859.403 28.5227 859.403 29.0795C859.403 29.6515 859.49 30.1534 859.664 30.5852C859.839 31.017 860.096 31.3542 860.437 31.5966C860.782 31.839 861.206 31.9602 861.71 31.9602ZM871.384 33.6761C870.524 33.6761 869.784 33.4924 869.162 33.125C868.545 32.7538 868.068 32.233 867.731 31.5625C867.397 30.8883 867.231 30.0985 867.231 29.1932C867.231 28.2992 867.397 27.5114 867.731 26.8295C868.068 26.1477 868.537 25.6155 869.14 25.233C869.746 24.8504 870.454 24.6591 871.265 24.6591C871.757 24.6591 872.234 24.7405 872.697 24.9034C873.159 25.0663 873.573 25.322 873.941 25.6705C874.308 26.0189 874.598 26.4716 874.81 27.0284C875.022 27.5814 875.128 28.2538 875.128 29.0455V29.6477H868.191V28.375H873.464C873.464 27.928 873.373 27.5322 873.191 27.1875C873.009 26.839 872.753 26.5644 872.424 26.3636C872.098 26.1629 871.715 26.0625 871.276 26.0625C870.799 26.0625 870.382 26.1799 870.026 26.4148C869.674 26.6458 869.401 26.9489 869.208 27.3239C869.019 27.6951 868.924 28.0985 868.924 28.5341V29.5284C868.924 30.1117 869.026 30.608 869.231 31.017C869.439 31.4261 869.729 31.7386 870.1 31.9545C870.471 32.1667 870.905 32.2727 871.401 32.2727C871.723 32.2727 872.017 32.2273 872.282 32.1364C872.547 32.0417 872.776 31.9015 872.969 31.7159C873.162 31.5303 873.31 31.3011 873.412 31.0284L875.02 31.3182C874.892 31.7917 874.661 32.2064 874.327 32.5625C873.998 32.9148 873.583 33.1894 873.083 33.3864C872.587 33.5795 872.02 33.6761 871.384 33.6761ZM880.767 24.7727V26.1364H876V24.7727H880.767ZM877.279 22.6818H878.977V30.9375C878.977 31.267 879.027 31.5152 879.125 31.6818C879.224 31.8447 879.35 31.9564 879.506 32.017C879.665 32.0739 879.837 32.1023 880.023 32.1023C880.159 32.1023 880.279 32.0928 880.381 32.0739C880.483 32.0549 880.563 32.0398 880.619 32.0284L880.926 33.4318C880.828 33.4697 880.688 33.5076 880.506 33.5455C880.324 33.5871 880.097 33.6098 879.824 33.6136C879.377 33.6212 878.96 33.5417 878.574 33.375C878.188 33.2083 877.875 32.9508 877.636 32.6023C877.398 32.2538 877.279 31.8163 877.279 31.2898V22.6818ZM885.994 33.6761C885.134 33.6761 884.394 33.4924 883.772 33.125C883.155 32.7538 882.678 32.233 882.341 31.5625C882.007 30.8883 881.841 30.0985 881.841 29.1932C881.841 28.2992 882.007 27.5114 882.341 26.8295C882.678 26.1477 883.147 25.6155 883.75 25.233C884.356 24.8504 885.064 24.6591 885.875 24.6591C886.367 24.6591 886.844 24.7405 887.307 24.9034C887.769 25.0663 888.183 25.322 888.551 25.6705C888.918 26.0189 889.208 26.4716 889.42 27.0284C889.632 27.5814 889.738 28.2538 889.738 29.0455V29.6477H882.801V28.375H888.074C888.074 27.928 887.983 27.5322 887.801 27.1875C887.619 26.839 887.363 26.5644 887.034 26.3636C886.708 26.1629 886.325 26.0625 885.886 26.0625C885.409 26.0625 884.992 26.1799 884.636 26.4148C884.284 26.6458 884.011 26.9489 883.818 27.3239C883.629 27.6951 883.534 28.0985 883.534 28.5341V29.5284C883.534 30.1117 883.636 30.608 883.841 31.017C884.049 31.4261 884.339 31.7386 884.71 31.9545C885.081 32.1667 885.515 32.2727 886.011 32.2727C886.333 32.2727 886.627 32.2273 886.892 32.1364C887.157 32.0417 887.386 31.9015 887.579 31.7159C887.772 31.5303 887.92 31.3011 888.022 31.0284L889.63 31.3182C889.502 31.7917 889.271 32.2064 888.937 32.5625C888.608 32.9148 888.193 33.1894 887.693 33.3864C887.197 33.5795 886.63 33.6761 885.994 33.6761ZM894.57 33.6705C893.866 33.6705 893.237 33.4905 892.684 33.1307C892.135 32.767 891.703 32.25 891.389 31.5795C891.078 30.9053 890.923 30.0966 890.923 29.1534C890.923 28.2102 891.08 27.4034 891.394 26.733C891.712 26.0625 892.148 25.5492 892.701 25.1932C893.254 24.8371 893.881 24.6591 894.582 24.6591C895.123 24.6591 895.559 24.75 895.889 24.9318C896.222 25.1098 896.479 25.3182 896.661 25.5568C896.847 25.7955 896.991 26.0057 897.093 26.1875H897.195V21.8636H898.894V33.5H897.235V32.142H897.093C896.991 32.3277 896.843 32.5398 896.65 32.7784C896.46 33.017 896.199 33.2254 895.866 33.4034C895.532 33.5814 895.101 33.6705 894.57 33.6705ZM894.945 32.2216C895.434 32.2216 895.847 32.0928 896.184 31.8352C896.525 31.5739 896.782 31.2121 896.957 30.75C897.135 30.2879 897.224 29.75 897.224 29.1364C897.224 28.5303 897.137 28 896.962 27.5455C896.788 27.0909 896.532 26.7367 896.195 26.483C895.858 26.2292 895.442 26.1023 894.945 26.1023C894.434 26.1023 894.008 26.2348 893.667 26.5C893.326 26.7652 893.068 27.1269 892.894 27.5852C892.724 28.0436 892.639 28.5606 892.639 29.1364C892.639 29.7197 892.726 30.2443 892.9 30.7102C893.074 31.1761 893.332 31.5455 893.673 31.8182C894.017 32.0871 894.442 32.2216 894.945 32.2216ZM905.05 33.5V21.8636H909.197C910.099 21.8636 910.847 22.0189 911.442 22.3295C912.04 22.6402 912.487 23.0701 912.783 23.6193C913.078 24.1648 913.226 24.7955 913.226 25.5114C913.226 26.2235 913.076 26.8504 912.777 27.392C912.481 27.9299 912.035 28.3485 911.436 28.6477C910.841 28.947 910.093 29.0966 909.192 29.0966H906.05V27.5852H909.033C909.601 27.5852 910.063 27.5038 910.419 27.3409C910.779 27.178 911.042 26.9413 911.209 26.6307C911.375 26.3201 911.459 25.947 911.459 25.5114C911.459 25.072 911.374 24.6913 911.203 24.3693C911.036 24.0473 910.773 23.8011 910.413 23.6307C910.057 23.4564 909.589 23.3693 909.01 23.3693H906.805V33.5H905.05ZM910.794 28.25L913.669 33.5H911.669L908.851 28.25H910.794ZM918.558 33.6761C917.698 33.6761 916.957 33.4924 916.336 33.125C915.719 32.7538 915.241 32.233 914.904 31.5625C914.571 30.8883 914.404 30.0985 914.404 29.1932C914.404 28.2992 914.571 27.5114 914.904 26.8295C915.241 26.1477 915.711 25.6155 916.313 25.233C916.92 24.8504 917.628 24.6591 918.438 24.6591C918.931 24.6591 919.408 24.7405 919.87 24.9034C920.332 25.0663 920.747 25.322 921.115 25.6705C921.482 26.0189 921.772 26.4716 921.984 27.0284C922.196 27.5814 922.302 28.2538 922.302 29.0455V29.6477H915.365V28.375H920.637C920.637 27.928 920.546 27.5322 920.365 27.1875C920.183 26.839 919.927 26.5644 919.598 26.3636C919.272 26.1629 918.889 26.0625 918.45 26.0625C917.973 26.0625 917.556 26.1799 917.2 26.4148C916.848 26.6458 916.575 26.9489 916.382 27.3239C916.192 27.6951 916.098 28.0985 916.098 28.5341V29.5284C916.098 30.1117 916.2 30.608 916.404 31.017C916.613 31.4261 916.902 31.7386 917.274 31.9545C917.645 32.1667 918.079 32.2727 918.575 32.2727C918.897 32.2727 919.19 32.2273 919.456 32.1364C919.721 32.0417 919.95 31.9015 920.143 31.7159C920.336 31.5303 920.484 31.3011 920.586 31.0284L922.194 31.3182C922.065 31.7917 921.834 32.2064 921.501 32.5625C921.171 32.9148 920.757 33.1894 920.257 33.3864C919.76 33.5795 919.194 33.6761 918.558 33.6761ZM930.407 26.9034L928.867 27.1761C928.803 26.9792 928.7 26.7917 928.56 26.6136C928.424 26.4356 928.238 26.2898 928.003 26.1761C927.769 26.0625 927.475 26.0057 927.123 26.0057C926.642 26.0057 926.24 26.1136 925.918 26.3295C925.596 26.5417 925.435 26.8163 925.435 27.1534C925.435 27.4451 925.543 27.6799 925.759 27.858C925.975 28.036 926.323 28.1818 926.805 28.2955L928.191 28.6136C928.994 28.7992 929.592 29.0852 929.986 29.4716C930.38 29.858 930.577 30.3598 930.577 30.9773C930.577 31.5 930.426 31.9659 930.123 32.375C929.823 32.7803 929.405 33.0985 928.867 33.3295C928.333 33.5606 927.714 33.6761 927.009 33.6761C926.032 33.6761 925.234 33.4678 924.617 33.0511C924 32.6307 923.621 32.0341 923.481 31.2614L925.123 31.0114C925.225 31.4394 925.435 31.7633 925.753 31.983C926.072 32.1989 926.486 32.3068 926.998 32.3068C927.555 32.3068 928 32.1913 928.333 31.9602C928.666 31.7254 928.833 31.4394 928.833 31.1023C928.833 30.8295 928.731 30.6004 928.526 30.4148C928.325 30.2292 928.017 30.089 927.6 29.9943L926.123 29.6705C925.308 29.4848 924.706 29.1894 924.316 28.7841C923.93 28.3788 923.736 27.8655 923.736 27.2443C923.736 26.7292 923.88 26.2784 924.168 25.892C924.456 25.5057 924.854 25.2045 925.361 24.9886C925.869 24.7689 926.45 24.6591 927.106 24.6591C928.049 24.6591 928.791 24.8636 929.333 25.2727C929.875 25.678 930.233 26.2216 930.407 26.9034ZM932.125 36.7727V24.7727H933.784V26.1875H933.926C934.025 26.0057 934.167 25.7955 934.352 25.5568C934.538 25.3182 934.796 25.1098 935.125 24.9318C935.455 24.75 935.89 24.6591 936.432 24.6591C937.137 24.6591 937.765 24.8371 938.318 25.1932C938.871 25.5492 939.305 26.0625 939.619 26.733C939.938 27.4034 940.097 28.2102 940.097 29.1534C940.097 30.0966 939.94 30.9053 939.625 31.5795C939.311 32.25 938.879 32.767 938.33 33.1307C937.78 33.4905 937.154 33.6705 936.449 33.6705C935.919 33.6705 935.485 33.5814 935.148 33.4034C934.815 33.2254 934.553 33.017 934.364 32.7784C934.174 32.5398 934.029 32.3277 933.926 32.142H933.824V36.7727H932.125ZM933.79 29.1364C933.79 29.75 933.879 30.2879 934.057 30.75C934.235 31.2121 934.493 31.5739 934.83 31.8352C935.167 32.0928 935.58 32.2216 936.068 32.2216C936.576 32.2216 937 32.0871 937.341 31.8182C937.682 31.5455 937.94 31.1761 938.114 30.7102C938.292 30.2443 938.381 29.7197 938.381 29.1364C938.381 28.5606 938.294 28.0436 938.119 27.5852C937.949 27.1269 937.691 26.7652 937.347 26.5C937.006 26.2348 936.58 26.1023 936.068 26.1023C935.576 26.1023 935.159 26.2292 934.818 26.483C934.481 26.7367 934.226 27.0909 934.051 27.5455C933.877 28 933.79 28.5303 933.79 29.1364ZM945.356 33.6761C944.538 33.6761 943.824 33.4886 943.214 33.1136C942.604 32.7386 942.131 32.214 941.794 31.5398C941.457 30.8655 941.288 30.0777 941.288 29.1761C941.288 28.2708 941.457 27.4792 941.794 26.8011C942.131 26.1231 942.604 25.5966 943.214 25.2216C943.824 24.8466 944.538 24.6591 945.356 24.6591C946.174 24.6591 946.889 24.8466 947.498 25.2216C948.108 25.5966 948.582 26.1231 948.919 26.8011C949.256 27.4792 949.424 28.2708 949.424 29.1761C949.424 30.0777 949.256 30.8655 948.919 31.5398C948.582 32.214 948.108 32.7386 947.498 33.1136C946.889 33.4886 946.174 33.6761 945.356 33.6761ZM945.362 32.25C945.892 32.25 946.332 32.1098 946.68 31.8295C947.029 31.5492 947.286 31.1761 947.453 30.7102C947.623 30.2443 947.709 29.7311 947.709 29.1705C947.709 28.6136 947.623 28.1023 947.453 27.6364C947.286 27.1667 947.029 26.7898 946.68 26.5057C946.332 26.2216 945.892 26.0795 945.362 26.0795C944.828 26.0795 944.385 26.2216 944.032 26.5057C943.684 26.7898 943.424 27.1667 943.254 27.6364C943.087 28.1023 943.004 28.6136 943.004 29.1705C943.004 29.7311 943.087 30.2443 943.254 30.7102C943.424 31.1761 943.684 31.5492 944.032 31.8295C944.385 32.1098 944.828 32.25 945.362 32.25ZM952.7 28.3182V33.5H951.001V24.7727H952.631V26.1932H952.739C952.94 25.7311 953.255 25.3598 953.683 25.0795C954.114 24.7992 954.658 24.6591 955.313 24.6591C955.908 24.6591 956.429 24.7841 956.876 25.0341C957.323 25.2803 957.669 25.6477 957.916 26.1364C958.162 26.625 958.285 27.2292 958.285 27.9489V33.5H956.586V28.1534C956.586 27.5208 956.421 27.0265 956.092 26.6705C955.762 26.3106 955.31 26.1307 954.734 26.1307C954.34 26.1307 953.989 26.2159 953.683 26.3864C953.38 26.5568 953.139 26.8068 952.961 27.1364C952.787 27.4621 952.7 27.8561 952.7 28.3182ZM963.51 33.6705C962.806 33.6705 962.177 33.4905 961.624 33.1307C961.075 32.767 960.643 32.25 960.329 31.5795C960.018 30.9053 959.863 30.0966 959.863 29.1534C959.863 28.2102 960.02 27.4034 960.334 26.733C960.652 26.0625 961.088 25.5492 961.641 25.1932C962.194 24.8371 962.821 24.6591 963.522 24.6591C964.063 24.6591 964.499 24.75 964.829 24.9318C965.162 25.1098 965.419 25.3182 965.601 25.5568C965.787 25.7955 965.931 26.0057 966.033 26.1875H966.135V21.8636H967.834V33.5H966.175V32.142H966.033C965.931 32.3277 965.783 32.5398 965.59 32.7784C965.4 33.017 965.139 33.2254 964.806 33.4034C964.472 33.5814 964.041 33.6705 963.51 33.6705ZM963.885 32.2216C964.374 32.2216 964.787 32.0928 965.124 31.8352C965.465 31.5739 965.722 31.2121 965.897 30.75C966.075 30.2879 966.164 29.75 966.164 29.1364C966.164 28.5303 966.077 28 965.902 27.5455C965.728 27.0909 965.472 26.7367 965.135 26.483C964.798 26.2292 964.382 26.1023 963.885 26.1023C963.374 26.1023 962.948 26.2348 962.607 26.5C962.266 26.7652 962.008 27.1269 961.834 27.5852C961.664 28.0436 961.579 28.5606 961.579 29.1364C961.579 29.7197 961.666 30.2443 961.84 30.7102C962.014 31.1761 962.272 31.5455 962.613 31.8182C962.957 32.0871 963.382 32.2216 963.885 32.2216ZM973.7 33.6761C972.84 33.6761 972.1 33.4924 971.479 33.125C970.861 32.7538 970.384 32.233 970.047 31.5625C969.714 30.8883 969.547 30.0985 969.547 29.1932C969.547 28.2992 969.714 27.5114 970.047 26.8295C970.384 26.1477 970.854 25.6155 971.456 25.233C972.062 24.8504 972.77 24.6591 973.581 24.6591C974.073 24.6591 974.551 24.7405 975.013 24.9034C975.475 25.0663 975.89 25.322 976.257 25.6705C976.625 26.0189 976.914 26.4716 977.126 27.0284C977.339 27.5814 977.445 28.2538 977.445 29.0455V29.6477H970.507V28.375H975.78C975.78 27.928 975.689 27.5322 975.507 27.1875C975.325 26.839 975.07 26.5644 974.74 26.3636C974.414 26.1629 974.032 26.0625 973.592 26.0625C973.115 26.0625 972.698 26.1799 972.342 26.4148C971.99 26.6458 971.717 26.9489 971.524 27.3239C971.335 27.6951 971.24 28.0985 971.24 28.5341V29.5284C971.24 30.1117 971.342 30.608 971.547 31.017C971.755 31.4261 972.045 31.7386 972.416 31.9545C972.787 32.1667 973.221 32.2727 973.717 32.2727C974.039 32.2727 974.333 32.2273 974.598 32.1364C974.863 32.0417 975.092 31.9015 975.286 31.7159C975.479 31.5303 975.626 31.3011 975.729 31.0284L977.337 31.3182C977.208 31.7917 976.977 32.2064 976.643 32.5625C976.314 32.9148 975.899 33.1894 975.399 33.3864C974.903 33.5795 974.337 33.6761 973.7 33.6761ZM980.708 28.3182V33.5H979.01V24.7727H980.64V26.1932H980.748C980.949 25.7311 981.263 25.3598 981.691 25.0795C982.123 24.7992 982.667 24.6591 983.322 24.6591C983.917 24.6591 984.438 24.7841 984.885 25.0341C985.332 25.2803 985.678 25.6477 985.924 26.1364C986.171 26.625 986.294 27.2292 986.294 27.9489V33.5H984.595V28.1534C984.595 27.5208 984.43 27.0265 984.1 26.6705C983.771 26.3106 983.318 26.1307 982.742 26.1307C982.349 26.1307 981.998 26.2159 981.691 26.3864C981.388 26.5568 981.148 26.8068 980.97 27.1364C980.796 27.4621 980.708 27.8561 980.708 28.3182ZM992.326 24.7727V26.1364H987.559V24.7727H992.326ZM988.837 22.6818H990.536V30.9375C990.536 31.267 990.585 31.5152 990.684 31.6818C990.782 31.8447 990.909 31.9564 991.065 32.017C991.224 32.0739 991.396 32.1023 991.582 32.1023C991.718 32.1023 991.837 32.0928 991.94 32.0739C992.042 32.0549 992.121 32.0398 992.178 32.0284L992.485 33.4318C992.387 33.4697 992.246 33.5076 992.065 33.5455C991.883 33.5871 991.655 33.6098 991.383 33.6136C990.936 33.6212 990.519 33.5417 990.133 33.375C989.746 33.2083 989.434 32.9508 989.195 32.6023C988.957 32.2538 988.837 31.8163 988.837 31.2898V22.6818ZM1000.28 26.9034L998.745 27.1761C998.68 26.9792 998.578 26.7917 998.438 26.6136C998.301 26.4356 998.116 26.2898 997.881 26.1761C997.646 26.0625 997.352 26.0057 997 26.0057C996.519 26.0057 996.118 26.1136 995.796 26.3295C995.474 26.5417 995.313 26.8163 995.313 27.1534C995.313 27.4451 995.421 27.6799 995.637 27.858C995.852 28.036 996.201 28.1818 996.682 28.2955L998.068 28.6136C998.871 28.7992 999.47 29.0852 999.864 29.4716C1000.26 29.858 1000.45 30.3598 1000.45 30.9773C1000.45 31.5 1000.3 31.9659 1000 32.375C999.701 32.7803 999.282 33.0985 998.745 33.3295C998.21 33.5606 997.591 33.6761 996.887 33.6761C995.909 33.6761 995.112 33.4678 994.495 33.0511C993.877 32.6307 993.498 32.0341 993.358 31.2614L995 31.0114C995.102 31.4394 995.313 31.7633 995.631 31.983C995.949 32.1989 996.364 32.3068 996.875 32.3068C997.432 32.3068 997.877 32.1913 998.21 31.9602C998.544 31.7254 998.71 31.4394 998.71 31.1023C998.71 30.8295 998.608 30.6004 998.404 30.4148C998.203 30.2292 997.894 30.089 997.477 29.9943L996 29.6705C995.186 29.4848 994.584 29.1894 994.193 28.7841C993.807 28.3788 993.614 27.8655 993.614 27.2443C993.614 26.7292 993.758 26.2784 994.046 25.892C994.334 25.5057 994.731 25.2045 995.239 24.9886C995.746 24.7689 996.328 24.6591 996.983 24.6591C997.926 24.6591 998.669 24.8636 999.21 25.2727C999.752 25.678 1000.11 26.2216 1000.28 26.9034Z" fill="black"/>
<path d="M277 27H402" stroke="#DBB8FF" stroke-width="4" stroke-dasharray="10 10"/>
<path d="M606 27H731" stroke="#DBB8FF" stroke-width="4" stroke-dasharray="10 10"/>
</svg>
