<svg width="1004" height="55" viewBox="0 0 1004 55" fill="none" xmlns="http://www.w3.org/2000/svg">
<mask id="path-1-inside-1_7559_37121" fill="white">
<path d="M0 6C0 2.68629 2.68629 0 6 0H234C237.314 0 240 2.68629 240 6V49C240 52.3137 237.314 55 234 55H5.99999C2.68629 55 0 52.3137 0 49V6Z"/>
</mask>
<path d="M0 6C0 2.68629 2.68629 0 6 0H234C237.314 0 240 2.68629 240 6V49C240 52.3137 237.314 55 234 55H5.99999C2.68629 55 0 52.3137 0 49V6Z" fill="white"/>
<path d="M0 0H240H0ZM240 55H0H240ZM6 55C1.02944 55 -3 50.9706 -3 46V9C-3 4.02944 1.02944 0 6 0C4.34315 0 3 2.68629 3 6V49C3 52.3137 4.34315 55 6 55ZM240 0V55V0Z" fill="#9D50BB" mask="url(#path-1-inside-1_7559_37121)"/>
<path d="M27.625 24.9205C27.5644 24.3826 27.3144 23.9659 26.875 23.6705C26.4356 23.3712 25.8826 23.2216 25.2159 23.2216C24.7386 23.2216 24.3258 23.2973 23.9773 23.4489C23.6288 23.5966 23.358 23.8011 23.1648 24.0625C22.9754 24.3201 22.8807 24.6136 22.8807 24.9432C22.8807 25.2197 22.9451 25.4583 23.0739 25.6591C23.2064 25.8598 23.3788 26.0284 23.5909 26.1648C23.8068 26.2973 24.0379 26.4091 24.2841 26.5C24.5303 26.5871 24.767 26.6591 24.9943 26.7159L26.1307 27.0114C26.5019 27.1023 26.8826 27.2254 27.2727 27.3807C27.6629 27.536 28.0246 27.7405 28.358 27.9943C28.6913 28.2481 28.9602 28.5625 29.1648 28.9375C29.3731 29.3125 29.4773 29.7614 29.4773 30.2841C29.4773 30.9432 29.3068 31.5284 28.9659 32.0398C28.6288 32.5511 28.1383 32.9545 27.4943 33.25C26.8542 33.5455 26.0795 33.6932 25.1705 33.6932C24.2992 33.6932 23.5455 33.5549 22.9091 33.2784C22.2727 33.0019 21.7746 32.6098 21.4148 32.1023C21.0549 31.5909 20.8561 30.9848 20.8182 30.2841H22.5795C22.6136 30.7045 22.75 31.0549 22.9886 31.3352C23.2311 31.6117 23.5398 31.8182 23.9148 31.9545C24.2936 32.0871 24.7083 32.1534 25.1591 32.1534C25.6553 32.1534 26.0966 32.0758 26.483 31.9205C26.8731 31.7614 27.1799 31.5417 27.4034 31.2614C27.6269 30.9773 27.7386 30.6458 27.7386 30.267C27.7386 29.9223 27.6402 29.6402 27.4432 29.4205C27.25 29.2008 26.9867 29.0189 26.6534 28.875C26.3239 28.7311 25.9508 28.6042 25.5341 28.4943L24.1591 28.1193C23.2273 27.8655 22.4886 27.4924 21.9432 27C21.4015 26.5076 21.1307 25.8561 21.1307 25.0455C21.1307 24.375 21.3125 23.7898 21.6761 23.2898C22.0398 22.7898 22.5322 22.4015 23.1534 22.125C23.7746 21.8447 24.4754 21.7045 25.2557 21.7045C26.0436 21.7045 26.7386 21.8428 27.3409 22.1193C27.947 22.3958 28.4242 22.7765 28.7727 23.2614C29.1212 23.7424 29.303 24.2955 29.3182 24.9205H27.625ZM31.1189 36.7727V24.7727H32.778V26.1875H32.9201C33.0185 26.0057 33.1606 25.7955 33.3462 25.5568C33.5318 25.3182 33.7894 25.1098 34.1189 24.9318C34.4485 24.75 34.8841 24.6591 35.4257 24.6591C36.1303 24.6591 36.7591 24.8371 37.3121 25.1932C37.8651 25.5492 38.2988 26.0625 38.6132 26.733C38.9314 27.4034 39.0905 28.2102 39.0905 29.1534C39.0905 30.0966 38.9333 30.9053 38.6189 31.5795C38.3045 32.25 37.8727 32.767 37.3235 33.1307C36.7742 33.4905 36.1473 33.6705 35.4428 33.6705C34.9125 33.6705 34.4788 33.5814 34.1416 33.4034C33.8083 33.2254 33.547 33.017 33.3576 32.7784C33.1682 32.5398 33.0223 32.3277 32.9201 32.142H32.8178V36.7727H31.1189ZM32.7837 29.1364C32.7837 29.75 32.8727 30.2879 33.0507 30.75C33.2288 31.2121 33.4863 31.5739 33.8235 31.8352C34.1606 32.0928 34.5735 32.2216 35.0621 32.2216C35.5697 32.2216 35.9939 32.0871 36.3348 31.8182C36.6757 31.5455 36.9333 31.1761 37.1076 30.7102C37.2856 30.2443 37.3746 29.7197 37.3746 29.1364C37.3746 28.5606 37.2875 28.0436 37.1132 27.5852C36.9428 27.1269 36.6852 26.7652 36.3405 26.5C35.9996 26.2348 35.5735 26.1023 35.0621 26.1023C34.5697 26.1023 34.153 26.2292 33.8121 26.483C33.475 26.7367 33.2193 27.0909 33.0451 27.5455C32.8708 28 32.7837 28.5303 32.7837 29.1364ZM44.4353 33.6761C43.5754 33.6761 42.8349 33.4924 42.2137 33.125C41.5963 32.7538 41.119 32.233 40.7819 31.5625C40.4485 30.8883 40.2819 30.0985 40.2819 29.1932C40.2819 28.2992 40.4485 27.5114 40.7819 26.8295C41.119 26.1477 41.5887 25.6155 42.191 25.233C42.797 24.8504 43.5054 24.6591 44.316 24.6591C44.8084 24.6591 45.2857 24.7405 45.7478 24.9034C46.2099 25.0663 46.6247 25.322 46.9921 25.6705C47.3595 26.0189 47.6493 26.4716 47.8614 27.0284C48.0735 27.5814 48.1796 28.2538 48.1796 29.0455V29.6477H41.2421V28.375H46.5148C46.5148 27.928 46.4239 27.5322 46.2421 27.1875C46.0603 26.839 45.8046 26.5644 45.4751 26.3636C45.1493 26.1629 44.7667 26.0625 44.3273 26.0625C43.8501 26.0625 43.4334 26.1799 43.0773 26.4148C42.7251 26.6458 42.4523 26.9489 42.2591 27.3239C42.0698 27.6951 41.9751 28.0985 41.9751 28.5341V29.5284C41.9751 30.1117 42.0773 30.608 42.2819 31.017C42.4902 31.4261 42.78 31.7386 43.1512 31.9545C43.5224 32.1667 43.9561 32.2727 44.4523 32.2727C44.7743 32.2727 45.0679 32.2273 45.333 32.1364C45.5982 32.0417 45.8273 31.9015 46.0205 31.7159C46.2137 31.5303 46.3614 31.3011 46.4637 31.0284L48.0716 31.3182C47.9429 31.7917 47.7118 32.2064 47.3785 32.5625C47.0489 32.9148 46.6341 33.1894 46.1341 33.3864C45.6379 33.5795 45.0716 33.6761 44.4353 33.6761ZM53.5059 33.6761C52.6461 33.6761 51.9055 33.4924 51.2843 33.125C50.6669 32.7538 50.1896 32.233 49.8525 31.5625C49.5192 30.8883 49.3525 30.0985 49.3525 29.1932C49.3525 28.2992 49.5192 27.5114 49.8525 26.8295C50.1896 26.1477 50.6593 25.6155 51.2616 25.233C51.8677 24.8504 52.576 24.6591 53.3866 24.6591C53.879 24.6591 54.3563 24.7405 54.8184 24.9034C55.2805 25.0663 55.6953 25.322 56.0627 25.6705C56.4302 26.0189 56.7199 26.4716 56.932 27.0284C57.1442 27.5814 57.2502 28.2538 57.2502 29.0455V29.6477H50.3127V28.375H55.5855C55.5855 27.928 55.4945 27.5322 55.3127 27.1875C55.1309 26.839 54.8752 26.5644 54.5457 26.3636C54.2199 26.1629 53.8373 26.0625 53.398 26.0625C52.9207 26.0625 52.504 26.1799 52.148 26.4148C51.7957 26.6458 51.523 26.9489 51.3298 27.3239C51.1404 27.6951 51.0457 28.0985 51.0457 28.5341V29.5284C51.0457 30.1117 51.148 30.608 51.3525 31.017C51.5608 31.4261 51.8506 31.7386 52.2218 31.9545C52.593 32.1667 53.0267 32.2727 53.523 32.2727C53.8449 32.2727 54.1385 32.2273 54.4036 32.1364C54.6688 32.0417 54.898 31.9015 55.0911 31.7159C55.2843 31.5303 55.432 31.3011 55.5343 31.0284L57.1423 31.3182C57.0135 31.7917 56.7824 32.2064 56.4491 32.5625C56.1195 32.9148 55.7048 33.1894 55.2048 33.3864C54.7086 33.5795 54.1423 33.6761 53.5059 33.6761ZM62.4913 33.6761C61.6466 33.6761 60.9193 33.4848 60.3095 33.1023C59.7034 32.7159 59.2375 32.1837 58.9118 31.5057C58.586 30.8277 58.4231 30.0511 58.4231 29.1761C58.4231 28.2898 58.5898 27.5076 58.9231 26.8295C59.2565 26.1477 59.7262 25.6155 60.3322 25.233C60.9383 24.8504 61.6523 24.6591 62.4743 24.6591C63.1371 24.6591 63.7281 24.7822 64.247 25.0284C64.7659 25.2708 65.1845 25.6117 65.5027 26.0511C65.8246 26.4905 66.0159 27.0038 66.0765 27.5909H64.4231C64.3322 27.1818 64.1239 26.8295 63.7981 26.5341C63.4762 26.2386 63.0443 26.0909 62.5027 26.0909C62.0292 26.0909 61.6144 26.2159 61.2584 26.4659C60.9061 26.7121 60.6315 27.0644 60.4345 27.5227C60.2375 27.9773 60.139 28.5152 60.139 29.1364C60.139 29.7727 60.2356 30.322 60.4288 30.7841C60.622 31.2462 60.8947 31.6042 61.247 31.858C61.6031 32.1117 62.0216 32.2386 62.5027 32.2386C62.8246 32.2386 63.1163 32.1799 63.3777 32.0625C63.6428 31.9413 63.8644 31.7689 64.0424 31.5455C64.2243 31.322 64.3512 31.053 64.4231 30.7386H66.0765C66.0159 31.303 65.8322 31.8068 65.5254 32.25C65.2186 32.6932 64.8076 33.0417 64.2924 33.2955C63.7811 33.5492 63.1807 33.6761 62.4913 33.6761ZM69.2722 28.3182V33.5H67.5733V21.8636H69.2494V26.1932H69.3574C69.5619 25.7235 69.8744 25.3504 70.2949 25.0739C70.7153 24.7973 71.2646 24.6591 71.9426 24.6591C72.5411 24.6591 73.0638 24.7822 73.5108 25.0284C73.9616 25.2746 74.31 25.642 74.5563 26.1307C74.8063 26.6155 74.9313 27.2216 74.9313 27.9489V33.5H73.2324V28.1534C73.2324 27.5133 73.0676 27.017 72.7381 26.6648C72.4085 26.3087 71.9502 26.1307 71.3631 26.1307C70.9616 26.1307 70.6017 26.2159 70.2835 26.3864C69.9691 26.5568 69.721 26.8068 69.5392 27.1364C69.3612 27.4621 69.2722 27.8561 69.2722 28.3182ZM82.0203 27.8466V29.3182H76.8613V27.8466H82.0203ZM88.0384 24.7727V26.1364H83.2714V24.7727H88.0384ZM84.5498 22.6818H86.2486V30.9375C86.2486 31.267 86.2979 31.5152 86.3964 31.6818C86.4948 31.8447 86.6217 31.9564 86.777 32.017C86.9361 32.0739 87.1085 32.1023 87.2941 32.1023C87.4305 32.1023 87.5498 32.0928 87.652 32.0739C87.7543 32.0549 87.8339 32.0398 87.8907 32.0284L88.1975 33.4318C88.099 33.4697 87.9589 33.5076 87.777 33.5455C87.5952 33.5871 87.368 33.6098 87.0952 33.6136C86.6483 33.6212 86.2316 33.5417 85.8452 33.375C85.4589 33.2083 85.1464 32.9508 84.9077 32.6023C84.6691 32.2538 84.5498 31.8163 84.5498 31.2898V22.6818ZM93.1801 33.6761C92.3619 33.6761 91.6479 33.4886 91.038 33.1136C90.4282 32.7386 89.9547 32.214 89.6176 31.5398C89.2804 30.8655 89.1119 30.0777 89.1119 29.1761C89.1119 28.2708 89.2804 27.4792 89.6176 26.8011C89.9547 26.1231 90.4282 25.5966 91.038 25.2216C91.6479 24.8466 92.3619 24.6591 93.1801 24.6591C93.9982 24.6591 94.7123 24.8466 95.3221 25.2216C95.932 25.5966 96.4054 26.1231 96.7426 26.8011C97.0797 27.4792 97.2482 28.2708 97.2482 29.1761C97.2482 30.0777 97.0797 30.8655 96.7426 31.5398C96.4054 32.214 95.932 32.7386 95.3221 33.1136C94.7123 33.4886 93.9982 33.6761 93.1801 33.6761ZM93.1857 32.25C93.716 32.25 94.1554 32.1098 94.5039 31.8295C94.8524 31.5492 95.11 31.1761 95.2767 30.7102C95.4471 30.2443 95.5323 29.7311 95.5323 29.1705C95.5323 28.6136 95.4471 28.1023 95.2767 27.6364C95.11 27.1667 94.8524 26.7898 94.5039 26.5057C94.1554 26.2216 93.716 26.0795 93.1857 26.0795C92.6517 26.0795 92.2085 26.2216 91.8562 26.5057C91.5077 26.7898 91.2482 27.1667 91.0778 27.6364C90.9111 28.1023 90.8278 28.6136 90.8278 29.1705C90.8278 29.7311 90.9111 30.2443 91.0778 30.7102C91.2482 31.1761 91.5077 31.5492 91.8562 31.8295C92.2085 32.1098 92.6517 32.25 93.1857 32.25ZM103.967 27.8466V29.3182H98.8075V27.8466H103.967ZM104.52 23.375V21.8636H113.526V23.375H109.895V33.5H108.145V23.375H104.52ZM117.555 33.6761C116.695 33.6761 115.955 33.4924 115.334 33.125C114.716 32.7538 114.239 32.233 113.902 31.5625C113.569 30.8883 113.402 30.0985 113.402 29.1932C113.402 28.2992 113.569 27.5114 113.902 26.8295C114.239 26.1477 114.709 25.6155 115.311 25.233C115.917 24.8504 116.625 24.6591 117.436 24.6591C117.928 24.6591 118.406 24.7405 118.868 24.9034C119.33 25.0663 119.745 25.322 120.112 25.6705C120.48 26.0189 120.769 26.4716 120.981 27.0284C121.194 27.5814 121.3 28.2538 121.3 29.0455V29.6477H114.362V28.375H119.635C119.635 27.928 119.544 27.5322 119.362 27.1875C119.18 26.839 118.925 26.5644 118.595 26.3636C118.269 26.1629 117.887 26.0625 117.447 26.0625C116.97 26.0625 116.553 26.1799 116.197 26.4148C115.845 26.6458 115.572 26.9489 115.379 27.3239C115.19 27.6951 115.095 28.0985 115.095 28.5341V29.5284C115.095 30.1117 115.197 30.608 115.402 31.017C115.61 31.4261 115.9 31.7386 116.271 31.9545C116.642 32.1667 117.076 32.2727 117.572 32.2727C117.894 32.2727 118.188 32.2273 118.453 32.1364C118.718 32.0417 118.947 31.9015 119.141 31.7159C119.334 31.5303 119.481 31.3011 119.584 31.0284L121.192 31.3182C121.063 31.7917 120.832 32.2064 120.498 32.5625C120.169 32.9148 119.754 33.1894 119.254 33.3864C118.758 33.5795 118.192 33.6761 117.555 33.6761ZM124.002 24.7727L125.928 28.1705L127.872 24.7727H129.73L127.008 29.1364L129.752 33.5H127.894L125.928 30.2386L123.968 33.5H122.105L124.821 29.1364L122.139 24.7727H124.002ZM135.228 24.7727V26.1364H130.461V24.7727H135.228ZM131.739 22.6818H133.438V30.9375C133.438 31.267 133.487 31.5152 133.586 31.6818C133.684 31.8447 133.811 31.9564 133.966 32.017C134.126 32.0739 134.298 32.1023 134.483 32.1023C134.62 32.1023 134.739 32.0928 134.841 32.0739C134.944 32.0549 135.023 32.0398 135.08 32.0284L135.387 33.4318C135.288 33.4697 135.148 33.5076 134.966 33.5455C134.785 33.5871 134.557 33.6098 134.285 33.6136C133.838 33.6212 133.421 33.5417 133.035 33.375C132.648 33.2083 132.336 32.9508 132.097 32.6023C131.858 32.2538 131.739 31.8163 131.739 31.2898V22.6818ZM142.593 21.8636V33.5H140.838V21.8636H142.593ZM146.393 28.3182V33.5H144.694V24.7727H146.325V26.1932H146.433C146.633 25.7311 146.948 25.3598 147.376 25.0795C147.808 24.7992 148.351 24.6591 149.006 24.6591C149.601 24.6591 150.122 24.7841 150.569 25.0341C151.016 25.2803 151.362 25.6477 151.609 26.1364C151.855 26.625 151.978 27.2292 151.978 27.9489V33.5H150.279V28.1534C150.279 27.5208 150.114 27.0265 149.785 26.6705C149.455 26.3106 149.003 26.1307 148.427 26.1307C148.033 26.1307 147.683 26.2159 147.376 26.3864C147.073 26.5568 146.832 26.8068 146.654 27.1364C146.48 27.4621 146.393 27.8561 146.393 28.3182ZM158.01 24.7727V26.1364H153.243V24.7727H158.01ZM154.522 22.6818H156.221V30.9375C156.221 31.267 156.27 31.5152 156.368 31.6818C156.467 31.8447 156.594 31.9564 156.749 32.017C156.908 32.0739 157.08 32.1023 157.266 32.1023C157.402 32.1023 157.522 32.0928 157.624 32.0739C157.726 32.0549 157.806 32.0398 157.863 32.0284L158.169 33.4318C158.071 33.4697 157.931 33.5076 157.749 33.5455C157.567 33.5871 157.34 33.6098 157.067 33.6136C156.62 33.6212 156.203 33.5417 155.817 33.375C155.431 33.2083 155.118 32.9508 154.88 32.6023C154.641 32.2538 154.522 31.8163 154.522 31.2898V22.6818ZM163.237 33.6761C162.377 33.6761 161.637 33.4924 161.016 33.125C160.398 32.7538 159.921 32.233 159.584 31.5625C159.25 30.8883 159.084 30.0985 159.084 29.1932C159.084 28.2992 159.25 27.5114 159.584 26.8295C159.921 26.1477 160.391 25.6155 160.993 25.233C161.599 24.8504 162.307 24.6591 163.118 24.6591C163.61 24.6591 164.088 24.7405 164.55 24.9034C165.012 25.0663 165.427 25.322 165.794 25.6705C166.161 26.0189 166.451 26.4716 166.663 27.0284C166.875 27.5814 166.981 28.2538 166.981 29.0455V29.6477H160.044V28.375H165.317C165.317 27.928 165.226 27.5322 165.044 27.1875C164.862 26.839 164.606 26.5644 164.277 26.3636C163.951 26.1629 163.569 26.0625 163.129 26.0625C162.652 26.0625 162.235 26.1799 161.879 26.4148C161.527 26.6458 161.254 26.9489 161.061 27.3239C160.872 27.6951 160.777 28.0985 160.777 28.5341V29.5284C160.777 30.1117 160.879 30.608 161.084 31.017C161.292 31.4261 161.582 31.7386 161.953 31.9545C162.324 32.1667 162.758 32.2727 163.254 32.2727C163.576 32.2727 163.87 32.2273 164.135 32.1364C164.4 32.0417 164.629 31.9015 164.822 31.7159C165.016 31.5303 165.163 31.3011 165.266 31.0284L166.874 31.3182C166.745 31.7917 166.514 32.2064 166.18 32.5625C165.851 32.9148 165.436 33.1894 164.936 33.3864C164.44 33.5795 163.874 33.6761 163.237 33.6761ZM172.206 36.9545C171.512 36.9545 170.916 36.8636 170.416 36.6818C169.92 36.5 169.514 36.2595 169.2 35.9602C168.885 35.661 168.651 35.3333 168.495 34.9773L169.956 34.375C170.058 34.5417 170.194 34.7178 170.365 34.9034C170.539 35.0928 170.774 35.2538 171.069 35.3864C171.368 35.5189 171.753 35.5852 172.223 35.5852C172.866 35.5852 173.399 35.428 173.819 35.1136C174.24 34.803 174.45 34.3068 174.45 33.625V31.9091H174.342C174.24 32.0947 174.092 32.3011 173.899 32.5284C173.709 32.7557 173.448 32.9527 173.115 33.1193C172.781 33.286 172.348 33.3693 171.813 33.3693C171.124 33.3693 170.503 33.2083 169.95 32.8864C169.401 32.5606 168.965 32.0814 168.643 31.4489C168.325 30.8125 168.166 30.0303 168.166 29.1023C168.166 28.1742 168.323 27.3788 168.637 26.7159C168.956 26.053 169.391 25.5455 169.944 25.1932C170.497 24.8371 171.124 24.6591 171.825 24.6591C172.366 24.6591 172.804 24.75 173.137 24.9318C173.471 25.1098 173.73 25.3182 173.916 25.5568C174.105 25.7955 174.251 26.0057 174.353 26.1875H174.478V24.7727H176.143V33.6932C176.143 34.4432 175.969 35.0587 175.62 35.5398C175.272 36.0208 174.8 36.3769 174.206 36.608C173.615 36.839 172.948 36.9545 172.206 36.9545ZM172.188 31.9602C172.677 31.9602 173.09 31.8466 173.427 31.6193C173.768 31.3883 174.026 31.0587 174.2 30.6307C174.378 30.1989 174.467 29.6818 174.467 29.0795C174.467 28.4924 174.38 27.9754 174.206 27.5284C174.031 27.0814 173.776 26.733 173.438 26.483C173.101 26.2292 172.685 26.1023 172.188 26.1023C171.677 26.1023 171.251 26.2348 170.91 26.5C170.569 26.7614 170.312 27.1174 170.137 27.5682C169.967 28.0189 169.882 28.5227 169.882 29.0795C169.882 29.6515 169.969 30.1534 170.143 30.5852C170.317 31.017 170.575 31.3542 170.916 31.5966C171.26 31.839 171.685 31.9602 172.188 31.9602ZM178.101 33.5V24.7727H179.743V26.1591H179.834C179.993 25.6894 180.274 25.3201 180.675 25.0511C181.081 24.7784 181.539 24.642 182.05 24.642C182.156 24.642 182.281 24.6458 182.425 24.6534C182.573 24.661 182.689 24.6705 182.772 24.6818V26.3068C182.704 26.2879 182.582 26.267 182.408 26.2443C182.234 26.2178 182.06 26.2045 181.886 26.2045C181.484 26.2045 181.126 26.2898 180.812 26.4602C180.501 26.6269 180.255 26.8598 180.073 27.1591C179.891 27.4545 179.8 27.7917 179.8 28.1705V33.5H178.101ZM186.384 33.6932C185.831 33.6932 185.331 33.5909 184.884 33.3864C184.437 33.178 184.083 32.8769 183.821 32.483C183.564 32.089 183.435 31.6061 183.435 31.0341C183.435 30.5417 183.53 30.1364 183.719 29.8182C183.908 29.5 184.164 29.2481 184.486 29.0625C184.808 28.8769 185.168 28.7367 185.566 28.642C185.963 28.5473 186.369 28.4754 186.781 28.4261C187.304 28.3655 187.728 28.3163 188.054 28.2784C188.38 28.2367 188.617 28.1705 188.764 28.0795C188.912 27.9886 188.986 27.8409 188.986 27.6364V27.5966C188.986 27.1004 188.846 26.7159 188.566 26.4432C188.289 26.1705 187.876 26.0341 187.327 26.0341C186.755 26.0341 186.304 26.161 185.975 26.4148C185.649 26.6648 185.423 26.9432 185.298 27.25L183.702 26.8864C183.891 26.3561 184.168 25.928 184.531 25.6023C184.899 25.2727 185.321 25.0341 185.798 24.8864C186.276 24.7348 186.778 24.6591 187.304 24.6591C187.653 24.6591 188.022 24.7008 188.412 24.7841C188.806 24.8636 189.173 25.0114 189.514 25.2273C189.859 25.4432 190.141 25.7519 190.361 26.1534C190.581 26.5511 190.691 27.0682 190.691 27.7045V33.5H189.031V32.3068H188.963C188.853 32.5265 188.689 32.7424 188.469 32.9545C188.249 33.1667 187.967 33.3428 187.622 33.483C187.278 33.6231 186.865 33.6932 186.384 33.6932ZM186.753 32.3295C187.223 32.3295 187.624 32.2367 187.958 32.0511C188.295 31.8655 188.55 31.6231 188.725 31.3239C188.903 31.0208 188.992 30.697 188.992 30.3523V29.2273C188.931 29.2879 188.814 29.3447 188.639 29.3977C188.469 29.447 188.274 29.4905 188.054 29.5284C187.834 29.5625 187.62 29.5947 187.412 29.625C187.204 29.6515 187.03 29.6742 186.889 29.6932C186.56 29.7348 186.259 29.8049 185.986 29.9034C185.717 30.0019 185.501 30.1439 185.338 30.3295C185.179 30.5114 185.1 30.7538 185.1 31.0568C185.1 31.4773 185.255 31.7955 185.566 32.0114C185.876 32.2235 186.272 32.3295 186.753 32.3295ZM196.707 24.7727V26.1364H191.94V24.7727H196.707ZM193.219 22.6818H194.917V30.9375C194.917 31.267 194.967 31.5152 195.065 31.6818C195.164 31.8447 195.29 31.9564 195.446 32.017C195.605 32.0739 195.777 32.1023 195.963 32.1023C196.099 32.1023 196.219 32.0928 196.321 32.0739C196.423 32.0549 196.503 32.0398 196.559 32.0284L196.866 33.4318C196.768 33.4697 196.628 33.5076 196.446 33.5455C196.264 33.5871 196.037 33.6098 195.764 33.6136C195.317 33.6212 194.9 33.5417 194.514 33.375C194.128 33.2083 193.815 32.9508 193.576 32.6023C193.338 32.2538 193.219 31.8163 193.219 31.2898V22.6818ZM198.266 33.5V24.7727H199.965V33.5H198.266ZM199.124 23.4261C198.829 23.4261 198.575 23.3277 198.363 23.1307C198.155 22.9299 198.051 22.6913 198.051 22.4148C198.051 22.1345 198.155 21.8958 198.363 21.6989C198.575 21.4981 198.829 21.3977 199.124 21.3977C199.42 21.3977 199.672 21.4981 199.88 21.6989C200.092 21.8958 200.198 22.1345 200.198 22.4148C200.198 22.6913 200.092 22.9299 199.88 23.1307C199.672 23.3277 199.42 23.4261 199.124 23.4261ZM205.607 33.6761C204.789 33.6761 204.075 33.4886 203.465 33.1136C202.855 32.7386 202.382 32.214 202.044 31.5398C201.707 30.8655 201.539 30.0777 201.539 29.1761C201.539 28.2708 201.707 27.4792 202.044 26.8011C202.382 26.1231 202.855 25.5966 203.465 25.2216C204.075 24.8466 204.789 24.6591 205.607 24.6591C206.425 24.6591 207.139 24.8466 207.749 25.2216C208.359 25.5966 208.832 26.1231 209.169 26.8011C209.507 27.4792 209.675 28.2708 209.675 29.1761C209.675 30.0777 209.507 30.8655 209.169 31.5398C208.832 32.214 208.359 32.7386 207.749 33.1136C207.139 33.4886 206.425 33.6761 205.607 33.6761ZM205.613 32.25C206.143 32.25 206.582 32.1098 206.931 31.8295C207.279 31.5492 207.537 31.1761 207.704 30.7102C207.874 30.2443 207.959 29.7311 207.959 29.1705C207.959 28.6136 207.874 28.1023 207.704 27.6364C207.537 27.1667 207.279 26.7898 206.931 26.5057C206.582 26.2216 206.143 26.0795 205.613 26.0795C205.079 26.0795 204.635 26.2216 204.283 26.5057C203.935 26.7898 203.675 27.1667 203.505 27.6364C203.338 28.1023 203.255 28.6136 203.255 29.1705C203.255 29.7311 203.338 30.2443 203.505 30.7102C203.675 31.1761 203.935 31.5492 204.283 31.8295C204.635 32.1098 205.079 32.25 205.613 32.25ZM212.95 28.3182V33.5H211.251V24.7727H212.882V26.1932H212.99C213.191 25.7311 213.505 25.3598 213.933 25.0795C214.365 24.7992 214.909 24.6591 215.564 24.6591C216.159 24.6591 216.679 24.7841 217.126 25.0341C217.573 25.2803 217.92 25.6477 218.166 26.1364C218.412 26.625 218.536 27.2292 218.536 27.9489V33.5H216.837V28.1534C216.837 27.5208 216.672 27.0265 216.342 26.6705C216.013 26.3106 215.56 26.1307 214.984 26.1307C214.59 26.1307 214.24 26.2159 213.933 26.3864C213.63 26.5568 213.39 26.8068 213.212 27.1364C213.037 27.4621 212.95 27.8561 212.95 28.3182Z" fill="black"/>
<mask id="path-4-inside-2_7559_37121" fill="white">
<path d="M385 6C385 2.68629 387.686 0 391 0H622C625.314 0 628 2.68629 628 6V49C628 52.3137 625.314 55 622 55H391C387.686 55 385 52.3137 385 49V6Z"/>
</mask>
<path d="M385 6C385 2.68629 387.686 0 391 0H622C625.314 0 628 2.68629 628 6V49C628 52.3137 625.314 55 622 55H391C387.686 55 385 52.3137 385 49V6Z" fill="white"/>
<path d="M385 0H628H385ZM628 55H385H628ZM391 55C386.029 55 382 50.9706 382 46V9C382 4.02944 386.029 0 391 0C389.343 0 388 2.68629 388 6V49C388 52.3137 389.343 55 391 55ZM628 0V55V0Z" fill="#9D50BB" mask="url(#path-4-inside-2_7559_37121)"/>
<path d="M416.386 27.6818C416.386 28.9242 416.159 29.9924 415.705 30.8864C415.25 31.7765 414.627 32.4621 413.835 32.9432C413.047 33.4205 412.152 33.6591 411.148 33.6591C410.14 33.6591 409.241 33.4205 408.449 32.9432C407.661 32.4621 407.04 31.7746 406.585 30.8807C406.131 29.9867 405.903 28.9205 405.903 27.6818C405.903 26.4394 406.131 25.3731 406.585 24.483C407.04 23.589 407.661 22.9034 408.449 22.4261C409.241 21.9451 410.14 21.7045 411.148 21.7045C412.152 21.7045 413.047 21.9451 413.835 22.4261C414.627 22.9034 415.25 23.589 415.705 24.483C416.159 25.3731 416.386 26.4394 416.386 27.6818ZM414.648 27.6818C414.648 26.7348 414.494 25.9375 414.188 25.2898C413.884 24.6383 413.468 24.1458 412.938 23.8125C412.411 23.4754 411.814 23.3068 411.148 23.3068C410.477 23.3068 409.879 23.4754 409.352 23.8125C408.826 24.1458 408.409 24.6383 408.102 25.2898C407.799 25.9375 407.648 26.7348 407.648 27.6818C407.648 28.6288 407.799 29.428 408.102 30.0795C408.409 30.7273 408.826 31.2197 409.352 31.5568C409.879 31.8902 410.477 32.0568 411.148 32.0568C411.814 32.0568 412.411 31.8902 412.938 31.5568C413.468 31.2197 413.884 30.7273 414.188 30.0795C414.494 29.428 414.648 28.6288 414.648 27.6818ZM422.272 24.7727V26.1364H417.341V24.7727H422.272ZM418.693 33.5V23.7614C418.693 23.2159 418.812 22.7633 419.051 22.4034C419.289 22.0398 419.606 21.7689 420 21.5909C420.394 21.4091 420.822 21.3182 421.284 21.3182C421.625 21.3182 421.916 21.3466 422.159 21.4034C422.401 21.4564 422.581 21.5057 422.698 21.5511L422.301 22.9261C422.221 22.9034 422.119 22.8769 421.994 22.8466C421.869 22.8125 421.717 22.7955 421.539 22.7955C421.126 22.7955 420.831 22.8977 420.653 23.1023C420.479 23.3068 420.392 23.6023 420.392 23.9886V33.5H418.693ZM427.859 24.7727V26.1364H422.927V24.7727H427.859ZM424.279 33.5V23.7614C424.279 23.2159 424.398 22.7633 424.637 22.4034C424.876 22.0398 425.192 21.7689 425.586 21.5909C425.98 21.4091 426.408 21.3182 426.87 21.3182C427.211 21.3182 427.503 21.3466 427.745 21.4034C427.987 21.4564 428.167 21.5057 428.285 21.5511L427.887 22.9261C427.807 22.9034 427.705 22.8769 427.58 22.8466C427.455 22.8125 427.304 22.7955 427.126 22.7955C426.713 22.7955 426.417 22.8977 426.239 23.1023C426.065 23.3068 425.978 23.6023 425.978 23.9886V33.5H424.279ZM430.99 21.8636V33.5H429.291V21.8636H430.99ZM432.956 33.5V24.7727H434.655V33.5H432.956ZM433.814 23.4261C433.518 23.4261 433.265 23.3277 433.052 23.1307C432.844 22.9299 432.74 22.6913 432.74 22.4148C432.74 22.1345 432.844 21.8958 433.052 21.6989C433.265 21.4981 433.518 21.3977 433.814 21.3977C434.109 21.3977 434.361 21.4981 434.569 21.6989C434.782 21.8958 434.888 22.1345 434.888 22.4148C434.888 22.6913 434.782 22.9299 434.569 23.1307C434.361 23.3277 434.109 23.4261 433.814 23.4261ZM438.319 28.3182V33.5H436.62V24.7727H438.251V26.1932H438.359C438.56 25.7311 438.874 25.3598 439.302 25.0795C439.734 24.7992 440.277 24.6591 440.933 24.6591C441.527 24.6591 442.048 24.7841 442.495 25.0341C442.942 25.2803 443.289 25.6477 443.535 26.1364C443.781 26.625 443.904 27.2292 443.904 27.9489V33.5H442.205V28.1534C442.205 27.5208 442.041 27.0265 441.711 26.6705C441.382 26.3106 440.929 26.1307 440.353 26.1307C439.959 26.1307 439.609 26.2159 439.302 26.3864C438.999 26.5568 438.758 26.8068 438.58 27.1364C438.406 27.4621 438.319 27.8561 438.319 28.3182ZM449.624 33.6761C448.764 33.6761 448.024 33.4924 447.402 33.125C446.785 32.7538 446.308 32.233 445.971 31.5625C445.637 30.8883 445.471 30.0985 445.471 29.1932C445.471 28.2992 445.637 27.5114 445.971 26.8295C446.308 26.1477 446.777 25.6155 447.38 25.233C447.986 24.8504 448.694 24.6591 449.505 24.6591C449.997 24.6591 450.474 24.7405 450.937 24.9034C451.399 25.0663 451.813 25.322 452.181 25.6705C452.548 26.0189 452.838 26.4716 453.05 27.0284C453.262 27.5814 453.368 28.2538 453.368 29.0455V29.6477H446.431V28.375H451.704C451.704 27.928 451.613 27.5322 451.431 27.1875C451.249 26.839 450.993 26.5644 450.664 26.3636C450.338 26.1629 449.955 26.0625 449.516 26.0625C449.039 26.0625 448.622 26.1799 448.266 26.4148C447.914 26.6458 447.641 26.9489 447.448 27.3239C447.259 27.6951 447.164 28.0985 447.164 28.5341V29.5284C447.164 30.1117 447.266 30.608 447.471 31.017C447.679 31.4261 447.969 31.7386 448.34 31.9545C448.711 32.1667 449.145 32.2727 449.641 32.2727C449.963 32.2727 450.257 32.2273 450.522 32.1364C450.787 32.0417 451.016 31.9015 451.209 31.7159C451.402 31.5303 451.55 31.3011 451.652 31.0284L453.26 31.3182C453.132 31.7917 452.901 32.2064 452.567 32.5625C452.238 32.9148 451.823 33.1894 451.323 33.3864C450.827 33.5795 450.26 33.6761 449.624 33.6761ZM465.331 24.9205C465.27 24.3826 465.02 23.9659 464.581 23.6705C464.141 23.3712 463.588 23.2216 462.922 23.2216C462.444 23.2216 462.031 23.2973 461.683 23.4489C461.334 23.5966 461.064 23.8011 460.87 24.0625C460.681 24.3201 460.586 24.6136 460.586 24.9432C460.586 25.2197 460.651 25.4583 460.779 25.6591C460.912 25.8598 461.084 26.0284 461.297 26.1648C461.512 26.2973 461.744 26.4091 461.99 26.5C462.236 26.5871 462.473 26.6591 462.7 26.7159L463.836 27.0114C464.208 27.1023 464.588 27.2254 464.978 27.3807C465.369 27.536 465.73 27.7405 466.064 27.9943C466.397 28.2481 466.666 28.5625 466.87 28.9375C467.079 29.3125 467.183 29.7614 467.183 30.2841C467.183 30.9432 467.012 31.5284 466.672 32.0398C466.334 32.5511 465.844 32.9545 465.2 33.25C464.56 33.5455 463.785 33.6932 462.876 33.6932C462.005 33.6932 461.251 33.5549 460.615 33.2784C459.978 33.0019 459.48 32.6098 459.12 32.1023C458.761 31.5909 458.562 30.9848 458.524 30.2841H460.285C460.319 30.7045 460.456 31.0549 460.694 31.3352C460.937 31.6117 461.245 31.8182 461.62 31.9545C461.999 32.0871 462.414 32.1534 462.865 32.1534C463.361 32.1534 463.802 32.0758 464.189 31.9205C464.579 31.7614 464.886 31.5417 465.109 31.2614C465.333 30.9773 465.444 30.6458 465.444 30.267C465.444 29.9223 465.346 29.6402 465.149 29.4205C464.956 29.2008 464.692 29.0189 464.359 28.875C464.029 28.7311 463.656 28.6042 463.24 28.4943L461.865 28.1193C460.933 27.8655 460.194 27.4924 459.649 27C459.107 26.5076 458.836 25.8561 458.836 25.0455C458.836 24.375 459.018 23.7898 459.382 23.2898C459.745 22.7898 460.238 22.4015 460.859 22.125C461.48 21.8447 462.181 21.7045 462.961 21.7045C463.749 21.7045 464.444 21.8428 465.047 22.1193C465.653 22.3958 466.13 22.7765 466.478 23.2614C466.827 23.7424 467.009 24.2955 467.024 24.9205H465.331ZM474.353 29.8807V24.7727H476.057V33.5H474.387V31.9886H474.296C474.095 32.4545 473.773 32.8428 473.33 33.1534C472.891 33.4602 472.343 33.6136 471.688 33.6136C471.128 33.6136 470.631 33.4905 470.2 33.2443C469.772 32.9943 469.434 32.625 469.188 32.1364C468.946 31.6477 468.825 31.0436 468.825 30.3239V24.7727H470.523V30.1193C470.523 30.714 470.688 31.1875 471.018 31.5398C471.347 31.892 471.775 32.0682 472.302 32.0682C472.62 32.0682 472.936 31.9886 473.251 31.8295C473.569 31.6705 473.832 31.4299 474.04 31.108C474.253 30.786 474.357 30.3769 474.353 29.8807ZM478.02 33.5V24.7727H479.662V26.1591H479.753C479.912 25.6894 480.193 25.3201 480.594 25.0511C480.999 24.7784 481.458 24.642 481.969 24.642C482.075 24.642 482.2 24.6458 482.344 24.6534C482.492 24.661 482.607 24.6705 482.691 24.6818V26.3068C482.622 26.2879 482.501 26.267 482.327 26.2443C482.153 26.2178 481.979 26.2045 481.804 26.2045C481.403 26.2045 481.045 26.2898 480.73 26.4602C480.42 26.6269 480.174 26.8598 479.992 27.1591C479.81 27.4545 479.719 27.7917 479.719 28.1705V33.5H478.02ZM491.572 24.7727L488.408 33.5H486.589L483.419 24.7727H485.243L487.453 31.4886H487.544L489.748 24.7727H491.572ZM496.313 33.6761C495.454 33.6761 494.713 33.4924 494.092 33.125C493.474 32.7538 492.997 32.233 492.66 31.5625C492.327 30.8883 492.16 30.0985 492.16 29.1932C492.16 28.2992 492.327 27.5114 492.66 26.8295C492.997 26.1477 493.467 25.6155 494.069 25.233C494.675 24.8504 495.383 24.6591 496.194 24.6591C496.687 24.6591 497.164 24.7405 497.626 24.9034C498.088 25.0663 498.503 25.322 498.87 25.6705C499.238 26.0189 499.527 26.4716 499.74 27.0284C499.952 27.5814 500.058 28.2538 500.058 29.0455V29.6477H493.12V28.375H498.393C498.393 27.928 498.302 27.5322 498.12 27.1875C497.938 26.839 497.683 26.5644 497.353 26.3636C497.027 26.1629 496.645 26.0625 496.205 26.0625C495.728 26.0625 495.312 26.1799 494.955 26.4148C494.603 26.6458 494.33 26.9489 494.137 27.3239C493.948 27.6951 493.853 28.0985 493.853 28.5341V29.5284C493.853 30.1117 493.955 30.608 494.16 31.017C494.368 31.4261 494.658 31.7386 495.029 31.9545C495.401 32.1667 495.834 32.2727 496.33 32.2727C496.652 32.2727 496.946 32.2273 497.211 32.1364C497.476 32.0417 497.705 31.9015 497.899 31.7159C498.092 31.5303 498.24 31.3011 498.342 31.0284L499.95 31.3182C499.821 31.7917 499.59 32.2064 499.257 32.5625C498.927 32.9148 498.512 33.1894 498.012 33.3864C497.516 33.5795 496.95 33.6761 496.313 33.6761ZM502.447 36.7727C502.193 36.7727 501.962 36.7519 501.753 36.7102C501.545 36.6723 501.39 36.6307 501.287 36.5852L501.697 35.1932C502.007 35.2765 502.284 35.3125 502.526 35.3011C502.769 35.2898 502.983 35.1989 503.168 35.0284C503.358 34.858 503.524 34.5795 503.668 34.1932L503.878 33.6136L500.685 24.7727H502.503L504.714 31.5455H504.804L507.015 24.7727H508.839L505.242 34.6648C505.075 35.1193 504.863 35.5038 504.606 35.8182C504.348 36.1364 504.041 36.375 503.685 36.5341C503.329 36.6932 502.916 36.7727 502.447 36.7727ZM514.166 33.5V21.8636H521.382V23.375H515.922V26.9205H520.865V28.4261H515.922V33.5H514.166ZM528.066 29.8807V24.7727H529.771V33.5H528.1V31.9886H528.009C527.809 32.4545 527.487 32.8428 527.043 33.1534C526.604 33.4602 526.057 33.6136 525.401 33.6136C524.841 33.6136 524.344 33.4905 523.913 33.2443C523.485 32.9943 523.148 32.625 522.901 32.1364C522.659 31.6477 522.538 31.0436 522.538 30.3239V24.7727H524.237V30.1193C524.237 30.714 524.401 31.1875 524.731 31.5398C525.06 31.892 525.488 32.0682 526.015 32.0682C526.333 32.0682 526.649 31.9886 526.964 31.8295C527.282 31.6705 527.545 31.4299 527.754 31.108C527.966 30.786 528.07 30.3769 528.066 29.8807ZM533.432 28.3182V33.5H531.733V24.7727H533.364V26.1932H533.472C533.673 25.7311 533.987 25.3598 534.415 25.0795C534.847 24.7992 535.39 24.6591 536.046 24.6591C536.64 24.6591 537.161 24.7841 537.608 25.0341C538.055 25.2803 538.402 25.6477 538.648 26.1364C538.894 26.625 539.017 27.2292 539.017 27.9489V33.5H537.319V28.1534C537.319 27.5208 537.154 27.0265 536.824 26.6705C536.495 26.3106 536.042 26.1307 535.466 26.1307C535.072 26.1307 534.722 26.2159 534.415 26.3864C534.112 26.5568 533.872 26.8068 533.694 27.1364C533.519 27.4621 533.432 27.8561 533.432 28.3182ZM544.652 33.6761C543.807 33.6761 543.08 33.4848 542.47 33.1023C541.864 32.7159 541.398 32.1837 541.072 31.5057C540.747 30.8277 540.584 30.0511 540.584 29.1761C540.584 28.2898 540.75 27.5076 541.084 26.8295C541.417 26.1477 541.887 25.6155 542.493 25.233C543.099 24.8504 543.813 24.6591 544.635 24.6591C545.298 24.6591 545.889 24.7822 546.408 25.0284C546.927 25.2708 547.345 25.6117 547.663 26.0511C547.985 26.4905 548.177 27.0038 548.237 27.5909H546.584C546.493 27.1818 546.285 26.8295 545.959 26.5341C545.637 26.2386 545.205 26.0909 544.663 26.0909C544.19 26.0909 543.775 26.2159 543.419 26.4659C543.067 26.7121 542.792 27.0644 542.595 27.5227C542.398 27.9773 542.3 28.5152 542.3 29.1364C542.3 29.7727 542.396 30.322 542.589 30.7841C542.783 31.2462 543.055 31.6042 543.408 31.858C543.764 32.1117 544.182 32.2386 544.663 32.2386C544.985 32.2386 545.277 32.1799 545.538 32.0625C545.803 31.9413 546.025 31.7689 546.203 31.5455C546.385 31.322 546.512 31.053 546.584 30.7386H548.237C548.177 31.303 547.993 31.8068 547.686 32.25C547.379 32.6932 546.968 33.0417 546.453 33.2955C545.942 33.5492 545.341 33.6761 544.652 33.6761ZM553.808 24.7727V26.1364H549.041V24.7727H553.808ZM550.319 22.6818H552.018V30.9375C552.018 31.267 552.067 31.5152 552.166 31.6818C552.264 31.8447 552.391 31.9564 552.546 32.017C552.706 32.0739 552.878 32.1023 553.063 32.1023C553.2 32.1023 553.319 32.0928 553.421 32.0739C553.524 32.0549 553.603 32.0398 553.66 32.0284L553.967 33.4318C553.868 33.4697 553.728 33.5076 553.546 33.5455C553.365 33.5871 553.137 33.6098 552.865 33.6136C552.418 33.6212 552.001 33.5417 551.615 33.375C551.228 33.2083 550.916 32.9508 550.677 32.6023C550.438 32.2538 550.319 31.8163 550.319 31.2898V22.6818ZM555.367 33.5V24.7727H557.066V33.5H555.367ZM556.225 23.4261C555.93 23.4261 555.676 23.3277 555.464 23.1307C555.255 22.9299 555.151 22.6913 555.151 22.4148C555.151 22.1345 555.255 21.8958 555.464 21.6989C555.676 21.4981 555.93 21.3977 556.225 21.3977C556.52 21.3977 556.772 21.4981 556.981 21.6989C557.193 21.8958 557.299 22.1345 557.299 22.4148C557.299 22.6913 557.193 22.9299 556.981 23.1307C556.772 23.3277 556.52 23.4261 556.225 23.4261ZM562.708 33.6761C561.889 33.6761 561.175 33.4886 560.566 33.1136C559.956 32.7386 559.482 32.214 559.145 31.5398C558.808 30.8655 558.639 30.0777 558.639 29.1761C558.639 28.2708 558.808 27.4792 559.145 26.8011C559.482 26.1231 559.956 25.5966 560.566 25.2216C561.175 24.8466 561.889 24.6591 562.708 24.6591C563.526 24.6591 564.24 24.8466 564.85 25.2216C565.459 25.5966 565.933 26.1231 566.27 26.8011C566.607 27.4792 566.776 28.2708 566.776 29.1761C566.776 30.0777 566.607 30.8655 566.27 31.5398C565.933 32.214 565.459 32.7386 564.85 33.1136C564.24 33.4886 563.526 33.6761 562.708 33.6761ZM562.713 32.25C563.244 32.25 563.683 32.1098 564.031 31.8295C564.38 31.5492 564.637 31.1761 564.804 30.7102C564.975 30.2443 565.06 29.7311 565.06 29.1705C565.06 28.6136 564.975 28.1023 564.804 27.6364C564.637 27.1667 564.38 26.7898 564.031 26.5057C563.683 26.2216 563.244 26.0795 562.713 26.0795C562.179 26.0795 561.736 26.2216 561.384 26.5057C561.035 26.7898 560.776 27.1667 560.605 27.6364C560.439 28.1023 560.355 28.6136 560.355 29.1705C560.355 29.7311 560.439 30.2443 560.605 30.7102C560.776 31.1761 561.035 31.5492 561.384 31.8295C561.736 32.1098 562.179 32.25 562.713 32.25ZM570.051 28.3182V33.5H568.352V24.7727H569.983V26.1932H570.091C570.291 25.7311 570.606 25.3598 571.034 25.0795C571.466 24.7992 572.009 24.6591 572.665 24.6591C573.259 24.6591 573.78 24.7841 574.227 25.0341C574.674 25.2803 575.021 25.6477 575.267 26.1364C575.513 26.625 575.636 27.2292 575.636 27.9489V33.5H573.937V28.1534C573.937 27.5208 573.773 27.0265 573.443 26.6705C573.113 26.3106 572.661 26.1307 572.085 26.1307C571.691 26.1307 571.341 26.2159 571.034 26.3864C570.731 26.5568 570.49 26.8068 570.312 27.1364C570.138 27.4621 570.051 27.8561 570.051 28.3182ZM580.134 33.6932C579.581 33.6932 579.081 33.5909 578.634 33.3864C578.187 33.178 577.833 32.8769 577.572 32.483C577.314 32.089 577.185 31.6061 577.185 31.0341C577.185 30.5417 577.28 30.1364 577.47 29.8182C577.659 29.5 577.915 29.2481 578.237 29.0625C578.559 28.8769 578.918 28.7367 579.316 28.642C579.714 28.5473 580.119 28.4754 580.532 28.4261C581.055 28.3655 581.479 28.3163 581.805 28.2784C582.131 28.2367 582.367 28.1705 582.515 28.0795C582.663 27.9886 582.737 27.8409 582.737 27.6364V27.5966C582.737 27.1004 582.596 26.7159 582.316 26.4432C582.04 26.1705 581.627 26.0341 581.077 26.0341C580.506 26.0341 580.055 26.161 579.725 26.4148C579.399 26.6648 579.174 26.9432 579.049 27.25L577.452 26.8864C577.642 26.3561 577.918 25.928 578.282 25.6023C578.649 25.2727 579.072 25.0341 579.549 24.8864C580.026 24.7348 580.528 24.6591 581.055 24.6591C581.403 24.6591 581.773 24.7008 582.163 24.7841C582.557 24.8636 582.924 25.0114 583.265 25.2273C583.61 25.4432 583.892 25.7519 584.112 26.1534C584.331 26.5511 584.441 27.0682 584.441 27.7045V33.5H582.782V32.3068H582.714C582.604 32.5265 582.439 32.7424 582.22 32.9545C582 33.1667 581.718 33.3428 581.373 33.483C581.028 33.6231 580.615 33.6932 580.134 33.6932ZM580.504 32.3295C580.973 32.3295 581.375 32.2367 581.708 32.0511C582.045 31.8655 582.301 31.6231 582.475 31.3239C582.653 31.0208 582.742 30.697 582.742 30.3523V29.2273C582.682 29.2879 582.564 29.3447 582.39 29.3977C582.22 29.447 582.024 29.4905 581.805 29.5284C581.585 29.5625 581.371 29.5947 581.163 29.625C580.954 29.6515 580.78 29.6742 580.64 29.6932C580.31 29.7348 580.009 29.8049 579.737 29.9034C579.468 30.0019 579.252 30.1439 579.089 30.3295C578.93 30.5114 578.85 30.7538 578.85 31.0568C578.85 31.4773 579.006 31.7955 579.316 32.0114C579.627 32.2235 580.023 32.3295 580.504 32.3295ZM588.083 21.8636V33.5H586.384V21.8636H588.083ZM590.048 33.5V24.7727H591.747V33.5H590.048ZM590.906 23.4261C590.611 23.4261 590.357 23.3277 590.145 23.1307C589.937 22.9299 589.832 22.6913 589.832 22.4148C589.832 22.1345 589.937 21.8958 590.145 21.6989C590.357 21.4981 590.611 21.3977 590.906 21.3977C591.202 21.3977 591.454 21.4981 591.662 21.6989C591.874 21.8958 591.98 22.1345 591.98 22.4148C591.98 22.6913 591.874 22.9299 591.662 23.1307C591.454 23.3277 591.202 23.4261 590.906 23.4261ZM597.787 24.7727V26.1364H593.019V24.7727H597.787ZM594.298 22.6818H595.997V30.9375C595.997 31.267 596.046 31.5152 596.144 31.6818C596.243 31.8447 596.37 31.9564 596.525 32.017C596.684 32.0739 596.857 32.1023 597.042 32.1023C597.179 32.1023 597.298 32.0928 597.4 32.0739C597.502 32.0549 597.582 32.0398 597.639 32.0284L597.946 33.4318C597.847 33.4697 597.707 33.5076 597.525 33.5455C597.343 33.5871 597.116 33.6098 596.843 33.6136C596.396 33.6212 595.98 33.5417 595.593 33.375C595.207 33.2083 594.894 32.9508 594.656 32.6023C594.417 32.2538 594.298 31.8163 594.298 31.2898V22.6818ZM600.42 36.7727C600.166 36.7727 599.935 36.7519 599.726 36.7102C599.518 36.6723 599.363 36.6307 599.261 36.5852L599.67 35.1932C599.98 35.2765 600.257 35.3125 600.499 35.3011C600.742 35.2898 600.956 35.1989 601.141 35.0284C601.331 34.858 601.497 34.5795 601.641 34.1932L601.851 33.6136L598.658 24.7727H600.476L602.687 31.5455H602.778L604.988 24.7727H606.812L603.215 34.6648C603.048 35.1193 602.836 35.5038 602.579 35.8182C602.321 36.1364 602.014 36.375 601.658 36.5341C601.302 36.6932 600.889 36.7727 600.42 36.7727Z" fill="black"/>
<mask id="path-7-inside-3_7559_37121" fill="white">
<path d="M773 6C773 2.68629 775.686 0 779 0H998C1001.31 0 1004 2.68629 1004 6V49C1004 52.3137 1001.31 55 998 55H779C775.686 55 773 52.3137 773 49V6Z"/>
</mask>
<path d="M773 6C773 2.68629 775.686 0 779 0H998C1001.31 0 1004 2.68629 1004 6V49C1004 52.3137 1001.31 55 998 55H779C775.686 55 773 52.3137 773 49V6Z" fill="white"/>
<path d="M773 0H1004H773ZM1004 55H773H1004ZM779 55C774.029 55 770 50.9706 770 46V9C770 4.02944 774.029 0 779 0C777.343 0 776 2.68629 776 6V49C776 52.3137 777.343 55 779 55ZM1004 0V55V0Z" fill="#9D50BB" mask="url(#path-7-inside-3_7559_37121)"/>
<path d="M795.261 33.5H793.398L797.585 21.8636H799.614L803.801 33.5H801.938L798.648 23.9773H798.557L795.261 33.5ZM795.574 28.9432H801.619V30.4205H795.574V28.9432ZM810.554 29.8807V24.7727H812.258V33.5H810.588V31.9886H810.497C810.296 32.4545 809.974 32.8428 809.531 33.1534C809.091 33.4602 808.544 33.6136 807.889 33.6136C807.328 33.6136 806.832 33.4905 806.4 33.2443C805.972 32.9943 805.635 32.625 805.389 32.1364C805.146 31.6477 805.025 31.0436 805.025 30.3239V24.7727H806.724V30.1193C806.724 30.714 806.889 31.1875 807.218 31.5398C807.548 31.892 807.976 32.0682 808.502 32.0682C808.821 32.0682 809.137 31.9886 809.451 31.8295C809.769 31.6705 810.033 31.4299 810.241 31.108C810.453 30.786 810.557 30.3769 810.554 29.8807ZM818.295 24.7727V26.1364H813.528V24.7727H818.295ZM814.806 22.6818H816.505V30.9375C816.505 31.267 816.554 31.5152 816.653 31.6818C816.751 31.8447 816.878 31.9564 817.033 32.017C817.192 32.0739 817.365 32.1023 817.55 32.1023C817.687 32.1023 817.806 32.0928 817.908 32.0739C818.011 32.0549 818.09 32.0398 818.147 32.0284L818.454 33.4318C818.355 33.4697 818.215 33.5076 818.033 33.5455C817.851 33.5871 817.624 33.6098 817.351 33.6136C816.905 33.6212 816.488 33.5417 816.101 33.375C815.715 33.2083 815.403 32.9508 815.164 32.6023C814.925 32.2538 814.806 31.8163 814.806 31.2898V22.6818ZM823.436 33.6761C822.618 33.6761 821.904 33.4886 821.294 33.1136C820.684 32.7386 820.211 32.214 819.874 31.5398C819.537 30.8655 819.368 30.0777 819.368 29.1761C819.368 28.2708 819.537 27.4792 819.874 26.8011C820.211 26.1231 820.684 25.5966 821.294 25.2216C821.904 24.8466 822.618 24.6591 823.436 24.6591C824.254 24.6591 824.969 24.8466 825.578 25.2216C826.188 25.5966 826.662 26.1231 826.999 26.8011C827.336 27.4792 827.504 28.2708 827.504 29.1761C827.504 30.0777 827.336 30.8655 826.999 31.5398C826.662 32.214 826.188 32.7386 825.578 33.1136C824.969 33.4886 824.254 33.6761 823.436 33.6761ZM823.442 32.25C823.972 32.25 824.412 32.1098 824.76 31.8295C825.109 31.5492 825.366 31.1761 825.533 30.7102C825.703 30.2443 825.789 29.7311 825.789 29.1705C825.789 28.6136 825.703 28.1023 825.533 27.6364C825.366 27.1667 825.109 26.7898 824.76 26.5057C824.412 26.2216 823.972 26.0795 823.442 26.0795C822.908 26.0795 822.465 26.2216 822.112 26.5057C821.764 26.7898 821.504 27.1667 821.334 27.6364C821.167 28.1023 821.084 28.6136 821.084 29.1705C821.084 29.7311 821.167 30.2443 821.334 30.7102C821.504 31.1761 821.764 31.5492 822.112 31.8295C822.465 32.1098 822.908 32.25 823.442 32.25ZM829.081 33.5V24.7727H830.711V26.1932H830.819C831.001 25.7121 831.299 25.3371 831.711 25.0682C832.124 24.7955 832.619 24.6591 833.194 24.6591C833.778 24.6591 834.266 24.7955 834.66 25.0682C835.058 25.3409 835.352 25.7159 835.541 26.1932H835.632C835.84 25.7273 836.172 25.3561 836.626 25.0795C837.081 24.7992 837.622 24.6591 838.251 24.6591C839.043 24.6591 839.689 24.9072 840.189 25.4034C840.693 25.8996 840.944 26.6477 840.944 27.6477V33.5H839.246V27.8068C839.246 27.2159 839.085 26.7879 838.763 26.5227C838.441 26.2576 838.056 26.125 837.609 26.125C837.056 26.125 836.626 26.2955 836.319 26.6364C836.013 26.9735 835.859 27.4072 835.859 27.9375V33.5H834.166V27.6989C834.166 27.2254 834.018 26.8447 833.723 26.5568C833.427 26.2689 833.043 26.125 832.569 26.125C832.247 26.125 831.95 26.2102 831.677 26.3807C831.408 26.5473 831.191 26.7803 831.024 27.0795C830.861 27.3788 830.78 27.7254 830.78 28.1193V33.5H829.081ZM845.441 33.6932C844.888 33.6932 844.388 33.5909 843.941 33.3864C843.494 33.178 843.14 32.8769 842.879 32.483C842.621 32.089 842.492 31.6061 842.492 31.0341C842.492 30.5417 842.587 30.1364 842.776 29.8182C842.966 29.5 843.221 29.2481 843.543 29.0625C843.865 28.8769 844.225 28.7367 844.623 28.642C845.021 28.5473 845.426 28.4754 845.839 28.4261C846.362 28.3655 846.786 28.3163 847.112 28.2784C847.437 28.2367 847.674 28.1705 847.822 28.0795C847.97 27.9886 848.043 27.8409 848.043 27.6364V27.5966C848.043 27.1004 847.903 26.7159 847.623 26.4432C847.346 26.1705 846.934 26.0341 846.384 26.0341C845.812 26.0341 845.362 26.161 845.032 26.4148C844.706 26.6648 844.481 26.9432 844.356 27.25L842.759 26.8864C842.949 26.3561 843.225 25.928 843.589 25.6023C843.956 25.2727 844.379 25.0341 844.856 24.8864C845.333 24.7348 845.835 24.6591 846.362 24.6591C846.71 24.6591 847.079 24.7008 847.47 24.7841C847.864 24.8636 848.231 25.0114 848.572 25.2273C848.917 25.4432 849.199 25.7519 849.418 26.1534C849.638 26.5511 849.748 27.0682 849.748 27.7045V33.5H848.089V32.3068H848.021C847.911 32.5265 847.746 32.7424 847.526 32.9545C847.307 33.1667 847.025 33.3428 846.68 33.483C846.335 33.6231 845.922 33.6932 845.441 33.6932ZM845.811 32.3295C846.28 32.3295 846.682 32.2367 847.015 32.0511C847.352 31.8655 847.608 31.6231 847.782 31.3239C847.96 31.0208 848.049 30.697 848.049 30.3523V29.2273C847.989 29.2879 847.871 29.3447 847.697 29.3977C847.526 29.447 847.331 29.4905 847.112 29.5284C846.892 29.5625 846.678 29.5947 846.47 29.625C846.261 29.6515 846.087 29.6742 845.947 29.6932C845.617 29.7348 845.316 29.8049 845.043 29.9034C844.775 30.0019 844.559 30.1439 844.396 30.3295C844.237 30.5114 844.157 30.7538 844.157 31.0568C844.157 31.4773 844.312 31.7955 844.623 32.0114C844.934 32.2235 845.329 32.3295 845.811 32.3295ZM855.765 24.7727V26.1364H850.998V24.7727H855.765ZM852.276 22.6818H853.975V30.9375C853.975 31.267 854.024 31.5152 854.123 31.6818C854.221 31.8447 854.348 31.9564 854.503 32.017C854.662 32.0739 854.835 32.1023 855.02 32.1023C855.157 32.1023 855.276 32.0928 855.378 32.0739C855.481 32.0549 855.56 32.0398 855.617 32.0284L855.924 33.4318C855.825 33.4697 855.685 33.5076 855.503 33.5455C855.321 33.5871 855.094 33.6098 854.821 33.6136C854.375 33.6212 853.958 33.5417 853.571 33.375C853.185 33.2083 852.873 32.9508 852.634 32.6023C852.395 32.2538 852.276 31.8163 852.276 31.2898V22.6818ZM857.324 33.5V24.7727H859.023V33.5H857.324ZM858.182 23.4261C857.886 23.4261 857.633 23.3277 857.421 23.1307C857.212 22.9299 857.108 22.6913 857.108 22.4148C857.108 22.1345 857.212 21.8958 857.421 21.6989C857.633 21.4981 857.886 21.3977 858.182 21.3977C858.477 21.3977 858.729 21.4981 858.938 21.6989C859.15 21.8958 859.256 22.1345 859.256 22.4148C859.256 22.6913 859.15 22.9299 858.938 23.1307C858.729 23.3277 858.477 23.4261 858.182 23.4261ZM864.664 33.6761C863.82 33.6761 863.092 33.4848 862.483 33.1023C861.877 32.7159 861.411 32.1837 861.085 31.5057C860.759 30.8277 860.596 30.0511 860.596 29.1761C860.596 28.2898 860.763 27.5076 861.096 26.8295C861.43 26.1477 861.899 25.6155 862.505 25.233C863.111 24.8504 863.825 24.6591 864.647 24.6591C865.31 24.6591 865.901 24.7822 866.42 25.0284C866.939 25.2708 867.358 25.6117 867.676 26.0511C867.998 26.4905 868.189 27.0038 868.25 27.5909H866.596C866.505 27.1818 866.297 26.8295 865.971 26.5341C865.649 26.2386 865.217 26.0909 864.676 26.0909C864.202 26.0909 863.788 26.2159 863.431 26.4659C863.079 26.7121 862.805 27.0644 862.608 27.5227C862.411 27.9773 862.312 28.5152 862.312 29.1364C862.312 29.7727 862.409 30.322 862.602 30.7841C862.795 31.2462 863.068 31.6042 863.42 31.858C863.776 32.1117 864.195 32.2386 864.676 32.2386C864.998 32.2386 865.289 32.1799 865.551 32.0625C865.816 31.9413 866.038 31.7689 866.216 31.5455C866.397 31.322 866.524 31.053 866.596 30.7386H868.25C868.189 31.303 868.005 31.8068 867.699 32.25C867.392 32.6932 866.981 33.0417 866.466 33.2955C865.954 33.5492 865.354 33.6761 864.664 33.6761ZM877.564 33.5H873.797V21.8636H877.684C878.824 21.8636 879.803 22.0966 880.621 22.5625C881.439 23.0246 882.066 23.6894 882.502 24.5568C882.941 25.4205 883.161 26.4564 883.161 27.6648C883.161 28.8769 882.939 29.9186 882.496 30.7898C882.057 31.661 881.42 32.3314 880.587 32.8011C879.754 33.267 878.746 33.5 877.564 33.5ZM875.553 31.9659H877.468C878.354 31.9659 879.091 31.7992 879.678 31.4659C880.265 31.1288 880.704 30.642 880.996 30.0057C881.288 29.3655 881.434 28.5852 881.434 27.6648C881.434 26.7519 881.288 25.9773 880.996 25.3409C880.708 24.7045 880.278 24.2216 879.706 23.892C879.134 23.5625 878.424 23.3977 877.576 23.3977H875.553V31.9659ZM887.427 33.6932C886.874 33.6932 886.374 33.5909 885.927 33.3864C885.48 33.178 885.126 32.8769 884.865 32.483C884.607 32.089 884.479 31.6061 884.479 31.0341C884.479 30.5417 884.573 30.1364 884.763 29.8182C884.952 29.5 885.208 29.2481 885.53 29.0625C885.852 28.8769 886.212 28.7367 886.609 28.642C887.007 28.5473 887.412 28.4754 887.825 28.4261C888.348 28.3655 888.772 28.3163 889.098 28.2784C889.424 28.2367 889.66 28.1705 889.808 28.0795C889.956 27.9886 890.03 27.8409 890.03 27.6364V27.5966C890.03 27.1004 889.89 26.7159 889.609 26.4432C889.333 26.1705 888.92 26.0341 888.371 26.0341C887.799 26.0341 887.348 26.161 887.018 26.4148C886.693 26.6648 886.467 26.9432 886.342 27.25L884.746 26.8864C884.935 26.3561 885.212 25.928 885.575 25.6023C885.943 25.2727 886.365 25.0341 886.842 24.8864C887.319 24.7348 887.821 24.6591 888.348 24.6591C888.696 24.6591 889.066 24.7008 889.456 24.7841C889.85 24.8636 890.217 25.0114 890.558 25.2273C890.903 25.4432 891.185 25.7519 891.405 26.1534C891.624 26.5511 891.734 27.0682 891.734 27.7045V33.5H890.075V32.3068H890.007C889.897 32.5265 889.732 32.7424 889.513 32.9545C889.293 33.1667 889.011 33.3428 888.666 33.483C888.321 33.6231 887.909 33.6932 887.427 33.6932ZM887.797 32.3295C888.266 32.3295 888.668 32.2367 889.001 32.0511C889.338 31.8655 889.594 31.6231 889.768 31.3239C889.946 31.0208 890.035 30.697 890.035 30.3523V29.2273C889.975 29.2879 889.857 29.3447 889.683 29.3977C889.513 29.447 889.318 29.4905 889.098 29.5284C888.878 29.5625 888.664 29.5947 888.456 29.625C888.248 29.6515 888.073 29.6742 887.933 29.6932C887.604 29.7348 887.302 29.8049 887.03 29.9034C886.761 30.0019 886.545 30.1439 886.382 30.3295C886.223 30.5114 886.143 30.7538 886.143 31.0568C886.143 31.4773 886.299 31.7955 886.609 32.0114C886.92 32.2235 887.316 32.3295 887.797 32.3295ZM897.751 24.7727V26.1364H892.984V24.7727H897.751ZM894.262 22.6818H895.961V30.9375C895.961 31.267 896.01 31.5152 896.109 31.6818C896.207 31.8447 896.334 31.9564 896.49 32.017C896.649 32.0739 896.821 32.1023 897.007 32.1023C897.143 32.1023 897.262 32.0928 897.365 32.0739C897.467 32.0549 897.546 32.0398 897.603 32.0284L897.91 33.4318C897.812 33.4697 897.671 33.5076 897.49 33.5455C897.308 33.5871 897.08 33.6098 896.808 33.6136C896.361 33.6212 895.944 33.5417 895.558 33.375C895.171 33.2083 894.859 32.9508 894.62 32.6023C894.382 32.2538 894.262 31.8163 894.262 31.2898V22.6818ZM901.85 33.6932C901.297 33.6932 900.797 33.5909 900.35 33.3864C899.903 33.178 899.549 32.8769 899.287 32.483C899.03 32.089 898.901 31.6061 898.901 31.0341C898.901 30.5417 898.996 30.1364 899.185 29.8182C899.375 29.5 899.63 29.2481 899.952 29.0625C900.274 28.8769 900.634 28.7367 901.032 28.642C901.429 28.5473 901.835 28.4754 902.248 28.4261C902.77 28.3655 903.195 28.3163 903.52 28.2784C903.846 28.2367 904.083 28.1705 904.231 28.0795C904.378 27.9886 904.452 27.8409 904.452 27.6364V27.5966C904.452 27.1004 904.312 26.7159 904.032 26.4432C903.755 26.1705 903.342 26.0341 902.793 26.0341C902.221 26.0341 901.77 26.161 901.441 26.4148C901.115 26.6648 900.89 26.9432 900.765 27.25L899.168 26.8864C899.358 26.3561 899.634 25.928 899.998 25.6023C900.365 25.2727 900.787 25.0341 901.265 24.8864C901.742 24.7348 902.244 24.6591 902.77 24.6591C903.119 24.6591 903.488 24.7008 903.878 24.7841C904.272 24.8636 904.64 25.0114 904.981 25.2273C905.325 25.4432 905.608 25.7519 905.827 26.1534C906.047 26.5511 906.157 27.0682 906.157 27.7045V33.5H904.498V32.3068H904.429C904.32 32.5265 904.155 32.7424 903.935 32.9545C903.715 33.1667 903.433 33.3428 903.089 33.483C902.744 33.6231 902.331 33.6932 901.85 33.6932ZM902.219 32.3295C902.689 32.3295 903.09 32.2367 903.424 32.0511C903.761 31.8655 904.017 31.6231 904.191 31.3239C904.369 31.0208 904.458 30.697 904.458 30.3523V29.2273C904.397 29.2879 904.28 29.3447 904.106 29.3977C903.935 29.447 903.74 29.4905 903.52 29.5284C903.301 29.5625 903.087 29.5947 902.878 29.625C902.67 29.6515 902.496 29.6742 902.356 29.6932C902.026 29.7348 901.725 29.8049 901.452 29.9034C901.183 30.0019 900.967 30.1439 900.804 30.3295C900.645 30.5114 900.566 30.7538 900.566 31.0568C900.566 31.4773 900.721 31.7955 901.032 32.0114C901.342 32.2235 901.738 32.3295 902.219 32.3295ZM913.167 21.8636L916.406 31.3409H916.537L919.775 21.8636H921.673L917.486 33.5H915.457L911.27 21.8636H913.167ZM924.577 33.6932C924.024 33.6932 923.524 33.5909 923.077 33.3864C922.63 33.178 922.276 32.8769 922.015 32.483C921.757 32.089 921.629 31.6061 921.629 31.0341C921.629 30.5417 921.723 30.1364 921.913 29.8182C922.102 29.5 922.358 29.2481 922.68 29.0625C923.002 28.8769 923.362 28.7367 923.759 28.642C924.157 28.5473 924.562 28.4754 924.975 28.4261C925.498 28.3655 925.922 28.3163 926.248 28.2784C926.574 28.2367 926.81 28.1705 926.958 28.0795C927.106 27.9886 927.18 27.8409 927.18 27.6364V27.5966C927.18 27.1004 927.04 26.7159 926.759 26.4432C926.483 26.1705 926.07 26.0341 925.521 26.0341C924.949 26.0341 924.498 26.161 924.168 26.4148C923.843 26.6648 923.617 26.9432 923.492 27.25L921.896 26.8864C922.085 26.3561 922.362 25.928 922.725 25.6023C923.093 25.2727 923.515 25.0341 923.992 24.8864C924.469 24.7348 924.971 24.6591 925.498 24.6591C925.846 24.6591 926.216 24.7008 926.606 24.7841C927 24.8636 927.367 25.0114 927.708 25.2273C928.053 25.4432 928.335 25.7519 928.555 26.1534C928.774 26.5511 928.884 27.0682 928.884 27.7045V33.5H927.225V32.3068H927.157C927.047 32.5265 926.882 32.7424 926.663 32.9545C926.443 33.1667 926.161 33.3428 925.816 33.483C925.471 33.6231 925.059 33.6932 924.577 33.6932ZM924.947 32.3295C925.416 32.3295 925.818 32.2367 926.151 32.0511C926.488 31.8655 926.744 31.6231 926.918 31.3239C927.096 31.0208 927.185 30.697 927.185 30.3523V29.2273C927.125 29.2879 927.007 29.3447 926.833 29.3977C926.663 29.447 926.468 29.4905 926.248 29.5284C926.028 29.5625 925.814 29.5947 925.606 29.625C925.398 29.6515 925.223 29.6742 925.083 29.6932C924.754 29.7348 924.452 29.8049 924.18 29.9034C923.911 30.0019 923.695 30.1439 923.532 30.3295C923.373 30.5114 923.293 30.7538 923.293 31.0568C923.293 31.4773 923.449 31.7955 923.759 32.0114C924.07 32.2235 924.466 32.3295 924.947 32.3295ZM932.526 21.8636V33.5H930.827V21.8636H932.526ZM934.491 33.5V24.7727H936.19V33.5H934.491ZM935.349 23.4261C935.054 23.4261 934.8 23.3277 934.588 23.1307C934.38 22.9299 934.276 22.6913 934.276 22.4148C934.276 22.1345 934.38 21.8958 934.588 21.6989C934.8 21.4981 935.054 21.3977 935.349 21.3977C935.645 21.3977 935.897 21.4981 936.105 21.6989C936.317 21.8958 936.423 22.1345 936.423 22.4148C936.423 22.6913 936.317 22.9299 936.105 23.1307C935.897 23.3277 935.645 23.4261 935.349 23.4261ZM941.423 33.6705C940.718 33.6705 940.09 33.4905 939.536 33.1307C938.987 32.767 938.555 32.25 938.241 31.5795C937.93 30.9053 937.775 30.0966 937.775 29.1534C937.775 28.2102 937.932 27.4034 938.247 26.733C938.565 26.0625 939 25.5492 939.554 25.1932C940.107 24.8371 940.733 24.6591 941.434 24.6591C941.976 24.6591 942.411 24.75 942.741 24.9318C943.074 25.1098 943.332 25.3182 943.514 25.5568C943.699 25.7955 943.843 26.0057 943.946 26.1875H944.048V21.8636H945.747V33.5H944.088V32.142H943.946C943.843 32.3277 943.696 32.5398 943.502 32.7784C943.313 33.017 943.052 33.2254 942.718 33.4034C942.385 33.5814 941.953 33.6705 941.423 33.6705ZM941.798 32.2216C942.286 32.2216 942.699 32.0928 943.036 31.8352C943.377 31.5739 943.635 31.2121 943.809 30.75C943.987 30.2879 944.076 29.75 944.076 29.1364C944.076 28.5303 943.989 28 943.815 27.5455C943.641 27.0909 943.385 26.7367 943.048 26.483C942.711 26.2292 942.294 26.1023 941.798 26.1023C941.286 26.1023 940.86 26.2348 940.519 26.5C940.179 26.7652 939.921 27.1269 939.747 27.5852C939.576 28.0436 939.491 28.5606 939.491 29.1364C939.491 29.7197 939.578 30.2443 939.752 30.7102C939.927 31.1761 940.184 31.5455 940.525 31.8182C940.87 32.0871 941.294 32.2216 941.798 32.2216ZM950.391 33.6932C949.838 33.6932 949.338 33.5909 948.891 33.3864C948.444 33.178 948.09 32.8769 947.829 32.483C947.571 32.089 947.442 31.6061 947.442 31.0341C947.442 30.5417 947.537 30.1364 947.726 29.8182C947.916 29.5 948.172 29.2481 948.493 29.0625C948.815 28.8769 949.175 28.7367 949.573 28.642C949.971 28.5473 950.376 28.4754 950.789 28.4261C951.312 28.3655 951.736 28.3163 952.062 28.2784C952.387 28.2367 952.624 28.1705 952.772 28.0795C952.92 27.9886 952.993 27.8409 952.993 27.6364V27.5966C952.993 27.1004 952.853 26.7159 952.573 26.4432C952.297 26.1705 951.884 26.0341 951.334 26.0341C950.762 26.0341 950.312 26.161 949.982 26.4148C949.656 26.6648 949.431 26.9432 949.306 27.25L947.709 26.8864C947.899 26.3561 948.175 25.928 948.539 25.6023C948.906 25.2727 949.329 25.0341 949.806 24.8864C950.283 24.7348 950.785 24.6591 951.312 24.6591C951.66 24.6591 952.029 24.7008 952.42 24.7841C952.814 24.8636 953.181 25.0114 953.522 25.2273C953.867 25.4432 954.149 25.7519 954.368 26.1534C954.588 26.5511 954.698 27.0682 954.698 27.7045V33.5H953.039V32.3068H952.971C952.861 32.5265 952.696 32.7424 952.476 32.9545C952.257 33.1667 951.975 33.3428 951.63 33.483C951.285 33.6231 950.872 33.6932 950.391 33.6932ZM950.761 32.3295C951.23 32.3295 951.632 32.2367 951.965 32.0511C952.302 31.8655 952.558 31.6231 952.732 31.3239C952.91 31.0208 952.999 30.697 952.999 30.3523V29.2273C952.939 29.2879 952.821 29.3447 952.647 29.3977C952.476 29.447 952.281 29.4905 952.062 29.5284C951.842 29.5625 951.628 29.5947 951.42 29.625C951.211 29.6515 951.037 29.6742 950.897 29.6932C950.567 29.7348 950.266 29.8049 949.993 29.9034C949.725 30.0019 949.509 30.1439 949.346 30.3295C949.187 30.5114 949.107 30.7538 949.107 31.0568C949.107 31.4773 949.262 31.7955 949.573 32.0114C949.884 32.2235 950.279 32.3295 950.761 32.3295ZM960.715 24.7727V26.1364H955.948V24.7727H960.715ZM957.226 22.6818H958.925V30.9375C958.925 31.267 958.974 31.5152 959.073 31.6818C959.171 31.8447 959.298 31.9564 959.453 32.017C959.612 32.0739 959.785 32.1023 959.97 32.1023C960.107 32.1023 960.226 32.0928 960.328 32.0739C960.431 32.0549 960.51 32.0398 960.567 32.0284L960.874 33.4318C960.775 33.4697 960.635 33.5076 960.453 33.5455C960.271 33.5871 960.044 33.6098 959.771 33.6136C959.325 33.6212 958.908 33.5417 958.521 33.375C958.135 33.2083 957.823 32.9508 957.584 32.6023C957.345 32.2538 957.226 31.8163 957.226 31.2898V22.6818ZM962.274 33.5V24.7727H963.973V33.5H962.274ZM963.132 23.4261C962.836 23.4261 962.583 23.3277 962.371 23.1307C962.162 22.9299 962.058 22.6913 962.058 22.4148C962.058 22.1345 962.162 21.8958 962.371 21.6989C962.583 21.4981 962.836 21.3977 963.132 21.3977C963.427 21.3977 963.679 21.4981 963.888 21.6989C964.1 21.8958 964.206 22.1345 964.206 22.4148C964.206 22.6913 964.1 22.9299 963.888 23.1307C963.679 23.3277 963.427 23.4261 963.132 23.4261ZM969.614 33.6761C968.796 33.6761 968.082 33.4886 967.472 33.1136C966.863 32.7386 966.389 32.214 966.052 31.5398C965.715 30.8655 965.546 30.0777 965.546 29.1761C965.546 28.2708 965.715 27.4792 966.052 26.8011C966.389 26.1231 966.863 25.5966 967.472 25.2216C968.082 24.8466 968.796 24.6591 969.614 24.6591C970.433 24.6591 971.147 24.8466 971.756 25.2216C972.366 25.5966 972.84 26.1231 973.177 26.8011C973.514 27.4792 973.683 28.2708 973.683 29.1761C973.683 30.0777 973.514 30.8655 973.177 31.5398C972.84 32.214 972.366 32.7386 971.756 33.1136C971.147 33.4886 970.433 33.6761 969.614 33.6761ZM969.62 32.25C970.15 32.25 970.59 32.1098 970.938 31.8295C971.287 31.5492 971.544 31.1761 971.711 30.7102C971.881 30.2443 971.967 29.7311 971.967 29.1705C971.967 28.6136 971.881 28.1023 971.711 27.6364C971.544 27.1667 971.287 26.7898 970.938 26.5057C970.59 26.2216 970.15 26.0795 969.62 26.0795C969.086 26.0795 968.643 26.2216 968.291 26.5057C967.942 26.7898 967.683 27.1667 967.512 27.6364C967.345 28.1023 967.262 28.6136 967.262 29.1705C967.262 29.7311 967.345 30.2443 967.512 30.7102C967.683 31.1761 967.942 31.5492 968.291 31.8295C968.643 32.1098 969.086 32.25 969.62 32.25ZM976.958 28.3182V33.5H975.259V24.7727H976.89V26.1932H976.998C977.198 25.7311 977.513 25.3598 977.941 25.0795C978.373 24.7992 978.916 24.6591 979.571 24.6591C980.166 24.6591 980.687 24.7841 981.134 25.0341C981.581 25.2803 981.927 25.6477 982.174 26.1364C982.42 26.625 982.543 27.2292 982.543 27.9489V33.5H980.844V28.1534C980.844 27.5208 980.679 27.0265 980.35 26.6705C980.02 26.3106 979.568 26.1307 978.992 26.1307C978.598 26.1307 978.248 26.2159 977.941 26.3864C977.638 26.5568 977.397 26.8068 977.219 27.1364C977.045 27.4621 976.958 27.8561 976.958 28.3182Z" fill="black"/>
<path d="M250 27H375" stroke="#DBB8FF" stroke-width="4" stroke-dasharray="10 10"/>
<path d="M638 27H763" stroke="#DBB8FF" stroke-width="4" stroke-dasharray="10 10"/>
</svg>
