<svg width="841" height="55" viewBox="0 0 841 55" fill="none" xmlns="http://www.w3.org/2000/svg">
<mask id="path-1-inside-1_7559_37100" fill="white">
<path d="M0 6C0 2.68629 2.68629 0 6 0H135C138.314 0 141 2.68629 141 6V49C141 52.3137 138.314 55 135 55H6C2.68629 55 0 52.3137 0 49V6Z"/>
</mask>
<path d="M0 6C0 2.68629 2.68629 0 6 0H135C138.314 0 141 2.68629 141 6V49C141 52.3137 138.314 55 135 55H6C2.68629 55 0 52.3137 0 49V6Z" fill="white"/>
<path d="M0 0H141H0ZM141 55H0H141ZM6 55C1.02944 55 -3 50.9706 -3 46V9C-3 4.02944 1.02944 0 6 0C4.34315 0 3 2.68629 3 6V49C3 52.3137 4.34315 55 6 55ZM141 0V55V0Z" fill="#9D50BB" mask="url(#path-1-inside-1_7559_37100)"/>
<path d="M22.2614 33.5H20.3977L24.5852 21.8636H26.6136L30.8011 33.5H28.9375L25.6477 23.9773H25.5568L22.2614 33.5ZM22.5739 28.9432H28.6193V30.4205H22.5739V28.9432ZM33.9172 21.8636V33.5H32.1615V21.8636H33.9172ZM47.9434 25.5398C47.8336 25.1951 47.6858 24.8864 47.5002 24.6136C47.3184 24.3371 47.1006 24.1023 46.8468 23.9091C46.593 23.7121 46.3033 23.5625 45.9775 23.4602C45.6555 23.358 45.3014 23.3068 44.915 23.3068C44.2597 23.3068 43.6688 23.4754 43.1423 23.8125C42.6158 24.1496 42.1991 24.6439 41.8923 25.2955C41.5892 25.9432 41.4377 26.7367 41.4377 27.6761C41.4377 28.6193 41.5911 29.4167 41.898 30.0682C42.2048 30.7197 42.6252 31.214 43.1593 31.5511C43.6934 31.8883 44.3014 32.0568 44.9832 32.0568C45.6158 32.0568 46.1669 31.928 46.6366 31.6705C47.1101 31.4129 47.4756 31.0492 47.7332 30.5795C47.9945 30.1061 48.1252 29.5492 48.1252 28.9091L48.5798 28.9943H45.2502V27.5455H49.8241V28.8693C49.8241 29.8466 49.6158 30.6951 49.1991 31.4148C48.7862 32.1307 48.2142 32.6837 47.4832 33.0739C46.7559 33.464 45.9226 33.6591 44.9832 33.6591C43.9302 33.6591 43.0059 33.4167 42.2105 32.9318C41.4188 32.447 40.8014 31.7595 40.3582 30.8693C39.915 29.9754 39.6934 28.9148 39.6934 27.6875C39.6934 26.7595 39.8222 25.9261 40.0798 25.1875C40.3373 24.4489 40.6991 23.822 41.165 23.3068C41.6347 22.7879 42.1858 22.392 42.8184 22.1193C43.4548 21.8428 44.1498 21.7045 44.9036 21.7045C45.5324 21.7045 46.1177 21.7973 46.6593 21.983C47.2048 22.1686 47.6896 22.4318 48.1139 22.7727C48.5419 23.1136 48.8961 23.5189 49.1764 23.9886C49.4567 24.4545 49.6461 24.9716 49.7445 25.5398H47.9434ZM55.3578 33.6761C54.4979 33.6761 53.7574 33.4924 53.1362 33.125C52.5188 32.7538 52.0415 32.233 51.7044 31.5625C51.371 30.8883 51.2044 30.0985 51.2044 29.1932C51.2044 28.2992 51.371 27.5114 51.7044 26.8295C52.0415 26.1477 52.5112 25.6155 53.1135 25.233C53.7195 24.8504 54.4279 24.6591 55.2385 24.6591C55.7309 24.6591 56.2082 24.7405 56.6703 24.9034C57.1324 25.0663 57.5472 25.322 57.9146 25.6705C58.282 26.0189 58.5718 26.4716 58.7839 27.0284C58.996 27.5814 59.1021 28.2538 59.1021 29.0455V29.6477H52.1646V28.375H57.4373C57.4373 27.928 57.3464 27.5322 57.1646 27.1875C56.9828 26.839 56.7271 26.5644 56.3976 26.3636C56.0718 26.1629 55.6892 26.0625 55.2498 26.0625C54.7726 26.0625 54.3559 26.1799 53.9998 26.4148C53.6476 26.6458 53.3748 26.9489 53.1816 27.3239C52.9923 27.6951 52.8976 28.0985 52.8976 28.5341V29.5284C52.8976 30.1117 52.9998 30.608 53.2044 31.017C53.4127 31.4261 53.7025 31.7386 54.0737 31.9545C54.4449 32.1667 54.8786 32.2727 55.3748 32.2727C55.6968 32.2727 55.9904 32.2273 56.2555 32.1364C56.5207 32.0417 56.7498 31.9015 56.943 31.7159C57.1362 31.5303 57.2839 31.3011 57.3862 31.0284L58.9941 31.3182C58.8654 31.7917 58.6343 32.2064 58.301 32.5625C57.9714 32.9148 57.5566 33.1894 57.0566 33.3864C56.5604 33.5795 55.9941 33.6761 55.3578 33.6761ZM62.3659 28.3182V33.5H60.667V24.7727H62.2977V26.1932H62.4057C62.6064 25.7311 62.9208 25.3598 63.3489 25.0795C63.7807 24.7992 64.3242 24.6591 64.9795 24.6591C65.5742 24.6591 66.0951 24.7841 66.542 25.0341C66.989 25.2803 67.3356 25.6477 67.5818 26.1364C67.828 26.625 67.9511 27.2292 67.9511 27.9489V33.5H66.2523V28.1534C66.2523 27.5208 66.0875 27.0265 65.758 26.6705C65.4284 26.3106 64.9758 26.1307 64.4 26.1307C64.0061 26.1307 63.6557 26.2159 63.3489 26.3864C63.0458 26.5568 62.8053 26.8068 62.6273 27.1364C62.453 27.4621 62.3659 27.8561 62.3659 28.3182ZM73.6709 33.6761C72.8111 33.6761 72.0705 33.4924 71.4493 33.125C70.8319 32.7538 70.3546 32.233 70.0175 31.5625C69.6842 30.8883 69.5175 30.0985 69.5175 29.1932C69.5175 28.2992 69.6842 27.5114 70.0175 26.8295C70.3546 26.1477 70.8243 25.6155 71.4266 25.233C72.0327 24.8504 72.741 24.6591 73.5516 24.6591C74.044 24.6591 74.5213 24.7405 74.9834 24.9034C75.4455 25.0663 75.8603 25.322 76.2277 25.6705C76.5952 26.0189 76.8849 26.4716 77.097 27.0284C77.3092 27.5814 77.4152 28.2538 77.4152 29.0455V29.6477H70.4777V28.375H75.7505C75.7505 27.928 75.6595 27.5322 75.4777 27.1875C75.2959 26.839 75.0402 26.5644 74.7107 26.3636C74.3849 26.1629 74.0024 26.0625 73.563 26.0625C73.0857 26.0625 72.669 26.1799 72.313 26.4148C71.9607 26.6458 71.688 26.9489 71.4948 27.3239C71.3054 27.6951 71.2107 28.0985 71.2107 28.5341V29.5284C71.2107 30.1117 71.313 30.608 71.5175 31.017C71.7258 31.4261 72.0156 31.7386 72.3868 31.9545C72.758 32.1667 73.1917 32.2727 73.688 32.2727C74.0099 32.2727 74.3035 32.2273 74.5686 32.1364C74.8338 32.0417 75.063 31.9015 75.2561 31.7159C75.4493 31.5303 75.597 31.3011 75.6993 31.0284L77.3073 31.3182C77.1785 31.7917 76.9474 32.2064 76.6141 32.5625C76.2845 32.9148 75.8698 33.1894 75.3698 33.3864C74.8736 33.5795 74.3073 33.6761 73.6709 33.6761ZM78.9802 33.5V24.7727H80.6222V26.1591H80.7131C80.8722 25.6894 81.1525 25.3201 81.554 25.0511C81.9593 24.7784 82.4177 24.642 82.929 24.642C83.0351 24.642 83.1601 24.6458 83.304 24.6534C83.4518 24.661 83.5673 24.6705 83.6506 24.6818V26.3068C83.5824 26.2879 83.4612 26.267 83.287 26.2443C83.1127 26.2178 82.9385 26.2045 82.7643 26.2045C82.3627 26.2045 82.0048 26.2898 81.6904 26.4602C81.3798 26.6269 81.1336 26.8598 80.9518 27.1591C80.7699 27.4545 80.679 27.7917 80.679 28.1705V33.5H78.9802ZM87.2624 33.6932C86.7094 33.6932 86.2094 33.5909 85.7624 33.3864C85.3155 33.178 84.9613 32.8769 84.6999 32.483C84.4424 32.089 84.3136 31.6061 84.3136 31.0341C84.3136 30.5417 84.4083 30.1364 84.5977 29.8182C84.7871 29.5 85.0427 29.2481 85.3647 29.0625C85.6867 28.8769 86.0465 28.7367 86.4443 28.642C86.842 28.5473 87.2473 28.4754 87.6602 28.4261C88.1829 28.3655 88.6071 28.3163 88.9329 28.2784C89.2587 28.2367 89.4954 28.1705 89.6431 28.0795C89.7909 27.9886 89.8647 27.8409 89.8647 27.6364V27.5966C89.8647 27.1004 89.7246 26.7159 89.4443 26.4432C89.1677 26.1705 88.7549 26.0341 88.2056 26.0341C87.6337 26.0341 87.1829 26.161 86.8534 26.4148C86.5276 26.6648 86.3022 26.9432 86.1772 27.25L84.5806 26.8864C84.77 26.3561 85.0465 25.928 85.4102 25.6023C85.7776 25.2727 86.1999 25.0341 86.6772 24.8864C87.1545 24.7348 87.6564 24.6591 88.1829 24.6591C88.5314 24.6591 88.9007 24.7008 89.2909 24.7841C89.6848 24.8636 90.0522 25.0114 90.3931 25.2273C90.7378 25.4432 91.02 25.7519 91.2397 26.1534C91.4594 26.5511 91.5693 27.0682 91.5693 27.7045V33.5H89.9102V32.3068H89.842C89.7321 32.5265 89.5674 32.7424 89.3477 32.9545C89.128 33.1667 88.8458 33.3428 88.5011 33.483C88.1564 33.6231 87.7435 33.6932 87.2624 33.6932ZM87.6318 32.3295C88.1015 32.3295 88.503 32.2367 88.8363 32.0511C89.1734 31.8655 89.4291 31.6231 89.6034 31.3239C89.7814 31.0208 89.8704 30.697 89.8704 30.3523V29.2273C89.8098 29.2879 89.6924 29.3447 89.5181 29.3977C89.3477 29.447 89.1526 29.4905 88.9329 29.5284C88.7132 29.5625 88.4992 29.5947 88.2909 29.625C88.0825 29.6515 87.9083 29.6742 87.7681 29.6932C87.4386 29.7348 87.1374 29.8049 86.8647 29.9034C86.5958 30.0019 86.3799 30.1439 86.217 30.3295C86.0579 30.5114 85.9784 30.7538 85.9784 31.0568C85.9784 31.4773 86.1337 31.7955 86.4443 32.0114C86.7549 32.2235 87.1507 32.3295 87.6318 32.3295ZM97.5859 24.7727V26.1364H92.8189V24.7727H97.5859ZM94.0973 22.6818H95.7961V30.9375C95.7961 31.267 95.8454 31.5152 95.9439 31.6818C96.0424 31.8447 96.1692 31.9564 96.3245 32.017C96.4836 32.0739 96.656 32.1023 96.8416 32.1023C96.978 32.1023 97.0973 32.0928 97.1995 32.0739C97.3018 32.0549 97.3814 32.0398 97.4382 32.0284L97.745 33.4318C97.6465 33.4697 97.5064 33.5076 97.3245 33.5455C97.1427 33.5871 96.9155 33.6098 96.6427 33.6136C96.1958 33.6212 95.7791 33.5417 95.3927 33.375C95.0064 33.2083 94.6939 32.9508 94.4552 32.6023C94.2166 32.2538 94.0973 31.8163 94.0973 31.2898V22.6818ZM99.1452 33.5V24.7727H100.844V33.5H99.1452ZM100.003 23.4261C99.7077 23.4261 99.4539 23.3277 99.2418 23.1307C99.0334 22.9299 98.9293 22.6913 98.9293 22.4148C98.9293 22.1345 99.0334 21.8958 99.2418 21.6989C99.4539 21.4981 99.7077 21.3977 100.003 21.3977C100.299 21.3977 100.55 21.4981 100.759 21.6989C100.971 21.8958 101.077 22.1345 101.077 22.4148C101.077 22.6913 100.971 22.9299 100.759 23.1307C100.55 23.3277 100.299 23.4261 100.003 23.4261ZM106.486 33.6761C105.668 33.6761 104.953 33.4886 104.344 33.1136C103.734 32.7386 103.26 32.214 102.923 31.5398C102.586 30.8655 102.418 30.0777 102.418 29.1761C102.418 28.2708 102.586 27.4792 102.923 26.8011C103.26 26.1231 103.734 25.5966 104.344 25.2216C104.953 24.8466 105.668 24.6591 106.486 24.6591C107.304 24.6591 108.018 24.8466 108.628 25.2216C109.238 25.5966 109.711 26.1231 110.048 26.8011C110.385 27.4792 110.554 28.2708 110.554 29.1761C110.554 30.0777 110.385 30.8655 110.048 31.5398C109.711 32.214 109.238 32.7386 108.628 33.1136C108.018 33.4886 107.304 33.6761 106.486 33.6761ZM106.491 32.25C107.022 32.25 107.461 32.1098 107.81 31.8295C108.158 31.5492 108.416 31.1761 108.582 30.7102C108.753 30.2443 108.838 29.7311 108.838 29.1705C108.838 28.6136 108.753 28.1023 108.582 27.6364C108.416 27.1667 108.158 26.7898 107.81 26.5057C107.461 26.2216 107.022 26.0795 106.491 26.0795C105.957 26.0795 105.514 26.2216 105.162 26.5057C104.813 26.7898 104.554 27.1667 104.383 27.6364C104.217 28.1023 104.133 28.6136 104.133 29.1705C104.133 29.7311 104.217 30.2443 104.383 30.7102C104.554 31.1761 104.813 31.5492 105.162 31.8295C105.514 32.1098 105.957 32.25 106.491 32.25ZM113.829 28.3182V33.5H112.13V24.7727H113.761V26.1932H113.869C114.07 25.7311 114.384 25.3598 114.812 25.0795C115.244 24.7992 115.787 24.6591 116.443 24.6591C117.037 24.6591 117.558 24.7841 118.005 25.0341C118.452 25.2803 118.799 25.6477 119.045 26.1364C119.291 26.625 119.414 27.2292 119.414 27.9489V33.5H117.715V28.1534C117.715 27.5208 117.551 27.0265 117.221 26.6705C116.892 26.3106 116.439 26.1307 115.863 26.1307C115.469 26.1307 115.119 26.2159 114.812 26.3864C114.509 26.5568 114.268 26.8068 114.09 27.1364C113.916 27.4621 113.829 27.8561 113.829 28.3182Z" fill="black"/>
<mask id="path-4-inside-2_7559_37100" fill="white">
<path d="M286 6C286 2.68629 288.686 0 292 0H502C505.314 0 508 2.68629 508 6V49C508 52.3137 505.314 55 502 55H292C288.686 55 286 52.3137 286 49V6Z"/>
</mask>
<path d="M286 6C286 2.68629 288.686 0 292 0H502C505.314 0 508 2.68629 508 6V49C508 52.3137 505.314 55 502 55H292C288.686 55 286 52.3137 286 49V6Z" fill="white"/>
<path d="M286 0H508H286ZM508 55H286H508ZM292 55C287.029 55 283 50.9706 283 46V9C283 4.02944 287.029 0 292 0C290.343 0 289 2.68629 289 6V49C289 52.3137 290.343 55 292 55ZM508 0V55V0Z" fill="#9D50BB" mask="url(#path-4-inside-2_7559_37100)"/>
<path d="M316.943 25.6477H315.17C315.102 25.2689 314.975 24.9356 314.79 24.6477C314.604 24.3598 314.377 24.1155 314.108 23.9148C313.839 23.714 313.538 23.5625 313.205 23.4602C312.875 23.358 312.525 23.3068 312.153 23.3068C311.483 23.3068 310.883 23.4754 310.352 23.8125C309.826 24.1496 309.409 24.6439 309.102 25.2955C308.799 25.947 308.648 26.7424 308.648 27.6818C308.648 28.6288 308.799 29.428 309.102 30.0795C309.409 30.7311 309.828 31.2235 310.358 31.5568C310.888 31.8902 311.485 32.0568 312.148 32.0568C312.515 32.0568 312.864 32.0076 313.193 31.9091C313.527 31.8068 313.828 31.6572 314.097 31.4602C314.366 31.2633 314.593 31.0227 314.778 30.7386C314.968 30.4508 315.098 30.1212 315.17 29.75L316.943 29.7557C316.848 30.3277 316.665 30.8542 316.392 31.3352C316.123 31.8125 315.777 32.2254 315.352 32.5739C314.932 32.9186 314.451 33.1856 313.909 33.375C313.367 33.5644 312.777 33.6591 312.136 33.6591C311.129 33.6591 310.231 33.4205 309.443 32.9432C308.655 32.4621 308.034 31.7746 307.58 30.8807C307.129 29.9867 306.903 28.9205 306.903 27.6818C306.903 26.4394 307.131 25.3731 307.585 24.483C308.04 23.589 308.661 22.9034 309.449 22.4261C310.237 21.9451 311.133 21.7045 312.136 21.7045C312.754 21.7045 313.33 21.7936 313.864 21.9716C314.402 22.1458 314.884 22.4034 315.312 22.7443C315.741 23.0814 316.095 23.4943 316.375 23.983C316.655 24.4678 316.845 25.0227 316.943 25.6477ZM324.116 29.8807V24.7727H325.821V33.5H324.15V31.9886H324.059C323.859 32.4545 323.537 32.8428 323.093 33.1534C322.654 33.4602 322.107 33.6136 321.451 33.6136C320.891 33.6136 320.394 33.4905 319.963 33.2443C319.535 32.9943 319.198 32.625 318.951 32.1364C318.709 31.6477 318.588 31.0436 318.588 30.3239V24.7727H320.287V30.1193C320.287 30.714 320.451 31.1875 320.781 31.5398C321.11 31.892 321.538 32.0682 322.065 32.0682C322.383 32.0682 322.699 31.9886 323.014 31.8295C323.332 31.6705 323.595 31.4299 323.804 31.108C324.016 30.786 324.12 30.3769 324.116 29.8807ZM334.323 26.9034L332.783 27.1761C332.719 26.9792 332.617 26.7917 332.476 26.6136C332.34 26.4356 332.155 26.2898 331.92 26.1761C331.685 26.0625 331.391 26.0057 331.039 26.0057C330.558 26.0057 330.156 26.1136 329.834 26.3295C329.512 26.5417 329.351 26.8163 329.351 27.1534C329.351 27.4451 329.459 27.6799 329.675 27.858C329.891 28.036 330.24 28.1818 330.721 28.2955L332.107 28.6136C332.91 28.7992 333.509 29.0852 333.903 29.4716C334.297 29.858 334.494 30.3598 334.494 30.9773C334.494 31.5 334.342 31.9659 334.039 32.375C333.74 32.7803 333.321 33.0985 332.783 33.3295C332.249 33.5606 331.63 33.6761 330.925 33.6761C329.948 33.6761 329.151 33.4678 328.533 33.0511C327.916 32.6307 327.537 32.0341 327.397 31.2614L329.039 31.0114C329.141 31.4394 329.351 31.7633 329.67 31.983C329.988 32.1989 330.403 32.3068 330.914 32.3068C331.471 32.3068 331.916 32.1913 332.249 31.9602C332.583 31.7254 332.749 31.4394 332.749 31.1023C332.749 30.8295 332.647 30.6004 332.442 30.4148C332.242 30.2292 331.933 30.089 331.516 29.9943L330.039 29.6705C329.225 29.4848 328.622 29.1894 328.232 28.7841C327.846 28.3788 327.653 27.8655 327.653 27.2443C327.653 26.7292 327.797 26.2784 328.084 25.892C328.372 25.5057 328.77 25.2045 329.278 24.9886C329.785 24.7689 330.367 24.6591 331.022 24.6591C331.965 24.6591 332.708 24.8636 333.249 25.2727C333.791 25.678 334.149 26.2216 334.323 26.9034ZM340.115 24.7727V26.1364H335.348V24.7727H340.115ZM336.627 22.6818H338.326V30.9375C338.326 31.267 338.375 31.5152 338.473 31.6818C338.572 31.8447 338.699 31.9564 338.854 32.017C339.013 32.0739 339.185 32.1023 339.371 32.1023C339.507 32.1023 339.627 32.0928 339.729 32.0739C339.831 32.0549 339.911 32.0398 339.968 32.0284L340.274 33.4318C340.176 33.4697 340.036 33.5076 339.854 33.5455C339.672 33.5871 339.445 33.6098 339.172 33.6136C338.725 33.6212 338.308 33.5417 337.922 33.375C337.536 33.2083 337.223 32.9508 336.985 32.6023C336.746 32.2538 336.627 31.8163 336.627 31.2898V22.6818ZM345.257 33.6761C344.439 33.6761 343.725 33.4886 343.115 33.1136C342.505 32.7386 342.032 32.214 341.694 31.5398C341.357 30.8655 341.189 30.0777 341.189 29.1761C341.189 28.2708 341.357 27.4792 341.694 26.8011C342.032 26.1231 342.505 25.5966 343.115 25.2216C343.725 24.8466 344.439 24.6591 345.257 24.6591C346.075 24.6591 346.789 24.8466 347.399 25.2216C348.009 25.5966 348.482 26.1231 348.819 26.8011C349.157 27.4792 349.325 28.2708 349.325 29.1761C349.325 30.0777 349.157 30.8655 348.819 31.5398C348.482 32.214 348.009 32.7386 347.399 33.1136C346.789 33.4886 346.075 33.6761 345.257 33.6761ZM345.263 32.25C345.793 32.25 346.232 32.1098 346.581 31.8295C346.929 31.5492 347.187 31.1761 347.354 30.7102C347.524 30.2443 347.609 29.7311 347.609 29.1705C347.609 28.6136 347.524 28.1023 347.354 27.6364C347.187 27.1667 346.929 26.7898 346.581 26.5057C346.232 26.2216 345.793 26.0795 345.263 26.0795C344.729 26.0795 344.285 26.2216 343.933 26.5057C343.585 26.7898 343.325 27.1667 343.155 27.6364C342.988 28.1023 342.905 28.6136 342.905 29.1705C342.905 29.7311 342.988 30.2443 343.155 30.7102C343.325 31.1761 343.585 31.5492 343.933 31.8295C344.285 32.1098 344.729 32.25 345.263 32.25ZM350.901 33.5V24.7727H352.532V26.1932H352.64C352.822 25.7121 353.119 25.3371 353.532 25.0682C353.945 24.7955 354.439 24.6591 355.015 24.6591C355.598 24.6591 356.087 24.7955 356.481 25.0682C356.879 25.3409 357.172 25.7159 357.362 26.1932H357.453C357.661 25.7273 357.992 25.3561 358.447 25.0795C358.901 24.7992 359.443 24.6591 360.072 24.6591C360.864 24.6591 361.509 24.9072 362.009 25.4034C362.513 25.8996 362.765 26.6477 362.765 27.6477V33.5H361.066V27.8068C361.066 27.2159 360.905 26.7879 360.583 26.5227C360.261 26.2576 359.877 26.125 359.43 26.125C358.877 26.125 358.447 26.2955 358.14 26.6364C357.833 26.9735 357.68 27.4072 357.68 27.9375V33.5H355.987V27.6989C355.987 27.2254 355.839 26.8447 355.543 26.5568C355.248 26.2689 354.864 26.125 354.39 26.125C354.068 26.125 353.771 26.2102 353.498 26.3807C353.229 26.5473 353.011 26.7803 352.845 27.0795C352.682 27.3788 352.6 27.7254 352.6 28.1193V33.5H350.901ZM364.722 33.5V24.7727H366.421V33.5H364.722ZM365.58 23.4261C365.285 23.4261 365.031 23.3277 364.819 23.1307C364.61 22.9299 364.506 22.6913 364.506 22.4148C364.506 22.1345 364.61 21.8958 364.819 21.6989C365.031 21.4981 365.285 21.3977 365.58 21.3977C365.875 21.3977 366.127 21.4981 366.336 21.6989C366.548 21.8958 366.654 22.1345 366.654 22.4148C366.654 22.6913 366.548 22.9299 366.336 23.1307C366.127 23.3277 365.875 23.4261 365.58 23.4261ZM368.205 33.5V32.3352L372.932 26.3295V26.25H368.358V24.7727H375.051V26.0114L370.506 31.9432V32.0227H375.21V33.5H368.205ZM379.434 33.6932C378.881 33.6932 378.381 33.5909 377.934 33.3864C377.487 33.178 377.133 32.8769 376.872 32.483C376.614 32.089 376.485 31.6061 376.485 31.0341C376.485 30.5417 376.58 30.1364 376.77 29.8182C376.959 29.5 377.215 29.2481 377.537 29.0625C377.859 28.8769 378.218 28.7367 378.616 28.642C379.014 28.5473 379.419 28.4754 379.832 28.4261C380.355 28.3655 380.779 28.3163 381.105 28.2784C381.431 28.2367 381.667 28.1705 381.815 28.0795C381.963 27.9886 382.037 27.8409 382.037 27.6364V27.5966C382.037 27.1004 381.896 26.7159 381.616 26.4432C381.34 26.1705 380.927 26.0341 380.378 26.0341C379.806 26.0341 379.355 26.161 379.025 26.4148C378.699 26.6648 378.474 26.9432 378.349 27.25L376.753 26.8864C376.942 26.3561 377.218 25.928 377.582 25.6023C377.949 25.2727 378.372 25.0341 378.849 24.8864C379.326 24.7348 379.828 24.6591 380.355 24.6591C380.703 24.6591 381.073 24.7008 381.463 24.7841C381.857 24.8636 382.224 25.0114 382.565 25.2273C382.91 25.4432 383.192 25.7519 383.412 26.1534C383.631 26.5511 383.741 27.0682 383.741 27.7045V33.5H382.082V32.3068H382.014C381.904 32.5265 381.739 32.7424 381.52 32.9545C381.3 33.1667 381.018 33.3428 380.673 33.483C380.328 33.6231 379.915 33.6932 379.434 33.6932ZM379.804 32.3295C380.273 32.3295 380.675 32.2367 381.008 32.0511C381.345 31.8655 381.601 31.6231 381.775 31.3239C381.953 31.0208 382.042 30.697 382.042 30.3523V29.2273C381.982 29.2879 381.864 29.3447 381.69 29.3977C381.52 29.447 381.324 29.4905 381.105 29.5284C380.885 29.5625 380.671 29.5947 380.463 29.625C380.254 29.6515 380.08 29.6742 379.94 29.6932C379.61 29.7348 379.309 29.8049 379.037 29.9034C378.768 30.0019 378.552 30.1439 378.389 30.3295C378.23 30.5114 378.15 30.7538 378.15 31.0568C378.15 31.4773 378.306 31.7955 378.616 32.0114C378.927 32.2235 379.323 32.3295 379.804 32.3295ZM385.82 33.5V21.8636H387.519V26.1875H387.621C387.72 26.0057 387.862 25.7955 388.048 25.5568C388.233 25.3182 388.491 25.1098 388.82 24.9318C389.15 24.75 389.585 24.6591 390.127 24.6591C390.832 24.6591 391.46 24.8371 392.013 25.1932C392.566 25.5492 393 26.0625 393.315 26.733C393.633 27.4034 393.792 28.2102 393.792 29.1534C393.792 30.0966 393.635 30.9053 393.32 31.5795C393.006 32.25 392.574 32.767 392.025 33.1307C391.476 33.4905 390.849 33.6705 390.144 33.6705C389.614 33.6705 389.18 33.5814 388.843 33.4034C388.51 33.2254 388.248 33.017 388.059 32.7784C387.87 32.5398 387.724 32.3277 387.621 32.142H387.479V33.5H385.82ZM387.485 29.1364C387.485 29.75 387.574 30.2879 387.752 30.75C387.93 31.2121 388.188 31.5739 388.525 31.8352C388.862 32.0928 389.275 32.2216 389.763 32.2216C390.271 32.2216 390.695 32.0871 391.036 31.8182C391.377 31.5455 391.635 31.1761 391.809 30.7102C391.987 30.2443 392.076 29.7197 392.076 29.1364C392.076 28.5606 391.989 28.0436 391.815 27.5852C391.644 27.1269 391.387 26.7652 391.042 26.5C390.701 26.2348 390.275 26.1023 389.763 26.1023C389.271 26.1023 388.854 26.2292 388.513 26.483C388.176 26.7367 387.921 27.0909 387.746 27.5455C387.572 28 387.485 28.5303 387.485 29.1364ZM397.078 21.8636V33.5H395.38V21.8636H397.078ZM402.805 33.6761C401.945 33.6761 401.205 33.4924 400.584 33.125C399.966 32.7538 399.489 32.233 399.152 31.5625C398.819 30.8883 398.652 30.0985 398.652 29.1932C398.652 28.2992 398.819 27.5114 399.152 26.8295C399.489 26.1477 399.959 25.6155 400.561 25.233C401.167 24.8504 401.875 24.6591 402.686 24.6591C403.178 24.6591 403.656 24.7405 404.118 24.9034C404.58 25.0663 404.995 25.322 405.362 25.6705C405.73 26.0189 406.019 26.4716 406.231 27.0284C406.444 27.5814 406.55 28.2538 406.55 29.0455V29.6477H399.612V28.375H404.885C404.885 27.928 404.794 27.5322 404.612 27.1875C404.43 26.839 404.175 26.5644 403.845 26.3636C403.519 26.1629 403.137 26.0625 402.697 26.0625C402.22 26.0625 401.803 26.1799 401.447 26.4148C401.095 26.6458 400.822 26.9489 400.629 27.3239C400.44 27.6951 400.345 28.0985 400.345 28.5341V29.5284C400.345 30.1117 400.447 30.608 400.652 31.017C400.86 31.4261 401.15 31.7386 401.521 31.9545C401.892 32.1667 402.326 32.2727 402.822 32.2727C403.144 32.2727 403.438 32.2273 403.703 32.1364C403.968 32.0417 404.197 31.9015 404.391 31.7159C404.584 31.5303 404.731 31.3011 404.834 31.0284L406.442 31.3182C406.313 31.7917 406.082 32.2064 405.748 32.5625C405.419 32.9148 405.004 33.1894 404.504 33.3864C404.008 33.5795 403.442 33.6761 402.805 33.6761ZM411.591 23.375V21.8636H420.597V23.375H416.966V33.5H415.216V23.375H411.591ZM424.627 33.6761C423.767 33.6761 423.026 33.4924 422.405 33.125C421.788 32.7538 421.31 32.233 420.973 31.5625C420.64 30.8883 420.473 30.0985 420.473 29.1932C420.473 28.2992 420.64 27.5114 420.973 26.8295C421.31 26.1477 421.78 25.6155 422.382 25.233C422.988 24.8504 423.697 24.6591 424.507 24.6591C425 24.6591 425.477 24.7405 425.939 24.9034C426.401 25.0663 426.816 25.322 427.183 25.6705C427.551 26.0189 427.841 26.4716 428.053 27.0284C428.265 27.5814 428.371 28.2538 428.371 29.0455V29.6477H421.433V28.375H426.706C426.706 27.928 426.615 27.5322 426.433 27.1875C426.252 26.839 425.996 26.5644 425.666 26.3636C425.341 26.1629 424.958 26.0625 424.519 26.0625C424.041 26.0625 423.625 26.1799 423.269 26.4148C422.916 26.6458 422.644 26.9489 422.45 27.3239C422.261 27.6951 422.166 28.0985 422.166 28.5341V29.5284C422.166 30.1117 422.269 30.608 422.473 31.017C422.681 31.4261 422.971 31.7386 423.342 31.9545C423.714 32.1667 424.147 32.2727 424.644 32.2727C424.966 32.2727 425.259 32.2273 425.524 32.1364C425.789 32.0417 426.019 31.9015 426.212 31.7159C426.405 31.5303 426.553 31.3011 426.655 31.0284L428.263 31.3182C428.134 31.7917 427.903 32.2064 427.57 32.5625C427.24 32.9148 426.825 33.1894 426.325 33.3864C425.829 33.5795 425.263 33.6761 424.627 33.6761ZM429.936 33.5V24.7727H431.566V26.1932H431.674C431.856 25.7121 432.154 25.3371 432.566 25.0682C432.979 24.7955 433.474 24.6591 434.049 24.6591C434.633 24.6591 435.121 24.7955 435.515 25.0682C435.913 25.3409 436.207 25.7159 436.396 26.1932H436.487C436.695 25.7273 437.027 25.3561 437.481 25.0795C437.936 24.7992 438.477 24.6591 439.106 24.6591C439.898 24.6591 440.544 24.9072 441.044 25.4034C441.548 25.8996 441.799 26.6477 441.799 27.6477V33.5H440.101V27.8068C440.101 27.2159 439.94 26.7879 439.618 26.5227C439.296 26.2576 438.911 26.125 438.464 26.125C437.911 26.125 437.481 26.2955 437.174 26.6364C436.868 26.9735 436.714 27.4072 436.714 27.9375V33.5H435.021V27.6989C435.021 27.2254 434.873 26.8447 434.578 26.5568C434.282 26.2689 433.898 26.125 433.424 26.125C433.102 26.125 432.805 26.2102 432.532 26.3807C432.263 26.5473 432.046 26.7803 431.879 27.0795C431.716 27.3788 431.635 27.7254 431.635 28.1193V33.5H429.936ZM443.756 36.7727V24.7727H445.416V26.1875H445.558C445.656 26.0057 445.798 25.7955 445.984 25.5568C446.169 25.3182 446.427 25.1098 446.756 24.9318C447.086 24.75 447.522 24.6591 448.063 24.6591C448.768 24.6591 449.397 24.8371 449.95 25.1932C450.503 25.5492 450.936 26.0625 451.251 26.733C451.569 27.4034 451.728 28.2102 451.728 29.1534C451.728 30.0966 451.571 30.9053 451.256 31.5795C450.942 32.25 450.51 32.767 449.961 33.1307C449.412 33.4905 448.785 33.6705 448.08 33.6705C447.55 33.6705 447.116 33.5814 446.779 33.4034C446.446 33.2254 446.184 33.017 445.995 32.7784C445.806 32.5398 445.66 32.3277 445.558 32.142H445.455V36.7727H443.756ZM445.421 29.1364C445.421 29.75 445.51 30.2879 445.688 30.75C445.866 31.2121 446.124 31.5739 446.461 31.8352C446.798 32.0928 447.211 32.2216 447.7 32.2216C448.207 32.2216 448.631 32.0871 448.972 31.8182C449.313 31.5455 449.571 31.1761 449.745 30.7102C449.923 30.2443 450.012 29.7197 450.012 29.1364C450.012 28.5606 449.925 28.0436 449.751 27.5852C449.58 27.1269 449.323 26.7652 448.978 26.5C448.637 26.2348 448.211 26.1023 447.7 26.1023C447.207 26.1023 446.791 26.2292 446.45 26.483C446.112 26.7367 445.857 27.0909 445.683 27.5455C445.508 28 445.421 28.5303 445.421 29.1364ZM455.01 21.8636V33.5H453.311V21.8636H455.01ZM459.516 33.6932C458.963 33.6932 458.463 33.5909 458.016 33.3864C457.569 33.178 457.214 32.8769 456.953 32.483C456.695 32.089 456.567 31.6061 456.567 31.0341C456.567 30.5417 456.661 30.1364 456.851 29.8182C457.04 29.5 457.296 29.2481 457.618 29.0625C457.94 28.8769 458.3 28.7367 458.697 28.642C459.095 28.5473 459.5 28.4754 459.913 28.4261C460.436 28.3655 460.86 28.3163 461.186 28.2784C461.512 28.2367 461.749 28.1705 461.896 28.0795C462.044 27.9886 462.118 27.8409 462.118 27.6364V27.5966C462.118 27.1004 461.978 26.7159 461.697 26.4432C461.421 26.1705 461.008 26.0341 460.459 26.0341C459.887 26.0341 459.436 26.161 459.106 26.4148C458.781 26.6648 458.555 26.9432 458.43 27.25L456.834 26.8864C457.023 26.3561 457.3 25.928 457.663 25.6023C458.031 25.2727 458.453 25.0341 458.93 24.8864C459.408 24.7348 459.91 24.6591 460.436 24.6591C460.785 24.6591 461.154 24.7008 461.544 24.7841C461.938 24.8636 462.305 25.0114 462.646 25.2273C462.991 25.4432 463.273 25.7519 463.493 26.1534C463.713 26.5511 463.822 27.0682 463.822 27.7045V33.5H462.163V32.3068H462.095C461.985 32.5265 461.82 32.7424 461.601 32.9545C461.381 33.1667 461.099 33.3428 460.754 33.483C460.41 33.6231 459.997 33.6932 459.516 33.6932ZM459.885 32.3295C460.355 32.3295 460.756 32.2367 461.089 32.0511C461.427 31.8655 461.682 31.6231 461.856 31.3239C462.035 31.0208 462.124 30.697 462.124 30.3523V29.2273C462.063 29.2879 461.945 29.3447 461.771 29.3977C461.601 29.447 461.406 29.4905 461.186 29.5284C460.966 29.5625 460.752 29.5947 460.544 29.625C460.336 29.6515 460.161 29.6742 460.021 29.6932C459.692 29.7348 459.391 29.8049 459.118 29.9034C458.849 30.0019 458.633 30.1439 458.47 30.3295C458.311 30.5114 458.231 30.7538 458.231 31.0568C458.231 31.4773 458.387 31.7955 458.697 32.0114C459.008 32.2235 459.404 32.3295 459.885 32.3295ZM469.839 24.7727V26.1364H465.072V24.7727H469.839ZM466.35 22.6818H468.049V30.9375C468.049 31.267 468.099 31.5152 468.197 31.6818C468.295 31.8447 468.422 31.9564 468.578 32.017C468.737 32.0739 468.909 32.1023 469.095 32.1023C469.231 32.1023 469.35 32.0928 469.453 32.0739C469.555 32.0549 469.634 32.0398 469.691 32.0284L469.998 33.4318C469.9 33.4697 469.759 33.5076 469.578 33.5455C469.396 33.5871 469.169 33.6098 468.896 33.6136C468.449 33.6212 468.032 33.5417 467.646 33.375C467.259 33.2083 466.947 32.9508 466.708 32.6023C466.47 32.2538 466.35 31.8163 466.35 31.2898V22.6818ZM475.066 33.6761C474.206 33.6761 473.466 33.4924 472.844 33.125C472.227 32.7538 471.75 32.233 471.413 31.5625C471.079 30.8883 470.913 30.0985 470.913 29.1932C470.913 28.2992 471.079 27.5114 471.413 26.8295C471.75 26.1477 472.219 25.6155 472.822 25.233C473.428 24.8504 474.136 24.6591 474.947 24.6591C475.439 24.6591 475.916 24.7405 476.378 24.9034C476.841 25.0663 477.255 25.322 477.623 25.6705C477.99 26.0189 478.28 26.4716 478.492 27.0284C478.704 27.5814 478.81 28.2538 478.81 29.0455V29.6477H471.873V28.375H477.145C477.145 27.928 477.055 27.5322 476.873 27.1875C476.691 26.839 476.435 26.5644 476.106 26.3636C475.78 26.1629 475.397 26.0625 474.958 26.0625C474.481 26.0625 474.064 26.1799 473.708 26.4148C473.356 26.6458 473.083 26.9489 472.89 27.3239C472.7 27.6951 472.606 28.0985 472.606 28.5341V29.5284C472.606 30.1117 472.708 30.608 472.913 31.017C473.121 31.4261 473.411 31.7386 473.782 31.9545C474.153 32.1667 474.587 32.2727 475.083 32.2727C475.405 32.2727 475.698 32.2273 475.964 32.1364C476.229 32.0417 476.458 31.9015 476.651 31.7159C476.844 31.5303 476.992 31.3011 477.094 31.0284L478.702 31.3182C478.573 31.7917 478.342 32.2064 478.009 32.5625C477.68 32.9148 477.265 33.1894 476.765 33.3864C476.269 33.5795 475.702 33.6761 475.066 33.6761ZM486.915 26.9034L485.375 27.1761C485.311 26.9792 485.209 26.7917 485.068 26.6136C484.932 26.4356 484.746 26.2898 484.512 26.1761C484.277 26.0625 483.983 26.0057 483.631 26.0057C483.15 26.0057 482.748 26.1136 482.426 26.3295C482.104 26.5417 481.943 26.8163 481.943 27.1534C481.943 27.4451 482.051 27.6799 482.267 27.858C482.483 28.036 482.832 28.1818 483.313 28.2955L484.699 28.6136C485.502 28.7992 486.101 29.0852 486.494 29.4716C486.888 29.858 487.085 30.3598 487.085 30.9773C487.085 31.5 486.934 31.9659 486.631 32.375C486.332 32.7803 485.913 33.0985 485.375 33.3295C484.841 33.5606 484.222 33.6761 483.517 33.6761C482.54 33.6761 481.743 33.4678 481.125 33.0511C480.508 32.6307 480.129 32.0341 479.989 31.2614L481.631 31.0114C481.733 31.4394 481.943 31.7633 482.262 31.983C482.58 32.1989 482.994 32.3068 483.506 32.3068C484.063 32.3068 484.508 32.1913 484.841 31.9602C485.174 31.7254 485.341 31.4394 485.341 31.1023C485.341 30.8295 485.239 30.6004 485.034 30.4148C484.834 30.2292 484.525 30.089 484.108 29.9943L482.631 29.6705C481.816 29.4848 481.214 29.1894 480.824 28.7841C480.438 28.3788 480.244 27.8655 480.244 27.2443C480.244 26.7292 480.388 26.2784 480.676 25.892C480.964 25.5057 481.362 25.2045 481.869 24.9886C482.377 24.7689 482.959 24.6591 483.614 24.6591C484.557 24.6591 485.299 24.8636 485.841 25.2727C486.383 25.678 486.741 26.2216 486.915 26.9034Z" fill="black"/>
<mask id="path-7-inside-3_7559_37100" fill="white">
<path d="M653 6C653 2.68629 655.686 0 659 0H835C838.314 0 841 2.68629 841 6V49C841 52.3137 838.314 55 835 55H659C655.686 55 653 52.3137 653 49V6Z"/>
</mask>
<path d="M653 6C653 2.68629 655.686 0 659 0H835C838.314 0 841 2.68629 841 6V49C841 52.3137 838.314 55 835 55H659C655.686 55 653 52.3137 653 49V6Z" fill="white"/>
<path d="M653 0H841H653ZM841 55H653H841ZM659 55C654.029 55 650 50.9706 650 46V9C650 4.02944 654.029 0 659 0C657.343 0 656 2.68629 656 6V49C656 52.3137 657.343 55 659 55ZM841 0V55V0Z" fill="#9D50BB" mask="url(#path-7-inside-3_7559_37100)"/>
<path d="M674.278 21.8636H676.409L680.114 30.9091H680.25L683.955 21.8636H686.085V33.5H684.415V25.0795H684.307L680.875 33.483H679.489L676.057 25.0739H675.949V33.5H674.278V21.8636ZM693.71 29.8807V24.7727H695.414V33.5H693.744V31.9886H693.653C693.452 32.4545 693.13 32.8428 692.687 33.1534C692.248 33.4602 691.7 33.6136 691.045 33.6136C690.484 33.6136 689.988 33.4905 689.556 33.2443C689.128 32.9943 688.791 32.625 688.545 32.1364C688.303 31.6477 688.181 31.0436 688.181 30.3239V24.7727H689.88V30.1193C689.88 30.714 690.045 31.1875 690.375 31.5398C690.704 31.892 691.132 32.0682 691.659 32.0682C691.977 32.0682 692.293 31.9886 692.608 31.8295C692.926 31.6705 693.189 31.4299 693.397 31.108C693.609 30.786 693.714 30.3769 693.71 29.8807ZM699.076 21.8636V33.5H697.377V21.8636H699.076ZM705.115 24.7727V26.1364H700.348V24.7727H705.115ZM701.627 22.6818H703.326V30.9375C703.326 31.267 703.375 31.5152 703.473 31.6818C703.572 31.8447 703.699 31.9564 703.854 32.017C704.013 32.0739 704.185 32.1023 704.371 32.1023C704.507 32.1023 704.627 32.0928 704.729 32.0739C704.831 32.0549 704.911 32.0398 704.968 32.0284L705.274 33.4318C705.176 33.4697 705.036 33.5076 704.854 33.5455C704.672 33.5871 704.445 33.6098 704.172 33.6136C703.725 33.6212 703.308 33.5417 702.922 33.375C702.536 33.2083 702.223 32.9508 701.985 32.6023C701.746 32.2538 701.627 31.8163 701.627 31.2898V22.6818ZM706.675 33.5V24.7727H708.373V33.5H706.675ZM707.533 23.4261C707.237 23.4261 706.983 23.3277 706.771 23.1307C706.563 22.9299 706.459 22.6913 706.459 22.4148C706.459 22.1345 706.563 21.8958 706.771 21.6989C706.983 21.4981 707.237 21.3977 707.533 21.3977C707.828 21.3977 708.08 21.4981 708.288 21.6989C708.5 21.8958 708.606 22.1345 708.606 22.4148C708.606 22.6913 708.5 22.9299 708.288 23.1307C708.08 23.3277 707.828 23.4261 707.533 23.4261ZM712.038 21.8636V33.5H710.339V21.8636H712.038ZM714.003 33.5V24.7727H715.702V33.5H714.003ZM714.861 23.4261C714.566 23.4261 714.312 23.3277 714.1 23.1307C713.892 22.9299 713.787 22.6913 713.787 22.4148C713.787 22.1345 713.892 21.8958 714.1 21.6989C714.312 21.4981 714.566 21.3977 714.861 21.3977C715.157 21.3977 715.409 21.4981 715.617 21.6989C715.829 21.8958 715.935 22.1345 715.935 22.4148C715.935 22.6913 715.829 22.9299 715.617 23.1307C715.409 23.3277 715.157 23.4261 714.861 23.4261ZM719.367 28.3182V33.5H717.668V24.7727H719.298V26.1932H719.406C719.607 25.7311 719.921 25.3598 720.349 25.0795C720.781 24.7992 721.325 24.6591 721.98 24.6591C722.575 24.6591 723.096 24.7841 723.543 25.0341C723.99 25.2803 724.336 25.6477 724.582 26.1364C724.829 26.625 724.952 27.2292 724.952 27.9489V33.5H723.253V28.1534C723.253 27.5208 723.088 27.0265 722.759 26.6705C722.429 26.3106 721.976 26.1307 721.401 26.1307C721.007 26.1307 720.656 26.2159 720.349 26.3864C720.046 26.5568 719.806 26.8068 719.628 27.1364C719.454 27.4621 719.367 27.8561 719.367 28.3182ZM730.569 36.9545C729.876 36.9545 729.279 36.8636 728.779 36.6818C728.283 36.5 727.878 36.2595 727.564 35.9602C727.249 35.661 727.014 35.3333 726.859 34.9773L728.319 34.375C728.422 34.5417 728.558 34.7178 728.728 34.9034C728.903 35.0928 729.137 35.2538 729.433 35.3864C729.732 35.5189 730.117 35.5852 730.586 35.5852C731.23 35.5852 731.762 35.428 732.183 35.1136C732.603 34.803 732.814 34.3068 732.814 33.625V31.9091H732.706C732.603 32.0947 732.456 32.3011 732.262 32.5284C732.073 32.7557 731.812 32.9527 731.478 33.1193C731.145 33.286 730.711 33.3693 730.177 33.3693C729.488 33.3693 728.867 33.2083 728.314 32.8864C727.764 32.5606 727.329 32.0814 727.007 31.4489C726.689 30.8125 726.529 30.0303 726.529 29.1023C726.529 28.1742 726.687 27.3788 727.001 26.7159C727.319 26.053 727.755 25.5455 728.308 25.1932C728.861 24.8371 729.488 24.6591 730.189 24.6591C730.73 24.6591 731.168 24.75 731.501 24.9318C731.834 25.1098 732.094 25.3182 732.279 25.5568C732.469 25.7955 732.615 26.0057 732.717 26.1875H732.842V24.7727H734.507V33.6932C734.507 34.4432 734.333 35.0587 733.984 35.5398C733.636 36.0208 733.164 36.3769 732.569 36.608C731.978 36.839 731.312 36.9545 730.569 36.9545ZM730.552 31.9602C731.041 31.9602 731.454 31.8466 731.791 31.6193C732.132 31.3883 732.389 31.0587 732.564 30.6307C732.742 30.1989 732.831 29.6818 732.831 29.0795C732.831 28.4924 732.744 27.9754 732.569 27.5284C732.395 27.0814 732.139 26.733 731.802 26.483C731.465 26.2292 731.048 26.1023 730.552 26.1023C730.041 26.1023 729.615 26.2348 729.274 26.5C728.933 26.7614 728.675 27.1174 728.501 27.5682C728.331 28.0189 728.245 28.5227 728.245 29.0795C728.245 29.6515 728.333 30.1534 728.507 30.5852C728.681 31.017 728.939 31.3542 729.279 31.5966C729.624 31.839 730.048 31.9602 730.552 31.9602ZM741.994 29.8807V24.7727H743.698V33.5H742.028V31.9886H741.937C741.736 32.4545 741.414 32.8428 740.971 33.1534C740.531 33.4602 739.984 33.6136 739.329 33.6136C738.768 33.6136 738.272 33.4905 737.84 33.2443C737.412 32.9943 737.075 32.625 736.829 32.1364C736.586 31.6477 736.465 31.0436 736.465 30.3239V24.7727H738.164V30.1193C738.164 30.714 738.329 31.1875 738.658 31.5398C738.988 31.892 739.416 32.0682 739.942 32.0682C740.261 32.0682 740.577 31.9886 740.891 31.8295C741.209 31.6705 741.473 31.4299 741.681 31.108C741.893 30.786 741.997 30.3769 741.994 29.8807ZM748.201 33.6932C747.648 33.6932 747.148 33.5909 746.701 33.3864C746.254 33.178 745.899 32.8769 745.638 32.483C745.38 32.089 745.252 31.6061 745.252 31.0341C745.252 30.5417 745.346 30.1364 745.536 29.8182C745.725 29.5 745.981 29.2481 746.303 29.0625C746.625 28.8769 746.985 28.7367 747.382 28.642C747.78 28.5473 748.185 28.4754 748.598 28.4261C749.121 28.3655 749.545 28.3163 749.871 28.2784C750.197 28.2367 750.434 28.1705 750.581 28.0795C750.729 27.9886 750.803 27.8409 750.803 27.6364V27.5966C750.803 27.1004 750.663 26.7159 750.382 26.4432C750.106 26.1705 749.693 26.0341 749.144 26.0341C748.572 26.0341 748.121 26.161 747.791 26.4148C747.466 26.6648 747.24 26.9432 747.115 27.25L745.519 26.8864C745.708 26.3561 745.985 25.928 746.348 25.6023C746.716 25.2727 747.138 25.0341 747.615 24.8864C748.093 24.7348 748.595 24.6591 749.121 24.6591C749.47 24.6591 749.839 24.7008 750.229 24.7841C750.623 24.8636 750.99 25.0114 751.331 25.2273C751.676 25.4432 751.958 25.7519 752.178 26.1534C752.398 26.5511 752.507 27.0682 752.507 27.7045V33.5H750.848V32.3068H750.78C750.67 32.5265 750.505 32.7424 750.286 32.9545C750.066 33.1667 749.784 33.3428 749.439 33.483C749.095 33.6231 748.682 33.6932 748.201 33.6932ZM748.57 32.3295C749.04 32.3295 749.441 32.2367 749.774 32.0511C750.112 31.8655 750.367 31.6231 750.541 31.3239C750.72 31.0208 750.809 30.697 750.809 30.3523V29.2273C750.748 29.2879 750.63 29.3447 750.456 29.3977C750.286 29.447 750.091 29.4905 749.871 29.5284C749.651 29.5625 749.437 29.5947 749.229 29.625C749.021 29.6515 748.846 29.6742 748.706 29.6932C748.377 29.7348 748.076 29.8049 747.803 29.9034C747.534 30.0019 747.318 30.1439 747.155 30.3295C746.996 30.5114 746.916 30.7538 746.916 31.0568C746.916 31.4773 747.072 31.7955 747.382 32.0114C747.693 32.2235 748.089 32.3295 748.57 32.3295ZM756.149 21.8636V33.5H754.45V21.8636H756.149ZM768.512 24.9205C768.451 24.3826 768.201 23.9659 767.762 23.6705C767.322 23.3712 766.769 23.2216 766.103 23.2216C765.626 23.2216 765.213 23.2973 764.864 23.4489C764.516 23.5966 764.245 23.8011 764.052 24.0625C763.862 24.3201 763.768 24.6136 763.768 24.9432C763.768 25.2197 763.832 25.4583 763.961 25.6591C764.093 25.8598 764.266 26.0284 764.478 26.1648C764.694 26.2973 764.925 26.4091 765.171 26.5C765.417 26.5871 765.654 26.6591 765.881 26.7159L767.018 27.0114C767.389 27.1023 767.769 27.2254 768.16 27.3807C768.55 27.536 768.911 27.7405 769.245 27.9943C769.578 28.2481 769.847 28.5625 770.052 28.9375C770.26 29.3125 770.364 29.7614 770.364 30.2841C770.364 30.9432 770.194 31.5284 769.853 32.0398C769.516 32.5511 769.025 32.9545 768.381 33.25C767.741 33.5455 766.966 33.6932 766.057 33.6932C765.186 33.6932 764.432 33.5549 763.796 33.2784C763.16 33.0019 762.661 32.6098 762.302 32.1023C761.942 31.5909 761.743 30.9848 761.705 30.2841H763.466C763.501 30.7045 763.637 31.0549 763.876 31.3352C764.118 31.6117 764.427 31.8182 764.802 31.9545C765.18 32.0871 765.595 32.1534 766.046 32.1534C766.542 32.1534 766.983 32.0758 767.37 31.9205C767.76 31.7614 768.067 31.5417 768.29 31.2614C768.514 30.9773 768.626 30.6458 768.626 30.267C768.626 29.9223 768.527 29.6402 768.33 29.4205C768.137 29.2008 767.874 29.0189 767.54 28.875C767.211 28.7311 766.838 28.6042 766.421 28.4943L765.046 28.1193C764.114 27.8655 763.376 27.4924 762.83 27C762.288 26.5076 762.018 25.8561 762.018 25.0455C762.018 24.375 762.199 23.7898 762.563 23.2898C762.927 22.7898 763.419 22.4015 764.04 22.125C764.661 21.8447 765.362 21.7045 766.143 21.7045C766.93 21.7045 767.626 21.8428 768.228 22.1193C768.834 22.3958 769.311 22.7765 769.66 23.2614C770.008 23.7424 770.19 24.2955 770.205 24.9205H768.512ZM777.534 29.8807V24.7727H779.239V33.5H777.568V31.9886H777.477C777.277 32.4545 776.955 32.8428 776.511 33.1534C776.072 33.4602 775.525 33.6136 774.869 33.6136C774.309 33.6136 773.813 33.4905 773.381 33.2443C772.953 32.9943 772.616 32.625 772.369 32.1364C772.127 31.6477 772.006 31.0436 772.006 30.3239V24.7727H773.705V30.1193C773.705 30.714 773.869 31.1875 774.199 31.5398C774.529 31.892 774.957 32.0682 775.483 32.0682C775.801 32.0682 776.118 31.9886 776.432 31.8295C776.75 31.6705 777.013 31.4299 777.222 31.108C777.434 30.786 777.538 30.3769 777.534 29.8807ZM781.201 36.7727V24.7727H782.861V26.1875H783.003C783.101 26.0057 783.243 25.7955 783.429 25.5568C783.614 25.3182 783.872 25.1098 784.201 24.9318C784.531 24.75 784.967 24.6591 785.508 24.6591C786.213 24.6591 786.842 24.8371 787.395 25.1932C787.948 25.5492 788.381 26.0625 788.696 26.733C789.014 27.4034 789.173 28.2102 789.173 29.1534C789.173 30.0966 789.016 30.9053 788.701 31.5795C788.387 32.25 787.955 32.767 787.406 33.1307C786.857 33.4905 786.23 33.6705 785.525 33.6705C784.995 33.6705 784.561 33.5814 784.224 33.4034C783.891 33.2254 783.629 33.017 783.44 32.7784C783.251 32.5398 783.105 32.3277 783.003 32.142H782.9V36.7727H781.201ZM782.866 29.1364C782.866 29.75 782.955 30.2879 783.133 30.75C783.311 31.2121 783.569 31.5739 783.906 31.8352C784.243 32.0928 784.656 32.2216 785.145 32.2216C785.652 32.2216 786.076 32.0871 786.417 31.8182C786.758 31.5455 787.016 31.1761 787.19 30.7102C787.368 30.2443 787.457 29.7197 787.457 29.1364C787.457 28.5606 787.37 28.0436 787.196 27.5852C787.025 27.1269 786.768 26.7652 786.423 26.5C786.082 26.2348 785.656 26.1023 785.145 26.1023C784.652 26.1023 784.236 26.2292 783.895 26.483C783.557 26.7367 783.302 27.0909 783.128 27.5455C782.953 28 782.866 28.5303 782.866 29.1364ZM790.756 36.7727V24.7727H792.416V26.1875H792.558C792.656 26.0057 792.798 25.7955 792.984 25.5568C793.169 25.3182 793.427 25.1098 793.756 24.9318C794.086 24.75 794.522 24.6591 795.063 24.6591C795.768 24.6591 796.397 24.8371 796.95 25.1932C797.503 25.5492 797.936 26.0625 798.251 26.733C798.569 27.4034 798.728 28.2102 798.728 29.1534C798.728 30.0966 798.571 30.9053 798.256 31.5795C797.942 32.25 797.51 32.767 796.961 33.1307C796.412 33.4905 795.785 33.6705 795.08 33.6705C794.55 33.6705 794.116 33.5814 793.779 33.4034C793.446 33.2254 793.184 33.017 792.995 32.7784C792.806 32.5398 792.66 32.3277 792.558 32.142H792.455V36.7727H790.756ZM792.421 29.1364C792.421 29.75 792.51 30.2879 792.688 30.75C792.866 31.2121 793.124 31.5739 793.461 31.8352C793.798 32.0928 794.211 32.2216 794.7 32.2216C795.207 32.2216 795.631 32.0871 795.972 31.8182C796.313 31.5455 796.571 31.1761 796.745 30.7102C796.923 30.2443 797.012 29.7197 797.012 29.1364C797.012 28.5606 796.925 28.0436 796.751 27.5852C796.58 27.1269 796.323 26.7652 795.978 26.5C795.637 26.2348 795.211 26.1023 794.7 26.1023C794.207 26.1023 793.791 26.2292 793.45 26.483C793.112 26.7367 792.857 27.0909 792.683 27.5455C792.508 28 792.421 28.5303 792.421 29.1364ZM803.988 33.6761C803.169 33.6761 802.455 33.4886 801.846 33.1136C801.236 32.7386 800.762 32.214 800.425 31.5398C800.088 30.8655 799.919 30.0777 799.919 29.1761C799.919 28.2708 800.088 27.4792 800.425 26.8011C800.762 26.1231 801.236 25.5966 801.846 25.2216C802.455 24.8466 803.169 24.6591 803.988 24.6591C804.806 24.6591 805.52 24.8466 806.13 25.2216C806.739 25.5966 807.213 26.1231 807.55 26.8011C807.887 27.4792 808.056 28.2708 808.056 29.1761C808.056 30.0777 807.887 30.8655 807.55 31.5398C807.213 32.214 806.739 32.7386 806.13 33.1136C805.52 33.4886 804.806 33.6761 803.988 33.6761ZM803.993 32.25C804.524 32.25 804.963 32.1098 805.311 31.8295C805.66 31.5492 805.917 31.1761 806.084 30.7102C806.255 30.2443 806.34 29.7311 806.34 29.1705C806.34 28.6136 806.255 28.1023 806.084 27.6364C805.917 27.1667 805.66 26.7898 805.311 26.5057C804.963 26.2216 804.524 26.0795 803.993 26.0795C803.459 26.0795 803.016 26.2216 802.664 26.5057C802.315 26.7898 802.056 27.1667 801.885 27.6364C801.719 28.1023 801.635 28.6136 801.635 29.1705C801.635 29.7311 801.719 30.2443 801.885 30.7102C802.056 31.1761 802.315 31.5492 802.664 31.8295C803.016 32.1098 803.459 32.25 803.993 32.25ZM809.632 33.5V24.7727H811.274V26.1591H811.365C811.524 25.6894 811.804 25.3201 812.206 25.0511C812.611 24.7784 813.07 24.642 813.581 24.642C813.687 24.642 813.812 24.6458 813.956 24.6534C814.104 24.661 814.219 24.6705 814.303 24.6818V26.3068C814.234 26.2879 814.113 26.267 813.939 26.2443C813.765 26.2178 813.59 26.2045 813.416 26.2045C813.015 26.2045 812.657 26.2898 812.342 26.4602C812.032 26.6269 811.785 26.8598 811.604 27.1591C811.422 27.4545 811.331 27.7917 811.331 28.1705V33.5H809.632ZM820.042 24.7727V26.1364H815.275V24.7727H820.042ZM816.554 22.6818H818.252V30.9375C818.252 31.267 818.302 31.5152 818.4 31.6818C818.499 31.8447 818.625 31.9564 818.781 32.017C818.94 32.0739 819.112 32.1023 819.298 32.1023C819.434 32.1023 819.554 32.0928 819.656 32.0739C819.758 32.0549 819.838 32.0398 819.894 32.0284L820.201 33.4318C820.103 33.4697 819.963 33.5076 819.781 33.5455C819.599 33.5871 819.372 33.6098 819.099 33.6136C818.652 33.6212 818.235 33.5417 817.849 33.375C817.463 33.2083 817.15 32.9508 816.911 32.6023C816.673 32.2538 816.554 31.8163 816.554 31.2898V22.6818Z" fill="black"/>
<path d="M151 27H276" stroke="#DBB8FF" stroke-width="4" stroke-dasharray="10 10"/>
<path d="M518 27H643" stroke="#DBB8FF" stroke-width="4" stroke-dasharray="10 10"/>
</svg>
