<svg width="197" height="43" viewBox="0 0 197 43" fill="none" xmlns="http://www.w3.org/2000/svg">
<g clip-path="url(#clip0_2326_9626)">
<path d="M59.7938 9.90331H49.7442V33.0835H54.1394V24.6762H59.7938C64.9068 24.6762 68.0804 22.0767 68.0804 17.2834C68.0804 12.4902 64.9068 9.89062 59.7938 9.89062V9.90331ZM59.1768 21.3666H54.1268V13.2256H59.1768C62.0985 13.2256 63.6726 14.5317 63.6726 17.2834C63.6726 20.0351 62.0985 21.3539 59.1768 21.3539V21.3666Z" fill="white"/>
<path d="M77.6512 15.9648C72.2108 15.9648 69.1758 19.414 69.1758 24.6891C69.1758 29.9643 72.2108 33.4134 77.6512 33.4134C83.0916 33.4134 86.1518 29.9896 86.1518 24.6891C86.1518 19.3886 83.1042 15.9648 77.6512 15.9648ZM77.6512 30.2305C74.8932 30.2305 73.3442 28.4045 73.3442 24.6891C73.3442 20.9737 74.8932 19.1604 77.6512 19.1604C80.4092 19.1604 81.9834 20.9737 81.9834 24.6891C81.9834 28.4045 80.4344 30.2305 77.6512 30.2305Z" fill="white"/>
<path d="M88.5322 15.8251V33.0834H92.7006V13.644L88.5322 15.8251Z" fill="white"/>
<path d="M99.9042 9.90332L95.7483 12.059V33.0835H99.9168V9.90332H99.9042Z" fill="white"/>
<path d="M113.367 11.7295C117.057 11.7295 118.631 13.5174 118.631 16.8524H121.149C121.187 16.5608 121.187 16.2564 121.187 15.9775C121.187 11.9704 118.606 9.59912 113.619 9.59912C108.027 9.59912 104.463 12.3381 104.463 17.0553C104.463 20.086 106.113 21.6457 109.74 22.2037L113.127 22.7236C116.364 23.2181 117.334 24.0931 117.334 26.0079C117.334 29.5331 114.55 31.283 110.583 31.283C106.617 31.283 104.891 29.495 104.891 25.8557H102.31C102.284 26.2488 102.247 26.6038 102.247 26.9589C102.247 31.2323 105.03 33.4387 110.332 33.4387C116.603 33.4387 120.129 30.5982 120.129 25.7289C120.129 22.508 118.089 20.999 114.374 20.4537L110.986 19.9211C108.266 19.49 107.271 18.6784 107.271 16.7003C107.271 13.3526 109.954 11.7548 113.379 11.7548L113.367 11.7295Z" fill="white"/>
<path d="M137.974 25.1076C138.1 24.613 138.226 23.8015 138.226 22.8631C138.226 19.5408 136.325 15.9648 131.463 15.9648C125.519 15.9648 122.346 20.7074 122.346 26.5151C122.346 30.7124 124.839 33.4134 129.272 33.4134C133.705 33.4134 136.186 31.3211 137.294 27.9734H134.864C133.907 30.1291 132.018 31.524 129.436 31.524C126.653 31.524 124.978 29.8248 124.978 26.6039C124.978 26.1474 124.978 25.6655 125.066 25.1076H137.974ZM131.337 17.8416C134.02 17.8416 135.607 19.6929 135.607 22.6222C135.607 22.8504 135.607 23.0533 135.581 23.2816H125.368C126.111 19.6295 128.466 17.8416 131.35 17.8416H131.337Z" fill="white"/>
<path d="M149.926 15.9648C147.684 15.9648 145.682 17.068 144.397 18.9828L144.888 16.2818H142.332L139.423 33.0837H142.105L143.742 23.4718C144.334 20.048 146.563 18.1332 149.145 18.1332C151.223 18.1332 152.344 19.173 152.344 21.1639C152.344 21.557 152.306 21.9374 152.243 22.4066L150.366 33.0837H153.049L154.988 21.9754C155.076 21.4809 155.114 20.961 155.114 20.5425C155.114 17.5119 153.137 15.9521 149.913 15.9521L149.926 15.9648Z" fill="white"/>
<path d="M165.189 17.8289C168.161 17.8289 168.816 19.1984 168.816 21.1385H171.234C171.271 20.8849 171.271 20.6186 171.271 20.3904C171.271 17.2329 168.778 15.9648 165.415 15.9648C161.247 15.9648 158.363 17.7528 158.363 21.3287C158.363 23.9029 160.013 25.0822 162.494 25.4246L165.176 25.8557C166.914 26.1093 167.859 26.7687 167.859 28.2016C167.859 30.2939 166.221 31.5493 163.212 31.5493C160.365 31.5493 159.144 30.37 159.144 27.9607H156.713C156.688 28.2143 156.65 28.4933 156.65 28.7469C156.65 31.4859 158.665 33.4007 162.985 33.4007C167.934 33.4007 170.554 31.2196 170.554 28.0241C170.554 25.3231 168.816 24.0931 165.932 23.662L163.212 23.2308C161.914 23.0406 161.045 22.5461 161.045 21.1132C161.045 18.7039 162.783 17.8035 165.176 17.8035L165.189 17.8289Z" fill="white"/>
<path d="M188.726 25.1076C188.852 24.613 188.978 23.8015 188.978 22.8631C188.978 19.5408 187.064 15.9648 182.215 15.9648C176.271 15.9648 173.098 20.7074 173.098 26.5151C173.098 30.7124 175.591 33.4134 180.011 33.4134C184.432 33.4134 186.938 31.3211 188.033 27.9734H185.603C184.633 30.1291 182.757 31.524 180.175 31.524C177.392 31.524 175.717 29.8248 175.717 26.6039C175.717 26.1474 175.717 25.6655 175.805 25.1076H188.714H188.726ZM182.089 17.8416C184.772 17.8416 186.359 19.6929 186.359 22.6222C186.359 22.8504 186.359 23.0533 186.333 23.2816H176.12C176.863 19.6295 179.218 17.8416 182.102 17.8416H182.089Z" fill="white"/>
<path d="M195.476 9.94141C194.242 9.94141 193.6 10.7022 193.6 11.666C193.6 12.3888 194.141 12.9467 195.086 12.9467C196.32 12.9467 196.987 12.2239 196.987 11.2221C196.987 10.4994 196.433 9.94141 195.463 9.94141H195.476ZM193.083 16.2944L190.174 33.0962H192.857L195.766 16.2944H193.083Z" fill="white"/>
<path d="M27.6679 0.595774L3.16097 18.5262L0 14.1514L16.1197 2.35838C17.7568 1.2298 19.671 0.456287 21.7741 0.139271C23.8143 -0.165064 25.8293 0.0124648 27.6805 0.583093L27.6679 0.595774Z" fill="url(#paint0_linear_2326_9626)"/>
<path d="M34.4308 5.73128L7.92146 25.1326L4.7605 20.7578L31.2446 1.36914C32.5669 2.5738 33.6626 4.05743 34.4308 5.73128Z" fill="url(#paint1_linear_2326_9626)"/>
<path d="M34.1281 9.34521C34.1281 13.0606 32.6043 16.5098 30.073 19.0078L12.6814 31.7392L9.52039 27.3644L34.1281 9.34521Z" fill="url(#paint2_linear_2326_9626)"/>
<path d="M24.4693 42.9999C28.4269 42.9999 31.635 39.7695 31.635 35.7846C31.635 31.7997 28.4269 28.5693 24.4693 28.5693C20.5118 28.5693 17.3036 31.7997 17.3036 35.7846C17.3036 39.7695 20.5118 42.9999 24.4693 42.9999Z" fill="url(#paint3_linear_2326_9626)"/>
</g>
<defs>
<linearGradient id="paint0_linear_2326_9626" x1="14.0669" y1="9.00303" x2="10.1609" y2="-18.164" gradientUnits="userSpaceOnUse">
<stop stop-color="#5B03B2"/>
<stop offset="1" stop-color="#9D50BB"/>
</linearGradient>
<linearGradient id="paint1_linear_2326_9626" x1="20.2253" y1="17.6764" x2="14.3663" y2="-23.0678" gradientUnits="userSpaceOnUse">
<stop stop-color="#5B03B2"/>
<stop offset="1" stop-color="#9D50BB"/>
</linearGradient>
<linearGradient id="paint2_linear_2326_9626" x1="22.8443" y1="25.5384" x2="16.1938" y2="-20.7331" gradientUnits="userSpaceOnUse">
<stop stop-color="#5B03B2"/>
<stop offset="1" stop-color="#9D50BB"/>
</linearGradient>
<linearGradient id="paint3_linear_2326_9626" x1="24.9983" y1="39.5508" x2="17.2245" y2="-14.5425" gradientUnits="userSpaceOnUse">
<stop stop-color="#5B03B2"/>
<stop offset="1" stop-color="#9D50BB"/>
</linearGradient>
<clipPath id="clip0_2326_9626">
<rect width="197" height="43" fill="white"/>
</clipPath>
</defs>
</svg>
