<svg width="17" height="22" viewBox="0 0 17 22" fill="none" xmlns="http://www.w3.org/2000/svg">
<path d="M8.50037 8.99935C8.23515 8.99935 7.9808 9.10471 7.79326 9.29224C7.60573 9.47978 7.50037 9.73413 7.50037 9.99935V11.9993C7.50037 12.2646 7.60573 12.5189 7.79326 12.7065C7.9808 12.894 8.23515 12.9993 8.50037 12.9993C8.76559 12.9993 9.01994 12.894 9.20748 12.7065C9.39501 12.5189 9.50037 12.2646 9.50037 11.9993V9.99935C9.50037 9.73413 9.39501 9.47978 9.20748 9.29224C9.01994 9.10471 8.76559 8.99935 8.50037 8.99935ZM16.9604 8.67935C16.8278 7.21396 16.3171 5.80808 15.4782 4.59926C14.6393 3.39043 13.501 2.42007 12.1747 1.7831C10.8483 1.14612 9.37934 0.864358 7.91143 0.965368C6.44352 1.06638 5.02697 1.5467 3.80037 2.35935C2.74957 3.062 1.86742 3.98865 1.21731 5.07274C0.567203 6.15683 0.165264 7.37145 0.0403693 8.62935C-0.0821483 9.87901 0.0750432 11.1403 0.50054 12.3216C0.926036 13.503 1.60917 14.5748 2.50037 15.4593L7.80037 20.7694C7.89333 20.8631 8.00393 20.9375 8.12579 20.9882C8.24765 21.039 8.37836 21.0651 8.51037 21.0651C8.64238 21.0651 8.77309 21.039 8.89495 20.9882C9.01681 20.9375 9.12741 20.8631 9.22037 20.7694L14.5004 15.4593C15.3916 14.5748 16.0747 13.503 16.5002 12.3216C16.9257 11.1403 17.0829 9.87901 16.9604 8.62935V8.67935ZM13.1004 14.0493L8.50037 18.6493L3.90037 14.0493C3.22246 13.3714 2.70317 12.5517 2.37984 11.6491C2.0565 10.7465 1.93715 9.78354 2.03037 8.82935C2.12419 7.86045 2.43213 6.92451 2.93194 6.08919C3.43175 5.25387 4.11093 4.54006 4.92037 3.99935C5.98131 3.29459 7.22668 2.91864 8.50037 2.91864C9.77406 2.91864 11.0194 3.29459 12.0804 3.99935C12.8874 4.53797 13.565 5.24863 14.0647 6.08029C14.5644 6.91195 14.8737 7.84395 14.9704 8.80935C15.0666 9.76678 14.9488 10.7336 14.6254 11.6399C14.3019 12.5462 13.781 13.3692 13.1004 14.0493ZM9.42037 6.56935C9.4004 6.50792 9.36995 6.4504 9.33037 6.39935L9.21037 6.24935C9.09099 6.13599 8.94546 6.05386 8.78671 6.01025C8.62797 5.96664 8.46091 5.9629 8.30037 5.99935H8.12037L7.94037 6.08935L7.79037 6.21935L7.67037 6.36935C7.63079 6.4204 7.60034 6.47792 7.58037 6.53935C7.54992 6.5989 7.52964 6.66312 7.52037 6.72935C7.50379 6.81834 7.49708 6.90889 7.50037 6.99935C7.49689 7.13375 7.52426 7.26717 7.58037 7.38935C7.63131 7.50737 7.70237 7.61565 7.79037 7.70935C7.88555 7.80279 7.99751 7.87743 8.12037 7.92935C8.36517 8.02235 8.63557 8.02235 8.88037 7.92935C9.0019 7.87499 9.11345 7.80063 9.21037 7.70935C9.29837 7.61565 9.36943 7.50737 9.42037 7.38935C9.47291 7.26603 9.50011 7.1334 9.50037 6.99935C9.50527 6.93611 9.50527 6.87259 9.50037 6.80935C9.49106 6.72457 9.46379 6.64276 9.42037 6.56935Z" fill="#898989"/>
</svg>
