<svg width="60" height="40" viewBox="0 0 60 40" fill="none" xmlns="http://www.w3.org/2000/svg">
<rect x="0.5" y="0.5" width="59" height="39" rx="3.5" fill="#FCFCFC" stroke="#333333"/>
<path d="M12.9141 15.3926H14.291L18.6387 22.3652V15.3926H19.7461V24H18.4395L14.0273 17.0332V24H12.9141V15.3926ZM24.3086 17.584C24.7539 17.584 25.1855 17.6895 25.6035 17.9004C26.0215 18.1074 26.3398 18.377 26.5586 18.709C26.7695 19.0254 26.9102 19.3945 26.9805 19.8164C27.043 20.1055 27.0742 20.5664 27.0742 21.1992H22.4746C22.4941 21.8359 22.6445 22.3477 22.9258 22.7344C23.207 23.1172 23.6426 23.3086 24.2324 23.3086C24.7832 23.3086 25.2227 23.127 25.5508 22.7637C25.7383 22.5527 25.8711 22.3086 25.9492 22.0312H26.9863C26.959 22.2617 26.8672 22.5195 26.7109 22.8047C26.5586 23.0859 26.3867 23.3164 26.1953 23.4961C25.875 23.8086 25.4785 24.0195 25.0059 24.1289C24.752 24.1914 24.4648 24.2227 24.1445 24.2227C23.3633 24.2227 22.7012 23.9395 22.1582 23.373C21.6152 22.8027 21.3438 22.0059 21.3438 20.9824C21.3438 19.9746 21.6172 19.1562 22.1641 18.5273C22.7109 17.8984 23.4258 17.584 24.3086 17.584ZM25.9902 20.3613C25.9473 19.9043 25.8477 19.5391 25.6914 19.2656C25.4023 18.7578 24.9199 18.5039 24.2441 18.5039C23.7598 18.5039 23.3535 18.6797 23.0254 19.0312C22.6973 19.3789 22.5234 19.8223 22.5039 20.3613H25.9902ZM28.0273 17.7246H29.3926L30.834 19.9336L32.293 17.7246L33.5762 17.7539L31.4609 20.7832L33.6699 24H32.3223L30.7637 21.6445L29.252 24H27.916L30.125 20.7832L28.0273 17.7246ZM35.0859 15.9727H36.1523V17.7246H37.1543V18.5859H36.1523V22.6816C36.1523 22.9004 36.2266 23.0469 36.375 23.1211C36.457 23.1641 36.5938 23.1855 36.7852 23.1855C36.8359 23.1855 36.8906 23.1855 36.9492 23.1855C37.0078 23.1816 37.0762 23.1758 37.1543 23.168V24C37.0332 24.0352 36.9062 24.0605 36.7734 24.0762C36.6445 24.0918 36.5039 24.0996 36.3516 24.0996C35.8594 24.0996 35.5254 23.9746 35.3496 23.7246C35.1738 23.4707 35.0859 23.1426 35.0859 22.7402V18.5859H34.2363V17.7246H35.0859V15.9727Z" fill="#333333"/>
<path d="M46 20L42 16.5L42 23.5L46 20Z" fill="#333333"/>
</svg>
