<svg width="301" height="300" viewBox="0 0 301 300" fill="none" xmlns="http://www.w3.org/2000/svg">
<path d="M61.28 253.674C51.6815 246.899 43.8198 237.952 38.336 227.562C4.04001 163.308 11.786 68.5616 77.834 27.9236C108.362 9.14362 152.3 -2.74238 185.3 16.5416C212.06 32.1896 228.464 61.6436 242.036 88.4396C250.562 105.294 257.588 123.432 268.1 139.2C281.732 159.648 296.738 186.96 281.588 210.72C260.942 243.084 221.948 257.862 186.59 267.594C148.226 278.148 105.086 279.642 69.65 259.056C66.782 257.388 63.992 255.594 61.28 253.674Z" fill="#92E3A9"/>
<path opacity="0.7" d="M61.28 253.674C51.6815 246.899 43.8198 237.952 38.336 227.562C4.04001 163.308 11.786 68.5616 77.834 27.9236C108.362 9.14362 152.3 -2.74238 185.3 16.5416C212.06 32.1896 228.464 61.6436 242.036 88.4396C250.562 105.294 257.588 123.432 268.1 139.2C281.732 159.648 296.738 186.96 281.588 210.72C260.942 243.084 221.948 257.862 186.59 267.594C148.226 278.148 105.086 279.642 69.65 259.056C66.782 257.388 63.992 255.594 61.28 253.674Z" fill="#CC9BFD"/>
<path d="M112.634 146.399C111.934 146.502 111.219 146.396 110.579 146.095C109.939 145.794 109.401 145.312 109.034 144.707" stroke="#263238" stroke-linecap="round" stroke-linejoin="round"/>
<g opacity="0.3">
<path d="M20.3001 47.4004H70.1001V112.8H20.3001V47.4004Z" stroke="black" stroke-miterlimit="10"/>
<path d="M29.4379 59.4004H60.9619V100.8H29.4379V59.4004Z" stroke="black" stroke-miterlimit="10"/>
</g>
<path d="M20.8999 281.4H11.2999" stroke="#263238" stroke-linecap="round" stroke-linejoin="round"/>
<path d="M278.9 281.4H26.8999" stroke="#263238" stroke-linecap="round" stroke-linejoin="round"/>
<g opacity="0.3">
<path d="M218.63 26.6816H275.576V186.918H218.63V26.6816Z" stroke="black" stroke-miterlimit="10"/>
<path d="M275.27 31.5544H218.738L220.07 27.1504" stroke="black" stroke-miterlimit="10"/>
<path d="M275.27 36.8884H218.738L220.07 32.4844" stroke="black" stroke-miterlimit="10"/>
<path d="M275.27 42.2224H218.738L220.07 37.8184" stroke="black" stroke-miterlimit="10"/>
<path d="M275.27 47.5563H218.738L220.07 43.1523" stroke="black" stroke-miterlimit="10"/>
<path d="M275.27 52.8903H218.738L220.07 48.4863" stroke="black" stroke-miterlimit="10"/>
<path d="M275.27 58.2303H218.738L220.07 53.8203" stroke="black" stroke-miterlimit="10"/>
<path d="M275.27 63.5643H218.738L220.07 59.1543" stroke="black" stroke-miterlimit="10"/>
<path d="M275.27 68.8981H218.738L220.07 64.4941" stroke="black" stroke-miterlimit="10"/>
<path d="M275.27 74.2321H218.738L220.07 69.8281" stroke="black" stroke-miterlimit="10"/>
<path d="M275.27 79.5661H218.738L220.07 75.1621" stroke="black" stroke-miterlimit="10"/>
<path d="M275.27 84.9001H218.738L220.07 80.4961" stroke="black" stroke-miterlimit="10"/>
<path d="M275.27 90.2341H218.738L220.07 85.8301" stroke="black" stroke-miterlimit="10"/>
<path d="M275.27 95.5681H218.738L220.07 91.1641" stroke="black" stroke-miterlimit="10"/>
<path d="M275.27 100.908H218.738L220.07 96.498" stroke="black" stroke-miterlimit="10"/>
<path d="M275.27 106.242H218.738L220.07 101.832" stroke="black" stroke-miterlimit="10"/>
<path d="M275.27 111.576H218.738L220.07 107.172" stroke="black" stroke-miterlimit="10"/>
<path d="M275.27 116.91H218.738L220.07 112.506" stroke="black" stroke-miterlimit="10"/>
<path d="M275.27 122.244H218.738L220.07 117.84" stroke="black" stroke-miterlimit="10"/>
<path d="M275.27 127.578H218.738L220.07 123.174" stroke="black" stroke-miterlimit="10"/>
<path d="M275.27 132.912H218.738L220.07 128.508" stroke="black" stroke-miterlimit="10"/>
<path d="M275.27 138.246H218.738L220.07 133.842" stroke="black" stroke-miterlimit="10"/>
<path d="M275.27 143.586H218.738L220.07 139.182" stroke="black" stroke-miterlimit="10"/>
<path d="M275.27 148.92H218.738L220.07 144.516" stroke="black" stroke-miterlimit="10"/>
<path d="M275.27 154.254H218.738L220.07 149.85" stroke="black" stroke-miterlimit="10"/>
<path d="M275.27 159.588H218.738L220.07 155.184" stroke="black" stroke-miterlimit="10"/>
<path d="M275.27 164.922H218.738L220.07 160.518" stroke="black" stroke-miterlimit="10"/>
<path d="M275.27 170.256H218.738L220.07 165.852" stroke="black" stroke-miterlimit="10"/>
<path d="M275.27 175.59H218.738L220.07 171.186" stroke="black" stroke-miterlimit="10"/>
<path d="M275.27 180.93H218.738L220.07 176.52" stroke="black" stroke-miterlimit="10"/>
<path d="M157.388 26.6816H214.334V186.918H157.388V26.6816Z" stroke="black" stroke-miterlimit="10"/>
<path d="M214.028 31.5544H157.502L158.828 27.1504" stroke="black" stroke-miterlimit="10"/>
<path d="M214.028 36.8884H157.502L158.828 32.4844" stroke="black" stroke-miterlimit="10"/>
<path d="M214.028 42.2224H157.502L158.828 37.8184" stroke="black" stroke-miterlimit="10"/>
<path d="M214.028 47.5563H157.502L158.828 43.1523" stroke="black" stroke-miterlimit="10"/>
<path d="M214.028 52.8903H157.502L158.828 48.4863" stroke="black" stroke-miterlimit="10"/>
<path d="M214.028 58.2303H157.502L158.828 53.8203" stroke="black" stroke-miterlimit="10"/>
<path d="M214.028 63.5643H157.502L158.828 59.1543" stroke="black" stroke-miterlimit="10"/>
<path d="M214.028 68.8981H157.502L158.828 64.4941" stroke="black" stroke-miterlimit="10"/>
<path d="M214.028 74.2321H157.502L158.828 69.8281" stroke="black" stroke-miterlimit="10"/>
<path d="M214.028 79.5661H157.502L158.828 75.1621" stroke="black" stroke-miterlimit="10"/>
<path d="M214.028 84.9001H157.502L158.828 80.4961" stroke="black" stroke-miterlimit="10"/>
<path d="M214.028 90.2341H157.502L158.828 85.8301" stroke="black" stroke-miterlimit="10"/>
<path d="M214.028 95.5681H157.502L158.828 91.1641" stroke="black" stroke-miterlimit="10"/>
<path d="M214.028 100.908H157.502L158.828 96.498" stroke="black" stroke-miterlimit="10"/>
<path d="M214.028 106.242H157.502L158.828 101.832" stroke="black" stroke-miterlimit="10"/>
<path d="M214.028 111.576H157.502L158.828 107.172" stroke="black" stroke-miterlimit="10"/>
<path d="M214.028 116.91H157.502L158.828 112.506" stroke="black" stroke-miterlimit="10"/>
<path d="M214.028 122.244H157.502L158.828 117.84" stroke="black" stroke-miterlimit="10"/>
<path d="M214.028 127.578H157.502L158.828 123.174" stroke="black" stroke-miterlimit="10"/>
<path d="M214.028 132.912H157.502L158.828 128.508" stroke="black" stroke-miterlimit="10"/>
<path d="M214.028 138.246H157.502L158.828 133.842" stroke="black" stroke-miterlimit="10"/>
<path d="M214.028 143.586H157.502L158.828 139.182" stroke="black" stroke-miterlimit="10"/>
<path d="M214.028 148.92H157.502L158.828 144.516" stroke="black" stroke-miterlimit="10"/>
<path d="M214.028 154.254H157.502L158.828 149.85" stroke="black" stroke-miterlimit="10"/>
<path d="M214.028 159.588H157.502L158.828 155.184" stroke="black" stroke-miterlimit="10"/>
<path d="M214.028 164.922H157.502L158.828 160.518" stroke="black" stroke-miterlimit="10"/>
<path d="M214.028 170.256H157.502L158.828 165.852" stroke="black" stroke-miterlimit="10"/>
<path d="M214.028 175.59H157.502L158.828 171.186" stroke="black" stroke-miterlimit="10"/>
<path d="M214.028 180.93H157.502L158.828 176.52" stroke="black" stroke-miterlimit="10"/>
</g>
<path d="M78.6802 15.5527H230.012V150.259H78.6802V15.5527Z" fill="white" stroke="#263238" stroke-linecap="round" stroke-linejoin="round"/>
<path d="M78.6802 15.5527H230.012V36.6007H78.6802V15.5527Z" fill="#625DEF" stroke="#263238" stroke-linecap="round" stroke-linejoin="round"/>
<path d="M78.6804 15.5527H84.3804V150.259H78.6804V15.5527Z" fill="#DBDBDB" stroke="#263238" stroke-linecap="round" stroke-linejoin="round"/>
<path d="M78.6804 35.8027H84.3804V61.8007H78.6804V35.8027Z" fill="#949494" stroke="#263238" stroke-linecap="round" stroke-linejoin="round"/>
<path d="M78.6802 15.5527H230.012V25.7827H78.6802V15.5527Z" fill="#DBDBDB" stroke="#263238" stroke-linecap="round" stroke-linejoin="round"/>
<path d="M162.656 18.541H222.338V22.801H162.656V18.541Z" fill="white" stroke="#263238" stroke-linecap="round" stroke-linejoin="round"/>
<path d="M87.6143 18.7383H82.3763" stroke="#263238" stroke-linecap="round" stroke-linejoin="round"/>
<path d="M87.6143 20.9531H82.3763" stroke="#263238" stroke-linecap="round" stroke-linejoin="round"/>
<path d="M87.6143 23.166H82.3763" stroke="#263238" stroke-linecap="round" stroke-linejoin="round"/>
<path d="M108.782 52.2012H204.782V55.8012H108.782V52.2012Z" fill="#DBDBDB" stroke="#A8A8A8" stroke-linecap="round" stroke-linejoin="round"/>
<path d="M157.184 52.2012H204.782V55.8012H157.184V52.2012Z" fill="#92E3A9" stroke="#263238" stroke-linecap="round" stroke-linejoin="round"/>
<path d="M209.978 63.4028C205.117 63.4028 201.176 59.462 201.176 54.6008C201.176 49.7396 205.117 45.7988 209.978 45.7988C214.839 45.7988 218.78 49.7396 218.78 54.6008C218.78 59.462 214.839 63.4028 209.978 63.4028Z" fill="#92E3A9" stroke="#263238" stroke-linecap="round" stroke-linejoin="round"/>
<path d="M209.978 62.0831C205.846 62.0831 202.496 58.7333 202.496 54.6011C202.496 50.4689 205.846 47.1191 209.978 47.1191C214.111 47.1191 217.46 50.4689 217.46 54.6011C217.46 58.7333 214.111 62.0831 209.978 62.0831Z" fill="white" stroke="#263238" stroke-linecap="round" stroke-linejoin="round"/>
<path d="M156.782 63.4028C151.921 63.4028 147.98 59.462 147.98 54.6008C147.98 49.7396 151.921 45.7988 156.782 45.7988C161.643 45.7988 165.584 49.7396 165.584 54.6008C165.584 59.462 161.643 63.4028 156.782 63.4028Z" fill="#92E3A9" stroke="#263238" stroke-linecap="round" stroke-linejoin="round"/>
<path d="M156.782 62.0831C152.65 62.0831 149.3 58.7333 149.3 54.6011C149.3 50.4689 152.65 47.1191 156.782 47.1191C160.914 47.1191 164.264 50.4689 164.264 54.6011C164.264 58.7333 160.914 62.0831 156.782 62.0831Z" fill="white" stroke="#263238" stroke-linecap="round" stroke-linejoin="round"/>
<path d="M103.58 63.4028C98.7191 63.4028 94.7783 59.462 94.7783 54.6008C94.7783 49.7396 98.7191 45.7988 103.58 45.7988C108.442 45.7988 112.382 49.7396 112.382 54.6008C112.382 59.462 108.442 63.4028 103.58 63.4028Z" fill="#DBDBDB" stroke="#A8A8A8" stroke-linecap="round" stroke-linejoin="round"/>
<path d="M103.58 62.1077C99.435 62.1077 96.0744 58.7472 96.0744 54.6017C96.0744 50.4563 99.435 47.0957 103.58 47.0957C107.726 47.0957 111.086 50.4563 111.086 54.6017C111.086 58.7472 107.726 62.1077 103.58 62.1077Z" fill="white" stroke="#A8A8A8" stroke-linecap="round" stroke-linejoin="round"/>
<path d="M211.508 51.9071C211.209 51.9417 210.909 51.8628 210.665 51.6861C210.422 51.5095 210.254 51.2479 210.194 50.9531H209.39V58.5371H210.59V52.7531H211.514L211.508 51.9071Z" fill="#263238"/>
<path d="M157.16 51.9486C157.538 51.9486 157.76 52.1526 157.76 52.6986V53.5086H158.9V52.8006C158.9 51.6006 158.3 50.8926 157.1 50.8926C155.9 50.8926 155.3 51.5886 155.3 52.8006C155.3 55.2006 157.67 56.0766 157.67 57.3246C157.676 57.3784 157.676 57.4327 157.67 57.4866H155.42V58.5666H158.9V57.6006C158.9 55.3686 156.536 54.9966 156.536 52.8006C156.542 52.1346 156.782 51.9486 157.16 51.9486Z" fill="#263238"/>
<path d="M103.064 52.8006C103.064 52.1166 103.304 51.9306 103.664 51.9306C104.024 51.9306 104.264 52.1346 104.264 52.6806V53.1666H105.392V52.8006C105.392 51.6006 104.792 50.8926 103.592 50.8926C102.392 50.8926 101.792 51.5886 101.792 52.8006V52.9986C101.744 53.3138 101.799 53.6361 101.949 53.9174C102.1 54.1986 102.337 54.4235 102.626 54.5586C102.363 54.7174 102.153 54.9514 102.023 55.2305C101.894 55.5095 101.851 55.8209 101.9 56.1246V56.7246C101.9 57.9246 102.5 58.6326 103.7 58.6326C104.9 58.6326 105.5 57.9366 105.5 56.7246V56.1246H104.3V56.8326C104.3 57.3726 104.066 57.5766 103.7 57.5766C103.334 57.5766 103.1 57.3966 103.1 56.7246V56.1246C103.1 55.4226 103.34 55.1586 103.88 55.1586H104.282V54.0786H103.82C103.376 54.0786 103.1 53.8806 103.1 53.2746L103.064 52.8006Z" fill="#263238"/>
<path d="M172.13 84.3848H216.824V91.2968H172.13V84.3848Z" fill="white" stroke="#263238" stroke-linecap="round" stroke-linejoin="round"/>
<path d="M117.56 84.3848H162.254V91.2968H117.56V84.3848Z" fill="white" stroke="#263238" stroke-linecap="round" stroke-linejoin="round"/>
<path d="M141.512 97.9688H216.824V104.881H141.512V97.9688Z" fill="white" stroke="#263238" stroke-linecap="round" stroke-linejoin="round"/>
<path d="M141.512 111.055H216.824V117.967H141.512V111.055Z" fill="white" stroke="#263238" stroke-linecap="round" stroke-linejoin="round"/>
<path d="M214.976 72.1328C214.202 72.1328 213.812 72.5888 213.812 73.3988V73.5548H214.556V73.3448C214.556 72.9848 214.7 72.8468 214.952 72.8468C215.204 72.8468 215.348 72.9848 215.348 73.3448C215.348 74.3828 213.8 74.5748 213.8 76.0148C213.8 76.8188 214.202 77.2808 215 77.2808C215.798 77.2808 216.2 76.8188 216.2 76.0148V75.7088H215.45V76.0688C215.45 76.4288 215.294 76.5548 215.042 76.5548C214.79 76.5548 214.628 76.4288 214.628 76.0688C214.628 75.0308 216.176 74.8328 216.176 73.3988C216.14 72.6008 215.744 72.1328 214.976 72.1328Z" fill="#263238"/>
<path d="M213.578 72.1875H211.1V72.9075H211.928V77.2275H212.72V72.9075H213.548L213.578 72.1875Z" fill="#263238"/>
<path d="M209.99 74.3115H208.904V75.0315H209.99V76.5075H208.628V77.2275H210.782V72.1875H208.628V72.9075H209.99V74.3115Z" fill="#263238"/>
<path d="M205.79 73.4355V74.0895C205.79 74.8935 206.18 75.3315 206.99 75.3315H207.368V77.2275H208.16V72.1875H206.99C206.18 72.1875 205.79 72.6015 205.79 73.4355ZM207.344 72.9075V74.6115H206.966C206.714 74.6115 206.582 74.4975 206.582 74.1375V73.3815C206.582 73.0215 206.714 72.9075 206.966 72.9075H207.344Z" fill="#263238"/>
<path d="M202.778 73.4229C202.778 72.9729 202.94 72.8229 203.186 72.8229C203.432 72.8229 203.6 72.9609 203.6 73.3209V73.6449H204.35V73.3749C204.376 73.2085 204.363 73.0385 204.312 72.8779C204.262 72.7172 204.176 72.5702 204.06 72.448C203.944 72.3259 203.802 72.2318 203.644 72.173C203.487 72.1142 203.318 72.0923 203.15 72.1089C202.37 72.1089 201.95 72.5649 201.95 73.3749V73.5009C201.918 73.711 201.954 73.9261 202.055 74.1134C202.156 74.3007 202.315 74.4501 202.508 74.5389C202.316 74.6346 202.16 74.7879 202.06 74.9773C201.959 75.1667 201.921 75.3826 201.95 75.5949V75.9909C201.95 76.7949 202.352 77.2569 203.15 77.2569C203.318 77.2735 203.487 77.2515 203.644 77.1928C203.802 77.134 203.944 77.0399 204.06 76.9177C204.176 76.7956 204.262 76.6486 204.312 76.4879C204.363 76.3273 204.376 76.1573 204.35 75.9909V75.6009H203.6V76.0689C203.6 76.4289 203.438 76.5609 203.186 76.5609C202.934 76.5609 202.778 76.4409 202.778 75.9969V75.6009C202.778 75.1329 202.94 74.9589 203.294 74.9589H203.564V74.2389H203.252C202.958 74.2389 202.778 74.1069 202.778 73.7049V73.4229Z" fill="#263238"/>
<path d="M164.582 75H158.582" stroke="#263238" stroke-miterlimit="10"/>
<path d="M186.782 75H167.282" stroke="#263238" stroke-miterlimit="10"/>
<path d="M195.482 75H189.482" stroke="#263238" stroke-miterlimit="10"/>
<path d="M217.178 130.604H102.782" stroke="#263238" stroke-linecap="round" stroke-linejoin="round"/>
<path d="M154.454 213.859L148.37 266.575L141.842 266.125L140.264 225.799L136.208 225.349L110.75 226.927C109.412 226.626 108.057 226.399 106.694 226.249C105.794 226.249 104.666 223.771 110.072 221.521C115.478 219.271 152.9 212.059 153.776 212.059C154.652 212.059 154.454 213.859 154.454 213.859Z" fill="#263238" stroke="#263238" stroke-linecap="round" stroke-linejoin="round"/>
<path d="M119.084 206.4C119.084 206.4 142.484 198.654 165.284 203.7C167.15 204.114 171.146 251.7 171.146 251.7L165.062 253.5L155.6 215.874C155.6 215.874 115.952 227.364 107.84 226.236C99.728 225.108 119.084 206.4 119.084 206.4Z" fill="#263238" stroke="#263238" stroke-linecap="round" stroke-linejoin="round"/>
<path d="M112.55 126.906C112.55 126.906 114.35 131.634 114.35 133.884C114.295 135.411 113.939 136.912 113.3 138.3C113.3 138.3 116.834 142.134 116.18 143.586C115.778 144.492 113.978 144.828 113.978 144.828C113.978 144.828 112.4 153.156 111.05 153.606C109.7 154.056 104.066 152.928 104.066 152.928L105.026 164.328L93.848 154.836L94.748 147.636C94.748 147.636 92.048 143.802 88.892 139.302C85.736 134.802 87.542 127.584 89.342 124.206C91.142 120.828 104.888 113.844 114.122 125.334L112.55 126.906Z" fill="#9C9C9C" stroke="#263238" stroke-linecap="round" stroke-linejoin="round"/>
<path d="M76.0996 130.698C76.3876 129.684 73.2076 129.396 74.3656 126.936C75.5236 124.476 78.9916 124.626 78.8416 122.892C78.6916 121.158 77.5456 121.302 79.5676 119.418C81.5896 117.534 83.1676 118.554 83.7676 116.676C84.3676 114.798 84.7756 112.914 84.7756 112.914L86.0776 111.906C86.9356 111.24 87.7276 111.906 88.1716 112.404C89.3716 112.794 90.4756 114.354 91.5916 114.204C93.2476 114 93.6616 109.656 96.9916 109.86C100.322 110.064 99.0556 115.446 100.298 115.032C101.54 114.618 104.024 112.962 107.33 113.79C110.636 114.618 107.33 117.72 108.572 117.516C109.814 117.312 117.05 115.86 117.674 117.72C118.298 119.58 113.744 122.064 113.744 122.064C113.744 122.064 119.33 120.408 117.674 123.51C117.148 124.432 116.415 125.218 115.531 125.804C114.647 126.391 113.639 126.762 112.586 126.888C112.586 126.888 114.806 127.71 113.906 128.724C113.126 129.6 110.576 129.804 109.91 129.84L109.79 129.966C110.006 130.506 110.72 132.756 108.056 133.452C107.336 133.638 106.748 133.758 106.256 133.836L105.854 134.28C106.11 134.88 106.32 135.497 106.484 136.128C106.898 137.988 103.592 139.026 102.35 139.026C101.108 139.026 100.076 143.16 101.108 144.426C101.218 144.561 101.301 144.716 101.35 144.883C101.4 145.05 101.415 145.225 101.396 145.398C101.588 145.608 101.75 145.776 101.834 145.89C102.434 146.61 102.992 149.07 102.272 149.49C101.552 149.91 98.6716 149.49 98.6716 149.49C98.6716 149.49 98.2396 152.958 96.9376 153.252C95.6356 153.546 94.6276 152.238 94.1896 151.224C93.7516 150.21 92.5996 152.67 90.8656 152.382C89.1316 152.094 88.4116 150.792 87.8296 149.778C87.2476 148.764 86.6776 150.648 83.9296 150.066C81.1816 149.484 82.3396 145.44 82.3396 145.44C82.3396 145.44 79.7356 146.886 78.2896 145.734C76.8436 144.582 76.4116 141.972 76.2676 140.238C76.1236 138.504 73.8076 140.67 73.8076 137.49C73.8076 134.31 75.7996 131.706 76.0996 130.698Z" fill="#263238"/>
<path d="M104.072 152.929L100.934 152.113L104.306 158.107L104.072 152.929Z" fill="#263238" stroke="#263238" stroke-linecap="round" stroke-linejoin="round"/>
<path d="M110.564 138.331C110.564 139.099 110.834 139.723 111.164 139.723C111.494 139.723 111.764 139.123 111.764 138.331C111.764 137.539 111.494 136.945 111.164 136.945C110.834 136.945 110.564 137.569 110.564 138.331Z" fill="#263238"/>
<path d="M111.95 134.863C111.95 134.863 110.75 134.347 109.352 135.559" stroke="#263238" stroke-linecap="round" stroke-linejoin="round"/>
<path d="M112.034 184.236L136.28 186.198L144.08 185.472C144.08 185.472 154.814 189.12 152.72 189.822C151.234 190.221 149.667 190.205 148.19 189.774C146.172 190.575 144.025 191.002 141.854 191.034C140.09 191.017 138.334 190.781 136.628 190.332L109.58 194.4L112.034 184.236Z" fill="#263238" stroke="#263238" stroke-linecap="round" stroke-linejoin="round"/>
<path d="M94.3038 153.487C94.3038 153.487 108.272 167.005 110.504 170.383C112.736 173.761 113.654 176.689 113.654 179.617C113.654 182.545 111.626 189.079 111.626 189.079L114.332 198.769L122.216 205.969L109.826 225.769C109.826 225.769 104.192 226.897 100.364 224.647C96.5358 222.397 94.0998 212.737 94.0998 208.003C94.0998 203.269 94.9998 193.135 94.9998 193.135C94.9998 193.135 89.8158 176.935 88.2378 170.833C86.6598 164.731 86.4378 159.343 88.0158 156.433C89.5938 153.523 92.0538 151.909 94.3038 153.487Z" fill="white" stroke="#263238" stroke-linecap="round" stroke-linejoin="round"/>
<path d="M110.528 170.4C110.978 171.072 111.393 171.766 111.77 172.482C105.848 173.304 97.742 174.57 89.756 176.268C89.444 175.212 89.156 174.21 88.892 173.268C96.428 171.66 104.066 170.436 109.946 169.596C110.18 169.902 110.378 170.16 110.528 170.4Z" fill="#92E3A9" stroke="#263238" stroke-linecap="round" stroke-linejoin="round"/>
<path d="M88.0341 170.07C87.7821 169.038 87.5721 168.024 87.4041 167.04L103.718 162.84C104.57 163.71 105.398 164.574 106.184 165.396L88.0341 170.07Z" fill="#92E3A9" stroke="#263238" stroke-linecap="round" stroke-linejoin="round"/>
<path d="M94.5918 191.916L93.6378 188.886C99.5538 188.454 106.052 187.968 112.112 187.506C111.848 188.454 111.65 189.078 111.65 189.078L112.076 190.608C106.346 191.046 100.232 191.502 94.5918 191.916Z" fill="#92E3A9" stroke="#263238" stroke-linecap="round" stroke-linejoin="round"/>
<path d="M87.02 164.059C86.9245 162.984 86.9024 161.903 86.9539 160.825L98.084 157.201L100.544 159.649L87.02 164.059Z" fill="#92E3A9" stroke="#263238" stroke-linecap="round" stroke-linejoin="round"/>
<path d="M101.558 225.24C106.526 221.274 112.88 216.24 118.796 211.482L113.864 219.378L105.5 226.05C104.151 225.991 102.821 225.717 101.558 225.24Z" fill="#92E3A9" stroke="#263238" stroke-linecap="round" stroke-linejoin="round"/>
<path d="M94.8019 195.241C101.192 195.139 107.744 194.965 113.216 194.689L114.068 197.743C108.308 198.049 101.33 198.235 94.5619 198.343C94.6519 197.173 94.7359 196.105 94.8019 195.241Z" fill="#92E3A9" stroke="#263238" stroke-linecap="round" stroke-linejoin="round"/>
<path d="M113.36 176.682C113.571 177.645 113.678 178.629 113.678 179.616V179.766C107.318 179.958 99.3377 180.642 91.3397 181.5C91.0277 180.486 90.7397 179.472 90.4217 178.5C98.5637 177.6 106.754 176.886 113.36 176.682Z" fill="#92E3A9" stroke="#263238" stroke-linecap="round" stroke-linejoin="round"/>
<path d="M113.864 207.6C116.21 206.514 118.472 205.47 120.602 204.498L122.24 205.992L121.226 207.612L115.166 210.402C108.884 213.17 102.452 215.583 95.8998 217.632C95.5638 216.66 95.2638 215.652 95.0177 214.632C101.372 212.598 108.464 210.084 113.864 207.6Z" fill="#92E3A9" stroke="#263238" stroke-linecap="round" stroke-linejoin="round"/>
<path d="M94.0997 208.003C94.0997 207.295 94.0997 206.461 94.1537 205.555C101.602 204.306 108.966 202.598 116.204 200.443L118.868 202.873C110.756 205.361 102.488 207.305 94.1177 208.693C94.0997 208.453 94.0997 208.201 94.0997 208.003Z" fill="#92E3A9" stroke="#263238" stroke-linecap="round" stroke-linejoin="round"/>
<path d="M148.37 266.575L156.032 275.137C156.032 275.137 161.888 276.937 162.788 277.843C163.688 278.749 161.888 279.193 159.638 280.093C157.388 280.993 149.048 279.643 146.342 279.415C143.636 279.187 141.164 279.415 140.264 277.165C139.364 274.915 140.264 272.431 140.486 271.531C140.708 270.631 141.842 266.131 141.842 266.131L148.37 266.575Z" fill="#9C9C9C" stroke="#263238" stroke-linecap="round" stroke-linejoin="round"/>
<path d="M156.416 275.256C157.712 275.67 162.026 277.056 162.788 277.842C163.688 278.742 161.888 279.192 159.638 280.092C157.388 280.992 149.048 279.642 146.342 279.414C143.636 279.186 141.164 279.414 140.264 277.164C139.364 274.914 140.264 272.43 140.486 271.53C140.486 271.428 140.552 271.278 140.594 271.092C144.53 273.558 151.22 276.264 152.654 276.264C153.952 276.122 155.221 275.782 156.416 275.256Z" fill="#92E3A9" stroke="#263238" stroke-linecap="round" stroke-linejoin="round"/>
<path d="M171.128 251.707C171.128 251.707 179.9 261.397 181.04 262.747C182.18 264.097 185.54 264.547 185.318 266.125C185.096 267.703 181.49 267.253 179.918 267.025C178.346 266.797 168.428 264.325 167.078 263.875C165.728 263.425 163.922 262.747 163.694 260.719C163.466 258.691 165.05 253.519 165.05 253.519L171.128 251.707Z" fill="#9C9C9C" stroke="#263238" stroke-linecap="round" stroke-linejoin="round"/>
<path d="M163.7 260.718C163.562 259.452 164.126 256.962 164.564 255.264C166.778 256.344 168.914 259.266 170.012 259.818C171.362 260.49 181.724 263.874 181.724 263.874L182.198 263.604C183.614 264.384 185.498 264.936 185.33 266.124C185.102 267.702 181.502 267.252 179.93 267.024C178.358 266.796 168.44 264.324 167.09 263.874C165.74 263.424 163.916 262.746 163.7 260.718Z" fill="#92E3A9" stroke="#263238" stroke-linecap="round" stroke-linejoin="round"/>
<path d="M89.4438 155.725C91.3998 154.639 95.3118 156.595 96.6138 158.767L98.3478 165.283L104.648 186.355L136.28 186.199C136.28 186.199 145.232 184.225 146.534 184.255C147.836 184.285 154.478 188.563 154.466 189.211C154.454 189.859 152.714 189.811 152.714 189.811L149.678 189.529L146.432 188.803C146.432 188.803 143.594 189.607 142.286 189.577C141.191 189.505 140.105 189.336 139.04 189.073C139.04 189.073 104.87 196.801 102.698 196.801C100.526 196.801 98.1318 196.147 97.2618 194.629C96.3918 193.111 87.2718 170.515 86.8398 165.517C86.4078 160.519 87.4998 156.811 89.4438 155.725Z" fill="#9C9C9C" stroke="#263238" stroke-linecap="round" stroke-linejoin="round"/>
<path d="M152.51 189.462C152.51 189.462 147.47 186.768 146.912 186.66" stroke="#263238" stroke-linecap="round" stroke-linejoin="round"/>
<path d="M147.692 185.203C147.692 185.203 153.41 188.455 153.746 189.685" stroke="#263238" stroke-linecap="round" stroke-linejoin="round"/>
<path d="M79.7 159.001L83.3 158.797C83.3 158.797 92.57 185.599 93.782 195.673C94.994 205.747 94.5859 214.207 93.9799 217.027C93.3739 219.847 90.152 225.289 90.152 225.289L86.1259 226.297C86.1259 226.297 90.326 215.413 90.554 212.395C90.782 209.377 90.236 197.395 89.954 195.871C87.746 184.201 79.7 159.001 79.7 159.001Z" fill="#6E6E6E" stroke="#263238" stroke-linecap="round" stroke-linejoin="round"/>
<path d="M112.1 261.768C112.1 261.768 132.074 271.842 132.5 274.056C132.725 275.726 132.725 277.419 132.5 279.09L131.792 278.388L129.878 273.852L111.95 265.392L112.1 261.768Z" fill="#6E6E6E" stroke="#263238" stroke-linecap="round" stroke-linejoin="round"/>
<path d="M128.846 278.286C128.844 278.726 128.974 279.155 129.217 279.521C129.46 279.887 129.806 280.173 130.212 280.342C130.617 280.51 131.064 280.555 131.495 280.47C131.926 280.385 132.322 280.174 132.633 279.864C132.944 279.554 133.156 279.158 133.243 278.728C133.329 278.297 133.285 277.85 133.117 277.444C132.949 277.038 132.665 276.691 132.3 276.447C131.934 276.203 131.505 276.072 131.066 276.072C130.478 276.072 129.914 276.305 129.498 276.72C129.082 277.135 128.847 277.699 128.846 278.286Z" fill="#263238" stroke="#263238" stroke-linecap="round" stroke-linejoin="round"/>
<path d="M106.286 261.768C106.286 261.768 86.3359 271.842 85.9339 274.056C85.7085 275.726 85.7085 277.419 85.9339 279.09L86.6419 278.4L88.5559 273.864L106.484 265.404L106.286 261.768Z" fill="#6E6E6E" stroke="#263238" stroke-linecap="round" stroke-linejoin="round"/>
<path d="M89.5576 278.286C89.5576 278.724 89.4278 279.152 89.1845 279.516C88.9412 279.88 88.5954 280.164 88.1909 280.332C87.7863 280.499 87.3412 280.543 86.9117 280.458C86.4822 280.372 86.0877 280.161 85.7781 279.852C85.4684 279.542 85.2576 279.148 85.1722 278.718C85.0867 278.289 85.1306 277.844 85.2981 277.439C85.4657 277.034 85.7495 276.689 86.1136 276.445C86.4777 276.202 86.9057 276.072 87.3436 276.072C87.9303 276.074 88.4925 276.308 88.9074 276.722C89.3223 277.137 89.556 277.7 89.5576 278.286Z" fill="#263238" stroke="#263238" stroke-linecap="round" stroke-linejoin="round"/>
<path d="M107.894 228.924H111.116V263.982H107.894V228.924Z" fill="#263238" stroke="#263238" stroke-linecap="round" stroke-linejoin="round"/>
<path d="M104.672 232.35H114.14V238.8H104.672V232.35Z" fill="#263238" stroke="#263238" stroke-linecap="round" stroke-linejoin="round"/>
<path d="M86.8999 225.858C93.8779 225.126 116.354 223.176 136.508 225.858C136.679 225.884 136.839 225.957 136.971 226.07C137.102 226.182 137.2 226.33 137.251 226.495C137.303 226.66 137.308 226.836 137.264 227.004C137.221 227.171 137.131 227.323 137.006 227.442C134.864 229.464 128.918 233.136 113.528 234.144C97.6279 235.188 89.5279 230.304 86.3419 227.676C86.1915 227.543 86.0826 227.37 86.0281 227.177C85.9737 226.984 85.976 226.779 86.0349 226.587C86.0938 226.396 86.2067 226.225 86.3601 226.096C86.5135 225.966 86.7009 225.884 86.8999 225.858Z" fill="#6E6E6E" stroke="#263238" stroke-linecap="round" stroke-linejoin="round"/>
<path d="M137.03 227.442L136.988 227.478C136.825 227.629 136.611 227.715 136.388 227.718H86.402H86.366C86.2089 227.586 86.094 227.412 86.0359 227.216C85.9777 227.019 85.9788 226.81 86.0391 226.615C86.0994 226.419 86.2161 226.246 86.3746 226.117C86.5331 225.987 86.7263 225.907 86.93 225.888C93.914 225.156 116.384 223.206 136.532 225.888C136.698 225.915 136.854 225.988 136.981 226.099C137.108 226.209 137.203 226.352 137.255 226.513C137.306 226.673 137.312 226.845 137.273 227.009C137.233 227.172 137.149 227.322 137.03 227.442Z" fill="#263238" stroke="#263238" stroke-linecap="round" stroke-linejoin="round"/>
<path d="M105.68 258.541H113.132V266.401H105.68V258.541Z" fill="#263238" stroke="#263238" stroke-linecap="round" stroke-linejoin="round"/>
<path d="M109.1 262.471H110.21V280.501H109.1V262.471Z" fill="#6E6E6E" stroke="#263238" stroke-linecap="round" stroke-linejoin="round"/>
<path d="M108.692 275.803H110.642V280.525H108.692V275.803Z" fill="#263238" stroke="#263238" stroke-linecap="round" stroke-linejoin="round"/>
<path d="M101.852 227.719H106.286L109.106 200.719H106.082L101.852 227.719Z" fill="#6E6E6E" stroke="#263238" stroke-linecap="round" stroke-linejoin="round"/>
<path d="M94.1957 202.53H124.616C124.616 202.53 122.402 198.504 121.016 198.102C119.63 197.7 96.6377 198.102 96.6377 198.102C96.6377 198.102 94.1957 198.906 94.1957 202.53Z" fill="#263238" stroke="#263238" stroke-linecap="round" stroke-linejoin="round"/>
<path d="M124.616 202.531H94.1957C94.1969 202.194 94.2209 201.857 94.2677 201.523H124.022C124.382 202.111 124.616 202.531 124.616 202.531Z" fill="#6E6E6E" stroke="#263238" stroke-linecap="round" stroke-linejoin="round"/>
<path d="M218.9 197.093L215.468 205.931C214.268 208.439 213.776 212.705 214.1 215.471L222.152 279.311C222.173 279.482 222.158 279.655 222.107 279.82C222.057 279.985 221.972 280.138 221.859 280.268C221.746 280.398 221.607 280.503 221.451 280.576C221.294 280.649 221.124 280.688 220.952 280.691C220.665 280.694 220.387 280.596 220.166 280.412C219.946 280.228 219.799 279.971 219.752 279.689L204.368 197.945H210.008L210.998 202.649C211.036 202.819 211.129 202.972 211.262 203.084C211.395 203.197 211.562 203.263 211.736 203.272C211.911 203.28 212.083 203.232 212.227 203.133C212.371 203.035 212.479 202.892 212.534 202.727L214.436 196.727L218.9 197.093Z" fill="white" stroke="#263238" stroke-linecap="round" stroke-linejoin="round"/>
<path d="M210.56 200.573H204.866L204.368 197.945H210.008L210.56 200.573Z" fill="#263238" stroke="#263238" stroke-linecap="round" stroke-linejoin="round"/>
<path d="M214.436 196.738L218.93 197.092L217.58 200.572H213.218L214.436 196.738Z" fill="#263238" stroke="#263238" stroke-linecap="round" stroke-linejoin="round"/>
<path d="M132.278 197.093L135.71 205.931C136.91 208.439 137.408 212.705 137.084 215.471L129.026 279.311C129.005 279.482 129.02 279.655 129.071 279.82C129.121 279.985 129.206 280.138 129.319 280.268C129.432 280.398 129.571 280.503 129.728 280.576C129.884 280.649 130.054 280.688 130.226 280.691C130.513 280.694 130.792 280.596 131.012 280.412C131.232 280.228 131.379 279.971 131.426 279.689L146.84 197.945H141.2L140.21 202.649C140.175 202.82 140.083 202.974 139.95 203.088C139.817 203.202 139.65 203.269 139.475 203.278C139.301 203.286 139.128 203.237 138.984 203.138C138.84 203.038 138.733 202.893 138.68 202.727L136.772 196.727L132.278 197.093Z" fill="white" stroke="#263238" stroke-linecap="round" stroke-linejoin="round"/>
<path d="M141.2 197.945H146.84L146.342 200.573H140.648L141.2 197.945Z" fill="#263238" stroke="#263238" stroke-linecap="round" stroke-linejoin="round"/>
<path d="M137.99 200.572H133.628L132.278 197.092L136.772 196.738L137.99 200.572Z" fill="#263238" stroke="#263238" stroke-linecap="round" stroke-linejoin="round"/>
<path d="M125.828 192.678H224.954V197.916H125.828V192.678Z" fill="white" stroke="#263238" stroke-linecap="round" stroke-linejoin="round"/>
<path d="M133.178 191.201H158.51V192.713H133.178V191.201Z" fill="white" stroke="#263238" stroke-linecap="round" stroke-linejoin="round"/>
<path d="M173.774 192.376H184.826C185.763 192.376 186.665 192.016 187.345 191.371C188.025 190.726 188.431 189.844 188.48 188.908C188.502 188.503 188.455 188.098 188.342 187.708L181.418 167.794C181.348 167.592 181.201 167.426 181.008 167.333C180.816 167.24 180.594 167.226 180.392 167.296C180.19 167.366 180.024 167.514 179.931 167.706C179.837 167.899 179.824 168.12 179.894 168.322L186.806 188.194C186.863 188.403 186.886 188.62 186.872 188.836C186.843 189.36 186.615 189.852 186.234 190.212C185.854 190.573 185.35 190.774 184.826 190.774H173.774C173.572 190.792 173.384 190.884 173.247 191.034C173.11 191.183 173.034 191.379 173.034 191.581C173.034 191.784 173.11 191.98 173.247 192.129C173.384 192.278 173.572 192.371 173.774 192.388V192.376Z" fill="#263238" stroke="#263238" stroke-linecap="round" stroke-linejoin="round"/>
<path d="M176.63 140.531L164.426 187.259L165.758 188.261C165.758 188.261 181.1 176.243 181.1 166.199C181.1 156.155 178.43 140.825 178.43 140.825L176.63 140.531Z" fill="white" stroke="#263238" stroke-linecap="round" stroke-linejoin="round"/>
<path d="M176.63 140.531L178.448 140.849L165.758 188.261L164.426 187.259L176.63 140.531Z" fill="#263238" stroke="#263238" stroke-linecap="round" stroke-linejoin="round"/>
<path d="M210.416 183.239C210.416 183.239 214.748 176.303 211.28 172.403C207.812 168.503 202.178 170.399 201.026 173.999C199.874 177.599 202.322 183.677 202.322 183.677L210.416 183.239Z" fill="#92E3A9" stroke="#263238" stroke-linecap="round" stroke-linejoin="round"/>
<path d="M210.266 175.295C210.992 175.295 213.734 174.281 214.604 172.979C215.474 171.677 215.612 168.779 213.158 168.779C210.704 168.779 209.834 173.117 209.834 173.117L209.69 174.701" fill="#92E3A9"/>
<path d="M210.266 175.295C210.992 175.295 213.734 174.281 214.604 172.979C215.474 171.677 215.612 168.779 213.158 168.779C210.704 168.779 209.834 173.117 209.834 173.117L209.69 174.701" stroke="#263238" stroke-linecap="round" stroke-linejoin="round"/>
<path d="M208.046 172.595C208.694 172.271 210.698 170.141 210.896 168.593C211.094 167.045 209.93 164.393 207.728 165.485C205.526 166.577 206.69 170.849 206.69 170.849L207.29 172.337" fill="#92E3A9"/>
<path d="M208.046 172.595C208.694 172.271 210.698 170.141 210.896 168.593C211.094 167.045 209.93 164.393 207.728 165.485C205.526 166.577 206.69 170.849 206.69 170.849L207.29 172.337" stroke="#263238" stroke-linecap="round" stroke-linejoin="round"/>
<path d="M205.424 173.321C205.784 172.721 206.27 169.811 205.574 168.413C204.878 167.015 202.436 165.455 201.218 167.585C200 169.715 203.3 172.619 203.3 172.619L204.608 173.537" fill="#92E3A9"/>
<path d="M205.424 173.321C205.784 172.721 206.27 169.811 205.574 168.413C204.878 167.015 202.436 165.455 201.218 167.585C200 169.715 203.3 172.619 203.3 172.619L204.608 173.537" stroke="#263238" stroke-linecap="round" stroke-linejoin="round"/>
<path d="M204.56 178.5C204.68 177.786 204.14 174.9 203 173.844C201.86 172.788 199.034 172.152 198.626 174.576C198.218 177 202.352 178.566 202.352 178.566L203.894 178.974" fill="#92E3A9"/>
<path d="M204.56 178.5C204.68 177.786 204.14 174.9 203 173.844C201.86 172.788 199.034 172.152 198.626 174.576C198.218 177 202.352 178.566 202.352 178.566L203.894 178.974" stroke="#263238" stroke-linecap="round" stroke-linejoin="round"/>
<path d="M214.286 171.238L213.8 172.006" stroke="white" stroke-linecap="round" stroke-linejoin="round"/>
<path d="M212.894 173.123L212.126 173.747" stroke="white" stroke-linecap="round" stroke-linejoin="round"/>
<path d="M213.728 169.775L212.96 170.891" stroke="white" stroke-linecap="round" stroke-linejoin="round"/>
<path d="M211.916 171.797L211.076 173.327" stroke="white" stroke-linecap="round" stroke-linejoin="round"/>
<path d="M209.966 168.102L209.684 168.942" stroke="white" stroke-linecap="round" stroke-linejoin="round"/>
<path d="M208.988 170.471L208.502 171.167" stroke="white" stroke-linecap="round" stroke-linejoin="round"/>
<path d="M209.198 166.428L208.568 167.826" stroke="white" stroke-linecap="round" stroke-linejoin="round"/>
<path d="M211.634 176.256L211.43 177.516" stroke="white" stroke-linecap="round" stroke-linejoin="round"/>
<path d="M211.01 178.697L210.728 179.741" stroke="white" stroke-linecap="round" stroke-linejoin="round"/>
<path d="M210.314 176.328L210.032 177.72" stroke="white" stroke-linecap="round" stroke-linejoin="round"/>
<path d="M209.408 178.697L209.198 179.741" stroke="white" stroke-linecap="round" stroke-linejoin="round"/>
<path d="M208.916 174.516L208.502 176.466" stroke="white" stroke-linecap="round" stroke-linejoin="round"/>
<path d="M207.944 178.35L207.872 179.256" stroke="white" stroke-linecap="round" stroke-linejoin="round"/>
<path d="M207.176 173.885L206.828 175.697" stroke="white" stroke-linecap="round" stroke-linejoin="round"/>
<path d="M206.828 177.582L206.69 179.466" stroke="white" stroke-linecap="round" stroke-linejoin="round"/>
<path d="M205.154 174.588V176.118" stroke="white" stroke-linecap="round" stroke-linejoin="round"/>
<path d="M205.364 178.066L205.292 179.254" stroke="white" stroke-linecap="round" stroke-linejoin="round"/>
<path d="M203.408 167.334L203.762 168.174" stroke="white" stroke-linecap="round" stroke-linejoin="round"/>
<path d="M203.9 169.145L204.248 170.333" stroke="white" stroke-linecap="round" stroke-linejoin="round"/>
<path d="M201.878 168.941L202.436 170.051" stroke="white" stroke-linecap="round" stroke-linejoin="round"/>
<path d="M203.618 171.311L204.248 172.007" stroke="white" stroke-linecap="round" stroke-linejoin="round"/>
<path d="M204.944 168.869L205.154 169.775" stroke="white" stroke-linecap="round" stroke-linejoin="round"/>
<path d="M201.878 173.885L202.646 175.145" stroke="white" stroke-linecap="round" stroke-linejoin="round"/>
<path d="M203.132 175.908L203.552 177.024" stroke="white" stroke-linecap="round" stroke-linejoin="round"/>
<path d="M202.502 177.581L201.248 176.885" stroke="white" stroke-linecap="round" stroke-linejoin="round"/>
<path d="M200.486 173.885L201.11 174.935" stroke="white" stroke-linecap="round" stroke-linejoin="round"/>
<path d="M199.856 175.074L200.69 175.698" stroke="white" stroke-linecap="round" stroke-linejoin="round"/>
<path d="M200.756 180.82H212.606V192.67H200.756V180.82Z" fill="#263238" stroke="#263238" stroke-linecap="round" stroke-linejoin="round"/>
<path d="M65.4619 194.244L58.5919 260.112" stroke="#263238" stroke-width="2" stroke-miterlimit="10"/>
<path d="M59.6959 247.507L62.8159 244.219" stroke="#263238" stroke-width="2" stroke-miterlimit="10"/>
<path d="M61.8678 245.201C61.8734 244.698 61.9872 244.201 62.2015 243.746C62.4158 243.29 62.7255 242.886 63.1098 242.561C63.9078 241.841 68.1198 240.071 68.5098 241.553C68.9538 243.167 64.6398 246.335 61.8678 245.201Z" fill="#92E3A9" stroke="#263238" stroke-miterlimit="10"/>
<path d="M61.868 245.201L65.876 242.705" stroke="#263238" stroke-width="0.5" stroke-miterlimit="10"/>
<path d="M58.9158 254.999L62.0298 251.705" stroke="#263238" stroke-width="2" stroke-miterlimit="10"/>
<path d="M61.1 252.695C61.1055 252.192 61.2187 251.695 61.4319 251.239C61.645 250.782 61.9533 250.377 62.336 250.049C63.14 249.335 67.346 247.565 67.736 249.047C68.168 250.661 63.86 253.829 61.1 252.695Z" fill="#92E3A9" stroke="#263238" stroke-miterlimit="10"/>
<path d="M61.0877 252.695L65.0957 250.193" stroke="#263238" stroke-width="0.5" stroke-miterlimit="10"/>
<path d="M61.6041 229.23L64.7241 225.936" stroke="#263238" stroke-width="2" stroke-miterlimit="10"/>
<path d="M63.776 226.92C63.7819 226.417 63.8959 225.921 64.1102 225.465C64.3245 225.01 64.634 224.606 65.018 224.28C65.816 223.566 70.028 221.79 70.418 223.278C70.862 224.886 66.548 228.054 63.776 226.92Z" fill="#92E3A9" stroke="#263238" stroke-miterlimit="10"/>
<path d="M63.7757 226.92L67.7837 224.424" stroke="#263238" stroke-width="0.5" stroke-miterlimit="10"/>
<path d="M60.824 236.718L63.938 233.43" stroke="#263238" stroke-width="2" stroke-miterlimit="10"/>
<path d="M62.996 234.414C63.0016 233.91 63.1147 233.414 63.3279 232.957C63.5411 232.501 63.8493 232.095 64.232 231.768C65.036 231.054 69.242 229.284 69.632 230.766C70.1 232.38 65.768 235.548 62.996 234.414Z" fill="#92E3A9" stroke="#263238" stroke-miterlimit="10"/>
<path d="M62.9959 234.414L67.0039 231.918" stroke="#263238" stroke-width="0.5" stroke-miterlimit="10"/>
<path d="M62.8757 217.056L65.9897 213.768" stroke="#263238" stroke-width="2" stroke-miterlimit="10"/>
<path d="M65.048 214.752C65.0536 214.248 65.1667 213.752 65.3799 213.295C65.5931 212.839 65.9014 212.433 66.284 212.106C67.088 211.392 71.294 209.622 71.684 211.104C72.128 212.718 67.82 215.886 65.048 214.752Z" fill="#92E3A9" stroke="#263238" stroke-miterlimit="10"/>
<path d="M65.0477 214.752L69.0557 212.256" stroke="#263238" stroke-width="0.5" stroke-miterlimit="10"/>
<path d="M64.1541 204.835L67.2681 201.547" stroke="#263238" stroke-width="2" stroke-miterlimit="10"/>
<path d="M66.3199 202.529C66.3258 202.025 66.4397 201.528 66.654 201.072C66.8682 200.615 67.1778 200.21 67.5619 199.883C68.3599 199.169 72.5719 197.399 72.9619 198.881C73.4059 200.495 69.0979 203.663 66.3199 202.529Z" fill="#92E3A9" stroke="#263238" stroke-miterlimit="10"/>
<path d="M66.3201 202.529L70.3281 200.033" stroke="#263238" stroke-width="0.5" stroke-miterlimit="10"/>
<path d="M60.2241 243.079L57.8541 239.215" stroke="#263238" stroke-width="2" stroke-miterlimit="10"/>
<path d="M58.574 240.372C58.6725 239.878 58.664 239.368 58.5492 238.878C58.4343 238.387 58.2156 237.927 57.908 237.528C57.272 236.664 53.516 234.06 52.82 235.434C52.064 236.922 55.628 240.906 58.574 240.372Z" fill="#92E3A9" stroke="#263238" stroke-miterlimit="10"/>
<path d="M58.5737 240.372L54.9677 236.922" stroke="#263238" stroke-width="0.5" stroke-miterlimit="10"/>
<path d="M62.2817 223.362L59.9117 219.498" stroke="#263238" stroke-width="2" stroke-miterlimit="10"/>
<path d="M60.6321 220.657C60.7306 220.163 60.7221 219.653 60.6073 219.162C60.4924 218.672 60.2738 218.212 59.9661 217.813C59.3301 216.949 55.5741 214.351 54.8781 215.719C54.1221 217.201 57.6801 221.197 60.6321 220.657Z" fill="#92E3A9" stroke="#263238" stroke-miterlimit="10"/>
<path d="M60.6318 220.655L57.0258 217.205" stroke="#263238" stroke-width="0.5" stroke-miterlimit="10"/>
<path d="M63.1816 214.698L60.8116 210.834" stroke="#263238" stroke-width="2" stroke-miterlimit="10"/>
<path d="M61.5381 211.993C61.6349 211.499 61.625 210.99 61.5091 210.501C61.3932 210.011 61.1739 209.552 60.8661 209.155C60.2361 208.285 56.4801 205.687 55.7841 207.055C55.0221 208.543 58.5861 212.533 61.5381 211.993Z" fill="#92E3A9" stroke="#263238" stroke-miterlimit="10"/>
<path d="M61.5381 211.991L57.9261 208.541" stroke="#263238" stroke-width="0.5" stroke-miterlimit="10"/>
<path d="M64.5078 201.997L62.1378 198.133" stroke="#263238" stroke-width="2" stroke-miterlimit="10"/>
<path d="M62.8638 199.291C62.9606 198.797 62.9507 198.289 62.8348 197.799C62.7189 197.31 62.4996 196.851 62.1918 196.453C61.5618 195.589 57.8058 192.985 57.1098 194.353C56.3478 195.841 59.8998 199.831 62.8638 199.291Z" fill="#92E3A9" stroke="#263238" stroke-miterlimit="10"/>
<path d="M62.8638 199.29L59.2518 195.846" stroke="#263238" stroke-width="0.5" stroke-miterlimit="10"/>
<path d="M65.5218 193.879C65.6207 193.385 65.6125 192.875 65.4976 192.384C65.3827 191.894 65.1638 191.434 64.8558 191.035C64.2198 190.171 60.4638 187.567 59.7678 188.935C59.0118 190.423 62.5698 194.401 65.5218 193.879Z" fill="#92E3A9" stroke="#263238" stroke-miterlimit="10"/>
<path d="M65.522 193.878L61.916 190.428" stroke="#263238" stroke-width="0.5" stroke-miterlimit="10"/>
<path d="M65.2999 194.022C65.8018 194.068 66.3077 194.006 66.7837 193.841C67.2598 193.675 67.6949 193.41 68.0599 193.062C68.8519 192.342 71.0599 188.334 69.6139 187.782C68.0659 187.2 64.4719 191.148 65.2999 194.022Z" fill="#92E3A9" stroke="#263238" stroke-miterlimit="10"/>
<path d="M65.3117 194.022L68.3657 190.074" stroke="#263238" stroke-width="0.5" stroke-miterlimit="10"/>
<path d="M47.3299 203.316L54.1699 269.19" stroke="#263238" stroke-width="2" stroke-miterlimit="10"/>
<path d="M52.6578 256.626L55.0278 252.762" stroke="#263238" stroke-width="2" stroke-miterlimit="10"/>
<path d="M54.3077 253.926C54.2088 253.432 54.2171 252.922 54.332 252.432C54.4469 251.941 54.6658 251.481 54.9738 251.082C55.6098 250.218 59.3657 247.62 60.0617 248.988C60.8177 250.476 57.2537 254.46 54.3077 253.926Z" fill="#92E3A9" stroke="#263238" stroke-miterlimit="10"/>
<path d="M54.3078 253.926L57.7158 250.656" stroke="#263238" stroke-width="0.5" stroke-miterlimit="10"/>
<path d="M50.7618 238.344L53.1318 234.48" stroke="#263238" stroke-width="2" stroke-miterlimit="10"/>
<path d="M52.4058 235.643C52.3089 235.148 52.3187 234.639 52.4346 234.148C52.5505 233.658 52.7698 233.198 53.0778 232.799C53.7138 231.935 57.4697 229.337 58.1657 230.705C58.9217 232.199 55.3578 236.177 52.4058 235.643Z" fill="#92E3A9" stroke="#263238" stroke-miterlimit="10"/>
<path d="M52.406 235.643L55.814 232.373" stroke="#263238" stroke-width="0.5" stroke-miterlimit="10"/>
<path d="M51.5361 245.839L53.9121 241.975" stroke="#263238" stroke-width="2" stroke-miterlimit="10"/>
<path d="M53.1856 243.133C53.0872 242.638 53.0962 242.128 53.2122 241.637C53.3281 241.147 53.5482 240.687 53.8576 240.289C54.4936 239.431 58.2436 236.827 58.9396 238.195C59.7016 239.683 56.1376 243.673 53.1856 243.133Z" fill="#92E3A9" stroke="#263238" stroke-miterlimit="10"/>
<path d="M53.1858 243.131L56.5938 239.861" stroke="#263238" stroke-width="0.5" stroke-miterlimit="10"/>
<path d="M49.4961 226.177L51.8721 222.312" stroke="#263238" stroke-width="2" stroke-miterlimit="10"/>
<path d="M51.1457 223.469C51.0473 222.975 51.0563 222.465 51.1723 221.974C51.2882 221.483 51.5083 221.023 51.8177 220.625C52.4477 219.761 56.2037 217.163 56.8997 218.531C57.6617 220.019 54.0917 224.009 51.1457 223.469Z" fill="#92E3A9" stroke="#263238" stroke-miterlimit="10"/>
<path d="M51.1457 223.469L54.5537 220.199" stroke="#263238" stroke-width="0.5" stroke-miterlimit="10"/>
<path d="M48.2301 213.948L50.6001 210.09" stroke="#263238" stroke-width="2" stroke-miterlimit="10"/>
<path d="M49.88 211.248C49.7811 210.754 49.7894 210.245 49.9043 209.754C50.0192 209.264 50.238 208.803 50.546 208.404C51.182 207.54 54.938 204.942 55.634 206.31C56.39 207.798 52.826 211.8 49.88 211.248Z" fill="#92E3A9" stroke="#263238" stroke-miterlimit="10"/>
<path d="M49.8801 211.249L53.2881 207.979" stroke="#263238" stroke-width="0.5" stroke-miterlimit="10"/>
<path d="M52.2559 252.181L49.1419 248.887" stroke="#263238" stroke-width="2" stroke-miterlimit="10"/>
<path d="M50.0898 249.876C50.0839 249.372 49.97 248.875 49.7558 248.418C49.5415 247.962 49.2319 247.557 48.8478 247.23C48.0498 246.516 43.8438 244.74 43.4478 246.222C43.0038 247.836 47.2998 251.004 50.0898 249.876Z" fill="#92E3A9" stroke="#263238" stroke-miterlimit="10"/>
<path d="M50.0898 249.876L45.8478 247.242" stroke="#263238" stroke-width="0.5" stroke-miterlimit="10"/>
<path d="M50.21 232.464L47.096 229.17" stroke="#263238" stroke-width="2" stroke-miterlimit="10"/>
<path d="M48.0439 230.159C48.038 229.655 47.9241 229.158 47.7099 228.701C47.4956 228.245 47.186 227.84 46.802 227.513C46.004 226.799 41.798 225.023 41.402 226.505C40.958 228.119 45.2659 231.287 48.0439 230.159Z" fill="#92E3A9" stroke="#263238" stroke-miterlimit="10"/>
<path d="M48.0439 230.159L43.802 227.525" stroke="#263238" stroke-width="0.5" stroke-miterlimit="10"/>
<path d="M49.3101 223.8L46.1961 220.506" stroke="#263238" stroke-width="2" stroke-miterlimit="10"/>
<path d="M47.144 221.495C47.1381 220.991 47.0242 220.494 46.81 220.037C46.5957 219.581 46.2861 219.176 45.9021 218.849C45.1041 218.135 40.8981 216.359 40.5021 217.841C40.0581 219.455 44.366 222.599 47.144 221.495Z" fill="#92E3A9" stroke="#263238" stroke-miterlimit="10"/>
<path d="M47.144 221.495L42.9021 218.861" stroke="#263238" stroke-width="0.5" stroke-miterlimit="10"/>
<path d="M47.9961 211.099L44.8821 207.805" stroke="#263238" stroke-width="2" stroke-miterlimit="10"/>
<path d="M45.8237 208.8C45.8182 208.296 45.705 207.799 45.4918 207.343C45.2787 206.887 44.9704 206.481 44.5877 206.154C43.7897 205.44 39.5777 203.664 39.1877 205.146C38.7437 206.754 43.0517 209.922 45.8237 208.8Z" fill="#92E3A9" stroke="#263238" stroke-miterlimit="10"/>
<path d="M45.8237 208.794L41.5817 206.16" stroke="#263238" stroke-width="0.5" stroke-miterlimit="10"/>
<path d="M47.2998 202.944C47.2942 202.44 47.1811 201.944 46.9679 201.487C46.7547 201.031 46.4465 200.625 46.0638 200.298C45.2658 199.584 41.0538 197.808 40.6638 199.296C40.2318 200.904 44.5398 204.078 47.2998 202.944Z" fill="#92E3A9" stroke="#263238" stroke-miterlimit="10"/>
<path d="M47.312 202.945L43.07 200.311" stroke="#263238" stroke-width="0.5" stroke-miterlimit="10"/>
<path d="M47.138 203.13C47.6405 203.07 48.1241 202.902 48.5559 202.638C48.9876 202.374 49.3574 202.02 49.64 201.6C50.24 200.73 51.59 196.356 50.072 196.116C48.422 195.876 45.722 200.49 47.138 203.13Z" fill="#92E3A9" stroke="#263238" stroke-miterlimit="10"/>
<path d="M47.1379 203.131L49.3159 198.637" stroke="#263238" stroke-width="0.5" stroke-miterlimit="10"/>
<path d="M55.166 176.49V259.794" stroke="#263238" stroke-width="2" stroke-miterlimit="10"/>
<path d="M55.0999 247.266L57.8599 243.672" stroke="#263238" stroke-width="2" stroke-miterlimit="10"/>
<path d="M57.0199 244.752C56.9739 244.25 57.0357 243.744 57.2013 243.268C57.3669 242.792 57.6324 242.357 57.9799 241.992C58.6999 241.2 62.7019 238.992 63.2539 240.432C63.8539 241.992 59.8999 245.592 57.0199 244.752Z" fill="#92E3A9" stroke="#263238" stroke-miterlimit="10"/>
<path d="M57.0201 244.752L60.7461 241.848" stroke="#263238" stroke-width="0.5" stroke-miterlimit="10"/>
<path d="M55.0999 231.612L57.8599 228.018" stroke="#263238" stroke-width="2" stroke-miterlimit="10"/>
<path d="M57.0199 229.091C56.974 228.59 57.0359 228.085 57.2015 227.61C57.3671 227.135 57.6325 226.701 57.9799 226.337C58.6999 225.545 62.7019 223.337 63.2539 224.777C63.8539 226.337 59.8999 229.931 57.0199 229.091Z" fill="#92E3A9" stroke="#263238" stroke-miterlimit="10"/>
<path d="M57.0201 229.091L60.7461 226.193" stroke="#263238" stroke-width="0.5" stroke-miterlimit="10"/>
<path d="M55.0999 213.235L57.8599 209.635" stroke="#263238" stroke-width="2" stroke-miterlimit="10"/>
<path d="M57.0199 210.714C56.9739 210.212 57.0357 209.706 57.2013 209.23C57.3669 208.754 57.6324 208.319 57.9799 207.954C58.6999 207.162 62.7019 204.954 63.2539 206.4C63.8539 207.954 59.8999 211.554 57.0199 210.714Z" fill="#92E3A9" stroke="#263238" stroke-miterlimit="10"/>
<path d="M57.0201 210.714L60.7461 207.816" stroke="#263238" stroke-width="0.5" stroke-miterlimit="10"/>
<path d="M55.0999 200.994L57.8599 197.4" stroke="#263238" stroke-width="2" stroke-miterlimit="10"/>
<path d="M57.0199 198.48C56.9739 197.978 57.0357 197.472 57.2013 196.996C57.3669 196.52 57.6324 196.085 57.9799 195.72C58.6999 194.928 62.7019 192.72 63.2539 194.16C63.8539 195.72 59.8999 199.32 57.0199 198.48Z" fill="#92E3A9" stroke="#263238" stroke-miterlimit="10"/>
<path d="M57.0201 198.48L60.7461 195.576" stroke="#263238" stroke-width="0.5" stroke-miterlimit="10"/>
<path d="M55.0999 188.705L57.8599 185.111" stroke="#263238" stroke-width="2" stroke-miterlimit="10"/>
<path d="M57.0199 186.191C56.9739 185.689 57.0357 185.183 57.2013 184.707C57.3669 184.231 57.6324 183.796 57.9799 183.431C58.6999 182.639 62.7019 180.431 63.2539 181.871C63.8539 183.431 59.8999 187.025 57.0199 186.191Z" fill="#92E3A9" stroke="#263238" stroke-miterlimit="10"/>
<path d="M57.0201 186.191L60.7461 183.287" stroke="#263238" stroke-width="0.5" stroke-miterlimit="10"/>
<path d="M55.1597 252.047L52.3997 248.453" stroke="#263238" stroke-width="2" stroke-miterlimit="10"/>
<path d="M53.2397 249.528C53.2856 249.027 53.2237 248.522 53.0581 248.047C52.8925 247.572 52.6271 247.137 52.2797 246.774C51.5597 245.976 47.5577 243.774 47.0057 245.214C46.4057 246.774 50.3657 250.368 53.2397 249.528Z" fill="#92E3A9" stroke="#263238" stroke-miterlimit="10"/>
<path d="M53.2397 249.529L49.2918 246.475" stroke="#263238" stroke-width="0.5" stroke-miterlimit="10"/>
<path d="M55.1597 227.149L52.3997 223.555" stroke="#263238" stroke-width="2" stroke-miterlimit="10"/>
<path d="M53.2401 224.634C53.2861 224.133 53.2243 223.627 53.0587 223.151C52.8932 222.675 52.6277 222.239 52.2801 221.874C51.5601 221.082 47.5581 218.874 47.0061 220.314C46.4061 221.874 50.3661 225.474 53.2401 224.634Z" fill="#92E3A9" stroke="#263238" stroke-miterlimit="10"/>
<path d="M53.2397 224.634L49.2918 221.574" stroke="#263238" stroke-width="0.5" stroke-miterlimit="10"/>
<path d="M55.1597 214.86L52.3997 211.266" stroke="#263238" stroke-width="2" stroke-miterlimit="10"/>
<path d="M53.2397 212.34C53.2856 211.839 53.2237 211.334 53.0581 210.859C52.8925 210.384 52.6271 209.95 52.2797 209.586C51.5597 208.788 47.5577 206.586 47.0057 208.026C46.4057 209.586 50.3657 213.18 53.2397 212.34Z" fill="#92E3A9" stroke="#263238" stroke-miterlimit="10"/>
<path d="M53.2397 212.339L49.2918 209.285" stroke="#263238" stroke-width="0.5" stroke-miterlimit="10"/>
<path d="M55.1597 198.618L52.3997 195.018" stroke="#263238" stroke-width="2" stroke-miterlimit="10"/>
<path d="M53.2399 196.098C53.2863 195.597 53.2246 195.092 53.0589 194.617C52.8933 194.142 52.6277 193.708 52.2799 193.344C51.5599 192.546 47.5579 190.344 47.0059 191.784C46.4059 193.344 50.3659 196.938 53.2399 196.098Z" fill="#92E3A9" stroke="#263238" stroke-miterlimit="10"/>
<path d="M53.2397 196.097L49.2918 193.043" stroke="#263238" stroke-width="0.5" stroke-miterlimit="10"/>
<path d="M55.1597 185.85L52.3997 182.25" stroke="#263238" stroke-width="2" stroke-miterlimit="10"/>
<path d="M53.2401 183.33C53.2861 182.828 53.2243 182.322 53.0587 181.846C52.8932 181.37 52.6277 180.935 52.2801 180.57C51.5601 179.778 47.5581 177.57 47.0061 179.01C46.4061 180.6 50.3661 184.2 53.2401 183.33Z" fill="#92E3A9" stroke="#263238" stroke-miterlimit="10"/>
<path d="M53.2397 183.329L49.2918 180.275" stroke="#263238" stroke-width="0.5" stroke-miterlimit="10"/>
<path d="M55.328 177.666C55.374 177.164 55.3122 176.658 55.1466 176.182C54.981 175.706 54.7156 175.271 54.368 174.906C53.648 174.114 49.64 171.906 49.088 173.346C48.5 174.906 52.448 178.506 55.328 177.666Z" fill="#92E3A9" stroke="#263238" stroke-miterlimit="10"/>
<path d="M55.3281 177.665L51.3801 174.611" stroke="#263238" stroke-width="0.5" stroke-miterlimit="10"/>
<path d="M55.1359 177.834C55.6392 177.828 56.1354 177.714 56.5908 177.5C57.0463 177.285 57.4504 176.976 57.7759 176.592C58.4899 175.794 60.2539 171.582 58.7719 171.192C57.1579 170.748 53.9959 175.062 55.1359 177.834Z" fill="#92E3A9" stroke="#263238" stroke-miterlimit="10"/>
<path d="M55.1358 177.834L57.7578 173.592" stroke="#263238" stroke-width="0.5" stroke-miterlimit="10"/>
<path d="M51.7401 281.399H60.5601L61.6641 259.121H50.6361L51.7401 281.399Z" fill="#263238" stroke="#263238" stroke-miterlimit="10"/>
</svg>
