<svg width="24" height="24" viewBox="0 0 24 24" fill="none" xmlns="http://www.w3.org/2000/svg">
<path d="M2.99634 -0.000976562C1.3515 -0.000976562 0 1.35053 0 2.99536V7.99382C0 9.63865 1.3515 10.9999 2.99634 10.9999H8.0026C9.64744 10.9999 10.9989 9.63865 10.9989 7.99382V2.99536C10.9989 1.35053 9.64744 -0.000976562 8.0026 -0.000976562H2.99634ZM15.9974 -0.000976562C14.3526 -0.000976562 13.0011 1.35053 13.0011 2.99536V7.99382C13.0011 9.63865 14.3526 10.9999 15.9974 10.9999H21.0037C22.6485 10.9999 24 9.63865 24 7.99382V2.99536C24 1.35053 22.6485 -0.000976562 21.0037 -0.000976562H15.9974ZM2.99634 1.99919H8.0026C8.57395 1.99919 8.99878 2.42402 8.99878 2.99536V7.99382C8.99878 8.56516 8.57395 8.9978 8.0026 8.9978H2.99634C2.42499 8.9978 2.00016 8.56516 2.00016 7.99382V2.99536C2.00016 2.42402 2.42499 1.99919 2.99634 1.99919ZM15.9974 1.99919H21.0037C21.575 1.99919 21.9998 2.42402 21.9998 2.99536V7.99382C21.9998 8.56516 21.575 8.9978 21.0037 8.9978H15.9974C15.4261 8.9978 15.0012 8.56516 15.0012 7.99382V2.99536C15.0012 2.42402 15.4261 1.99919 15.9974 1.99919ZM2.99634 13.0001C1.3515 13.0001 0 14.3516 0 15.9964V21.0027C0 22.6475 1.3515 23.999 2.99634 23.999H8.0026C9.64744 23.999 10.9989 22.6475 10.9989 21.0027V15.9964C10.9989 14.3516 9.64744 13.0001 8.0026 13.0001H2.99634ZM15.9974 13.0001C14.3526 13.0001 13.0011 14.3516 13.0011 15.9964V21.0027C13.0011 22.6475 14.3526 23.999 15.9974 23.999H21.0037C22.6485 23.999 24 22.6475 24 21.0027V15.9964C24 14.3516 22.6485 13.0001 21.0037 13.0001H15.9974ZM2.99634 15.0002H8.0026C8.57395 15.0002 8.99878 15.4251 8.99878 15.9964V21.0027C8.99878 21.574 8.57395 21.9989 8.0026 21.9989H2.99634C2.42499 21.9989 2.00016 21.574 2.00016 21.0027V15.9964C2.00016 15.4251 2.42499 15.0002 2.99634 15.0002ZM15.9974 15.0002H21.0037C21.575 15.0002 21.9998 15.4251 21.9998 15.9964V21.0027C21.9998 21.574 21.575 21.9989 21.0037 21.9989H15.9974C15.4261 21.9989 15.0012 21.574 15.0012 21.0027V15.9964C15.0012 15.4251 15.4261 15.0002 15.9974 15.0002Z" fill="#9D50BB"/>
</svg>
