<svg width="188" height="139" viewBox="0 0 188 139" fill="none" xmlns="http://www.w3.org/2000/svg">
<path d="M149.27 76.3294V76.4566C149.198 80.5193 148.425 84.5456 146.979 88.3842C142.797 99.8128 133.302 110.111 122.263 110.111C111.46 110.111 102.133 100.239 97.8212 89.1002C96.1963 84.9114 95.2836 80.5431 95.2646 76.4566V76.3294C95.2646 75.783 95.2836 75.2442 95.3134 74.7252C95.4012 73.1283 95.6681 71.544 96.1096 69.9976C96.2779 69.412 96.4795 68.8349 96.7136 68.2687C100.343 59.305 110.409 55.8223 122.266 55.8223C134.123 55.8223 144.203 59.315 147.829 68.2687C148.055 68.8226 148.254 69.3989 148.428 69.9976C148.869 71.5482 149.135 73.1367 149.221 74.7377C149.251 75.2367 149.27 75.783 149.27 76.3294Z" fill="black"/>
<path d="M146.069 76.651C146.025 80.5477 145.345 84.4162 144.054 88.127C140.365 99.0018 131.994 108.801 122.266 108.801C112.741 108.801 104.524 99.4084 100.722 88.8106C99.2806 84.8946 98.5202 80.7933 98.4688 76.6585C98.4688 76.1396 98.4823 75.6282 98.5121 75.1317C98.5893 73.6179 98.8224 72.1143 99.2081 70.6411C101.843 60.8915 111.165 57.1543 122.266 57.1543C133.367 57.1543 142.692 60.8965 145.327 70.6411C145.715 72.114 145.949 73.6177 146.026 75.1317C146.055 75.6207 146.069 76.1321 146.069 76.651Z" fill="#F0BEB4"/>
<path d="M168.991 128.836C168.991 142.059 75.5568 142.059 75.5568 128.836C75.5525 128.08 75.6177 127.325 75.7518 126.578C77.2874 118.136 87.3675 110.966 101.524 107.369C108.286 105.684 115.264 104.845 122.269 104.874C129.272 104.847 136.247 105.687 143.008 107.369C157.181 110.971 167.272 118.156 168.791 126.613C168.924 127.348 168.991 128.091 168.991 128.836Z" fill="#66439A"/>
<path d="M143.011 110.414C141.527 130.292 122.445 135.718 122.445 135.718C122.445 135.718 102.97 131.37 101.526 110.414C108.288 108.728 115.266 107.889 122.272 107.919C129.275 107.891 136.251 108.73 143.011 110.414Z" fill="#5764AE"/>
<path d="M108.402 103.617H136.132V114.455C136.132 116.439 135.276 118.343 133.752 119.747C132.229 121.15 130.162 121.939 128.007 121.939H116.538C114.383 121.939 112.317 121.15 110.793 119.747C109.269 118.343 108.413 116.439 108.413 114.455V103.617H108.402Z" fill="#F0BEB4"/>
<path d="M105.619 72.1903C105.619 72.1903 115.81 75.9848 116.389 73.6248C116.969 71.2647 106.114 69.1367 105.619 72.1903Z" fill="black"/>
<path d="M137.083 72.1903C137.083 72.1903 126.892 75.9848 126.312 73.6248C125.733 71.2647 136.588 69.1367 137.083 72.1903Z" fill="black"/>
<path d="M112.855 76.9402C112.85 77.1869 112.792 77.4303 112.685 77.6563C112.577 77.8824 112.422 78.0867 112.229 78.2577C112.036 78.4287 111.808 78.5629 111.559 78.6528C111.309 78.7426 111.043 78.7863 110.775 78.7814C109.627 78.7814 108.284 77.2296 108.284 76.2117C108.286 75.1315 112.855 75.86 112.855 76.9402Z" fill="black"/>
<path d="M129.841 76.9404C129.847 77.1871 129.905 77.4305 130.012 77.6565C130.119 77.8826 130.274 78.0869 130.467 78.2579C130.66 78.4289 130.888 78.5631 131.138 78.653C131.387 78.7428 131.653 78.7865 131.921 78.7816C133.072 78.7816 134.413 77.2298 134.413 76.2119C134.413 75.1941 129.841 75.925 129.841 76.9404Z" fill="black"/>
<path d="M188 69.2965C188 66.9896 159.485 65.1191 124.308 65.1191C89.1314 65.1191 60.6299 66.9932 60.6299 69.2965C60.6299 71.5997 91.0825 68.4848 126.265 68.4848C161.447 68.4848 188 71.607 188 69.2965Z" fill="black"/>
<path d="M186.601 68.484C182.041 67.1312 167.483 66.0237 148.274 65.5079C140.901 65.3113 132.851 65.2049 124.41 65.2049C93.9767 65.2049 68.5285 66.6027 62.2197 68.4785L124.41 31L124.427 31.0126L186.601 68.484Z" fill="#66439A"/>
<g style="mix-blend-mode:multiply" opacity="0.2">
<path d="M148.274 65.5085C150.57 48.5774 125.184 31.5146 124.427 31.0078L186.601 68.4846C182.042 67.1318 167.484 66.0243 148.274 65.5085Z" fill="#3F244C"/>
</g>
<path d="M117.089 38.459L82.5693 61.4811L90.991 60.3195L117.089 38.459Z" fill="url(#paint0_linear_7368_11552)"/>
<path d="M145.435 92.6826C145.435 92.6826 145.435 86.6078 137.389 83.901C129.342 81.1941 122.537 84.9663 122.537 84.9663C115.121 81.3338 107.955 83.644 107.955 83.644C93.6017 88.3991 100.93 99.0668 100.93 99.0668C104.17 104.063 107.094 109.228 109.689 114.534C113.163 121.769 120.722 123.418 122.556 123.72C124.863 124.481 128.733 124.306 128.733 124.306C125.678 120.609 130.358 115.393 130.358 115.393C133.722 112.683 136.889 109.772 139.837 106.678C146.353 99.0194 145.435 92.6826 145.435 92.6826ZM135.252 98.3308C133.009 101.998 127.815 107.472 127.815 107.472L122.537 101.794L116.614 107.187C106.531 97.9391 108.974 94.1969 108.974 94.1969C110.515 88.3267 120.031 87.461 122.125 87.3488C122.125 87.3488 129.548 87.9251 131.991 89.7063C134.434 91.4876 137.5 94.6635 135.252 98.3308Z" fill="black"/>
<path d="M114.073 91.4182L116.21 91.291L130.672 91.3559C130.672 91.3559 128.329 92.6432 124.156 92.4636C124.156 92.4636 116.822 92.7006 114.073 91.4182Z" fill="black"/>
<path d="M45.0046 85.2756L46.6656 84.4363C48.3793 83.5775 50.4368 83.7322 51.9985 84.8517L53.5285 85.9373L52.6824 84.2633C51.8165 82.5363 51.9573 80.4704 53.0618 78.9086L54.1327 77.3786L52.4717 78.2179C50.7581 79.0767 48.7006 78.9221 47.1388 77.8025L45.6089 76.7169L46.455 78.3909C47.3209 80.1179 47.1801 82.1838 46.0755 83.7456L45.0046 85.2756Z" fill="url(#paint1_linear_7368_11552)"/>
<path d="M45.0046 85.2756L46.6656 84.4363C48.3793 83.5775 50.4368 83.7322 51.9985 84.8517L53.5285 85.9373L52.6824 84.2633C51.8165 82.5363 51.9573 80.4704 53.0618 78.9086L54.1327 77.3786L52.4717 78.2179C50.7581 79.0767 48.7006 78.9221 47.1388 77.8025L45.6089 76.7169L46.455 78.3909C47.3209 80.1179 47.1801 82.1838 46.0755 83.7456L45.0046 85.2756Z" fill="url(#paint2_linear_7368_11552)"/>
<path d="M45.0046 85.2756L46.6656 84.4363C48.3793 83.5775 50.4368 83.7322 51.9985 84.8517L53.5285 85.9373L52.6824 84.2633C51.8165 82.5363 51.9573 80.4704 53.0618 78.9086L54.1327 77.3786L52.4717 78.2179C50.7581 79.0767 48.7006 78.9221 47.1388 77.8025L45.6089 76.7169L46.455 78.3909C47.3209 80.1179 47.1801 82.1838 46.0755 83.7456L45.0046 85.2756Z" fill="url(#paint3_linear_7368_11552)"/>
<path d="M45.0046 85.2756L46.6656 84.4363C48.3793 83.5775 50.4368 83.7322 51.9985 84.8517L53.5285 85.9373L52.6824 84.2633C51.8165 82.5363 51.9573 80.4704 53.0618 78.9086L54.1327 77.3786L52.4717 78.2179C50.7581 79.0767 48.7006 78.9221 47.1388 77.8025L45.6089 76.7169L46.455 78.3909C47.3209 80.1179 47.1801 82.1838 46.0755 83.7456L45.0046 85.2756Z" fill="url(#paint4_linear_7368_11552)"/>
<path d="M45.0046 85.2756L46.6656 84.4363C48.3793 83.5775 50.4368 83.7322 51.9985 84.8517L53.5285 85.9373L52.6824 84.2633C51.8165 82.5363 51.9573 80.4704 53.0618 78.9086L54.1327 77.3786L52.4717 78.2179C50.7581 79.0767 48.7006 78.9221 47.1388 77.8025L45.6089 76.7169L46.455 78.3909C47.3209 80.1179 47.1801 82.1838 46.0755 83.7456L45.0046 85.2756Z" fill="url(#paint5_linear_7368_11552)"/>
<path d="M45.0046 85.2756L46.6656 84.4363C48.3793 83.5775 50.4368 83.7322 51.9985 84.8517L53.5285 85.9373L52.6824 84.2633C51.8165 82.5363 51.9573 80.4704 53.0618 78.9086L54.1327 77.3786L52.4717 78.2179C50.7581 79.0767 48.7006 78.9221 47.1388 77.8025L45.6089 76.7169L46.455 78.3909C47.3209 80.1179 47.1801 82.1838 46.0755 83.7456L45.0046 85.2756Z" fill="url(#paint6_linear_7368_11552)"/>
<path d="M45.0046 85.2756L46.6656 84.4363C48.3793 83.5775 50.4368 83.7322 51.9985 84.8517L53.5285 85.9373L52.6824 84.2633C51.8165 82.5363 51.9573 80.4704 53.0618 78.9086L54.1327 77.3786L52.4717 78.2179C50.7581 79.0767 48.7006 78.9221 47.1388 77.8025L45.6089 76.7169L46.455 78.3909C47.3209 80.1179 47.1801 82.1838 46.0755 83.7456L45.0046 85.2756Z" fill="url(#paint7_linear_7368_11552)"/>
<path d="M45.0046 85.2756L46.6656 84.4363C48.3793 83.5775 50.4368 83.7322 51.9985 84.8517L53.5285 85.9373L52.6824 84.2633C51.8165 82.5363 51.9573 80.4704 53.0618 78.9086L54.1327 77.3786L52.4717 78.2179C50.7581 79.0767 48.7006 78.9221 47.1388 77.8025L45.6089 76.7169L46.455 78.3909C47.3209 80.1179 47.1801 82.1838 46.0755 83.7456L45.0046 85.2756Z" fill="url(#paint8_linear_7368_11552)"/>
<path d="M93.5843 127.254L91.8588 128.676L65.9552 100.765L55.5122 88.7988L66.818 100.054L93.5843 127.254Z" fill="url(#paint9_linear_7368_11552)"/>
<defs>
<linearGradient id="paint0_linear_7368_11552" x1="99.612" y1="112.337" x2="99.6953" y2="58.8133" gradientUnits="userSpaceOnUse">
<stop stop-color="#231F20"/>
<stop offset="1" stop-color="#FCD6D1"/>
</linearGradient>
<linearGradient id="paint1_linear_7368_11552" x1="43.0662" y1="80.6984" x2="52.9792" y2="86.9216" gradientUnits="userSpaceOnUse">
<stop stop-color="#FEDF78"/>
<stop offset="0.458" stop-color="#9E9708"/>
<stop offset="1" stop-color="#C5B00D"/>
</linearGradient>
<linearGradient id="paint2_linear_7368_11552" x1="43.0662" y1="80.6984" x2="52.9792" y2="86.9216" gradientUnits="userSpaceOnUse">
<stop stop-color="#FEDF78"/>
<stop offset="0.458" stop-color="#9E9708"/>
<stop offset="1" stop-color="#C5B00D"/>
</linearGradient>
<linearGradient id="paint3_linear_7368_11552" x1="43.0662" y1="80.6984" x2="52.9792" y2="86.9216" gradientUnits="userSpaceOnUse">
<stop stop-color="#FEDF78"/>
<stop offset="0.458" stop-color="#9E9708"/>
<stop offset="1" stop-color="#C5B00D"/>
</linearGradient>
<linearGradient id="paint4_linear_7368_11552" x1="43.0662" y1="80.6984" x2="52.9792" y2="86.9216" gradientUnits="userSpaceOnUse">
<stop stop-color="#FEDF78"/>
<stop offset="0.458" stop-color="#9E9708"/>
<stop offset="1" stop-color="#C5B00D"/>
</linearGradient>
<linearGradient id="paint5_linear_7368_11552" x1="43.0662" y1="80.6984" x2="52.9792" y2="86.9216" gradientUnits="userSpaceOnUse">
<stop stop-color="#FEDF78"/>
<stop offset="0.458" stop-color="#9E9708"/>
<stop offset="1" stop-color="#C5B00D"/>
</linearGradient>
<linearGradient id="paint6_linear_7368_11552" x1="43.0662" y1="80.6984" x2="52.9792" y2="86.9216" gradientUnits="userSpaceOnUse">
<stop stop-color="#FEDF78"/>
<stop offset="0.458" stop-color="#9E9708"/>
<stop offset="1" stop-color="#C5B00D"/>
</linearGradient>
<linearGradient id="paint7_linear_7368_11552" x1="43.0662" y1="80.6984" x2="52.9792" y2="86.9216" gradientUnits="userSpaceOnUse">
<stop stop-color="#FEDF78"/>
<stop offset="0.458" stop-color="#9E9708"/>
<stop offset="1" stop-color="#C5B00D"/>
</linearGradient>
<linearGradient id="paint8_linear_7368_11552" x1="43.0662" y1="80.6984" x2="52.9792" y2="86.9216" gradientUnits="userSpaceOnUse">
<stop stop-color="#FEDF78"/>
<stop offset="0.458" stop-color="#9E9708"/>
<stop offset="1" stop-color="#C5B00D"/>
</linearGradient>
<linearGradient id="paint9_linear_7368_11552" x1="58.0408" y1="99.8103" x2="86.01" y2="93.5253" gradientUnits="userSpaceOnUse">
<stop stop-color="#5B03B2"/>
<stop offset="1" stop-color="#9D50BB"/>
</linearGradient>
</defs>
</svg>
