<svg width="167" height="37" viewBox="0 0 167 37" fill="none" xmlns="http://www.w3.org/2000/svg">
<g clip-path="url(#clip0_3405_30308)">
<path d="M50.4078 8.78991H41.9355V28.1966H45.6408V21.1579H50.4078C54.7183 21.1579 57.3937 18.9816 57.3937 14.9686C57.3937 10.9556 54.7183 8.7793 50.4078 8.7793V8.78991ZM49.8876 18.3871H45.6302V11.5714H49.8876C52.3507 11.5714 53.6778 12.6649 53.6778 14.9686C53.6778 17.2724 52.3507 18.3765 49.8876 18.3765V18.3871Z" fill="#27302F"/>
<path d="M65.4625 13.8652C60.8761 13.8652 58.3174 16.7529 58.3174 21.1693C58.3174 25.5857 60.8761 28.4733 65.4625 28.4733C70.049 28.4733 72.629 25.6069 72.629 21.1693C72.629 16.7316 70.0597 13.8652 65.4625 13.8652ZM65.4625 25.8086C63.1375 25.8086 61.8316 24.2799 61.8316 21.1693C61.8316 18.0587 63.1375 16.5406 65.4625 16.5406C67.7876 16.5406 69.1148 18.0587 69.1148 21.1693C69.1148 24.2799 67.8089 25.8086 65.4625 25.8086Z" fill="#27302F"/>
<path d="M74.6348 13.7479V28.1967H78.149V11.9219L74.6348 13.7479Z" fill="#27302F"/>
<path d="M84.2228 8.78906L80.7192 10.5938V28.1957H84.2334V8.78906H84.2228Z" fill="#27302F"/>
<path d="M95.572 10.3187C98.6827 10.3187 100.01 11.8156 100.01 14.6077H102.133C102.165 14.3635 102.165 14.1087 102.165 13.8752C102.165 10.5204 99.9886 8.53516 95.7843 8.53516C91.0704 8.53516 88.0658 10.8283 88.0658 14.7776C88.0658 17.3149 89.4566 18.6207 92.5143 19.0878L95.3703 19.5231C98.0988 19.9371 98.9163 20.6696 98.9163 22.2727C98.9163 25.224 96.57 26.6891 93.2256 26.6891C89.8813 26.6891 88.4268 25.1922 88.4268 22.1453H86.2503C86.2291 22.4744 86.1973 22.7717 86.1973 23.0689C86.1973 26.6466 88.5436 28.4939 93.0133 28.4939C98.3005 28.4939 101.273 26.1158 101.273 22.0391C101.273 19.3426 99.5533 18.0792 96.4213 17.6227L93.5654 17.1769C91.2721 16.8159 90.4334 16.1365 90.4334 14.4803C90.4334 11.6776 92.6948 10.3399 95.5826 10.3399L95.572 10.3187Z" fill="#27302F"/>
<path d="M116.317 21.5196C116.423 21.1056 116.53 20.4261 116.53 19.6405C116.53 16.859 114.926 13.8652 110.828 13.8652C105.817 13.8652 103.142 17.8357 103.142 22.698C103.142 26.212 105.244 28.4733 108.981 28.4733C112.718 28.4733 114.81 26.7216 115.744 23.9189H113.695C112.888 25.7237 111.295 26.8915 109.119 26.8915C106.773 26.8915 105.361 25.4689 105.361 22.7723C105.361 22.3902 105.361 21.9867 105.435 21.5196H116.317ZM110.722 15.4365C112.983 15.4365 114.321 16.9864 114.321 19.4388C114.321 19.6299 114.321 19.7998 114.3 19.9909H105.69C106.316 16.9334 108.301 15.4365 110.733 15.4365H110.722Z" fill="#27302F"/>
<path d="M126.393 13.8641C124.503 13.8641 122.815 14.7878 121.732 16.3908L122.146 14.1295H119.991L117.538 28.1962H119.799L121.18 20.149C121.679 17.2826 123.558 15.6795 125.734 15.6795C127.486 15.6795 128.431 16.5501 128.431 18.2168C128.431 18.5459 128.399 18.8644 128.346 19.2572L126.764 28.1962H129.026L130.661 18.8963C130.735 18.4822 130.767 18.047 130.767 17.6966C130.767 15.1593 129.1 13.8535 126.382 13.8535L126.393 13.8641Z" fill="#27302F"/>
<path d="M139.261 15.4258C141.766 15.4258 142.318 16.5724 142.318 18.1967H144.357C144.389 17.9844 144.389 17.7614 144.389 17.5703C144.389 14.9269 142.287 13.8652 139.452 13.8652C135.938 13.8652 133.506 15.3621 133.506 18.3559C133.506 20.5111 134.897 21.4984 136.989 21.785L139.25 22.146C140.715 22.3583 141.512 22.9104 141.512 24.11C141.512 25.8617 140.131 26.9127 137.594 26.9127C135.194 26.9127 134.165 25.9254 134.165 23.9083H132.116C132.094 24.1206 132.062 24.3542 132.062 24.5665C132.062 26.8596 133.761 28.4627 137.403 28.4627C141.575 28.4627 143.784 26.6367 143.784 23.9614C143.784 21.7001 142.318 20.6703 139.887 20.3094L137.594 19.9484C136.5 19.7891 135.768 19.3751 135.768 18.1755C135.768 16.1584 137.233 15.4046 139.25 15.4046L139.261 15.4258Z" fill="#27302F"/>
<path d="M159.103 21.5196C159.209 21.1056 159.316 20.4261 159.316 19.6405C159.316 16.859 157.702 13.8652 153.614 13.8652C148.603 13.8652 145.928 17.8357 145.928 22.698C145.928 26.212 148.03 28.4733 151.756 28.4733C155.483 28.4733 157.596 26.7216 158.519 23.9189H156.47C155.653 25.7237 154.071 26.8915 151.894 26.8915C149.548 26.8915 148.136 25.4689 148.136 22.7723C148.136 22.3902 148.136 21.9867 148.21 21.5196H159.093H159.103ZM153.508 15.4365C155.77 15.4365 157.107 16.9864 157.107 19.4388C157.107 19.6299 157.107 19.7998 157.086 19.9909H148.476C149.102 16.9334 151.088 15.4365 153.519 15.4365H153.508Z" fill="#27302F"/>
<path d="M164.794 8.82031C163.753 8.82031 163.212 9.45729 163.212 10.2641C163.212 10.8693 163.669 11.3364 164.465 11.3364C165.505 11.3364 166.068 10.7313 166.068 9.89256C166.068 9.28743 165.601 8.82031 164.783 8.82031H164.794ZM162.777 14.1391L160.324 28.2057H162.586L165.038 14.1391H162.777Z" fill="#27302F"/>
<path d="M23.3243 0.997515L2.66386 16.009L-0.000976562 12.3464L13.5886 2.47319C14.9688 1.52833 16.5826 0.880736 18.3556 0.615327C20.0756 0.360535 21.7743 0.509164 23.3349 0.986899L23.3243 0.997515Z" fill="url(#paint0_linear_3405_30308)"/>
<path d="M29.0251 5.29655L6.67656 21.5395L4.01172 17.8769L26.339 1.64453C27.4538 2.65308 28.3775 3.89519 29.0251 5.29655Z" fill="url(#paint1_linear_3405_30308)"/>
<path d="M28.7708 8.32422C28.7708 11.4348 27.4862 14.3224 25.3522 16.4139L10.6902 27.0727L8.02539 23.41L28.7708 8.32422Z" fill="url(#paint2_linear_3405_30308)"/>
<path d="M20.6279 36.4974C23.9643 36.4974 26.6689 33.7929 26.6689 30.4567C26.6689 27.1205 23.9643 24.416 20.6279 24.416C17.2916 24.416 14.5869 27.1205 14.5869 30.4567C14.5869 33.7929 17.2916 36.4974 20.6279 36.4974Z" fill="url(#paint3_linear_3405_30308)"/>
</g>
<defs>
<linearGradient id="paint0_linear_3405_30308" x1="11.8581" y1="8.03615" x2="8.60965" y2="-14.7147" gradientUnits="userSpaceOnUse">
<stop stop-color="#5B03B2"/>
<stop offset="1" stop-color="#9D50BB"/>
</linearGradient>
<linearGradient id="paint1_linear_3405_30308" x1="17.0493" y1="15.2971" x2="12.1766" y2="-18.8238" gradientUnits="userSpaceOnUse">
<stop stop-color="#5B03B2"/>
<stop offset="1" stop-color="#9D50BB"/>
</linearGradient>
<linearGradient id="paint2_linear_3405_30308" x1="19.2581" y1="21.8813" x2="13.7272" y2="-16.8684" gradientUnits="userSpaceOnUse">
<stop stop-color="#5B03B2"/>
<stop offset="1" stop-color="#9D50BB"/>
</linearGradient>
<linearGradient id="paint3_linear_3405_30308" x1="21.0738" y1="33.6098" x2="14.6088" y2="-11.6902" gradientUnits="userSpaceOnUse">
<stop stop-color="#5B03B2"/>
<stop offset="1" stop-color="#9D50BB"/>
</linearGradient>
<clipPath id="clip0_3405_30308">
<rect width="166.08" height="36" fill="white" transform="translate(0 0.5)"/>
</clipPath>
</defs>
</svg>
