<svg width="60" height="40" viewBox="0 0 60 40" fill="none" xmlns="http://www.w3.org/2000/svg">
<rect x="0.5" y="0.5" width="59" height="39" rx="3.5" fill="#FCFCFC" stroke="#EFF0F7"/>
<path d="M10 20L14 23.5L14 16.5L10 20Z" fill="#6E7191"/>
<path d="M19.0254 15.3926H22.8984C23.6641 15.3926 24.2812 15.6094 24.75 16.043C25.2188 16.4727 25.4531 17.0781 25.4531 17.8594C25.4531 18.5312 25.2441 19.1172 24.8262 19.6172C24.4082 20.1133 23.7656 20.3613 22.8984 20.3613H20.1914V24H19.0254V15.3926ZM24.2754 17.8652C24.2754 17.2324 24.041 16.8027 23.5723 16.5762C23.3145 16.4551 22.9609 16.3945 22.5117 16.3945H20.1914V19.377H22.5117C23.0352 19.377 23.459 19.2656 23.7832 19.043C24.1113 18.8203 24.2754 18.4277 24.2754 17.8652ZM27.0566 17.7246H28.0586V18.8086C28.1406 18.5977 28.3418 18.3418 28.6621 18.041C28.9824 17.7363 29.3516 17.584 29.7695 17.584C29.7891 17.584 29.8223 17.5859 29.8691 17.5898C29.916 17.5938 29.9961 17.6016 30.1094 17.6133V18.7266C30.0469 18.7148 29.9883 18.707 29.9336 18.7031C29.8828 18.6992 29.8262 18.6973 29.7637 18.6973C29.2324 18.6973 28.8242 18.8691 28.5391 19.2129C28.2539 19.5527 28.1113 19.9453 28.1113 20.3906V24H27.0566V17.7246ZM33.8867 17.584C34.332 17.584 34.7637 17.6895 35.1816 17.9004C35.5996 18.1074 35.918 18.377 36.1367 18.709C36.3477 19.0254 36.4883 19.3945 36.5586 19.8164C36.6211 20.1055 36.6523 20.5664 36.6523 21.1992H32.0527C32.0723 21.8359 32.2227 22.3477 32.5039 22.7344C32.7852 23.1172 33.2207 23.3086 33.8105 23.3086C34.3613 23.3086 34.8008 23.127 35.1289 22.7637C35.3164 22.5527 35.4492 22.3086 35.5273 22.0312H36.5645C36.5371 22.2617 36.4453 22.5195 36.2891 22.8047C36.1367 23.0859 35.9648 23.3164 35.7734 23.4961C35.4531 23.8086 35.0566 24.0195 34.584 24.1289C34.3301 24.1914 34.043 24.2227 33.7227 24.2227C32.9414 24.2227 32.2793 23.9395 31.7363 23.373C31.1934 22.8027 30.9219 22.0059 30.9219 20.9824C30.9219 19.9746 31.1953 19.1562 31.7422 18.5273C32.2891 17.8984 33.0039 17.584 33.8867 17.584ZM35.5684 20.3613C35.5254 19.9043 35.4258 19.5391 35.2695 19.2656C34.9805 18.7578 34.498 18.5039 33.8223 18.5039C33.3379 18.5039 32.9316 18.6797 32.6035 19.0312C32.2754 19.3789 32.1016 19.8223 32.082 20.3613H35.5684ZM38.7188 17.7246L40.3945 22.834L42.1465 17.7246H43.3008L40.9336 24H39.8086L37.4941 17.7246H38.7188Z" fill="#6E7191"/>
</svg>
