<svg width="70" height="70" viewBox="0 0 70 70" fill="none" xmlns="http://www.w3.org/2000/svg">
<path d="M26.7175 31.699C26.4258 31.6698 26.0758 31.6698 25.755 31.699C18.8133 31.4656 13.3008 25.7781 13.3008 18.7781C13.3008 11.6323 19.0758 5.82812 26.2508 5.82812C33.3966 5.82812 39.2008 11.6323 39.2008 18.7781C39.1716 25.7781 33.6591 31.4656 26.7175 31.699Z" stroke="#9D50BB" stroke-width="3" stroke-linecap="round" stroke-linejoin="round"/>
<path d="M47.8596 11.6719C53.518 11.6719 58.068 16.251 58.068 21.8802C58.068 27.3927 53.693 31.8844 48.2388 32.0885C48.0055 32.0594 47.743 32.0594 47.4805 32.0885" stroke="#9D50BB" stroke-width="3" stroke-linecap="round" stroke-linejoin="round"/>
<path d="M12.1355 42.4719C5.07721 47.1969 5.07721 54.8969 12.1355 59.5927C20.1564 64.9594 33.3105 64.9594 41.3314 59.5927C48.3897 54.8677 48.3897 47.1677 41.3314 42.4719C33.3397 37.1344 20.1855 37.1344 12.1355 42.4719Z" stroke="#9D50BB" stroke-width="3" stroke-linecap="round" stroke-linejoin="round"/>
<path d="M53.4922 58.3281C55.5922 57.8906 57.5755 57.0448 59.2089 55.7906C63.7589 52.3781 63.7589 46.749 59.2089 43.3365C57.6047 42.1115 55.6505 41.2948 53.5797 40.8281" stroke="#9D50BB" stroke-width="3" stroke-linecap="round" stroke-linejoin="round"/>
</svg>
