<svg width="73" height="72" viewBox="0 0 73 72" fill="none" xmlns="http://www.w3.org/2000/svg">
<g clip-path="url(#clip0_4277_47237)">
<path fill-rule="evenodd" clip-rule="evenodd" d="M29.771 46.9131C25.206 46.9131 20.9144 45.1354 17.6862 41.9072C11.0226 35.2438 11.0226 24.4012 17.6862 17.7373C20.9136 14.5096 25.2052 12.7324 29.7699 12.7324C30.7467 12.7324 31.7294 12.8165 32.6907 12.9827C32.9641 13.0297 33.1759 13.2482 33.2147 13.5225C33.2535 13.797 33.1106 14.0656 32.8606 14.1868C29.7339 15.7024 27.714 18.925 27.714 22.3971C27.714 23.2059 27.8203 24.0092 28.0307 24.7846C28.0678 24.9227 28.0582 25.0689 28.0025 25.2006L26.1705 29.5318L30.2396 29.027C30.4219 29.0039 30.6075 29.0619 30.745 29.1853C32.419 30.6881 34.581 31.5155 36.8324 31.5155C38.4445 31.5155 40.0291 31.0888 41.4145 30.2819C41.6134 30.1661 41.8586 30.1661 42.0575 30.2819C43.2989 31.005 44.6579 31.4148 46.0963 31.4986C46.2746 31.5093 46.4399 31.5937 46.553 31.7318C46.6664 31.8699 46.7164 32.049 46.6911 32.2257C46.1699 35.9174 44.4976 39.2651 41.8553 41.9069C38.6279 45.1356 34.336 46.9134 29.771 46.9134V46.9131ZM29.7699 14.0096C25.5464 14.0096 21.5757 15.6541 18.5893 18.6404C12.424 24.8065 12.424 34.8382 18.5899 41.0041C21.5765 43.9904 25.5472 45.6357 29.7713 45.6357C33.9949 45.6357 37.9664 43.991 40.953 41.0041C43.2385 38.7181 44.7398 35.862 45.3192 32.7086C44.0679 32.5485 42.8467 32.1593 41.7363 31.5653C40.2347 32.3694 38.5469 32.7929 36.8327 32.7929C34.3641 32.7929 31.9901 31.9205 30.1139 30.3295L25.23 30.9353C25.0069 30.9645 24.7794 30.8686 24.6419 30.6866C24.5043 30.5044 24.4742 30.2631 24.5631 30.0527L26.7414 24.9022C26.5392 24.0848 26.4365 23.2436 26.4365 22.3968C26.4365 19.0864 28.0472 15.9755 30.6589 14.0349C30.3628 14.0177 30.0663 14.0093 29.7699 14.0093V14.0096Z" fill="url(#paint0_linear_4277_47237)"/>
<path fill-rule="evenodd" clip-rule="evenodd" d="M29.7705 41.6602C26.6084 41.6602 23.6356 40.4286 21.3994 38.1923C19.1637 35.9564 17.9321 32.9838 17.9321 29.8217C17.9321 26.6594 19.1632 23.6868 21.3994 21.4506C23.1108 19.7397 25.2697 18.6071 27.6432 18.176C27.8721 18.1355 28.1041 18.2201 28.2515 18.3996C28.3986 18.579 28.4369 18.824 28.3516 19.04C27.9284 20.1085 27.714 21.2371 27.714 22.3962C27.714 23.205 27.8206 24.0083 28.0307 24.784C28.0679 24.9218 28.0583 25.0683 28.0026 25.1997L26.1705 29.5309L30.24 29.0261C30.4233 29.003 30.6081 29.061 30.7451 29.1844C32.4194 30.6872 34.5814 31.5146 36.8325 31.5146C38.1496 31.5146 39.4206 31.2395 40.61 30.6978C40.8215 30.6019 41.0673 30.6275 41.2543 30.7656C41.4405 30.9037 41.5381 31.1318 41.508 31.3619C41.1674 33.9688 40.0033 36.3307 38.1414 38.1923C35.9055 40.4286 32.9329 41.6602 29.7705 41.6602ZM26.7929 19.6883C25.1018 20.1827 23.5659 21.092 22.3033 22.3545C20.3087 24.3492 19.2101 27.0008 19.2101 29.8217C19.2101 32.6427 20.3087 35.2946 22.3033 37.2895C24.298 39.2842 26.9502 40.3827 29.7711 40.3827C32.5921 40.3827 35.244 39.2842 37.2389 37.2895C38.6359 35.8925 39.5921 34.1803 40.0416 32.288C39.0108 32.623 37.9358 32.7926 36.8333 32.7926C34.3648 32.7926 31.9907 31.9199 30.1145 30.3291L25.2306 30.9349C25.0073 30.9642 24.78 30.8683 24.6425 30.6863C24.5047 30.5043 24.4749 30.2627 24.5637 30.0524L26.742 24.9018C26.5398 24.0848 26.4372 23.243 26.4372 22.3967C26.4372 21.4736 26.5567 20.5666 26.7938 19.6883H26.7929Z" fill="url(#paint1_linear_4277_47237)"/>
<path fill-rule="evenodd" clip-rule="evenodd" d="M55.2952 59.9993C54.425 59.9993 53.6237 59.6584 53.0379 59.0408L38.5481 43.7351C38.4168 43.5967 38.3543 43.4069 38.378 43.2179C38.401 43.0286 38.5076 42.8598 38.6685 42.7569L38.8429 42.6458C39.6976 42.1021 40.1265 41.8293 40.9522 41.0033C41.8146 40.1407 42.2724 39.4691 42.9722 38.2875C43.0715 38.121 43.2411 38.008 43.4334 37.9807C43.6284 37.954 43.8202 38.0161 43.9611 38.1494L59.352 52.725C59.9584 53.2996 60.2987 54.0848 60.3105 54.9379C60.3223 55.8098 59.9775 56.6614 59.3641 57.2748L57.588 59.0517C56.9861 59.6536 56.1505 59.999 55.2949 59.999L55.2952 59.9993ZM40.0067 43.4176L53.9655 58.1616C54.3072 58.523 54.7794 58.7216 55.2952 58.7216C55.8141 58.7216 56.3207 58.5126 56.6849 58.1489L58.461 56.3723C58.8319 56.0013 59.0404 55.4852 59.0336 54.9559C59.0263 54.4508 58.828 53.9881 58.4736 53.6528L43.657 39.6218C43.11 40.4959 42.6226 41.1394 41.8556 41.9067C41.1067 42.6556 40.6378 43.0064 40.0067 43.4178V43.4176Z" fill="url(#paint2_linear_4277_47237)"/>
<path fill-rule="evenodd" clip-rule="evenodd" d="M50.0992 55.646C49.9358 55.646 49.7724 55.5835 49.6476 55.4589C49.3981 55.21 49.3981 54.805 49.6476 54.5558L54.8679 49.3355C55.1165 49.0861 55.522 49.0861 55.7709 49.3355C56.0204 49.5844 56.0204 49.9894 55.7709 50.2386L50.5506 55.4589C50.4261 55.5838 50.2624 55.646 50.0992 55.646Z" fill="url(#paint3_linear_4277_47237)"/>
<path fill-rule="evenodd" clip-rule="evenodd" d="M46.6395 32.7923C40.9074 32.7923 36.2437 28.1283 36.2437 22.3962C36.2437 16.664 40.9071 12 46.6395 12C52.372 12 57.0357 16.664 57.0357 22.3962C57.0357 23.2419 56.933 24.0837 56.7308 24.9013L58.9091 30.0518C58.998 30.2622 58.9679 30.5035 58.8309 30.6858C58.6931 30.8677 58.4695 30.9628 58.2423 30.9344L53.3586 30.3286C51.4821 31.9193 49.1081 32.7923 46.6398 32.7923H46.6395ZM46.6395 13.278C41.6113 13.278 37.5214 17.3685 37.5214 22.3962C37.5214 27.4241 41.6119 31.5143 46.6395 31.5143C48.891 31.5143 51.0529 30.6872 52.7272 29.1842C52.8645 29.061 53.0476 29.0022 53.2323 29.0258L57.3012 29.5307L55.47 25.1994C55.4146 25.0678 55.4042 24.9218 55.4416 24.7837C55.6519 24.0072 55.7583 23.2034 55.7583 22.3959C55.7583 17.3677 51.6675 13.2777 46.6393 13.2777L46.6395 13.278Z" fill="url(#paint4_linear_4277_47237)"/>
<path fill-rule="evenodd" clip-rule="evenodd" d="M36.8327 32.792C34.3641 32.792 31.9901 31.9193 30.1139 30.3286L25.23 30.9344C25.0069 30.9636 24.7794 30.868 24.6419 30.6858C24.5043 30.5038 24.4742 30.2622 24.5631 30.0518L26.7414 24.9013C26.5392 24.084 26.4365 23.2427 26.4365 22.3962C26.4365 16.6637 31.1005 12 36.8327 12C38.6701 12 40.4771 12.4866 42.0578 13.4071C42.2544 13.5216 42.375 13.7319 42.375 13.9592C42.375 14.1867 42.2544 14.3968 42.0578 14.5113C39.2596 16.1414 37.5209 19.1623 37.5209 22.3964C37.5209 25.6297 39.2593 28.6518 42.0578 30.2816C42.2544 30.3961 42.375 30.6064 42.375 30.8337C42.375 31.0609 42.2544 31.2713 42.0578 31.3858C40.4777 32.3052 38.6707 32.792 36.8327 32.792ZM30.3186 29.0205C30.4753 29.0205 30.6272 29.0784 30.7453 29.1839C32.4196 30.6866 34.5813 31.514 36.8327 31.514C38.0879 31.514 39.3265 31.2556 40.4673 30.7603C37.8373 28.8132 36.2437 25.702 36.2437 22.3956C36.2437 19.0892 37.8376 15.9777 40.4667 14.0309C39.326 13.5353 38.0876 13.2772 36.8324 13.2772C31.8042 13.2772 27.7142 17.3677 27.7142 22.3953C27.7142 23.2042 27.8208 24.0075 28.0309 24.7829C28.0681 24.921 28.0582 25.0672 28.0028 25.1991L26.1707 29.5304L30.2402 29.0255C30.2663 29.0219 30.2922 29.0205 30.3186 29.0205Z" fill="url(#paint5_linear_4277_47237)"/>
<path fill-rule="evenodd" clip-rule="evenodd" d="M52.5702 19.4474H40.8389C40.4862 19.4474 40.2002 19.1613 40.2002 18.8086C40.2002 18.456 40.4862 18.1699 40.8389 18.1699H52.5702C52.9229 18.1699 53.2089 18.456 53.2089 18.8086C53.2089 19.1613 52.9232 19.4474 52.5702 19.4474Z" fill="url(#paint6_linear_4277_47237)"/>
<path fill-rule="evenodd" clip-rule="evenodd" d="M52.5702 23.0353H40.8389C40.4862 23.0353 40.2002 22.7492 40.2002 22.3965C40.2002 22.0438 40.4862 21.7578 40.8389 21.7578H52.5702C52.9229 21.7578 53.2089 22.0438 53.2089 22.3965C53.2089 22.7492 52.9232 23.0353 52.5702 23.0353Z" fill="url(#paint7_linear_4277_47237)"/>
<path fill-rule="evenodd" clip-rule="evenodd" d="M52.5702 26.6231H40.8389C40.4862 26.6231 40.2002 26.3371 40.2002 25.9844C40.2002 25.6317 40.4862 25.3457 40.8389 25.3457H52.5702C52.9229 25.3457 53.2089 25.6317 53.2089 25.9844C53.2089 26.3371 52.9232 26.6231 52.5702 26.6231Z" fill="url(#paint8_linear_4277_47237)"/>
<path fill-rule="evenodd" clip-rule="evenodd" d="M34.5905 19.4474H30.2769C29.9242 19.4474 29.6382 19.1613 29.6382 18.8086C29.6382 18.456 29.9242 18.1699 30.2769 18.1699H34.5905C34.9431 18.1699 35.2292 18.456 35.2292 18.8086C35.2292 19.1613 34.9426 19.4474 34.5905 19.4474Z" fill="url(#paint9_linear_4277_47237)"/>
<path fill-rule="evenodd" clip-rule="evenodd" d="M34.5905 23.0353H30.2769C29.9242 23.0353 29.6382 22.7492 29.6382 22.3965C29.6382 22.0438 29.9242 21.7578 30.2769 21.7578H34.5905C34.9431 21.7578 35.2292 22.0438 35.2292 22.3965C35.2292 22.7492 34.9426 23.0353 34.5905 23.0353Z" fill="url(#paint10_linear_4277_47237)"/>
<path fill-rule="evenodd" clip-rule="evenodd" d="M34.5905 26.6231H30.2769C29.9242 26.6231 29.6382 26.3371 29.6382 25.9844C29.6382 25.6317 29.9242 25.3457 30.2769 25.3457H34.5905C34.9431 25.3457 35.2292 25.6317 35.2292 25.9844C35.2292 26.3371 34.9426 26.6231 34.5905 26.6231Z" fill="url(#paint11_linear_4277_47237)"/>
</g>
<defs>
<linearGradient id="paint0_linear_4277_47237" x1="12.6885" y1="20.949" x2="46.8948" y2="21.2116" gradientUnits="userSpaceOnUse">
<stop stop-color="#5B03B2"/>
<stop offset="1" stop-color="#9D50BB"/>
</linearGradient>
<linearGradient id="paint1_linear_4277_47237" x1="17.9321" y1="23.8137" x2="41.6502" y2="23.9973" gradientUnits="userSpaceOnUse">
<stop stop-color="#5B03B2"/>
<stop offset="1" stop-color="#9D50BB"/>
</linearGradient>
<linearGradient id="paint2_linear_4277_47237" x1="38.373" y1="43.269" x2="60.438" y2="43.4386" gradientUnits="userSpaceOnUse">
<stop stop-color="#5B03B2"/>
<stop offset="1" stop-color="#9D50BB"/>
</linearGradient>
<linearGradient id="paint3_linear_4277_47237" x1="49.4604" y1="50.7103" x2="55.9957" y2="50.7608" gradientUnits="userSpaceOnUse">
<stop stop-color="#5B03B2"/>
<stop offset="1" stop-color="#9D50BB"/>
</linearGradient>
<linearGradient id="paint4_linear_4277_47237" x1="36.2437" y1="16.9982" x2="59.0911" y2="17.1907" gradientUnits="userSpaceOnUse">
<stop stop-color="#5B03B2"/>
<stop offset="1" stop-color="#9D50BB"/>
</linearGradient>
<linearGradient id="paint5_linear_4277_47237" x1="24.5127" y1="16.9981" x2="42.4789" y2="17.1172" gradientUnits="userSpaceOnUse">
<stop stop-color="#5B03B2"/>
<stop offset="1" stop-color="#9D50BB"/>
</linearGradient>
<linearGradient id="paint6_linear_4277_47237" x1="40.2002" y1="18.477" x2="53.2049" y2="19.4986" gradientUnits="userSpaceOnUse">
<stop stop-color="#5B03B2"/>
<stop offset="1" stop-color="#9D50BB"/>
</linearGradient>
<linearGradient id="paint7_linear_4277_47237" x1="40.2002" y1="22.0649" x2="53.2049" y2="23.0865" gradientUnits="userSpaceOnUse">
<stop stop-color="#5B03B2"/>
<stop offset="1" stop-color="#9D50BB"/>
</linearGradient>
<linearGradient id="paint8_linear_4277_47237" x1="40.2002" y1="25.6528" x2="53.2049" y2="26.6744" gradientUnits="userSpaceOnUse">
<stop stop-color="#5B03B2"/>
<stop offset="1" stop-color="#9D50BB"/>
</linearGradient>
<linearGradient id="paint9_linear_4277_47237" x1="29.6382" y1="18.477" x2="35.2555" y2="18.6667" gradientUnits="userSpaceOnUse">
<stop stop-color="#5B03B2"/>
<stop offset="1" stop-color="#9D50BB"/>
</linearGradient>
<linearGradient id="paint10_linear_4277_47237" x1="29.6382" y1="22.0649" x2="35.2555" y2="22.2546" gradientUnits="userSpaceOnUse">
<stop stop-color="#5B03B2"/>
<stop offset="1" stop-color="#9D50BB"/>
</linearGradient>
<linearGradient id="paint11_linear_4277_47237" x1="29.6382" y1="25.6528" x2="35.2555" y2="25.8424" gradientUnits="userSpaceOnUse">
<stop stop-color="#5B03B2"/>
<stop offset="1" stop-color="#9D50BB"/>
</linearGradient>
<clipPath id="clip0_4277_47237">
<rect width="48" height="48" fill="white" transform="translate(12.5 12)"/>
</clipPath>
</defs>
</svg>
