<svg width="73" height="72" viewBox="0 0 73 72" fill="none" xmlns="http://www.w3.org/2000/svg">
<g clip-path="url(#clip0_8942_14440)">
<path d="M29.364 0.706055C25.8346 0.706055 22.5169 1.76208 19.764 3.52958C19.6228 3.38841 19.411 3.17664 19.1993 2.96488C18.9875 2.75311 18.6346 2.68253 18.4228 2.8237L16.9404 3.52958C16.2346 3.24723 15.811 3.03547 15.1757 2.75311L14.611 1.20017C14.3993 0.917819 14.1169 0.706055 13.8346 0.706055H10.5875C10.3051 0.706055 10.0228 0.917819 9.95221 1.20017L9.3875 2.75311C8.68162 3.03547 8.25809 3.24723 7.62279 3.52958L6.14044 2.8237C5.71691 2.68253 5.43456 2.68253 5.22279 2.89429L4.44632 3.67076C3.95221 4.16488 3.74044 4.37664 2.89338 5.2237C2.68162 5.43547 2.68162 5.78841 2.75221 6.00017L3.45809 7.48253L2.68162 9.24723L1.19926 9.88252C0.916912 10.0237 0.705147 10.2355 0.705147 10.5884V13.8355C0.705147 14.1178 0.916912 14.4002 1.19926 14.4708L2.75221 15.0355L3.52868 16.8708L2.82279 18.3531C2.68162 18.6355 2.75221 18.9178 2.96397 19.1296C3.74044 19.9766 4.02279 20.1884 4.51691 20.6825L5.29338 21.459C5.50515 21.6708 5.85809 21.7413 6.06985 21.6002L7.55221 20.8943C7.90515 21.0355 8.1875 21.1766 8.46985 21.2472C8.75221 21.3884 9.03456 21.459 9.3875 21.6002L9.95221 23.1531C10.0228 23.4355 10.3051 23.6472 10.5875 23.6472H12.1404C12.4934 24.9178 13.0581 26.1884 13.6934 27.3884L2.11691 38.9649C0.211029 40.8708 0.211029 43.9766 2.11691 45.8825C3.10515 46.8708 4.30515 47.2943 5.57574 47.2943C6.84632 47.2943 8.11691 46.8002 9.03456 45.8825L20.611 34.3061C23.2228 35.7884 26.1875 36.5649 29.364 36.5649C39.2463 36.5649 47.2934 28.5178 47.2934 18.6355C47.2934 8.75311 39.2463 0.706055 29.364 0.706055ZM11.0816 22.2355L10.5875 20.8237C10.5169 20.6119 10.3757 20.4708 10.164 20.4002C9.66985 20.1884 9.31691 20.0472 8.96397 19.9061C8.61103 19.7649 8.25809 19.6237 7.76397 19.4119C7.55221 19.3413 7.34044 19.3413 7.19926 19.4119L5.85809 20.0472L5.43456 19.6237C5.01103 19.2708 4.79926 19.059 4.23456 18.4943L4.94044 17.1531C5.01103 16.9413 5.01103 16.7296 4.94044 16.5884L3.95221 14.1884C3.88162 13.9766 3.74044 13.8355 3.52868 13.7649L2.11691 13.2708V11.0119L3.52868 10.5884C3.74044 10.5178 3.88162 10.3766 3.95221 10.1649L4.94044 7.76488C5.01103 7.55311 5.01103 7.34135 4.94044 7.20017L4.23456 5.859C4.79926 5.29429 5.01103 5.08252 5.43456 4.659L5.85809 4.23547L7.19926 4.94135C7.41103 5.01194 7.62279 5.01194 7.76397 4.94135C8.68162 4.51782 9.17573 4.37664 10.164 3.95311C10.3757 3.88252 10.5169 3.74135 10.5875 3.52958L11.0816 2.11782H13.3404L13.8346 3.52958C13.9051 3.74135 14.0463 3.88252 14.2581 3.95311C15.1757 4.30605 15.6699 4.51782 16.6581 4.94135C16.8699 5.01194 17.0816 5.01194 17.2228 4.94135L18.4934 4.23547C18.4934 4.23547 18.4934 4.23547 18.564 4.30605C17.011 5.43547 15.7404 6.84723 14.611 8.40017C13.9051 7.90605 13.0581 7.69429 12.211 7.69429C9.74044 7.69429 7.69338 9.74135 7.69338 12.2119C7.69338 14.4708 9.3875 16.3061 11.5051 16.659C11.4346 17.2943 11.364 18.0002 11.364 18.7061C11.364 19.9766 11.5051 21.1766 11.7169 22.3061H11.0816V22.2355ZM11.7169 15.2472C10.2346 15.0355 9.10515 13.7649 9.10515 12.2119C9.10515 10.5178 10.5169 9.10605 12.211 9.10605C12.8463 9.10605 13.411 9.24723 13.9051 9.60017C12.8463 11.2943 12.1404 13.2002 11.7169 15.2472ZM8.04632 44.8943C6.70515 46.2355 4.44632 46.2355 3.10515 44.8943C1.76397 43.5531 1.76397 41.2943 3.10515 39.9531L14.3993 28.659C15.6699 30.6355 17.364 32.259 19.3404 33.6002L8.04632 44.8943ZM29.364 35.1531C20.2581 35.1531 12.8463 27.7413 12.8463 18.6355C12.8463 9.52958 20.2581 2.11782 29.364 2.11782C38.4699 2.11782 45.8816 9.52958 45.8816 18.6355C45.8816 27.7413 38.4699 35.1531 29.364 35.1531Z" fill="url(#paint0_linear_8942_14440)"/>
<path d="M41.0829 24.7063H38.1182V11.8592C38.1182 11.4357 37.8358 11.1533 37.4123 11.1533C36.9887 11.1533 36.7064 11.4357 36.7064 11.8592V24.7063H34.0946V17.5768C34.0946 17.1533 33.8123 16.871 33.3887 16.871C32.9652 16.871 32.6829 17.1533 32.6829 17.5768V24.7063H30.0711V11.8592C30.0711 11.4357 29.7887 11.1533 29.3652 11.1533C28.9417 11.1533 28.6593 11.4357 28.6593 11.8592V24.7063H26.0476V17.5768C26.0476 17.1533 25.7652 16.871 25.3417 16.871C24.9182 16.871 24.6358 17.1533 24.6358 17.5768V24.7063H22.024V14.6827C22.024 14.2592 21.7417 13.9768 21.3182 13.9768C20.8946 13.9768 20.6123 14.2592 20.6123 14.6827V24.7063H17.577C17.1534 24.7063 16.8711 24.9886 16.8711 25.4121C16.8711 25.8357 17.1534 26.118 17.577 26.118H41.0829C41.5064 26.118 41.7887 25.8357 41.7887 25.4121C41.7887 24.9886 41.5064 24.7063 41.0829 24.7063Z" fill="url(#paint1_linear_8942_14440)"/>
</g>
<defs>
<linearGradient id="paint0_linear_8942_14440" x1="0.6875" y1="11.9052" x2="47.5637" y2="12.2669" gradientUnits="userSpaceOnUse">
<stop stop-color="#5B03B2"/>
<stop offset="1" stop-color="#9D50BB"/>
</linearGradient>
<linearGradient id="paint1_linear_8942_14440" x1="16.8711" y1="14.7506" x2="41.9306" y2="15.0725" gradientUnits="userSpaceOnUse">
<stop stop-color="#5B03B2"/>
<stop offset="1" stop-color="#9D50BB"/>
</linearGradient>
<clipPath id="clip0_8942_14440">
<rect width="73" height="72" fill="white"/>
</clipPath>
</defs>
</svg>
