<svg width="48" height="48" viewBox="0 0 48 48" fill="none" xmlns="http://www.w3.org/2000/svg">
<g clip-path="url(#clip0_4277_48692)">
<path d="M29.3649 0.705078C25.8355 0.705078 22.5179 1.7639 19.7649 3.52861C19.6238 3.38743 19.412 3.17567 19.2002 2.9639C18.9885 2.75214 18.6355 2.68155 18.4238 2.82273L16.9414 3.52861C16.2355 3.24625 15.812 3.03449 15.1767 2.75214L14.612 1.1992C14.4002 0.916843 14.1179 0.705078 13.8355 0.705078H10.5885C10.3061 0.705078 10.0238 0.916843 9.95318 1.1992L9.38848 2.75214C8.68259 3.03449 8.25906 3.24625 7.62377 3.52861L6.14142 2.82273C5.71789 2.68155 5.43554 2.68155 5.22377 2.89331L4.4473 3.66978C3.95318 4.1639 3.74142 4.37567 2.89436 5.22272C2.68259 5.43449 2.68259 5.78743 2.75318 5.9992L3.45906 7.48155L2.68259 9.24625L1.20024 9.88155C0.917888 10.0227 0.706124 10.2345 0.706124 10.5874V13.8345C0.706124 14.1168 0.917888 14.3992 1.20024 14.4698L2.75318 15.0345L3.52965 16.8698L2.82377 18.3521C2.68259 18.6345 2.75318 18.9168 2.96495 19.1286C3.74142 19.9757 4.02377 20.1874 4.51789 20.6815L5.29436 21.458C5.50612 21.6698 5.85907 21.7404 6.07083 21.5992L7.55318 20.8933C7.90612 21.0345 8.18848 21.1757 8.47083 21.2463C8.75318 21.3874 9.03554 21.458 9.38848 21.5992L9.95318 23.1521C10.0238 23.4345 10.3061 23.6463 10.5885 23.6463H12.1414C12.4944 24.9168 13.0591 26.1874 13.6944 27.3874L2.11789 38.9639C0.212006 40.8698 0.212006 43.9757 2.11789 45.8815C3.10612 46.8698 4.30612 47.2933 5.57671 47.2933C6.8473 47.2933 8.11789 46.7992 9.03554 45.8815L20.612 34.3051C23.2238 35.7874 26.1885 36.5639 29.3649 36.5639C39.2473 36.5639 47.2944 28.5168 47.2944 18.6345C47.2944 8.75214 39.2473 0.705078 29.3649 0.705078ZM11.0826 22.2345L10.5885 20.8227C10.5179 20.611 10.3767 20.4698 10.1649 20.3992C9.67083 20.1874 9.31789 20.0463 8.96495 19.9051C8.61201 19.7639 8.25906 19.6227 7.76495 19.411C7.55318 19.3404 7.34142 19.3404 7.20024 19.411L5.85907 20.0463L5.43554 19.6227C5.01201 19.2698 4.80024 19.058 4.23554 18.4933L4.94142 17.1521C5.01201 16.9404 5.01201 16.7286 4.94142 16.5874L3.95318 14.1874C3.88259 13.9757 3.74142 13.8345 3.52965 13.7639L2.11789 13.2698V11.011L3.52965 10.5874C3.74142 10.5168 3.88259 10.3757 3.95318 10.1639L4.94142 7.7639C5.01201 7.55214 5.01201 7.34037 4.94142 7.1992L4.23554 5.85802C4.80024 5.29331 5.01201 5.08155 5.43554 4.65802L5.85907 4.23449L7.20024 4.94037C7.41201 5.01096 7.62377 5.01096 7.76495 4.94037C8.68259 4.51684 9.17671 4.37567 10.1649 3.95214C10.3767 3.88155 10.5179 3.74037 10.5885 3.52861L11.0826 2.11684H13.3414L13.8355 3.52861C13.9061 3.74037 14.0473 3.88155 14.2591 3.95214C15.1767 4.30508 15.6708 4.51684 16.6591 4.94037C16.8708 5.01096 17.0826 5.01096 17.2238 4.94037L18.4944 4.23449C18.4944 4.23449 18.4944 4.23449 18.5649 4.30508C17.012 5.43449 15.7414 6.84625 14.612 8.3992C13.9061 7.90508 13.0591 7.69331 12.212 7.69331C9.74142 7.69331 7.69436 9.74037 7.69436 12.211C7.69436 14.4698 9.38848 16.3051 11.5061 16.658C11.4355 17.2933 11.3649 17.9992 11.3649 18.7051C11.3649 19.9757 11.5061 21.1757 11.7179 22.3051H11.0826V22.2345ZM11.7179 15.2463C10.2355 15.0345 9.10612 13.7639 9.10612 12.211C9.10612 10.5168 10.5179 9.10508 12.212 9.10508C12.8473 9.10508 13.412 9.24625 13.9061 9.5992C12.8473 11.2933 12.1414 13.1992 11.7179 15.2463ZM8.0473 44.8933C6.70612 46.2345 4.4473 46.2345 3.10612 44.8933C1.76495 43.5521 1.76495 41.2933 3.10612 39.9521L14.4002 28.658C15.6708 30.6345 17.3649 32.258 19.3414 33.5992L8.0473 44.8933ZM29.3649 35.1521C20.2591 35.1521 12.8473 27.7404 12.8473 18.6345C12.8473 9.52861 20.2591 2.11684 29.3649 2.11684C38.4708 2.11684 45.8826 9.52861 45.8826 18.6345C45.8826 27.7404 38.4708 35.1521 29.3649 35.1521Z" fill="url(#paint0_linear_4277_48692)"/>
<path d="M41.0824 24.7053H38.1177V11.8582C38.1177 11.4347 37.8353 11.1523 37.4118 11.1523C36.9883 11.1523 36.7059 11.4347 36.7059 11.8582V24.7053H34.0941V17.5759C34.0941 17.1523 33.8118 16.87 33.3883 16.87C32.9647 16.87 32.6824 17.1523 32.6824 17.5759V24.7053H30.0706V11.8582C30.0706 11.4347 29.7883 11.1523 29.3647 11.1523C28.9412 11.1523 28.6588 11.4347 28.6588 11.8582V24.7053H26.0471V17.5759C26.0471 17.1523 25.7647 16.87 25.3412 16.87C24.9177 16.87 24.6353 17.1523 24.6353 17.5759V24.7053H22.0235V14.6818C22.0235 14.2582 21.7412 13.9759 21.3177 13.9759C20.8941 13.9759 20.6118 14.2582 20.6118 14.6818V24.7053H17.5765C17.153 24.7053 16.8706 24.9876 16.8706 25.4112C16.8706 25.8347 17.153 26.1171 17.5765 26.1171H41.0824C41.5059 26.1171 41.7883 25.8347 41.7883 25.4112C41.7883 24.9876 41.5059 24.7053 41.0824 24.7053Z" fill="url(#paint1_linear_4277_48692)"/>
</g>
<defs>
<linearGradient id="paint0_linear_4277_48692" x1="0.688477" y1="11.9042" x2="47.5647" y2="12.2659" gradientUnits="userSpaceOnUse">
<stop stop-color="#5B03B2"/>
<stop offset="1" stop-color="#9D50BB"/>
</linearGradient>
<linearGradient id="paint1_linear_4277_48692" x1="16.8706" y1="14.7496" x2="41.9301" y2="15.0715" gradientUnits="userSpaceOnUse">
<stop stop-color="#5B03B2"/>
<stop offset="1" stop-color="#9D50BB"/>
</linearGradient>
<clipPath id="clip0_4277_48692">
<rect width="48" height="48" fill="white"/>
</clipPath>
</defs>
</svg>
