<svg width="73" height="72" viewBox="0 0 73 72" fill="none" xmlns="http://www.w3.org/2000/svg">
<path d="M33.5 45.0006V48.0006H32C31.8011 48.0006 31.6103 48.0796 31.4697 48.2202C31.329 48.3609 31.25 48.5517 31.25 48.7506V55.5006C31.25 56.2962 31.5661 57.0593 32.1287 57.6219C32.6913 58.1845 33.4544 58.5006 34.25 58.5006C35.0456 58.5006 35.8087 58.1845 36.3713 57.6219C36.9339 57.0593 37.25 56.2962 37.25 55.5006V48.7506C37.25 48.5517 37.171 48.3609 37.0303 48.2202C36.8897 48.0796 36.6989 48.0006 36.5 48.0006H35V45.0006C37.7114 44.8745 40.3442 44.0498 42.6431 42.6066C44.9419 41.1633 46.8287 39.1504 48.1205 36.7631C49.4123 34.3759 50.0652 31.6953 50.0158 28.9814C49.9665 26.2675 49.2167 23.6124 47.839 21.2737C46.4613 18.9349 44.5026 16.9919 42.1529 15.6331C39.8031 14.2743 37.1421 13.5459 34.4279 13.5184C31.7137 13.4909 29.0384 14.1654 26.6616 15.4763C24.2849 16.7873 22.2872 18.6902 20.8625 21.0006H17V22.5006H20.045C19.8113 22.9893 19.6035 23.49 19.4225 24.0006H17V25.5006H18.9725C18.8525 25.9956 18.755 26.4906 18.68 27.0006H17V28.5006H18.5375C18.5375 28.7481 18.5 28.9956 18.5 29.2506C18.5 29.5056 18.5 29.7531 18.5375 30.0006H17V31.5006H18.68C18.755 32.0106 18.8525 32.5056 18.9725 33.0006H17V34.5006H19.4225C19.6035 35.0112 19.8113 35.5119 20.045 36.0006H17V37.5006H20.8625C22.2006 39.6839 24.0508 41.5079 26.2529 42.8148C28.455 44.1217 30.9425 44.872 33.5 45.0006ZM35.75 49.5006V55.5006C35.75 55.8984 35.592 56.2799 35.3107 56.5612C35.0294 56.8425 34.6478 57.0006 34.25 57.0006C33.8522 57.0006 33.4706 56.8425 33.1893 56.5612C32.908 56.2799 32.75 55.8984 32.75 55.5006V49.5006H35.75ZM34.25 15.0006C36.6957 14.9965 39.1014 15.6219 41.2354 16.8167C43.3695 18.0115 45.1601 19.7355 46.4349 21.8227C47.7098 23.9099 48.426 26.2901 48.5146 28.7343C48.6032 31.1784 48.0612 33.6042 46.9409 35.7783C45.8205 37.9523 44.1595 39.8014 42.1176 41.1476C40.0756 42.4938 37.7216 43.2918 35.282 43.4649C32.8424 43.6379 30.3993 43.1801 28.1878 42.1355C25.9764 41.0909 24.071 39.4948 22.655 37.5006H24.545C26.2341 39.4909 28.4935 40.9148 31.0178 41.5799C33.5422 42.2449 36.2098 42.1191 38.6603 41.2194C41.1109 40.3197 43.2262 38.6895 44.7205 36.5491C46.2148 34.4086 47.0161 31.8611 47.0161 29.2506C47.0161 26.6401 46.2148 24.0925 44.7205 21.9521C43.2262 19.8116 41.1109 18.1814 38.6603 17.2817C36.2098 16.382 33.5422 16.2562 31.0178 16.9213C28.4935 17.5864 26.2341 19.0103 24.545 21.0006H22.655C23.9698 19.1489 25.708 17.6383 27.725 16.5946C29.7419 15.5509 31.979 15.0044 34.25 15.0006ZM23 29.2506C22.9954 27.4173 23.4388 25.6107 24.2918 23.9879C25.1447 22.3651 26.3813 20.9754 27.894 19.9396C29.4067 18.9039 31.1495 18.2535 32.9709 18.045C34.7923 17.8366 36.6371 18.0765 38.3446 18.7437C40.0521 19.411 41.5707 20.4854 42.7682 21.8735C43.9658 23.2617 44.8059 24.9214 45.2155 26.7083C45.6252 28.4953 45.5919 30.3552 45.1186 32.1264C44.6453 33.8975 43.7464 35.5262 42.5 36.8706V23.2506C42.5 23.0517 42.421 22.8609 42.2803 22.7202C42.1397 22.5796 41.9489 22.5006 41.75 22.5006H38.75C38.5511 22.5006 38.3603 22.5796 38.2197 22.7202C38.079 22.8609 38 23.0517 38 23.2506V39.8406C37.5119 40.024 37.0104 40.1694 36.5 40.2756V26.2506C36.5 26.0517 36.421 25.8609 36.2803 25.7202C36.1397 25.5796 35.9489 25.5006 35.75 25.5006H32.75C32.5511 25.5006 32.3603 25.5796 32.2197 25.7202C32.079 25.8609 32 26.0517 32 26.2506V40.2756C31.4896 40.1694 30.9881 40.024 30.5 39.8406V29.2506C30.5 29.0517 30.421 28.8609 30.2803 28.7202C30.1397 28.5796 29.9489 28.5006 29.75 28.5006H26.75C26.5511 28.5006 26.3603 28.5796 26.2197 28.7202C26.079 28.8609 26 29.0517 26 29.2506V36.8706C24.0737 34.8005 23.002 32.0783 23 29.2506ZM41 38.2506C40.5255 38.611 40.0241 38.9345 39.5 39.2181V24.0006H41V38.2506ZM35 40.5006H33.5V27.0006H35V40.5006ZM29 39.2331C28.4755 38.9447 27.974 38.6162 27.5 38.2506V30.0006H29V39.2331ZM21.7025 22.5006H23.45C23.1488 22.9818 22.8807 23.4829 22.6475 24.0006H21.0125C21.2167 23.4891 21.447 22.9884 21.7025 22.5006ZM20.5175 25.5006H22.0625C21.9142 25.9928 21.7965 26.4938 21.71 27.0006H20.21C20.2851 26.4953 20.3877 25.9946 20.5175 25.5006ZM20 29.2506C20 28.9956 20 28.7481 20.0375 28.5006H21.5375C21.5375 28.7481 21.5 28.9956 21.5 29.2506C21.5 29.5056 21.5 29.7531 21.5375 30.0006H20.0375C20 29.7531 20 29.5056 20 29.2506ZM20.195 31.5006H21.695C21.7815 32.0074 21.8992 32.5083 22.0475 33.0006H20.5175C20.3827 32.5068 20.275 32.0061 20.195 31.5006ZM21.0125 34.5006H22.6475C22.8807 35.0182 23.1488 35.5194 23.45 36.0006H21.7025C21.447 35.5127 21.2167 35.0121 21.0125 34.5006ZM14 21.0006H15.5V22.5006H14V21.0006ZM14 24.0006H15.5V25.5006H14V24.0006ZM14 27.0006H15.5V28.5006H14V27.0006ZM14 30.0006H15.5V31.5006H14V30.0006ZM14 33.0006H15.5V34.5006H14V33.0006ZM14 36.0006H15.5V37.5006H14V36.0006Z" fill="url(#paint0_linear_4277_30648)"/>
<path d="M57.5 36.75C57.5 36.0083 57.2801 35.2833 56.868 34.6666C56.456 34.0499 55.8703 33.5693 55.1851 33.2855C54.4998 33.0016 53.7458 32.9274 53.0184 33.0721C52.291 33.2168 51.6228 33.5739 51.0983 34.0984C50.5739 34.6228 50.2167 35.291 50.0721 36.0184C49.9274 36.7458 50.0016 37.4998 50.2855 38.1851C50.5693 38.8703 51.0499 39.456 51.6666 39.868C52.2833 40.2801 53.0083 40.5 53.75 40.5C54.7446 40.5 55.6984 40.1049 56.4016 39.4017C57.1049 38.6984 57.5 37.7446 57.5 36.75ZM53.75 39C53.305 39 52.87 38.868 52.5 38.6208C52.13 38.3736 51.8416 38.0222 51.6713 37.611C51.501 37.1999 51.4564 36.7475 51.5432 36.311C51.63 35.8746 51.8443 35.4737 52.159 35.159C52.4737 34.8443 52.8746 34.6301 53.311 34.5432C53.7475 34.4564 54.1999 34.501 54.611 34.6713C55.0222 34.8416 55.3736 35.13 55.6208 35.5C55.868 35.87 56 36.305 56 36.75C56 37.3467 55.7629 37.919 55.341 38.341C54.919 38.7629 54.3467 39 53.75 39ZM58.25 40.5H49.25C49.0511 40.5 48.8603 40.579 48.7197 40.7197C48.579 40.8603 48.5 41.0511 48.5 41.25V50.25C48.5 50.4489 48.579 50.6397 48.7197 50.7803C48.8603 50.921 49.0511 51 49.25 51H50.1875L50.75 57.81C50.7651 57.9983 50.8508 58.174 50.9898 58.302C51.1289 58.4299 51.3111 58.5006 51.5 58.5H56C56.1889 58.5006 56.3711 58.4299 56.5102 58.302C56.6492 58.174 56.7349 57.9983 56.75 57.81L57.3125 51H58.25C58.4489 51 58.6397 50.921 58.7803 50.7803C58.921 50.6397 59 50.4489 59 50.25V41.25C59 41.0511 58.921 40.8603 58.7803 40.7197C58.6397 40.579 58.4489 40.5 58.25 40.5ZM57.5 49.5H56.6225C56.4336 49.4994 56.2514 49.5701 56.1123 49.698C55.9733 49.826 55.8876 50.0017 55.8725 50.19L55.31 57H52.19L51.62 50.19C51.6049 50.0017 51.5192 49.826 51.3802 49.698C51.2411 49.5701 51.0589 49.4994 50.87 49.5H50V42H57.5V49.5ZM47 58.5C47.1989 58.5 47.3897 58.421 47.5303 58.2803C47.671 58.1397 47.75 57.9489 47.75 57.75V50.25C47.75 50.0511 47.671 49.8603 47.5303 49.7197C47.3897 49.579 47.1989 49.5 47 49.5H39.5C39.3011 49.5 39.1103 49.579 38.9697 49.7197C38.829 49.8603 38.75 50.0511 38.75 50.25V57.75C38.75 57.9489 38.829 58.1397 38.9697 58.2803C39.1103 58.421 39.3011 58.5 39.5 58.5H47ZM40.25 51H45.395L43.1975 53.64L42.2825 52.7175L41.2175 53.7825L42.7175 55.2825C42.7876 55.352 42.8707 55.407 42.9621 55.4443C43.0534 55.4817 43.1513 55.5006 43.25 55.5C43.3551 55.4959 43.4581 55.4697 43.5525 55.4232C43.6468 55.3767 43.7303 55.3109 43.7975 55.23L46.25 52.32V57H40.25V51Z" fill="url(#paint1_linear_4277_30648)"/>
<defs>
<linearGradient id="paint0_linear_4277_30648" x1="14" y1="24.3308" x2="50.2281" y2="24.5546" gradientUnits="userSpaceOnUse">
<stop stop-color="#5B03B2"/>
<stop offset="1" stop-color="#9D50BB"/>
</linearGradient>
<linearGradient id="paint1_linear_4277_30648" x1="38.75" y1="39.1298" x2="59.1179" y2="39.2546" gradientUnits="userSpaceOnUse">
<stop stop-color="#5B03B2"/>
<stop offset="1" stop-color="#9D50BB"/>
</linearGradient>
</defs>
</svg>
