<svg width="601" height="339" viewBox="0 0 601 339" fill="none" xmlns="http://www.w3.org/2000/svg">
<g clip-path="url(#clip0_7912_3192)">
<path opacity="0.08" d="M283.753 338.062C342.047 338.062 389.304 333.381 389.304 327.607C389.304 321.833 342.047 317.152 283.753 317.152C225.459 317.152 178.203 321.833 178.203 327.607C178.203 333.381 225.459 338.062 283.753 338.062Z" fill="#FFBE55"/>
<path opacity="0.08" d="M210.037 319.812C209.505 319.311 132.001 211.038 196.295 177.075C283.785 130.81 167.278 -25.4497 328.797 3.56731C484.306 31.4888 296.744 154.85 360.443 199.925C402.232 229.474 426.491 300.468 339.095 323.255C283.66 337.654 223.528 332.427 210.037 319.812Z" fill="#FFBE55"/>
<path d="M329.016 194.668L331.239 191.569C331.833 190.411 334.557 190.598 335.433 191.538C336.028 192.195 335.527 193.948 335.245 194.543C334.557 196.014 331.082 201.711 331.082 201.711C331.082 201.711 329.392 202.462 327.921 200.678C326.888 199.488 328.547 195.325 329.016 194.668Z" fill="#FCD2B1"/>
<path d="M334.776 237.238C334.776 237.238 333.712 229.788 331.145 222.276C328.578 214.763 331.082 201.209 331.082 201.209C331.082 201.209 327.482 199.112 326.919 200.239C326.356 201.366 322.224 219.709 322.224 219.709C322.224 219.709 322.067 230.821 324.509 234.296C325.98 236.362 332.146 239.367 334.776 237.238Z" fill="#2A94F4"/>
<path d="M323.538 322.599C323.538 322.599 323.069 325.072 323.1 327.044C323.382 328.421 323.1 328.828 323.1 328.828L317.466 328.39C317.466 328.39 319.97 327.263 319.782 321.91C319.594 316.526 323.538 322.599 323.538 322.599Z" fill="#FCD2B1"/>
<path d="M323.163 327.452C323.163 327.452 320.721 328.297 318.28 327.671C315.431 328.892 313.428 329.361 310.83 329.674C308.232 329.987 308.701 331.928 313.115 331.677C317.528 331.396 320.627 331.583 321.629 331.677C322.599 331.771 324.196 331.896 324.258 331.239C324.352 330.613 323.977 327.232 323.163 327.452Z" fill="#0B4870"/>
<path d="M321.472 253.516C321.472 253.516 317.841 286.133 317.622 290.39C317.403 294.647 317.403 296.118 317.622 298.716C317.841 301.314 319.751 323.101 319.751 323.101L323.444 323.32C323.444 323.32 326.199 299.561 327.295 295.492C328.359 291.423 332.585 270.826 332.585 270.826L327.733 249.76L321.472 253.516Z" fill="#0E538C"/>
<path d="M339.064 323.037C339.064 323.037 338.876 324.853 339.064 326.825C339.44 328.171 339.221 328.609 339.221 328.609L333.555 328.64C333.555 328.64 335.934 327.326 335.339 321.973C334.713 316.62 339.064 323.037 339.064 323.037Z" fill="#FCD2B1"/>
<path d="M338.908 327.452C338.908 327.452 336.466 328.297 334.025 327.671C331.176 328.892 329.173 329.361 326.575 329.674C323.977 329.987 324.446 331.928 328.86 331.677C333.273 331.396 336.372 331.583 337.374 331.677C338.344 331.771 339.941 331.896 340.003 331.239C340.066 330.613 339.722 327.232 338.908 327.452Z" fill="#0B4870"/>
<path d="M328.766 253.516C328.766 253.516 331.833 286.258 331.614 290.515C331.395 294.772 335.339 323.132 335.339 323.132L339.064 323.194C339.064 323.194 340.035 298.278 340.035 294.084C340.035 290.077 341.349 257.585 341.349 257.585L335.871 249.76L328.766 253.516Z" fill="#0E538C"/>
<path d="M326.637 230.822C326.637 230.822 343.29 231.98 344.354 235.737C345.418 239.493 344.01 267.446 344.01 267.446C344.01 267.446 327.639 272.016 319.751 264.409C320.314 261.717 322.724 235.048 326.637 230.822Z" fill="#2A94F4"/>
<path d="M332.616 227.878L331.051 233.763C331.051 233.763 331.583 236.424 334.525 236.173C337.468 235.923 337.781 234.201 337.781 234.201L336.623 227.534C336.654 227.534 333.805 227.033 332.616 227.878Z" fill="#FCD2B1"/>
<path d="M330.769 218.676C330.769 218.676 327.075 224.248 327.764 226.189C328.453 228.129 331.02 229.726 336.716 229.788C338.626 229.319 340.191 223.34 340.003 222.119C338.876 214.263 332.71 217.142 330.769 218.676Z" fill="#FFE3CA"/>
<path d="M329.767 219.208C331.771 221.086 332.835 220.741 335.464 220.647C337.061 220.585 337.718 221.868 337.311 222.682C336.904 223.496 335.151 225.186 336.435 225.311C337.749 225.437 337.656 223.371 338.563 224.247C339.471 225.155 337.499 227.534 338.469 228.035C339.44 228.536 342.789 227.503 341.975 225.249C341.193 222.995 348.236 216.86 336.654 213.417C333.68 212.54 332.616 212.853 331.646 212.791C329.392 212.634 329.486 218.957 329.767 219.208Z" fill="#0B4870"/>
<path opacity="0.2" d="M262.061 226.847C262.061 206.375 264.377 190.255 269.01 178.391C273.643 166.559 281.124 156.292 291.516 147.59C301.877 138.888 309.765 130.937 315.149 123.738C320.533 116.507 323.257 108.556 323.257 99.8857C323.257 78.7255 314.148 68.1454 295.93 68.1454C287.51 68.1454 280.717 71.2443 275.552 77.3796C270.356 83.5461 267.633 91.8724 267.351 102.39H196.264C196.546 74.3746 205.373 52.557 222.746 36.906C240.118 21.2862 260.152 12.4277 291.548 12.4277C322.787 12.4277 351.335 20.6915 368.519 35.1217C385.673 49.552 394.281 70.0862 394.281 96.6929C394.281 108.337 391.965 118.917 387.332 128.433C382.699 137.949 375.281 147.715 365.045 157.638L340.88 180.144C334.025 186.718 329.235 193.479 326.575 200.428C323.914 207.377 322.443 216.173 322.161 226.816H262.061V226.847ZM253.453 290.766C253.453 280.405 263.125 263.533 270.638 256.866C270.638 256.866 280.467 254.205 291.704 254.205C302.91 254.205 313.334 258.556 320.815 265.223C328.296 271.891 332.053 280.405 332.053 290.766C332.053 301.127 328.296 309.641 320.815 316.308C313.303 322.976 303.975 326.294 292.768 326.294C281.562 326.294 272.203 322.976 264.722 316.308C257.209 309.641 253.453 301.127 253.453 290.766Z" fill="#FFBE55"/>
<path d="M252.639 226.847C252.639 206.376 254.955 190.255 259.588 178.392C264.221 166.559 271.702 156.292 282.094 147.59C292.455 138.888 300.344 130.938 305.727 123.738C311.111 116.507 313.835 108.557 313.835 99.8859C313.835 78.7257 304.726 68.1456 286.508 68.1456C278.088 68.1456 271.295 71.2445 266.13 77.3797C260.934 83.5462 258.211 91.8726 257.929 102.39H186.873C187.124 74.406 195.951 52.5884 213.324 36.9374C230.696 21.3177 255.081 13.5234 286.477 13.5234C317.716 13.5234 341.944 20.7542 359.098 35.1845C376.251 49.6147 384.859 70.1489 384.859 96.7557C384.859 108.4 382.543 118.98 377.91 128.496C373.277 138.012 365.859 147.778 355.623 157.701L331.458 180.207C324.603 186.78 319.813 193.542 317.153 200.491C314.492 207.44 313.021 216.236 312.739 226.878H252.639V226.847ZM244 290.766C244 280.405 247.756 271.891 255.237 265.223C262.718 258.556 272.078 255.238 283.284 255.238C294.49 255.238 303.849 258.556 311.331 265.223C318.812 271.891 322.568 280.405 322.568 290.766C322.568 301.127 318.812 309.641 311.331 316.308C303.818 322.976 294.49 326.294 283.284 326.294C272.078 326.294 262.718 322.976 255.237 316.308C247.756 309.641 244 301.127 244 290.766Z" fill="url(#paint0_linear_7912_3192)"/>
<path d="M345.293 275.208C345.293 275.208 342.539 276.147 341.85 281.437C341.787 281.907 342.664 281.844 342.758 281.375L344.198 278.432C344.542 279.278 343.979 279.372 343.791 280.217L343.133 282.376C342.883 283.222 343.634 284.004 344.479 283.785C345.262 283.566 346.107 283.284 346.451 282.909C347.203 282.095 349.05 277.306 348.455 276.116C347.86 274.958 346.577 274.113 345.293 275.208Z" fill="#FCD2B1"/>
<path d="M339.471 235.048C341.13 233.045 344.323 233.295 345.763 235.486C348.267 239.274 352.931 247.037 352.9 251.982C353.119 257.711 348.455 276.179 348.455 276.179C348.455 276.179 346.295 276.179 345.293 275.24C345.356 273.737 346.013 256.114 346.013 256.114C346.013 256.114 339.596 246.63 338.188 242.247C337.311 239.493 338.031 236.801 339.471 235.048Z" fill="#2A94F4"/>
<path d="M214.701 211.978C214.701 211.978 214.545 206.657 216.423 204.434C218.864 201.523 225.031 201.241 227.754 203.214C230.79 205.405 232.888 210.57 231.354 214.733C235.986 216.548 241.057 218.833 239.117 231.166C235.173 256.02 203.933 245.346 211.07 223.372C212.666 218.552 214.701 211.978 214.701 211.978Z" fill="#0B4870"/>
<path d="M231.698 316.527C231.698 316.527 232.136 318.844 232.105 320.659C231.855 321.943 232.105 322.318 232.105 322.318L237.332 321.911C237.332 321.911 235.016 320.878 235.173 315.87C235.36 310.893 231.698 316.527 231.698 316.527Z" fill="#B97A59"/>
<path d="M232.042 321.065C232.042 321.065 234.327 321.848 236.581 321.253C239.242 322.38 241.089 322.818 243.499 323.1C245.909 323.382 245.471 325.197 241.37 324.947C237.27 324.696 234.39 324.853 233.482 324.947C232.575 325.041 231.103 325.135 231.041 324.54C230.978 323.976 231.291 320.877 232.042 321.065ZM233.639 252.42C233.639 252.42 237.019 282.72 237.207 286.664C237.395 290.608 237.395 291.986 237.207 294.396C237.019 296.806 235.204 317.027 235.204 317.027L231.761 317.215C231.761 317.215 229.194 295.147 228.192 291.391C227.191 287.603 223.278 268.509 223.278 268.509L227.785 248.945L233.639 252.42Z" fill="#0B4870"/>
<path d="M217.299 316.966C217.299 316.966 217.487 318.657 217.299 320.472C216.955 321.724 217.174 322.1 217.174 322.1L222.433 322.131C222.433 322.131 220.21 320.911 220.774 315.934C221.337 310.988 217.299 316.966 217.299 316.966Z" fill="#B97A59"/>
<path d="M217.424 321.065C217.424 321.065 219.709 321.848 221.963 321.253C224.624 322.38 226.471 322.818 228.881 323.1C231.291 323.382 230.853 325.197 226.752 324.947C222.652 324.696 219.772 324.853 218.864 324.947C217.956 325.041 216.485 325.135 216.423 324.54C216.36 323.976 216.704 320.878 217.424 321.065ZM226.846 252.42C226.846 252.42 223.998 282.814 224.186 286.758C224.373 290.702 220.742 317.059 220.742 317.059L217.299 317.121C217.299 317.121 216.423 293.989 216.423 290.076C216.423 286.383 215.202 256.176 215.202 256.176L220.304 248.914L226.846 252.42Z" fill="#0B4870"/>
<path d="M237.614 209.412C237.614 209.412 235.266 207.409 234.86 206.72C233.701 204.936 231.823 204.529 230.602 204.466C229.976 204.435 229.476 204.936 229.476 205.53C229.476 205.687 229.57 205.844 229.695 205.937L232.762 207.409C232.919 207.471 232.919 207.503 233.044 207.628L233.169 207.878C233.388 208.16 233.357 208.285 232.981 208.348L232.575 208.316C232.387 208.348 230.978 207.816 230.822 207.722C230.571 207.596 230.258 207.816 230.289 208.097C230.289 208.316 230.415 208.536 230.634 208.629L233.013 210.132L234.953 210.821C239.273 214.264 242.936 216.799 243.374 217.864C238.866 221.088 230.07 225 230.07 225L233.701 229.101C233.701 229.101 244.751 223.247 247.349 221.119C252.827 215.891 242.059 211.415 237.614 209.412Z" fill="#B97A59"/>
<path d="M230.446 234.735C229.976 235.83 233.545 251.043 234.14 254.549C234.14 254.549 234.077 254.549 233.921 254.517C232.355 254.298 222.84 253.015 215.171 256.239L214.482 234.766L214.451 233.983C214.451 233.983 214.451 233.169 214.513 231.917C214.701 229.351 215.202 225.062 216.861 222.276C217.706 220.836 218.833 219.803 220.367 219.678C225.156 219.209 228.943 221.275 230.759 221.838C233.764 222.777 235.548 222.214 235.548 222.214C235.548 222.214 237.927 228.13 236.738 229.194L231.729 231.291C231.792 231.229 230.916 233.608 230.446 234.735Z" fill="#FFBE55"/>
<path d="M229.194 206C229.194 206 232.23 213.043 229.945 216.236C228.224 218.646 225.219 218.709 225.219 218.709V222.183C225.219 222.183 224.874 222.496 224.279 222.528C223.215 222.59 220.429 220.9 220.429 220.9V207.252L229.194 206ZM213.95 233.233C213.95 233.233 216.36 245.472 217.424 248.571C217.988 251.044 233.764 251.764 234.766 251.951C236.675 253.642 237.739 253.579 238.365 253.579C238.835 253.579 238.616 253.673 241.12 253.83C242.247 253.892 242.998 252.734 242.466 251.732C241.151 250.449 241.245 250.919 239.461 250.543C237.552 250.167 237.082 249.948 237.395 249.604C239.304 247.475 237.583 247.037 235.673 249.228C235.548 249.353 235.329 249.259 235.141 249.259C231.479 248.383 222.84 245.941 221.65 245.91C220.273 240.714 219.897 231.48 219.897 231.48L213.95 233.233Z" fill="#B97A59"/>
<path d="M213.011 235.361C213.011 235.361 211.978 225.282 214.951 222.872C217.925 220.461 221.306 224.343 221.149 229.445C220.993 234.516 221.087 236.363 221.087 236.363C221.087 236.363 216.517 237.897 213.011 235.361Z" fill="#FFBE55"/>
<path d="M229.476 205.217C229.476 205.217 227.91 214.294 224.123 212.667C220.68 211.196 222.401 212.604 219.24 215.64C218.301 216.548 219.052 206.031 219.052 206.031L229.476 205.217Z" fill="#0B4870"/>
</g>
<defs>
<linearGradient id="paint0_linear_7912_3192" x1="186.873" y1="88.7087" x2="386.015" y2="89.6811" gradientUnits="userSpaceOnUse">
<stop stop-color="#5B03B2"/>
<stop offset="1" stop-color="#9D50BB"/>
</linearGradient>
<clipPath id="clip0_7912_3192">
<rect width="601" height="338.062" fill="white"/>
</clipPath>
</defs>
</svg>
