<svg width="44" height="36" viewBox="0 0 44 36" fill="none" xmlns="http://www.w3.org/2000/svg">
<rect width="44" height="36" rx="6" fill="white"/>
<path d="M27 14.6665C28.3807 14.6665 29.5 13.5472 29.5 12.1665C29.5 10.7858 28.3807 9.6665 27 9.6665C25.6193 9.6665 24.5 10.7858 24.5 12.1665C24.5 13.5472 25.6193 14.6665 27 14.6665Z" stroke="#333333" stroke-width="1.5" stroke-linecap="round" stroke-linejoin="round"/>
<path d="M17 20.5C18.3807 20.5 19.5 19.3807 19.5 18C19.5 16.6193 18.3807 15.5 17 15.5C15.6193 15.5 14.5 16.6193 14.5 18C14.5 19.3807 15.6193 20.5 17 20.5Z" stroke="#333333" stroke-width="1.5" stroke-linecap="round" stroke-linejoin="round"/>
<path d="M27 26.3335C28.3807 26.3335 29.5 25.2142 29.5 23.8335C29.5 22.4528 28.3807 21.3335 27 21.3335C25.6193 21.3335 24.5 22.4528 24.5 23.8335C24.5 25.2142 25.6193 26.3335 27 26.3335Z" stroke="#333333" stroke-width="1.5" stroke-linecap="round" stroke-linejoin="round"/>
<path d="M19.1582 19.2583L24.8499 22.575" stroke="#333333" stroke-width="1.5" stroke-linecap="round" stroke-linejoin="round"/>
<path d="M24.8415 13.4248L19.1582 16.7415" stroke="#333333" stroke-width="1.5" stroke-linecap="round" stroke-linejoin="round"/>
</svg>
