<svg width="27" height="25" viewBox="0 0 27 25" fill="none" xmlns="http://www.w3.org/2000/svg">
<path d="M23.1268 24.4997C23.0603 24.7923 22.8001 25 22.5 25C22.1999 25 21.9397 24.7923 21.8732 24.4997L21.5175 22.9355C21.3529 22.212 20.788 21.6471 20.0645 21.4825L18.5003 21.1268C18.2077 21.0603 18 20.8001 18 20.5C18 20.1999 18.2077 19.9397 18.5003 19.8732L20.0645 19.5175C20.788 19.3529 21.3529 18.788 21.5175 18.0645L21.8732 16.5003C21.9397 16.2077 22.1999 16 22.5 16C22.8001 16 23.0603 16.2077 23.1268 16.5003L23.4825 18.0645C23.6471 18.788 24.212 19.3529 24.9355 19.5175L26.4997 19.8732C26.7923 19.9397 27 20.1999 27 20.5C27 20.8001 26.7923 21.0603 26.4997 21.1268L24.9355 21.4825C24.212 21.6471 23.6471 22.212 23.4825 22.9355L23.1268 24.4997Z" fill="url(#paint0_linear_3408_38330)"/>
<path d="M5.12685 20.4997C5.06031 20.7923 4.80012 21 4.5 21C4.19988 21 3.93969 20.7923 3.87315 20.4997L3.51746 18.9355C3.35295 18.212 2.78801 17.6471 2.0645 17.4825L0.500303 17.1268C0.207675 17.0603 0 16.8001 0 16.5C0 16.1999 0.207675 15.9397 0.500303 15.8732L2.0645 15.5175C2.78801 15.3529 3.35295 14.788 3.51746 14.0645L3.87315 12.5003C3.93969 12.2077 4.19988 12 4.5 12C4.80012 12 5.06031 12.2077 5.12685 12.5003L5.48254 14.0645C5.64705 14.788 6.21199 15.3529 6.9355 15.5175L8.4997 15.8732C8.79233 15.9397 9 16.1999 9 16.5C9 16.8001 8.79233 17.0603 8.4997 17.1268L6.9355 17.4825C6.21199 17.6471 5.64705 18.212 5.48254 18.9355L5.12685 20.4997Z" fill="url(#paint1_linear_3408_38330)"/>
<path d="M18.1268 8.4997C18.0603 8.79232 17.8001 9 17.5 9C17.1999 9 16.9397 8.79232 16.8732 8.4997L16.5175 6.9355C16.3529 6.21199 15.788 5.64705 15.0645 5.48254L13.5003 5.12685C13.2077 5.06031 13 4.80012 13 4.5C13 4.19988 13.2077 3.93969 13.5003 3.87315L15.0645 3.51746C15.788 3.35295 16.3529 2.78801 16.5175 2.0645L16.8732 0.500303C16.9397 0.207675 17.1999 0 17.5 0C17.8001 0 18.0603 0.207675 18.1268 0.500303L18.4825 2.0645C18.6471 2.78801 19.212 3.35295 19.9355 3.51746L21.4997 3.87315C21.7923 3.93969 22 4.19988 22 4.5C22 4.80012 21.7923 5.06031 21.4997 5.12685L19.9355 5.48254C19.212 5.64705 18.6471 6.21199 18.4825 6.9355L18.1268 8.4997Z" fill="url(#paint2_linear_3408_38330)"/>
<defs>
<linearGradient id="paint0_linear_3408_38330" x1="18" y1="22.8365" x2="28.1788" y2="22.7399" gradientUnits="userSpaceOnUse">
<stop stop-color="#5B03B2"/>
<stop offset="0.453455" stop-color="#9D50BB"/>
<stop offset="0.731601" stop-color="#EB06AB"/>
</linearGradient>
<linearGradient id="paint1_linear_3408_38330" x1="-1.16998e-08" y1="18.8365" x2="10.1788" y2="18.7399" gradientUnits="userSpaceOnUse">
<stop stop-color="#5B03B2"/>
<stop offset="0.453455" stop-color="#9D50BB"/>
<stop offset="0.731601" stop-color="#EB06AB"/>
</linearGradient>
<linearGradient id="paint2_linear_3408_38330" x1="13" y1="6.83654" x2="23.1788" y2="6.7399" gradientUnits="userSpaceOnUse">
<stop stop-color="#5B03B2"/>
<stop offset="0.453455" stop-color="#9D50BB"/>
<stop offset="0.731601" stop-color="#EB06AB"/>
</linearGradient>
</defs>
</svg>
