<svg width="202" height="202" viewBox="0 0 202 202" fill="none" xmlns="http://www.w3.org/2000/svg">
<path d="M167.016 49.1445H48.1484V157.218H167.016V49.1445Z" fill="white"/>
<path d="M167.282 157.483H47.8867V48.8809H167.282V157.483ZM48.4151 156.954H166.754V49.4093H48.4151V156.954Z" fill="#5B03B2"/>
<path d="M167.016 49.9833H48.1484V46.0297C48.1484 41.9437 51.4612 38.6309 55.5473 38.6309H159.617C163.703 38.6309 167.016 41.9437 167.016 46.0297V49.9833Z" fill="#5B03B2"/>
<path d="M167.282 50.248H47.8867V46.0303C47.8867 41.8052 51.3239 38.3672 55.5498 38.3672H159.619C163.844 38.3672 167.282 41.8044 167.282 46.0303V50.248H167.282ZM48.4151 49.7196H166.754V46.0303C166.754 42.0961 163.554 38.8956 159.619 38.8956H55.5498C51.6156 38.8956 48.4151 42.0961 48.4151 46.0303V49.7196Z" fill="#5B03B2"/>
<path d="M53.5201 45.8352C54.364 45.8352 55.048 45.1511 55.048 44.3072C55.048 43.4634 54.364 42.7793 53.5201 42.7793C52.6763 42.7793 51.9922 43.4634 51.9922 44.3072C51.9922 45.1511 52.6763 45.8352 53.5201 45.8352Z" fill="white"/>
<path d="M57.7311 45.8352C58.5749 45.8352 59.259 45.1511 59.259 44.3072C59.259 43.4634 58.5749 42.7793 57.7311 42.7793C56.8872 42.7793 56.2031 43.4634 56.2031 44.3072C56.2031 45.1511 56.8872 45.8352 57.7311 45.8352Z" fill="white"/>
<path d="M61.942 45.8352C62.7858 45.8352 63.4699 45.1511 63.4699 44.3072C63.4699 43.4634 62.7858 42.7793 61.942 42.7793C61.0981 42.7793 60.4141 43.4634 60.4141 44.3072C60.4141 45.1511 61.0981 45.8352 61.942 45.8352Z" fill="white"/>
<path d="M138.092 133.316V157.211H88.7656L90.1917 141.757L90.2798 140.835L91.4353 128.319C91.6817 125.624 93.6508 123.412 96.2921 122.821C98.8034 122.261 102.41 121.856 106.396 121.634C106.635 121.62 106.875 121.606 107.119 121.595C111.377 121.38 116.011 121.37 120.173 121.592C120.396 121.603 120.614 121.616 120.832 121.631C124.755 121.864 128.203 122.31 130.45 122.997C131.024 123.173 131.573 123.391 132.098 123.652C132.26 123.733 132.422 123.818 132.577 123.906C135.933 125.783 138.092 129.354 138.092 133.316Z" fill="#C93DFF"/>
<path opacity="0.4" d="M120.828 121.631L90.9635 157.211H90.2734L120.169 121.592C120.391 121.602 120.61 121.617 120.828 121.631Z" fill="white"/>
<path d="M127.031 146.164L126.996 147.024L118.445 157.212H117.758L127.031 146.164Z" fill="white"/>
<path d="M148.904 157.212H126.594L126.995 147.024L127.031 146.165L127.964 122.488L135.247 123.496C138.198 123.905 140.899 125.197 143.016 127.117C143.15 127.233 143.277 127.352 143.403 127.479C145.376 129.398 146.788 131.881 147.341 134.706C147.447 135.252 147.517 135.794 147.552 136.326L148.904 157.212Z" fill="#C93DFF"/>
<path opacity="0.4" d="M131.85 157.475C131.79 157.475 131.729 157.455 131.68 157.413C131.569 157.319 131.554 157.153 131.648 157.04L147.481 138.174C147.575 138.062 147.742 138.048 147.854 138.142C147.965 138.236 147.98 138.402 147.886 138.515L132.053 157.381C132 157.443 131.925 157.475 131.85 157.475Z" fill="white"/>
<path d="M149.184 157.477H126.328V134.025H126.857V156.948H148.621L147.288 136.34L147.814 136.306L149.184 157.477Z" fill="#5B03B2"/>
<path d="M96.892 122.666L88.7635 157.211H67.6367L71.7357 147.371L72.4152 145.741L77.3772 133.827C79.2436 129.343 83.135 126.019 87.8513 124.868L90.4716 124.23L91.3346 124.019L96.892 122.666Z" fill="#C93DFF"/>
<path d="M73.7557 128.755L67.821 117.628C67.3847 116.81 66.7374 116.124 65.9464 115.641L58.7649 111.258C57.8777 110.716 56.7312 110.884 56.0363 111.656C55.2146 112.569 55.3196 113.981 56.2658 114.764L60.4552 118.225L54.5043 118.651C54.5043 118.651 52.6257 116.467 51.08 117.003C51.08 117.003 49.0972 113.716 46.9075 115.542C46.9075 115.542 44.6742 113.909 43.6658 114.768C42.6574 115.627 48.8184 124.709 49.7638 125.032C50.7083 125.354 53.9719 125.697 53.9719 125.697C53.9719 125.697 53.8862 127.393 55.5176 128.338C57.1497 129.282 58.4805 128.982 58.4805 128.982L59.6408 131.243L73.7557 128.755Z" fill="white"/>
<path d="M59.6399 131.506C59.5421 131.506 59.4508 131.452 59.4048 131.363L58.3309 129.271C57.8768 129.321 56.7263 129.343 55.3842 128.565C54.0001 127.764 53.7536 126.476 53.7132 125.934C52.9448 125.848 50.5006 125.561 49.6773 125.28C48.639 124.926 43.7441 117.621 43.324 115.418C43.2957 115.267 43.2084 114.81 43.4936 114.567C44.4948 113.715 46.3119 114.816 46.8977 115.212C47.4504 114.807 48.0378 114.653 48.6487 114.756C49.9124 114.968 50.878 116.23 51.1947 116.697C52.6556 116.377 54.2215 117.952 54.6133 118.378L59.7773 118.009L56.096 114.967C55.5821 114.543 55.2719 113.943 55.2234 113.278C55.1741 112.613 55.3931 111.975 55.8383 111.479C56.618 110.613 57.9059 110.425 58.9006 111.033L66.0821 115.416C66.9127 115.923 67.5939 116.645 68.052 117.504L73.9868 128.631C74.0263 128.705 74.028 128.795 73.9908 128.871C73.9536 128.947 73.8825 129.001 73.7993 129.015L59.6843 131.504C59.6698 131.505 59.6544 131.506 59.6399 131.506ZM58.478 128.717C58.5758 128.717 58.6679 128.771 58.7139 128.86L59.7862 130.948L73.35 128.556L67.5866 117.751C67.1729 116.975 66.558 116.323 65.8082 115.866L58.6267 111.483C57.8486 111.007 56.841 111.155 56.2318 111.832C55.8827 112.219 55.7122 112.72 55.751 113.239C55.789 113.759 56.0314 114.228 56.433 114.56L60.6232 118.022C60.7065 118.09 60.7396 118.203 60.7065 118.306C60.6741 118.409 60.5812 118.481 60.4738 118.489L54.5228 118.915C54.4364 118.92 54.3588 118.886 54.3039 118.823C54.2861 118.803 52.5255 116.781 51.1664 117.253C51.0468 117.295 50.9184 117.247 50.8537 117.14C50.844 117.124 49.8421 115.492 48.5598 115.277C48.0435 115.19 47.5579 115.343 47.0763 115.745C46.9834 115.822 46.8493 115.826 46.7515 115.755C46.1762 115.336 44.5327 114.378 43.837 114.97C43.8379 114.97 43.7667 115.085 43.8993 115.55C44.6232 118.094 49.2321 124.542 49.8494 124.781C50.7543 125.09 53.9669 125.431 53.9993 125.434C54.139 125.449 54.2425 125.57 54.2352 125.711C54.2328 125.773 54.1843 127.261 55.65 128.11C57.1626 128.985 58.4109 128.727 58.4231 128.724C58.44 128.719 58.4594 128.717 58.478 128.717Z" fill="#5B03B2"/>
<path d="M64.9193 124.387C64.9193 124.387 60.6684 122.712 57.4049 124.237C57.4049 124.237 52.5245 116.63 51.3675 119.449C51.1719 119.925 51.2123 120.467 51.4394 120.929L53.9701 125.697" fill="white"/>
<path d="M53.9685 125.962C53.874 125.962 53.7827 125.911 53.735 125.821L51.2044 121.053C50.9321 120.499 50.903 119.881 51.122 119.349C51.3692 118.746 51.7627 118.589 52.0495 118.563C53.7843 118.405 56.7828 122.809 57.5019 123.904C60.7945 122.511 64.8402 124.073 65.0147 124.142C65.1504 124.195 65.2175 124.349 65.1642 124.485C65.1109 124.62 64.9565 124.687 64.8216 124.634C64.7796 124.618 60.6345 123.02 57.5157 124.477C57.3961 124.533 57.2531 124.493 57.182 124.38C55.8334 122.279 53.2737 118.984 52.098 119.09C51.9647 119.102 51.77 119.162 51.6108 119.55C51.45 119.942 51.4734 120.403 51.6754 120.814L54.202 125.575C54.2707 125.704 54.2214 125.863 54.093 125.932C54.0526 125.952 54.0106 125.962 53.9685 125.962Z" fill="#5B03B2"/>
<path d="M49.7593 125.294C49.6647 125.294 49.5742 125.243 49.5257 125.155C48.4438 123.136 45.9746 118.352 46.4004 117.511C46.5798 117.156 46.9854 116.941 47.4847 116.936C47.9946 116.93 49.7657 117.17 51.5546 120.508C51.6233 120.636 51.5756 120.796 51.4464 120.866C51.3171 120.934 51.1579 120.886 51.0884 120.757C49.7867 118.328 48.3873 117.464 47.5057 117.464C47.5009 117.464 47.4952 117.464 47.4904 117.464C47.1914 117.467 46.9603 117.574 46.8715 117.75C46.6977 118.246 48.3549 121.852 49.9911 124.906C50.0598 125.034 50.0122 125.194 49.8829 125.264C49.8441 125.285 49.8013 125.294 49.7593 125.294Z" fill="#5B03B2"/>
<path d="M85.105 157.212H62.2588L59.5367 145.537L59.3888 144.896L56.1875 131.161L73.4722 128.115L74.2827 127.975L74.9977 127.848L78.6143 138.36L78.8147 138.941L82.6115 149.971L82.8119 150.552L85.105 157.212Z" fill="#C93DFF"/>
<path d="M72.4699 63.621H55.8081C55.5689 63.621 55.375 63.4271 55.375 63.1879V57.1304C55.375 56.8912 55.5689 56.6973 55.8081 56.6973H72.4699C72.709 56.6973 72.9029 56.8912 72.9029 57.1304V63.1879C72.9029 63.4271 72.709 63.621 72.4699 63.621ZM138.114 60.1595C138.114 60.5296 137.963 60.8674 137.72 61.1138C137.477 61.357 137.139 61.5081 136.766 61.5081H131.875C131.128 61.5081 130.526 60.9021 130.526 60.1595C130.526 59.7862 130.677 59.4477 130.921 59.2053C131.164 58.9621 131.502 58.811 131.875 58.811H136.766C137.511 58.811 138.114 59.413 138.114 60.1595Z" fill="#F6E6FC"/>
<path d="M148.424 60.1591C148.424 60.5292 148.273 60.8669 148.03 61.1133C147.786 61.3566 147.449 61.5077 147.075 61.5077H142.184C141.438 61.5077 140.836 60.9017 140.836 60.1591C140.836 59.7858 140.987 59.4473 141.23 59.2049C141.473 58.9616 141.811 58.8105 142.184 58.8105H147.075C147.822 58.8105 148.424 59.4125 148.424 60.1591Z" fill="#9D50BB"/>
<path d="M158.736 60.1591C158.736 60.5292 158.585 60.8669 158.342 61.1133C158.099 61.3566 157.761 61.5077 157.388 61.5077H152.497C151.75 61.5077 151.148 60.9017 151.148 60.1591C151.148 59.7858 151.3 59.4473 151.543 59.2049C151.786 58.9616 152.124 58.8105 152.497 58.8105H157.388C158.134 58.8105 158.736 59.4125 158.736 60.1591Z" fill="#F6E6FC"/>
<path d="M90.2899 78.985V93.8296C90.2899 97.6118 87.2227 100.676 83.4405 100.676H62.683L57.6507 105.631C56.3862 106.875 54.3582 106.875 53.0936 105.631L48.0679 100.676H27.3071C23.5249 100.676 20.4609 97.6118 20.4609 93.8296V78.985C20.4609 75.2027 23.5249 72.1348 27.3071 72.1348H83.4405C87.2227 72.1348 90.2899 75.2027 90.2899 78.985Z" fill="#9D50BB"/>
<path d="M55.3747 106.82C54.4827 106.82 53.5906 106.487 52.9111 105.818L47.9621 100.939H27.3096C23.3892 100.939 20.1992 97.7489 20.1992 93.8285V78.9847C20.1992 75.0619 23.3884 71.8711 27.3096 71.8711H83.443C87.3658 71.8711 90.5566 75.0627 90.5566 78.9847V93.8293C90.5566 97.7497 87.365 100.94 83.443 100.94H62.7937L57.8383 105.819C57.1596 106.487 56.2667 106.82 55.3747 106.82ZM27.3096 72.3987C23.6801 72.3987 20.7277 75.3528 20.7277 78.9847V93.8293C20.7277 97.4588 23.6801 100.411 27.3096 100.411H48.1786L53.2812 105.443C54.435 106.577 56.3128 106.577 57.4674 105.443L62.5764 100.411H83.4422C87.0733 100.411 90.0274 97.4588 90.0274 93.8293V78.9847C90.0274 75.3536 87.0733 72.3987 83.4422 72.3987H27.3096Z" fill="#5B03B2"/>
<path d="M32.6327 89.6371C32.5479 89.2864 32.4913 88.8622 32.463 88.3661C32.4347 87.87 32.4024 86.8237 32.3669 85.2279C32.034 85.9332 31.6865 86.5716 31.3246 87.1428C30.7824 88.0082 30.4156 88.6764 30.2241 89.1483C30.2378 89.2048 30.2451 89.2565 30.2451 89.3026C30.2451 89.5151 30.1489 89.7026 29.9582 89.8634C29.7667 90.025 29.5365 90.1058 29.2666 90.1058C29.004 90.1058 28.7987 90.0395 28.6493 89.9062C28.5006 89.7728 28.4368 89.5789 28.4578 89.3236L28.3939 88.6909L28.2558 86.7816C28.2202 86.2855 28.154 85.7337 28.0562 85.1277C27.9584 84.5217 27.8089 83.6862 27.6069 82.6229C27.5932 82.5623 27.5859 82.5097 27.5859 82.4637C27.5859 82.2617 27.6716 82.0815 27.8437 81.9239C28.0158 81.7664 28.2243 81.6872 28.4683 81.6872C28.6242 81.6872 28.7616 81.7292 28.8804 81.8124C28.9991 81.8957 29.0993 82.0605 29.1809 82.3069C29.2625 82.5534 29.3571 83.1287 29.4653 84.0328C29.5736 84.937 29.6665 85.9526 29.7449 87.0806C30.1521 86.3607 30.5731 85.5438 31.0054 84.6283C31.5371 83.4656 31.9653 82.7101 32.2901 82.3627C32.6141 82.0152 32.8848 81.8415 33.1013 81.8415C33.3106 81.8415 33.4876 81.9231 33.633 82.0863C33.7784 82.2496 33.8512 82.6843 33.8512 83.3897C33.8512 83.5351 33.8407 83.8898 33.8189 84.4538C33.7938 85.1236 33.8399 86.2354 33.957 87.7884C34.2834 87.2462 34.7052 86.5013 35.2232 85.5543L36.0845 83.9908C36.1346 83.8947 36.276 83.5674 36.5103 83.0067C36.865 82.1276 37.2884 81.688 37.7821 81.688C37.9841 81.688 38.1433 81.7429 38.2604 81.8528C38.3776 81.9627 38.4366 82.1049 38.4366 82.2787C38.4366 82.353 38.4196 82.4354 38.3857 82.5259C38.3517 82.6164 38.2491 82.8168 38.077 83.1271C37.9049 83.4373 37.7482 83.7419 37.6059 84.0417C37.4645 84.3415 37.2795 84.6897 37.0533 85.0865C36.8262 85.484 36.6137 85.8452 36.415 86.1716L35.3031 88.0332C35.0793 88.409 34.9008 88.7233 34.7658 88.9746C34.4467 89.57 34.197 89.9425 34.016 90.0912C33.8358 90.2399 33.6241 90.315 33.3833 90.315C33.1636 90.315 32.9769 90.2512 32.825 90.1235C32.6715 89.9934 32.6077 89.8318 32.6327 89.6371ZM41.0222 82.9727C40.8808 83.8308 40.7547 84.5314 40.6448 85.0735C41.0844 85.038 41.7882 84.9725 42.7561 84.8772C43.4405 84.8133 43.8768 84.781 44.0643 84.781C44.2631 84.781 44.4206 84.836 44.5378 84.9459C44.6549 85.0557 44.7131 85.2012 44.7131 85.3822C44.7131 85.5882 44.6469 85.7724 44.5135 85.9357C44.381 86.0989 44.1669 86.1926 43.8728 86.2177C43.5787 86.2427 43.123 86.2863 42.5057 86.3477C41.8883 86.41 41.1579 86.473 40.3144 86.5368C40.1083 87.5403 40.0057 88.2191 40.0057 88.5738C40.0057 88.6982 40.0194 88.7814 40.0477 88.8235C40.076 88.8663 40.2925 88.8873 40.6965 88.8873H41.1111L42.6907 88.8558C42.7367 88.8558 42.9016 88.838 43.186 88.8024C43.4268 88.7709 43.6223 88.8097 43.771 88.9196C43.9197 89.0295 43.994 89.1854 43.994 89.3874C43.994 89.7672 43.8429 90.0177 43.5391 90.1397C43.2361 90.2617 42.3998 90.3231 41.0311 90.3231C39.8821 90.3231 39.1767 90.1906 38.9141 89.9272C38.6515 89.663 38.5206 89.2493 38.5206 88.6853C38.5206 88.0825 38.6976 87.0168 39.0523 85.4888C39.3714 84.1524 39.5306 83.2588 39.5306 82.8079C39.5484 82.4289 39.5791 82.1583 39.6235 81.9967C39.668 81.8351 39.7601 81.7017 39.8999 81.5951C40.0396 81.4884 40.2214 81.4351 40.4453 81.4351C40.6044 81.4351 40.7394 81.4828 40.8501 81.5789C41.6799 81.3664 42.4386 81.2598 43.1262 81.2598C43.6724 81.2598 44.2227 81.3171 44.7778 81.4327C45.3328 81.5482 45.61 81.7704 45.61 82.1001C45.61 82.3376 45.5243 82.5445 45.3522 82.7198C45.1801 82.8952 44.9822 82.9832 44.7592 82.9832C44.6808 82.9832 44.6048 82.9727 44.5305 82.9517C43.9778 82.799 43.43 82.7231 42.887 82.7231C42.319 82.7222 41.696 82.8063 41.0222 82.9727ZM45.206 89.1426L45.5785 87.4725C45.9009 86.0116 46.2168 84.297 46.5255 82.3296C46.5537 82.1413 46.6499 81.9732 46.8123 81.8246C46.9755 81.6759 47.1654 81.6015 47.3811 81.6015C47.5686 81.6015 47.7213 81.6581 47.8385 81.772C47.9556 81.886 48.0138 82.033 48.0138 82.2132C48.0138 82.3514 47.9233 82.9186 47.7431 83.9149L47.323 86.1805C47.2236 86.6944 47.0272 87.5864 46.7323 88.8558C47.5694 88.8453 48.6788 88.6376 50.0621 88.2336C50.151 88.2126 50.2309 88.2021 50.3012 88.2021C50.5178 88.2021 50.6753 88.2676 50.7747 88.3993C50.8741 88.5302 50.9234 88.6667 50.9234 88.8089C50.9234 89.1313 50.7699 89.3769 50.4628 89.5458C50.1558 89.7139 49.545 89.8811 48.6279 90.046C47.7108 90.2108 46.9408 90.2932 46.317 90.2932C45.5615 90.2932 45.1842 90.0023 45.1842 89.4206C45.1842 89.3341 45.1915 89.2412 45.206 89.1426ZM57.654 81.9247C57.8415 81.772 58.0403 81.6961 58.2495 81.6961C58.6398 81.6961 58.8345 81.9587 58.8345 82.4831C58.8345 83.1141 58.7497 83.548 58.5792 83.7832C58.4087 84.0191 58.18 84.1371 57.8932 84.1371C57.5668 84.1371 57.3559 83.9706 57.2605 83.6369C57.2177 83.481 57.1684 83.3872 57.1119 83.3549C57.0553 83.3226 56.9115 83.3072 56.6812 83.3072C56.1423 83.3072 55.4417 83.7945 54.5804 84.7697C53.7191 85.745 53.2876 86.5958 53.2876 87.323C53.2876 87.6389 53.3918 87.9104 53.5987 88.1391C53.8055 88.3677 54.0746 88.4825 54.4043 88.4825C54.7024 88.4825 54.9779 88.4332 55.2317 88.3338C55.4854 88.2344 55.8781 88.0203 56.4097 87.6906C56.7151 87.5064 56.9365 87.4143 57.0747 87.4143C57.2662 87.4143 57.4221 87.4749 57.5425 87.5953C57.6629 87.7157 57.7235 87.8684 57.7235 88.0526C57.7235 88.2304 57.6597 88.3896 57.532 88.531C57.4044 88.6732 57.128 88.8744 56.7022 89.1345C56.2764 89.3955 55.8522 89.5935 55.428 89.73C55.0046 89.8666 54.5869 89.9345 54.1756 89.9345C53.4524 89.9345 52.8715 89.6977 52.4336 89.2242C51.9956 88.7507 51.7766 88.1932 51.7766 87.5517C51.7766 86.4067 52.3705 85.1713 53.5583 83.847C54.746 82.5227 55.8627 81.8601 56.9091 81.8601C57.229 81.8609 57.4771 81.8819 57.654 81.9247ZM59.0074 87.2858C59.0074 86.5409 59.2442 85.7159 59.7177 84.8101C60.1912 83.9043 60.8303 83.1658 61.6351 82.5946C62.4398 82.0233 63.289 81.7381 64.1827 81.7381C66.3425 81.7381 67.422 82.6051 67.422 84.3391C67.422 85.7361 66.9275 87.0499 65.9385 88.2805C64.9487 89.5111 63.7641 90.126 62.3857 90.126C61.3959 90.126 60.5863 89.8601 59.9552 89.3285C59.3234 88.7968 59.0074 88.1156 59.0074 87.2858ZM60.5394 87.0257C60.5394 87.508 60.7341 87.9039 61.1244 88.2142C61.5147 88.5245 62.0108 88.6796 62.6135 88.6796C63.4821 88.6796 64.2457 88.2271 64.9034 87.323C65.5611 86.4188 65.89 85.4913 65.89 84.5411C65.89 84.0514 65.7445 83.704 65.4537 83.4987C65.1628 83.2935 64.6626 83.1901 63.954 83.1901C63.3795 83.1901 62.826 83.3961 62.2944 83.8074C61.7627 84.2187 61.3369 84.7447 61.0177 85.3846C60.6986 86.0245 60.5394 86.5716 60.5394 87.0257ZM70.8867 85.0525C70.7735 85.3078 70.5142 85.9963 70.1102 87.1186C69.7062 88.2409 69.4452 89.0004 69.3288 89.3979C69.1091 89.9013 68.8004 90.1534 68.4037 90.1534C68.2194 90.1534 68.0732 90.0961 67.9649 89.9805C67.8567 89.865 67.8033 89.7195 67.8033 89.5418C67.8033 89.0917 68.0425 88.3435 68.5208 87.2971C68.8012 86.6798 69.0089 86.1999 69.143 85.8557L70.0043 83.5157C70.2912 82.7424 70.5433 82.2496 70.7598 82.0371C70.9763 81.8246 71.2139 81.7179 71.4725 81.7179C71.8239 81.7179 72.0413 81.8949 72.1269 82.2496C72.2118 82.6043 72.2635 83.4801 72.2813 84.8772C72.295 86.0399 72.3467 86.923 72.4356 87.5258C72.9349 86.5901 73.5118 85.2901 74.1639 83.6272L74.6536 82.4039C74.8556 81.8965 75.1941 81.6436 75.6692 81.6436C75.889 81.6436 76.0667 81.7591 76.2009 81.9894C76.3358 82.2197 76.4029 82.6932 76.4029 83.409L76.3924 84.6695C76.3883 85.1269 76.4029 85.6278 76.4344 86.1724C76.4667 86.717 76.516 87.2406 76.5831 87.744C76.718 88.7265 76.7851 89.3058 76.7851 89.4828C76.7851 89.6638 76.6929 89.8367 76.5087 90.0015C76.3245 90.1663 76.1168 90.2488 75.8866 90.2488C75.4963 90.2488 75.2539 89.9684 75.1577 89.4084L75.0672 88.127C75.0527 87.9144 75.0422 86.8164 75.0349 84.8344C74.9751 84.9515 74.9016 85.1147 74.8168 85.324C74.3627 86.4164 74.0225 87.1784 73.7955 87.6115L73.28 88.5956C72.9786 89.1701 72.7386 89.5547 72.5616 89.7494C72.3839 89.9441 72.1625 90.0419 71.8967 90.0419C71.5953 90.0419 71.3876 89.8448 71.2745 89.4513L71.1363 88.4623C71.062 87.9193 70.9788 86.7824 70.8867 85.0525ZM80.5099 82.9727C80.3685 83.8308 80.2425 84.5314 80.1326 85.0735C80.5722 85.038 81.2759 84.9725 82.2439 84.8772C82.9283 84.8133 83.3646 84.781 83.5521 84.781C83.7508 84.781 83.9084 84.836 84.0255 84.9459C84.1427 85.0557 84.2009 85.2012 84.2009 85.3822C84.2009 85.5882 84.1346 85.7724 84.0013 85.9357C83.8688 86.0989 83.6547 86.1926 83.3606 86.2177C83.0664 86.2427 82.6107 86.2863 81.9934 86.3477C81.3761 86.41 80.6457 86.473 79.8021 86.5368C79.5961 87.5403 79.4935 88.2191 79.4935 88.5738C79.4935 88.6982 79.5072 88.7814 79.5355 88.8235C79.5638 88.8663 79.7803 88.8873 80.1843 88.8873H80.5988L82.1785 88.8558C82.2245 88.8558 82.3893 88.838 82.6738 88.8024C82.9145 88.7709 83.1101 88.8097 83.2587 88.9196C83.4074 89.0295 83.4818 89.1854 83.4818 89.3874C83.4818 89.7672 83.3307 90.0177 83.0269 90.1397C82.7239 90.2617 81.8876 90.3231 80.5188 90.3231C79.3698 90.3231 78.6645 90.1906 78.4019 89.9272C78.1393 89.663 78.0084 89.2493 78.0084 88.6853C78.0084 88.0825 78.1853 87.0168 78.54 85.4888C78.8592 84.1524 79.0184 83.2588 79.0184 82.8079C79.0361 82.4289 79.0668 82.1583 79.1113 81.9967C79.1557 81.8351 79.2478 81.7017 79.3876 81.5951C79.5274 81.4884 79.7092 81.4351 79.933 81.4351C80.0922 81.4351 80.2271 81.4828 80.3378 81.5789C81.1676 81.3664 81.9264 81.2598 82.614 81.2598C83.1602 81.2598 83.7104 81.3171 84.2655 81.4327C84.8206 81.5482 85.0978 81.7704 85.0978 82.1001C85.0978 82.3376 85.0121 82.5445 84.84 82.7198C84.6679 82.8952 84.4699 82.9832 84.2469 82.9832C84.1686 82.9832 84.0926 82.9727 84.0183 82.9517C83.4656 82.799 82.917 82.7231 82.3748 82.7231C81.8068 82.7222 81.1838 82.8063 80.5099 82.9727Z" fill="white"/>
<path d="M181.732 104.559L181.8 98.4546L178.619 98.4191C178.258 96.6003 177.559 94.901 176.596 93.3852L178.871 91.1576L174.602 86.7928L172.327 89.0204C170.833 88.0209 169.15 87.2873 167.339 86.8857L167.375 83.7046L161.267 83.6367L161.232 86.8178C159.413 87.179 157.714 87.8755 156.198 88.841L153.973 86.5633L149.608 90.832L151.833 93.1097C150.837 94.6037 150.1 96.2876 149.698 98.0975L146.517 98.0619L146.449 104.166L149.63 104.202C149.991 106.024 150.69 107.723 151.654 109.236L149.378 111.463L153.647 115.828L155.922 113.601C157.416 114.599 159.099 115.334 160.91 115.735L160.874 118.92L166.982 118.988L167.018 115.803C168.836 115.442 170.536 114.746 172.052 113.78L174.277 116.058L178.642 111.789L176.416 109.511C177.413 108.021 178.149 106.337 178.551 104.524L181.732 104.559ZM164.643 108.683C160.087 108.993 156.359 105.182 156.767 100.631C157.087 97.0511 160.023 94.1811 163.609 93.9395C168.167 93.6333 171.894 97.4463 171.483 101.994C171.159 105.571 168.226 108.439 164.643 108.683Z" fill="#9D50BB"/>
<path d="M176.579 135.201L174.249 136.668C173.155 137.35 171.718 137.023 171.035 135.937L169.568 133.606C168.885 132.52 169.211 131.083 170.298 130.399L172.63 128.926C173.716 128.242 175.153 128.568 175.844 129.657L177.309 131.994C177.992 133.08 177.665 134.517 176.579 135.201Z" fill="#C93DFF"/>
<path d="M37.7415 64.1288L36.0221 65.9904C35.2133 66.8582 33.8583 66.9123 32.9905 66.1108L31.1289 64.3914C30.2611 63.5898 30.2078 62.234 31.0093 61.367L32.7287 59.4981C33.5303 58.6303 34.8853 58.577 35.7603 59.3777L37.622 61.1044C38.4898 61.9052 38.5431 63.2602 37.7415 64.1288Z" fill="#C93DFF"/>
<path d="M177.326 73.3567L175.734 74.3586C174.987 74.824 174.006 74.601 173.539 73.8593L172.537 72.2675C172.07 71.5258 172.293 70.5441 173.036 70.077L174.628 69.0703C175.37 68.6032 176.352 68.8262 176.824 69.5696L177.824 71.1662C178.291 71.908 178.068 72.8897 177.326 73.3567Z" fill="#C93DFF"/>
<path d="M41.8691 47.4778L40.2773 48.4797C39.5299 48.9451 38.549 48.7221 38.082 47.9804L37.0801 46.3886C36.613 45.6469 36.836 44.6652 37.5786 44.1981L39.1712 43.1914C39.9129 42.7243 40.8946 42.9473 41.3665 43.6907L42.3668 45.2873C42.8346 46.0291 42.6108 47.01 41.8691 47.4778Z" fill="#C93DFF"/>
<g opacity="0.4">
<path d="M74.2806 127.975L59.5346 145.537L59.3867 144.897L73.4702 128.115L74.2806 127.975Z" fill="white"/>
</g>
<g opacity="0.4">
<path d="M91.3365 124.02L78.8125 138.942L71.7377 147.372L63.4791 157.212H62.7891L72.4172 145.742L78.6121 138.36L90.4736 124.231L91.3365 124.02Z" fill="white"/>
</g>
<g opacity="0.4">
<path d="M107.118 121.596L90.1928 141.758L82.8109 150.552L77.222 157.212H76.5352L82.6105 149.971L90.2808 140.836L106.396 121.635C106.635 121.621 106.875 121.606 107.118 121.596Z" fill="white"/>
</g>
<g opacity="0.4">
<path d="M132.576 123.906L104.62 157.211H103.934L132.097 123.652C132.26 123.733 132.421 123.818 132.576 123.906Z" fill="white"/>
</g>
<g opacity="0.4">
<path d="M143.408 127.478L127 147.024L127.036 146.165L143.021 127.115C143.154 127.232 143.281 127.351 143.408 127.478Z" fill="white"/>
</g>
<path d="M172.917 157.484H42.6119C42.4664 157.484 42.3477 157.366 42.3477 157.219C42.3477 157.073 42.4656 156.955 42.6119 156.955H172.917C173.063 156.955 173.181 157.073 173.181 157.219C173.181 157.366 173.063 157.484 172.917 157.484Z" fill="#5B03B2"/>
<path d="M62.2569 157.477C62.1365 157.477 62.0282 157.395 62 157.273L55.9286 131.222C55.9125 131.152 55.9254 131.078 55.9658 131.017C56.0054 130.956 56.0692 130.915 56.1403 130.902L74.9506 127.586C75.0766 127.563 75.2035 127.638 75.2463 127.76L82.6096 149.157C82.6573 149.296 82.5838 149.446 82.4456 149.494C82.3082 149.541 82.1571 149.468 82.1103 149.33L74.8205 128.145L56.5072 131.374L62.5155 157.153C62.5486 157.296 62.4597 157.438 62.3183 157.471C62.2965 157.475 62.2763 157.477 62.2569 157.477Z" fill="#5B03B2"/>
<path d="M85.1007 157.478C85.0878 157.478 85.0749 157.477 85.0611 157.475C84.9173 157.453 84.8171 157.319 84.8389 157.175L87.839 136.985C87.8608 136.84 87.9974 136.742 88.1396 136.763C88.2834 136.784 88.3836 136.919 88.3618 137.062L85.3617 157.253C85.3415 157.384 85.2292 157.478 85.1007 157.478Z" fill="#5B03B2"/>
<path d="M103.598 105.213L102.549 122.228C102.549 122.228 95.8155 129.304 105.108 130.91C117.595 133.068 116.84 122.281 116.84 122.281L119.473 100.039L103.598 105.213Z" fill="white"/>
<path d="M108.201 131.46C107.227 131.46 106.181 131.364 105.063 131.17C102.275 130.688 100.603 129.661 100.091 128.117C99.2572 125.597 101.826 122.626 102.29 122.117L103.334 105.195C103.342 105.087 103.413 104.994 103.516 104.96L119.39 99.7863C119.475 99.7588 119.57 99.7758 119.64 99.8332C119.709 99.8905 119.745 99.9794 119.734 100.068L117.104 122.287C117.128 122.687 117.292 126.786 114.408 129.393C112.887 130.768 110.806 131.459 108.201 131.46ZM103.852 105.408L102.813 122.244C102.809 122.306 102.783 122.364 102.741 122.409C102.711 122.44 99.797 125.545 100.595 127.952C101.04 129.296 102.574 130.203 105.155 130.649C109.094 131.331 112.088 130.777 114.053 129.004C116.832 126.496 116.581 122.34 116.578 122.298C116.578 122.282 116.578 122.265 116.579 122.249L119.164 100.417L103.852 105.408Z" fill="#5B03B2"/>
<path d="M111.992 85.8575C111.686 88.1264 109.209 89.6648 106.461 89.2939C103.712 88.9231 101.732 86.7827 102.039 84.513C102.345 82.2441 106.693 77.5731 109.441 77.9448C112.189 78.3164 112.298 83.5886 111.992 85.8575Z" fill="#5B03B2"/>
<path d="M119.075 108.868C119.707 108.307 120.301 107.694 120.851 107.03C123.319 104.058 125.26 100.453 127.852 96.8922L110.285 81.6953C109.857 81.8925 101.298 86.9667 97.207 98.576C94.3976 106.549 97.0704 110.855 102.971 112.535C106.456 113.527 110.1 113.369 113.396 112.209" fill="white"/>
<path d="M107.67 113.459C106.068 113.459 104.466 113.237 102.898 112.79C99.8944 111.935 97.8178 110.432 96.7278 108.324C95.4504 105.855 95.5279 102.546 96.9573 98.4894C101.22 86.3912 110.088 81.4955 110.175 81.4559C110.269 81.4123 110.379 81.4285 110.457 81.4963L128.024 96.6932C128.128 96.7829 128.146 96.9372 128.065 97.0487C126.979 98.5411 126.004 100.047 125.06 101.503C123.74 103.541 122.493 105.466 121.054 107.2C120.502 107.865 119.895 108.493 119.249 109.067C119.14 109.163 118.974 109.154 118.877 109.045C118.78 108.936 118.789 108.769 118.899 108.672C119.524 108.116 120.113 107.507 120.648 106.863C122.067 105.153 123.305 103.24 124.617 101.216C125.522 99.8177 126.457 98.373 127.496 96.9348L110.254 82.0191C109.105 82.7108 101.289 87.789 97.4558 98.6655C96.0766 102.579 95.9893 105.748 97.1972 108.083C98.2177 110.056 100.185 111.469 103.043 112.283C106.427 113.246 109.977 113.134 113.308 111.961C113.445 111.913 113.596 111.985 113.645 112.123C113.693 112.26 113.621 112.411 113.483 112.46C111.592 113.125 109.632 113.459 107.67 113.459Z" fill="#5B03B2"/>
<path d="M117.925 115.024L117.79 111.728L116.681 104.205C116.112 104.77 115.15 104.471 114.991 103.685C114.706 102.279 116.729 98.2232 118.957 95.8388C118.957 95.8388 103.683 90.746 105.671 83.5362C109.152 70.908 116.217 72.5571 123.62 83.0498C127.287 88.246 137.604 93.4738 129.876 101.476C132.119 108.936 122.293 115.518 117.925 115.024Z" fill="#5B03B2"/>
<path d="M114.742 109.987C114.742 109.987 116.44 111.771 119.279 112.003C122.118 112.236 125.754 104.893 123.867 103.327C121.981 101.761 116.681 104.205 116.681 104.205" fill="white"/>
<path d="M119.412 112.272C119.36 112.272 119.307 112.269 119.256 112.265C116.349 112.028 114.621 110.244 114.549 110.168C114.449 110.062 114.453 109.895 114.558 109.794C114.664 109.693 114.831 109.698 114.931 109.803C114.948 109.82 116.6 111.518 119.299 111.739C120.778 111.862 122.599 109.581 123.525 107.311C124.252 105.53 124.319 104.046 123.696 103.528C121.96 102.086 116.841 104.42 116.79 104.443C116.656 104.504 116.5 104.446 116.439 104.314C116.378 104.181 116.436 104.025 116.568 103.963C116.791 103.861 122.042 101.468 124.033 103.122C124.862 103.81 124.854 105.45 124.014 107.509C123.036 109.913 121.16 112.272 119.412 112.272Z" fill="#5B03B2"/>
<path d="M118.152 105.943C118.664 105.497 119.27 105.158 119.918 104.955C120.324 104.828 120.757 104.754 121.177 104.824C121.597 104.894 122.003 105.126 122.213 105.497C122.51 106.021 122.36 106.682 122.138 107.242C121.735 108.265 120.96 109.242 119.81 109.497" fill="white"/>
<path d="M119.81 109.762C119.689 109.762 119.58 109.678 119.552 109.555C119.521 109.413 119.61 109.271 119.753 109.24C121.053 108.952 121.682 107.68 121.893 107.147C122.156 106.481 122.186 105.984 121.984 105.628C121.828 105.351 121.51 105.149 121.134 105.086C120.809 105.032 120.437 105.071 119.998 105.208C119.387 105.399 118.81 105.722 118.328 106.143C118.218 106.239 118.051 106.228 117.956 106.118C117.859 106.008 117.872 105.841 117.981 105.746C118.519 105.277 119.162 104.918 119.841 104.705C120.362 104.543 120.814 104.497 121.222 104.566C121.754 104.656 122.211 104.956 122.445 105.369C122.729 105.873 122.711 106.518 122.385 107.342C121.875 108.635 120.958 109.516 119.869 109.757C119.848 109.759 119.829 109.762 119.81 109.762Z" fill="#5B03B2"/>
<path d="M109.471 99.8241C109.787 99.1514 109.677 98.4345 109.225 98.2228C108.774 98.0111 108.153 98.3848 107.837 99.0574C107.521 99.7301 107.631 100.447 108.083 100.659C108.534 100.87 109.156 100.497 109.471 99.8241Z" fill="#5B03B2"/>
<path d="M105.106 98.0781C104.873 98.7649 103.416 100.74 102.796 101.119C102.177 101.497 100.589 101.624 100.39 102.322C100.206 102.967 100.373 103.702 100.819 104.204" fill="white"/>
<path d="M100.821 104.468C100.748 104.468 100.675 104.438 100.623 104.379C100.121 103.813 99.9302 102.977 100.137 102.249C100.305 101.66 101.067 101.431 101.804 101.21C102.146 101.107 102.47 101.009 102.66 100.894C103.228 100.546 104.644 98.6199 104.857 97.9937C104.903 97.8556 105.053 97.7812 105.192 97.8289C105.33 97.8758 105.404 98.026 105.357 98.1642C105.105 98.9035 103.615 100.93 102.934 101.345C102.686 101.497 102.331 101.604 101.955 101.717C101.41 101.88 100.733 102.085 100.644 102.396C100.485 102.954 100.631 103.596 101.017 104.03C101.114 104.139 101.103 104.307 100.994 104.403C100.945 104.446 100.883 104.468 100.821 104.468Z" fill="#5B03B2"/>
<path d="M105.055 107.794C104.664 107.794 104.273 107.716 103.916 107.56C103.782 107.502 103.722 107.346 103.78 107.213C103.839 107.079 103.995 107.018 104.127 107.076C104.712 107.332 105.409 107.329 105.991 107.072C106.574 106.815 107.045 106.302 107.25 105.699C107.297 105.561 107.447 105.486 107.586 105.534C107.724 105.581 107.798 105.731 107.75 105.869C107.498 106.609 106.921 107.24 106.205 107.556C105.845 107.715 105.45 107.794 105.055 107.794Z" fill="#5B03B2"/>
<path d="M110.869 98.2293C110.77 98.2293 110.676 98.1736 110.63 98.0791C110.335 97.4617 109.838 96.8364 108.458 96.8905C108.311 96.897 108.189 96.7822 108.184 96.6368C108.178 96.4913 108.292 96.3685 108.438 96.3629C109.751 96.3136 110.596 96.7855 111.107 97.8512C111.17 97.9829 111.114 98.1405 110.983 98.2035C110.946 98.2205 110.907 98.2293 110.869 98.2293Z" fill="#5B03B2"/>
<path d="M103.37 96.5643C103.685 95.8917 103.575 95.1748 103.124 94.963C102.673 94.7513 102.051 95.125 101.735 95.7977C101.42 96.4703 101.53 97.1872 101.981 97.399C102.432 97.6107 103.054 97.237 103.37 96.5643Z" fill="#5B03B2"/>
<path d="M104.768 94.9688C104.683 94.9688 104.6 94.9285 104.549 94.8525C104.003 94.0453 103.281 93.6453 102.342 93.63C102.197 93.6276 102.08 93.5072 102.082 93.3617C102.084 93.2163 102.203 93.1016 102.35 93.1016C103.458 93.1193 104.345 93.609 104.986 94.556C105.068 94.6772 105.036 94.8412 104.915 94.9228C104.87 94.9535 104.819 94.9688 104.768 94.9688Z" fill="#5B03B2"/>
<path d="M129.228 157.214C129.228 157.214 125.764 152.018 121.226 151.846C116.689 151.674 111.068 152.179 110.334 153.907C109.604 155.625 109.647 162.538 111.751 162.711C113.366 162.842 113.64 160.521 113.64 160.521C113.64 160.521 113.812 163.37 115.617 163.37C117.421 163.37 117.205 159.534 117.205 159.534C117.205 159.534 118.066 162.493 119.524 162.411C121.8 162.282 121.291 159.025 121.291 159.025C121.291 159.025 121.933 161.641 123.65 161.812C125.367 161.983 125.45 157.215 125.45 157.215H129.228V157.214Z" fill="white"/>
<path d="M115.616 163.633C114.4 163.633 113.84 162.565 113.584 161.683C113.26 162.397 112.675 163.049 111.729 162.973C111.267 162.935 110.87 162.648 110.55 162.119C109.339 160.114 109.502 155.188 110.09 153.803C111.164 151.274 120.208 151.543 121.235 151.581C125.855 151.756 129.302 156.85 129.446 157.067C129.5 157.148 129.505 157.252 129.459 157.338C129.413 157.424 129.323 157.478 129.226 157.478H125.703C125.665 158.317 125.469 160.915 124.503 161.774C124.244 162.005 123.945 162.106 123.621 162.074C122.626 161.975 121.967 161.177 121.563 160.431C121.499 160.957 121.339 161.53 120.987 161.966C120.635 162.401 120.147 162.64 119.537 162.674C118.577 162.733 117.864 161.714 117.434 160.836C117.358 161.648 117.154 162.637 116.632 163.188C116.353 163.483 116.011 163.633 115.616 163.633ZM113.64 160.255C113.643 160.255 113.645 160.255 113.647 160.255C113.784 160.259 113.896 160.367 113.904 160.503C113.906 160.529 114.083 163.104 115.617 163.104C115.864 163.104 116.071 163.013 116.249 162.824C116.926 162.108 116.978 160.215 116.941 159.546C116.934 159.412 117.028 159.294 117.16 159.271C117.294 159.249 117.421 159.329 117.458 159.458C117.679 160.214 118.463 162.146 119.464 162.146C119.479 162.146 119.493 162.146 119.508 162.145C119.968 162.119 120.317 161.951 120.575 161.633C121.281 160.76 121.031 159.081 121.029 159.064C121.007 158.924 121.099 158.792 121.238 158.764C121.376 158.736 121.513 158.822 121.546 158.959C121.552 158.984 122.165 161.395 123.675 161.547C123.849 161.564 124.005 161.509 124.153 161.378C124.951 160.667 125.169 158.126 125.185 157.208C125.187 157.064 125.305 156.948 125.449 156.948H128.709C127.787 155.735 124.824 152.245 121.217 152.108C116.408 151.926 111.21 152.52 110.577 154.009C110.032 155.29 109.927 160.065 111.003 161.844C111.23 162.22 111.488 162.422 111.772 162.445C113.113 162.553 113.375 160.508 113.378 160.487C113.394 160.356 113.507 160.255 113.64 160.255Z" fill="#5B03B2"/>
<path d="M121.292 159.288C121.157 159.288 121.042 159.184 121.03 159.047L120.751 155.96C120.738 155.814 120.846 155.686 120.99 155.673C121.133 155.66 121.264 155.767 121.277 155.912L121.556 158.999C121.569 159.145 121.461 159.273 121.317 159.286C121.309 159.288 121.3 159.288 121.292 159.288Z" fill="#5B03B2"/>
<path d="M117.205 159.796C117.076 159.796 116.964 159.701 116.944 159.57L116.495 156.514C116.474 156.369 116.573 156.235 116.718 156.214C116.865 156.192 116.997 156.292 117.018 156.437L117.467 159.494C117.488 159.638 117.389 159.772 117.244 159.793C117.231 159.795 117.218 159.796 117.205 159.796Z" fill="#5B03B2"/>
<path d="M113.639 160.784C113.506 160.784 113.391 160.683 113.376 160.547L112.955 156.503C112.939 156.357 113.045 156.228 113.19 156.213C113.335 156.196 113.465 156.303 113.48 156.448L113.902 160.493C113.917 160.638 113.811 160.767 113.666 160.783C113.658 160.784 113.649 160.784 113.639 160.784Z" fill="#5B03B2"/>
</svg>
