<svg width="25" height="24" viewBox="0 0 25 24" fill="none" xmlns="http://www.w3.org/2000/svg">
<path d="M13.2059 24H11.3234C11.2124 24.0001 11.105 23.9607 11.0202 23.8889C10.9355 23.8172 10.879 23.7177 10.8608 23.6081L10.6644 22.4288C8.97674 22.1329 7.38654 21.4305 6.03125 20.3822L5.11766 21.0347C5.02736 21.0991 4.91714 21.1294 4.80659 21.1203C4.69605 21.1111 4.59234 21.063 4.51391 20.9845L3.18266 19.6533C3.10421 19.5749 3.05612 19.4711 3.04694 19.3606C3.03776 19.2501 3.06807 19.1398 3.1325 19.0495L3.82813 18.0759C2.84418 16.6734 2.21672 15.0523 2 13.3528L0.891878 13.1686C0.782345 13.1504 0.682832 13.0939 0.611067 13.0092C0.539301 12.9244 0.499943 12.817 0.500003 12.7059V10.8234C0.499609 10.7122 0.538816 10.6044 0.610611 10.5194C0.682406 10.4343 0.782106 10.3776 0.891878 10.3594L2.07125 10.163C2.36734 8.47582 3.06975 6.88613 4.11782 5.53125L3.46532 4.61766C3.40089 4.52736 3.37057 4.41714 3.37975 4.30659C3.38894 4.19605 3.43703 4.09234 3.51547 4.01391L4.84672 2.68266C4.92515 2.60421 5.02886 2.55612 5.13941 2.54694C5.24995 2.53776 5.36017 2.56807 5.45047 2.6325L6.42407 3.32813C7.82664 2.34428 9.44773 1.71683 11.1472 1.5L11.3319 0.393284C11.3498 0.283573 11.4061 0.183793 11.4907 0.111755C11.5754 0.0397163 11.6829 0.000109039 11.7941 2.93751e-06H13.6766C13.7878 -0.000390836 13.8956 0.0388161 13.9807 0.110611C14.0657 0.182406 14.1224 0.282106 14.1406 0.391878L14.337 1.57125C16.0242 1.86734 17.6139 2.56975 18.9688 3.61782L19.8819 2.96532C19.9722 2.90089 20.0824 2.87057 20.1929 2.87975C20.3035 2.88894 20.4072 2.93703 20.4856 3.01547L21.8169 4.34672C21.8953 4.42515 21.9434 4.52886 21.9526 4.63941C21.9618 4.74995 21.9315 4.86017 21.867 4.95047L21.1719 5.92407C22.1558 7.32659 22.7833 8.9477 23 10.6472L24.1067 10.8319C24.2162 10.8501 24.3156 10.9065 24.3874 10.9911C24.4591 11.0758 24.4985 11.1831 24.4986 11.2941V13.1766C24.4987 13.2876 24.4593 13.3951 24.3875 13.4798C24.3158 13.5645 24.2163 13.621 24.1067 13.6392L22.9273 13.8356C22.6319 15.5231 21.93 17.1133 20.8822 18.4688L21.5347 19.3819C21.5991 19.4722 21.6294 19.5824 21.6203 19.6929C21.6111 19.8035 21.563 19.9072 21.4845 19.9856L20.1533 21.3169C20.0749 21.3953 19.9711 21.4434 19.8606 21.4526C19.7501 21.4618 19.6398 21.4315 19.5495 21.367L18.5759 20.6719C17.1734 21.6558 15.5523 22.2833 13.8528 22.5L13.6686 23.6067C13.6507 23.7165 13.5943 23.8164 13.5096 23.8884C13.4248 23.9605 13.3172 24 13.2059 24ZM11.7205 23.0625H12.8089L12.9866 21.9975C13.0036 21.8955 13.0539 21.802 13.1296 21.7315C13.2053 21.6611 13.3022 21.6176 13.4052 21.608C15.1775 21.4432 16.8693 20.7894 18.2919 19.7194C18.3715 19.6595 18.4682 19.6266 18.5678 19.6255C18.6675 19.6243 18.7649 19.6549 18.8459 19.7128L19.7713 20.3738L20.5409 19.6041L19.9133 18.7256C19.8531 18.6414 19.8225 18.5396 19.8262 18.4362C19.8299 18.3327 19.8678 18.2334 19.9339 18.1538C21.0704 16.7839 21.8044 15.1255 22.0541 13.3631C22.0681 13.2645 22.1131 13.1728 22.1828 13.1015C22.2524 13.0302 22.3429 12.9829 22.4413 12.9666L23.5625 12.7791V11.6911L22.4975 11.5134C22.3955 11.4964 22.302 11.4461 22.2315 11.3704C22.1611 11.2947 22.1176 11.1978 22.108 11.0948C21.9432 9.32246 21.2894 7.63067 20.2194 6.20813C20.1595 6.12846 20.1266 6.0318 20.1255 5.93217C20.1243 5.83254 20.1549 5.73513 20.2128 5.65407L20.8738 4.72875L20.1041 3.95907L19.2256 4.58672C19.1414 4.64691 19.0396 4.67753 18.9362 4.6738C18.8327 4.67007 18.7334 4.6322 18.6538 4.5661C17.2839 3.42956 15.6255 2.69559 13.8631 2.44594C13.7645 2.43194 13.6728 2.38686 13.6015 2.31723C13.5302 2.24761 13.4829 2.15707 13.4666 2.05875L13.2791 0.937503H12.1911L12.0134 2.0025C11.9961 2.10426 11.9457 2.19745 11.87 2.26763C11.7944 2.33781 11.6976 2.38105 11.5948 2.39063C9.82232 2.55581 8.13052 3.21014 6.70813 4.28063C6.62846 4.34046 6.5318 4.37336 6.43217 4.37454C6.33254 4.37572 6.23513 4.34512 6.15407 4.28719L5.22875 3.62625L4.45907 4.39594L5.08672 5.27438C5.14691 5.3586 5.17753 5.46038 5.1738 5.56383C5.17007 5.66728 5.1322 5.76659 5.0661 5.84625C3.92956 7.21609 3.19559 8.87454 2.94594 10.6369C2.93194 10.7356 2.88686 10.8272 2.81723 10.8985C2.74761 10.9698 2.65707 11.0171 2.55875 11.0334L1.4375 11.2209V12.3094L2.5025 12.487C2.60419 12.5043 2.69733 12.5547 2.7675 12.6303C2.83767 12.7058 2.88095 12.8025 2.89063 12.9052C3.05581 14.6777 3.71014 16.3695 4.78063 17.7919C4.84046 17.8715 4.87336 17.9682 4.87454 18.0678C4.87572 18.1675 4.84512 18.2649 4.78719 18.3459L4.12625 19.2713L4.89594 20.0409L5.77438 19.4133C5.8586 19.3531 5.96038 19.3225 6.06383 19.3262C6.16728 19.3299 6.26659 19.3678 6.34625 19.4339C7.71609 20.5704 9.37454 21.3044 11.1369 21.5541C11.2356 21.5681 11.3272 21.6131 11.3985 21.6828C11.4698 21.7524 11.5171 21.8429 11.5334 21.9413L11.7205 23.0625Z" fill="#898989" stroke="#898989" stroke-width="0.5"/>
<path d="M12.5002 20.2347C11.4185 20.2356 10.3473 20.0233 9.34785 19.6098C8.34837 19.1963 7.44024 18.5897 6.6754 17.8249C5.91057 17.0601 5.30406 16.1519 4.89056 15.1525C4.47706 14.153 4.2647 13.0818 4.26563 12.0002C4.26563 7.45937 7.95938 3.76563 12.5002 3.76563C13.5816 3.76556 14.6524 3.97851 15.6515 4.39232C16.6505 4.80612 17.5583 5.41267 18.323 6.17733C19.0876 6.94198 19.6942 7.84978 20.108 8.84886C20.5218 9.84795 20.7348 10.9188 20.7347 12.0002C20.7347 16.5409 17.0409 20.2347 12.5002 20.2347ZM12.5002 4.70312C8.47641 4.70312 5.20313 7.97641 5.20313 12.0002C5.20308 12.3512 5.22799 12.7017 5.27766 13.0492C5.79 16.6117 8.895 19.2972 12.5002 19.2972C16.5239 19.2972 19.7972 16.0239 19.7972 12.0002C19.7972 8.55766 17.3545 5.5525 13.9894 4.855C13.4994 4.75378 13.0004 4.70289 12.5002 4.70312Z" fill="#898989" stroke="#898989" stroke-width="0.5"/>
<path d="M5.89578 16.5568C5.80701 16.5567 5.72011 16.5314 5.64518 16.4838C5.57025 16.4362 5.51037 16.3683 5.47251 16.288C5.43465 16.2077 5.42036 16.1183 5.43132 16.0302C5.44227 15.9422 5.478 15.859 5.53437 15.7904L7.52796 13.3689V11.791C7.52813 11.7028 7.5532 11.6164 7.60031 11.5417C7.64741 11.4671 7.71462 11.4073 7.79421 11.3692L10.1028 10.2625L10.6344 8.07433L7.72812 6.0587C7.62599 5.98778 7.55622 5.87919 7.53415 5.75682C7.51209 5.63445 7.53954 5.50833 7.61046 5.4062C7.68139 5.30407 7.78998 5.2343 7.91235 5.21224C8.03471 5.19017 8.16083 5.21762 8.26296 5.28854L11.4317 7.48933C11.5093 7.54337 11.5687 7.61961 11.6022 7.70803C11.6356 7.79646 11.6416 7.89293 11.6192 7.98479L10.9597 10.7012C10.9432 10.7687 10.912 10.8316 10.8682 10.8855C10.8244 10.9394 10.7692 10.983 10.7066 11.0129L8.46359 12.0882V13.5414C8.46352 13.65 8.42574 13.7552 8.35671 13.839L6.25624 16.3904C6.212 16.4428 6.15678 16.4849 6.0945 16.5137C6.03221 16.5424 5.96438 16.5572 5.89578 16.5568ZM11.5911 20.1817C11.4758 20.1816 11.3645 20.139 11.2787 20.062C11.1928 19.985 11.1383 19.8791 11.1256 19.7645L10.8936 17.6626C10.8809 17.5473 10.9115 17.4314 10.9794 17.3373L12.8806 14.6987C12.9285 14.6322 12.9929 14.5795 13.0675 14.5457C13.1421 14.5119 13.2243 14.4982 13.3058 14.506L15.8216 14.7474L16.8552 12.7351L15.1292 12.4628C15.0523 12.4506 14.9796 12.4195 14.9177 12.3722C14.8559 12.3248 14.8067 12.2629 14.7748 12.1918L13.4933 9.34464C13.4605 9.27201 13.4468 9.19224 13.4535 9.11284C13.4601 9.03345 13.4869 8.95706 13.5312 8.89089L16.0948 5.07151C16.1286 5.01926 16.1725 4.97427 16.2239 4.93916C16.2753 4.90405 16.3331 4.87952 16.3941 4.867C16.4551 4.85448 16.5179 4.85423 16.579 4.86626C16.64 4.87829 16.6981 4.90235 16.7497 4.93705C16.8014 4.97175 16.8456 5.01639 16.8799 5.06837C16.9141 5.12034 16.9376 5.17861 16.9491 5.23978C16.9606 5.30095 16.9597 5.36379 16.9467 5.42463C16.9336 5.48548 16.9085 5.54311 16.873 5.59417L14.4547 9.19745L15.5258 11.5778L17.6412 11.912C17.7141 11.9238 17.783 11.9527 17.8426 11.9962C17.9021 12.0397 17.9506 12.0967 17.984 12.1625C18.0174 12.2282 18.0348 12.301 18.0347 12.3747C18.0347 12.4485 18.0173 12.5212 17.9839 12.587L16.5097 15.4585C16.4668 15.5419 16.3998 15.6106 16.3175 15.6555C16.2352 15.7005 16.1413 15.7197 16.048 15.7107L13.4839 15.4651L11.8433 17.739L12.0556 19.6609C12.0688 19.7842 12.0326 19.9076 11.9549 20.0043C11.8772 20.1009 11.7645 20.1628 11.6412 20.1765C11.6246 20.1791 11.6079 20.1808 11.5911 20.1817Z" fill="#898989" stroke="#898989" stroke-width="0.5"/>
</svg>
