<svg width="21" height="20" viewBox="0 0 21 20" fill="none" xmlns="http://www.w3.org/2000/svg">
<path fill-rule="evenodd" clip-rule="evenodd" d="M2.375 10C2.375 5.5125 6.0125 1.875 10.5 1.875C14.9875 1.875 18.625 5.5125 18.625 10C18.625 14.4875 14.9875 18.125 10.5 18.125C6.0125 18.125 2.375 14.4875 2.375 10ZM9.63 8.79833C10.585 8.32083 11.6608 9.18417 11.4017 10.22L10.8108 12.5833L10.8458 12.5667C10.9927 12.5021 11.1587 12.4965 11.3096 12.551C11.4605 12.6054 11.5846 12.7158 11.6564 12.8593C11.7281 13.0028 11.7419 13.1684 11.695 13.3217C11.648 13.4751 11.5439 13.6046 11.4042 13.6833L11.3708 13.7017C10.415 14.1792 9.33917 13.3158 9.59833 12.28L10.19 9.91667L10.155 9.93333C10.0813 9.9743 10 9.99993 9.91615 10.0087C9.83226 10.0174 9.74748 10.0091 9.6669 9.98418C9.58632 9.95928 9.51161 9.91834 9.44727 9.86381C9.38294 9.80927 9.3303 9.74229 9.29254 9.66687C9.25478 9.59146 9.23267 9.50919 9.22754 9.425C9.22242 9.34082 9.23439 9.25647 9.26272 9.17704C9.29106 9.0976 9.33518 9.02472 9.39243 8.96279C9.44968 8.90086 9.51887 8.85115 9.59583 8.81667L9.63 8.79833ZM10.5 7.5C10.6658 7.5 10.8247 7.43415 10.9419 7.31694C11.0592 7.19973 11.125 7.04076 11.125 6.875C11.125 6.70924 11.0592 6.55027 10.9419 6.43306C10.8247 6.31585 10.6658 6.25 10.5 6.25C10.3342 6.25 10.1753 6.31585 10.0581 6.43306C9.94085 6.55027 9.875 6.70924 9.875 6.875C9.875 7.04076 9.94085 7.19973 10.0581 7.31694C10.1753 7.43415 10.3342 7.5 10.5 7.5Z" fill="#BDBDBD"/>
</svg>
