<svg width="48" height="48" viewBox="0 0 48 48" fill="none" xmlns="http://www.w3.org/2000/svg">
<g clip-path="url(#clip0_4277_44960)">
<path d="M21.7504 43.5C24.1355 43.5028 26.5047 43.1125 28.7629 42.345C28.9513 42.2808 29.1066 42.1445 29.1945 41.9658C29.2824 41.7872 29.2958 41.581 29.2316 41.3925C29.1675 41.204 29.0311 41.0488 28.8525 40.9609C28.6738 40.8729 28.4676 40.8596 28.2791 40.9237C25.0869 42.0073 21.6748 42.2767 18.3521 41.7077C15.0294 41.1386 11.9013 39.749 9.25163 37.665C9.32477 35.0105 10.241 32.4482 11.8675 30.3491C13.494 28.2501 15.7465 26.7233 18.2987 25.9898C20.8509 25.2563 23.5703 25.3542 26.0631 26.2694C28.556 27.1845 30.6928 28.8694 32.1641 31.08C32.2188 31.162 32.2891 31.2324 32.3709 31.2873C32.4528 31.3421 32.5447 31.3803 32.6413 31.3996C32.738 31.4189 32.8375 31.419 32.9341 31.3999C33.0308 31.3808 33.1228 31.3428 33.2048 31.2881C33.2868 31.2335 33.3572 31.1632 33.412 31.0813C33.4668 30.9994 33.505 30.9075 33.5243 30.8109C33.5437 30.7143 33.5438 30.6148 33.5246 30.5181C33.5055 30.4215 33.4675 30.3295 33.4129 30.2475C31.5639 27.4719 28.7845 25.4479 25.5754 24.54C27.1633 23.6878 28.4211 22.3298 29.1493 20.6813C29.8775 19.0329 30.0344 17.1885 29.5951 15.4408C29.1557 13.693 28.1453 12.1421 26.7242 11.034C25.303 9.92583 23.5525 9.32403 21.7504 9.32403C19.9483 9.32403 18.1978 9.92583 16.7766 11.034C15.3555 12.1421 14.345 13.693 13.9057 15.4408C13.4663 17.1885 13.6232 19.0329 14.3514 20.6813C15.0797 22.3298 16.3375 23.6878 17.9254 24.54C15.2551 25.3029 12.8711 26.8407 11.0749 28.9586C9.2786 31.0766 8.15082 33.6797 7.83413 36.4388C5.22181 33.9644 3.31597 30.8386 2.31272 27.3831C1.30948 23.9276 1.24507 20.2672 2.12612 16.7786C3.00717 13.2899 4.80186 10.099 7.32551 7.53427C9.84916 4.96949 13.0106 3.12346 16.4846 2.18614C19.9585 1.24882 23.6195 1.25406 27.0907 2.20132C30.562 3.14859 33.7181 5.00366 36.2344 7.57565C38.7507 10.1476 40.5363 13.3436 41.4073 16.8348C42.2784 20.326 42.2035 23.9861 41.1904 27.4387C41.1628 27.5333 41.1541 27.6324 41.1648 27.7303C41.1755 27.8282 41.2054 27.923 41.2528 28.0094C41.3484 28.1838 41.5094 28.3131 41.7004 28.3688C41.8913 28.4244 42.0966 28.402 42.271 28.3064C42.4454 28.2107 42.5747 28.0497 42.6304 27.8587C43.9127 23.477 43.7836 18.8028 42.2614 14.4985C40.7392 10.1941 37.9012 6.47796 34.1493 3.87644C30.3975 1.27493 25.9221 -0.0799949 21.3574 0.00365257C16.7926 0.0873 12.3699 1.60528 8.71587 4.3425C5.06186 7.07973 2.36185 10.8974 0.998397 15.2546C-0.365053 19.6118 -0.322805 24.2876 1.11916 28.6194C2.56112 32.9513 5.32967 36.7195 9.03254 39.3903C12.7354 42.061 17.1848 43.4989 21.7504 43.5ZM15.1616 17.415C15.1609 16.1117 15.5467 14.8375 16.2702 13.7535C16.9937 12.6695 18.0225 11.8244 19.2264 11.3251C20.4302 10.8259 21.7551 10.6948 23.0335 10.9486C24.3118 11.2025 25.4862 11.8297 26.408 12.751C27.3298 13.6723 27.9577 14.8463 28.2123 16.1245C28.4668 17.4027 28.3365 18.7276 27.838 19.9318C27.3394 21.1359 26.4949 22.1652 25.4113 22.8893C24.3277 23.6135 23.0537 24 21.7504 24C20.0042 23.998 18.33 23.3037 17.0949 22.0693C15.8599 20.8349 15.1646 19.1612 15.1616 17.415ZM35.6254 38.7975C35.6254 39.5392 35.8453 40.2642 36.2574 40.8809C36.6694 41.4976 37.2551 41.9782 37.9403 42.2621C38.6255 42.5459 39.3795 42.6201 40.107 42.4754C40.8344 42.3307 41.5026 41.9736 42.027 41.4492C42.5515 40.9247 42.9086 40.2565 43.0533 39.5291C43.198 38.8017 43.1238 38.0477 42.8399 37.3624C42.5561 36.6772 42.0755 36.0915 41.4588 35.6795C40.8421 35.2674 40.1171 35.0475 39.3754 35.0475C38.3808 35.0475 37.427 35.4426 36.7237 36.1459C36.0205 36.8491 35.6254 37.8029 35.6254 38.7975ZM41.6254 38.7975C41.6254 39.2425 41.4934 39.6775 41.2462 40.0475C40.999 40.4175 40.6475 40.7059 40.2364 40.8762C39.8253 41.0465 39.3729 41.0911 38.9364 41.0043C38.5 40.9174 38.0991 40.7032 37.7844 40.3885C37.4697 40.0738 37.2554 39.6729 37.1686 39.2365C37.0818 38.8 37.1264 38.3476 37.2967 37.9365C37.4669 37.5253 37.7553 37.1739 38.1253 36.9267C38.4954 36.6795 38.9304 36.5475 39.3754 36.5475C39.9721 36.5475 40.5444 36.7846 40.9664 37.2065C41.3883 37.6285 41.6254 38.2008 41.6254 38.7975Z" fill="url(#paint0_linear_4277_44960)"/>
<path d="M41.3664 30.2132C41.3238 30.0797 41.2447 29.9608 41.1379 29.87C41.0312 29.7792 40.9012 29.7201 40.7626 29.6995C39.8428 29.5611 38.9075 29.5611 37.9876 29.6995C37.8486 29.7204 37.7183 29.7801 37.6115 29.8716C37.5048 29.9631 37.4259 30.0828 37.3839 30.217L36.8439 31.9307C36.0627 32.2202 35.3362 32.6399 34.6951 33.172L32.9401 32.797C32.8031 32.7661 32.6601 32.7743 32.5275 32.8207C32.3949 32.8671 32.278 32.9498 32.1901 33.0595C31.6069 33.7867 31.1378 34.5985 30.7989 35.467C30.7479 35.5976 30.7346 35.74 30.7604 35.8779C30.7863 36.0158 30.8503 36.1436 30.9451 36.247L32.1601 37.5745C32.018 38.3958 32.018 39.2356 32.1601 40.057L30.9451 41.3845C30.8503 41.4878 30.7863 41.6156 30.7604 41.7535C30.7346 41.8914 30.7479 42.0338 30.7989 42.1645C31.1377 43.0329 31.6068 43.8447 32.1901 44.572C32.278 44.6816 32.3949 44.7643 32.5275 44.8107C32.6601 44.8571 32.8031 44.8653 32.9401 44.8345L34.6951 44.4595C35.3358 44.993 36.0624 45.4139 36.8439 45.7045L37.3839 47.4182C37.4259 47.5524 37.5048 47.672 37.6115 47.7636C37.7183 47.8551 37.8486 47.9147 37.9876 47.9357C38.9074 48.0747 39.8429 48.0747 40.7626 47.9357C40.9012 47.915 41.0312 47.8559 41.1379 47.7651C41.2447 47.6743 41.3238 47.5554 41.3664 47.422L41.9064 45.7082C42.6879 45.4177 43.4144 44.9967 44.0551 44.4632L45.8101 44.8382C45.9472 44.8691 46.0902 44.8608 46.2228 44.8144C46.3554 44.768 46.4723 44.6853 46.5601 44.5757C47.1434 43.8485 47.6126 43.0367 47.9514 42.1682C48.0024 42.0375 48.0157 41.8952 47.9899 41.7573C47.964 41.6194 47.9 41.4915 47.8051 41.3882L46.5901 40.0607C46.7323 39.2393 46.7323 38.3996 46.5901 37.5782L47.8051 36.2507C47.9 36.1474 47.964 36.0195 47.9899 35.8816C48.0157 35.7437 48.0024 35.6014 47.9514 35.4707C47.6125 34.6022 47.1434 33.7904 46.5601 33.0632C46.4723 32.9536 46.3554 32.8709 46.2228 32.8245C46.0902 32.7781 45.9472 32.7698 45.8101 32.8007L44.0551 33.1757C43.4141 32.6436 42.6876 32.224 41.9064 31.9345L41.3664 30.2132ZM43.9914 34.7132L45.6451 34.3382C45.9184 34.7231 46.1557 35.1323 46.3539 35.5607L45.2251 36.8245C45.1439 36.9139 45.0854 37.0216 45.0547 37.1385C45.024 37.2553 45.022 37.3779 45.0489 37.4957C45.2454 38.3508 45.2454 39.2393 45.0489 40.0945C45.0214 40.2128 45.0231 40.3361 45.0538 40.4537C45.0845 40.5713 45.1433 40.6796 45.2251 40.7695L46.3689 42.0182C46.1707 42.4466 45.9334 42.8558 45.6601 43.2407L44.0064 42.8657C43.888 42.8398 43.7651 42.843 43.6482 42.875C43.5313 42.907 43.4239 42.9669 43.3351 43.0495C42.6923 43.6465 41.9233 44.0913 41.0851 44.3507C40.969 44.3864 40.8633 44.4497 40.7771 44.5353C40.6909 44.6209 40.6267 44.7261 40.5901 44.842L40.0801 46.4582C39.6099 46.5011 39.1367 46.5011 38.6664 46.4582L38.1564 44.842C38.1198 44.7261 38.0557 44.6209 37.9695 44.5353C37.8832 44.4497 37.7775 44.3864 37.6614 44.3507C36.8233 44.0913 36.0543 43.6465 35.4114 43.0495C35.3227 42.9669 35.2153 42.907 35.0984 42.875C34.9815 42.843 34.8586 42.8398 34.7401 42.8657L33.0864 43.2407C32.8131 42.8558 32.5758 42.4466 32.3776 42.0182L33.5214 40.7695C33.6033 40.6796 33.6621 40.5713 33.6928 40.4537C33.7235 40.3361 33.7252 40.2128 33.6976 40.0945C33.5011 39.2393 33.5011 38.3508 33.6976 37.4957C33.7245 37.3779 33.7225 37.2553 33.6918 37.1385C33.6611 37.0216 33.6027 36.9139 33.5214 36.8245L32.3776 35.5757C32.5759 35.1473 32.8131 34.7381 33.0864 34.3532L34.7401 34.7282C34.8586 34.7541 34.9815 34.7509 35.0984 34.7189C35.2153 34.6869 35.3227 34.627 35.4114 34.5445C36.0542 33.9473 36.8232 33.5025 37.6614 33.2432C37.7775 33.2075 37.8832 33.1442 37.9695 33.0586C38.0557 32.973 38.1198 32.8678 38.1564 32.752L38.6701 31.1245C39.1404 31.0819 39.6136 31.0819 40.0839 31.1245L40.5939 32.7407C40.6305 32.8566 40.6946 32.9618 40.7808 33.0474C40.8671 33.1329 40.9728 33.1963 41.0889 33.232C41.9271 33.4913 42.6961 33.936 43.3389 34.5332C43.428 34.6151 43.5355 34.6743 43.6524 34.7056C43.7693 34.737 43.892 34.7396 44.0101 34.7132H43.9914Z" fill="url(#paint1_linear_4277_44960)"/>
</g>
<defs>
<linearGradient id="paint0_linear_4277_44960" x1="0.00585932" y1="10.4567" x2="43.7582" y2="10.7943" gradientUnits="userSpaceOnUse">
<stop stop-color="#5B03B2"/>
<stop offset="1" stop-color="#9D50BB"/>
</linearGradient>
<linearGradient id="paint1_linear_4277_44960" x1="30.7476" y1="34.0294" x2="48.1029" y2="34.1547" gradientUnits="userSpaceOnUse">
<stop stop-color="#5B03B2"/>
<stop offset="1" stop-color="#9D50BB"/>
</linearGradient>
<clipPath id="clip0_4277_44960">
<rect width="48" height="48" fill="white"/>
</clipPath>
</defs>
</svg>
