<svg width="60" height="60" viewBox="0 0 60 60" fill="none" xmlns="http://www.w3.org/2000/svg">
<g clip-path="url(#clip0_4208_92922)">
<path opacity="0.981" fill-rule="evenodd" clip-rule="evenodd" d="M59.9414 28.0675C59.9414 30.6846 59.9414 33.3019 59.9414 35.9191C59.0093 39.7609 56.5875 42.0071 52.6758 42.6573C51.4257 42.7355 50.1758 42.7355 48.9258 42.6573C48.2363 42.5 47.7871 42.0898 47.5781 41.4269C47.5391 35.0987 47.5 28.7706 47.4609 22.4425C46.9525 15.4636 43.6126 10.366 37.4414 7.14952C30.8985 4.38569 24.7657 5.08882 19.043 9.2589C14.9539 12.6907 12.747 17.0853 12.4219 22.4425C12.3829 28.7706 12.3437 35.0987 12.3047 41.4269C12.1752 41.9784 11.8432 42.3495 11.3086 42.5401C8.7418 43.0531 6.28086 42.7405 3.92578 41.6026C1.80141 40.2633 0.473286 38.3687 -0.0585938 35.9191C-0.0585938 33.3019 -0.0585938 30.6846 -0.0585938 28.0675C1.07438 23.5765 3.965 21.3109 8.61328 21.2706C9.37635 14.0959 12.7748 8.56855 18.8086 4.68859C25.9691 0.68807 33.1957 0.570883 40.4883 4.33702C46.8548 8.1901 50.4486 13.8346 51.2695 21.2706C55.8877 21.3511 58.7783 23.6167 59.9414 28.0675Z" fill="url(#paint0_linear_4208_92922)"/>
<path opacity="0.929" fill-rule="evenodd" clip-rule="evenodd" d="M7.79297 44.707C8.54611 44.7823 9.28829 44.8214 10.0195 44.8242C11.1565 49.1148 13.8518 51.8687 18.1055 53.0859C19.3876 53.282 20.6767 53.4186 21.9727 53.4961C21.8164 54.1602 21.8164 54.8242 21.9727 55.4883C16.6338 55.9052 12.4737 53.913 9.49219 49.5117C8.61047 48.0188 8.04405 46.4171 7.79297 44.707Z" fill="url(#paint1_linear_4208_92922)"/>
<path opacity="0.973" fill-rule="evenodd" clip-rule="evenodd" d="M26.7777 50.6831C28.8874 50.6636 30.9968 50.6831 33.1058 50.7417C35.2962 51.4498 36.2531 52.9536 35.9769 55.2534C35.5382 56.929 34.464 57.9251 32.7543 58.2417C30.8793 58.3199 29.0043 58.3199 27.1293 58.2417C24.6873 57.6717 23.6131 56.1288 23.9066 53.6128C24.3393 52.1061 25.2962 51.1295 26.7777 50.6831Z" fill="url(#paint2_linear_4208_92922)"/>
</g>
<defs>
<linearGradient id="paint0_linear_4208_92922" x1="-0.0585938" y1="11.4971" x2="60.2854" y2="12.1753" gradientUnits="userSpaceOnUse">
<stop stop-color="#5B03B2"/>
<stop offset="1" stop-color="#9D50BB"/>
</linearGradient>
<linearGradient id="paint1_linear_4208_92922" x1="7.79297" y1="47.3117" x2="22.0543" y2="47.4557" gradientUnits="userSpaceOnUse">
<stop stop-color="#5B03B2"/>
<stop offset="1" stop-color="#9D50BB"/>
</linearGradient>
<linearGradient id="paint2_linear_4208_92922" x1="23.8594" y1="52.5086" x2="36.0928" y2="52.6592" gradientUnits="userSpaceOnUse">
<stop stop-color="#5B03B2"/>
<stop offset="1" stop-color="#9D50BB"/>
</linearGradient>
<clipPath id="clip0_4208_92922">
<rect width="60" height="60" fill="white"/>
</clipPath>
</defs>
</svg>
