<svg width="60" height="60" viewBox="0 0 60 60" fill="none" xmlns="http://www.w3.org/2000/svg">
<g clip-path="url(#clip0_4208_92913)">
<path opacity="0.991" fill-rule="evenodd" clip-rule="evenodd" d="M20.5664 -0.0585938C22.0898 -0.0585938 23.6133 -0.0585938 25.1367 -0.0585938C33.0409 0.971902 38.998 4.91721 43.0078 11.7773C46.1999 18.0349 46.6295 24.4802 44.2969 31.1133C41.9818 36.9441 37.9779 41.1824 32.2852 43.8281C26.6712 46.1396 20.968 46.374 15.1758 44.5312C13.7884 44.0033 12.4407 43.3979 11.1328 42.7148C7.39276 43.7036 3.6623 44.7191 -0.0585938 45.7617C-0.0585938 45.6836 -0.0585938 45.6055 -0.0585938 45.5273C1.00885 41.9231 2.02448 38.2903 2.98828 34.6289C2.18078 33.0868 1.49719 31.4854 0.9375 29.8242C0.50527 28.3062 0.173238 26.7827 -0.0585938 25.2539C-0.0585938 23.6523 -0.0585938 22.0508 -0.0585938 20.4492C1.48801 10.4451 7.07394 3.86311 16.6992 0.703125C17.9911 0.378284 19.2802 0.124377 20.5664 -0.0585938ZM22.793 10.4883C26.6838 10.8052 29.0081 12.8755 29.7656 16.6992C29.9732 18.7324 29.4262 20.5293 28.125 22.0898C26.9531 23.1836 25.7812 24.2774 24.6094 25.3711C24.5508 26.3078 24.5313 27.2453 24.5508 28.1836C23.4179 28.1836 22.2852 28.1836 21.1523 28.1836C21.1328 26.7377 21.1523 25.2925 21.2109 23.8477C22.7695 22.4845 24.293 21.0783 25.7812 19.6289C26.9195 17.5614 26.5484 15.8231 24.668 14.4141C22.3096 13.4255 20.5712 14.07 19.4531 16.3477C19.3309 16.7293 19.2723 17.1199 19.2773 17.5195C18.1445 17.5195 17.0118 17.5195 15.8789 17.5195C16.2994 13.31 18.6041 10.9663 22.793 10.4883ZM21.1523 31.6992C22.2852 31.6992 23.4179 31.6992 24.5508 31.6992C24.5508 32.8711 24.5508 34.043 24.5508 35.2148C23.4179 35.2148 22.2852 35.2148 21.1523 35.2148C21.1523 34.043 21.1523 32.8711 21.1523 31.6992Z" fill="url(#paint0_linear_4208_92913)"/>
<path opacity="0.987" fill-rule="evenodd" clip-rule="evenodd" d="M59.9414 38.3789C59.9414 39.8242 59.9414 41.2696 59.9414 42.7148C59.5656 45.4634 58.7062 48.0611 57.3633 50.5078C58.1801 53.6007 59.0394 56.6671 59.9414 59.707C59.9414 59.7852 59.9414 59.8632 59.9414 59.9414C59.8632 59.9414 59.7852 59.9414 59.707 59.9414C56.6671 59.0394 53.6007 58.1801 50.5078 57.3633C48.0611 58.7062 45.4634 59.5656 42.7148 59.9414C41.2696 59.9414 39.8242 59.9414 38.3789 59.9414C31.5161 58.9322 26.438 55.3775 23.1445 49.2773C34.1829 48.6023 42.1321 43.3289 46.9922 33.457C48.3892 30.1636 49.1509 26.7261 49.2773 23.1445C55.3775 26.438 58.9322 31.5161 59.9414 38.3789Z" fill="url(#paint1_linear_4208_92913)"/>
</g>
<defs>
<linearGradient id="paint0_linear_4208_92913" x1="-0.0585938" y1="10.9559" x2="46.0401" y2="11.3116" gradientUnits="userSpaceOnUse">
<stop stop-color="#5B03B2"/>
<stop offset="1" stop-color="#9D50BB"/>
</linearGradient>
<linearGradient id="paint1_linear_4208_92913" x1="23.1445" y1="31.9899" x2="60.1548" y2="32.2755" gradientUnits="userSpaceOnUse">
<stop stop-color="#5B03B2"/>
<stop offset="1" stop-color="#9D50BB"/>
</linearGradient>
<clipPath id="clip0_4208_92913">
<rect width="60" height="60" fill="white"/>
</clipPath>
</defs>
</svg>
