<svg width="60" height="60" viewBox="0 0 60 60" fill="none" xmlns="http://www.w3.org/2000/svg">
<path opacity="0.976" fill-rule="evenodd" clip-rule="evenodd" d="M19.2769 1.93311C31.7379 1.91357 44.1988 1.93311 56.6597 1.9917C57.2261 2.24561 57.6362 2.65577 57.8902 3.22217C57.9487 4.82326 57.9683 6.42482 57.9487 8.02686C44.5894 8.02686 31.23 8.02686 17.8706 8.02686C17.8511 6.50292 17.8706 4.97948 17.9292 3.45654C18.1187 2.7016 18.5679 2.19379 19.2769 1.93311ZM20.5659 4.04248C21.2444 3.99516 21.9084 4.05376 22.5581 4.21826C23.0675 4.95564 22.9113 5.50252 22.0894 5.85889C21.5319 5.95379 20.985 5.91472 20.4487 5.7417C19.8253 5.12985 19.8643 4.56345 20.5659 4.04248ZM25.605 4.04248C26.1922 4.02304 26.7782 4.04256 27.3628 4.10108C27.8612 4.5019 27.9589 4.99019 27.6558 5.56592C26.9637 5.95724 26.2411 6.01584 25.4878 5.7417C24.8512 5.1278 24.8903 4.5614 25.605 4.04248Z" fill="url(#paint0_linear_4208_92933)"/>
<path opacity="0.982" fill-rule="evenodd" clip-rule="evenodd" d="M17.8706 9.90234C31.23 9.90234 44.5894 9.90234 57.9487 9.90234C57.9683 19.4727 57.9487 29.043 57.8902 38.6133C57.6316 39.3775 57.1043 39.8266 56.3081 39.9609C45.0191 40.0391 33.73 40.0391 22.4409 39.9609C21.6952 39.3411 20.8357 39.0091 19.8628 38.9648C19.8628 38.2617 19.8628 37.5586 19.8628 36.8555C21.6122 36.85 22.999 36.1468 24.023 34.7461C24.8464 33.2844 25.1198 31.722 24.8433 30.0586C24.6739 28.2371 24.049 26.5965 22.9683 25.1367C22.9293 24.2774 22.8901 23.4179 22.8511 22.5586C22.234 20.4042 20.8473 19.6425 18.6909 20.2734C18.437 20.4492 18.1832 20.625 17.9292 20.8008C17.8706 17.1682 17.8511 13.5354 17.8706 9.90234ZM25.7222 12.9492C32.4448 12.8934 39.1635 12.952 45.8784 13.125C48.4682 14.1054 49.3471 15.9218 48.5152 18.5742C47.8329 19.8805 46.7586 20.6422 45.2925 20.8594C41.1909 20.8984 37.0894 20.9375 32.9878 20.9766C32.1675 21.4843 31.3472 21.9922 30.5269 22.5C29.4035 23.2712 28.3684 23.1736 27.4214 22.207C27.1781 21.8094 27.0415 21.3797 27.0112 20.918C25.1703 21.1393 23.7055 20.5143 22.6167 19.043C21.5324 16.8864 21.9425 15.07 23.8472 13.5938C24.4583 13.2925 25.0833 13.0777 25.7222 12.9492ZM31.5816 25.957C38.1442 25.9375 44.7067 25.957 51.2691 26.0156C53.2669 26.3338 54.4583 27.4861 54.8433 29.4727C54.695 32.6079 53.0348 34.0922 49.8628 33.9258C49.7572 35.1838 49.0737 35.8869 47.812 36.0352C47.3741 35.9795 46.9639 35.8427 46.5816 35.625C45.7027 35.0487 44.8042 34.5019 43.8862 33.9844C39.7847 33.9454 35.6831 33.9062 31.5816 33.8672C29.3783 33.4802 28.1674 32.1716 27.9487 29.9414C28.189 27.7097 29.4 26.3815 31.5816 25.957Z" fill="url(#paint1_linear_4208_92933)"/>
<path opacity="0.97" fill-rule="evenodd" clip-rule="evenodd" d="M25.2545 14.9409C32.0515 14.9214 38.8483 14.9409 45.6451 14.9995C46.5153 15.3705 46.9841 16.0346 47.0513 16.9917C46.946 18.1516 46.3209 18.8157 45.1763 18.9839C40.9576 19.0229 36.7388 19.0621 32.5201 19.1011C31.3872 19.7846 30.2545 20.4683 29.1216 21.1519C29.053 21.1274 28.9944 21.0882 28.9459 21.0347C28.9068 20.5659 28.8677 20.0972 28.8287 19.6284C28.7742 19.4607 28.6765 19.3241 28.5357 19.2183C27.409 19.0904 26.2761 18.9732 25.1373 18.8667C24.0134 18.2618 23.6424 17.3437 24.024 16.1128C24.2708 15.5336 24.6809 15.143 25.2545 14.9409Z" fill="url(#paint2_linear_4208_92933)"/>
<path opacity="0.968" fill-rule="evenodd" clip-rule="evenodd" d="M7.67576 21.8571C8.19728 21.8152 8.60744 22.0104 8.90623 22.4431C8.92656 22.9166 8.98516 23.3854 9.08201 23.8493C10.6078 23.0643 12.2288 22.7519 13.9453 22.9118C15.6581 22.7662 17.2792 23.0786 18.8086 23.8493C18.9055 23.3854 18.9641 22.9166 18.9844 22.4431C19.3925 21.8612 19.9199 21.7246 20.5664 22.0329C20.747 22.2179 20.8837 22.4329 20.9765 22.6774C21.0156 23.6931 21.0547 24.7087 21.0937 25.7243C23.0003 28.1333 23.469 30.7896 22.5 33.6931C22.0426 34.3221 21.4371 34.7323 20.6836 34.9235C16.1914 35.0017 11.6992 35.0017 7.20701 34.9235C6.19 34.6097 5.46735 33.9652 5.03904 32.9899C4.52229 30.2916 5.10823 27.8697 6.79686 25.7243C6.83592 24.7087 6.87499 23.6931 6.91404 22.6774C7.03338 22.2655 7.28728 21.9921 7.67576 21.8571ZM9.66795 27.0134C10.1822 26.9481 10.5533 27.1435 10.7812 27.5993C10.8594 28.4978 10.8594 29.3962 10.7812 30.2946C10.4689 30.8728 10.0197 31.0096 9.43358 30.7048C9.20067 30.5502 9.06395 30.3354 9.02342 30.0603C8.91909 29.1914 8.95815 28.3321 9.14061 27.4821C9.30429 27.2981 9.48008 27.1418 9.66795 27.0134ZM17.6367 27.0134C18.2762 26.9517 18.6863 27.2251 18.8672 27.8337C18.9453 28.5758 18.9453 29.3181 18.8672 30.0603C18.6092 30.8045 18.1209 31.0194 17.4023 30.7048C17.2616 30.599 17.1638 30.4623 17.1094 30.2946C17.0312 29.3962 17.0312 28.4978 17.1094 27.5993C17.2295 27.343 17.4053 27.1477 17.6367 27.0134ZM12.7148 30.9978C13.5361 30.9783 14.3564 30.9978 15.1758 31.0563C16.0505 31.5978 16.0895 32.1837 15.293 32.8142C14.3945 32.8923 13.4961 32.8923 12.5976 32.8142C12.0866 32.5533 11.9108 32.1431 12.0703 31.5837C12.2351 31.3207 12.4499 31.1255 12.7148 30.9978Z" fill="url(#paint3_linear_4208_92933)"/>
<path opacity="0.95" fill-rule="evenodd" clip-rule="evenodd" d="M31.817 27.8316C38.2234 27.812 44.6296 27.8316 51.0358 27.8902C52.7776 28.2678 53.3441 29.303 52.735 30.9956C52.5592 31.3276 52.3052 31.5816 51.9733 31.7573C50.7666 31.969 49.5557 32.1252 48.3404 32.2261C48.1772 32.3633 48.0795 32.5391 48.0475 32.7534C48.0084 33.1832 47.9693 33.6128 47.9303 34.0425C47.8818 34.0961 47.8232 34.1352 47.7545 34.1597C46.6217 33.4761 45.4889 32.7925 44.3561 32.1089C39.9765 32.1053 35.6016 32.0271 31.2311 31.8745C30.1122 31.3355 29.702 30.4566 30.0006 29.2378C30.3592 28.4279 30.9646 27.9592 31.817 27.8316Z" fill="url(#paint4_linear_4208_92933)"/>
<path opacity="0.938" fill-rule="evenodd" clip-rule="evenodd" d="M9.90234 36.8555C12.5977 36.8555 15.293 36.8555 17.9883 36.8555C17.9883 37.5586 17.9883 38.2617 17.9883 38.9648C15.293 38.9648 12.5977 38.9648 9.90234 38.9648C9.90234 38.2617 9.90234 37.5586 9.90234 36.8555Z" fill="url(#paint5_linear_4208_92933)"/>
<path opacity="0.956" fill-rule="evenodd" clip-rule="evenodd" d="M7.67528 40.8407C12.0168 40.785 16.3528 40.8436 20.6831 41.0164C21.2991 41.2808 21.7093 41.7301 21.9136 42.3641C21.9722 43.5744 21.9916 44.7853 21.9722 45.9969C20.8563 45.7633 19.9384 46.0758 19.2183 46.9344C18.5215 50.7282 16.2753 52.3493 12.48 51.7977C10.2169 50.9665 8.94736 49.3453 8.67138 46.9344C7.95128 46.0758 7.03332 45.7633 5.91747 45.9969C5.89796 44.7463 5.91749 43.4962 5.97606 42.2469C6.32062 41.4907 6.88702 41.0219 7.67528 40.8407ZM13.4175 44.0047C15.4433 43.9604 16.6152 44.9369 16.9331 46.9344C16.5992 49.007 15.3882 49.9641 13.3003 49.8055C11.3522 49.0929 10.6686 47.7452 11.2495 45.7625C11.7176 44.8435 12.4402 44.2576 13.4175 44.0047Z" fill="url(#paint6_linear_4208_92933)"/>
<path opacity="0.903" fill-rule="evenodd" clip-rule="evenodd" d="M3.92566 42.0117C4.062 44.9996 4.08153 48.0074 3.98426 51.0352C2.35221 49.7808 1.66862 48.1207 1.93348 46.0547C1.59473 44.1737 2.25879 42.8261 3.92566 42.0117Z" fill="url(#paint7_linear_4208_92933)"/>
<path opacity="0.905" fill-rule="evenodd" clip-rule="evenodd" d="M23.8472 42.0117C25.6055 42.7733 26.3086 44.121 25.9566 46.0547C26.2214 48.1207 25.5378 49.7808 23.9058 51.0352C23.8472 48.0275 23.8276 45.0198 23.8472 42.0117Z" fill="url(#paint8_linear_4208_92933)"/>
<path opacity="0.874" fill-rule="evenodd" clip-rule="evenodd" d="M13.5354 45.8787C14.6697 45.7824 15.1189 46.2902 14.8831 47.4021C14.5853 47.9376 14.136 48.1134 13.5354 47.9295C12.6106 47.255 12.6106 46.5714 13.5354 45.8787Z" fill="url(#paint9_linear_4208_92933)"/>
<path opacity="0.953" fill-rule="evenodd" clip-rule="evenodd" d="M5.91841 47.8711C6.30903 47.8711 6.69966 47.8711 7.09029 47.8711C7.61001 50.6763 9.21158 52.5708 11.895 53.5547C15.2938 54.3643 17.9695 53.3292 19.9223 50.4492C20.383 49.6455 20.676 48.7862 20.8012 47.8711C21.1918 47.8711 21.5825 47.8711 21.9731 47.8711C22.4436 51.128 21.5061 53.8819 19.1606 56.1328C16.5374 58.1007 13.6857 58.4914 10.6059 57.3047C6.88473 55.2724 5.32223 52.1279 5.91841 47.8711Z" fill="url(#paint10_linear_4208_92933)"/>
<defs>
<linearGradient id="paint0_linear_4208_92933" x1="17.8633" y1="3.39239" x2="58.0877" y2="5.43154" gradientUnits="userSpaceOnUse">
<stop stop-color="#5B03B2"/>
<stop offset="1" stop-color="#9D50BB"/>
</linearGradient>
<linearGradient id="paint1_linear_4208_92933" x1="17.8633" y1="17.1421" x2="58.1868" y2="17.5562" gradientUnits="userSpaceOnUse">
<stop stop-color="#5B03B2"/>
<stop offset="1" stop-color="#9D50BB"/>
</linearGradient>
<linearGradient id="paint2_linear_4208_92933" x1="23.8789" y1="16.4284" x2="47.1679" y2="17.0979" gradientUnits="userSpaceOnUse">
<stop stop-color="#5B03B2"/>
<stop offset="1" stop-color="#9D50BB"/>
</linearGradient>
<linearGradient id="paint3_linear_4208_92933" x1="4.85742" y1="25.008" x2="23.094" y2="25.2022" gradientUnits="userSpaceOnUse">
<stop stop-color="#5B03B2"/>
<stop offset="1" stop-color="#9D50BB"/>
</linearGradient>
<linearGradient id="paint4_linear_4208_92933" x1="29.9062" y1="29.3472" x2="53.0886" y2="29.9983" gradientUnits="userSpaceOnUse">
<stop stop-color="#5B03B2"/>
<stop offset="1" stop-color="#9D50BB"/>
</linearGradient>
<linearGradient id="paint5_linear_4208_92933" x1="9.90234" y1="37.3625" x2="18.0286" y2="37.6028" gradientUnits="userSpaceOnUse">
<stop stop-color="#5B03B2"/>
<stop offset="1" stop-color="#9D50BB"/>
</linearGradient>
<linearGradient id="paint6_linear_4208_92933" x1="5.91016" y1="43.4844" x2="22.0716" y2="43.6651" gradientUnits="userSpaceOnUse">
<stop stop-color="#5B03B2"/>
<stop offset="1" stop-color="#9D50BB"/>
</linearGradient>
<linearGradient id="paint7_linear_4208_92933" x1="1.84766" y1="44.1808" x2="4.05788" y2="44.185" gradientUnits="userSpaceOnUse">
<stop stop-color="#5B03B2"/>
<stop offset="1" stop-color="#9D50BB"/>
</linearGradient>
<linearGradient id="paint8_linear_4208_92933" x1="23.8398" y1="44.1808" x2="26.0576" y2="44.185" gradientUnits="userSpaceOnUse">
<stop stop-color="#5B03B2"/>
<stop offset="1" stop-color="#9D50BB"/>
</linearGradient>
<linearGradient id="paint9_linear_4208_92933" x1="12.8418" y1="46.3799" x2="14.9562" y2="46.396" gradientUnits="userSpaceOnUse">
<stop stop-color="#5B03B2"/>
<stop offset="1" stop-color="#9D50BB"/>
</linearGradient>
<linearGradient id="paint10_linear_4208_92933" x1="5.79492" y1="50.2998" x2="22.184" y2="50.5037" gradientUnits="userSpaceOnUse">
<stop stop-color="#5B03B2"/>
<stop offset="1" stop-color="#9D50BB"/>
</linearGradient>
</defs>
</svg>
