<svg width="60" height="60" viewBox="0 0 60 60" fill="none" xmlns="http://www.w3.org/2000/svg">
<g clip-path="url(#clip0_4208_92902)">
<path opacity="0.932" fill-rule="evenodd" clip-rule="evenodd" d="M59.9405 14.5898C59.9405 14.9414 59.9405 15.293 59.9405 15.6445C59.6844 15.9096 59.3719 16.0854 59.003 16.1719C57.3957 16.5639 55.7941 16.974 54.1983 17.4023C53.7664 19.1507 53.3563 20.9085 52.9678 22.6758C52.5186 23.5937 51.835 24.2774 50.917 24.7266C46.2402 26.8553 41.5917 26.7771 36.9717 24.4922C35.6089 23.7547 34.3785 22.8368 33.2803 21.7383C32.391 20.7993 31.8636 19.686 31.6983 18.3984C32.038 16.6616 32.331 14.9234 32.5772 13.1836C31.1618 12.1341 29.736 11.0989 28.2998 10.0781C27.7568 9.35604 27.874 8.7701 28.6514 8.32032C34.042 6.95312 39.4327 5.58594 44.8233 4.21875C45.1358 4.14062 45.4482 4.14062 45.7608 4.21875C50.5324 7.61959 55.2589 11.0766 59.9405 14.5898ZM44.7061 6.26953C45.1882 6.29874 45.6178 6.47452 45.9952 6.79688C49.5498 9.41406 53.1046 12.0313 56.6592 14.6484C52.2061 15.7813 47.753 16.914 43.2998 18.0469C43.0103 18.1296 42.7368 18.0906 42.4795 17.9297C38.7894 15.1668 35.0785 12.4323 31.3467 9.72657C35.8135 8.57092 40.2667 7.41858 44.7061 6.26953ZM34.5108 14.5898C37.0464 16.4442 39.5855 18.2997 42.128 20.1563C42.4405 20.2344 42.7529 20.2344 43.0655 20.1563C45.9925 19.4147 48.9221 18.6921 51.8545 17.9883C51.6835 19.3315 51.4296 20.6597 51.0928 21.9727C49.691 23.2613 48.0308 23.9838 46.1123 24.1406C41.5352 24.6533 37.6485 23.2666 34.4522 19.9805C34.1365 19.5054 33.8825 18.9975 33.6905 18.457C33.9769 17.167 34.2504 15.878 34.5108 14.5898Z" fill="url(#paint0_linear_4208_92902)"/>
<path opacity="0.941" fill-rule="evenodd" clip-rule="evenodd" d="M-0.0585938 52.3242C-0.0585938 51.7383 -0.0585938 51.1524 -0.0585938 50.5664C0.0874023 50.2851 0.321777 50.1093 0.644531 50.0391C2.28469 49.9805 3.92531 49.9609 5.56641 49.9805C5.43164 40.2947 5.41211 30.6072 5.50781 20.918C5.59902 19.3814 6.39981 18.4635 7.91016 18.1641C14.9804 18.0859 22.0508 18.0859 29.1211 18.1641C29.8786 18.3699 30.1324 18.8582 29.8828 19.6289C29.7852 19.8047 29.6484 19.9415 29.4727 20.0391C22.3632 20.0781 15.2539 20.1173 8.14453 20.1563C7.76095 20.2664 7.54611 20.5204 7.5 20.918C7.42187 30.3712 7.42187 39.8242 7.5 49.2774C7.54053 49.5525 7.67725 49.7673 7.91016 49.9219C21.9727 50.0001 36.0352 50.0001 50.0977 49.9219C50.1953 49.8243 50.293 49.7266 50.3906 49.6289C50.4296 42.2461 50.4688 34.8633 50.5078 27.4805C50.8055 26.5738 51.372 26.359 52.207 26.836C52.2804 26.9239 52.339 27.0216 52.3828 27.1289C52.4414 34.746 52.461 42.3632 52.4414 49.9805C54.0825 49.9609 55.7231 49.9805 57.3633 50.0391C57.6629 50.1194 57.8779 50.2951 58.0078 50.5664C58.2469 52.3102 57.7195 53.775 56.4258 54.961C55.9897 55.2571 55.521 55.4915 55.0195 55.6641C37.6758 55.7423 20.332 55.7423 2.98828 55.6641C1.39485 55.0729 0.379227 53.9596 -0.0585938 52.3242ZM24.3164 28.8867C28.568 31.0908 32.8257 33.2978 37.0898 35.5078C32.8794 37.7987 28.6411 40.0448 24.375 42.2461C24.3164 37.7931 24.2968 33.34 24.3164 28.8867ZM2.05078 51.9727C20.0195 51.9727 37.9883 51.9727 55.957 51.9727C55.7716 52.7644 55.3029 53.3308 54.5508 53.6719C37.5196 53.7501 20.4882 53.7501 3.45703 53.6719C2.70491 53.3308 2.23616 52.7644 2.05078 51.9727Z" fill="url(#paint1_linear_4208_92902)"/>
<path opacity="0.934" fill-rule="evenodd" clip-rule="evenodd" d="M23.0274 26.1914C23.863 26.3153 24.6442 26.6082 25.3711 27.0703C30.1368 29.5703 34.9023 32.0704 39.668 34.5703C40.2733 35.0064 40.41 35.5727 40.0782 36.2695C34.5991 39.1555 29.1108 42.0266 23.6133 44.8828C23.0413 44.9786 22.6312 44.7636 22.3828 44.2383C22.3047 38.4571 22.3047 32.6757 22.3828 26.8945C22.5025 26.5605 22.7173 26.3262 23.0274 26.1914ZM24.3164 28.8867C24.2969 33.34 24.3164 37.7931 24.375 42.2461C28.6411 40.0447 32.8794 37.7987 37.0899 35.5078C32.8258 33.2978 28.568 31.0908 24.3164 28.8867Z" fill="url(#paint2_linear_4208_92902)"/>
</g>
<defs>
<linearGradient id="paint0_linear_4208_92902" x1="27.9648" y1="9.4742" x2="60.1238" y2="9.83304" gradientUnits="userSpaceOnUse">
<stop stop-color="#5B03B2"/>
<stop offset="1" stop-color="#9D50BB"/>
</linearGradient>
<linearGradient id="paint1_linear_4208_92902" x1="-0.0585938" y1="27.1481" x2="58.396" y2="27.8448" gradientUnits="userSpaceOnUse">
<stop stop-color="#5B03B2"/>
<stop offset="1" stop-color="#9D50BB"/>
</linearGradient>
<linearGradient id="paint2_linear_4208_92902" x1="22.3242" y1="30.6899" x2="40.3585" y2="30.8232" gradientUnits="userSpaceOnUse">
<stop stop-color="#5B03B2"/>
<stop offset="1" stop-color="#9D50BB"/>
</linearGradient>
<clipPath id="clip0_4208_92902">
<rect width="60" height="60" fill="white"/>
</clipPath>
</defs>
</svg>
