<svg width="1440" height="1024" viewBox="0 0 1440 1024" fill="none" xmlns="http://www.w3.org/2000/svg">
<g opacity="0.2" clip-path="url(#clip0_3142_30603)">
<path d="M-0.1485 -0.00854492L-0.148438 1441L1439.93 1441L1439.93 -0.00860787L-0.1485 -0.00854492Z" fill="white"/>
<mask id="mask0_3142_30603" style="mask-type:luminance" maskUnits="userSpaceOnUse" x="0" y="0" width="1440" height="1441">
<path d="M-6.29851e-05 0.0692139L0 1441L1439.93 1441L1439.93 0.0691509L-6.29851e-05 0.0692139Z" fill="white"/>
</mask>
<g mask="url(#mask0_3142_30603)">
<path d="M505.569 308.254C534.504 271.235 563.048 233.887 591.258 196.308C568.704 177.293 546.154 158.275 523.601 139.259C508.27 126.331 492.911 113.419 477.512 100.551C444.746 133.216 414.429 168.134 384.871 203.755C424.46 239.291 465.197 273.586 505.569 308.254Z" fill="#DCDCDC"/>
<path d="M303.549 125.062C303.341 125.526 302.99 125.912 302.759 126.364C314.029 137.123 325.301 147.881 336.573 158.64C350.13 171.58 363.977 184.203 377.922 196.723C407.479 161.101 437.797 126.183 470.563 93.5182C436.662 65.1882 402.459 37.2098 367.473 10.3034C340.85 43.994 312.465 76.2838 282.078 106.617C288.973 113.199 295.868 119.779 302.762 126.362C302.99 125.912 303.341 125.529 303.549 125.062Z" fill="#DCDCDC"/>
<path d="M186.484 222.891C191.077 224.597 195.59 226.546 199.988 228.843C201.941 229.863 203.692 231.189 205.578 232.312C236.391 204.276 264.215 172.952 288.153 138.849C289.654 136.711 291.016 134.474 292.206 132.154C285.311 125.572 278.416 118.992 271.521 112.41C270.98 112.949 270.479 113.528 269.935 114.067C270.476 113.528 270.98 112.949 271.521 112.41C267.567 108.634 263.613 104.859 259.659 101.086C250.137 91.9995 240.576 82.8779 229.836 75.2752C216.534 65.8568 201.886 59.3349 186.564 54.5104C186.363 110.637 186.366 166.764 186.484 222.891Z" fill="#DCDCDC"/>
<path d="M509.645 311.866C518.164 319.184 526.72 326.461 535.179 333.839C571.308 365.345 607.593 396.969 647.83 423.022C675.144 440.706 703.486 455.425 734.339 465.5C741.669 456.309 752.584 443.764 760.438 434.939C777.997 415.212 794.232 395.588 804.237 375.138C735.73 317.371 663.834 257.685 595.33 199.921C567.124 237.502 538.577 274.847 509.645 311.866Z" fill="#9D50BB" fill-opacity="0.13"/>
<path d="M603.059 189.307C671.562 247.071 742.318 305.829 810.825 363.596C839.276 302.128 845.411 290.416 855.456 261.25C867.414 226.531 871.161 217.625 883.47 146.359L635.289 146.359C624.667 160.784 613.804 174.995 603.059 189.307Z" fill="#9D50BB" fill-opacity="0.13"/>
<path d="M819.952 847.672C819.952 847.672 888.395 751.341 894.42 740.608C852.821 717.284 815.335 695.419 775.741 669.351C753.369 703.811 729.209 738.778 708.023 774.002C712.519 776.365 785.271 824.042 819.952 847.672Z" fill="#DCDCDC"/>
<path d="M121.709 213.651C121.74 212.368 121.74 212.368 121.709 213.651C138.064 214.729 154.126 217.288 169.223 222.891C169.105 166.764 169.102 110.637 169.304 54.5098C133.98 43.3853 94.6713 42.3161 57.1017 42.9299C56.7849 42.9357 56.4652 42.9501 56.1484 42.9559C59.4259 99.8898 61.8854 156.867 63.3484 213.876C65.8396 213.784 68.3308 213.691 70.822 213.599C87.6412 212.979 104.826 212.538 121.709 213.651Z" fill="#DCDCDC"/>
<path d="M501.883 319.547C485.611 340.364 462.156 370.334 445.694 391.049C436.386 402.762 434.275 405.457 424.281 416.829C455.547 440.675 485.473 467.235 516.634 491.213C538.767 508.246 564.045 528.535 588.479 542.058C612.106 555.13 633.142 561.874 657.383 573.748C679.515 541.4 702.377 508.289 726.811 473.999C695.955 463.924 654.436 442.231 627.125 424.547C586.889 398.491 510.402 326.864 501.883 319.547Z" fill="#DCDCDC"/>
<path d="M586.672 705.995C625.301 726.284 660.59 744.818 699.219 765.107C720.408 729.881 742.094 694.994 764.469 660.537C743.954 647.032 724.12 632.613 705.55 616.5C690.98 603.857 676.519 595.412 659.208 586.931C636.314 623.232 588.541 703.081 586.672 705.995Z" fill="#DCDCDC"/>
<path d="M511.442 500.756C480.28 476.778 449.185 452.704 417.92 428.859C390.499 460.056 361.236 490.36 333.91 521.754C335.468 523.495 337.095 525.172 338.535 527.022C350.853 542.859 359.289 563.71 377.767 571.509C384.224 574.235 390.37 577.492 396.386 580.979C430.572 600.781 458.672 631.054 492.016 652.853C511.14 665.356 531.4 675.996 551.624 686.619C561.096 691.593 569.428 695.971 578.9 700.945C580.769 698.032 627.892 618.027 650.782 581.723C626.544 569.849 603.876 561.488 580.251 548.416C555.817 534.89 533.575 517.788 511.442 500.756Z" fill="#DCDCDC"/>
<path d="M68.4939 744.781C58.5694 733.406 48.7198 721.964 38.5592 710.799C34.8036 706.672 30.8926 702.459 25.8295 700.119C16.1124 695.629 4.29867 699.199 -4.17429 705.741C-12.6472 712.284 -18.6866 721.388 -25.42 729.711C-27.0472 731.723 -28.8559 733.579 -30.5781 735.51C-14.6978 754.493 1.09323 773.541 17.3278 792.219C35.0715 777.157 52.1902 761.396 68.4939 744.781Z" fill="#DCDCDC"/>
<path d="M126.083 813.579C107.918 790.976 89.1869 768.845 70.1241 746.994C53.8205 763.605 36.7017 779.37 18.9609 794.434C36.719 814.868 54.8659 834.958 73.0416 855.02C74.7033 853.728 76.2816 852.336 77.9549 851.06C94.1203 838.719 110.778 826.972 126.083 813.579Z" fill="#DCDCDC"/>
<path d="M699.675 785.893C678.156 821.671 657.19 857.825 636.652 894.314C665.982 914.73 695.629 934.593 726.356 952.473C737.363 958.88 740.975 961.234 751.824 967.9C772.896 930.604 793.964 892.697 815.091 855.237C780.413 831.608 750.193 812.425 713.165 792.977C708.67 790.614 704.171 788.254 699.675 785.893Z" fill="#DCDCDC"/>
<path d="M128.689 816.496C113.385 829.886 96.73 841.636 80.5617 853.977C78.8884 855.254 77.3102 856.646 75.6484 857.937C83.0702 866.13 90.2385 874.546 97.7323 882.676C118.35 905.049 139.648 927.523 166.063 942.61C186.603 954.34 205.591 963.144 226.189 974.77C229.593 976.692 232.902 978.658 236.292 980.586C259.79 942.172 283.285 903.755 306.783 865.341C306.106 864.681 305.357 864.104 304.695 863.43C287.308 845.705 275.088 823.673 260.179 803.818C256.443 798.844 252.452 793.956 248.183 789.328C235.416 775.477 190.578 752.185 183.85 749.945C169.778 772.923 150.131 797.605 129.959 815.468C129.553 815.831 129.101 816.139 128.689 816.496Z" fill="#DCDCDC"/>
<path d="M238.457 982.442C276.724 1004.2 311.816 1028.27 349.014 1050.86C360.486 1032.27 371.942 1013.63 383.531 995.125C351.195 974.061 307.776 945.166 274.532 923.464C262.01 943.938 250.982 961.965 238.457 982.442Z" fill="#DCDCDC"/>
<path d="M276.164 920.932C309.411 942.633 352.738 971.471 385.074 992.535C395.94 975.191 407.265 958.167 418.522 941.077C398.29 928.39 378.853 916.2 358.621 903.513C341.223 892.602 323.739 881.466 309.082 867.113C298.11 885.051 287.14 902.991 276.164 920.932Z" fill="#DCDCDC"/>
<path d="M346.55 1053.43C309.355 1030.83 275.224 1006.64 236.958 984.889C213.16 1023.79 188.963 1066.14 165.168 1105.05C200.966 1118.67 233.784 1136.25 261.628 1162.21C265.608 1165.92 268.41 1168 272.54 1171.51C280.757 1158.49 289.8 1145.37 298.166 1132.45C315.04 1106.39 330.264 1079.83 346.55 1053.43Z" fill="#DCDCDC"/>
<path d="M159.279 621.417C125.698 606.857 90.9567 594.701 59.4409 576.135C51.6246 571.529 43.9695 566.581 36.1215 562.03C29.9122 575.435 22.2313 588.225 13.5481 600.044C6.72535 609.333 -1.50281 619.114 -9.58985 627.296C28.5961 648 64.5932 672.788 101.676 695.389C102.338 694.628 103.076 693.931 103.735 693.167C103.076 693.934 102.338 694.628 101.676 695.389C120.782 707.035 140.323 717.704 160.88 726.166C160.264 691.253 159.774 656.335 159.279 621.417Z" fill="#9D50BB" fill-opacity="0.13"/>
<path d="M129.751 809.687C149.922 791.824 167.297 770.866 181.372 747.888C175.177 745.825 169.086 743.539 163.081 741.067C142.527 732.605 122.986 721.936 103.877 710.29C93.7854 721.901 83.2936 733.155 72.5195 744.133C91.5823 765.984 110.314 788.115 128.478 810.719C128.89 810.361 129.342 810.05 129.751 809.687Z" fill="#DCDCDC"/>
<path d="M159.955 417.588C153.147 413.937 146.171 410.614 138.882 407.957C128.693 404.245 118.143 401.847 107.458 400.02C94.4697 397.798 81.2735 396.466 68.1436 395.282C63.7084 394.881 59.2617 394.495 54.8121 394.114C54.7199 424.174 54.7055 454.233 54.1065 484.284C53.8876 495.359 52.0962 506.279 49.2969 516.977C86.1868 523.139 123.497 526.741 160.882 527.799C160.459 491.065 160.243 454.325 159.955 417.588Z" fill="#9D50BB" fill-opacity="0.13"/>
<path d="M160.88 610.623C160.514 584.783 160.059 558.949 159.76 533.109C122.375 532.051 85.0641 528.446 48.1742 522.287C45.5822 532.187 42.0599 541.867 37.7227 551.237C45.5707 555.787 53.2257 560.736 61.042 565.341C92.5579 583.907 127.299 596.063 160.88 610.623Z" fill="#9D50BB" fill-opacity="0.13"/>
<path d="M107.663 391.82C109.046 338.189 110.425 284.558 111.805 230.927C94.9249 229.814 77.7371 230.255 60.915 230.875C58.4238 230.967 55.9326 231.059 53.4414 231.152C54.7633 282.731 55.1723 334.319 55.011 385.915C59.4606 386.295 63.9073 386.682 68.3425 387.082C81.4782 388.267 94.6744 389.598 107.663 391.82Z" fill="#DCDCDC"/>
<path d="M-34.2383 836.299C-16.7855 858.032 1.04171 879.457 19.2779 900.539C35.8292 885.743 52.7348 871.376 70.2654 857.759C52.0897 837.697 33.9428 817.607 16.1847 797.173C-0.0469285 810.955 -16.9208 823.918 -34.2383 836.299Z" fill="#DCDCDC"/>
<path d="M310.185 693.059C332.286 658.414 355.787 624.675 380.883 592.134C374.867 588.65 368.721 585.39 362.264 582.664C343.786 574.865 335.35 554.014 323.032 538.177C321.592 536.327 319.965 534.649 318.407 532.909C287.712 568.179 259.621 604.907 239.383 645.851C263.491 660.717 286.606 677.332 310.185 693.059Z" fill="#9D50BB" fill-opacity="0.13"/>
<path d="M290.292 323.756C262.924 356.936 234.936 389.555 205.07 420.456C218.146 428.638 230.639 437.915 242.928 447.252C249.022 451.884 255.119 456.512 261.213 461.144C274.127 470.954 287.044 480.767 299.958 490.577C310.971 498.944 321.975 507.535 331.177 517.801C358.499 486.407 387.766 456.103 415.186 424.905C403.692 416.138 392.259 407.293 380.675 398.653C349.298 375.251 319.13 350.233 290.292 323.756Z" fill="#DCDCDC"/>
<path d="M386.398 386.414C397.984 395.054 409.417 403.899 420.909 412.666C430.902 401.294 440.66 389.809 449.968 378.096C466.43 357.381 482.546 336.469 498.818 315.649C458.447 280.982 417.709 246.689 378.121 211.154C350.533 244.403 323.513 278.175 296.012 311.516C324.849 337.99 355.02 363.012 386.398 386.414Z" fill="#DCDCDC"/>
<path d="M285.259 320.151C275.262 310.972 265.413 301.631 255.744 292.103C240.086 276.67 224.378 260.799 205.575 249.585C203.786 251.213 203.786 251.213 205.575 249.585C203.691 248.461 201.94 247.135 199.985 246.115C195.587 243.821 191.074 241.87 186.48 240.164C186.599 296.573 186.878 352.977 187.319 409.383C191.644 411.703 195.858 414.237 200.034 416.848C229.902 385.95 257.89 353.331 285.259 320.151Z" fill="#DCDCDC"/>
<path d="M385.397 735.718C430.348 755.442 470.245 779.357 511.152 806.713C530.696 776.236 550.338 746.104 569.884 715.627C560.412 710.653 552.924 706.719 543.452 701.745C523.228 691.122 502.967 680.478 483.844 667.979C450.5 646.18 422.399 615.907 388.214 596.105C363.12 628.643 339.617 662.385 317.516 697.03C339.277 711.538 361.473 725.219 385.397 735.718Z" fill="#9D50BB" fill-opacity="0.13"/>
<path d="M290.99 308.254C318.488 274.915 345.511 241.141 373.098 207.891C359.153 195.372 345.306 182.749 331.75 169.808C320.478 159.05 309.208 148.291 297.936 137.533C296.747 139.856 295.384 142.089 293.884 144.228C269.945 178.33 242.119 209.655 211.309 237.691C230.109 248.902 245.817 264.776 261.478 280.209C271.143 289.731 280.993 299.075 290.99 308.254Z" fill="#DCDCDC"/>
<path d="M628.376 888.912C648.913 852.426 669.879 816.268 691.399 780.491C652.769 760.202 616.251 741.339 577.621 721.05C558.078 751.527 538.364 781.883 518.82 812.363C556.401 837.494 591.163 863.009 628.376 888.912Z" fill="#DCDCDC"/>
<path d="M121.708 230.927C120.325 284.558 118.946 338.189 117.566 391.82C128.251 393.647 138.801 396.045 148.99 399.757C156.279 402.414 163.252 405.734 170.063 409.389C169.622 352.982 169.343 296.576 169.225 240.169C154.122 234.564 138.063 232.005 121.708 230.927Z" fill="#DCDCDC"/>
<path d="M486.945 848.703C493.013 839.238 497.497 829.097 503.565 819.635C462.657 792.279 422.392 768.116 377.438 748.392C353.514 737.893 331.318 724.215 309.56 709.704C294.918 732.659 280.762 755.923 267.5 779.702C271.765 784.331 275.76 789.218 279.495 794.193C294.405 814.047 306.625 836.083 324.011 853.804C324.674 854.478 325.425 855.055 326.099 855.715C340.756 870.064 358.243 881.203 375.638 892.114C395.87 904.801 409.256 913.196 429.489 925.883C440.637 911.314 456.33 895.244 467.464 879.604C474.889 869.174 480.032 859.481 486.945 848.703Z" fill="#9D50BB" fill-opacity="0.13"/>
<path d="M540.603 1018.96C502.161 994.855 463.716 970.747 425.276 946.639C414.019 963.729 402.98 980.96 392.113 998.304C429.159 1022.44 466.204 1046.57 503.247 1070.7C515.677 1053.45 528.277 1036.28 540.603 1018.96Z" fill="#DCDCDC"/>
<path d="M391.034 1000.2C379.442 1018.7 367.873 1037.23 356.402 1055.82C389.612 1075.99 422.674 1096.47 456.042 1117.41C459.555 1119.61 463.069 1121.82 466.585 1124.02C477.935 1106.62 489.939 1089.55 502.171 1072.59C465.122 1048.46 428.08 1024.33 391.034 1000.2Z" fill="#DCDCDC"/>
<path d="M569.517 1036.51C561.318 1031.37 553.118 1026.23 544.919 1021.09C532.593 1038.41 519.995 1055.58 507.562 1072.82C545.858 1097.77 584.156 1122.72 622.451 1147.66C632.552 1129.93 644.685 1113.39 658.875 1098.57C662.633 1094.64 666.193 1090.57 669.753 1086.5C647.804 1075.71 626.086 1064.81 605.497 1052.96C593.804 1046.23 580.945 1043.68 569.517 1036.51Z" fill="#DCDCDC"/>
<path d="M606.871 925.225C611.3 917.253 615.813 909.348 620.283 901.408C583.068 875.505 547.681 849.567 510.1 824.436C504.032 833.9 498.278 845.993 492.21 855.458C485.298 866.236 482.708 872.219 475.284 882.652C464.15 898.296 447.322 914.873 436.77 930.885C475.212 954.99 516.727 981.167 555.169 1005.28C573.665 979.277 591.492 952.901 606.871 925.225Z" fill="#DCDCDC"/>
<path d="M231.581 655.511C226.354 666.085 220.602 678.731 216.533 689.925C210.321 707.012 202.288 723.408 192.793 738.91C199.521 741.15 206.338 743.193 213.322 744.873C231.408 749.222 246.626 760.721 259.396 774.572C272.658 750.793 286.813 727.527 301.455 704.574C277.874 688.847 255.686 670.377 231.581 655.511Z" fill="#9D50BB" fill-opacity="0.13"/>
<path d="M188.25 571.424C187.98 571.415 187.708 571.409 188.25 571.424V571.424Z" fill="#DCDCDC"/>
<path d="M169.301 613.376C179.441 617.774 195.267 622.973 205.073 628.057C214.551 632.974 225.046 637.118 234.135 642.727C254.373 601.782 285.123 565.054 315.818 529.784C306.616 519.518 295.612 510.927 284.599 502.56C271.685 492.75 259.402 482.499 245.097 474.556C227.439 508.172 194.982 547.318 170.061 575.962C170.061 575.962 169.301 597.932 169.301 613.376Z" fill="#9D50BB" fill-opacity="0.13"/>
<path d="M170.228 531.443C170.77 531.457 170.499 531.449 170.228 531.443C170.364 543.115 169.764 556.692 169.94 568.361C194.861 539.717 220.501 503 238.159 469.382C232.065 464.751 225.971 460.122 219.874 455.491C207.585 446.153 195.091 436.876 182.016 428.694C177.84 426.08 173.624 423.547 169.301 421.229C169.586 457.966 169.805 494.706 170.228 531.443Z" fill="#9D50BB" fill-opacity="0.13"/>
<path d="M188.25 571.42C188.792 571.437 188.52 571.428 188.25 571.42V571.42Z" fill="#DCDCDC"/>
<path d="M229.009 653.514C219.917 647.908 208.633 642.689 199.155 637.772C189.351 632.688 179.441 630.392 169.301 625.994C169.796 660.909 170.286 695.827 170.902 730.743C176.907 733.216 182.998 735.501 189.193 737.564C198.688 722.062 206.721 705.666 212.933 688.579C217.002 677.385 223.782 664.088 229.009 653.514Z" fill="#9D50BB" fill-opacity="0.13"/>
<path d="M628.105 907.807C623.638 915.747 619.122 923.653 614.693 931.624C599.314 959.3 581.487 985.673 562.988 1011.67C571.188 1016.81 579.387 1021.95 587.586 1027.1C599.014 1034.26 611.876 1036.82 623.566 1043.54C644.155 1055.39 658.987 1062.9 680.936 1073.69C705.312 1045.81 724.951 1013.69 743.222 981.356C732.373 974.687 728.816 972.367 717.808 965.96C687.082 948.086 657.435 928.223 628.105 907.807Z" fill="#DCDCDC"/>
<path d="M-35.5827 837.636C-43.2233 843.097 -50.9331 850.302 -58.7695 855.478L-58.7695 977.744C-35.4531 955.267 -6.31033 925.153 17.8298 903.573C-0.40633 882.491 -18.1299 859.372 -35.5827 837.636Z" fill="#DCDCDC"/>
<path d="M-58.2617 981.862L-58.2617 1050.57C-46.3587 1051.91 -32.2611 1054.24 -20.6028 1056.1L69.1121 966.322C49.05 943.278 30.7677 922.064 18.3376 907.691C-5.80252 929.271 -34.9452 959.385 -58.2617 981.862Z" fill="#DCDCDC"/>
<path d="M-16.5195 1056.75C26.0325 1063.52 68.0171 1073.95 109.377 1086.15C127.501 1091.5 145.673 1097.38 163.449 1104.13C168.408 1096.02 171.879 1090.35 176.838 1082.24C149.383 1053.84 103.303 1004.93 71.6257 968.545L-16.5195 1056.75Z" fill="#DCDCDC"/>
<path d="M22.5156 903.813C34.9457 918.185 53.2279 939.4 73.29 962.444C104.967 998.832 151.724 1049.35 179.176 1077.75C198.011 1046.96 215.309 1014.48 234.144 983.682C230.754 981.753 227.445 979.788 224.041 977.866C203.443 966.24 184.452 957.435 163.915 945.705C137.5 930.618 116.202 908.144 95.5841 885.771C88.0932 877.641 80.922 869.226 73.5003 861.032C55.9726 874.65 39.0641 889.019 22.5156 903.813Z" fill="#DCDCDC"/>
<path d="M-58.7695 761.822L-58.7695 805.709C-52.4681 813.775 -42.0972 826.338 -35.6863 834.318C-18.3689 821.937 -1.49496 808.974 14.7338 795.192C-1.50072 776.514 -17.2918 757.464 -33.1721 738.483C-40.8732 747.129 -49.4297 754.98 -58.7695 761.822Z" fill="#DCDCDC"/>
<path d="M9.11476 599.293C17.798 587.474 25.4789 574.683 31.6882 561.279C25.4991 557.691 19.2005 554.328 12.5362 551.728C-0.400764 546.676 -14.1499 544.644 -28.0603 544.022C-38.2901 543.563 -48.6005 543.785 -58.7813 544.552L-58.7813 604.414C-43.1428 610.201 -28.1553 617.328 -13.5537 625.242C-5.46956 617.06 2.29204 608.581 9.11476 599.293Z" fill="#9D50BB" fill-opacity="0.13"/>
<path d="M-25.5903 725.832C-18.8568 717.508 -12.8175 708.407 -4.34451 701.862C4.12845 695.32 15.9422 691.749 25.6593 696.239C30.7224 698.579 34.6334 702.793 38.3889 706.92C48.5496 718.085 60.2021 731.256 70.1266 742.631C80.9006 731.653 91.6142 720.099 101.706 708.488C64.6257 685.89 27.0648 658.367 -11.1212 637.663C-25.2101 651.917 -43.0604 666.215 -58.7679 678.714L-58.7852 699.239C-50.0588 709.494 -39.2789 721.434 -30.7484 731.63C-29.0261 729.696 -27.2175 727.843 -25.5903 725.832Z" fill="#DCDCDC"/>
<path d="M47.6549 385.914C47.8162 334.32 47.4072 282.729 46.0853 231.15C11.1308 232.441 -23.8267 233.732 -58.7813 235.021L-58.7812 386.412C-23.8296 380.815 12.11 382.864 47.6549 385.914Z" fill="#DCDCDC"/>
<path d="M-22.5508 529.757C-8.64038 530.38 -0.386302 531.881 12.5507 536.933C19.215 539.536 25.5135 542.899 31.7027 546.484C36.0399 537.118 39.5622 527.434 42.1542 517.535C44.9535 506.837 46.7449 495.917 46.9638 484.841C47.5628 454.791 47.5743 424.731 47.6694 394.672C23.1721 392.571 4.83801 390.917 -19.5844 391.943C-18.4669 435.997 -19.4663 486.357 -22.5508 529.757Z" fill="#9D50BB" fill-opacity="0.13"/>
<path d="M1284.8 950.189C1155.81 932.188 1000.69 796.21 965.048 781.137C964.919 803.749 964.749 872.323 965.097 894.947C965.575 925.903 966.05 949.175 966.529 980.13C995.452 998.497 1024.71 1015.9 1058.23 1021.67C1202.66 1046.54 1350.63 1030.87 1496.98 1020.24L1496.98 945.385C1468.93 957.348 1353.49 959.775 1284.8 950.189Z" fill="#DCDCDC"/>
<path d="M1060.31 1025.25C1026.79 1019.48 995.458 1000.94 966.531 982.572C967.243 1028.78 967.856 1073.75 968.567 1119.96C995.547 1128.17 1025.24 1126.14 1053.56 1124.6C1200.85 1116.57 1349.34 1116.17 1496.98 1123.34L1496.98 1025.63C1350.63 1036.27 1204.74 1050.11 1060.31 1025.25Z" fill="#DCDCDC"/>
<path d="M1357.44 502.286L1357.44 496.513C1325.77 495.239 1294.14 495.314 1262.58 498.689C1213.44 503.943 1164.29 509.012 1115.11 513.903C1075.64 517.828 1036.03 521.506 996.375 521.042L996.375 679.35C997.74 712.375 997.573 745.403 997.386 778.436C1044.68 808.175 1091.71 838.399 1138.89 868.285C1156.7 879.574 1174.62 890.918 1194.03 899.172C1210.32 906.1 1232.67 913.409 1249.92 917.403C1281.8 924.793 1322.92 932.692 1355.65 932.511C1402.04 932.251 1434.52 932.147 1495.54 911.195L1496.98 506.372C1439.64 503.467 1414.66 498.819 1357.44 496.516L1357.44 502.286Z" fill="#DCDCDC"/>
<path d="M1374.71 -117.845L1374.71 487.473C1431.92 489.776 1439.64 492.845 1496.98 495.75L1496.98 -117.845L1374.71 -117.845Z" fill="#DCDCDC"/>
<path d="M1058.77 313.224L1058.77 148.965L1009.32 148.965L1001.95 363.596L1058.77 363.596L1058.77 313.224Z" fill="#9D50BB" fill-opacity="0.13"/>
<path d="M1216.29 160.248L1246.6 160.248L1246.6 366.184L1111.28 366.184L1001.95 366.184L996.375 508.777C1036.03 509.244 1081.21 505.523 1120.69 501.598C1169.86 496.707 1219.02 491.638 1268.15 486.384C1299.71 483.009 1331.34 482.934 1363.02 484.208L1363.02 -122.704L1216.29 -122.704L1216.29 71.0817L1216.29 160.248Z" fill="#9D50BB" fill-opacity="0.13"/>
<path d="M1098.69 72.9866L1187.93 72.9866L1203.7 72.9866L1203.7 -91.7975L1098.69 -91.7975L1098.69 72.9866Z" fill="#9D50BB" fill-opacity="0.13"/>
<path d="M38.8814 42.9557C6.30572 43.5033 -26.2584 44.7512 -58.7852 46.6331L-58.7852 217.746C-23.8306 216.455 11.1268 215.167 46.0814 213.876C44.6184 156.867 42.1588 99.8896 38.8814 42.9557Z" fill="#DCDCDC"/>
<path d="M924.547 1099.74C936.015 1106.55 947.593 1113.33 960.106 1117.94C962.223 1118.72 964.386 1119.3 966.532 1119.96C965.82 1073.75 965.109 1027.54 964.398 981.338C958.041 977.303 951.726 973.216 945.476 969.115C934.673 962.031 927.603 957.515 916.927 950.189C897.838 985.344 873.395 1021.44 846.836 1051.13C873.937 1068.66 896.801 1083.28 924.547 1099.74Z" fill="#DCDCDC"/>
<path d="M745.348 986.624C778.036 1006.71 810.295 1027.51 842.53 1048.35C869.09 1018.66 894.2 982.595 913.289 947.44C877.554 922.917 844.451 898.838 808.601 874.408C787.473 911.868 766.418 949.328 745.348 986.624Z" fill="#DCDCDC"/>
<path d="M901.083 743.983C895.058 754.715 824.311 847.112 809.727 872.97C856.288 904.695 899.608 936.852 946.564 967.652C952.814 971.75 957.787 974.984 964.144 979.021C963.668 948.066 961.719 802.09 961.848 779.478C949.726 771.852 918.562 753.785 901.083 743.983Z" fill="#DCDCDC"/>
<path d="M893.61 146.363C889.918 189.313 851.317 365.28 766.709 443.682C758.043 451.711 750.595 460.602 743.266 469.793C757.864 474.559 770.435 477.577 785.662 479.828C851.749 489.603 923.292 507.23 990.079 508.777L1001.95 147.985L893.61 146.363Z" fill="#9D50BB" fill-opacity="0.13"/>
<path d="M1203.7 135.795L1203.7 75.0452L1187.93 75.0452L1098.69 75.0452L1098.69 135.795L1203.7 135.795Z" fill="#DCDCDC"/>
<path d="M1065.06 313.224L1065.06 363.596L1232.2 363.596L1231.66 177.482L1202.59 177.165L1202.71 148.964L1065.06 148.964L1065.06 313.224Z" fill="#DCDCDC"/>
<path d="M923.372 1102.76C895.626 1086.31 868.459 1068.9 841.355 1051.38C809.119 1030.54 776.861 1009.74 744.172 989.646C725.902 1021.99 705.923 1053.04 681.547 1080.92C757.711 1118.37 836.793 1154.36 882.418 1223.06C886.341 1228.96 890.266 1234.87 894.189 1240.78C894.543 1240.28 894.9 1239.79 895.254 1239.29C894.9 1239.79 894.543 1240.29 894.189 1240.78C910.305 1265.04 926.422 1289.31 942.538 1313.57C947.872 1321.6 953.209 1329.64 958.542 1337.67C968.029 1319.86 968.061 1298.63 967.75 1278.41C966.952 1226.6 966.154 1174.79 965.354 1122.98C963.208 1122.32 961.045 1121.74 958.928 1120.96C946.418 1116.35 934.837 1109.57 923.372 1102.76Z" fill="#DCDCDC"/>
<path d="M958.721 647.027C950.691 652.918 945.398 661.728 940.317 670.296C928.345 690.493 920.143 708.889 908.617 729.42C926.096 739.222 990.3 774.887 990.3 774.887C990.487 741.853 990.216 642.37 990.216 642.37C978.143 640.441 966.252 641.502 958.721 647.027Z" fill="#DCDCDC"/>
<path d="M902.909 725.352C914.434 704.82 924.416 683.225 936.389 663.028C941.469 654.46 946.762 645.65 954.792 639.759C962.323 634.234 978.005 633.681 990.08 635.609L990.08 521.055C988.036 521.032 985.994 521.13 983.946 521.081C948.853 520.268 913.847 514.997 878.933 508.781C845.075 554.976 810.466 605.723 779.48 653.451C819.075 679.516 861.313 702.025 902.909 725.352Z" fill="#DCDCDC"/>
<path d="M734.728 477.508C720 500.281 685.126 546.367 664.641 576.576C681.955 585.058 698.576 594.566 713.146 607.209C731.713 623.322 751.55 637.741 772.065 651.246C803.053 603.517 837.659 552.771 871.517 506.575C839.984 500.961 808.229 492.828 776.866 488.188C761.639 485.937 749.327 482.277 734.728 477.508Z" fill="#DCDCDC"/>
<path d="M57.099 25.6564C94.6686 25.0397 133.978 26.1118 169.301 37.2363C169.353 22.7427 169.462 8.24913 169.534 -6.24733C169.281 -6.07441 169.065 -5.84964 168.811 -5.6796C169.068 -5.84964 169.281 -6.07441 169.534 -6.24733C169.649 -29.0065 169.134 -69.0375 169.301 -91.7938L49.6484 -91.7938C52.1944 -58.4173 54.2219 -7.73159 56.1428 25.6852C56.4625 25.6766 56.7793 25.6622 57.099 25.6564Z" fill="#DCDCDC"/>
<path d="M186.8 -6.24825C186.728 8.24821 186.618 22.7418 186.566 37.2354C201.888 42.0599 216.533 48.5818 229.838 58.0002C240.578 65.6029 250.14 74.7273 259.661 83.8113C263.615 87.5868 267.569 91.3622 271.524 95.1348C301.913 64.8017 330.296 32.5118 356.918 -1.17881C323.531 -26.8574 289.417 -51.5331 254.114 -74.5199L243.109 -74.5199C231.25 -47.0429 211.591 -23.0013 186.8 -6.24825Z" fill="#DCDCDC"/>
<path d="M32.388 -91.797L-58.7813 -91.797L-58.7812 29.3594C-26.2545 27.4774 6.30963 26.2266 38.8853 25.6819C36.9615 -7.73485 34.934 -58.4206 32.388 -91.797Z" fill="#DCDCDC"/>
<path d="M470.461 66.7407C470.803 66.4006 471.12 66.0375 471.463 65.6974C471.117 66.0375 470.801 66.3977 470.461 66.7407C485.86 79.6088 501.219 92.5202 516.549 105.449C539.103 124.464 561.653 143.483 584.206 162.498C594.952 148.186 605.815 133.975 616.439 119.553C620.054 114.645 623.806 109.861 627.406 104.942C639.911 87.8456 652.477 70.2077 658.461 49.8839C663.254 33.6063 663.579 16.3921 663.867 -0.577085C664.374 -30.3222 664.881 -60.0702 665.385 -89.8153L420.988 -89.8153C404.823 -65.618 385.409 -39.3025 367.371 -16.4742C402.354 10.4293 436.557 38.4106 470.461 66.7407Z" fill="#9D50BB" fill-opacity="0.13"/>
<path d="M932.397 21.6158C922.317 82.1378 904.677 97.9888 894.957 134.734L1001.95 135.795L1001.95 43.9225L1001.95 -91.7938L933.797 -91.7938C940.164 -58.9822 937.921 -11.5473 932.397 21.6158Z" fill="#9D50BB" fill-opacity="0.13"/>
<path d="M1009.32 -19.2308L1009.32 135.795L1091.32 135.795L1091.32 -19.2308L1009.32 -19.2308Z" fill="#9D50BB" fill-opacity="0.13"/>
<path d="M687.94 14.7153C687.652 31.6845 687.326 48.8958 682.534 65.1762C676.549 85.4972 663.984 103.138 651.479 120.234C647.879 125.156 644.126 129.941 640.512 134.846L886.127 134.846C891 96.7284 904.32 99.6104 919.028 36.8202C921.087 28.0301 925.776 8.32306 926.948 -0.677426C884.661 0.0401962 730.313 2.16708 688.141 2.88182C688.072 6.82727 688.006 10.7727 687.94 14.7153Z" fill="#9D50BB" fill-opacity="0.13"/>
<path d="M432.68 928.404C444.203 913.654 462.419 893.691 471.491 880.958C482.463 865.554 510.823 814.773 510.823 814.773L578.857 709.701L660.496 575.575C660.496 575.575 718.093 493.015 731.984 475.181C752.147 449.292 794.195 411.241 815.93 365.97C858.972 276.332 876.059 230.018 889.739 136.353C895.45 97.2442 917.124 93.5956 932.63 -8.77018C938.298 -46.1785 924.952 -116.897 924.952 -116.897" stroke="#B6D9F7" stroke-width="2" stroke-miterlimit="10"/>
<path d="M174.598 1548.71C179.669 1485.69 171.147 1398.67 181.809 1349.98C193.804 1295.2 255.094 1203.7 271.086 1181.1C309.626 1126.65 378.467 1006.28 421.483 943.841" stroke="#B6D9F7" stroke-width="2" stroke-miterlimit="10"/>
<path d="M1508.76 937.059C1476.78 941.007 1444.98 945.048 1412.93 948.469C1404.91 949.307 1396.9 950.114 1388.8 950.694C1380.76 951.319 1372.49 951.757 1364.15 951.553C1347.56 951.187 1331.55 948.878 1315.56 946.486C1299.58 944.042 1283.74 941.036 1267.97 937.699C1252.19 934.333 1236.52 930.551 1220.96 925.983C1213.18 923.756 1205.4 921.208 1197.65 918.087C1190.08 914.882 1182.68 911.464 1175.47 907.789C1161 900.489 1146.95 892.596 1133.06 884.454C1105.36 868.067 1078.15 850.939 1051.9 832.235C1025.88 813.992 998.63 797.155 971.307 780.581C943.935 764.044 916.287 747.928 888.446 732.175C874.576 724.278 860.424 716.719 846.56 708.534C832.698 700.421 818.989 692.086 805.373 683.607C791.759 675.123 778.24 666.485 764.851 657.632C751.468 648.738 738.203 639.784 725.263 630.017C718.823 624.944 712.902 619.589 706.834 614.373C700.768 609.197 694.792 603.868 688.324 599.652C675.076 591.127 660.734 583.91 646.406 576.965C639.197 573.552 631.928 570.261 624.595 567.151L613.493 562.63C609.74 561.079 606.057 559.411 602.408 557.673C587.852 550.672 573.841 542.669 560.383 533.761C546.959 524.74 534.212 515.071 521.364 505.459C508.569 495.799 495.848 486.055 483.176 476.245C470.391 466.575 458.125 456.163 445.736 446.07L408.601 415.593L390.034 400.353L371.075 385.66L333.2 356.036C320.631 346.076 308.092 336.096 295.754 325.749C283.275 315.348 271.867 304.062 260.192 293.111C248.58 282.128 236.924 271.052 225.108 260.553C219.411 255.763 212.637 251.475 205.921 247.526C202.528 245.566 199.084 243.696 195.608 241.987C192.152 240.298 188.566 238.696 185.266 237.713L187.699 229.177C192.065 230.525 195.78 232.286 199.501 234.131C203.194 235.987 206.773 237.972 210.296 240.05C217.323 244.287 224.134 248.616 230.666 254.189C242.701 265.075 254.172 276.176 265.736 287.307C277.322 298.368 288.62 309.734 300.676 319.951C312.792 330.294 325.231 340.376 337.681 350.419C350.143 360.452 362.679 370.406 375.253 380.312L394.155 395.203L412.607 410.596L449.511 441.381C461.875 451.618 473.951 462.042 486.643 471.803C499.223 481.703 511.852 491.536 524.544 501.281C537.265 510.958 549.977 520.76 563.078 529.706C576.332 538.47 590.205 546.384 604.516 553.257C608.099 554.964 611.71 556.598 615.359 558.102L626.505 562.635C633.918 565.777 641.242 569.085 648.508 572.521C663.037 579.42 677.455 586.481 691.238 595.167C698.237 599.658 704.296 604.995 710.451 610.145C716.571 615.316 722.596 620.65 728.788 625.431C741.515 634.832 754.909 643.669 768.299 652.352C781.725 661.018 795.293 669.48 808.953 677.789C822.615 686.092 836.37 694.248 850.237 702.162C864.044 710.113 878.234 717.494 892.285 725.29C920.368 740.778 948.244 756.62 975.883 772.909C1003.5 789.256 1030.97 805.804 1057.62 824.056C1083.75 842.25 1110.99 858.983 1138.59 874.909C1152.42 882.814 1166.4 890.46 1180.6 897.434C1187.69 900.953 1194.87 904.167 1202.08 907.129C1209.24 909.888 1216.68 912.34 1224.3 914.504C1254.75 923.09 1285.98 930.007 1317.33 934.857C1332.99 937.212 1348.83 938.978 1364.28 939.102C1371.96 939.137 1379.69 938.356 1387.58 937.474C1395.42 936.618 1403.31 935.529 1411.18 934.408C1426.95 932.209 1442.67 929.39 1458.38 926.56C1466.24 925.156 1474.08 923.655 1481.91 922.061C1489.73 920.493 1497.58 918.905 1505.34 917.179L1508.76 937.059Z" fill="#B6D9F7"/>
</g>
<path d="M-3.14941e-07 223.356C-3.14941e-07 223.356 87.2986 218.491 116.28 220.834C129.6 221.912 168.84 230.561 168.84 230.561" stroke="#B6D9F7" stroke-width="3" stroke-miterlimit="10"/>
</g>
<defs>
<clipPath id="clip0_3142_30603">
<rect width="1441" height="1440" fill="white" transform="translate(0 1441) rotate(-90)"/>
</clipPath>
</defs>
</svg>
