<svg width="40" height="40" viewBox="0 0 40 40" fill="none" xmlns="http://www.w3.org/2000/svg">
<path d="M19.9118 1.66797C19.386 1.67047 18.8602 1.70297 18.336 1.74964C17.206 1.78297 16.2718 2.66714 16.186 3.7938L15.7985 7.3338C15.1802 7.5388 14.5768 7.78797 13.9952 8.08047L11.2135 5.85714C10.3543 5.12214 9.06768 5.1588 8.24602 5.93547C7.84352 6.27297 7.45102 6.6238 7.07768 6.99547C7.05935 7.01464 7.03768 7.03464 7.01768 7.05547C7.01685 7.0563 7.01685 7.05797 7.01602 7.0588C7.01518 7.05964 7.01352 7.05964 7.01268 7.06047C6.99435 7.08047 6.97268 7.10047 6.95268 7.12047C6.58268 7.49464 6.23602 7.88797 5.89935 8.29214C5.12518 9.11547 5.09018 10.4005 5.82768 11.258L8.06268 14.033C7.77768 14.6038 7.53435 15.1938 7.33352 15.7988L3.79185 16.1863C2.66435 16.273 1.78102 17.2063 1.74768 18.3363C1.70018 18.8605 1.66852 19.3855 1.66602 19.9121C1.66602 19.9405 1.66602 19.9688 1.66602 19.9971V19.9996V20.003C1.66602 20.0313 1.66602 20.0596 1.66602 20.088C1.66852 20.6138 1.70018 21.1396 1.74768 21.6638C1.78102 22.793 2.66518 23.728 3.79185 23.8138L7.33352 24.2013C7.53852 24.8196 7.78768 25.423 8.08018 26.0046L5.85685 28.7863C5.12185 29.6455 5.15852 30.9321 5.93518 31.7538C6.27268 32.1571 6.62352 32.5496 6.99435 32.9221C7.01268 32.9421 7.03185 32.963 7.05268 32.9821C7.05352 32.983 7.05518 32.983 7.05602 32.9838C7.05685 32.9846 7.05685 32.9871 7.05768 32.9871C7.07602 33.0071 7.09768 33.028 7.11768 33.0471C7.49185 33.4163 7.88685 33.763 8.29102 34.1005C9.11435 34.8755 10.3993 34.908 11.2568 34.1705L14.0318 31.9371C14.6027 32.2221 15.1927 32.4663 15.7977 32.6663L16.1852 36.2063C16.271 37.3338 17.2052 38.2171 18.3352 38.2505C18.8593 38.298 19.3843 38.3296 19.911 38.3321C19.9393 38.3321 19.9668 38.3321 19.996 38.3321C19.9968 38.3321 19.9985 38.3321 19.9993 38.3321C20.0002 38.3321 20.0018 38.3321 20.0027 38.3321C20.031 38.3321 20.0585 38.3321 20.0877 38.3321C20.6135 38.3305 21.1393 38.298 21.6635 38.2505C22.7927 38.2171 23.7277 37.333 23.8135 36.2063L24.201 32.6663C24.8193 32.4613 25.4227 32.2121 26.0043 31.9196L28.786 34.143C29.6452 34.878 30.9318 34.8396 31.7535 34.063C32.1568 33.7255 32.5493 33.3763 32.9218 33.0046C32.9402 32.9846 32.9627 32.9655 32.9818 32.9446C32.9827 32.9438 32.9827 32.9413 32.9835 32.9413C32.9844 32.9405 32.9868 32.9405 32.9868 32.9396C33.0052 32.9196 33.0277 32.9005 33.0469 32.8813C33.416 32.5071 33.7627 32.1121 34.1002 31.708C34.8752 30.8846 34.9093 29.5996 34.1718 28.7421L31.9368 25.9671C32.2218 25.3963 32.466 24.8063 32.666 24.2013L36.2077 23.8138C37.3352 23.7271 38.2185 22.793 38.2518 21.6638C38.2993 21.1396 38.331 20.6138 38.3335 20.088C38.3335 20.0596 38.3335 20.0313 38.3335 20.003V19.9996V19.9963C38.3335 19.968 38.3335 19.9396 38.3335 19.9113C38.3318 19.3855 38.2993 18.8596 38.2518 18.3355C38.2185 17.2055 37.3344 16.2713 36.2077 16.1855L32.666 15.798C32.461 15.1796 32.2118 14.5763 31.9193 13.9946L34.1443 11.213C34.8793 10.3538 34.841 9.06714 34.0643 8.24547C33.7268 7.84214 33.376 7.44964 33.0052 7.07714C32.9868 7.05714 32.9677 7.03797 32.9468 7.0188C32.946 7.01797 32.9435 7.01797 32.9435 7.01714C32.9427 7.0163 32.9427 7.01464 32.9418 7.0138C32.9235 6.9938 32.901 6.97297 32.8818 6.9538C32.5077 6.5838 32.111 6.23714 31.7068 5.90047C30.8835 5.1263 29.6002 5.0913 28.7427 5.8288L25.9677 8.0638C25.3968 7.7788 24.8068 7.53547 24.2018 7.33464L23.8143 3.79297C23.7268 2.6663 22.7927 1.78297 21.6627 1.74964C21.1385 1.70214 20.6127 1.67047 20.0868 1.66797C20.0585 1.66797 20.031 1.66797 20.0018 1.66797C20.001 1.66797 19.9993 1.66797 19.9985 1.66797C19.9977 1.66797 19.996 1.66797 19.9952 1.66797C19.9677 1.66797 19.9402 1.66797 19.9118 1.66797ZM19.931 10.833H19.9327C19.9552 10.833 19.9768 10.833 19.9993 10.833C25.0618 10.833 29.166 14.9371 29.166 19.9996C29.166 25.0621 25.0618 29.1663 19.9993 29.1663C14.9368 29.1663 10.8327 25.0621 10.8327 19.9996C10.8327 14.9638 14.8952 10.8705 19.931 10.833ZM19.9993 12.7646C19.006 12.7646 18.0177 13.1721 17.3152 13.8746C16.6127 14.5771 16.2052 15.5655 16.2052 16.5588C16.2052 17.5521 16.6127 18.5388 17.3152 19.2413C18.0177 19.9438 19.006 20.353 19.9993 20.353C20.9918 20.353 21.9793 19.9438 22.6818 19.2413C23.3843 18.5388 23.7935 17.5521 23.7935 16.5588C23.7935 15.5655 23.3843 14.5771 22.6818 13.8746C21.9793 13.1721 20.9918 12.7646 19.9993 12.7646ZM19.3535 21.0838C19.1018 21.0838 18.8993 21.2863 18.8993 21.538V21.6896V22.0363V22.1896C18.8993 22.4413 19.1018 22.6438 19.3535 22.6438H19.401L18.926 25.0246L17.401 21.1021H17.3393C15.736 21.158 14.5468 22.2996 14.1918 23.918L13.9543 24.948C15.4385 26.7613 17.6577 27.813 20.001 27.813C22.3452 27.813 24.566 26.7596 26.0493 24.9455L25.8102 23.9021C25.4752 22.393 24.3968 21.273 22.9293 21.103H22.5993L21.156 24.9763L20.6968 22.6438H20.7443C20.996 22.6438 21.1985 22.4413 21.1985 22.1896V22.0363V21.6896V21.538C21.1985 21.2863 20.996 21.0838 20.7443 21.0838H19.3535Z" fill="#5B03B2"/>
</svg>
