<svg width="20" height="20" viewBox="0 0 20 20" fill="none" xmlns="http://www.w3.org/2000/svg">
<g opacity="0.5" clip-path="url(#clip0_3408_35991)">
<path d="M19.5423 17.334L15.0423 12.834C17.1673 9.66732 16.834 5.37565 14.0423 2.58398C10.8757 -0.582682 5.75065 -0.582682 2.58398 2.58398C-0.582682 5.75065 -0.582682 10.8757 2.58398 14.0423C5.37565 16.834 9.66732 17.1673 12.834 15.0423L17.334 19.5423C17.6673 19.8757 18.1673 19.8757 18.5007 19.5423L19.5423 18.5007C19.8757 18.209 19.8757 17.6673 19.5423 17.334ZM12.4173 12.4173C10.1673 14.6673 6.45898 14.6673 4.20898 12.4173C1.95898 10.1673 1.95898 6.45898 4.20898 4.20898C6.45898 1.95898 10.1673 1.95898 12.4173 4.20898C14.6673 6.45898 14.6673 10.1673 12.4173 12.4173Z" fill="#5B03B2"/>
<path d="M4.5 9.875V11.625C5.04167 12.25 5.75 12.7917 6.54167 13.0833V9.875H4.5ZM7.29167 4.375V13.2917C7.625 13.375 8 13.4167 8.33333 13.4167C8.66667 13.4167 9 13.375 9.29167 13.3333V4.375H7.29167ZM12.125 11.7083V6.625H10.0833V13.0833C10.875 12.7917 11.5833 12.3333 12.125 11.7083Z" fill="#5B03B2"/>
</g>
<defs>
<clipPath id="clip0_3408_35991">
<rect width="20" height="20" fill="white"/>
</clipPath>
</defs>
</svg>
