<svg width="20" height="20" viewBox="0 0 20 20" fill="none" xmlns="http://www.w3.org/2000/svg">
<g opacity="0.5" clip-path="url(#clip0_4317_47936)">
<path d="M18.4375 10H17.8C17.6687 8.41875 16.5687 7.08125 14.9812 6.6125C13.925 6.3 12.775 6.09375 11.5625 6V5.9375C11.5625 5.42188 11.1406 5 10.625 5H10.3125V3.39687C10.8531 3.25937 11.25 2.76875 11.25 2.1875C11.25 1.49687 10.6906 0.9375 10 0.9375C9.30937 0.9375 8.75 1.49687 8.75 2.1875C8.75 2.76875 9.14688 3.25937 9.6875 3.39687V5H9.375C8.85938 5 8.4375 5.42188 8.4375 5.9375V6C7.225 6.09375 6.075 6.3 5.01875 6.6125C3.43125 7.08125 2.33125 8.41875 2.2 10H1.5625C1.04688 10 0.625 10.4219 0.625 10.9375V14.0625C0.625 14.5781 1.04688 15 1.5625 15H2.2C2.33125 16.5813 3.43125 17.9188 5.01875 18.3875C6.51562 18.8281 8.24062 19.0625 10 19.0625C11.7594 19.0625 13.4844 18.8281 14.9812 18.3875C16.5687 17.9188 17.6687 16.5813 17.8 15H18.4375C18.9531 15 19.375 14.5781 19.375 14.0625V10.9375C19.375 10.4219 18.9531 10 18.4375 10ZM9.0625 6.29062V5.9375C9.0625 5.76562 9.20312 5.625 9.375 5.625H10.625C10.7969 5.625 10.9375 5.76562 10.9375 5.9375V8.125C10.9375 8.125 10.9375 8.15625 10.9344 8.17188C10.9094 8.32188 10.7812 8.4375 10.625 8.4375H9.375C9.21875 8.4375 9.09062 8.32188 9.06563 8.17188C9.0625 8.15625 9.0625 8.14062 9.0625 8.125V6.29062ZM11.875 13.125C12.0469 13.125 12.1875 13.2656 12.1875 13.4375C12.1875 14.6438 11.2063 15.625 10 15.625C8.79375 15.625 7.8125 14.6438 7.8125 13.4375C7.8125 13.2656 7.95312 13.125 8.125 13.125H11.875ZM6.875 12.1875C6.35938 12.1875 5.9375 11.7656 5.9375 11.25C5.9375 10.7344 6.35938 10.3125 6.875 10.3125C7.39062 10.3125 7.8125 10.7344 7.8125 11.25C7.8125 11.7656 7.39062 12.1875 6.875 12.1875ZM17.1875 14.6875C17.1875 16.125 16.2313 17.3687 14.8063 17.7875C13.3625 18.2125 11.7031 18.4375 10 18.4375C8.29688 18.4375 6.6375 18.2125 5.19375 17.7875C3.76875 17.3687 2.8125 16.125 2.8125 14.6875V10.3125C2.8125 8.875 3.76875 7.63125 5.19375 7.2125C6.19375 6.91875 7.28438 6.72187 8.4375 6.62812V7.88125C7.59375 7.95625 6.79063 8.09063 6.04688 8.28438C4.67188 8.64375 3.75 9.72188 3.75 10.9719V14.0281C3.75 15.2781 4.67188 16.3563 6.04688 16.7156C7.24062 17.025 8.60625 17.1875 10 17.1875C11.3938 17.1875 12.7594 17.025 13.9531 16.7156C15.3281 16.3563 16.25 15.2781 16.25 14.0281V10.9719C16.25 9.72188 15.3281 8.64375 13.9531 8.28438C13.2094 8.09063 12.4062 7.95625 11.5625 7.88125V6.62812C12.7156 6.72187 13.8063 6.91875 14.8063 7.2125C16.2313 7.63125 17.1875 8.875 17.1875 10.3125V14.6875ZM12.1875 11.25C12.1875 10.7344 12.6094 10.3125 13.125 10.3125C13.6406 10.3125 14.0625 10.7344 14.0625 11.25C14.0625 11.7656 13.6406 12.1875 13.125 12.1875C12.6094 12.1875 12.1875 11.7656 12.1875 11.25ZM18.75 14.0625C18.75 14.2344 18.6094 14.375 18.4375 14.375H17.8125V10.625H18.4375C18.6094 10.625 18.75 10.7656 18.75 10.9375V14.0625Z" fill="#5B03B2"/>
<path d="M18.4375 0.9375H13.4375C12.9219 0.9375 12.5 1.35938 12.5 1.875V4.375C12.5 4.89062 12.9219 5.3125 13.4375 5.3125H15.9375V6.25C15.9375 6.36875 16.0062 6.47813 16.1156 6.53125C16.1562 6.55312 16.2031 6.5625 16.25 6.5625C16.3187 6.5625 16.3875 6.54063 16.4437 6.49375L17.9219 5.3125H18.4375C18.9531 5.3125 19.375 4.89062 19.375 4.375V1.875C19.375 1.35938 18.9531 0.9375 18.4375 0.9375ZM14.375 3.4375C14.2031 3.4375 14.0625 3.29688 14.0625 3.125C14.0625 2.95312 14.2031 2.8125 14.375 2.8125C14.5469 2.8125 14.6875 2.95312 14.6875 3.125C14.6875 3.29688 14.5469 3.4375 14.375 3.4375ZM15.9375 3.4375C15.7656 3.4375 15.625 3.29688 15.625 3.125C15.625 2.95312 15.7656 2.8125 15.9375 2.8125C16.1094 2.8125 16.25 2.95312 16.25 3.125C16.25 3.29688 16.1094 3.4375 15.9375 3.4375ZM17.5 3.4375C17.3281 3.4375 17.1875 3.29688 17.1875 3.125C17.1875 2.95312 17.3281 2.8125 17.5 2.8125C17.6719 2.8125 17.8125 2.95312 17.8125 3.125C17.8125 3.29688 17.6719 3.4375 17.5 3.4375Z" fill="#5B03B2"/>
</g>
<defs>
<clipPath id="clip0_4317_47936">
<rect width="20" height="20" fill="white"/>
</clipPath>
</defs>
</svg>
