<svg width="20" height="20" viewBox="0 0 20 20" fill="none" xmlns="http://www.w3.org/2000/svg">
<path d="M17.2979 1.63662L8.86036 8.82412C8.82741 8.85207 8.80062 8.88654 8.78167 8.92537C8.76272 8.9642 8.75202 9.00653 8.75026 9.0497C8.7485 9.09287 8.75571 9.13593 8.77143 9.17617C8.78715 9.21641 8.81105 9.25296 8.84161 9.2835L10.7166 11.1585C10.7458 11.1875 10.7804 11.2104 10.8185 11.2259C10.8566 11.2415 10.8974 11.2494 10.9385 11.2491C10.9815 11.2474 11.0237 11.2368 11.0624 11.2179C11.1011 11.1991 11.1355 11.1725 11.1635 11.1397L18.351 2.70225C18.4025 2.64251 18.4295 2.56551 18.4266 2.48668C18.4237 2.40785 18.3911 2.33304 18.3354 2.27725L17.7104 1.65225C17.6553 1.59994 17.583 1.56951 17.5071 1.56663C17.4311 1.56375 17.3568 1.58864 17.2979 1.63662Z" fill="#5B03B2"/>
<path d="M5.3125 8.75C5.83027 8.75 6.25 8.33027 6.25 7.8125C6.25 7.29473 5.83027 6.875 5.3125 6.875C4.79473 6.875 4.375 7.29473 4.375 7.8125C4.375 8.33027 4.79473 8.75 5.3125 8.75Z" fill="#5B03B2"/>
<path d="M7.97266 10.9039C7.76294 10.8332 7.53759 10.8226 7.32218 10.8734C7.10676 10.9243 6.9099 11.0344 6.75391 11.1914L6.63828 11.307C6.57035 11.375 6.53218 11.4672 6.53218 11.5633C6.53218 11.6594 6.57035 11.7516 6.63828 11.8195C6.75711 11.9387 6.84352 12.0862 6.88932 12.2481C6.93512 12.4101 6.93878 12.581 6.89996 12.7447C6.86114 12.9084 6.78113 13.0595 6.66751 13.1837C6.5539 13.3078 6.41045 13.4008 6.25078 13.4539L5.36328 13.7508L6.08516 13.9914C6.42674 14.1061 6.78766 14.1519 7.14705 14.1261C7.50644 14.1004 7.85716 14.0036 8.17891 13.8414C8.46183 13.7008 8.6966 13.4793 8.85338 13.2051C9.01016 12.9308 9.08189 12.6161 9.05945 12.301C9.03702 11.9858 8.92143 11.6845 8.72736 11.4352C8.5333 11.1859 8.26952 10.9999 7.96953 10.9008L7.97266 10.9039Z" fill="#5B03B2"/>
<path d="M7.5 5.625C7.84518 5.625 8.125 5.34518 8.125 5C8.125 4.65482 7.84518 4.375 7.5 4.375C7.15482 4.375 6.875 4.65482 6.875 5C6.875 5.34518 7.15482 5.625 7.5 5.625Z" fill="#5B03B2"/>
<path d="M11.65 11.5625C11.5648 11.6579 11.4609 11.7348 11.3449 11.7886C11.2288 11.8423 11.1029 11.8717 10.975 11.875H10.9375C10.689 11.8748 10.4507 11.7759 10.275 11.6L8.40004 9.72503C8.30868 9.63366 8.23719 9.5244 8.19005 9.40409C8.14292 9.28378 8.12117 9.15503 8.12615 9.02592C8.13114 8.8968 8.16277 8.77012 8.21904 8.6538C8.27532 8.53749 8.35503 8.43407 8.45317 8.35003L14.375 3.30628L14.3094 3.24065C13.6791 2.60747 12.9295 2.10553 12.104 1.76385C11.2785 1.42216 10.3935 1.24753 9.50004 1.25003C8.35364 1.24703 7.22513 1.53432 6.2197 2.08512C5.21428 2.63591 4.36466 3.43229 3.75005 4.40003C2.11027 6.97966 1.24281 9.9746 1.25004 13.0313C1.25005 14.3197 1.6851 15.5703 2.48471 16.5805C3.28432 17.5907 4.40163 18.3013 5.65558 18.5972C6.90952 18.893 8.22664 18.7568 9.39348 18.2105C10.5603 17.6643 11.5085 16.74 12.0844 15.5875C12.1775 15.4022 12.3132 15.2416 12.4805 15.119C12.6478 14.9964 12.8418 14.9153 13.0465 14.8823C13.2513 14.8494 13.4609 14.8655 13.6582 14.9294C13.8555 14.9934 14.0348 15.1032 14.1813 15.25L14.4438 15.5125C14.7965 15.8657 15.2461 16.1062 15.7355 16.2037C16.225 16.3012 16.7325 16.2513 17.1936 16.0602C17.6547 15.8692 18.0487 15.5456 18.3258 15.1304C18.6028 14.7153 18.7505 14.2273 18.75 13.7282C18.7578 10.9514 17.9647 8.23122 16.4657 5.89378L11.65 11.5625ZM10 2.50003C10.1855 2.50003 10.3667 2.55501 10.5209 2.65802C10.6751 2.76104 10.7952 2.90746 10.8662 3.07876C10.9371 3.25007 10.9557 3.43857 10.9195 3.62042C10.8834 3.80228 10.7941 3.96933 10.663 4.10044C10.5318 4.23155 10.3648 4.32084 10.1829 4.35701C10.0011 4.39319 9.81258 4.37462 9.64128 4.30366C9.46997 4.23271 9.32356 4.11254 9.22054 3.95837C9.11753 3.8042 9.06254 3.62295 9.06254 3.43753C9.06254 3.18889 9.16132 2.95043 9.33713 2.77461C9.51295 2.5988 9.7514 2.50003 10 2.50003ZM7.50004 3.75003C7.74727 3.75003 7.98895 3.82334 8.19451 3.96069C8.40007 4.09804 8.56028 4.29326 8.65489 4.52167C8.7495 4.75008 8.77426 5.00141 8.72603 5.24389C8.67779 5.48637 8.55874 5.70909 8.38393 5.88391C8.20911 6.05873 7.98638 6.17778 7.74391 6.22601C7.50143 6.27424 7.2501 6.24949 7.02169 6.15488C6.79328 6.06027 6.59806 5.90005 6.46071 5.69449C6.32336 5.48893 6.25004 5.24725 6.25004 5.00003C6.25004 4.66851 6.38174 4.35056 6.61616 4.11614C6.85058 3.88172 7.16852 3.75003 7.50004 3.75003ZM5.31254 6.25003C5.62158 6.25003 5.92367 6.34167 6.18062 6.51335C6.43758 6.68504 6.63784 6.92907 6.75611 7.21458C6.87437 7.50009 6.90531 7.81426 6.84502 8.11736C6.78473 8.42045 6.63592 8.69886 6.4174 8.91738C6.19888 9.1359 5.92047 9.28471 5.61737 9.345C5.31428 9.40529 5.00011 9.37435 4.7146 9.25609C4.42909 9.13783 4.18506 8.93756 4.01337 8.6806C3.84168 8.42365 3.75005 8.12156 3.75005 7.81253C3.75005 7.39813 3.91466 7.0007 4.20769 6.70767C4.50072 6.41465 4.89814 6.25003 5.31254 6.25003ZM8.45942 14.4C7.99316 14.6351 7.47847 14.7582 6.9563 14.7594C6.59299 14.7585 6.23217 14.6994 5.88755 14.5844L4.27505 14.0625C4.21252 14.042 4.15809 14.0022 4.11949 13.9489C4.0809 13.8956 4.06012 13.8315 4.06012 13.7657C4.06012 13.6998 4.0809 13.6357 4.11949 13.5824C4.15809 13.5291 4.21252 13.4893 4.27505 13.4688L6.05317 12.8782C6.1122 12.8589 6.16517 12.8245 6.20683 12.7785C6.24849 12.7324 6.27739 12.6763 6.29067 12.6157C6.305 12.5553 6.30362 12.4923 6.28666 12.4327C6.2697 12.3731 6.23772 12.3188 6.19379 12.275C6.00945 12.0899 5.90595 11.8394 5.90595 11.5782C5.90595 11.3169 6.00945 11.0664 6.19379 10.8813L6.30942 10.7657C6.54854 10.5228 6.8515 10.3525 7.18329 10.2746C7.51508 10.1966 7.86215 10.2141 8.18442 10.325C8.59998 10.4648 8.9649 10.7244 9.23325 11.0711C9.50159 11.4178 9.66135 11.8362 9.69242 12.2735C9.72349 12.7109 9.62448 13.1476 9.40786 13.5288C9.19123 13.91 8.86667 14.2185 8.47505 14.4157L8.45942 14.4Z" fill="#5B03B2"/>
<path d="M10 3.75C10.1726 3.75 10.3125 3.61009 10.3125 3.4375C10.3125 3.26491 10.1726 3.125 10 3.125C9.82741 3.125 9.6875 3.26491 9.6875 3.4375C9.6875 3.61009 9.82741 3.75 10 3.75Z" fill="#5B03B2"/>
</svg>
