<svg width="98" height="98" viewBox="0 0 98 98" fill="none" xmlns="http://www.w3.org/2000/svg">
<path d="M90.0375 49.1535L86.8219 48.0816L81.9219 40.1191L92.0281 43.3348L90.0375 49.1535Z" fill="#9D50BB"/>
<path d="M55.6958 12.1758L59.1901 13.3135L35.5568 85.9774L32.0625 84.8412L55.6958 12.1758Z" fill="#CE50FF"/>
<path d="M55.7359 12.0977L59.2578 13.3227L45.4766 55.432" fill="#B82BEF"/>
<path d="M33.8422 87.8934C35.3644 87.8934 36.5984 86.6593 36.5984 85.1371C36.5984 83.6149 35.3644 82.3809 33.8422 82.3809C32.32 82.3809 31.0859 83.6149 31.0859 85.1371C31.0859 86.6593 32.32 87.8934 33.8422 87.8934Z" fill="#CE50FF"/>
<path d="M36.4437 83.9121C37.2094 85.2902 36.5969 86.9746 35.2188 87.7402C33.8406 88.5059 32.1562 87.8934 31.3906 86.5152" fill="#B82BEF"/>
<path d="M60.6381 13.0151C60.3319 13.7807 59.5662 14.2401 58.6475 13.9338L55.585 13.0151C54.8194 12.7088 54.36 11.9432 54.6662 11.0244C54.9725 10.2588 55.7381 9.79944 56.6569 10.1057L59.7194 11.0244C60.485 11.3307 60.9444 12.2494 60.6381 13.0151Z" fill="#CE50FF"/>
<path d="M58.3057 14.3984L94.1278 26.0467L88.3978 43.6667L52.5742 32.017L58.3057 14.3984Z" fill="#DDDDDD"/>
<path d="M92.6645 30.5098L97.0331 31.9308L91.3491 49.4054L86.9805 47.9844L92.6645 30.5098Z" fill="#AAAAAA"/>
<path d="M88.3547 43.6406L52.5234 32.0031L72.4297 30.3187L94.0203 26.0312L88.3547 43.6406Z" fill="#CCCCCC"/>
<path d="M58.2575 14.3887L62.7717 15.8556L61.3032 20.3697L56.7891 18.9028L58.2575 14.3887Z" fill="#645E66"/>
<path d="M61.2492 20.2121L56.8086 18.834L60.1773 17.7621L62.7805 15.7715L61.2492 20.2121Z" fill="#5B03B2"/>
<path d="M61.3263 20.2344L65.842 21.7028L64.3735 26.217L59.8594 24.75L61.3263 20.2344Z" fill="#645E66"/>
<path d="M64.3117 26.1848L59.8711 24.6535L63.0867 23.5816L65.6898 21.7441L64.3117 26.1848Z" fill="#5B03B2"/>
<path d="M67.2888 17.3223L71.8029 18.7907L70.3329 23.3049L65.8203 21.8349L67.2888 17.3223Z" fill="#645E66"/>
<path d="M70.2844 23.1223L65.8438 21.7441L69.0594 20.6723L71.6625 18.6816L70.2844 23.1223Z" fill="#5B03B2"/>
<path d="M70.2169 23.1191L74.7326 24.5861L73.2626 29.1017L68.75 27.6317L70.2169 23.1191Z" fill="#645E66"/>
<path d="M73.1945 29.093L68.7539 27.5617L72.1227 26.4898L74.7258 24.6523L73.1945 29.093Z" fill="#5B03B2"/>
<path d="M76.1755 20.2051L80.6896 21.672L79.2212 26.1861L74.707 24.7192L76.1755 20.2051Z" fill="#645E66"/>
<path d="M79.1672 26.1836L74.7266 24.6523L78.0953 23.5805L80.6984 21.5898L79.1672 26.1836Z" fill="#5B03B2"/>
<path d="M79.2482 26.0469L83.7638 27.5153L82.2954 32.0295L77.7812 30.561L79.2482 26.0469Z" fill="#645E66"/>
<path d="M82.2297 32.0031L77.7891 30.4719L81.0047 29.4L83.6078 27.5625L82.2297 32.0031Z" fill="#5B03B2"/>
<path d="M85.2146 23.1328L89.7287 24.6013L88.2602 29.1154L83.7461 27.6454L85.2146 23.1328Z" fill="#645E66"/>
<path d="M88.1984 29.093L83.7578 27.5617L86.9734 26.4898L89.5766 24.6523L88.1984 29.093Z" fill="#5B03B2"/>
<path d="M88.138 28.9336L92.6506 30.4021L91.1821 34.9162L86.668 33.4462L88.138 28.9336Z" fill="#645E66"/>
<path d="M91.1086 34.9133L86.668 33.382L90.0367 32.3102L92.6398 30.4727L91.1086 34.9133Z" fill="#5B03B2"/>
<path d="M55.5075 23.1504L60.0217 24.6189L58.5517 29.133L54.0391 27.663L55.5075 23.1504Z" fill="#645E66"/>
<path d="M58.4953 29.093L54.0547 27.5617L57.2703 26.4898L59.8734 24.6523L58.4953 29.093Z" fill="#5B03B2"/>
<path d="M58.4294 28.9492L62.9435 30.4192L61.4735 34.9318L56.9609 33.4633L58.4294 28.9492Z" fill="#645E66"/>
<path d="M61.4016 34.9133L56.9609 33.382L60.1766 32.4633L62.9328 30.4727L61.4016 34.9133Z" fill="#5B03B2"/>
<path d="M64.3982 26.0312L68.9123 27.5012L67.4438 32.0154L62.9297 30.5454L64.3982 26.0312Z" fill="#645E66"/>
<path d="M67.3742 32.0031L62.9336 30.4719L66.3023 29.4L68.9055 27.5625L67.3742 32.0031Z" fill="#5B03B2"/>
<path d="M67.4669 31.877L71.9826 33.3439L70.5141 37.858L66 36.3911L67.4669 31.877Z" fill="#645E66"/>
<path d="M70.4367 37.8215L65.9961 36.4434L69.2117 35.3715L71.8148 33.3809L70.4367 37.8215Z" fill="#5B03B2"/>
<path d="M73.4309 28.9648L77.9435 30.4348L76.4735 34.9474L71.9609 33.4774L73.4309 28.9648Z" fill="#645E66"/>
<path d="M76.4094 34.9133L71.9688 33.382L75.1844 32.3102L77.7875 30.4727L76.4094 34.9133Z" fill="#5B03B2"/>
<path d="M76.3044 34.9043L80.8185 36.3728L79.3485 40.8869L74.8359 39.4169L76.3044 34.9043Z" fill="#645E66"/>
<path d="M79.3195 40.7316L74.8789 39.3535L78.2477 38.2816L80.8508 36.291L79.3195 40.7316Z" fill="#5B03B2"/>
<path d="M82.3146 31.8477L86.8287 33.3146L85.3618 37.8287L80.8477 36.3618L82.3146 31.8477Z" fill="#645E66"/>
<path d="M85.2922 37.8215L80.8516 36.2902L84.2203 35.2184L86.8234 33.3809L85.2922 37.8215Z" fill="#5B03B2"/>
<path d="M91.195 34.75L95.7092 36.22L94.2392 40.7326L89.7266 39.2626L91.195 34.75Z" fill="#645E66"/>
<path d="M94.1711 40.7316L89.7305 39.2004L93.0992 38.1285L95.7023 36.291L94.1711 40.7316Z" fill="#5B03B2"/>
<path d="M88.4294 43.666L92.9435 45.136L91.4735 49.6486L86.9609 48.1801L88.4294 43.666Z" fill="#645E66"/>
<path d="M91.4172 49.6125L86.9766 48.0812L90.1922 47.0094L92.7953 45.1719L91.4172 49.6125Z" fill="#5B03B2"/>
<path d="M85.3396 37.8398L89.8537 39.3068L88.3868 43.8209L83.8711 42.354L85.3396 37.8398Z" fill="#645E66"/>
<path d="M88.3547 43.6398L83.9141 42.2617L87.1297 41.1898L89.7328 39.1992L88.3547 43.6398Z" fill="#5B03B2"/>
<path d="M7.96328 49.1535L11.1789 48.0816L16.0789 40.1191L5.97266 43.3348L7.96328 49.1535Z" fill="#9D50BB"/>
<path d="M65.9245 84.8022L62.4302 85.9384L38.7969 13.2729L42.2912 12.1367L65.9245 84.8022Z" fill="#CE50FF"/>
<path d="M42.2641 12.0977L38.7422 13.3227L52.5234 55.432" fill="#B82BEF"/>
<path d="M64.1586 87.8934C65.6808 87.8934 66.9148 86.6593 66.9148 85.1371C66.9148 83.6149 65.6808 82.3809 64.1586 82.3809C62.6364 82.3809 61.4023 83.6149 61.4023 85.1371C61.4023 86.6593 62.6364 87.8934 64.1586 87.8934Z" fill="#CE50FF"/>
<path d="M61.5562 83.9121C60.7906 85.2902 61.4031 86.9746 62.7812 87.7402C64.1593 88.5059 65.8437 87.8934 66.6093 86.5152" fill="#B82BEF"/>
<path d="M37.3616 13.0151C37.6678 13.7807 38.4334 14.2401 39.3522 13.9338L42.4147 13.0151C43.1803 12.7088 43.6397 11.9432 43.3334 11.0244C43.0272 10.2588 42.2616 9.79944 41.3428 10.1057L38.2803 11.0244C37.5147 11.3307 37.0553 12.2494 37.3616 13.0151Z" fill="#CE50FF"/>
<path d="M45.5145 32.0083L9.69394 43.6612L3.96094 26.038L39.7845 14.3867L45.5145 32.0083Z" fill="#DDDDDD"/>
<path d="M10.9574 47.8301L6.58872 49.2511L0.90625 31.7765L5.27491 30.3555L10.9574 47.8301Z" fill="#AAAAAA"/>
<path d="M9.64609 43.6406L45.4773 32.0031L25.5711 30.3187L3.98047 26.0312L9.64609 43.6406Z" fill="#CCCCCC"/>
<path d="M41.2044 18.8047L36.6903 20.2747L35.2188 15.7575L39.7344 14.2891L41.2044 18.8047Z" fill="#645E66"/>
<path d="M36.75 20.2121L41.1906 18.834L37.8219 17.7621L35.2188 15.7715L36.75 20.2121Z" fill="#5B03B2"/>
<path d="M38.1686 24.7153L33.6544 26.1838L32.1875 21.6681L36.7016 20.2012L38.1686 24.7153Z" fill="#645E66"/>
<path d="M33.6867 26.1848L38.1273 24.6535L34.9117 23.5816L32.3086 21.7441L33.6867 26.1848Z" fill="#5B03B2"/>
<path d="M32.156 21.7578L27.6403 23.2263L26.1719 18.7122L30.686 17.2422L32.156 21.7578Z" fill="#645E66"/>
<path d="M27.7141 23.1223L32.1547 21.7441L28.9391 20.6723L26.3359 18.6816L27.7141 23.1223Z" fill="#5B03B2"/>
<path d="M29.2599 27.6196L24.7458 29.0881L23.2773 24.5739L27.7915 23.1055L29.2599 27.6196Z" fill="#645E66"/>
<path d="M24.8047 29.093L29.2453 27.5617L25.8766 26.4898L23.2734 24.6523L24.8047 29.093Z" fill="#5B03B2"/>
<path d="M23.2521 24.6606L18.738 26.1291L17.2695 21.615L21.7837 20.1465L23.2521 24.6606Z" fill="#645E66"/>
<path d="M18.8359 26.1836L23.2766 24.6523L19.9078 23.5805L17.3047 21.5898L18.8359 26.1836Z" fill="#5B03B2"/>
<path d="M20.2115 30.5708L15.6989 32.0377L14.2305 27.5236L18.7461 26.0566L20.2115 30.5708Z" fill="#645E66"/>
<path d="M15.7727 32.0031L20.2133 30.4719L16.9977 29.4L14.3945 27.5625L15.7727 32.0031Z" fill="#5B03B2"/>
<path d="M14.2053 27.6098L9.69113 29.0798L8.22266 24.5642L12.7368 23.0957L14.2053 27.6098Z" fill="#645E66"/>
<path d="M9.8 29.093L14.2406 27.5617L11.025 26.4898L8.42188 24.6523L9.8 29.093Z" fill="#5B03B2"/>
<path d="M11.3083 33.477L6.79422 34.947L5.32422 30.4329L9.83988 28.9629L11.3083 33.477Z" fill="#645E66"/>
<path d="M6.89062 34.9133L11.3313 33.382L7.9625 32.3102L5.35938 30.4727L6.89062 34.9133Z" fill="#5B03B2"/>
<path d="M44.0154 27.6333L39.5013 29.1033L38.0312 24.5891L42.5469 23.1191L44.0154 27.6333Z" fill="#645E66"/>
<path d="M39.507 29.093L43.9477 27.5617L40.732 26.4898L38.1289 24.6523L39.507 29.093Z" fill="#5B03B2"/>
<path d="M41.1193 33.4961L36.6052 34.9646L35.1367 30.4505L39.6508 28.9805L41.1193 33.4961Z" fill="#645E66"/>
<path d="M36.5977 34.9133L41.0383 33.382L37.8227 32.4633L35.0664 30.4727L36.5977 34.9133Z" fill="#5B03B2"/>
<path d="M35.1115 30.5337L30.5974 32.0037L29.1289 27.488L33.643 26.0195L35.1115 30.5337Z" fill="#645E66"/>
<path d="M30.625 32.0031L35.0656 30.4719L31.6969 29.4L29.0938 27.5625L30.625 32.0031Z" fill="#5B03B2"/>
<path d="M32.0748 36.4477L27.5607 37.9162L26.0938 33.4005L30.6079 31.9336L32.0748 36.4477Z" fill="#645E66"/>
<path d="M27.5617 37.8215L32.0023 36.4434L28.7867 35.3715L26.1836 33.3809L27.5617 37.8215Z" fill="#5B03B2"/>
<path d="M26.0646 33.4887L21.5505 34.9587L20.082 30.4446L24.5962 28.9746L26.0646 33.4887Z" fill="#645E66"/>
<path d="M21.5891 34.9133L26.0297 33.382L22.8141 32.3102L20.2109 30.4727L21.5891 34.9133Z" fill="#5B03B2"/>
<path d="M23.1232 39.2071L18.6091 40.6755L17.1406 36.1614L21.6547 34.6914L23.1232 39.2071Z" fill="#645E66"/>
<path d="M18.6797 40.7316L23.1203 39.3535L19.7516 38.2816L17.1484 36.291L18.6797 40.7316Z" fill="#5B03B2"/>
<path d="M17.1568 36.393L12.6427 37.86L11.1758 33.3458L15.6899 31.8789L17.1568 36.393Z" fill="#645E66"/>
<path d="M12.7109 37.8215L17.1516 36.2902L13.7828 35.2184L11.1797 33.3809L12.7109 37.8215Z" fill="#5B03B2"/>
<path d="M8.23022 39.2797L3.71609 40.7497L2.24609 36.2356L6.76022 34.7656L8.23022 39.2797Z" fill="#645E66"/>
<path d="M3.82812 40.7316L8.26875 39.2004L4.9 38.1285L2.29688 36.291L3.82812 40.7316Z" fill="#5B03B2"/>
<path d="M11.092 48.1435L6.57784 49.6135L5.10938 45.0978L9.6235 43.6309L11.092 48.1435Z" fill="#645E66"/>
<path d="M6.58516 49.6125L11.0258 48.0812L7.81016 47.0094L5.20703 45.1719L6.58516 49.6125Z" fill="#5B03B2"/>
<path d="M14.074 42.1582L9.55984 43.6267L8.08984 39.1126L12.604 37.6426L14.074 42.1582Z" fill="#645E66"/>
<path d="M9.64766 43.6398L14.0883 42.2617L10.8727 41.1898L8.26953 39.1992L9.64766 43.6398Z" fill="#5B03B2"/>
</svg>
