<svg width="24" height="24" viewBox="0 0 24 24" fill="none" xmlns="http://www.w3.org/2000/svg">
<g opacity="0.5">
<path d="M20.5519 14.662C20.7769 14.7745 21.0019 15.1495 21.0019 15.412C21.0019 15.562 20.9269 15.6745 20.8144 15.7495C20.7019 15.8245 20.5894 15.862 20.4394 15.8995C19.9144 15.9745 19.3519 16.0495 18.8269 16.1245L17.2519 16.3495C17.1019 16.387 16.9519 16.3495 16.8394 16.312C16.5394 16.1995 16.3894 15.862 16.4644 15.487C16.5394 15.2245 16.6894 15.037 16.9894 14.9995C17.9644 14.8495 18.9019 14.737 19.8769 14.6245C20.1019 14.5495 20.3644 14.5495 20.5519 14.662Z" fill="#5B03B2"/>
<path d="M16.7252 21.4867C16.6877 21.5242 16.6877 21.5992 16.6502 21.6367C16.4627 22.1992 16.5377 22.7617 16.9127 23.2117L16.9877 23.2867C16.5002 23.3617 15.9752 23.3992 15.4877 23.3992C14.6252 23.4367 13.7627 23.3992 12.9002 23.1742C12.1127 22.9867 11.4002 22.6117 10.6127 22.4992C10.0127 22.4242 9.41265 22.4242 8.77515 22.3867C8.32515 22.3867 7.95015 22.0117 7.87515 21.5617L7.12515 15.5242C7.08765 15.1117 7.31265 14.6992 7.68765 14.5492C8.13765 14.3617 8.58765 14.0992 9.00015 13.8367C10.2752 12.9367 12.5252 11.0992 14.0627 10.7242C15.7502 10.2742 17.2127 11.2492 18.8627 11.5492C19.3502 11.6242 20.3252 11.6617 20.3627 12.3367C20.4377 13.5742 18.9002 13.7992 17.9627 13.7992C17.4002 13.7992 16.8002 13.7617 16.2377 13.6492C16.0877 13.6117 15.7127 13.4617 15.5627 13.4992C15.5252 13.4992 15.4502 13.5367 15.4127 13.5742C15.0752 13.7992 15.0752 14.3617 14.9627 14.7367C14.7752 15.2242 14.4752 15.7492 14.1752 16.1617C13.6877 16.7992 12.8252 17.6617 11.9627 17.9242C11.9252 17.9242 11.9252 17.9617 11.9252 17.9617L11.9627 17.9992C13.6502 17.8492 14.8127 16.5742 15.5252 15.1492C15.5252 15.1867 15.4877 15.2242 15.4877 15.2617C15.3752 15.7117 15.4502 16.1992 15.7127 16.5367C15.3752 16.7617 15.1127 17.1367 15.0377 17.5867C14.9627 18.0742 15.0752 18.5242 15.3752 18.8992C15.4877 19.0492 15.6377 19.1617 15.8252 19.2367C15.7502 19.3492 15.7127 19.4617 15.6752 19.5742C15.7127 20.0992 15.8252 20.6242 16.1252 20.9992C16.2752 21.2242 16.5002 21.3742 16.7252 21.4867Z" fill="#5B03B2"/>
<path d="M20.4391 1.94961C20.4766 1.31211 20.0641 0.862109 19.4266 0.862109C17.3266 0.749609 15.2266 0.674609 13.1266 0.599609H12.8266C12.3391 0.749609 12.0391 1.12461 12.0391 1.64961C11.9641 3.67461 11.9266 5.21211 11.8516 7.08711L11.8141 8.09961L11.7766 9.11211C11.7391 9.78711 11.7016 10.4246 11.6641 11.0246C12.1141 10.6496 12.6016 10.3496 13.1641 10.1621L13.2766 8.13711C13.3141 6.93711 13.3516 5.77461 13.4266 4.38711C13.4641 4.38711 13.5016 4.34961 13.5391 4.34961H13.5766C14.2891 4.16211 14.7766 3.71211 14.9266 2.99961C15.8641 3.03711 16.6891 3.07461 17.4391 3.07461C17.6266 3.86211 18.1141 4.38711 18.8641 4.61211C18.7891 6.07461 18.7516 7.27461 18.7141 8.32461V8.47461C18.6766 9.18711 18.6391 9.93711 18.6016 10.8371L19.1641 10.9496C19.2391 10.9496 19.2766 10.9871 19.3516 10.9871C19.5016 11.0246 19.7641 11.0621 20.0266 11.0996L20.1766 8.02461V7.76211L20.4391 1.94961Z" fill="#9D50BB"/>
<path d="M17.5621 8.34674C17.5943 7.45681 16.8989 6.70933 16.0089 6.67721C15.119 6.64509 14.3715 7.34049 14.3394 8.23043C14.3073 9.12036 15.0027 9.86783 15.8926 9.89995C16.7826 9.93207 17.53 9.23668 17.5621 8.34674Z" fill="#9D50BB"/>
<path d="M17.5621 8.34674C17.5943 7.45681 16.8989 6.70933 16.0089 6.67721C15.119 6.64509 14.3715 7.34049 14.3394 8.23043C14.3073 9.12036 15.0027 9.86783 15.8926 9.89995C16.7826 9.93207 17.53 9.23668 17.5621 8.34674Z" fill="#9D50BB"/>
<path d="M9.00064 2.21328C8.92564 2.25078 8.81314 2.25078 8.73814 2.32578C8.28814 2.58828 8.13814 3.03828 8.25064 3.56328C8.81314 5.51328 9.18814 7.01328 9.71314 8.81328L9.97564 9.78828L10.2381 10.8008C10.3506 11.2508 10.4631 11.6633 10.5756 12.0758L10.8006 11.8508C10.8381 11.4383 10.8381 10.9883 10.8756 10.5758L10.9881 8.10078V8.02578C10.8006 7.31328 10.5756 6.60078 10.3881 5.81328C10.4256 5.77578 10.4631 5.77578 10.4631 5.73828L10.5006 5.70078C10.7256 5.55078 10.9506 5.36328 11.0631 5.17578C11.1006 4.05078 11.1381 2.96328 11.1756 1.65078V1.61328C10.5006 1.80078 9.75064 2.02578 9.00064 2.21328Z" fill="#9D50BB"/>
<path d="M6.59861 22.9127L4.01111 23.2127C3.71111 23.2502 3.37361 23.0252 3.33611 22.6877L2.39861 15.0377C2.36111 14.7002 2.58611 14.4002 2.92361 14.3627L5.51111 14.0627C5.84861 14.0252 6.14861 14.2502 6.18611 14.5877L7.12361 22.2377C7.16111 22.5752 6.93611 22.8752 6.59861 22.9127ZM20.5861 22.4252C20.2861 22.5002 19.9861 22.5752 19.6861 22.6127C19.1986 22.6877 18.7486 22.7627 18.2611 22.8752C17.9986 22.9127 17.7736 22.8752 17.5861 22.6502C17.3986 22.4252 17.3611 22.1627 17.4736 21.9002C17.5486 21.6752 17.7361 21.5627 17.9986 21.4877C18.0361 21.4877 18.1486 21.4502 18.2611 21.4502C18.8236 21.3377 20.0236 21.1502 20.3986 21.1127H20.5111C20.8486 21.1127 20.9986 21.2252 21.0361 21.4877C21.1111 21.9002 20.9236 22.3127 20.5861 22.4252ZM20.8486 20.1752C20.6986 20.2127 20.5486 20.2127 20.3986 20.2502C19.8736 20.3252 19.3861 20.4002 18.8611 20.4752C18.6361 20.5127 18.4111 20.5502 18.1486 20.5877H18.1111C17.8861 20.6252 17.6611 20.6252 17.4736 20.6627C16.8361 20.7752 16.6111 20.1752 16.7236 19.7627C16.7611 19.5377 16.9111 19.4252 17.0986 19.3502C17.1736 19.3127 17.2111 19.3127 17.2861 19.3127C17.8486 19.2377 18.4486 19.1627 19.0111 19.0877C19.5736 19.0127 20.1361 18.9377 20.7361 18.8627H20.9986C21.2986 18.9002 21.4861 19.0127 21.5236 19.2752C21.5236 19.7252 21.2986 20.1002 20.8486 20.1752ZM21.5986 17.1752C21.5611 17.7002 21.3736 17.9252 20.8861 18.0002C20.2111 18.0752 19.5736 18.1877 18.8986 18.2627C18.2236 18.3752 17.5486 18.4502 16.8736 18.5252H16.7611C16.3111 18.5252 16.0111 18.1877 16.0861 17.7002C16.1236 17.4002 16.3111 17.2127 16.6111 17.1752C16.6861 17.1752 16.7236 17.1752 16.7986 17.1377C18.1111 16.9502 19.4236 16.7627 20.7361 16.6127H21.0736C21.1486 16.6127 21.2236 16.6502 21.2611 16.6502C21.4861 16.7252 21.5986 16.9127 21.5986 17.1752Z" fill="#5B03B2"/>
</g>
</svg>
