<svg width="39" height="39" viewBox="0 0 39 39" fill="none" xmlns="http://www.w3.org/2000/svg">
<path d="M32.2428 32.9418V9.38923C32.2428 9.3478 32.2428 9.31013 32.239 9.27247C32.1825 8.39108 31.6703 7.54736 30.8491 7.17824C30.4047 6.97484 29.9565 6.92964 29.4819 6.92964H26.4686C26.4686 6.55298 26.4686 6.12735 26.4611 5.72809V5.66406C26.4498 5.40793 26.3594 5.17064 26.1786 4.98607C26.0543 4.86177 25.9187 4.78644 25.7718 4.74878C25.7492 4.74124 25.7266 4.73748 25.704 4.73371C25.6588 4.72618 25.6098 4.71111 25.5646 4.71111C25.5608 4.71111 25.5571 4.71111 25.5571 4.70734C25.5571 4.70358 25.5533 4.69981 25.5533 4.69604C25.5382 4.68098 25.5194 4.71111 25.5043 4.67344H22.3216C22.314 4.48511 22.2952 4.25159 22.2538 4.03312C22.0767 3.1442 21.4251 2.33815 20.604 1.96526C19.7339 1.57353 18.7659 1.5886 17.9146 2.02176C17.1952 2.38712 16.6453 3.06887 16.4231 3.83726C16.344 4.11222 16.3138 4.40978 16.3063 4.67344H14.2912C13.9107 4.67344 13.5228 4.67721 13.1423 4.68851C12.5849 4.70734 12.1668 5.1292 12.1517 5.68289C12.148 5.80719 12.1404 5.94279 12.1404 6.07085V6.94094C11.0481 6.94094 9.94827 6.93717 8.84842 6.94094C7.48491 6.94847 6.38883 8.03325 6.37 9.40053C6.36623 9.58133 6.37753 9.75836 6.37753 9.93915V33.1716C6.37753 33.9927 6.2796 34.9004 6.68639 35.6462C7.14215 36.4786 8.02354 36.9156 8.94635 36.9156H28.947C29.2144 36.9156 29.4856 36.9043 29.7531 36.9043C30.9132 36.9005 32.0055 36.0944 32.2089 34.9193C32.3068 34.2789 32.2428 33.5859 32.2428 32.9418ZM18.2386 4.59058C18.2386 4.57175 18.2423 4.55668 18.2423 4.53785C18.2461 4.50395 18.2499 4.47005 18.2574 4.43615L18.2687 4.39095C18.2687 4.38718 18.2725 4.38342 18.2725 4.37965C18.2762 4.37212 18.2687 4.36458 18.2687 4.35328C18.2725 4.34198 18.2687 4.33068 18.2687 4.31938H18.28C18.28 4.31562 18.2875 4.31185 18.2875 4.30808C18.2875 4.30432 18.2913 4.30432 18.2913 4.30055C18.2951 4.29302 18.2951 4.28549 18.2988 4.28172C18.3026 4.27042 18.3064 4.26289 18.3101 4.25159C18.3101 4.24782 18.3101 4.24782 18.3139 4.24782C18.3139 4.24405 18.3064 4.24405 18.3064 4.24029C18.3101 4.23275 18.3026 4.22899 18.3026 4.22522C18.3026 4.22145 18.3139 4.22145 18.3139 4.22145C18.3177 4.21769 18.3214 4.21392 18.3252 4.20639C18.3252 4.20262 18.329 4.20262 18.3327 4.19885C18.3327 4.19885 18.3327 4.19509 18.3365 4.19509C18.3365 4.19132 18.3403 4.19132 18.3403 4.19132C18.344 4.18755 18.344 4.18002 18.3478 4.17625C18.3478 4.17625 18.3478 4.17249 18.3516 4.17249C18.3553 4.16872 18.3553 4.16119 18.3591 4.15742C18.3629 4.15365 18.3629 4.14989 18.3666 4.14612C18.3704 4.13859 18.3779 4.12729 18.3817 4.11975L18.393 4.09716L18.4156 4.06326C18.4231 4.04819 18.4344 4.03312 18.4457 4.02182C18.457 4.01052 18.4646 3.99546 18.4759 3.98416L18.4796 3.98039C18.4909 3.96909 18.4985 3.95402 18.5098 3.94272C18.5211 3.92766 18.5361 3.91636 18.5474 3.90129C18.668 3.78076 18.8073 3.70166 18.9617 3.64893C18.9693 3.64516 18.973 3.64516 18.9806 3.6414C18.9881 3.6414 18.9919 3.63763 18.9994 3.63763H19.0032C19.0295 3.6301 19.0597 3.62633 19.086 3.6188C19.0936 3.6188 19.0973 3.62633 19.1049 3.62256C19.1651 3.6075 19.2292 3.61503 19.2932 3.61503C19.3497 3.61503 19.4062 3.61126 19.4552 3.62256C19.4702 3.62633 19.4853 3.61503 19.4966 3.61503C19.5004 3.61503 19.5079 3.62256 19.5117 3.62633C19.5192 3.6301 19.5267 3.61503 19.5343 3.6527C19.6021 3.6527 19.6661 3.67906 19.7301 3.70543C19.7377 3.7092 19.7452 3.70919 19.7527 3.70919C19.862 3.75816 19.9637 3.82219 20.0465 3.90882L20.0729 3.93519C20.088 3.95026 20.0993 3.96532 20.1143 3.98039C20.2198 4.10845 20.2876 4.25535 20.3253 4.41732C20.3328 4.43992 20.3403 4.46252 20.3441 4.48888C20.3479 4.50771 20.3516 4.52655 20.3554 4.54915C20.3554 4.55291 20.3667 4.55668 20.3667 4.56045C20.3667 4.56798 20.378 4.57175 20.378 4.57928V4.65085C20.378 4.66215 20.3705 4.67344 20.3705 4.68474C20.3705 4.69604 20.3667 4.70358 20.3667 4.71488C20.3667 4.72618 20.3629 4.73371 20.3629 4.74501C20.3629 4.74878 20.3592 4.75254 20.3592 4.75254V4.76008C20.3592 4.76761 20.3554 4.77514 20.3554 4.78268C20.3516 4.80151 20.3479 4.81658 20.3441 4.83541C20.3403 4.84294 20.3403 4.85048 20.3366 4.85801C20.3328 4.87684 20.3253 4.89191 20.3215 4.90697C20.3177 4.92204 20.314 4.93334 20.3102 4.94841C20.3064 4.95594 20.3064 4.96724 20.3027 4.97477C20.3027 4.97854 20.3027 4.98231 20.2989 4.98607C20.2989 4.98984 20.3027 4.99361 20.2989 4.99737V5.01244C20.2989 5.02374 20.2838 5.03504 20.2801 5.04257C20.2801 5.04634 20.2763 5.05011 20.2725 5.05011L20.2612 5.0727C20.2537 5.08777 20.2462 5.1066 20.2386 5.12167C20.2311 5.13674 20.2236 5.1518 20.2123 5.16687C20.2085 5.1744 20.2047 5.17817 20.201 5.1857C20.1897 5.2083 20.1746 5.22714 20.1595 5.24973C20.1558 5.25727 20.1482 5.2648 20.1407 5.27233C20.1219 5.2987 20.0955 5.3213 20.0729 5.3439C20.0578 5.36273 20.0578 5.38157 20.0202 5.4004H20.0277C20.0277 5.41547 20.0013 5.42677 19.9863 5.44183C19.9712 5.45313 19.9599 5.46443 19.9448 5.47573L19.9411 5.4795C19.926 5.4908 19.9109 5.5021 19.8921 5.5134C19.8883 5.51716 19.8808 5.52093 19.877 5.5247C19.8695 5.53223 19.8582 5.536 19.8507 5.54353C19.8205 5.56236 19.7866 5.5812 19.7527 5.59626C19.7452 5.60003 19.7377 5.6038 19.7264 5.60756C19.7188 5.61133 19.7113 5.6151 19.7 5.61886H19.6925C19.6887 5.61886 19.6849 5.62263 19.6812 5.62263C19.6774 5.62263 19.6736 5.62639 19.6699 5.62639C19.6623 5.63016 19.651 5.63393 19.6435 5.63769C19.636 5.64146 19.6247 5.64523 19.6134 5.64899C19.6058 5.65276 19.5983 5.65276 19.5908 5.65653C19.4928 5.69043 19.3836 5.70549 19.2744 5.70173H19.2103C19.2028 5.70173 19.1953 5.70173 19.1877 5.69796H19.1727C19.1689 5.69796 19.1614 5.69796 19.1576 5.69419C19.1501 5.69419 19.1463 5.69419 19.1388 5.69043C19.1275 5.69043 19.1199 5.68666 19.1086 5.68666C19.1011 5.68666 19.0936 5.68289 19.0898 5.68289C19.0521 5.67536 19.0145 5.66783 18.9806 5.65653C18.9693 5.65276 18.9617 5.64146 18.9504 5.63769C18.9354 5.63393 18.9241 5.6151 18.909 5.6151L18.9052 5.62263C18.9015 5.62263 18.8977 5.62639 18.8939 5.62639V5.63016H18.8902C18.8864 5.6264 18.8826 5.62639 18.8751 5.62639C18.8713 5.62639 18.8713 5.62263 18.8676 5.62263C18.8638 5.62263 18.8638 5.61886 18.86 5.61886C18.8563 5.61886 18.8525 5.6151 18.8487 5.6151C18.8412 5.61133 18.8374 5.61133 18.8299 5.60756C18.8224 5.6038 18.8148 5.60003 18.8111 5.59626C18.8073 5.5925 18.8035 5.5925 18.796 5.58873C18.7922 5.58496 18.7885 5.58496 18.7809 5.5812C18.7734 5.57743 18.7697 5.57366 18.7621 5.5699C18.7584 5.56613 18.7546 5.56613 18.7508 5.56236C18.7433 5.5586 18.7358 5.55483 18.732 5.55106C18.7282 5.5473 18.7245 5.5473 18.7207 5.54353C18.7169 5.54353 18.7132 5.53976 18.7132 5.53976C18.7094 5.53976 18.7094 5.536 18.7056 5.536L18.7019 5.53223C18.7019 5.53223 18.6981 5.53223 18.6981 5.52846C18.6906 5.5247 18.6868 5.52093 18.6793 5.51716C18.6755 5.5134 18.6717 5.5134 18.668 5.50963C18.6454 5.49456 18.619 5.47573 18.5964 5.4569C18.5813 5.4456 18.57 5.4343 18.5587 5.423L18.5437 5.40793C18.5399 5.40417 18.5324 5.4004 18.5286 5.39287L18.5211 5.38533L18.5135 5.3778L18.4947 5.35897L18.4909 5.3552L18.4872 5.35143L18.4834 5.34767L18.4796 5.3439L18.4683 5.3326C18.4646 5.32507 18.457 5.3213 18.4533 5.31377C18.442 5.30247 18.4307 5.2874 18.4231 5.27233C18.4156 5.26103 18.4043 5.24974 18.3968 5.23844C18.3742 5.2083 18.3553 5.17817 18.3403 5.14427C18.3327 5.13297 18.3252 5.1179 18.3214 5.1066C18.3177 5.10284 18.3139 5.0953 18.3139 5.08777C18.3101 5.07647 18.3026 5.06894 18.2988 5.05764C18.2913 5.04257 18.2875 5.02751 18.28 5.01244C18.2762 5.00867 18.2762 5.00114 18.2725 4.99737C18.2687 4.98231 18.2612 4.97101 18.2574 4.95594C18.2536 4.94841 18.2499 4.93711 18.2499 4.92957C18.2499 4.92581 18.2461 4.92204 18.2461 4.91451C18.2423 4.90697 18.2423 4.89944 18.2423 4.89191C18.2386 4.88437 18.2386 4.87684 18.2386 4.86931C18.2348 4.86178 18.2348 4.85048 18.231 4.84294C18.2273 4.83164 18.2273 4.82034 18.2235 4.80904C18.2197 4.79021 18.2197 4.77514 18.216 4.75631V4.74878C18.216 4.74501 18.2122 4.74124 18.2122 4.73748C18.2122 4.72241 18.2047 4.71111 18.2047 4.69604C18.2047 4.67721 18.2084 4.66215 18.2084 4.64331C18.2348 4.62448 18.2386 4.60565 18.2386 4.59058ZM14.7319 29.8306H11.308C10.6564 29.8306 10.1705 29.3108 10.1441 28.6818C10.114 28.0527 10.7016 27.5329 11.308 27.5329H14.7319C15.3835 27.5329 15.8694 28.0527 15.8957 28.6818C15.9259 29.3108 15.342 29.8306 14.7319 29.8306ZM27.7417 27.6196L27.1466 28.2147C26.2991 29.066 25.4478 29.9134 24.6003 30.7647L22.9958 32.3693C22.5513 32.8137 21.7942 32.8137 21.3498 32.3693C20.6228 31.6423 19.8959 30.9154 19.1651 30.1884C18.7056 29.7289 18.7395 29.0095 19.1651 28.5424C19.5908 28.0791 20.3818 28.1168 20.8111 28.5462L22.1709 29.9059C22.943 29.13 23.719 28.3503 24.4911 27.5781L26.0957 25.9736C26.5552 25.514 27.2784 25.5479 27.7417 25.9736C28.205 26.3954 28.1749 27.1864 27.7417 27.6196ZM27.301 22.772C27.2935 22.772 27.2822 22.7795 27.2746 22.7795C26.6268 22.7946 25.9752 22.7908 25.3235 22.7908H11.308C10.6564 22.7908 10.1705 22.2484 10.1441 21.6194C10.114 20.9904 10.7016 20.448 11.308 20.448C11.3155 20.448 11.3268 20.4517 11.3344 20.4517C11.9822 20.4367 12.6339 20.4555 13.2855 20.4555H27.3048C27.9564 20.4555 28.4423 20.9828 28.4686 21.6156C28.495 22.2409 27.9112 22.772 27.301 22.772ZM27.301 15.6757C27.2935 15.6757 27.2822 15.6719 27.2746 15.6719C26.6268 15.6832 25.9752 15.6682 25.3235 15.6682H11.308C10.6564 15.6682 10.1705 15.1371 10.1441 14.508C10.114 13.879 10.7016 13.3442 11.308 13.3442C11.3155 13.3442 11.3268 13.3404 11.3344 13.3404C11.9822 13.3253 12.6339 13.3329 13.2855 13.3329H27.3048C27.9564 13.3329 28.4423 13.8715 28.4686 14.5043C28.495 15.1333 27.9112 15.6757 27.301 15.6757Z" fill="#5B03B2"/>
</svg>
