<svg width="20" height="20" viewBox="0 0 20 20" fill="none" xmlns="http://www.w3.org/2000/svg">
<g opacity="0.5" clip-path="url(#clip0_4317_46003)">
<path d="M19.7208 6.87775L12.2208 0.211079C12.101 0.103452 11.9526 0.0329152 11.7935 0.00803418C11.6344 -0.0168468 11.4715 0.0049979 11.3246 0.0709161C11.1776 0.136834 11.053 0.24399 10.9658 0.379374C10.8786 0.514758 10.8326 0.672546 10.8333 0.833579V3.50608C8.33 4.17775 0 7.30441 0 19.1669C0.000305111 19.3604 0.0679133 19.5477 0.19123 19.6968C0.314546 19.8458 0.485886 19.9474 0.675865 19.9839C0.865844 20.0205 1.06262 19.9898 1.23245 19.8971C1.40229 19.8045 1.53459 19.6556 1.60667 19.4761C4.0775 13.2986 8.89417 12.0094 10.8325 11.7402V14.1669C10.8323 14.3278 10.8787 14.4853 10.9661 14.6204C11.0535 14.7555 11.1781 14.8624 11.3249 14.9282C11.4717 14.994 11.6344 15.0159 11.7934 14.9913C11.9524 14.9667 12.1008 14.8966 12.2208 14.7894L19.7208 8.12275C19.8087 8.04457 19.879 7.94868 19.9271 7.84139C19.9753 7.7341 20.0001 7.61784 20.0001 7.50025C20.0001 7.38265 19.9753 7.26639 19.9271 7.1591C19.879 7.05181 19.8087 6.95593 19.7208 6.87775Z" fill="#5B03B2"/>
</g>
<defs>
<clipPath id="clip0_4317_46003">
<rect width="20" height="20" fill="white"/>
</clipPath>
</defs>
</svg>
