<svg width="56" height="55" viewBox="0 0 56 55" fill="none" xmlns="http://www.w3.org/2000/svg">
<path d="M23.4835 35.7335L19.5784 31.8284C19.0735 32.0786 18.5808 32.427 18.1389 32.8689C16.8903 34.1175 16.271 37.3855 16.0861 39.2259C17.9264 39.041 21.1944 38.4216 22.443 37.173C22.885 36.7311 23.2333 36.2384 23.4835 35.7335ZM18.2432 34.8869C18.1964 34.8744 18.1624 34.8489 18.1326 34.8192C18.052 34.7386 18.0228 34.615 18.0618 34.4996C18.3433 33.7512 18.6535 33.2033 18.9924 32.8643C19.1083 32.7485 19.3003 32.7432 19.4192 32.862C19.5338 32.9766 19.5328 33.1729 19.4169 33.2888C19.1466 33.5591 18.8708 34.0471 18.6283 34.7056C18.572 34.8638 18.3966 34.9458 18.2432 34.8869ZM18.9915 37.7806C18.5429 37.8811 18.0815 37.969 17.6117 38.0398L17.2059 38.106L17.2721 37.7002C17.334 37.3073 17.4088 36.8929 17.5006 36.487C17.5356 36.3246 17.6941 36.2171 17.8561 36.2504C18.0223 36.2879 18.1239 36.4495 18.0888 36.6118C18.032 36.8639 17.9837 37.1245 17.9354 37.3766C18.2472 37.3194 18.5633 37.258 18.8624 37.1881C19.0248 37.1531 19.1864 37.2546 19.2197 37.4166C19.2572 37.5828 19.1496 37.7413 18.9915 37.7806Z" fill="#5B03B2"/>
<path d="M24.7944 33.0146L24.3635 34.8971L20.3778 30.9114L22.2646 30.4847L21.5217 29.7419L22.8405 29.2721L26.0028 32.4344L25.533 33.7532L24.7944 33.0146Z" fill="#5B03B2"/>
<path d="M22.3884 26.0988L21.5767 25.4673L18.9379 25.7291C20.8314 22.8084 23.251 21.2291 24.9155 20.4136C23.176 22.4842 22.5674 24.5444 22.3884 26.0988Z" fill="#5B03B2"/>
<path d="M29.546 36.3368L29.8035 33.6938L29.1762 32.8863C30.7263 32.7115 32.7822 32.1072 34.8485 30.372C34.0372 32.0407 32.4538 34.4476 29.546 36.3368Z" fill="#5B03B2"/>
<path d="M36.2285 19.0508C34.9339 17.7561 32.8086 17.7676 31.4999 19.0763C30.1913 20.3849 30.1798 22.5102 31.4745 23.8049C32.7691 25.0995 34.8944 25.088 36.203 23.7794C37.5117 22.4707 37.5232 20.3454 36.2285 19.0508ZM31.8434 23.4359C30.7483 22.3407 30.7579 20.5483 31.865 19.4413C32.972 18.3343 34.7644 18.3246 35.8595 19.4198C36.9546 20.5149 36.945 22.3073 35.838 23.4143C34.731 24.5214 32.9386 24.531 31.8434 23.4359Z" fill="#5B03B2"/>
<path d="M39.9401 15.3483C39.3944 15.2574 37.8462 15.0737 35.7874 15.4177C36.957 16.9477 38.3451 18.3272 39.8752 19.4882C40.2192 17.4209 40.0269 15.8813 39.9401 15.3483ZM39.1534 16.4152C38.6628 16.3794 38.1508 16.3737 37.6214 16.4021C37.5318 16.4069 37.4509 16.3774 37.3915 16.318C37.3405 16.2671 37.3067 16.199 37.3072 16.1221C37.2953 15.9558 37.4241 15.81 37.5948 15.8005C38.1455 15.7677 38.6917 15.7733 39.2036 15.8132C39.37 15.8251 39.493 15.9653 39.4793 16.1318C39.4656 16.2983 39.3198 16.4271 39.1534 16.4152Z" fill="#5B03B2"/>
<path d="M35.4293 19.8492C34.5676 18.9875 33.1592 18.9951 32.2882 19.8661C31.4172 20.7371 31.4096 22.1454 32.2713 23.0071C33.133 23.8688 34.5413 23.8612 35.4123 22.9902C36.2834 22.1192 36.2909 20.7108 35.4293 19.8492ZM34.0082 22.2211C33.9271 22.2172 33.8505 22.1835 33.7953 22.1283C33.7443 22.0774 33.7106 22.0007 33.7068 21.9197L33.7146 21.2667C33.7112 21.1003 33.8485 20.963 34.0192 20.9621C34.1814 20.9612 34.3172 21.097 34.3163 21.2592L34.3128 21.9164C34.312 22.0786 34.1746 22.2159 34.0082 22.2211ZM34.7751 22.4559C34.7199 22.4007 34.6862 22.3241 34.6866 22.2387L34.6937 20.9328C34.6988 20.7664 34.8318 20.6333 34.9983 20.6282C35.1647 20.6316 35.2963 20.7631 35.2997 20.9296L35.2926 22.2355C35.2874 22.4019 35.1502 22.5392 34.988 22.5401C34.9026 22.5406 34.826 22.5068 34.7751 22.4559Z" fill="#5B03B2"/>
<path d="M39.6808 20.4699C38.7371 19.7836 37.8408 19.0246 37.0088 18.1926C36.2066 17.3903 35.4644 16.528 34.7993 15.6141C32.3637 16.182 29.4034 17.5038 26.5498 20.4083C22.9242 24.0254 23.5059 27.7479 23.6308 28.3447L26.9289 31.6428C27.5257 31.7676 31.2524 32.345 34.8609 28.7365C37.7868 25.8615 39.1087 22.9012 39.6808 20.4699ZM26.6811 21.3977C26.8141 21.2562 26.9515 21.1103 27.0974 20.9645C27.917 20.1279 28.7916 19.3806 29.6997 18.7526C29.8411 18.6537 30.0201 18.6869 30.1218 18.8229C30.215 18.959 30.1798 19.1469 30.0427 19.2415C29.1646 19.8565 28.3157 20.5781 27.5218 21.3889C27.3845 21.5262 27.2558 21.6635 27.127 21.8007C27.0154 21.9208 26.8233 21.9346 26.7044 21.8244L26.6917 21.8116C26.5813 21.7012 26.578 21.5178 26.6811 21.3977ZM25.2409 24.1453C25.2111 24.1326 25.1813 24.1114 25.1559 24.086C25.071 24.0011 25.0461 23.8647 25.098 23.7449C25.2663 23.3983 25.4559 23.0473 25.6711 22.7133C25.7572 22.5763 25.9495 22.5369 26.0898 22.6257C26.2259 22.7103 26.2676 22.8979 26.1772 23.0392C25.9792 23.3475 25.7982 23.6728 25.6429 23.998C25.5737 24.152 25.3942 24.2127 25.2409 24.1453ZM24.6817 28.1256C24.5878 28.1347 24.4941 28.1011 24.4347 28.0416C24.388 27.9949 24.3584 27.9311 24.3503 27.8628C24.293 27.4023 24.2512 26.4594 24.5477 25.2799C24.587 25.1218 24.7497 25.0185 24.9116 25.0603C25.0779 25.0978 25.1709 25.2595 25.1316 25.4261C24.8569 26.5073 24.9035 27.3691 24.9482 27.7828C24.9686 27.9491 24.8483 28.1034 24.6817 28.1256ZM31.0443 24.2335C29.512 22.7011 29.5298 20.196 31.0744 18.6513C32.6233 17.1024 35.1242 17.0889 36.6566 18.6213C38.1846 20.1493 38.1754 22.6545 36.6265 24.2034C35.0818 25.748 32.5724 25.7616 31.0443 24.2335Z" fill="#5B03B2"/>
</svg>
