<svg width="20" height="20" viewBox="0 0 20 20" fill="none" xmlns="http://www.w3.org/2000/svg">
<g opacity="0.5">
<path d="M13.3333 0.904297V2.9168H15.0583L13.3333 0.904297ZM3.75 10.4168H5.41667V12.0835H3.75V10.4168ZM3.75 15.0001H5.41667V16.6668H3.75V15.0001Z" fill="#5B03B2"/>
<path d="M14.7 15.1702C14.6292 15.2868 14.7458 15.191 12.6167 16.591C12.5509 16.6316 12.4752 16.6531 12.3979 16.6531C12.3207 16.6531 12.2449 16.6316 12.1792 16.591C11.8792 16.4202 11.9625 16.3577 12.1083 13.8785C12.1083 13.7285 11.8875 14.1743 15.4083 8.07435V3.74935H12.9167C12.8062 3.74935 12.7002 3.70545 12.622 3.62731C12.5439 3.54917 12.5 3.44319 12.5 3.33268V0.416016H1.25V19.5827H15.4167V13.9285C14.6458 15.2618 14.7667 15.0493 14.7 15.1702ZM7.91667 5.41602H13.3333C13.4438 5.41602 13.5498 5.45991 13.628 5.53805C13.7061 5.61619 13.75 5.72218 13.75 5.83268C13.75 5.94319 13.7061 6.04917 13.628 6.12731C13.5498 6.20545 13.4438 6.24935 13.3333 6.24935H7.91667C7.80616 6.24935 7.70018 6.20545 7.62204 6.12731C7.5439 6.04917 7.5 5.94319 7.5 5.83268C7.5 5.72218 7.5439 5.61619 7.62204 5.53805C7.70018 5.45991 7.80616 5.41602 7.91667 5.41602ZM7.91667 7.08268H13.3333C13.4438 7.08268 13.5498 7.12658 13.628 7.20472C13.7061 7.28286 13.75 7.38884 13.75 7.49935C13.75 7.60986 13.7061 7.71584 13.628 7.79398C13.5498 7.87212 13.4438 7.91602 13.3333 7.91602H7.91667C7.80616 7.91602 7.70018 7.87212 7.62204 7.79398C7.5439 7.71584 7.5 7.60986 7.5 7.49935C7.5 7.38884 7.5439 7.28286 7.62204 7.20472C7.70018 7.12658 7.80616 7.08268 7.91667 7.08268ZM6.25 17.0827C6.25 17.1932 6.2061 17.2992 6.12796 17.3773C6.04982 17.4555 5.94384 17.4993 5.83333 17.4993H3.33333C3.22283 17.4993 3.11685 17.4555 3.03871 17.3773C2.96057 17.2992 2.91667 17.1932 2.91667 17.0827V14.5827C2.91667 14.4722 2.96057 14.3662 3.03871 14.2881C3.11685 14.2099 3.22283 14.166 3.33333 14.166H5.83333C5.94384 14.166 6.04982 14.2099 6.12796 14.2881C6.2061 14.3662 6.25 14.4722 6.25 14.5827V17.0827ZM6.25 12.4993C6.25 12.6099 6.2061 12.7158 6.12796 12.794C6.04982 12.8721 5.94384 12.916 5.83333 12.916H3.33333C3.22283 12.916 3.11685 12.8721 3.03871 12.794C2.96057 12.7158 2.91667 12.6099 2.91667 12.4993V9.99935C2.91667 9.88884 2.96057 9.78286 3.03871 9.70472C3.11685 9.62658 3.22283 9.58268 3.33333 9.58268H5.83333C5.94384 9.58268 6.04982 9.62658 6.12796 9.70472C6.2061 9.78286 6.25 9.88884 6.25 9.99935V12.4993ZM6.12917 6.12852C3.85833 8.39518 4.39167 8.31185 3.0375 6.96185C2.99865 6.923 2.96783 6.87688 2.94681 6.82612C2.92578 6.77536 2.91496 6.72096 2.91496 6.66602C2.91496 6.55506 2.95904 6.44864 3.0375 6.37018C3.11596 6.29172 3.22237 6.24764 3.33333 6.24764C3.44429 6.24764 3.55071 6.29172 3.62917 6.37018L4.16667 6.91185L5.5375 5.53685C5.61596 5.45839 5.72237 5.41431 5.83333 5.41431C5.94429 5.41431 6.05071 5.45839 6.12917 5.53685C6.20763 5.61531 6.2517 5.72172 6.2517 5.83268C6.2517 5.94364 6.20763 6.05006 6.12917 6.12852ZM10 17.0827H7.91667C7.80616 17.0827 7.70018 17.0388 7.62204 16.9606C7.5439 16.8825 7.5 16.7765 7.5 16.666C7.5 16.5555 7.5439 16.4495 7.62204 16.3714C7.70018 16.2932 7.80616 16.2493 7.91667 16.2493H10C10.1105 16.2493 10.2165 16.2932 10.2946 16.3714C10.3728 16.4495 10.4167 16.5555 10.4167 16.666C10.4167 16.7765 10.3728 16.8825 10.2946 16.9606C10.2165 17.0388 10.1105 17.0827 10 17.0827ZM10 15.416H7.91667C7.80616 15.416 7.70018 15.3721 7.62204 15.294C7.5439 15.2158 7.5 15.1099 7.5 14.9993C7.5 14.8888 7.5439 14.7829 7.62204 14.7047C7.70018 14.6266 7.80616 14.5827 7.91667 14.5827H10C10.1105 14.5827 10.2165 14.6266 10.2946 14.7047C10.3728 14.7829 10.4167 14.8888 10.4167 14.9993C10.4167 15.1099 10.3728 15.2158 10.2946 15.294C10.2165 15.3721 10.1105 15.416 10 15.416ZM11.25 12.4993H7.91667C7.80616 12.4993 7.70018 12.4555 7.62204 12.3773C7.5439 12.2992 7.5 12.1932 7.5 12.0827C7.5 11.9722 7.5439 11.8662 7.62204 11.7881C7.70018 11.7099 7.80616 11.666 7.91667 11.666H11.25C11.3605 11.666 11.4665 11.7099 11.5446 11.7881C11.6228 11.8662 11.6667 11.9722 11.6667 12.0827C11.6667 12.1932 11.6228 12.2992 11.5446 12.3773C11.4665 12.4555 11.3605 12.4993 11.25 12.4993ZM11.25 10.8327H7.91667C7.80616 10.8327 7.70018 10.7888 7.62204 10.7106C7.5439 10.6325 7.5 10.5265 7.5 10.416C7.5 10.3055 7.5439 10.1995 7.62204 10.1214C7.70018 10.0432 7.80616 9.99935 7.91667 9.99935H11.25C11.3605 9.99935 11.4665 10.0432 11.5446 10.1214C11.6228 10.1995 11.6667 10.3055 11.6667 10.416C11.6667 10.5265 11.6228 10.6325 11.5446 10.7106C11.4665 10.7888 11.3605 10.8327 11.25 10.8327ZM17.5833 6.00768L17.0833 6.91185L18.1625 7.53685L18.6833 6.63268C18.7662 6.48681 18.7878 6.31399 18.7432 6.15224C18.6987 5.99049 18.5917 5.85306 18.4458 5.77018C18.3 5.6873 18.1271 5.66576 17.9654 5.7103C17.8036 5.75484 17.6662 5.86181 17.5833 6.00768Z" fill="#5B03B2"/>
<path d="M13.2682 13.4826C13.6813 13.5816 14.0573 13.7971 14.3516 14.1034L17.7266 8.27005L16.6682 7.63672C15.5391 9.54922 16.1141 8.55755 13.2682 13.4826ZM12.9182 14.2659C12.8807 14.9326 12.8974 14.6826 12.8516 15.4367L13.8307 14.7909C13.7207 14.6476 13.5835 14.5274 13.4269 14.4373C13.2703 14.3472 13.0974 14.2889 12.9182 14.2659Z" fill="#5B03B2"/>
</g>
</svg>
