<svg width="60" height="60" viewBox="0 0 60 60" fill="none" xmlns="http://www.w3.org/2000/svg">
<path fill-rule="evenodd" clip-rule="evenodd" d="M30 0C46.5685 0 60 13.4315 60 30V60H30C13.4315 60 0 46.5685 0 30C-3.8147e-06 13.4315 13.4315 0 30 0Z" fill="#918EF4"/>
<path d="M37.4997 27.5H35.9247C35.457 25.6887 34.4907 24.045 33.1355 22.7555C31.7803 21.466 30.0905 20.5825 28.2583 20.2053C26.4261 19.8282 24.5248 19.9726 22.7705 20.622C21.0162 21.2714 19.4792 22.3999 18.3342 23.8792C17.1892 25.3585 16.4821 27.1293 16.2933 28.9904C16.1044 30.8515 16.4414 32.7283 17.2659 34.4075C18.0904 36.0866 19.3693 37.5008 20.9574 38.4894C22.5455 39.4781 24.379 40.0014 26.2497 40H37.4997C39.1573 40 40.747 39.3415 41.9191 38.1694C43.0912 36.9973 43.7497 35.4076 43.7497 33.75C43.7497 32.0924 43.0912 30.5027 41.9191 29.3306C40.747 28.1585 39.1573 27.5 37.4997 27.5Z" stroke="white" stroke-width="2" stroke-linecap="round" stroke-linejoin="round"/>
<path fill-rule="evenodd" clip-rule="evenodd" d="M30.5 27C32.433 27 34 28.567 34 30.5V34H30.5C28.567 34 27 32.433 27 30.5C27 28.567 28.567 27 30.5 27Z" fill="white"/>
</svg>
