<svg width="400" height="400" viewBox="0 0 400 400" fill="none" xmlns="http://www.w3.org/2000/svg">
<path d="M81.0407 338.232C68.2426 329.199 57.7604 317.27 50.4487 303.416C4.72067 217.744 15.0487 91.4162 103.113 37.2321C143.817 12.1921 202.401 -3.65585 246.401 22.0561C282.081 42.9201 303.953 82.1921 322.049 117.92C333.417 140.392 342.785 164.576 356.801 185.6C374.977 212.864 394.985 249.28 374.785 280.96C347.257 324.112 295.265 343.816 248.121 356.792C196.969 370.864 139.449 372.856 92.2007 345.408C88.3767 343.184 84.6567 340.792 81.0407 338.232Z" fill="#6E6AF2"/>
<path d="M81.0407 338.232C68.2426 329.199 57.7604 317.27 50.4487 303.416C4.72067 217.744 15.0487 91.4162 103.113 37.2321C143.817 12.1921 202.401 -3.65585 246.401 22.0561C282.081 42.9201 303.953 82.1921 322.049 117.92C333.417 140.392 342.785 164.576 356.801 185.6C374.977 212.864 394.985 249.28 374.785 280.96C347.257 324.112 295.265 343.816 248.121 356.792C196.969 370.864 139.449 372.856 92.2007 345.408C88.3767 343.184 84.6567 340.792 81.0407 338.232Z" fill="white"/>
<path d="M149.513 195.2C148.579 195.338 147.626 195.197 146.773 194.795C145.919 194.394 145.203 193.75 144.713 192.944" stroke="#263238" stroke-linecap="round" stroke-linejoin="round"/>
<g opacity="0.3">
<path d="M26.3998 63.2002H92.7998V150.4H26.3998V63.2002Z" stroke="black" stroke-miterlimit="10"/>
<path d="M38.5842 79.2002H80.6162V134.4H38.5842V79.2002Z" stroke="black" stroke-miterlimit="10"/>
</g>
<path d="M27.2002 375.2H14.4002" stroke="#263238" stroke-linecap="round" stroke-linejoin="round"/>
<path d="M371.2 375.2H35.2002" stroke="#263238" stroke-linecap="round" stroke-linejoin="round"/>
<g opacity="0.3">
<path d="M290.84 35.5762H366.768V249.224H290.84V35.5762Z" stroke="black" stroke-miterlimit="10"/>
<path d="M366.359 42.0722H290.983L292.759 36.2002" stroke="black" stroke-miterlimit="10"/>
<path d="M366.359 49.184H290.983L292.759 43.312" stroke="black" stroke-miterlimit="10"/>
<path d="M366.359 56.2963H290.983L292.759 50.4243" stroke="black" stroke-miterlimit="10"/>
<path d="M366.359 63.4081H290.983L292.759 57.5361" stroke="black" stroke-miterlimit="10"/>
<path d="M366.359 70.52H290.983L292.759 64.6479" stroke="black" stroke-miterlimit="10"/>
<path d="M366.359 77.6403H290.983L292.759 71.7603" stroke="black" stroke-miterlimit="10"/>
<path d="M366.359 84.7521H290.983L292.759 78.8721" stroke="black" stroke-miterlimit="10"/>
<path d="M366.359 91.8642H290.983L292.759 85.9922" stroke="black" stroke-miterlimit="10"/>
<path d="M366.359 98.976H290.983L292.759 93.104" stroke="black" stroke-miterlimit="10"/>
<path d="M366.359 106.088H290.983L292.759 100.216" stroke="black" stroke-miterlimit="10"/>
<path d="M366.359 113.2H290.983L292.759 107.328" stroke="black" stroke-miterlimit="10"/>
<path d="M366.359 120.312H290.983L292.759 114.44" stroke="black" stroke-miterlimit="10"/>
<path d="M366.359 127.424H290.983L292.759 121.552" stroke="black" stroke-miterlimit="10"/>
<path d="M366.359 134.544H290.983L292.759 128.664" stroke="black" stroke-miterlimit="10"/>
<path d="M366.359 141.656H290.983L292.759 135.776" stroke="black" stroke-miterlimit="10"/>
<path d="M366.359 148.768H290.983L292.759 142.896" stroke="black" stroke-miterlimit="10"/>
<path d="M366.359 155.88H290.983L292.759 150.008" stroke="black" stroke-miterlimit="10"/>
<path d="M366.359 162.992H290.983L292.759 157.12" stroke="black" stroke-miterlimit="10"/>
<path d="M366.359 170.104H290.983L292.759 164.232" stroke="black" stroke-miterlimit="10"/>
<path d="M366.359 177.216H290.983L292.759 171.344" stroke="black" stroke-miterlimit="10"/>
<path d="M366.359 184.328H290.983L292.759 178.456" stroke="black" stroke-miterlimit="10"/>
<path d="M366.359 191.448H290.983L292.759 185.576" stroke="black" stroke-miterlimit="10"/>
<path d="M366.359 198.56H290.983L292.759 192.688" stroke="black" stroke-miterlimit="10"/>
<path d="M366.359 205.672H290.983L292.759 199.8" stroke="black" stroke-miterlimit="10"/>
<path d="M366.359 212.784H290.983L292.759 206.912" stroke="black" stroke-miterlimit="10"/>
<path d="M366.359 219.896H290.983L292.759 214.024" stroke="black" stroke-miterlimit="10"/>
<path d="M366.359 227.008H290.983L292.759 221.136" stroke="black" stroke-miterlimit="10"/>
<path d="M366.359 234.12H290.983L292.759 228.248" stroke="black" stroke-miterlimit="10"/>
<path d="M366.359 241.24H290.983L292.759 235.36" stroke="black" stroke-miterlimit="10"/>
<path d="M209.183 35.5762H285.111V249.224H209.183V35.5762Z" stroke="black" stroke-miterlimit="10"/>
<path d="M284.703 42.0722H209.335L211.103 36.2002" stroke="black" stroke-miterlimit="10"/>
<path d="M284.703 49.184H209.335L211.103 43.312" stroke="black" stroke-miterlimit="10"/>
<path d="M284.703 56.2963H209.335L211.103 50.4243" stroke="black" stroke-miterlimit="10"/>
<path d="M284.703 63.4081H209.335L211.103 57.5361" stroke="black" stroke-miterlimit="10"/>
<path d="M284.703 70.52H209.335L211.103 64.6479" stroke="black" stroke-miterlimit="10"/>
<path d="M284.703 77.6403H209.335L211.103 71.7603" stroke="black" stroke-miterlimit="10"/>
<path d="M284.703 84.7521H209.335L211.103 78.8721" stroke="black" stroke-miterlimit="10"/>
<path d="M284.703 91.8642H209.335L211.103 85.9922" stroke="black" stroke-miterlimit="10"/>
<path d="M284.703 98.976H209.335L211.103 93.104" stroke="black" stroke-miterlimit="10"/>
<path d="M284.703 106.088H209.335L211.103 100.216" stroke="black" stroke-miterlimit="10"/>
<path d="M284.703 113.2H209.335L211.103 107.328" stroke="black" stroke-miterlimit="10"/>
<path d="M284.703 120.312H209.335L211.103 114.44" stroke="black" stroke-miterlimit="10"/>
<path d="M284.703 127.424H209.335L211.103 121.552" stroke="black" stroke-miterlimit="10"/>
<path d="M284.703 134.544H209.335L211.103 128.664" stroke="black" stroke-miterlimit="10"/>
<path d="M284.703 141.656H209.335L211.103 135.776" stroke="black" stroke-miterlimit="10"/>
<path d="M284.703 148.768H209.335L211.103 142.896" stroke="black" stroke-miterlimit="10"/>
<path d="M284.703 155.88H209.335L211.103 150.008" stroke="black" stroke-miterlimit="10"/>
<path d="M284.703 162.992H209.335L211.103 157.12" stroke="black" stroke-miterlimit="10"/>
<path d="M284.703 170.104H209.335L211.103 164.232" stroke="black" stroke-miterlimit="10"/>
<path d="M284.703 177.216H209.335L211.103 171.344" stroke="black" stroke-miterlimit="10"/>
<path d="M284.703 184.328H209.335L211.103 178.456" stroke="black" stroke-miterlimit="10"/>
<path d="M284.703 191.448H209.335L211.103 185.576" stroke="black" stroke-miterlimit="10"/>
<path d="M284.703 198.56H209.335L211.103 192.688" stroke="black" stroke-miterlimit="10"/>
<path d="M284.703 205.672H209.335L211.103 199.8" stroke="black" stroke-miterlimit="10"/>
<path d="M284.703 212.784H209.335L211.103 206.912" stroke="black" stroke-miterlimit="10"/>
<path d="M284.703 219.896H209.335L211.103 214.024" stroke="black" stroke-miterlimit="10"/>
<path d="M284.703 227.008H209.335L211.103 221.136" stroke="black" stroke-miterlimit="10"/>
<path d="M284.703 234.12H209.335L211.103 228.248" stroke="black" stroke-miterlimit="10"/>
<path d="M284.703 241.24H209.335L211.103 235.36" stroke="black" stroke-miterlimit="10"/>
</g>
<path d="M104.24 20.7358H306.016V200.344H104.24V20.7358Z" fill="white" stroke="#263238" stroke-linecap="round" stroke-linejoin="round"/>
<path d="M104.24 20.7358H306.016V48.7998H104.24V20.7358Z" fill="#6E6AF2" stroke="#263238" stroke-linecap="round" stroke-linejoin="round"/>
<path d="M104.24 20.7358H111.84V200.344H104.24V20.7358Z" fill="#DBDBDB" stroke="#263238" stroke-linecap="round" stroke-linejoin="round"/>
<path d="M104.24 47.7358H111.84V82.3998H104.24V47.7358Z" fill="#949494" stroke="#263238" stroke-linecap="round" stroke-linejoin="round"/>
<path d="M104.24 20.7358H306.016V34.3758H104.24V20.7358Z" fill="#DBDBDB" stroke="#263238" stroke-linecap="round" stroke-linejoin="round"/>
<path d="M216.207 24.7197H295.783V30.3997H216.207V24.7197Z" fill="white" stroke="#263238" stroke-linecap="round" stroke-linejoin="round"/>
<path d="M116.151 24.9839H109.167" stroke="#263238" stroke-linecap="round" stroke-linejoin="round"/>
<path d="M116.151 27.936H109.167" stroke="#263238" stroke-linecap="round" stroke-linejoin="round"/>
<path d="M116.151 30.8877H109.167" stroke="#263238" stroke-linecap="round" stroke-linejoin="round"/>
<path d="M144.376 69.5996H272.376V74.3996H144.376V69.5996Z" fill="#DBDBDB" stroke="#A8A8A8" stroke-linecap="round" stroke-linejoin="round"/>
<path d="M208.912 69.5996H272.376V74.3996H208.912V69.5996Z" fill="#6E6AF2" stroke="#263238" stroke-linecap="round" stroke-linejoin="round"/>
<path d="M279.304 84.536C272.822 84.536 267.568 79.2816 267.568 72.8C267.568 66.3183 272.822 61.064 279.304 61.064C285.786 61.064 291.04 66.3183 291.04 72.8C291.04 79.2816 285.786 84.536 279.304 84.536Z" fill="#6E6AF2" stroke="#263238" stroke-linecap="round" stroke-linejoin="round"/>
<path d="M279.303 82.7757C273.794 82.7757 269.327 78.3093 269.327 72.7997C269.327 67.2901 273.794 62.8237 279.303 62.8237C284.813 62.8237 289.279 67.2901 289.279 72.7997C289.279 78.3093 284.813 82.7757 279.303 82.7757Z" fill="white" stroke="#263238" stroke-linecap="round" stroke-linejoin="round"/>
<path d="M208.375 84.536C201.894 84.536 196.639 79.2816 196.639 72.8C196.639 66.3183 201.894 61.064 208.375 61.064C214.857 61.064 220.111 66.3183 220.111 72.8C220.111 79.2816 214.857 84.536 208.375 84.536Z" fill="#6E6AF2" stroke="#263238" stroke-linecap="round" stroke-linejoin="round"/>
<path d="M208.376 82.7757C202.866 82.7757 198.4 78.3093 198.4 72.7997C198.4 67.2901 202.866 62.8237 208.376 62.8237C213.885 62.8237 218.352 67.2901 218.352 72.7997C218.352 78.3093 213.885 82.7757 208.376 82.7757Z" fill="white" stroke="#263238" stroke-linecap="round" stroke-linejoin="round"/>
<path d="M137.44 84.536C130.958 84.536 125.704 79.2816 125.704 72.8C125.704 66.3183 130.958 61.064 137.44 61.064C143.921 61.064 149.176 66.3183 149.176 72.8C149.176 79.2816 143.921 84.536 137.44 84.536Z" fill="#DBDBDB" stroke="#A8A8A8" stroke-linecap="round" stroke-linejoin="round"/>
<path d="M137.439 82.808C131.912 82.808 127.431 78.3273 127.431 72.8C127.431 67.2727 131.912 62.792 137.439 62.792C142.967 62.792 147.447 67.2727 147.447 72.8C147.447 78.3273 142.967 82.808 137.439 82.808Z" fill="white" stroke="#A8A8A8" stroke-linecap="round" stroke-linejoin="round"/>
<path d="M281.344 69.208C280.945 69.2541 280.544 69.1489 280.22 68.9134C279.895 68.6778 279.671 68.329 279.592 67.936H278.52V78.048H280.12V70.336H281.352L281.344 69.208Z" fill="#263238"/>
<path d="M208.879 69.264C209.383 69.264 209.679 69.536 209.679 70.264V71.344H211.199V70.4C211.199 68.8 210.399 67.856 208.799 67.856C207.199 67.856 206.399 68.784 206.399 70.4C206.399 73.6 209.559 74.768 209.559 76.432C209.567 76.5037 209.567 76.5762 209.559 76.648H206.559V78.088H211.199V76.8C211.199 73.824 208.047 73.328 208.047 70.4C208.055 69.512 208.375 69.264 208.879 69.264Z" fill="#263238"/>
<path d="M136.752 70.4C136.752 69.488 137.072 69.24 137.552 69.24C138.032 69.24 138.352 69.512 138.352 70.24V70.888H139.856V70.4C139.856 68.8 139.056 67.856 137.456 67.856C135.856 67.856 135.056 68.784 135.056 70.4V70.664C134.992 71.0843 135.065 71.514 135.266 71.889C135.466 72.2639 135.783 72.5639 136.168 72.744C135.817 72.9558 135.537 73.2677 135.364 73.6398C135.192 74.0119 135.135 74.4271 135.2 74.832V75.632C135.2 77.232 136 78.176 137.6 78.176C139.2 78.176 140 77.248 140 75.632V74.832H138.4V75.776C138.4 76.496 138.088 76.768 137.6 76.768C137.112 76.768 136.8 76.528 136.8 75.632V74.832C136.8 73.896 137.12 73.544 137.84 73.544H138.376V72.104H137.76C137.168 72.104 136.8 71.84 136.8 71.032L136.752 70.4Z" fill="#263238"/>
<path d="M228.84 112.512H288.432V121.728H228.84V112.512Z" fill="white" stroke="#263238" stroke-linecap="round" stroke-linejoin="round"/>
<path d="M156.08 112.512H215.672V121.728H156.08V112.512Z" fill="white" stroke="#263238" stroke-linecap="round" stroke-linejoin="round"/>
<path d="M188.016 130.624H288.432V139.84H188.016V130.624Z" fill="white" stroke="#263238" stroke-linecap="round" stroke-linejoin="round"/>
<path d="M188.016 148.072H288.432V157.288H188.016V148.072Z" fill="white" stroke="#263238" stroke-linecap="round" stroke-linejoin="round"/>
<path d="M285.968 96.1758C284.936 96.1758 284.416 96.7838 284.416 97.8638V98.0718H285.408V97.7918C285.408 97.3118 285.6 97.1278 285.936 97.1278C286.272 97.1278 286.464 97.3118 286.464 97.7918C286.464 99.1758 284.4 99.4318 284.4 101.352C284.4 102.424 284.936 103.04 286 103.04C287.064 103.04 287.6 102.424 287.6 101.352V100.944H286.6V101.424C286.6 101.904 286.392 102.072 286.056 102.072C285.72 102.072 285.504 101.904 285.504 101.424C285.504 100.04 287.568 99.7758 287.568 97.8638C287.52 96.7998 286.992 96.1758 285.968 96.1758Z" fill="#263238"/>
<path d="M284.104 96.248H280.8V97.2081H281.904V102.968H282.96V97.2081H284.064L284.104 96.248Z" fill="#263238"/>
<path d="M279.32 99.08H277.872V100.04H279.32V102.008H277.504V102.968H280.376V96.248H277.504V97.2081H279.32V99.08Z" fill="#263238"/>
<path d="M273.72 97.912V98.7841C273.72 99.8561 274.24 100.44 275.32 100.44H275.824V102.968H276.88V96.248H275.32C274.24 96.248 273.72 96.8 273.72 97.912ZM275.792 97.2081V99.48H275.288C274.952 99.48 274.776 99.328 274.776 98.848V97.8401C274.776 97.3601 274.952 97.2081 275.288 97.2081H275.792Z" fill="#263238"/>
<path d="M269.703 97.8959C269.703 97.2959 269.919 97.0959 270.247 97.0959C270.575 97.0959 270.799 97.2799 270.799 97.7599V98.1919H271.799V97.8319C271.833 97.61 271.816 97.3834 271.749 97.1692C271.682 96.955 271.567 96.759 271.413 96.5961C271.258 96.4332 271.069 96.3078 270.858 96.2294C270.648 96.151 270.423 96.1218 270.199 96.1439C269.159 96.1439 268.599 96.7519 268.599 97.8319V97.9999C268.556 98.2801 268.605 98.5668 268.74 98.8165C268.874 99.0663 269.086 99.2654 269.343 99.3839C269.088 99.5115 268.879 99.716 268.745 99.9685C268.612 100.221 268.561 100.509 268.599 100.792V101.32C268.599 102.392 269.135 103.008 270.199 103.008C270.423 103.03 270.648 103.001 270.858 102.922C271.069 102.844 271.258 102.719 271.413 102.556C271.567 102.393 271.682 102.197 271.749 101.983C271.816 101.768 271.833 101.542 271.799 101.32V100.8H270.799V101.424C270.799 101.904 270.583 102.08 270.247 102.08C269.911 102.08 269.703 101.92 269.703 101.328V100.8C269.703 100.176 269.919 99.9439 270.391 99.9439H270.751V98.9839H270.335C269.943 98.9839 269.703 98.8079 269.703 98.2719V97.8959Z" fill="#263238"/>
<path d="M218.775 100H210.775" stroke="#263238" stroke-miterlimit="10"/>
<path d="M248.376 100H222.376" stroke="#263238" stroke-miterlimit="10"/>
<path d="M259.976 100H251.976" stroke="#263238" stroke-miterlimit="10"/>
<path d="M288.903 174.136H136.375" stroke="#263238" stroke-linecap="round" stroke-linejoin="round"/>
<path d="M205.272 285.144L197.16 355.432L188.456 354.832L186.352 301.064L180.944 300.464L147 302.568C145.216 302.167 143.41 301.865 141.592 301.664C140.392 301.664 138.888 298.36 146.096 295.36C153.304 292.36 203.2 282.744 204.368 282.744C205.536 282.744 205.272 285.144 205.272 285.144Z" fill="#263238" stroke="#263238" stroke-linecap="round" stroke-linejoin="round"/>
<path d="M158.112 275.2C158.112 275.2 189.312 264.872 219.712 271.6C222.2 272.152 227.528 335.6 227.528 335.6L219.416 338L206.8 287.832C206.8 287.832 153.936 303.152 143.12 301.648C132.304 300.144 158.112 275.2 158.112 275.2Z" fill="#263238" stroke="#263238" stroke-linecap="round" stroke-linejoin="round"/>
<path d="M149.4 169.208C149.4 169.208 151.8 175.512 151.8 178.512C151.727 180.548 151.251 182.549 150.4 184.4C150.4 184.4 155.112 189.512 154.24 191.448C153.704 192.656 151.304 193.104 151.304 193.104C151.304 193.104 149.2 204.208 147.4 204.808C145.6 205.408 138.088 203.904 138.088 203.904L139.368 219.104L124.464 206.448L125.664 196.848C125.664 196.848 122.064 191.736 117.856 185.736C113.648 179.736 116.056 170.112 118.456 165.608C120.856 161.104 139.184 151.792 151.496 167.112L149.4 169.208Z" fill="#9C9C9C" stroke="#263238" stroke-linecap="round" stroke-linejoin="round"/>
<path d="M100.8 174.264C101.184 172.912 96.9444 172.528 98.4884 169.248C100.032 165.968 104.656 166.168 104.456 163.856C104.256 161.544 102.728 161.736 105.424 159.224C108.12 156.712 110.224 158.072 111.024 155.568C111.824 153.064 112.368 150.552 112.368 150.552L114.104 149.208C115.248 148.32 116.304 149.208 116.896 149.872C118.496 150.392 119.968 152.472 121.456 152.272C123.664 152 124.216 146.208 128.656 146.48C133.096 146.752 131.408 153.928 133.064 153.376C134.72 152.824 138.032 150.616 142.44 151.72C146.848 152.824 142.44 156.96 144.096 156.688C145.752 156.416 155.4 154.48 156.232 156.96C157.064 159.44 150.992 162.752 150.992 162.752C150.992 162.752 158.44 160.544 156.232 164.68C155.532 165.909 154.554 166.956 153.376 167.738C152.198 168.52 150.853 169.016 149.448 169.184C149.448 169.184 152.408 170.28 151.208 171.632C150.168 172.8 146.768 173.072 145.88 173.12L145.72 173.288C146.008 174.008 146.96 177.008 143.408 177.936C142.448 178.184 141.664 178.344 141.008 178.448L140.472 179.04C140.814 179.839 141.095 180.663 141.312 181.504C141.864 183.984 137.456 185.368 135.8 185.368C134.144 185.368 132.768 190.88 134.144 192.568C134.292 192.747 134.402 192.954 134.468 193.177C134.534 193.4 134.554 193.633 134.528 193.864C134.784 194.144 135 194.368 135.112 194.52C135.912 195.48 136.656 198.76 135.696 199.32C134.736 199.88 130.896 199.32 130.896 199.32C130.896 199.32 130.32 203.944 128.584 204.336C126.848 204.728 125.504 202.984 124.92 201.632C124.336 200.28 122.8 203.56 120.488 203.176C118.176 202.792 117.216 201.056 116.44 199.704C115.664 198.352 114.904 200.864 111.24 200.088C107.576 199.312 109.12 193.92 109.12 193.92C109.12 193.92 105.648 195.848 103.72 194.312C101.792 192.776 101.216 189.296 101.024 186.984C100.832 184.672 97.7444 187.56 97.7444 183.32C97.7444 179.08 100.4 175.608 100.8 174.264Z" fill="#263238"/>
<path d="M138.096 203.904L133.912 202.816L138.408 210.808L138.096 203.904Z" fill="#263238" stroke="#263238" stroke-linecap="round" stroke-linejoin="round"/>
<path d="M146.753 184.44C146.753 185.464 147.113 186.296 147.553 186.296C147.993 186.296 148.353 185.496 148.353 184.44C148.353 183.384 147.993 182.592 147.553 182.592C147.113 182.592 146.753 183.424 146.753 184.44Z" fill="#263238"/>
<path d="M148.601 179.816C148.601 179.816 147.001 179.128 145.137 180.744" stroke="#263238" stroke-linecap="round" stroke-linejoin="round"/>
<path d="M148.712 245.648L181.04 248.264L191.44 247.296C191.44 247.296 205.752 252.16 202.96 253.096C200.979 253.628 198.89 253.606 196.92 253.032C194.229 254.1 191.367 254.669 188.472 254.712C186.12 254.689 183.779 254.374 181.504 253.776L145.44 259.2L148.712 245.648Z" fill="#263238" stroke="#263238" stroke-linecap="round" stroke-linejoin="round"/>
<path d="M125.072 204.648C125.072 204.648 143.696 222.672 146.672 227.176C149.648 231.68 150.872 235.584 150.872 239.488C150.872 243.392 148.168 252.104 148.168 252.104L151.776 265.024L162.288 274.624L145.768 301.024C145.768 301.024 138.256 302.528 133.152 299.528C128.048 296.528 124.8 283.648 124.8 277.336C124.8 271.024 126 257.512 126 257.512C126 257.512 119.088 235.912 116.984 227.776C114.88 219.64 114.584 212.456 116.688 208.576C118.792 204.696 122.072 202.544 125.072 204.648Z" fill="white" stroke="#263238" stroke-linecap="round" stroke-linejoin="round"/>
<path d="M146.704 227.2C147.304 228.096 147.857 229.022 148.36 229.976C140.464 231.072 129.656 232.76 119.008 235.024C118.592 233.616 118.208 232.28 117.856 231.024C127.904 228.88 138.088 227.248 145.928 226.128C146.24 226.536 146.504 226.88 146.704 227.2Z" fill="#6E6AF2" stroke="#263238" stroke-linecap="round" stroke-linejoin="round"/>
<path d="M116.712 226.76C116.376 225.384 116.096 224.032 115.872 222.72L137.624 217.12C138.76 218.28 139.864 219.432 140.912 220.528L116.712 226.76Z" fill="#6E6AF2" stroke="#263238" stroke-linecap="round" stroke-linejoin="round"/>
<path d="M125.456 255.888L124.184 251.848C132.072 251.272 140.736 250.624 148.816 250.008C148.464 251.272 148.2 252.104 148.2 252.104L148.768 254.144C141.128 254.728 132.976 255.336 125.456 255.888Z" fill="#6E6AF2" stroke="#263238" stroke-linecap="round" stroke-linejoin="round"/>
<path d="M115.361 218.744C115.233 217.31 115.204 215.87 115.273 214.432L130.113 209.6L133.393 212.864L115.361 218.744Z" fill="#6E6AF2" stroke="#263238" stroke-linecap="round" stroke-linejoin="round"/>
<path d="M134.745 300.32C141.369 295.032 149.841 288.32 157.729 281.976L151.153 292.504L140.001 301.4C138.202 301.32 136.428 300.956 134.745 300.32Z" fill="#6E6AF2" stroke="#263238" stroke-linecap="round" stroke-linejoin="round"/>
<path d="M125.736 260.32C134.256 260.184 142.992 259.952 150.288 259.584L151.424 263.656C143.744 264.064 134.44 264.312 125.416 264.456C125.536 262.896 125.648 261.472 125.736 260.32Z" fill="#6E6AF2" stroke="#263238" stroke-linecap="round" stroke-linejoin="round"/>
<path d="M150.48 235.576C150.762 236.861 150.904 238.173 150.904 239.488V239.688C142.424 239.944 131.784 240.856 121.12 242C120.704 240.648 120.32 239.296 119.896 238C130.752 236.8 141.672 235.848 150.48 235.576Z" fill="#6E6AF2" stroke="#263238" stroke-linecap="round" stroke-linejoin="round"/>
<path d="M151.152 276.8C154.28 275.352 157.296 273.96 160.136 272.664L162.32 274.656L160.968 276.816L152.888 280.536C144.512 284.226 135.936 287.444 127.2 290.176C126.752 288.88 126.352 287.536 126.024 286.176C134.496 283.464 143.952 280.112 151.152 276.8Z" fill="#6E6AF2" stroke="#263238" stroke-linecap="round" stroke-linejoin="round"/>
<path d="M124.8 277.336C124.8 276.392 124.8 275.28 124.872 274.072C134.803 272.406 144.621 270.129 154.272 267.256L157.824 270.496C147.009 273.812 135.984 276.405 124.824 278.256C124.8 277.936 124.8 277.6 124.8 277.336Z" fill="#6E6AF2" stroke="#263238" stroke-linecap="round" stroke-linejoin="round"/>
<path d="M197.16 355.432L207.376 366.848C207.376 366.848 215.184 369.248 216.384 370.456C217.584 371.664 215.184 372.256 212.184 373.456C209.184 374.656 198.064 372.856 194.456 372.552C190.848 372.248 187.552 372.552 186.352 369.552C185.152 366.552 186.352 363.24 186.648 362.04C186.944 360.84 188.456 354.84 188.456 354.84L197.16 355.432Z" fill="#9C9C9C" stroke="#263238" stroke-linecap="round" stroke-linejoin="round"/>
<path d="M207.888 367.008C209.616 367.56 215.368 369.408 216.384 370.456C217.584 371.656 215.184 372.256 212.184 373.456C209.184 374.656 198.064 372.856 194.456 372.552C190.848 372.248 187.552 372.552 186.352 369.552C185.152 366.552 186.352 363.24 186.648 362.04C186.648 361.904 186.736 361.704 186.792 361.456C192.04 364.744 200.96 368.352 202.872 368.352C204.602 368.163 206.294 367.709 207.888 367.008Z" fill="#6E6AF2" stroke="#263238" stroke-linecap="round" stroke-linejoin="round"/>
<path d="M227.504 335.608C227.504 335.608 239.2 348.528 240.72 350.328C242.24 352.128 246.72 352.728 246.424 354.832C246.128 356.936 241.32 356.336 239.224 356.032C237.128 355.728 223.904 352.432 222.104 351.832C220.304 351.232 217.896 350.328 217.592 347.624C217.288 344.92 219.4 338.024 219.4 338.024L227.504 335.608Z" fill="#9C9C9C" stroke="#263238" stroke-linecap="round" stroke-linejoin="round"/>
<path d="M217.6 347.624C217.416 345.936 218.168 342.616 218.752 340.352C221.704 341.792 224.552 345.688 226.016 346.424C227.816 347.32 241.632 351.832 241.632 351.832L242.264 351.472C244.152 352.512 246.664 353.248 246.44 354.832C246.136 356.936 241.336 356.336 239.24 356.032C237.144 355.728 223.92 352.432 222.12 351.832C220.32 351.232 217.888 350.328 217.6 347.624Z" fill="#6E6AF2" stroke="#263238" stroke-linecap="round" stroke-linejoin="round"/>
<path d="M118.592 207.632C121.2 206.184 126.416 208.792 128.152 211.688L130.464 220.376L138.864 248.472L181.04 248.264C181.04 248.264 192.976 245.632 194.712 245.672C196.448 245.712 205.304 251.416 205.288 252.28C205.272 253.144 202.952 253.08 202.952 253.08L198.904 252.704L194.576 251.736C194.576 251.736 190.792 252.808 189.048 252.768C187.588 252.671 186.14 252.447 184.72 252.096C184.72 252.096 139.16 262.4 136.264 262.4C133.368 262.4 130.176 261.528 129.016 259.504C127.856 257.48 115.696 227.352 115.12 220.688C114.544 214.024 116 209.08 118.592 207.632Z" fill="#9C9C9C" stroke="#263238" stroke-linecap="round" stroke-linejoin="round"/>
<path d="M202.68 252.616C202.68 252.616 195.96 249.024 195.216 248.88" stroke="#263238" stroke-linecap="round" stroke-linejoin="round"/>
<path d="M196.256 246.936C196.256 246.936 203.88 251.272 204.328 252.912" stroke="#263238" stroke-linecap="round" stroke-linejoin="round"/>
<path d="M105.6 212L110.4 211.728C110.4 211.728 122.76 247.464 124.376 260.896C125.992 274.328 125.448 285.608 124.64 289.368C123.832 293.128 119.536 300.384 119.536 300.384L114.168 301.728C114.168 301.728 119.768 287.216 120.072 283.192C120.376 279.168 119.648 263.192 119.272 261.16C116.328 245.6 105.6 212 105.6 212Z" fill="#6E6E6E" stroke="#263238" stroke-linecap="round" stroke-linejoin="round"/>
<path d="M148.8 349.024C148.8 349.024 175.432 362.456 176 365.408C176.301 367.635 176.301 369.893 176 372.12L175.056 371.184L172.504 365.136L148.6 353.856L148.8 349.024Z" fill="#6E6E6E" stroke="#263238" stroke-linecap="round" stroke-linejoin="round"/>
<path d="M171.128 371.048C171.126 371.634 171.299 372.207 171.623 372.695C171.947 373.183 172.409 373.563 172.95 373.789C173.49 374.014 174.086 374.074 174.66 373.96C175.235 373.847 175.763 373.566 176.178 373.152C176.593 372.738 176.876 372.211 176.99 371.637C177.105 371.062 177.047 370.467 176.823 369.925C176.599 369.384 176.22 368.921 175.733 368.596C175.246 368.27 174.674 368.096 174.088 368.096C173.304 368.096 172.553 368.407 171.998 368.96C171.443 369.514 171.13 370.265 171.128 371.048Z" fill="#263238" stroke="#263238" stroke-linecap="round" stroke-linejoin="round"/>
<path d="M141.048 349.024C141.048 349.024 114.448 362.456 113.913 365.408C113.612 367.635 113.612 369.893 113.913 372.12L114.856 371.2L117.408 365.152L141.312 353.872L141.048 349.024Z" fill="#6E6E6E" stroke="#263238" stroke-linecap="round" stroke-linejoin="round"/>
<path d="M118.744 371.048C118.744 371.632 118.571 372.203 118.247 372.688C117.922 373.174 117.461 373.552 116.922 373.775C116.382 373.999 115.789 374.057 115.216 373.943C114.644 373.83 114.118 373.548 113.705 373.136C113.292 372.723 113.011 372.197 112.897 371.624C112.783 371.051 112.841 370.458 113.065 369.919C113.288 369.379 113.667 368.918 114.152 368.594C114.638 368.269 115.208 368.096 115.792 368.096C116.574 368.098 117.324 368.41 117.877 368.963C118.43 369.516 118.742 370.266 118.744 371.048Z" fill="#263238" stroke="#263238" stroke-linecap="round" stroke-linejoin="round"/>
<path d="M143.192 305.232H147.488V351.976H143.192V305.232Z" fill="#263238" stroke="#263238" stroke-linecap="round" stroke-linejoin="round"/>
<path d="M138.897 309.8H151.521V318.4H138.897V309.8Z" fill="#263238" stroke="#263238" stroke-linecap="round" stroke-linejoin="round"/>
<path d="M115.2 301.144C124.504 300.168 154.472 297.568 181.344 301.144C181.573 301.179 181.787 301.276 181.962 301.426C182.137 301.577 182.267 301.773 182.336 301.993C182.405 302.213 182.411 302.448 182.353 302.671C182.295 302.895 182.176 303.097 182.008 303.256C179.152 305.952 171.224 310.848 150.704 312.192C129.504 313.584 118.704 307.072 114.456 303.568C114.256 303.391 114.111 303.16 114.038 302.903C113.966 302.645 113.969 302.372 114.047 302.116C114.126 301.861 114.276 301.633 114.481 301.461C114.685 301.288 114.935 301.178 115.2 301.144Z" fill="#6E6E6E" stroke="#263238" stroke-linecap="round" stroke-linejoin="round"/>
<path d="M182.04 303.256L181.984 303.304C181.766 303.506 181.481 303.62 181.184 303.624H114.536H114.488C114.278 303.449 114.125 303.217 114.048 302.955C113.97 302.693 113.971 302.415 114.052 302.154C114.132 301.893 114.288 301.662 114.499 301.49C114.71 301.317 114.968 301.211 115.24 301.184C124.552 300.208 154.512 297.608 181.376 301.184C181.597 301.221 181.804 301.319 181.974 301.466C182.144 301.613 182.27 301.804 182.339 302.018C182.408 302.232 182.416 302.461 182.363 302.679C182.31 302.897 182.198 303.097 182.04 303.256Z" fill="#263238" stroke="#263238" stroke-linecap="round" stroke-linejoin="round"/>
<path d="M140.24 344.72H150.176V355.2H140.24V344.72Z" fill="#263238" stroke="#263238" stroke-linecap="round" stroke-linejoin="round"/>
<path d="M144.8 349.96H146.28V374H144.8V349.96Z" fill="#6E6E6E" stroke="#263238" stroke-linecap="round" stroke-linejoin="round"/>
<path d="M144.256 367.736H146.856V374.032H144.256V367.736Z" fill="#263238" stroke="#263238" stroke-linecap="round" stroke-linejoin="round"/>
<path d="M135.137 303.624H141.049L144.809 267.624H140.777L135.137 303.624Z" fill="#6E6E6E" stroke="#263238" stroke-linecap="round" stroke-linejoin="round"/>
<path d="M124.928 270.04H165.488C165.488 270.04 162.536 264.672 160.688 264.136C158.84 263.6 128.184 264.136 128.184 264.136C128.184 264.136 124.928 265.208 124.928 270.04Z" fill="#263238" stroke="#263238" stroke-linecap="round" stroke-linejoin="round"/>
<path d="M165.488 270.04H124.928C124.93 269.59 124.962 269.141 125.024 268.696H164.696C165.176 269.48 165.488 270.04 165.488 270.04Z" fill="#6E6E6E" stroke="#263238" stroke-linecap="round" stroke-linejoin="round"/>
<path d="M291.201 262.792L286.625 274.576C285.025 277.92 284.369 283.608 284.801 287.296L295.537 372.416C295.565 372.644 295.544 372.876 295.477 373.096C295.41 373.316 295.297 373.519 295.146 373.693C294.996 373.866 294.81 374.006 294.601 374.103C294.393 374.2 294.166 374.252 293.937 374.256C293.554 374.261 293.183 374.13 292.889 373.884C292.596 373.639 292.4 373.297 292.337 372.92L271.825 263.928H279.345L280.665 270.2C280.715 270.427 280.839 270.631 281.017 270.781C281.195 270.931 281.417 271.019 281.649 271.031C281.881 271.043 282.111 270.978 282.303 270.847C282.495 270.716 282.639 270.525 282.713 270.304L285.249 262.304L291.201 262.792Z" fill="white" stroke="#263238" stroke-linecap="round" stroke-linejoin="round"/>
<path d="M280.08 267.432H272.488L271.824 263.928H279.344L280.08 267.432Z" fill="#263238" stroke="#263238" stroke-linecap="round" stroke-linejoin="round"/>
<path d="M285.248 262.32L291.24 262.792L289.44 267.432H283.624L285.248 262.32Z" fill="#263238" stroke="#263238" stroke-linecap="round" stroke-linejoin="round"/>
<path d="M175.704 262.792L180.28 274.576C181.88 277.92 182.544 283.608 182.112 287.296L171.368 372.416C171.34 372.644 171.36 372.876 171.427 373.096C171.495 373.316 171.607 373.519 171.758 373.693C171.909 373.866 172.095 374.006 172.303 374.103C172.512 374.2 172.738 374.252 172.968 374.256C173.35 374.261 173.722 374.13 174.016 373.884C174.309 373.639 174.505 373.297 174.568 372.92L195.12 263.928H187.6L186.28 270.2C186.232 270.429 186.11 270.635 185.933 270.786C185.756 270.938 185.533 271.027 185.3 271.039C185.067 271.051 184.837 270.985 184.645 270.852C184.453 270.719 184.311 270.527 184.24 270.304L181.696 262.304L175.704 262.792Z" fill="white" stroke="#263238" stroke-linecap="round" stroke-linejoin="round"/>
<path d="M187.6 263.928H195.12L194.456 267.432H186.864L187.6 263.928Z" fill="#263238" stroke="#263238" stroke-linecap="round" stroke-linejoin="round"/>
<path d="M183.32 267.432H177.504L175.704 262.792L181.696 262.32L183.32 267.432Z" fill="#263238" stroke="#263238" stroke-linecap="round" stroke-linejoin="round"/>
<path d="M167.104 256.904H299.272V263.888H167.104V256.904Z" fill="white" stroke="#263238" stroke-linecap="round" stroke-linejoin="round"/>
<path d="M176.905 254.936H210.681V256.952H176.905V254.936Z" fill="white" stroke="#263238" stroke-linecap="round" stroke-linejoin="round"/>
<path d="M231.032 256.504H245.768C247.018 256.504 248.22 256.024 249.127 255.164C250.033 254.303 250.575 253.128 250.64 251.88C250.67 251.34 250.607 250.799 250.456 250.28L241.224 223.728C241.131 223.459 240.935 223.237 240.678 223.113C240.421 222.988 240.126 222.971 239.856 223.064C239.587 223.157 239.366 223.354 239.241 223.611C239.117 223.867 239.099 224.163 239.192 224.432L248.408 250.928C248.485 251.207 248.515 251.496 248.496 251.784C248.458 252.482 248.153 253.138 247.646 253.618C247.139 254.099 246.467 254.367 245.768 254.368H231.032C230.763 254.391 230.512 254.515 230.329 254.714C230.147 254.913 230.045 255.174 230.045 255.444C230.045 255.714 230.147 255.975 230.329 256.174C230.512 256.373 230.763 256.497 231.032 256.52V256.504Z" fill="#263238" stroke="#263238" stroke-linecap="round" stroke-linejoin="round"/>
<path d="M234.841 187.376L218.569 249.68L220.345 251.016C220.345 251.016 240.801 234.992 240.801 221.6C240.801 208.208 237.241 187.768 237.241 187.768L234.841 187.376Z" fill="white" stroke="#263238" stroke-linecap="round" stroke-linejoin="round"/>
<path d="M234.841 187.376L237.265 187.8L220.345 251.016L218.569 249.68L234.841 187.376Z" fill="#263238" stroke="#263238" stroke-linecap="round" stroke-linejoin="round"/>
<path d="M279.888 244.32C279.888 244.32 285.664 235.072 281.04 229.872C276.416 224.672 268.904 227.2 267.368 232C265.832 236.8 269.096 244.904 269.096 244.904L279.888 244.32Z" fill="#6E6AF2" stroke="#263238" stroke-linecap="round" stroke-linejoin="round"/>
<path d="M279.688 233.728C280.656 233.728 284.312 232.376 285.472 230.64C286.632 228.904 286.816 225.04 283.544 225.04C280.272 225.04 279.112 230.824 279.112 230.824L278.92 232.936" fill="#6E6AF2"/>
<path d="M279.688 233.728C280.656 233.728 284.312 232.376 285.472 230.64C286.632 228.904 286.816 225.04 283.544 225.04C280.272 225.04 279.112 230.824 279.112 230.824L278.92 232.936" stroke="#263238" stroke-linecap="round" stroke-linejoin="round"/>
<path d="M276.729 230.128C277.593 229.696 280.265 226.856 280.529 224.792C280.793 222.728 279.241 219.192 276.305 220.648C273.369 222.104 274.921 227.8 274.921 227.8L275.721 229.784" fill="#6E6AF2"/>
<path d="M276.729 230.128C277.593 229.696 280.265 226.856 280.529 224.792C280.793 222.728 279.241 219.192 276.305 220.648C273.369 222.104 274.921 227.8 274.921 227.8L275.721 229.784" stroke="#263238" stroke-linecap="round" stroke-linejoin="round"/>
<path d="M273.232 231.096C273.712 230.296 274.36 226.416 273.432 224.552C272.504 222.688 269.248 220.608 267.624 223.448C266 226.288 270.4 230.16 270.4 230.16L272.144 231.384" fill="#6E6AF2"/>
<path d="M273.232 231.096C273.712 230.296 274.36 226.416 273.432 224.552C272.504 222.688 269.248 220.608 267.624 223.448C266 226.288 270.4 230.16 270.4 230.16L272.144 231.384" stroke="#263238" stroke-linecap="round" stroke-linejoin="round"/>
<path d="M272.081 238C272.241 237.048 271.521 233.2 270.001 231.792C268.481 230.384 264.713 229.536 264.169 232.768C263.625 236 269.137 238.088 269.137 238.088L271.193 238.632" fill="#6E6AF2"/>
<path d="M272.081 238C272.241 237.048 271.521 233.2 270.001 231.792C268.481 230.384 264.713 229.536 264.169 232.768C263.625 236 269.137 238.088 269.137 238.088L271.193 238.632" stroke="#263238" stroke-linecap="round" stroke-linejoin="round"/>
<path d="M285.049 228.32L284.401 229.344" stroke="white" stroke-linecap="round" stroke-linejoin="round"/>
<path d="M283.192 230.832L282.168 231.664" stroke="white" stroke-linecap="round" stroke-linejoin="round"/>
<path d="M284.305 226.368L283.281 227.856" stroke="white" stroke-linecap="round" stroke-linejoin="round"/>
<path d="M281.889 229.064L280.769 231.104" stroke="white" stroke-linecap="round" stroke-linejoin="round"/>
<path d="M279.288 224.136L278.912 225.256" stroke="white" stroke-linecap="round" stroke-linejoin="round"/>
<path d="M277.984 227.296L277.336 228.224" stroke="white" stroke-linecap="round" stroke-linejoin="round"/>
<path d="M278.265 221.904L277.425 223.768" stroke="white" stroke-linecap="round" stroke-linejoin="round"/>
<path d="M281.513 235.008L281.241 236.688" stroke="white" stroke-linecap="round" stroke-linejoin="round"/>
<path d="M280.681 238.264L280.305 239.656" stroke="white" stroke-linecap="round" stroke-linejoin="round"/>
<path d="M279.753 235.104L279.377 236.96" stroke="white" stroke-linecap="round" stroke-linejoin="round"/>
<path d="M278.545 238.264L278.265 239.656" stroke="white" stroke-linecap="round" stroke-linejoin="round"/>
<path d="M277.889 232.688L277.337 235.288" stroke="white" stroke-linecap="round" stroke-linejoin="round"/>
<path d="M276.593 237.8L276.497 239.008" stroke="white" stroke-linecap="round" stroke-linejoin="round"/>
<path d="M275.568 231.848L275.104 234.264" stroke="white" stroke-linecap="round" stroke-linejoin="round"/>
<path d="M275.104 236.776L274.92 239.288" stroke="white" stroke-linecap="round" stroke-linejoin="round"/>
<path d="M272.872 232.784V234.824" stroke="white" stroke-linecap="round" stroke-linejoin="round"/>
<path d="M273.152 237.424L273.056 239.008" stroke="white" stroke-linecap="round" stroke-linejoin="round"/>
<path d="M270.545 223.112L271.017 224.232" stroke="white" stroke-linecap="round" stroke-linejoin="round"/>
<path d="M271.2 225.528L271.664 227.112" stroke="white" stroke-linecap="round" stroke-linejoin="round"/>
<path d="M268.504 225.256L269.248 226.736" stroke="white" stroke-linecap="round" stroke-linejoin="round"/>
<path d="M270.824 228.416L271.664 229.344" stroke="white" stroke-linecap="round" stroke-linejoin="round"/>
<path d="M272.592 225.16L272.872 226.368" stroke="white" stroke-linecap="round" stroke-linejoin="round"/>
<path d="M268.504 231.848L269.528 233.528" stroke="white" stroke-linecap="round" stroke-linejoin="round"/>
<path d="M270.176 234.544L270.736 236.032" stroke="white" stroke-linecap="round" stroke-linejoin="round"/>
<path d="M269.337 236.776L267.665 235.848" stroke="white" stroke-linecap="round" stroke-linejoin="round"/>
<path d="M266.648 231.848L267.48 233.248" stroke="white" stroke-linecap="round" stroke-linejoin="round"/>
<path d="M265.809 233.432L266.921 234.264" stroke="white" stroke-linecap="round" stroke-linejoin="round"/>
<path d="M267.009 241.096H282.809V256.896H267.009V241.096Z" fill="#263238" stroke="#263238" stroke-linecap="round" stroke-linejoin="round"/>
<path d="M86.6162 258.992L77.4562 346.816" stroke="#263238" stroke-width="2" stroke-miterlimit="10"/>
<path d="M78.9279 330.008L83.0879 325.624" stroke="#263238" stroke-width="2" stroke-miterlimit="10"/>
<path d="M81.8233 326.936C81.8308 326.265 81.9826 325.603 82.2683 324.996C82.554 324.389 82.9671 323.85 83.4794 323.416C84.5434 322.456 90.1594 320.096 90.6794 322.072C91.2714 324.224 85.5193 328.448 81.8233 326.936Z" fill="#6E6AF2" stroke="#263238" stroke-miterlimit="10"/>
<path d="M81.824 326.936L87.168 323.608" stroke="#263238" stroke-width="0.5" stroke-miterlimit="10"/>
<path d="M77.888 340L82.04 335.608" stroke="#263238" stroke-width="2" stroke-miterlimit="10"/>
<path d="M80.8003 336.928C80.8077 336.256 80.9586 335.594 81.2428 334.986C81.527 334.377 81.938 333.837 82.4483 333.4C83.5203 332.448 89.1283 330.088 89.6483 332.064C90.2243 334.216 84.4803 338.44 80.8003 336.928Z" fill="#6E6AF2" stroke="#263238" stroke-miterlimit="10"/>
<path d="M80.7839 336.928L86.1279 333.592" stroke="#263238" stroke-width="0.5" stroke-miterlimit="10"/>
<path d="M81.4718 305.64L85.6318 301.248" stroke="#263238" stroke-width="2" stroke-miterlimit="10"/>
<path d="M84.3683 302.56C84.3763 301.889 84.5282 301.228 84.8139 300.62C85.0996 300.013 85.5124 299.474 86.0243 299.04C87.0883 298.088 92.7043 295.72 93.2243 297.704C93.8163 299.848 88.0643 304.072 84.3683 302.56Z" fill="#6E6AF2" stroke="#263238" stroke-miterlimit="10"/>
<path d="M84.3679 302.56L89.7119 299.232" stroke="#263238" stroke-width="0.5" stroke-miterlimit="10"/>
<path d="M80.432 315.624L84.584 311.24" stroke="#263238" stroke-width="2" stroke-miterlimit="10"/>
<path d="M83.328 312.552C83.3354 311.88 83.4863 311.218 83.7705 310.61C84.0548 310.001 84.4657 309.461 84.976 309.024C86.048 308.072 91.656 305.712 92.176 307.688C92.8 309.84 87.024 314.064 83.328 312.552Z" fill="#6E6AF2" stroke="#263238" stroke-miterlimit="10"/>
<path d="M83.3279 312.552L88.6719 309.224" stroke="#263238" stroke-width="0.5" stroke-miterlimit="10"/>
<path d="M83.1673 289.408L87.3193 285.024" stroke="#263238" stroke-width="2" stroke-miterlimit="10"/>
<path d="M86.0637 286.336C86.0711 285.665 86.222 285.002 86.5062 284.394C86.7905 283.785 87.2015 283.245 87.7117 282.808C88.7837 281.856 94.3917 279.496 94.9117 281.472C95.5037 283.624 89.7597 287.848 86.0637 286.336Z" fill="#6E6AF2" stroke="#263238" stroke-miterlimit="10"/>
<path d="M86.0642 286.336L91.4082 283.008" stroke="#263238" stroke-width="0.5" stroke-miterlimit="10"/>
<path d="M84.8714 273.112L89.0234 268.728" stroke="#263238" stroke-width="2" stroke-miterlimit="10"/>
<path d="M87.7598 270.04C87.7677 269.368 87.9196 268.705 88.2053 268.097C88.4909 267.488 88.9037 266.948 89.4158 266.512C90.4798 265.56 96.0958 263.2 96.6158 265.176C97.2078 267.328 91.4638 271.552 87.7598 270.04Z" fill="#6E6AF2" stroke="#263238" stroke-miterlimit="10"/>
<path d="M87.7595 270.04L93.1035 266.712" stroke="#263238" stroke-width="0.5" stroke-miterlimit="10"/>
<path d="M79.6318 324.104L76.4718 318.952" stroke="#263238" stroke-width="2" stroke-miterlimit="10"/>
<path d="M77.4317 320.496C77.563 319.838 77.5517 319.158 77.3986 318.504C77.2454 317.85 76.9539 317.236 76.5437 316.704C75.6957 315.552 70.6877 312.08 69.7597 313.912C68.7517 315.896 73.5037 321.208 77.4317 320.496Z" fill="#6E6AF2" stroke="#263238" stroke-miterlimit="10"/>
<path d="M77.4316 320.496L72.6236 315.896" stroke="#263238" stroke-width="0.5" stroke-miterlimit="10"/>
<path d="M82.376 297.816L79.216 292.664" stroke="#263238" stroke-width="2" stroke-miterlimit="10"/>
<path d="M80.1758 294.208C80.3072 293.549 80.2959 292.87 80.1427 292.216C79.9895 291.562 79.698 290.948 79.2878 290.416C78.4398 289.264 73.4318 285.8 72.5038 287.624C71.4958 289.6 76.2398 294.928 80.1758 294.208Z" fill="#6E6AF2" stroke="#263238" stroke-miterlimit="10"/>
<path d="M80.1758 294.208L75.3678 289.608" stroke="#263238" stroke-width="0.5" stroke-miterlimit="10"/>
<path d="M83.5762 286.264L80.4162 281.112" stroke="#263238" stroke-width="2" stroke-miterlimit="10"/>
<path d="M81.3838 282.656C81.5128 281.998 81.4996 281.32 81.3451 280.667C81.1906 280.015 80.8982 279.403 80.4878 278.872C79.6478 277.712 74.6398 274.248 73.7118 276.072C72.6958 278.056 77.4478 283.376 81.3838 282.656Z" fill="#6E6AF2" stroke="#263238" stroke-miterlimit="10"/>
<path d="M81.3838 282.656L76.5678 278.056" stroke="#263238" stroke-width="0.5" stroke-miterlimit="10"/>
<path d="M85.3438 269.328L82.1838 264.176" stroke="#263238" stroke-width="2" stroke-miterlimit="10"/>
<path d="M83.1514 265.72C83.2804 265.062 83.2672 264.384 83.1127 263.731C82.9581 263.078 82.6659 262.466 82.2554 261.936C81.4154 260.784 76.4074 257.312 75.4794 259.136C74.4634 261.12 79.1994 266.44 83.1514 265.72Z" fill="#6E6AF2" stroke="#263238" stroke-miterlimit="10"/>
<path d="M83.1514 265.72L78.3354 261.128" stroke="#263238" stroke-width="0.5" stroke-miterlimit="10"/>
<path d="M86.6958 258.504C86.8276 257.846 86.8166 257.166 86.6634 256.512C86.5102 255.858 86.2184 255.244 85.8078 254.712C84.9598 253.56 79.9518 250.088 79.0238 251.912C78.0158 253.896 82.7598 259.2 86.6958 258.504Z" fill="#6E6AF2" stroke="#263238" stroke-miterlimit="10"/>
<path d="M86.6963 258.504L81.8883 253.904" stroke="#263238" stroke-width="0.5" stroke-miterlimit="10"/>
<path d="M86.4002 258.696C87.0694 258.758 87.7439 258.675 88.3786 258.454C89.0134 258.234 89.5935 257.88 90.0802 257.416C91.1362 256.456 94.0802 251.112 92.1522 250.376C90.0882 249.6 85.2962 254.864 86.4002 258.696Z" fill="#6E6AF2" stroke="#263238" stroke-miterlimit="10"/>
<path d="M86.4163 258.696L90.4883 253.432" stroke="#263238" stroke-width="0.5" stroke-miterlimit="10"/>
<path d="M62.4396 271.088L71.5596 358.92" stroke="#263238" stroke-width="2" stroke-miterlimit="10"/>
<path d="M69.5441 342.168L72.7041 337.016" stroke="#263238" stroke-width="2" stroke-miterlimit="10"/>
<path d="M71.7437 338.568C71.6118 337.909 71.6228 337.23 71.776 336.576C71.9292 335.921 72.221 335.308 72.6317 334.776C73.4797 333.624 78.4877 330.16 79.4157 331.984C80.4237 333.968 75.6717 339.28 71.7437 338.568Z" fill="#6E6AF2" stroke="#263238" stroke-miterlimit="10"/>
<path d="M71.7441 338.568L76.2881 334.208" stroke="#263238" stroke-width="0.5" stroke-miterlimit="10"/>
<path d="M67.0158 317.792L70.1758 312.64" stroke="#263238" stroke-width="2" stroke-miterlimit="10"/>
<path d="M69.2074 314.192C69.0782 313.533 69.0913 312.853 69.2458 312.199C69.4003 311.545 69.6927 310.932 70.1034 310.4C70.9514 309.248 75.9593 305.784 76.8873 307.608C77.8953 309.6 73.1434 314.904 69.2074 314.192Z" fill="#6E6AF2" stroke="#263238" stroke-miterlimit="10"/>
<path d="M69.208 314.192L73.752 309.832" stroke="#263238" stroke-width="0.5" stroke-miterlimit="10"/>
<path d="M68.0478 327.784L71.2158 322.632" stroke="#263238" stroke-width="2" stroke-miterlimit="10"/>
<path d="M70.2475 324.176C70.1162 323.517 70.1283 322.837 70.2829 322.183C70.4375 321.528 70.731 320.915 71.1435 320.384C71.9915 319.24 76.9915 315.768 77.9195 317.592C78.9355 319.576 74.1835 324.896 70.2475 324.176Z" fill="#6E6AF2" stroke="#263238" stroke-miterlimit="10"/>
<path d="M70.248 324.176L74.792 319.816" stroke="#263238" stroke-width="0.5" stroke-miterlimit="10"/>
<path d="M65.3281 301.568L68.4961 296.416" stroke="#263238" stroke-width="2" stroke-miterlimit="10"/>
<path d="M67.528 297.96C67.3967 297.301 67.4087 296.621 67.5633 295.967C67.7179 295.312 68.0114 294.699 68.424 294.168C69.264 293.016 74.272 289.552 75.2 291.376C76.216 293.36 71.456 298.68 67.528 297.96Z" fill="#6E6AF2" stroke="#263238" stroke-miterlimit="10"/>
<path d="M67.5283 297.96L72.0723 293.6" stroke="#263238" stroke-width="0.5" stroke-miterlimit="10"/>
<path d="M63.6398 285.264L66.7998 280.12" stroke="#263238" stroke-width="2" stroke-miterlimit="10"/>
<path d="M65.8393 281.664C65.7075 281.005 65.7185 280.326 65.8717 279.672C66.0249 279.018 66.3167 278.404 66.7273 277.872C67.5753 276.72 72.5834 273.256 73.5114 275.08C74.5194 277.064 69.7673 282.4 65.8393 281.664Z" fill="#6E6AF2" stroke="#263238" stroke-miterlimit="10"/>
<path d="M65.8398 281.664L70.3838 277.304" stroke="#263238" stroke-width="0.5" stroke-miterlimit="10"/>
<path d="M69.0078 336.24L64.8558 331.848" stroke="#263238" stroke-width="2" stroke-miterlimit="10"/>
<path d="M66.1201 333.168C66.1122 332.496 65.9603 331.833 65.6747 331.225C65.389 330.616 64.9762 330.076 64.4641 329.64C63.4001 328.688 57.7921 326.32 57.2641 328.296C56.6721 330.448 62.4001 334.672 66.1201 333.168Z" fill="#6E6AF2" stroke="#263238" stroke-miterlimit="10"/>
<path d="M66.1201 333.168L60.4641 329.656" stroke="#263238" stroke-width="0.5" stroke-miterlimit="10"/>
<path d="M66.2803 309.952L62.1283 305.56" stroke="#263238" stroke-width="2" stroke-miterlimit="10"/>
<path d="M63.3916 306.88C63.3837 306.208 63.2318 305.545 62.9462 304.937C62.6605 304.328 62.2477 303.788 61.7356 303.352C60.6716 302.4 55.0636 300.032 54.5356 302.008C53.9436 304.16 59.6876 308.384 63.3916 306.88Z" fill="#6E6AF2" stroke="#263238" stroke-miterlimit="10"/>
<path d="M63.3916 306.88L57.7356 303.368" stroke="#263238" stroke-width="0.5" stroke-miterlimit="10"/>
<path d="M65.0801 298.4L60.9281 294.008" stroke="#263238" stroke-width="2" stroke-miterlimit="10"/>
<path d="M62.1914 295.328C62.1835 294.656 62.0316 293.993 61.746 293.384C61.4603 292.776 61.0475 292.236 60.5354 291.8C59.4714 290.848 53.8634 288.48 53.3354 290.456C52.7434 292.608 58.4874 296.8 62.1914 295.328Z" fill="#6E6AF2" stroke="#263238" stroke-miterlimit="10"/>
<path d="M62.1914 295.328L56.5354 291.816" stroke="#263238" stroke-width="0.5" stroke-miterlimit="10"/>
<path d="M63.3281 281.464L59.1761 277.072" stroke="#263238" stroke-width="2" stroke-miterlimit="10"/>
<path d="M60.4316 278.4C60.4242 277.729 60.2733 277.067 59.9891 276.458C59.7049 275.85 59.2939 275.309 58.7836 274.872C57.7196 273.92 52.1036 271.552 51.5836 273.528C50.9916 275.672 56.7356 279.896 60.4316 278.4Z" fill="#6E6AF2" stroke="#263238" stroke-miterlimit="10"/>
<path d="M60.4316 278.392L54.7756 274.88" stroke="#263238" stroke-width="0.5" stroke-miterlimit="10"/>
<path d="M62.3994 270.592C62.392 269.921 62.2411 269.258 61.9569 268.65C61.6727 268.041 61.2617 267.501 60.7514 267.064C59.6874 266.112 54.0714 263.744 53.5514 265.728C52.9754 267.872 58.7194 272.104 62.3994 270.592Z" fill="#6E6AF2" stroke="#263238" stroke-miterlimit="10"/>
<path d="M62.416 270.592L56.76 267.08" stroke="#263238" stroke-width="0.5" stroke-miterlimit="10"/>
<path d="M62.1834 270.84C62.8534 270.76 63.4982 270.536 64.0738 270.184C64.6495 269.832 65.1426 269.36 65.5194 268.8C66.3194 267.64 68.1194 261.808 66.0954 261.488C63.8954 261.168 60.2954 267.32 62.1834 270.84Z" fill="#6E6AF2" stroke="#263238" stroke-miterlimit="10"/>
<path d="M62.1839 270.84L65.0879 264.848" stroke="#263238" stroke-width="0.5" stroke-miterlimit="10"/>
<path d="M72.8877 235.32V346.392" stroke="#263238" stroke-width="2" stroke-miterlimit="10"/>
<path d="M72.7995 329.688L76.4795 324.896" stroke="#263238" stroke-width="2" stroke-miterlimit="10"/>
<path d="M75.3596 326.336C75.2982 325.667 75.3807 324.993 75.6014 324.358C75.8222 323.723 76.1762 323.143 76.6396 322.656C77.5996 321.6 82.9356 318.656 83.6716 320.576C84.4716 322.656 79.1996 327.456 75.3596 326.336Z" fill="#6E6AF2" stroke="#263238" stroke-miterlimit="10"/>
<path d="M75.3601 326.336L80.3281 322.464" stroke="#263238" stroke-width="0.5" stroke-miterlimit="10"/>
<path d="M72.7995 308.816L76.4795 304.024" stroke="#263238" stroke-width="2" stroke-miterlimit="10"/>
<path d="M75.3596 305.456C75.2983 304.788 75.3809 304.115 75.6016 303.482C75.8224 302.848 76.1764 302.269 76.6396 301.784C77.5996 300.728 82.9356 297.784 83.6716 299.704C84.4716 301.784 79.1996 306.576 75.3596 305.456Z" fill="#6E6AF2" stroke="#263238" stroke-miterlimit="10"/>
<path d="M75.3601 305.456L80.3281 301.592" stroke="#263238" stroke-width="0.5" stroke-miterlimit="10"/>
<path d="M72.7995 284.312L76.4795 279.512" stroke="#263238" stroke-width="2" stroke-miterlimit="10"/>
<path d="M75.3596 280.952C75.2982 280.283 75.3807 279.609 75.6014 278.974C75.8222 278.339 76.1762 277.759 76.6396 277.272C77.5996 276.216 82.9356 273.272 83.6716 275.2C84.4716 277.272 79.1996 282.072 75.3596 280.952Z" fill="#6E6AF2" stroke="#263238" stroke-miterlimit="10"/>
<path d="M75.3601 280.952L80.3281 277.088" stroke="#263238" stroke-width="0.5" stroke-miterlimit="10"/>
<path d="M72.7995 267.992L76.4795 263.2" stroke="#263238" stroke-width="2" stroke-miterlimit="10"/>
<path d="M75.3596 264.64C75.2982 263.971 75.3807 263.296 75.6014 262.662C75.8222 262.027 76.1762 261.447 76.6396 260.96C77.5996 259.904 82.9356 256.96 83.6716 258.88C84.4716 260.96 79.1996 265.76 75.3596 264.64Z" fill="#6E6AF2" stroke="#263238" stroke-miterlimit="10"/>
<path d="M75.3601 264.64L80.3281 260.768" stroke="#263238" stroke-width="0.5" stroke-miterlimit="10"/>
<path d="M72.7995 251.608L76.4795 246.816" stroke="#263238" stroke-width="2" stroke-miterlimit="10"/>
<path d="M75.3596 248.256C75.2982 247.587 75.3807 246.912 75.6014 246.278C75.8222 245.643 76.1762 245.063 76.6396 244.576C77.5996 243.52 82.9356 240.576 83.6716 242.496C84.4716 244.576 79.1996 249.368 75.3596 248.256Z" fill="#6E6AF2" stroke="#263238" stroke-miterlimit="10"/>
<path d="M75.3601 248.256L80.3281 244.384" stroke="#263238" stroke-width="0.5" stroke-miterlimit="10"/>
<path d="M72.8799 336.064L69.1999 331.272" stroke="#263238" stroke-width="2" stroke-miterlimit="10"/>
<path d="M70.3202 332.704C70.3815 332.036 70.299 331.363 70.0782 330.73C69.8574 330.096 69.5034 329.517 69.0402 329.032C68.0802 327.968 62.7442 325.032 62.0082 326.952C61.2082 329.032 66.4882 333.824 70.3202 332.704Z" fill="#6E6AF2" stroke="#263238" stroke-miterlimit="10"/>
<path d="M70.3193 332.704L65.0553 328.632" stroke="#263238" stroke-width="0.5" stroke-miterlimit="10"/>
<path d="M72.8799 302.864L69.1999 298.072" stroke="#263238" stroke-width="2" stroke-miterlimit="10"/>
<path d="M70.3201 299.512C70.3815 298.843 70.2991 298.168 70.0783 297.534C69.8575 296.899 69.5036 296.319 69.0401 295.832C68.0801 294.776 62.7441 291.832 62.0081 293.752C61.2081 295.832 66.4881 300.632 70.3201 299.512Z" fill="#6E6AF2" stroke="#263238" stroke-miterlimit="10"/>
<path d="M70.3193 299.512L65.0553 295.432" stroke="#263238" stroke-width="0.5" stroke-miterlimit="10"/>
<path d="M72.8799 286.48L69.1999 281.688" stroke="#263238" stroke-width="2" stroke-miterlimit="10"/>
<path d="M70.3202 283.12C70.3815 282.452 70.299 281.779 70.0782 281.146C69.8574 280.512 69.5034 279.933 69.0402 279.448C68.0802 278.384 62.7442 275.448 62.0082 277.368C61.2082 279.448 66.4882 284.24 70.3202 283.12Z" fill="#6E6AF2" stroke="#263238" stroke-miterlimit="10"/>
<path d="M70.3193 283.12L65.0553 279.048" stroke="#263238" stroke-width="0.5" stroke-miterlimit="10"/>
<path d="M72.8799 264.824L69.1999 260.024" stroke="#263238" stroke-width="2" stroke-miterlimit="10"/>
<path d="M70.3199 261.464C70.3817 260.796 70.2994 260.123 70.0786 259.489C69.8578 258.856 69.5036 258.277 69.0399 257.792C68.0799 256.728 62.7439 253.792 62.0079 255.712C61.2079 257.792 66.4879 262.584 70.3199 261.464Z" fill="#6E6AF2" stroke="#263238" stroke-miterlimit="10"/>
<path d="M70.3193 261.464L65.0553 257.392" stroke="#263238" stroke-width="0.5" stroke-miterlimit="10"/>
<path d="M72.8799 247.8L69.1999 243" stroke="#263238" stroke-width="2" stroke-miterlimit="10"/>
<path d="M70.3201 244.44C70.3815 243.771 70.2991 243.097 70.0783 242.462C69.8575 241.827 69.5036 241.247 69.0401 240.76C68.0801 239.704 62.7441 236.76 62.0081 238.68C61.2081 240.8 66.4881 245.6 70.3201 244.44Z" fill="#6E6AF2" stroke="#263238" stroke-miterlimit="10"/>
<path d="M70.3193 244.44L65.0553 240.368" stroke="#263238" stroke-width="0.5" stroke-miterlimit="10"/>
<path d="M73.1033 236.888C73.1647 236.219 73.0823 235.544 72.8615 234.91C72.6407 234.275 72.2868 233.695 71.8233 233.208C70.8633 232.152 65.5193 229.208 64.7833 231.128C63.9993 233.208 69.2633 238.008 73.1033 236.888Z" fill="#6E6AF2" stroke="#263238" stroke-miterlimit="10"/>
<path d="M73.1035 236.888L67.8395 232.816" stroke="#263238" stroke-width="0.5" stroke-miterlimit="10"/>
<path d="M72.8482 237.112C73.5193 237.104 74.1808 236.952 74.7881 236.667C75.3954 236.381 75.9342 235.968 76.3682 235.456C77.3202 234.392 79.6722 228.776 77.6962 228.256C75.5442 227.664 71.3282 233.416 72.8482 237.112Z" fill="#6E6AF2" stroke="#263238" stroke-miterlimit="10"/>
<path d="M72.8478 237.112L76.3438 231.456" stroke="#263238" stroke-width="0.5" stroke-miterlimit="10"/>
<path d="M68.3198 375.2H80.0798L81.5518 345.496H66.8478L68.3198 375.2Z" fill="#263238" stroke="#263238" stroke-miterlimit="10"/>
</svg>
