<svg width="56" height="56" viewBox="0 0 56 56" fill="none" xmlns="http://www.w3.org/2000/svg">
<rect x="0.5" y="0.5" width="55" height="55" rx="27.5" fill="#F7FAFF"/>
<rect x="0.5" y="0.5" width="55" height="55" rx="27.5" stroke="#E5EFFF"/>
<g clip-path="url(#clip0_2_1736)">
<path d="M39.7663 28.2763C39.7663 27.4605 39.7001 26.6404 39.559 25.8379H28.2402V30.4589H34.722C34.453 31.9492 33.5888 33.2676 32.3233 34.1054V37.1037H36.1903C38.4611 35.0137 39.7663 31.9272 39.7663 28.2763Z" fill="#4285F4"/>
<path d="M28.2391 40.0008C31.4756 40.0008 34.205 38.9382 36.1936 37.1039L32.3266 34.1055C31.2507 34.8375 29.8618 35.252 28.2435 35.252C25.1129 35.252 22.4585 33.1399 21.5061 30.3003H17.5156V33.3912C19.5527 37.4434 23.7019 40.0008 28.2391 40.0008Z" fill="#34A853"/>
<path d="M21.5028 30.3002C21.0001 28.8099 21.0001 27.196 21.5028 25.7057V22.6147H17.5167C15.8147 26.0055 15.8147 30.0004 17.5167 33.3912L21.5028 30.3002Z" fill="#FBBC04"/>
<path d="M28.2391 20.7497C29.9499 20.7232 31.6034 21.367 32.8425 22.5487L36.2685 19.1226C34.0991 17.0855 31.2198 15.9655 28.2391 16.0008C23.7019 16.0008 19.5527 18.5582 17.5156 22.6148L21.5017 25.7058C22.4497 22.8617 25.1085 20.7497 28.2391 20.7497Z" fill="#EA4335"/>
</g>
<defs>
<clipPath id="clip0_2_1736">
<rect width="24" height="24" fill="white" transform="translate(16 16)"/>
</clipPath>
</defs>
</svg>
