<svg width="585" height="463" viewBox="0 0 585 463" fill="none" xmlns="http://www.w3.org/2000/svg">
<path d="M119.741 361.151C100.652 351.48 85.1163 338.916 74.402 324.484C7.37271 235.216 25.7297 106.112 159.658 53.455C221.56 29.1209 310.209 14.7861 375.958 42.5611C429.274 65.0983 461.372 106.048 487.858 143.244C504.495 166.639 518.081 191.723 538.741 213.72C565.534 242.246 594.886 280.21 563.74 312.013C521.297 355.334 442.499 373.834 371.156 385.597C293.748 398.354 207.01 398.526 136.403 368.867C130.689 366.464 125.135 363.892 119.741 361.151Z" fill="white" fill-opacity="0.95"/>
<path d="M135.83 348.039L135.831 348.039C140.758 350.542 145.832 352.892 151.053 355.088C215.575 382.191 294.884 382.046 365.714 370.374C398.366 364.99 432.701 358.068 463.721 347.542C494.747 337.015 522.414 322.896 541.766 303.145C548.829 295.933 552.441 288.395 553.532 280.75C554.624 273.098 553.195 265.297 550.107 257.557C543.925 242.058 531.134 226.899 518.87 213.841C509.385 203.742 501.529 192.94 494.144 181.995C491.387 177.908 488.699 173.807 486.017 169.714C481.507 162.832 477.014 155.976 472.239 149.262C447.995 115.214 418.675 77.8247 369.998 57.2484C309.974 31.8924 228.96 44.9674 172.334 67.2275C111.153 91.2823 76.4212 132.771 64.6078 178.392C52.7916 224.025 63.8879 273.855 94.4918 314.612L94.4934 314.614C104.249 327.755 118.408 339.212 135.83 348.039ZM150.86 355.549C145.628 353.348 140.542 350.994 135.604 348.485L150.86 355.549Z" stroke="#9D50BB" stroke-opacity="0.07"/>
<g clip-path="url(#clip0_1357_9982)">
<path d="M379.602 99.25H364.352C364.056 99.2511 363.769 99.3541 363.541 99.5413C363.314 99.7285 363.16 99.9881 363.107 100.275C362.786 101.996 362.102 103.631 361.099 105.075C360.929 105.317 360.851 105.61 360.879 105.902C360.907 106.195 361.039 106.468 361.251 106.675L372.104 117.35C372.339 117.586 372.659 117.72 372.994 117.725C373.17 117.716 373.342 117.672 373.499 117.595C373.657 117.517 373.796 117.408 373.909 117.275C377.946 112.531 380.38 106.668 380.873 100.5C380.887 100.328 380.865 100.154 380.807 99.9909C380.75 99.8275 380.658 99.6776 380.539 99.5507C380.419 99.4239 380.274 99.3227 380.113 99.2538C379.952 99.1848 379.778 99.1494 379.602 99.15V99.25Z" fill="#333333"/>
<path d="M359.319 108.45C359.11 108.241 358.831 108.111 358.534 108.084C358.236 108.056 357.939 108.133 357.693 108.3C356.137 109.391 354.352 110.124 352.469 110.443C350.586 110.762 348.654 110.659 346.817 110.142C344.98 109.625 343.285 108.707 341.859 107.457C340.432 106.207 339.31 104.656 338.577 102.921C337.844 101.185 337.518 99.3095 337.624 97.433C337.729 95.5565 338.264 93.7276 339.187 92.0823C340.111 90.4371 341.399 89.0178 342.958 87.9301C344.516 86.8425 346.303 86.1144 348.187 85.8C348.479 85.7475 348.743 85.5963 348.933 85.3726C349.123 85.1489 349.228 84.8667 349.229 84.575V69.575C349.23 69.4015 349.195 69.2297 349.125 69.0704C349.055 68.9112 348.952 68.768 348.822 68.65C348.725 68.5066 348.598 68.3855 348.449 68.2949C348.299 68.2043 348.132 68.1463 347.958 68.125C343.183 68.5326 338.573 70.0414 334.502 72.5289C330.43 75.0164 327.012 78.4127 324.525 82.4423C322.037 86.472 320.55 91.0216 320.184 95.7221C319.818 100.423 320.584 105.142 322.419 109.497C324.253 113.852 327.106 117.721 330.745 120.789C334.384 123.857 338.706 126.039 343.362 127.157C348.019 128.275 352.877 128.298 357.544 127.224C362.211 126.15 366.555 124.009 370.223 120.975C370.354 120.858 370.459 120.715 370.531 120.556C370.602 120.396 370.639 120.224 370.639 120.05C370.639 119.876 370.602 119.704 370.531 119.544C370.459 119.385 370.354 119.242 370.223 119.125L359.319 108.45Z" fill="#924BAA"/>
<path d="M352.813 85.725C355.336 86.1872 357.657 87.3899 359.472 89.1749C361.287 90.9598 362.51 93.2434 362.98 95.725C363.033 96.0119 363.187 96.2715 363.414 96.4587C363.642 96.6459 363.928 96.7489 364.225 96.75H379.475C379.651 96.7506 379.825 96.7152 379.986 96.6463C380.147 96.5773 380.292 96.4762 380.412 96.3493C380.531 96.2224 380.622 96.0725 380.68 95.9091C380.737 95.7457 380.76 95.5724 380.746 95.4C380.122 88.3764 377.004 81.7931 371.938 76.8055C366.872 71.8178 360.182 68.7446 353.042 68.125C352.866 68.1112 352.69 68.1333 352.524 68.1898C352.358 68.2464 352.206 68.3363 352.077 68.4538C351.948 68.5713 351.845 68.7138 351.775 68.8724C351.704 69.0309 351.669 69.2021 351.669 69.375V84.375C351.641 84.7028 351.745 85.0283 351.959 85.2811C352.173 85.5338 352.48 85.6933 352.813 85.725Z" fill="#5B03B2"/>
</g>
<path d="M148.7 337.762L148.7 337.762C153.258 340.078 157.952 342.252 162.782 344.283C222.468 369.355 295.837 369.222 361.366 358.423C391.574 353.442 423.339 347.038 452.036 337.301C480.738 327.561 506.33 314.501 524.228 296.233C530.758 289.566 534.096 282.6 535.104 275.535C536.112 268.464 534.792 261.253 531.937 254.095C526.22 239.764 514.391 225.743 503.044 213.661C494.266 204.316 486.997 194.32 480.164 184.193C477.613 180.411 475.126 176.616 472.644 172.829C468.471 166.462 464.315 160.12 459.898 153.909C437.468 122.408 410.346 87.8236 365.32 68.7907C309.8 45.337 234.857 57.4302 182.47 78.0237C125.875 100.275 93.7507 138.652 82.8243 180.848C71.8951 223.055 82.158 269.146 110.467 306.847L110.468 306.849C119.49 319.001 132.585 329.598 148.7 337.762ZM162.588 344.744C157.747 342.708 153.043 340.529 148.474 338.208L162.588 344.744Z" stroke="#9D50BB" stroke-opacity="0.07"/>
<path d="M129.878 349.921L129.879 349.922C134.436 352.238 139.13 354.411 143.96 356.442C203.647 381.514 277.015 381.381 342.544 370.582C372.752 365.601 404.517 359.197 433.214 349.46C461.916 339.721 487.508 326.661 505.406 308.393C511.936 301.725 515.274 294.759 516.282 287.695C517.291 280.623 515.971 273.412 513.115 266.255C507.399 251.923 495.569 237.902 484.222 225.821C475.445 216.476 468.175 206.48 461.342 196.352C458.791 192.57 456.304 188.775 453.822 184.989C449.65 178.622 445.493 172.28 441.076 166.068C418.646 134.568 391.524 99.9832 346.498 80.9503C290.978 57.4965 216.035 69.5898 163.648 90.1833C107.053 112.435 74.9289 150.812 64.0026 193.008C53.0733 235.214 63.3362 281.305 91.6449 319.006L91.6465 319.008C100.668 331.161 113.763 341.757 129.878 349.921ZM143.766 356.903C138.926 354.868 134.221 352.689 129.652 350.367L143.766 356.903Z" stroke="#9D50BB" stroke-opacity="0.07"/>
<path d="M111.056 362.081L111.056 362.081C115.614 364.397 120.308 366.57 125.138 368.601C184.824 393.674 258.193 393.541 323.722 382.742C353.93 377.76 385.694 371.357 414.392 361.619C443.094 351.88 468.686 338.82 486.584 320.552C493.114 313.884 496.452 306.918 497.459 299.854C498.468 292.782 497.148 285.572 494.293 278.414C488.576 264.082 476.747 250.061 465.4 237.98C456.622 228.635 449.353 218.639 442.52 208.511C439.969 204.729 437.482 200.934 435 197.148C430.827 190.781 426.671 184.439 422.254 178.228C399.824 146.727 372.702 112.142 327.676 93.1095C272.156 69.6557 197.213 81.7489 144.826 102.342C88.231 124.594 56.1067 162.971 45.1803 205.167C34.251 247.374 44.5139 293.465 72.8226 331.165L72.8242 331.168C81.8461 343.32 94.9409 353.917 111.056 362.081ZM124.944 369.062C120.103 367.027 115.399 364.848 110.83 362.527L124.944 369.062Z" stroke="#9D50BB" stroke-opacity="0.07"/>
<path d="M92.2335 374.24L92.234 374.24C96.7919 376.556 101.486 378.73 106.316 380.761C166.002 405.833 239.37 405.7 304.899 394.901C335.108 389.92 366.872 383.516 395.569 373.778C424.271 364.039 449.863 350.979 467.762 332.711C474.291 326.044 477.629 319.077 478.637 312.013C479.646 304.942 478.326 297.731 475.471 290.573C469.754 276.241 457.925 262.221 446.578 250.139C437.8 240.794 430.53 230.798 423.698 220.671C421.147 216.889 418.659 213.093 416.178 209.307C412.005 202.94 407.849 196.598 403.431 190.387C381.002 158.886 353.88 124.302 308.854 105.269C253.334 81.8149 178.39 93.9081 126.003 114.502C69.4087 136.753 37.2844 175.13 26.358 217.326C15.4287 259.533 25.6917 305.624 54.0003 343.325L54.002 343.327C63.0238 355.479 76.1186 366.076 92.2335 374.24ZM106.122 381.222C101.281 379.186 96.5764 377.007 92.0076 374.686L106.122 381.222Z" stroke="#9D50BB" stroke-opacity="0.07"/>
<path d="M73.4113 386.399L73.4118 386.399C77.9697 388.715 82.6635 390.889 87.4933 392.92C147.18 417.992 220.548 417.859 286.077 407.06C316.286 402.079 348.05 395.675 376.747 385.938C405.449 376.199 431.041 363.139 448.94 344.87C455.469 338.203 458.807 331.237 459.815 324.172C460.824 317.101 459.504 309.89 456.649 302.732C450.932 288.401 439.103 274.38 427.755 262.299C418.978 252.953 411.708 242.957 404.876 232.83C402.324 229.048 399.837 225.253 397.356 221.466C393.183 215.099 389.026 208.757 384.609 202.546C362.179 171.046 335.058 136.461 290.031 117.428C234.511 93.9741 159.568 106.067 107.181 126.661C50.5864 148.912 18.4621 187.29 7.53575 229.485C-3.39352 271.692 6.86941 317.783 35.1781 355.484L35.1797 355.486C44.2015 367.638 57.2964 378.235 73.4113 386.399ZM87.2996 393.381C82.4589 391.345 77.7541 389.167 73.1853 386.845L87.2996 393.381Z" stroke="#9D50BB" stroke-opacity="0.07"/>
<path d="M171.76 327.909C168.242 326.43 164.823 324.846 161.503 323.159C149.752 317.206 140.189 309.472 133.593 300.588L171.76 327.909ZM171.76 327.909C215.223 346.166 268.617 346.06 316.268 338.208C360.184 330.966 408.69 319.578 434.818 292.911L171.76 327.909ZM161.729 322.713L161.73 322.714C165.039 324.395 168.447 325.973 171.954 327.448C215.293 345.653 268.579 345.56 316.186 337.714C338.136 334.095 361.21 329.443 382.053 322.371C402.901 315.297 421.475 305.815 434.46 292.561C439.187 287.735 441.598 282.699 442.326 277.597C443.055 272.488 442.102 267.273 440.033 262.087C435.889 251.698 427.31 241.526 419.064 232.747C412.678 225.948 407.391 218.677 402.424 211.315C400.568 208.564 398.76 205.805 396.956 203.053C393.925 198.428 390.908 193.824 387.699 189.311C371.401 166.423 351.711 141.319 319.029 127.504C278.731 110.481 224.313 119.255 186.258 134.215C145.167 150.371 121.857 178.227 113.929 208.843C105.998 239.469 113.444 272.921 133.993 300.288L133.995 300.29C140.536 309.101 150.034 316.788 161.729 322.713Z" stroke="#9D50BB" stroke-opacity="0.07"/>
<g filter="url(#filter0_f_1357_9982)">
<circle cx="327.5" cy="231.5" r="70.5" fill="#5B03B2" fill-opacity="0.14"/>
</g>
<g clip-path="url(#clip1_1357_9982)">
<path d="M300.608 119.04C301.664 119.04 302.528 118.176 302.528 117.12V105.6C302.528 104.544 301.664 103.68 300.608 103.68C299.552 103.68 298.688 104.544 298.688 105.6V117.12C298.688 118.176 299.456 119.04 300.608 119.04ZM289.472 119.04C290.528 119.04 291.392 118.176 291.392 117.12V102.432C291.392 101.376 290.528 100.512 289.472 100.512C288.416 100.512 287.552 101.376 287.552 102.432V117.12C287.552 118.176 288.416 119.04 289.472 119.04ZM278.432 119.04C279.488 119.04 280.352 118.176 280.352 117.12V97.056C280.352 96 279.488 95.136 278.432 95.136C277.376 95.136 276.512 96 276.512 97.056V117.12C276.512 118.176 277.376 119.04 278.432 119.04ZM267.392 119.04C268.448 119.04 269.312 118.176 269.312 117.12V90.24C269.312 89.184 268.448 88.32 267.392 88.32C266.336 88.32 265.472 89.184 265.472 90.24V117.12C265.472 118.176 266.336 119.04 267.392 119.04ZM305.12 100.704C305.984 100.704 306.656 100.128 306.944 99.36C307.232 98.304 306.656 97.248 305.696 96.96C305.408 96.864 279.296 88.704 264.224 74.496C263.456 73.728 262.208 73.824 261.536 74.592C260.768 75.36 260.864 76.608 261.632 77.28C277.376 92.064 303.488 100.224 304.544 100.608C304.736 100.704 304.928 100.704 305.12 100.704Z" fill="url(#paint0_linear_1357_9982)"/>
<path d="M262.88 84.192C263.936 84.192 264.8 83.328 264.8 82.272V76.8H270.272C271.328 76.8 272.192 75.936 272.192 74.88C272.192 73.824 271.328 72.96 270.272 72.96H262.88C261.824 72.96 260.96 73.824 260.96 74.88V82.272C260.96 83.328 261.824 84.192 262.88 84.192Z" fill="url(#paint1_linear_1357_9982)"/>
</g>
<path d="M208.328 95.505V93.3061L218.168 84.0922L228.013 89.7387L237.224 80.9937L238.296 82.1992L228.013 91.9349L218.168 86.2911L208.328 95.505Z" fill="#625DEF"/>
<path d="M241.351 78.3906L240.221 83.0934L236.536 78.8396L241.351 78.3906Z" fill="#625DEF"/>
<path d="M210.646 102.469H206.005C205.07 102.469 204.313 103.226 204.313 104.163V111.68H212.34V104.163C212.34 103.226 211.58 102.469 210.646 102.469Z" fill="#303838"/>
<path d="M220.488 93.2582H215.85C214.913 93.2582 214.156 94.0177 214.156 94.9495V111.68H222.179V94.9495C222.179 94.0177 221.425 93.2582 220.488 93.2582Z" fill="#625DEF"/>
<path d="M230.334 98.9055H225.693C224.758 98.9055 224.001 99.6623 224.001 100.597V111.68H232.026V100.596C232.026 99.662 231.269 98.9055 230.334 98.9055Z" fill="#303838"/>
<path d="M241.868 91.2477C241.868 90.3118 241.111 89.5534 240.177 89.5534H235.533C234.601 89.5534 233.844 90.3114 233.844 91.2477V111.68H241.868V91.2477Z" fill="#625DEF"/>
<path d="M200.589 114.602V73.997H198.191V117.003H198.209H200.589H246.809V114.602H200.589Z" fill="#303838"/>
<path d="M363 141.225C363 141.225 354.55 146.4 353.7 152.475C352.85 158.55 353.975 169.7 360.25 171.725C366.525 173.75 402.375 193.95 402.375 193.95C403.2 191.7 404.875 189.875 407.025 188.85C410.7 187.025 417.675 179.35 418.725 175.1C419.775 170.85 421.475 162.325 417.225 154.1C417.225 154.1 413.75 149.125 412.375 148.275C412.375 148.275 409.625 136.45 400.35 134.125C391.075 131.8 389.175 131.9 389.175 131.9C389.175 131.9 373.85 128.15 363 141.225Z" fill="#263238"/>
<path d="M280.4 307.625C279.1 304.025 275.5 302.725 275.5 302.725L273.275 298.15C273.275 298.15 274.65 296.525 273.6 291.875C272.55 287.225 266.275 267.125 266.275 267.125C266.275 267.125 260.9 251.95 259.125 247.025C257.35 242.1 254.1 240.15 254.1 240.15C254.1 240.15 252.85 233.4 249.075 230.8C245.3 228.2 245.6 229.5 245.6 229.5C245.6 229.5 244.3 222.975 236.95 220.75C229.575 218.525 220.25 214.55 214.05 212.7C207.85 210.85 207.65 207.325 207.65 207.325C207.65 207.325 192.275 202.3 183.25 204.975C183.25 204.975 148.375 218.65 147.85 218.65C147.325 218.65 133.525 225.25 132.025 234.425L128.475 243.85C125.9 245.75 124.25 248.65 123.9 251.825C123.45 257.05 126.25 282.175 125.875 282.425C125.5 282.675 129.65 313.575 132.3 320.5C134.975 327.425 138.5 327.825 138.5 327.825V336C138.5 336 137 342.3 140.975 346.775C143.65 349.9 147.575 351.7 151.7 351.675C151.7 351.675 148.675 366.925 149.225 367.525C149.8 368.125 164.325 370.725 192.225 371.4C220.125 372.075 230.25 363.025 230.25 361.175C230.25 359.325 227.775 345.2 228.875 338.35C228.925 337.875 235.5 336.975 235.5 336.975L239.7 334.025C239.7 334.025 239.25 336.975 244.85 338.725C249.55 340.2 254.575 340.325 259.325 339.1C263.175 338.05 263.775 337.325 264.7 335.825C265.625 334.325 266.25 331.95 266.8 331.5C267.375 331.05 269.6 329.525 272.75 327.175C275.9 324.825 277.2 322.65 278.25 319.6C278.925 317.6 279.375 315.525 279.625 313.4C279.65 313.375 281.65 311.275 280.4 307.625ZM233 293.925L234.9 286.775L238.7 296.775C238.1 296.425 237.55 295.95 237.125 295.4C236.25 294.275 233 293.925 233 293.925ZM242.55 313.775H238.7L237.65 312.775C237.9 312 238.125 311.225 238.3 310.425C238.55 309.425 238.025 306.65 238.025 306.65L239 305.8C239 305.8 241.5 308.275 242.55 308.275C243.3 308.225 244.025 307.975 244.65 307.55L247.275 309.575L242.55 313.775Z" fill="white"/>
<path d="M127.45 244.201C127.45 244.201 126.45 241.451 128.825 237.801C131.2 234.151 135.125 231.926 139.15 232.351C143.175 232.776 146.75 235.576 148.45 237.601C150.15 239.626 150.825 244.526 150.825 244.526C150.825 244.526 145.775 240.026 141.35 239.701C136.95 239.376 130.725 241.151 127.45 244.201Z" fill="#49515D"/>
<path d="M241.75 264.175C241.75 264.175 247.125 262.025 250.325 253.975C253.525 245.925 254.625 241.725 253.85 239.05C253.075 236.375 252.15 229.825 245.6 229.5C245.525 229.375 247.35 234.075 246.825 241.1C246.3 248.125 241.75 264.175 241.75 264.175Z" fill="#49515D"/>
<path d="M250.725 306.375C250.725 306.375 254.85 301.6 260.2 299.45C265.55 297.3 273.75 298.075 276.475 300.3C279.2 302.525 278.55 305.2 278.55 305.2C278.55 305.2 274.1 299.95 265.875 301.15C257.65 302.375 250.725 306.375 250.725 306.375Z" fill="#49515D"/>
<path d="M200.15 310.95C199.9 310.75 201.775 309.2 203.15 308.875C204.525 308.55 205.225 308.8 205.225 308.8C205.225 308.8 204.175 312.4 205.475 315.15C206.775 317.9 207.85 321.675 209.325 323.275C210.775 324.9 211.925 324.575 211.925 324.575L206.625 326.875C206.35 326.95 207.55 325.65 206.25 321.725C204.925 317.825 201.325 312.05 200.15 310.95Z" fill="#49515D"/>
<path d="M138.3 334.875C138.3 334.875 136.6 331.2 138.9 326.05C141.2 320.9 146.95 318.9 149.775 318.075C155.85 316.325 158.8 319.2 158.8 319.2C158.8 319.2 143.1 322.7 138.3 334.875Z" fill="#49515D"/>
<path d="M151.974 351.775C151.724 351.825 149.099 366.825 149.349 367.525C149.599 368.225 148.574 368.95 150.274 369.1C151.974 369.25 189.849 372.25 201.949 371.975C214.049 371.7 230.999 366.275 230.424 361.575C229.849 356.875 228.524 349.8 228.674 347.45C228.824 345.1 228.524 338.025 228.524 338.025L204.499 339.925C204.499 339.925 183.949 342.15 183.224 341.875C182.499 341.6 182.124 339.275 182.124 339.275C182.124 339.275 158.449 350.525 151.974 351.775Z" fill="#49515D"/>
<path d="M156.625 317.475C156.625 317.475 158.05 312.75 158.275 309.95C158.275 309.95 165.925 313.825 172.475 311.85C179.025 309.875 187.125 304.15 190.8 303.425C194.475 302.7 202.825 303.875 204.225 304.525C205.65 305.175 206.9 305.525 206.9 305.525L204.95 308.15C204.95 308.15 202.775 307.45 200.425 310.7C200.425 310.7 192.05 310.825 185.175 312.275C178.3 313.725 164.125 317.325 164.125 317.325L159.075 319.025L156.625 317.475Z" fill="#49515D"/>
<path d="M228.55 316.325L182.8 339.7C182.8 339.7 181.025 341.4 183.2 341.85C185.375 342.3 234.9 337.225 234.9 337.225L240.075 334.025C240.075 334.025 240.125 333.575 240.125 333.325C240.125 333.075 237.05 332.15 236.15 330.95C235.25 329.725 235.7 327.95 235.7 327.95C235.7 327.95 233.875 326.45 234.475 325.65C235.075 324.85 236.775 323.025 237.75 323.425C238.725 323.825 244.225 324.8 244.225 324.8C245.6 323.25 247.375 322.075 249.375 321.45C252.5 320.6 259.85 320.2 263.9 320.675C267.95 321.15 269.275 321.775 269.525 322C269.825 322.525 270.075 323.1 270.3 323.65L281.375 317.175C281.375 317.175 282.95 315.35 280.775 314.225C278.6 313.1 234.05 314.15 234.05 314.15C234.05 314.15 231.275 313.675 228.55 316.325Z" fill="#7D61CE"/>
<path d="M154.075 252.4C154.075 252.4 158.45 268.3 159.45 274.825C160.45 281.35 160.05 295.225 159.825 296.35C159.575 297.475 161.25 310.75 161.475 310.675C161.7 310.6 159.625 317.275 160.95 318.375L159.25 318.75L156.625 317.5C156.625 317.5 158.2 314.425 158.275 307.75C158.35 301.075 157.3 281.175 157.3 281.175C157.3 281.175 156.5 257.35 154.075 252.4Z" fill="black"/>
<path d="M241.025 267.1C241.025 267.1 238.075 281.15 237.95 285.75C237.825 290.35 239.475 296.95 239.475 296.95C239.475 296.95 234.7 286.275 234.9 285.25C235.125 284.25 241.025 267.1 241.025 267.1Z" fill="black"/>
<path d="M239.525 298.525C239.525 298.525 238.8 300.825 239.05 301.55C239.3 302.275 241.275 305 240.3 307.05L238.65 305.725C238.65 305.725 239.375 303.65 238.575 302.775C237.775 301.875 236.275 300.6 236.275 300.6C236.275 300.6 237.7 300.35 238.05 299.375C238.3 298.6 238.425 297.8 238.425 297L239.525 298.525Z" fill="black"/>
<path d="M368.874 152.675C368.874 152.675 365.149 150.6 363.249 153.25C361.349 155.875 358.924 164.125 358.949 166.025C358.999 167.925 359.149 170.35 359.149 170.35C359.149 170.35 359.349 176.775 359.599 179.325C359.849 181.875 359.999 186.925 360.699 189.075C361.399 191.225 364.374 197.2 367.649 200.375C370.924 203.525 375.049 205.1 377.999 204.825C377.999 204.825 379.249 210.45 378.774 211.95C378.774 211.95 387.074 212.925 395.274 210.5C403.499 208.075 405.299 207.425 405.299 207.425C405.299 207.425 403.124 202.4 402.949 200.875C402.799 199.325 401.449 190.15 401.449 190.15C401.449 190.15 406.599 186.75 407.924 184.375C409.249 182 409.624 177 408.324 174.775C407.024 172.55 404.724 173.075 402.974 174.325C401.224 175.575 400.149 177.85 399.649 177.475C399.149 177.1 398.724 173.5 397.699 171.6C396.699 169.7 390.899 165.65 390.899 165.65C390.899 165.65 386.199 162.175 383.174 157.8C380.149 153.425 378.149 143.65 370.299 152.425C370.374 152.425 369.599 153.075 368.874 152.675Z" fill="#9C9C9C"/>
<path d="M376.075 211.424C376.075 211.424 373.275 209.924 372.675 214.574L349.9 226.599C349.9 226.599 341.05 232.149 338.45 240.124C335.85 248.099 331.45 272.574 331.45 272.574L329.55 280.374L334.575 297.324C334.575 297.324 347.025 308.324 348.375 310.024C349.7 311.724 353.875 316.324 355.125 316.949C356.375 317.574 357.8 315.324 357.8 315.324L359.7 313.024C359.7 313.024 359.05 320.274 359.5 321.974C359.95 323.674 362.2 329.949 362.375 331.399C362.525 332.849 362.45 336.774 362.45 336.774C362.45 336.774 371.35 343.574 380.65 343.399C389.95 343.249 421.8 332.799 421.8 332.799C421.8 332.799 437.375 328.799 441.8 328.949C446.2 329.099 447.625 329.024 447.625 329.024L440.7 303.299C440.7 303.299 456.925 301.449 467.975 296.424C479.025 291.399 477.85 289.049 477.85 289.049L463.55 251.749C463.55 251.749 460.425 240.299 459.55 237.599C458.65 234.899 453.875 228.574 447.9 225.249C441.9 221.924 426.9 216.924 420.025 214.649C413.15 212.374 412.225 212.424 410.875 211.174C409.55 209.924 407.55 206.149 405.5 206.774C403.425 207.374 397.6 209.999 393.925 210.649C390.25 211.299 382.55 214.049 376.075 211.424Z" fill="#7D61CE"/>
<path d="M304.7 219.925L301.25 204.3C301.25 204.3 299.5 198.075 301.85 197.1C304.2 196.125 305.3 199.075 305.3 199.075L311.25 221.4C311.25 221.4 314.45 234.7 314.6 240.775L328.125 276.175L334.55 297.3C335.125 299.125 345.425 306.85 347.975 309.875C349.325 311.45 350.6 313.125 351.75 314.85C351.75 314.85 344.825 323.175 338.75 326.025C332.675 328.875 323.125 327.675 316.05 318.325C308.975 308.975 307.025 294.975 307.025 294.975L303.8 272.325L299.6 246.5C299.6 246.5 294.9 246.35 291.375 240.75C287.85 235.175 288.225 235.25 288.225 235.25L286.9 233.675C286.9 233.675 286.975 235.325 284.875 235.825C282.775 236.3 282.2 233.85 282.05 231.75C281.9 229.65 282.825 226.375 283.825 225C284.825 223.625 287.225 223.5 287.225 223.5C287.25 222.55 287.7 221.675 288.45 221.125C289.75 220.15 291.725 220.275 291.9 220.275L296.625 221.125L291.9 216.3C291.3 216.15 290.675 216.1 290.05 216.15C288.75 216.225 284.825 217.075 283.05 215.625C281.275 214.175 281.025 212.925 282.325 212.4C283.625 211.875 293.3 211.1 293.3 211.1C293.3 211.1 295.45 210.625 296.5 211.05C297.55 211.5 300.9 215.625 301.875 218.125C302.8 220.6 304.175 221.425 304.7 219.925Z" fill="#9C9C9C"/>
<path d="M366.2 338.675C366.2 338.675 362.2 336.925 359.6 337.025C357 337.1 343.1 339.95 343.1 339.95C343.1 339.95 339.775 341.275 341.55 343.35C343.325 345.425 346.275 345.125 347.175 344.975L358.05 343.65L360.4 344.175C360.4 344.175 355.1 347.5 352.5 348.35C349.9 349.2 344.4 347.75 344.4 347.75C344.4 347.75 339.75 345.6 337.2 346.325C334.65 347.05 332.825 347.65 333.875 349.275C334.925 350.9 338.6 352.4 338.6 352.4C338.475 353.675 339 354.95 340.025 355.75C341.1 356.575 342.275 357.275 343.5 357.825C343.5 357.825 342.9 359.15 344.475 359.8C345.475 360.275 346.425 360.875 347.275 361.575C347.275 361.575 346.175 363.275 347.525 364.125C348.85 364.975 353.525 366.725 356.8 366.55C360.075 366.4 374.125 364.85 376.625 363.95C379.125 363.05 395.975 363.15 401.3 362.9C406.625 362.65 447.225 359.675 449.6 359.425C451.975 359.175 468.5 355.95 473.075 351.125C477.65 346.3 477.9 343.075 477.775 341.5C477.65 339.925 475.3 311.2 475.3 311.2L472.5 294.525C472.5 294.525 458.875 299.775 449.975 302.45C441.075 305.125 440.7 303.875 440.7 303.875L447.575 329.075C447.575 329.075 434.425 329.35 423.675 332.4C412.925 335.45 394.7 339.875 391.15 341.575C387.6 343.275 380.8 343.55 379 343.55C377.2 343.55 366.2 338.675 366.2 338.675Z" fill="#9C9C9C"/>
<path d="M214.525 274.125C214.525 274.125 212.75 272.75 211.175 274.45C209.6 276.15 213.4 279.825 213.4 279.825L225.375 295.075L229.675 294.3C229.675 294.3 222.675 284.275 220.175 281.025C218.8 279.275 214.525 274.125 214.525 274.125Z" fill="#7D61CE"/>
<path d="M238.275 307.275L241.875 311.775L242.075 313.725L238.475 313.325L237.675 312.35C237.65 312.325 239.2 309.7 238.275 307.275Z" fill="#7D61CE"/>
<path d="M440.4 303.825C444.175 303.8 447.95 303.35 451.6 302.45C455.55 301.55 459.45 300.375 463.25 298.925C466.525 297.7 469.75 296.275 472.85 294.625C474.675 293.65 476.9 292.55 478.15 290.85C478.925 289.85 478.35 288.675 477.95 287.625C477.15 285.35 476.2 283.125 475.325 280.9C472.5 273.9 469.65 266.9 467.025 259.85C465.6 256.05 464.275 252.25 463.05 248.4C462.475 246.65 461.95 244.875 461.5 243.1C461.05 241.325 460.7 239.65 460.175 237.95C458 231.025 452.125 226.45 445.9 223.35C441.575 221.125 437.075 219.275 432.475 217.775C426.375 215.875 420.175 214.325 414.1 212.475C413.2 212.225 412.35 211.875 411.55 211.375C410 210.325 409.2 208.575 407.825 207.375C406.45 206.175 405.975 206.6 404.825 206.85C403.05 207.225 401.325 207.725 399.6 208.3C394.45 209.95 389.275 211.775 383.825 211.75C381.675 211.7 379.525 211.475 377.4 211.15C376.35 211 374.9 210.575 373.875 211.075C372.875 211.55 372.425 212.975 372.375 214.1L372.65 213.625C370.6 215.275 368.35 216.7 365.975 217.875C363.55 219.05 361.075 220.15 358.7 221.425C355.35 223.2 351.85 224.775 348.675 226.875C346.45 228.325 344.425 230.05 342.65 232.025C340.6 234.275 338.95 236.875 337.8 239.725C336.8 242.2 336.35 244.825 335.825 247.45C334.7 253.2 333.725 258.975 332.675 264.725C332.2 267.425 331.7 270.15 331.175 272.825C331.05 273.3 330.975 273.8 330.85 274.275C330.725 274.75 330.45 275.325 330.275 275.9C329.825 277.275 329.575 278.825 329.025 280.1C328.7 280.75 329.675 281.325 329.95 280.675C330.375 279.575 330.725 278.45 331 277.325C331.275 276.325 331.725 275.35 331.975 274.375C332.375 272.4 332.75 270.4 333.1 268.425C334.1 263.075 335.05 257.75 336.025 252.35C337 246.95 337.575 241.875 340.15 237.3C342.75 232.725 347.2 228.875 351.975 226.225C355.1 224.475 358.25 222.875 361.4 221.3C363.35 220.325 365.375 219.525 367.3 218.5C368.25 218.025 369.175 217.5 370.05 216.925L371.625 215.8L372.6 215.1C372.875 214.85 373.375 214.625 373.5 214.3C373.55 214.075 373.575 213.875 373.575 213.65C373.6 213.175 373.8 212.725 374.1 212.35C374.575 211.825 375.4 212.025 376.05 212.1C378.725 212.425 381.4 212.875 384.1 212.875C387.825 212.875 391.3 212.075 394.875 211.025C397.75 210.175 400.625 209.175 403.525 208.35C404.325 208.075 405.175 207.9 406.025 207.825C406.8 207.775 407.275 208.4 407.775 208.95C409.15 210.6 410.375 212.35 412.475 213.125C413.775 213.6 415.1 213.975 416.45 214.35L429.35 218.025C432.625 219.025 435.95 219.975 439.05 221.475C442.175 222.975 445.575 224.3 448.65 226.175C452.725 228.65 456.375 231.925 458.4 236.325C459.4 238.55 459.825 240.95 460.425 243.275C461.025 245.6 461.8 248.05 462.575 250.4C465.8 260.275 469.725 269.95 473.625 279.625C474.85 282.575 476.1 285.525 477.15 288.575C477.275 288.95 477.4 289.3 477.475 289.625C477.55 289.95 477.525 289.95 477.525 289.875C477.525 289.975 477.5 290.05 477.45 290.125C476.975 290.975 475.825 291.675 474.975 292.225C471.325 294.575 467.25 296.3 463.2 297.85C458.15 299.8 452.95 301.25 447.625 302.175C445.25 302.6 442.875 302.8 440.475 302.775C440.175 302.85 440 303.175 440.075 303.475C440.075 303.625 440.225 303.775 440.4 303.825Z" fill="black"/>
<path d="M345.125 241.275C346.575 245.125 347.425 249.175 348.275 253.175C349.275 257.875 350.225 262.55 351.35 267.225C351.5 267.925 352.575 267.625 352.4 266.95C351.275 262.3 350.375 257.6 349.375 252.9C348.525 248.9 347.625 244.85 346.225 240.975C345.925 240.3 344.875 240.6 345.125 241.275Z" fill="black"/>
<path d="M440.3 227.375C435.7 236.075 433 245.65 432.4 255.45C432.35 256.15 433.45 256.15 433.5 255.45C434.1 245.825 436.75 236.45 441.275 227.925C441.575 227.325 440.65 226.75 440.3 227.375Z" fill="black"/>
<path d="M332.1 287.525C334.075 288.9 336.825 287.9 338.95 287.25C341.575 286.475 344.125 285.45 346.55 284.175C346.8 283.975 346.85 283.625 346.65 283.375C346.5 283.175 346.225 283.1 345.975 283.2C343.775 284.35 341.475 285.3 339.1 286.025C338.025 286.4 336.925 286.7 335.825 286.925C334.725 287.175 333.6 287.25 332.675 286.55C331.725 285.875 331.525 287.125 332.1 287.525Z" fill="black"/>
<path d="M433.399 265.8C435.174 278.3 437.199 290.8 439.424 303.225C440.049 306.725 440.699 310.25 441.374 313.775C441.499 314.475 442.549 314.175 442.424 313.5C440.074 301.075 437.949 288.6 436.024 276.125C435.449 272.575 434.974 269.05 434.449 265.525C434.349 264.8 433.299 265.125 433.399 265.8Z" fill="black"/>
<path d="M368.2 333.25C377.1 328.2 385.55 322.375 393.45 315.85C401.05 309.55 408.05 302.55 414.375 294.975C417.8 290.825 420.975 286.475 423.925 281.975C424.325 281.375 423.35 280.8 423 281.4C417.725 289.425 411.7 296.9 404.95 303.725C397.975 310.825 390.4 317.3 382.25 323.025C377.55 326.35 372.65 329.425 367.65 332.3C367.025 332.65 367.575 333.6 368.2 333.25Z" fill="black"/>
<path d="M375.4 224.925C383.1 224.2 390.675 222.6 398.025 220.2C398.725 220 398.4 218.9 397.75 219.15C390.5 221.5 383 223.05 375.425 223.8C374.65 223.875 374.65 224.975 375.4 224.925Z" fill="black"/>
<path d="M352.5 272.025C355.075 281.9 357.15 291.875 358.7 301.975C359.1 304.475 359.6 307.025 359.7 309.55C359.825 312.05 359 314.375 358.7 316.8C358.425 319.1 358.65 321.425 359.35 323.65C359.725 324.875 360.15 326 360.6 327.125C360.9 327.75 361.15 328.375 361.375 329.025C361.65 330.2 361.825 331.45 361.975 332.625C362.125 333.8 362.425 335.575 361.9 336.8C361.375 338.025 362.7 337.775 363 337.125C363.275 336.475 363.275 334.625 363.15 333.475C363.025 332.325 362.825 330.85 362.575 329.5C362.325 328.175 361.725 327.025 361.25 325.775C360.4 323.5 359.675 321.125 359.675 318.7C359.675 316.275 360.575 313.875 360.775 311.425C360.975 308.95 360.5 306.4 360.125 303.975C359.4 298.875 358.5 293.825 357.5 288.75C356.375 283.05 355.075 277.4 353.625 271.75C353.525 271.45 353.2 271.3 352.9 271.4C352.6 271.5 352.45 271.75 352.5 272.025Z" fill="black"/>
<path d="M385.7 334.05C398.15 330.125 409.9 324.225 420.5 316.575C423.45 314.475 426.275 312.2 429.025 309.825C429.55 309.375 428.775 308.575 428.225 309.05C418.45 317.5 407.4 324.35 395.5 329.325C392.175 330.7 388.825 331.925 385.375 332.975C384.725 333.2 385.025 334.25 385.7 334.05Z" fill="black"/>
<path d="M311.675 241C309.45 239.925 307.625 238.175 306.425 236.025C305.825 234.975 305.575 233.75 304.925 232.8C304.275 231.85 303.1 231.625 301.925 231.225C300.75 230.825 299.5 229.8 298.525 228.875C298.05 228.475 297.7 227.925 297.55 227.3C297.475 226.375 299 226.775 299.525 226.9C301.025 227.325 302.475 227.925 303.85 228.675L307.725 230.7C310.15 232.025 312.25 234.225 313.8 236.45C314.25 237.025 315.175 236.5 314.775 235.875C313.15 233.525 311.1 231.525 308.7 229.975C307.3 229.15 305.875 228.425 304.4 227.75C302.9 226.975 301.325 226.175 299.7 225.8C298.075 225.425 296.675 225.275 296.425 226.8C296.175 228.35 297.225 229.275 298.175 230.075C299.1 230.875 300.55 232.025 302.05 232.375C302.825 232.575 303.5 232.7 303.95 233.375C304.3 233.975 304.6 234.65 304.8 235.325C306.025 238.225 308.25 240.575 311.075 241.95C311.75 242.3 312.3 241.325 311.675 241Z" fill="black"/>
<path d="M296.45 220.775C295.125 220.45 293.775 220.05 292.4 219.8C291.025 219.55 290.3 219.35 289.25 219.725C288.2 220.1 287.175 220.85 287.1 222.1C287.025 223.35 286.85 225.175 286.725 226.725C286.6 228.275 286.45 229.85 286.45 231.375C286.45 232.925 286.6 234.3 287.375 235.375C288.15 236.475 289.225 236.375 290.175 235.975C291.125 235.575 291.925 234.4 292.275 233.375C292.65 232.375 292.725 230.775 292.85 229.45C292.975 228.125 293.125 226.9 292.85 225.65L292.45 226.35C293.25 226.2 294.075 226.425 294.825 226.625C295.6 226.825 295.8 225.775 295.1 225.575C294.15 225.25 293.15 225.15 292.15 225.3C291.85 225.4 291.7 225.7 291.75 226C291.9 226.875 291.925 227.75 291.8 228.625C291.725 229.475 291.675 230.275 291.6 231.125C291.575 232.275 291.2 233.4 290.5 234.325C289.925 234.975 288.75 235.55 288.225 234.575C287.7 233.6 287.525 232.15 287.575 231.025C287.625 229.9 287.7 228.525 287.775 227.3L288.05 223.525C288.05 222.975 288.1 222.4 288.2 221.875C288.325 221.35 289 221.025 289.5 220.825C290 220.625 291.575 220.75 292.525 220.95L296.125 221.85C296.85 221.975 297.15 220.9 296.45 220.775Z" fill="black"/>
<path d="M287.55 222.875C286.2 222.7 284.85 223.15 283.875 224.1C283.05 225 282.45 226.075 282.125 227.25C281.575 228.975 281.45 230.775 281.725 232.55C281.975 234.125 282.3 236.525 284.275 236.675C286.25 236.825 287.625 235.125 287.475 233.4C287.4 232.7 286.3 232.675 286.35 233.4C286.45 234.225 286.025 235 285.3 235.375C284.95 235.575 284.525 235.65 284.125 235.525C283.65 235.4 283.475 234.925 283.325 234.475C282.65 232.525 282.525 230.425 282.95 228.4C283.175 227.325 283.6 226.3 284.2 225.375C285 224.275 286.225 223.875 287.55 223.95C288.875 224.05 288.275 222.95 287.55 222.875Z" fill="black"/>
<path d="M297.225 221.225L294.8 218.15C294.15 217.35 293.55 216.375 292.7 215.775C291.85 215.175 290.85 215.2 289.825 215.5C288.85 215.775 287.875 215.95 286.875 216.025C285.875 216.1 284.85 215.95 283.925 215.575C283.275 215.325 281.75 214.45 281.975 213.55C282.2 212.65 282.975 213.1 283.4 213.025L285.35 212.575C286.6 212.325 287.9 212.1 289.15 211.925C290.4 211.775 291.7 211.6 293 211.475C294.3 211.35 294.9 211.225 295.875 211.6C296.9 211.925 297.8 212.525 298.475 213.375C298.925 213.975 299.325 214.6 299.7 215.275L302 219.575C302.275 220.025 302.575 220.875 303.05 221.1C303.5 221.3 304.025 221.35 304.5 221.25C305.225 221.05 305.15 220.4 305.1 219.8C305.025 218.8 304.875 217.825 304.65 216.85C304.175 214.95 303.525 213.05 303.075 211.15C302.225 207.75 301.375 204.225 301.25 200.7C301.2 199.925 301.1 199 301.375 198.225C301.65 197.45 302.925 197.175 303.725 197.7C304.525 198.225 305.15 199.475 305.475 200.525C305.8 201.575 306.2 202.875 306.525 204.05C307.825 208.975 308.75 214 309.975 218.95C310.775 222.4 311.825 225.75 312.6 229.15C313.375 232.55 314.1 235.575 314.225 238.85C314.275 239.35 314.25 239.875 314.175 240.375C314.1 241.1 315.15 241.375 315.275 240.7C315.525 238.95 315.225 237.175 315 235.45C314.75 233.7 314.225 231.075 313.7 228.925C313.175 226.775 312.9 225.475 312.375 223.75C311.45 220.6 310.725 217.35 310.025 214.125C309.325 210.9 308.6 207.6 307.75 204.425C307.35 202.875 306.95 201.3 306.425 199.8C305.9 198.3 305.375 197.325 304.2 196.675C303.025 196.025 301.925 196.025 301.05 196.8C300.175 197.575 300.15 198.575 300.15 199.55C300.175 201.6 300.4 203.625 300.8 205.625C301.325 208.5 301.975 211.4 302.75 214.25C303.15 215.625 303.675 217 303.85 218.45C303.9 218.6 303.975 220.4 304.1 220.425L304.3 220.15H303.85L303.45 220.075L303.775 220.325C302.475 218.3 301.5 216.125 300.3 214.05C299.525 212.75 298.525 211.55 297.15 210.9C296.575 210.625 295.95 210.4 295.325 210.3C294.425 210.25 293.525 210.275 292.65 210.425C290.675 210.625 288.65 210.9 286.7 211.225L283.775 211.8C283.05 212 281.925 212.05 281.3 212.65C280.7 213.25 281.425 215.275 282.35 215.975C283.625 216.85 285.175 217.275 286.725 217.2C287.6 217.15 288.475 217.025 289.325 216.825C290.375 216.55 291.4 216.05 292.325 216.875C293.025 217.6 293.65 218.35 294.225 219.175L296.525 222.1C296.975 222.675 297.75 221.85 297.3 221.3L297.225 221.225Z" fill="black"/>
<path d="M288.275 236.225C288.775 237.825 289.5 239.325 290.425 240.725C291.225 241.875 292.15 242.95 293.225 243.875C295.125 245.65 297.725 247.475 300.425 247.275C301.15 247.225 301.15 246.1 300.425 246.175C297.95 246.325 295.6 244.6 293.875 242.975C292.925 242.075 292.075 241.1 291.325 240.025C290.475 238.75 289.825 237.35 289.35 235.9C289.075 235.25 288 235.525 288.275 236.225Z" fill="black"/>
<path d="M294.8 233.675C297 235.3 299 237.2 300.75 239.35C300.975 239.525 301.3 239.525 301.525 239.35C301.75 239.125 301.75 238.775 301.525 238.55C299.725 236.35 297.625 234.4 295.325 232.725C295.075 232.575 294.75 232.65 294.6 232.9C294.6 232.9 294.6 232.9 294.6 232.925C294.45 233.175 294.55 233.5 294.8 233.675Z" fill="black"/>
<path d="M299.125 247.15L302.125 266.25C302.775 270.425 303.575 274.625 304.1 278.825C304.725 284.05 305.525 289.225 306.525 294.35C307.225 298 308.025 301.6 309.025 305.15C310.025 308.7 310.925 311.3 312.425 314.05C313.3 315.525 314.325 316.925 315.45 318.225C317.075 320.225 318.925 322.05 320.9 323.675C324.45 326.55 328.875 328.725 333.575 328.25C336.125 327.975 338.4 327 340.575 325.775C342.675 324.625 344.65 323.225 346.45 321.65C348.625 319.825 350.5 317.7 352 315.3C352.075 315.2 352.15 315.1 352.2 314.975C352.525 314.325 351.6 313.75 351.275 314.4C350.325 316.05 349.15 317.55 347.8 318.9C346.325 320.4 344.725 321.775 342.975 322.975C340.875 324.425 338.525 325.85 336.05 326.625C331.525 328 326.975 326.625 323.175 324C321.15 322.575 319.275 320.925 317.625 319.075C316.2 317.6 314.95 316 313.825 314.3C312.275 311.75 311.325 308.875 310.425 306.05C309.525 303.225 308.575 299.1 307.875 295.575C306.775 290.2 305.9 284.8 305.25 279.4C304.85 276.2 304.275 273.05 303.8 269.9L300.875 251.5L300.15 246.875C300.1 246.125 299 246.45 299.125 247.15Z" fill="black"/>
<path d="M338 137.5H272.575C269.1 137.475 266.275 140.275 266.275 143.725C266.275 143.75 266.275 143.75 266.275 143.775V166.3C266.275 169.775 269.075 172.575 272.55 172.575C272.575 172.575 272.575 172.575 272.6 172.575H322.975C325.925 175.85 329.025 178.975 332.275 181.925C332.575 182.2 333.025 182.175 333.3 181.875C333.425 181.75 333.475 181.575 333.475 181.4V180.3L333.85 172.575H337.975C341.425 172.6 344.225 169.825 344.25 166.375C344.25 166.35 344.25 166.325 344.25 166.3V143.775C344.275 140.325 341.5 137.525 338.05 137.5C338.025 137.5 338.025 137.5 338 137.5Z" fill="white"/>
<path d="M332.75 182.65C332.425 182.65 332.1 182.525 331.85 182.325C328.725 179.5 325.65 176.425 322.7 173.15H272.575C268.8 173.15 265.725 170.1 265.725 166.3V143.775C265.725 140 268.775 136.925 272.575 136.925H338C341.775 136.925 344.85 139.975 344.85 143.775V166.3C344.85 170.075 341.8 173.15 338 173.15H334.4L334.025 181.45C333.975 181.95 333.675 182.375 333.225 182.575C333.075 182.65 332.9 182.675 332.75 182.65ZM272.575 138.075C269.425 138.075 266.85 140.625 266.825 143.775V166.3C266.85 169.475 269.4 172.025 272.575 172.05H322.95C323.1 172.025 323.25 172.1 323.35 172.2C326.35 175.525 329.45 178.625 332.625 181.5H332.775C332.825 181.45 332.9 181.425 332.9 181.35L333.3 172.525C333.3 172.225 333.525 172 333.825 172C333.85 172 333.85 172 333.875 172H338C341.15 171.975 343.7 169.4 343.7 166.25V143.75C343.7 140.6 341.15 138.05 338 138.05H272.575V138.075Z" fill="black"/>
<path d="M335.65 147.325H277.175C276.875 147.35 276.625 147.125 276.6 146.85C276.6 146.825 276.6 146.825 276.6 146.8C276.6 146.475 276.85 146.225 277.175 146.225H335.65C335.975 146.225 336.225 146.475 336.225 146.8C336.225 147.1 336 147.325 335.7 147.325C335.675 147.325 335.675 147.325 335.65 147.325Z" fill="#9D50BB"/>
<path d="M328.575 162.825H277.2C276.9 162.85 276.65 162.625 276.625 162.35C276.625 162.325 276.625 162.325 276.625 162.3C276.625 161.975 276.875 161.725 277.2 161.725H328.575C328.9 161.725 329.15 161.975 329.15 162.3C329.15 162.6 328.925 162.825 328.625 162.825C328.6 162.825 328.6 162.825 328.575 162.825Z" fill="#9D50BB"/>
<path d="M326.025 155.1H303.65C303.325 155.1 303.075 154.85 303.075 154.525C303.075 154.2 303.325 153.95 303.65 153.95H326.025C326.35 153.95 326.6 154.2 326.6 154.525C326.6 154.85 326.35 155.1 326.025 155.1Z" fill="#9D50BB"/>
<path d="M298.425 155.1H277.175C276.85 155.1 276.6 154.85 276.6 154.525C276.6 154.2 276.85 153.95 277.175 153.95H298.425C298.75 153.95 299 154.2 299 154.525C299 154.85 298.75 155.1 298.425 155.1Z" fill="#9D50BB"/>
<path d="M114.451 162.175H142.376C145.951 162.175 148.851 165.075 148.851 168.65V193.45C148.826 197 145.926 199.875 142.376 199.875H141.676L141.476 204.45L141.401 206.025C141.376 206.6 140.876 207.05 140.276 207C140.051 206.975 139.826 206.9 139.651 206.75C137.226 204.525 134.826 202.25 132.501 199.875H114.451C110.901 199.875 108.026 197 108.026 193.45V168.65C108.001 165.1 110.876 162.2 114.426 162.175H114.451Z" fill="white"/>
<path d="M140.35 207.625C139.975 207.625 139.6 207.475 139.3 207.225C137 205.125 134.65 202.85 132.25 200.475H114.45C110.6 200.45 107.475 197.325 107.45 193.475V168.675C107.45 164.8 110.575 161.65 114.45 161.625H142.375C146.25 161.625 149.375 164.75 149.375 168.625C149.375 168.65 149.375 168.65 149.375 168.675V193.475C149.375 197.35 146.25 200.475 142.375 200.475H142.225L141.975 206.1C141.95 206.725 141.575 207.25 141 207.525C140.8 207.575 140.575 207.625 140.35 207.625ZM114.45 162.75C111.2 162.75 108.55 165.4 108.55 168.65V193.45C108.575 196.7 111.2 199.325 114.45 199.35H132.5C132.65 199.35 132.8 199.4 132.9 199.5C135.275 201.925 137.725 204.225 140.025 206.35C140.175 206.5 140.375 206.525 140.55 206.425C140.725 206.375 140.875 206.2 140.875 206.025L141.125 199.875C141.15 199.575 141.4 199.35 141.7 199.35H142.4C145.65 199.325 148.275 196.7 148.3 193.45V168.65C148.3 165.4 145.65 162.75 142.4 162.75H114.45Z" fill="black"/>
<path d="M183.125 204.449C177.45 206.549 171.8 208.699 166.175 210.874C161.925 212.499 157.675 214.099 153.425 215.799C149.175 217.499 144.6 219.149 140.725 221.824C138.2 223.499 135.975 225.574 134.125 227.974C132.7 229.824 131.625 232.049 131.5 234.399C131.45 235.124 132.55 235.124 132.6 234.399C132.725 232.324 133.7 230.424 134.875 228.824C136.475 226.699 138.4 224.824 140.575 223.274C144.425 220.474 148.825 218.774 153.2 217.049C161.2 213.899 169.275 210.849 177.325 207.774L183.425 205.474C184.05 205.274 183.775 204.224 183.125 204.449Z" fill="black"/>
<path d="M207.225 208.801C208.35 210.251 210.15 211.276 211.725 212.151C212.225 212.426 212.75 212.676 213.3 212.876L221.625 215.626C225.55 216.926 229.475 218.251 233.35 219.676C236.425 220.801 239.5 221.951 241.85 224.376C247.675 230.376 246.875 240.151 245.375 247.676C243.725 256.051 241.075 264.276 238.525 272.401C237.3 276.376 236.05 280.301 234.875 284.251C234.025 287.076 233.175 289.926 232.6 292.776C232.525 293.251 232.45 293.751 232.4 294.226C232.35 294.701 233.4 294.926 233.5 294.226C233.775 291.726 234.6 289.126 235.325 286.701C236.425 282.901 237.6 279.101 238.8 275.301C241.4 266.926 244.1 258.601 246 250.001C246.9 245.926 247.55 241.776 247.5 237.576C247.45 233.376 246.7 229.276 244.425 225.851C242.6 223.101 239.95 221.001 236.85 219.826C233.25 218.401 229.6 217.151 225.975 215.901L215.5 212.401L213.2 211.676L212.675 211.401C211.875 211.001 211.1 210.501 210.325 210.026C209.525 209.551 208.825 208.951 208.225 208.251C207.75 207.651 206.825 208.226 207.225 208.801Z" fill="black"/>
<path d="M158.025 309.775C163.2 312.85 169.8 313.65 175.375 311.4C178.4 310.15 181.15 308.375 184.025 306.825C186.9 305.3 190.575 303.75 194.225 303.475C196.325 303.375 198.45 303.575 200.5 304.075C202.8 304.55 205.125 305.2 207.375 305.9C208.075 306.15 208.35 305.05 207.65 304.85C203.925 303.675 199.95 302.475 196 302.35C192.025 302.225 188.95 303.25 185.775 304.7C182.6 306.15 180 307.975 177.025 309.475C174.075 310.975 170.5 311.95 166.95 311.575C164 311.25 161.15 310.325 158.575 308.875C158.325 308.725 157.975 308.8 157.825 309.05C157.7 309.3 157.775 309.625 158.025 309.775Z" fill="black"/>
<path d="M127.775 243.875C126.8 239.35 130.4 235.5 134.3 233.75C136.45 232.775 138.75 232.825 141.025 233.275C143.3 233.725 146 235.55 147.775 237.775C148.75 238.95 149.5 240.325 150 241.775C150.325 242.95 150.55 244.15 150.7 245.375C150.825 246.075 151.875 245.775 151.8 245.05C151.425 242.35 150.75 239.9 149.1 237.675C147.45 235.45 144.975 233.1 141.95 232.325C138.925 231.55 136.775 231.55 134.35 232.525C132.3 233.375 130.45 234.675 128.975 236.325C127.075 238.5 126.15 241.25 126.75 244.175C126.85 244.875 127.9 244.6 127.775 243.875Z" fill="black"/>
<path d="M138.2 327.625C137.4 327.125 136.7 326.475 136.125 325.725C135.75 325.25 135.15 324.625 134.875 324.225C134.45 323.65 134.075 323.025 133.775 322.375C132.975 320.525 132.325 318.625 131.825 316.675C130.275 311.125 129.35 305.425 128.5 299.8C127.525 293.375 126.75 286.925 126.075 280.5C125.5 275.2 125.025 269.9 124.575 264.55C124.425 262.325 124.125 260.05 124.05 257.8C123.975 255.275 124.25 252.725 124.85 250.275C125.525 247.825 126.9 245.625 128.825 243.975C131.85 241.35 136.025 240.125 140 240.3C143.975 240.475 148.175 242.4 150.475 245.75C152.05 248.025 152.825 250.9 153.5 253.525C155.2 260.375 155.975 267.475 156.45 274.525C156.575 276.75 156.725 279.025 156.7 281.275C156.65 284.825 156.9 288.4 157.075 291.95C157.325 296.125 157.525 300.325 157.55 304.525C157.6 307.725 157.675 311.075 156.9 314.225C156.65 315.275 156.175 316.325 156.05 317.45C155.925 318.575 157.05 318.15 157.15 317.45C157.1 317.725 157.15 317.5 157.2 317.4C157.25 317.3 157.325 316.925 157.35 316.625C157.4 316.35 157.875 314.975 158.075 314.125C158.375 312.625 158.55 311.125 158.6 309.6C158.8 305.55 158.65 301.5 158.45 297.425C158.25 293.35 158 289.2 157.875 285.075C157.8 282.6 157.825 280.15 157.725 277.625C157.475 270.675 156.675 263.775 155.375 256.95C154.775 253.75 154.05 250.525 152.7 247.525C151.325 244.35 148.8 241.825 145.625 240.45C137.85 237.05 127.25 240.45 124.225 248.675C122.675 252.8 122.9 257.2 123.25 261.5C123.625 265.8 124.025 271.05 124.5 275.775C125.15 282.3 125.875 288.775 126.725 295.225C127.575 301.7 128.5 307.525 129.925 313.6C130.425 315.95 131.075 318.25 131.875 320.525C132.35 322.125 133.1 323.65 134.1 325.025C135.1 326.325 136.2 327.725 137.65 328.575C137.95 328.65 138.275 328.475 138.35 328.175C138.45 328 138.375 327.775 138.2 327.625Z" fill="black"/>
<path d="M138.975 334.55C138 333.25 138.25 331.15 138.525 329.65C138.85 327.825 139.625 326.125 140.75 324.675C143.35 321.35 147.05 319.05 151.2 318.15C152.5 317.9 153.85 317.875 155.175 318.025C156.5 318.15 157.85 318.4 158.975 319.15C160.1 319.925 160.1 318.625 159.55 318.225C158.5 317.55 157.275 317.125 156.025 317C154.775 316.775 153.525 316.725 152.25 316.875C149.75 317.15 147.325 318 145.2 319.375C141.65 321.525 138.45 324.675 137.55 328.85C137.275 330.05 137.175 331.3 137.225 332.525C137.225 333.425 137.5 334.325 138 335.075C138.4 335.675 139.375 335.1 138.975 334.55Z" fill="black"/>
<path d="M246.45 229.624C246.525 230.099 246.325 229.824 246.65 229.999L247.1 230.124L247.8 230.449C248.35 230.724 248.875 231.074 249.35 231.449C250.25 232.174 251.025 233.074 251.625 234.074C252.825 236.099 253.45 238.424 253.45 240.799C253.5 246.574 250.65 252.199 248.025 257.174C246.575 259.924 244.75 262.274 241.95 263.724C241.3 264.049 241.875 265.024 242.475 264.699C245.225 263.274 247.2 260.974 248.675 258.299C250.45 255.199 251.925 251.949 253.125 248.599C254.05 245.774 254.775 242.649 254.5 239.649C254.325 236.949 253.35 234.374 251.7 232.249C250.8 231.099 249.675 230.149 248.375 229.449C247.775 229.099 247.125 228.874 246.425 228.799C245.925 228.749 245.45 229.124 245.4 229.624C245.4 229.724 245.4 229.799 245.4 229.899C245.475 230.649 246.575 230.324 246.45 229.624Z" fill="black"/>
<path d="M239.525 297.075C238.8 295.3 238.075 293.475 237.375 291.7C236.625 289.85 236.025 287.975 235.55 286.025C235.4 285.325 234.325 285.625 234.45 286.3C234.95 288.225 235.575 290.125 236.3 291.975C237 293.8 237.675 295.575 238.45 297.35C238.725 298 239.8 297.725 239.525 297.075Z" fill="black"/>
<path d="M254.526 240.875C256.026 241.725 256.676 243.425 257.326 244.95L258.901 248.75C260.401 252.55 261.826 256.4 263.226 260.25C266.376 268.9 269.451 277.65 271.876 286.55C272.326 288.3 272.776 290.025 273.101 291.775C273.426 293.525 273.876 296.675 272.626 298.525C272.226 299.1 273.201 299.65 273.601 299.05C274.851 297.2 274.651 294.55 274.326 292.375C274.101 290.9 273.776 289.45 273.401 288C272.351 283.825 271.051 279.7 269.726 275.575C266.851 266.725 263.701 257.9 260.251 249.2C259.651 247.675 259.026 246.125 258.401 244.575C257.776 243.025 256.851 240.9 255.126 239.875C254.826 239.75 254.501 239.875 254.376 240.175C254.251 240.45 254.326 240.725 254.526 240.875Z" fill="black"/>
<path d="M157.875 296.275C159.95 297.45 161.925 298.7 164.075 299.675C166.225 300.65 167.075 300.775 168.725 300.6C172 300.275 175.15 298.85 178.2 297.65C179.625 297.075 181.075 296.475 182.575 296C184.475 295.4 186.425 294.95 188.4 294.675C190.85 294.225 193.325 294 195.8 294.025C198.225 294.125 200.625 294.575 202.925 295.325C205.35 296.1 207.775 296.975 210.3 297.55L213.225 298.25C214 298.375 214.75 298.575 215.5 298.45C216.25 298.325 215.9 297.275 215.225 297.4C214.525 297.425 213.85 297.3 213.2 297.075L210.7 296.5C208.475 296.025 206.375 295.25 204.225 294.55C202.1 293.8 199.875 293.275 197.625 293.05C195.25 292.825 192.85 292.9 190.5 293.25C186.8 293.675 183.175 294.55 179.7 295.875C176.625 297.1 173.55 298.5 170.325 299.225C168.75 299.675 167.05 299.6 165.5 299.025C163.025 298.1 160.775 296.6 158.5 295.35C157.825 294.975 157.275 295.95 157.875 296.275Z" fill="black"/>
<path d="M205.2 130.124C205.2 130.124 201.075 126.274 188.275 128.674C188.275 128.674 178.575 131.949 173.1 135.874C167.65 139.799 164.4 148.574 164.2 153.474C164 158.374 165.9 168.199 167.65 171.274C169.4 174.349 177.35 187.024 177.35 187.024C177.35 187.024 180.3 190.349 183.125 190.299C185.95 190.249 188.175 190.449 188.175 190.449C188.175 190.449 192.5 196.449 197.875 199.424C203.25 202.399 208 203.349 211.625 202.574C215.275 201.799 222.8 197.324 225.425 192.499C228.05 187.674 228.05 182.799 227.85 181.524C227.65 180.274 228.05 169.424 228.75 166.999C229.45 164.574 231.175 155.674 229.275 149.024C227.375 142.374 221.875 133.449 211.625 131.149L205.2 130.124Z" fill="white"/>
<path d="M181.5 159.875C181.5 159.875 193.325 162.55 205.2 161.975C217.1 161.4 230.25 157.075 230.25 157.075C230.25 157.075 229.875 163.225 229.35 165.7C228.825 168.175 228.3 173.5 228.3 173.5C228.3 173.5 220.525 177.425 215.275 178.225C212.8 178.625 206.05 178.8 200.025 178.15C195.7 177.675 191.425 176.9 187.2 175.85C187.2 175.85 187.35 170.95 186.825 169C186.3 167.05 181.95 161.375 181.5 159.875Z" fill="#49515D"/>
<path d="M174.675 167.875C174.675 167.875 176.175 164.95 179.125 164.725C182.075 164.475 184.475 169.55 185 171.525C185.525 173.5 184.85 180.5 182.575 182.4C180.3 184.3 175.2 182 173.925 176.25C173.9 176.25 173.075 171.2 174.675 167.875Z" fill="#49515D"/>
<path d="M183.15 190.3C183.15 190.3 183.75 201.7 183.4 204.7C183.025 207.7 182.7 210.25 182.7 210.25C182.7 210.25 190.225 214.1 197.675 214.325C205.125 214.575 207.825 213.75 207.825 213.75C207.825 213.75 207.05 209.7 207.375 207.65C207.6 206.075 207.7 204.475 207.65 202.875C207.65 202.875 197.5 201.225 193 197.125C188.5 193.05 188.175 190.45 188.175 190.45L183.15 190.3Z" fill="#49515D"/>
<path d="M198.95 175.925C205.25 171.7 211.725 167.7 218.375 164C218.6 163.8 218.625 163.425 218.425 163.2C218.275 163.025 218.05 162.975 217.85 163.025C211.175 166.75 204.7 170.725 198.4 174.95C197.775 175.375 198.325 176.35 198.95 175.925Z" fill="white"/>
<path d="M211.325 175.3C215 172.8 218.8 170.4 222.65 168.175C222.9 167.975 222.95 167.625 222.75 167.375C222.6 167.175 222.325 167.1 222.075 167.2C218.225 169.475 214.475 171.85 210.75 174.35C210.2 174.775 210.725 175.7 211.325 175.3Z" fill="white"/>
<path d="M194.175 172.026C197.1 170.176 200.05 168.376 203.075 166.676C203.675 166.351 203.15 165.376 202.5 165.751C199.475 167.401 196.5 169.201 193.6 171.101C193 171.451 193.55 172.426 194.175 172.026Z" fill="white"/>
<path d="M173.45 173.275C173.45 173.275 173.125 168.95 175.75 166.4C178.375 163.85 180.675 168.025 181.125 168.75C182.45 171.4 182.975 174.375 182.625 177.325C182.15 181.575 179.275 182.775 176.8 181.1C174.325 179.425 173.575 174.125 173.45 173.275Z" fill="white"/>
<path d="M174.9 177.6C174.275 175.75 174.025 173.8 174.175 171.85C174.3 170.1 174.75 168.175 175.925 166.8C177.1 165.425 179.05 164.725 180.7 165.825C181.225 166.125 181.675 166.525 182.025 167C183.975 169.35 184.45 172.875 184.375 175.85C184.3 178.2 183.85 181.675 181.175 182.45C178.5 183.225 175.85 180.075 174.9 177.6C174.65 176.95 173.6 177.225 173.85 177.925C174.85 180.675 177.05 183.75 180.325 183.675C183.6 183.6 184.95 180.475 185.35 177.675C185.575 175.7 185.525 173.7 185.15 171.725C184.875 169.925 184.2 168.225 183.2 166.7C182.775 166.125 182.275 165.6 181.7 165.15C180.05 163.925 178.1 163.725 176.35 164.875C174.6 166 173.55 168.35 173.2 170.5C172.8 172.975 173.025 175.525 173.85 177.9C174.1 178.575 175.15 178.275 174.9 177.6Z" fill="black"/>
<path d="M179.075 166.675C181.3 169.275 182.226 172.375 182.226 175.775C182.176 177.475 181.95 180.6 179.8 180.925C179.1 181 179.4 182.1 180.075 181.975C182.625 181.6 183.225 178.425 183.3 176.3C183.4 174.325 183.15 172.35 182.525 170.475C181.925 168.775 181.025 167.225 179.825 165.9C179.35 165.375 178.6 166.15 179.075 166.675Z" fill="black"/>
<path d="M186.025 184.599C186.4 186.824 187.15 188.974 188.2 190.949C189.05 192.724 190.175 194.374 191.525 195.849C194.45 198.974 198.375 200.874 202.375 202.249C205.65 203.399 209.175 203.649 212.575 202.949C216.575 202.174 220.05 199.599 222.85 196.674C225.65 193.749 227.05 191.449 228.025 188.299C228.675 186.199 228.475 183.924 228.475 181.749C228.425 178.674 228.55 175.624 228.85 172.574C229.05 170.399 229.375 168.249 229.75 166.049C230.15 164.099 230.45 162.149 230.65 160.174C231.225 153.124 229.725 145.599 225.5 139.824C221.275 134.049 216 131.599 209.75 130.224C203.525 128.849 196.85 128.899 190.9 131.149C184.95 133.424 178.85 139.149 177.475 146.149C176.1 153.149 179.25 158.399 182.9 163.549C183.55 164.449 184.2 165.324 184.75 166.249C185.45 167.424 185.9 168.749 186.05 170.124C186.525 173.599 186.1 177.124 185.975 180.649C185.85 181.974 185.875 183.299 186.025 184.599C186.15 185.299 187.2 184.999 187.075 184.274C186.95 182.974 186.95 181.674 187.025 180.399C187.1 178.749 187.225 177.074 187.3 175.424C187.375 172.399 187.45 168.899 185.975 166.199C184.875 164.224 183.375 162.524 182.175 160.624C180.95 158.724 179.175 155.449 178.575 152.524C177.075 145.524 180.925 138.374 186.7 134.524C192.475 130.674 198.275 130.074 204.375 130.549C210.475 131.024 216.3 132.724 220.8 136.449C226.175 140.849 228.925 147.699 229.5 154.499C229.775 158.149 229.375 161.649 228.725 165.224C228.025 169.024 227.575 172.849 227.4 176.724C227.325 179.199 227.35 181.649 227.35 184.124C227.375 185.074 227.325 186.049 227.2 186.999C226.9 188.349 226.4 189.624 225.75 190.849C224.025 193.974 221.625 196.699 218.75 198.824C217.15 200.099 215.325 201.074 213.375 201.649C211.6 202.124 209.75 202.324 207.925 202.249C204.25 202.124 200.475 200.549 197.275 198.849C195.475 197.899 193.825 196.674 192.425 195.199C191.1 193.774 190 192.149 189.2 190.374C188.175 188.474 187.475 186.399 187.1 184.274C186.975 183.574 185.925 183.874 186.025 184.599Z" fill="black"/>
<path d="M181.75 160.85C194.2 163.475 207.075 163.4 219.5 160.7C223.025 159.9 226.525 158.9 229.95 157.7C230.65 157.5 230.325 156.4 229.675 156.65C217.8 160.825 205.175 162.425 192.625 161.375C189.075 161.05 185.55 160.525 182.075 159.75C181.35 159.625 181.05 160.675 181.75 160.85Z" fill="black"/>
<path d="M186.6 176.375C197.45 178.725 209.125 180.35 220.05 177.35C223.025 176.525 225.85 175.3 228.5 173.75C228.75 173.55 228.8 173.2 228.6 172.95C228.45 172.75 228.175 172.675 227.925 172.775C218.375 178.525 206.65 178.525 195.925 176.975C192.9 176.525 189.85 175.975 186.85 175.325C186.2 175.175 185.875 176.25 186.6 176.375Z" fill="black"/>
<path d="M205.65 129.4C198.175 126.175 189.425 127.45 181.975 130.2C178.95 131.3 176.075 132.75 173.4 134.525C169.95 136.875 167.5 140.3 165.925 144.125C163.45 150 163.25 156.95 164.375 163.15C165.175 167.35 166.775 171.325 169.075 174.925C170.4 177 171.625 179.125 172.925 181.2C174.225 183.275 174.825 184.35 175.85 185.9C176.85 187.45 177.6 188.5 179.05 189.3C181.325 190.55 184.075 190.925 186.625 190.8H187.15C187.85 190.725 187.85 189.625 187.15 189.675C185.275 189.875 183.375 189.675 181.575 189.15C180.125 188.775 178.825 188 177.8 186.875C176.75 185.575 175.975 184 175.1 182.625C173.525 180.075 171.975 177.525 170.45 174.925C169.8 173.925 169.15 172.95 168.6 171.9C167.6 170.05 166.825 168.075 166.25 166.025C165.225 162.4 164.8 158.65 164.95 154.9C165 152.225 165.4 149.55 166.125 146.975C167.175 143.15 169.25 139.7 172.125 136.975C174.35 134.95 177.1 133.525 179.825 132.325C186.7 129.3 194.95 127.425 202.4 129.4C203.35 129.65 204.275 129.975 205.15 130.375C205.75 130.65 206.3 129.7 205.65 129.4Z" fill="black"/>
<path d="M182.6 190.625C183.225 197.15 183.175 203.7 182.45 210.2C182.375 210.9 183.45 210.9 183.55 210.2C184.3 203.7 184.375 197.125 183.75 190.625C183.65 189.925 182.55 189.925 182.6 190.625Z" fill="black"/>
<path d="M207.225 203.125C206.875 205 206.75 206.925 206.85 208.825C206.925 210.65 207.125 212.475 207.85 214.175C208.125 214.825 209.1 214.25 208.825 213.6C208.125 212.05 207.975 210.325 207.925 208.675C207.85 206.925 207.975 205.175 208.3 203.45C208.45 202.725 207.4 202.45 207.225 203.125Z" fill="black"/>
<path d="M183.4 203.2C187 205.35 191 206.75 195.175 207.275C199.1 207.75 203.075 207.7 207 207.15C207.7 207.075 207.725 205.925 207 206.05C203.25 206.55 199.475 206.6 195.7 206.2C191.55 205.7 187.55 204.35 183.975 202.2C183.375 201.875 182.8 202.85 183.4 203.2Z" fill="black"/>
<path d="M182.8 210.7C186.85 213.175 191.325 214.3 196 214.875C200.65 215.45 204.525 215.6 208.55 214.475C208.85 214.4 209.025 214.1 208.925 213.8C208.825 213.5 208.55 213.325 208.25 213.425C204.4 214.525 200.2 214.225 196.275 213.8C191.7 213.275 187.3 212.175 183.375 209.8C183.125 209.65 182.775 209.725 182.625 209.975C182.45 210.2 182.55 210.525 182.8 210.7Z" fill="black"/>
<path d="M187.125 190.05C187.125 190.05 192.05 201.5 196.75 203.525C205.175 207.125 207.425 205.35 207.425 205.35L208.15 202.6C208.15 202.6 204.675 202.65 199.175 200.5C193.675 198.35 189.8 192.775 189.025 191.275L188.3 189.75L187.125 190.05Z" fill="black"/>
<path d="M184.5 135.8C185.875 136.25 187.05 137.25 188.05 138.275C189.475 139.7 190.75 141.25 191.85 142.925C194.475 146.75 196.625 150.875 198.275 155.225C199.125 157.35 199.75 159.575 200.125 161.825C200.25 162.55 201.35 162.225 201.225 161.55C200.45 157.15 198.675 152.85 196.65 148.875C194.625 144.9 192.2 140.95 189.075 137.75C187.85 136.5 186.45 135.275 184.75 134.725C184.125 134.5 183.8 135.55 184.5 135.8Z" fill="black"/>
<path d="M206.675 130.875C208.425 131.9 210.025 133.2 211.375 134.725C212.8 136.475 214.075 138.35 215.175 140.35C217.225 144.125 218.7 148.225 219.5 152.45C219.925 154.7 220.1 156.975 220.075 159.25C220.075 159.95 221.2 159.95 221.2 159.25C221.2 150.3 218.2 141.6 212.675 134.575C211.175 132.7 209.325 131.125 207.225 129.95C206.975 129.8 206.65 129.9 206.5 130.15C206.325 130.4 206.4 130.725 206.675 130.875Z" fill="black"/>
<path d="M357.9 163.4C358.425 166.675 358.8 170 359 173.325C359.2 176.65 359.05 179.75 359.075 183C359.15 188.15 360.85 193.125 363.925 197.25C366.725 200.925 370.4 204.4 375.05 205.25C379.7 206.1 384.225 203.725 388 201.05C390.175 199.5 392.2 197.725 394.025 195.75C394.675 195.025 395.25 194.275 395.775 193.45C396.15 192.85 395.175 192.275 394.8 192.875C394.475 193.45 394.075 194 393.625 194.5C392.325 196.075 390.85 197.475 389.225 198.7C385.675 201.625 381.175 204.7 376.325 204.325C371.475 203.95 368.15 200.725 365.4 197.325C362.275 193.475 360.475 188.725 360.225 183.775C360.075 180.325 360.3 176.9 360.1 173.45C359.925 170 359.55 166.55 359 163.125C358.875 162.425 357.8 162.7 357.9 163.4Z" fill="black"/>
<path d="M401.375 176.5C402.5 174.8 404.9 172.575 407.05 174.15C409.2 175.725 409.2 178.2 408.9 180.175C408.55 182.375 407.5 184.4 405.9 185.95C404.325 187.575 402.175 189.3 399.875 189.55C399.15 189.625 399.15 190.725 399.875 190.675C402.1 190.425 403.95 189.125 405.625 187.725C407.275 186.375 408.55 184.625 409.4 182.675C410.15 180.775 410.3 178.675 409.8 176.675C409.325 174.825 408.15 172.875 406.075 172.6C404 172.325 401.7 174.05 400.4 175.95C400 176.55 400.95 177.1 401.375 176.5Z" fill="black"/>
<path d="M406.751 177.1C405.251 176.575 403.951 177.95 403.151 178.95C402.226 180.025 401.501 181.275 401.001 182.6C400.951 182.9 401.126 183.2 401.401 183.3C401.701 183.375 402.001 183.225 402.101 182.925C402.501 181.825 403.076 180.775 403.801 179.85C404.176 179.4 404.576 178.975 405.026 178.6C405.376 178.2 405.926 178.025 406.451 178.15C406.726 178.25 407.026 178.1 407.126 177.825C407.126 177.8 407.126 177.8 407.151 177.775C407.251 177.5 407.101 177.2 406.826 177.1C406.776 177.125 406.776 177.125 406.751 177.1Z" fill="black"/>
<path d="M402.95 180.825L403.225 181.025L403.425 181.5C403.5 181.825 403.5 182.175 403.425 182.5C403.3 183.2 402.875 183.825 402.25 184.2C401.6 184.525 402.175 185.5 402.825 185.125C403.75 184.6 404.375 183.675 404.525 182.625C404.725 181.525 404.4 180.125 403.225 179.75C402.925 179.675 402.625 179.85 402.55 180.125C402.475 180.45 402.65 180.75 402.95 180.825Z" fill="black"/>
<path d="M364.05 166.625C364.575 166.25 365.2 166.075 365.825 166.1C366.125 166.075 366.425 166.125 366.725 166.225C367.025 166.325 367.325 166.475 367.575 166.675C367.85 166.825 368.175 166.75 368.35 166.475C368.475 166.2 368.4 165.875 368.15 165.7C366.75 164.75 364.9 164.725 363.5 165.65C363.2 165.775 363.075 166.1 363.2 166.4C363.325 166.7 363.65 166.825 363.95 166.7C363.975 166.675 364.025 166.65 364.05 166.625Z" fill="black"/>
<path d="M366.075 173.225C366.25 173.45 366.375 173.7 366.475 173.95C366.65 174.5 366.7 175.1 366.625 175.7C366.625 175.95 366.575 176.2 366.475 176.425C366.35 176.65 366.125 176.825 365.875 176.875C365.5 176.875 365.15 176.675 364.975 176.35C364.725 175.95 364.6 175.475 364.6 175.025C364.625 174.575 364.725 174.125 364.875 173.7C364.925 173.525 365 173.375 365.125 173.25C365.275 173.125 365.45 173.075 365.65 173.1C365.85 173.025 365.95 173.15 366.075 173.225Z" fill="black"/>
<path d="M365.8 173.55C366.075 173.9 366.225 174.35 366.25 174.8C366.3 175.1 366.3 175.4 366.25 175.7C366.275 175.925 366.2 176.15 366.05 176.3C365.775 176.675 365.4 176.25 365.25 175.925C365.05 175.45 365 174.925 365.125 174.425C365.175 174.125 365.275 173.85 365.4 173.575L365.55 173.45C365.675 173.475 365.725 173.475 365.8 173.55C365.975 173.675 366.2 173.675 366.375 173.55C366.55 173.4 366.55 173.15 366.4 172.975C366.4 172.95 366.375 172.95 366.375 172.95C366.25 172.825 366.075 172.725 365.9 172.675C365.675 172.65 365.475 172.65 365.25 172.725C364.9 172.9 364.625 173.2 364.525 173.575C364.225 174.325 364.175 175.175 364.375 175.95C364.575 176.675 365.225 177.5 366.075 177.275C366.925 177.05 367.125 176.1 367.125 175.375C367.125 174.9 367.075 174.425 366.925 173.95C366.85 173.575 366.675 173.225 366.4 172.95C366.225 172.825 366 172.825 365.825 172.95C365.65 173.125 365.65 173.375 365.8 173.55Z" fill="black"/>
<path d="M383.125 172.05C383.3 172.275 383.425 172.525 383.525 172.775C383.7 173.325 383.75 173.925 383.675 174.525C383.675 174.775 383.625 175.025 383.525 175.25C383.4 175.475 383.175 175.65 382.925 175.7C382.55 175.7 382.2 175.5 382.025 175.175C381.775 174.775 381.65 174.35 381.65 173.875C381.675 173.4 381.775 172.95 381.925 172.5C381.975 172.325 382.05 172.175 382.175 172.05C382.325 171.925 382.5 171.875 382.7 171.9C382.85 171.9 383 171.95 383.125 172.05Z" fill="black"/>
<path d="M382.824 172.375C383.099 172.725 383.249 173.175 383.274 173.625C383.324 173.925 383.324 174.225 383.274 174.525C383.299 174.75 383.224 174.975 383.074 175.125C382.799 175.5 382.424 175.075 382.274 174.75C382.074 174.275 382.024 173.75 382.149 173.25C382.199 172.95 382.299 172.675 382.424 172.4L382.574 172.275C382.724 172.3 382.749 172.3 382.824 172.375C382.999 172.5 383.224 172.5 383.399 172.375C383.574 172.225 383.574 171.975 383.424 171.8C383.424 171.775 383.399 171.775 383.399 171.775C383.274 171.65 383.099 171.55 382.924 171.5C382.699 171.475 382.499 171.475 382.274 171.55C381.924 171.725 381.649 172.025 381.549 172.4C381.249 173.15 381.199 174 381.399 174.775C381.599 175.5 382.249 176.325 383.099 176.1C383.949 175.9 384.149 174.925 384.149 174.2C384.149 173.725 384.099 173.25 383.949 172.775C383.874 172.4 383.699 172.05 383.424 171.775C383.249 171.65 383.024 171.65 382.849 171.775C382.674 171.95 382.674 172.2 382.824 172.375Z" fill="black"/>
<path d="M359.4 170.325C358.075 170.25 356.975 168.175 356.4 167.1C355.3 164.8 354.55 162.35 354.175 159.825C353.675 157.1 353.75 154.275 354.375 151.575C354.675 150.325 355.175 149.15 355.875 148.1C356.775 146.725 358.15 145.625 359.425 144.575C360.725 143.525 361.575 142.95 362.65 142.15C363.725 141.35 364.275 140.525 365.075 139.65C367.325 137.225 370.075 135.3 373.125 133.975C377.575 132.2 382.375 131.575 387.125 132.15C387.975 132.225 388.825 132.525 389.675 132.425C391.825 132.35 393.975 132.6 396.075 133.15C401.325 134.475 406.525 137.4 409.55 142C410.375 143.25 411.05 144.625 411.525 146.05C411.85 147.025 411.85 148.15 412.525 148.975C413.225 149.775 413.775 150.275 414.375 150.925C415.325 151.975 416.175 153.125 416.925 154.325C418.775 157.525 419.225 161.275 419.4 164.925C419.55 168.575 419.025 173.1 417.25 176.75C415.725 180 413.55 182.9 410.85 185.275C409.15 186.725 407.25 187.775 405.425 189.075C403.6 190.375 402.675 191.225 401.975 192.85C401.275 194.475 401.575 194.95 401.725 196.05C402.05 198.675 402.5 201.25 403.1 203.825C403.3 204.55 403.5 205.525 404.15 205.975C404.8 206.425 405.275 205.45 404.725 205.05C404.8 205.1 404.675 204.925 404.65 204.85C404.55 204.675 404.475 204.475 404.4 204.275C404.225 203.725 404.075 203.15 403.95 202.575C403.625 201.15 403.375 199.7 403.175 198.275C402.975 196.85 402.775 196.1 402.7 194.95C402.625 193.8 403.5 192.125 404.6 191.1C406.425 189.45 408.775 188.3 410.75 186.775C413.375 184.675 415.55 182.1 417.175 179.175C418.25 177.375 419.075 175.45 419.65 173.425C420.15 171.475 420.425 169.45 420.45 167.425C420.525 165.425 420.425 163.425 420.175 161.425C420 159.55 419.6 157.725 418.95 155.975C417.85 153.3 416.075 151.125 414.1 149.1C413.8 148.825 413.55 148.525 413.3 148.2L413.1 148C413.05 147.875 413.1 147.925 413.1 148L412.975 147.4C412.65 145.875 412.125 144.4 411.4 143.025C408.725 137.875 403.675 134.45 398.3 132.675C396.025 131.9 393.625 131.45 391.225 131.35C390.75 131.3 390.25 131.3 389.775 131.35H389.325L388.2 131.15C383.725 130.475 379.15 130.825 374.8 132.15C371.75 133.1 368.925 134.675 366.475 136.725C365.15 137.825 364.125 139.15 362.95 140.375C362.2 141.075 361.4 141.7 360.525 142.225C358.05 144.05 355.375 146.075 354.05 148.95C352.975 151.525 352.525 154.3 352.75 157.075C352.875 159.85 353.425 162.6 354.375 165.2C355.075 167.1 355.95 169.2 357.5 170.55C358 171.05 358.65 171.375 359.35 171.45C360.05 171.5 360.05 170.35 359.35 170.325H359.4Z" fill="black"/>
<path d="M392.375 196.65C392.375 196.65 387.925 204.425 379.025 207.9L377.925 204.95C377.925 204.95 382.825 203.9 383.8 203.3C386.4 201.7 392.375 196.65 392.375 196.65Z" fill="black"/>
<path d="M385.349 165.9C383.474 164.9 381.224 164.825 379.274 165.75C379.024 165.9 378.924 166.2 379.074 166.475C379.074 166.475 379.074 166.475 379.074 166.5C379.224 166.775 379.574 166.85 379.849 166.7C381.449 166.025 383.249 166.1 384.774 166.9C385.424 167.2 385.999 166.275 385.349 165.9Z" fill="black"/>
<path d="M381.775 192.2C379.875 194.8 376.55 195.35 373.675 194.425C372.875 194.15 369.75 192.25 371 190.975C372.25 189.725 381.125 188.35 381.725 188.75C382.35 189.175 383.15 190.25 381.775 192.2Z" fill="white"/>
<path d="M381.3 191.925C379.75 194 377.125 194.675 374.7 194.15C373.875 193.95 373.1 193.6 372.425 193.1C372.025 192.775 370.975 192 371.325 191.4C371.675 190.8 372.225 190.925 372.625 190.75L375.1 190.1C376.8 189.725 378.55 189.45 380.275 189.3H381.525C381.375 189.35 381.45 189.3 381.475 189.3C381.525 189.3 381.35 189.225 381.475 189.35C382.375 190.125 381.85 191.175 381.275 191.975C380.7 192.775 381.8 193.1 382.2 192.55C382.6 191.975 383.45 190.175 382.675 189.025C382.375 188.475 381.775 188.175 381.125 188.225C379.225 188.175 377.25 188.6 375.425 188.95C374.375 189.15 373.35 189.425 372.35 189.75C371.65 189.9 371.025 190.25 370.5 190.725C369 192.425 372.125 194.525 373.45 195.025C376.6 196.15 380.2 195.225 382.2 192.55C382.675 191.925 381.7 191.35 381.3 191.925Z" fill="black"/>
<path d="M370.975 175.575C370.875 176.525 370.65 177.475 370.275 178.375C370.125 178.85 369.9 179.275 369.675 179.7C369.425 180.15 369.1 180.5 368.9 180.95C368.7 181.4 368.75 182.575 369.35 183.225C369.95 183.875 370.9 184.8 371.625 185.6C372.35 186.4 372.925 185.325 372.425 184.825L370.325 182.65C370.05 182.325 369.675 182.05 369.85 181.6C370.025 181.225 370.225 180.875 370.45 180.55C371.375 179.05 371.925 177.325 372.075 175.575C372.15 174.875 371.05 174.875 370.975 175.575Z" fill="black"/>
<path d="M370.325 153.525C370.975 152.15 372.025 151 373.35 150.25C374.675 149.475 376.75 148.925 378 150.125C379.25 151.35 379.45 152.225 380.025 153.275C380.6 154.325 381.025 155.35 381.6 156.3C383.15 159.225 385.2 161.85 387.625 164.1C389.325 165.725 391.5 166.825 393.825 167.25C396.25 167.625 398.725 167.125 401.075 166.525C401.375 166.425 401.525 166.1 401.425 165.8C401.325 165.55 401.075 165.375 400.8 165.425C398.625 166 396.4 166.525 394.125 166.15C391.85 165.775 389.4 164.325 387.575 162.5C385.3 160.125 383.375 157.425 381.9 154.5C381.375 153.5 380.9 152.475 380.325 151.475C379.75 150.475 378.825 148.925 377.45 148.475C376.075 148.025 374.1 148.525 372.725 149.275C371.275 150.125 370.125 151.4 369.4 152.925C369.075 153.6 370.05 154.175 370.325 153.525Z" fill="black"/>
<path d="M373.05 153.6C373.775 151.75 375.4 150.375 377.35 149.95C377.625 149.85 377.8 149.55 377.75 149.25C377.65 148.975 377.35 148.8 377.05 148.875C374.725 149.4 372.8 151.05 371.95 153.275C371.875 153.55 372.05 153.85 372.325 153.925H372.35C372.65 154.05 372.95 153.9 373.05 153.6Z" fill="black"/>
<path d="M370.45 152.875C368.675 151.65 366.475 150.575 364.3 151.35C362.125 152.125 361.5 153.975 360.9 155.8C359.45 159.925 358.525 164.1 358.8 168.5C358.85 169.2 359.925 169.225 359.9 168.5C359.725 164.675 360.275 160.85 361.55 157.25C362.075 155.675 362.55 153.575 364.1 152.625C365.65 151.7 368.275 152.7 369.875 153.85C370.45 154.25 371.025 153.275 370.45 152.875Z" fill="black"/>
<path d="M392.374 167.076C395.324 168.576 397.149 171.451 398.074 174.526C398.324 175.376 398.474 176.176 398.649 177.026C398.799 177.876 398.924 178.401 399.649 178.401C400.374 178.401 400.574 177.701 400.899 177.276C401.249 176.826 401.524 176.326 401.699 175.776C401.899 175.126 400.849 174.801 400.599 175.501C400.424 175.976 400.174 176.401 399.874 176.801L399.499 177.276C399.749 177.351 399.824 177.326 399.774 177.201C399.749 177.101 399.724 177.026 399.699 176.926C399.699 176.726 399.674 176.526 399.624 176.326C399.324 174.851 398.874 173.401 398.249 172.026C397.199 169.501 395.299 167.426 392.899 166.126C392.349 165.776 391.774 166.751 392.374 167.076Z" fill="black"/>
<path d="M314.449 239.626C313.974 240.676 314.299 241.651 314.599 242.701C314.924 243.751 315.374 245.126 315.774 246.351C316.624 248.901 317.549 251.376 318.524 253.826C320.474 258.726 322.524 263.576 324.474 268.501C327.399 275.951 329.974 283.601 332.174 291.276C333.174 294.801 334.324 298.526 334.399 302.201C334.399 302.526 334.649 302.776 334.974 302.776C335.274 302.776 335.549 302.526 335.549 302.201C335.474 299.076 334.624 295.926 333.799 292.926C332.799 289.151 331.624 285.476 330.399 281.801C329.174 278.126 328.024 274.651 326.674 271.126C324.824 266.226 322.799 261.426 320.849 256.601C319.749 253.901 318.699 251.226 317.724 248.501C317.199 247.126 316.724 245.701 316.274 244.326L315.674 242.376C315.474 241.676 315.099 240.826 315.399 240.151C315.674 239.501 314.749 238.976 314.449 239.626Z" fill="black"/>
<path d="M334.675 298.4C338.65 301.75 342.45 305.275 346.05 309C347.825 310.85 349.575 312.725 351.225 314.675C351.9 315.525 352.7 316.3 353.575 316.95C354.225 317.4 355.1 317.85 355.95 317.65C356.8 317.45 357.525 316.6 358.05 315.9C358.575 315.2 359.625 313.6 360.425 312.45C361.225 311.3 359.85 311.325 359.45 311.875C359.05 312.425 358.2 313.825 357.5 314.7C356.8 315.575 356.5 316.25 355.725 316.525C354.95 316.8 353.9 315.875 353.375 315.4C352.625 314.65 351.9 313.85 351.225 313.025C348.1 309.5 344.825 306.175 341.425 302.95C339.475 301.125 337.45 299.35 335.425 297.65C334.925 297.15 334.15 297.975 334.675 298.4Z" fill="black"/>
<path d="M339.125 301.649C338.975 301.524 348.025 312.949 348.925 315.174L349.85 317.399L351.825 314.049C351.85 314.024 340.425 302.624 339.125 301.649Z" fill="black"/>
<path d="M440.3 303.825C442.325 312.2 444.35 320.65 447.05 328.825C447.3 329.525 448.375 329.225 448.15 328.55C445.4 320.325 443.375 311.925 441.35 303.55C441.275 303.25 440.975 303.075 440.675 303.175C440.375 303.275 440.2 303.55 440.3 303.825Z" fill="black"/>
<path d="M454.65 329.975C447.85 327.225 440.5 328.975 433.525 329.975C429.8 330.55 426.15 331.425 422.525 332.35C412.85 334.85 403.3 337.725 393.675 340.25C389.475 341.35 385.225 342.475 380.925 343C380.2 343.075 380.2 344.175 380.925 344.1C384.65 343.575 388.325 342.825 391.925 341.825C396.75 340.6 401.475 339.325 406.25 337.975C411.025 336.65 415.8 335.275 420.575 334C424.375 333 428.175 331.975 432.075 331.325C435.95 330.675 439.025 330.1 442.525 329.775C446 329.45 450.625 329.5 454.375 331C455.025 331.3 455.3 330.225 454.65 329.975Z" fill="black"/>
<path d="M377.1 364.05C380.975 364.525 384.95 364.3 388.825 364.125C394.775 363.875 400.675 363.475 406.625 363.025L426.075 361.475C431.525 361.075 437 360.625 442.45 360.3C444.3 360.175 446.175 360.05 448.075 360.025C448.85 359.975 449.65 359.975 450.425 359.9C454.125 359.55 457.775 358.85 461.35 357.8C466.075 356.375 470.95 354.35 474.375 350.75C476.075 349 477.25 346.85 477.825 344.475C478.075 343.15 478.175 341.775 478.15 340.425C478.15 338.775 478.1 337.075 478.025 335.4C477.65 328 476.8 320.6 475.8 313.225C475.025 307.55 474.15 301.9 473.3 296.225C473.225 295.525 473.1 294.975 473.05 294.375C473 293.775 471.825 293.65 471.925 294.375C472.45 298.875 473.3 303.35 473.95 307.85C475 315.1 475.975 322.375 476.55 329.7C476.825 333.15 477.025 336.575 477.025 340.025C477.025 342.65 476.875 345.075 475.525 347.425C473.1 351.675 468.325 354.175 463.875 355.8C459.95 357.175 455.9 358.125 451.775 358.625C449.5 358.9 447.25 358.9 444.975 359.025C439.95 359.275 434.95 359.675 429.925 360.075L410.95 361.525C404.8 362 398.7 362.45 392.55 362.775C388.1 363.025 383.6 363.25 379.125 363.05L377.1 362.9C376.4 362.875 376.4 363.95 377.1 364.05Z" fill="black"/>
<path d="M442.2 308.125L440.95 303.625C445.2 303.425 449.4 302.75 453.5 301.65C459.85 300 467.95 296.675 471.025 295.05C471 295.05 448.175 308.775 442.2 308.125Z" fill="black"/>
<path d="M381.45 342.875C376.225 343.15 371.45 340.85 366.975 338.475C365.875 337.9 364.8 337.25 363.65 336.775C362.625 336.375 361.525 336.25 360.45 336.45C357.85 336.85 355.275 337.35 352.725 337.825L344.8 339.25C343.025 339.525 340.5 340.25 340.725 342.575C340.925 344.875 343.35 345.5 345.175 345.7C347.175 345.85 349.2 345.75 351.175 345.375L354.4 344.725L356.15 344.4C356.825 344.25 357.525 344.175 358.225 344.15C358.725 344.175 359.225 344.275 359.725 344.425L361.225 344.675C361.95 344.825 362.225 343.75 361.55 343.625L358.85 343.15C358.225 343.075 357.6 343.075 357 343.2L354.05 343.675C352.275 344 350.525 344.45 348.7 344.6C347.75 344.675 346.775 344.675 345.825 344.6C344.725 344.525 343.45 344.45 342.6 343.7C341.75 342.975 341.625 341.875 342.525 341.15C343.425 340.425 344.675 340.375 345.675 340.225L352.95 338.925L360.2 337.625C361.4 337.35 362.65 337.475 363.75 338L366.825 339.625C371.35 342.05 376.25 344.325 381.5 344.025C382.175 343.975 382.175 342.825 381.45 342.875Z" fill="black"/>
<path d="M361.725 343.45C359.625 344.575 357.55 345.825 355.375 346.8C353.2 347.775 350.975 348.425 348.625 348.175C344.325 347.7 340.3 344.45 335.85 345.95C334.2 346.525 332.45 347.925 333.25 349.875C333.6 350.675 334.25 351.3 335.075 351.625C337.575 352.85 340.3 353.65 342.925 354.45C346.5 355.55 350.175 356.375 353.9 356.875C354.6 356.95 354.6 355.825 353.9 355.75C350.85 355.35 347.825 354.725 344.875 353.85C342.1 353.1 339.375 352.2 336.7 351.15C336 350.925 335.325 350.6 334.725 350.175L334.65 350.1C334.775 350.225 334.5 349.85 334.45 349.775C334.15 349.35 334.1 348.8 334.325 348.325C334.85 347.475 335.975 347.025 336.925 346.875C341.05 346.025 344.85 348.975 348.9 349.35C353.75 349.75 358.275 346.65 362.325 344.45C362.925 344.05 362.35 343.125 361.725 343.45Z" fill="black"/>
<path d="M338.2 352.75C337.8 354.5 339.2 355.95 340.5 356.825C341.425 357.4 342.4 357.85 343.425 358.2C346.325 359.3 349.275 360.225 352.275 360.95C353.65 361.275 355.025 361.6 356.4 361.85C357.1 361.975 357.4 360.875 356.675 360.75C353.425 360.15 350.2 359.35 347.05 358.325C345.475 357.85 343.95 357.275 342.425 356.625C341.925 356.4 341.425 356.125 340.975 355.825C340.175 355.25 339 354.2 339.225 353.075C339.5 351.95 338.375 352.05 338.2 352.75Z" fill="black"/>
<path d="M343.675 357.475C342.7 357.85 342.9 359.025 343.425 359.7C343.95 360.4 344.875 361.025 345.725 361.55C347.575 362.675 349.45 363.775 351.55 364.375C351.85 364.425 352.15 364.225 352.2 363.9C352.25 363.625 352.1 363.375 351.825 363.275C350.2 362.775 348.65 362.05 347.2 361.125C346.5 360.725 345.825 360.325 345.175 359.875C344.875 359.65 344.6 359.4 344.375 359.1C344.275 359 344.2 358.875 344.125 358.725C344.1 358.675 344.075 358.625 344.075 358.575C344 358.375 344.15 358.45 343.95 358.5C344.65 358.325 344.35 357.25 343.675 357.475Z" fill="black"/>
<path d="M346.5 362.101C345.975 363.426 347.475 364.701 348.525 365.301C349.575 365.901 351.275 366.351 352.725 366.726C354.175 367.101 354.575 367.301 355.55 367.376C356.25 367.401 356.925 367.401 357.625 367.326C362.125 367.001 366.6 366.076 371.025 365.251C373.25 364.851 375.425 364.401 377.65 364.026C378.375 363.901 378.05 362.801 377.375 362.926C373.4 363.626 369.475 364.426 365.525 365.101C363.45 365.426 361.4 365.801 359.325 366.001C358.025 366.151 356.575 366.401 355.275 366.151C354.75 366.076 354.225 365.876 353.7 365.751L351.275 365.176C350.5 364.976 349.775 364.676 349.1 364.276C348.5 363.951 347.275 363.151 347.55 362.326C347.825 361.501 346.75 361.401 346.5 362.101Z" fill="black"/>
<path d="M377.624 205.425C378.149 207.425 378.349 209.475 378.274 211.525C378.224 212.25 379.374 212.25 379.399 211.525C379.449 209.35 379.224 207.2 378.674 205.1C378.499 204.425 377.424 204.7 377.624 205.425Z" fill="black"/>
<path d="M270.475 324.175C272.575 323.05 274.675 321.9 276.75 320.7C278.125 319.9 279.5 319.075 280.8 318.15C282.1 317.225 282.5 316.975 282.425 315.725C282.35 314.475 280.775 313.5 279.35 313.425C278.95 313.425 278.575 313.425 278.175 313.475H278.1C276.525 313.425 274.95 313.475 273.375 313.475H236.45C233.7 313.475 230.825 313.625 228.55 315.425C227.925 315.825 227.25 316.15 226.575 316.425L223.025 318.2L215.625 322C206.075 326.9 196.525 331.925 186.95 336.775L184 338.225C183.275 338.6 182.45 338.825 182.025 339.475C181.575 340.125 181.625 341.975 182.825 342.225C184.025 342.475 185.775 342.3 187.125 342.225C193.15 341.95 199.175 341.325 205.175 340.775C211.85 340.175 218.525 339.475 225.175 338.8L231.85 338.075L233.6 337.925C234.6 337.825 235.6 337.55 236.525 337.125C237.85 336.525 239.1 335.8 240.3 334.975C240.9 334.575 240.35 333.6 239.725 334C237.9 335.25 235.8 336.6 233.525 336.825L228.9 337.3L211.1 339.125C204.625 339.725 198.15 340.375 191.675 340.875C189.525 341.025 187.375 341.2 185.2 341.25C184.6 341.25 183.95 341.3 183.35 341.25C182.75 341.2 183.025 341.2 183.225 341.2H182.975C182.975 341.15 183.05 341.25 183.05 341.25C183.05 341.25 182.975 341.175 182.9 341C182.675 340.625 182.825 340.15 183.175 339.95C183.775 339.475 184.75 339.175 185.475 338.825L188.35 337.375L194.75 334.1L209.025 326.725L223.5 319.275L226.975 317.525C227.75 317.2 228.475 316.825 229.2 316.4C230.55 315.45 232.15 314.85 233.825 314.7C235.65 314.5 237.55 314.625 239.4 314.625H278.45C279.35 314.55 280.95 314.5 281.275 315.6C281.35 315.75 281.375 315.925 281.35 316.075C281.35 316.15 281.275 316.525 281.35 316.35L281.075 316.6C280.7 316.95 280.3 317.275 279.85 317.525C277.225 319.275 274.475 320.875 271.675 322.35L269.925 323.325C269.275 323.65 269.85 324.625 270.5 324.25V324.175H270.475Z" fill="black"/>
<path d="M269.249 326.9C270.224 325.8 270.899 324.225 270.574 322.775C270.249 321.325 268.799 320.5 267.374 320.3C265.624 320.1 263.849 320 262.074 320.025C260.174 319.975 258.274 319.95 256.374 320.075C252.824 320.325 248.974 320.85 245.774 322.575C244.474 323.275 243.499 324.95 244.799 326.225C246.099 327.475 248.124 327.525 249.774 327.6C254.549 327.875 259.324 327.925 264.099 327.85C264.799 327.8 264.799 326.725 264.099 326.725C260.549 326.8 257.024 326.8 253.499 326.675C251.799 326.625 250.099 326.6 248.449 326.425C246.799 326.25 243.924 325.375 245.899 323.825C247.024 322.925 248.774 322.5 250.149 322.125C251.724 321.725 253.324 321.425 254.924 321.275C258.049 321.05 261.174 321.025 264.299 321.2C265.674 321.275 267.699 321.075 268.874 322C270.049 322.925 269.349 325.075 268.424 326.075C267.524 327.1 268.774 327.425 269.249 326.9Z" fill="black"/>
<path d="M254.725 321.4C255.5 323.225 255.25 325.3 254.075 326.9C253.925 327.175 254 327.5 254.275 327.675C254.525 327.825 254.85 327.75 255 327.5C255 327.5 255 327.5 255 327.475C256.4 325.55 256.65 323 255.65 320.85C255.5 320.6 255.2 320.5 254.925 320.65C254.925 320.65 254.925 320.65 254.9 320.65C254.675 320.775 254.575 321.125 254.725 321.4Z" fill="black"/>
<path d="M244.65 324.15C242.275 323.775 239.925 322.975 237.5 323.3C236.325 323.45 235.2 323.925 234.3 324.725C233.575 325.425 233.325 326.5 234.025 327.325C234.725 328.125 236.125 328.45 237.15 328.775C238.15 329.1 239.975 329.675 241.45 330.075C247.6 331.725 253.9 332.65 260.275 332.875C260.975 332.925 260.975 331.825 260.275 331.775C255.15 331.625 250.05 330.975 245.05 329.825C242.575 329.25 240.125 328.575 237.675 327.8L235.925 327.2C235.55 327.075 234.95 326.875 234.75 326.425C234.55 325.975 236.45 324.65 237.125 324.475C239.55 323.9 241.975 324.875 244.375 325.2C245.075 325.325 245.35 324.225 244.65 324.15Z" fill="black"/>
<path d="M245.75 325.725C244.9 325.925 244.575 326.975 244.375 327.7C244.175 328.425 244.175 329.6 244.75 330.375C244.9 330.65 245.25 330.725 245.525 330.575C245.8 330.425 245.875 330.075 245.725 329.8C245.65 329.75 245.6 329.675 245.575 329.6C245.575 329.55 245.525 329.525 245.525 329.475C245.525 329.425 245.525 329.525 245.475 329.425C245.475 329.35 245.45 329.3 245.425 329.225C245.4 329.175 245.375 329.125 245.375 329.075C245.325 329 245.375 329.15 245.375 329.025C245.35 328.7 245.35 328.375 245.425 328.05C245.45 327.875 245.525 327.725 245.575 327.575C245.6 327.475 245.625 327.375 245.65 327.3C245.65 327.25 245.7 327.25 245.7 327.225L245.775 327.025C245.8 327 245.825 326.975 245.825 326.95C245.825 326.95 245.9 326.875 245.875 326.95C245.825 327.025 246.025 326.8 245.925 326.875H246C245.925 326.925 246.075 326.875 246.075 326.875C246.375 326.775 246.55 326.475 246.45 326.175C246.35 325.875 246.05 325.7 245.75 325.8V325.725Z" fill="black"/>
<path d="M235.95 327.175C235.15 327.025 234.9 327.775 234.9 328.475C234.975 329.325 235.325 330.15 235.9 330.775C237.125 332.3 238.975 333.375 240.75 334.125C244.8 335.875 249.25 336.8 253.525 337.575C254.225 337.7 254.5 336.65 253.8 336.525C250.25 335.9 246.75 335.05 243.325 333.925C241.725 333.425 240.2 332.725 238.8 331.825C238.1 331.425 237.475 330.925 236.95 330.325C236.65 330 236.4 329.625 236.225 329.225C236.075 328.9 235.975 328.55 235.95 328.175H235.675C236.375 328.3 236.65 327.25 235.95 327.075V327.175Z" fill="black"/>
<path d="M243.7 329.9C242.9 330.575 242.5 331.625 242.65 332.65C242.775 333.7 243.375 334.65 244.275 335.2C244.875 335.525 245.45 334.6 244.85 334.225C244.55 334.05 244.3 333.825 244.125 333.525L243.875 333.05C243.875 332.975 243.85 332.875 243.8 332.8C243.8 332.725 243.8 332.675 243.75 332.65V332.575C243.675 331.85 243.925 331.15 244.475 330.675C244.675 330.475 244.7 330.15 244.5 329.925L244.475 329.9C244.25 329.65 243.925 329.725 243.7 329.9Z" fill="black"/>
<path d="M239.85 333.45C239.075 334.5 239.9 335.8 240.625 336.6C241.55 337.6 242.7 338.4 243.95 338.95C245.375 339.575 246.875 340 248.4 340.25C249.975 340.55 251.575 340.725 253.175 340.825C254.475 340.875 255.775 340.625 256.975 340.125C258.25 339.625 259.55 339.275 260.9 339.075C262.25 338.825 263.5 338.175 264.45 337.225C265.3 336.3 265.875 335.175 266.1 333.95C266.175 333.525 266.35 333.1 266.625 332.775C266.875 332.5 267.225 332.3 267.525 332C268.025 331.55 268.425 331.025 268.7 330.425C269.35 329.25 269.525 327.875 269.175 326.575C268.925 325.875 267.875 326.175 268.125 326.85C268.4 327.9 268.25 329.025 267.725 329.975C267.5 330.375 267.2 330.775 266.875 331.1C266.375 331.475 265.925 331.875 265.55 332.35C264.9 333.275 264.975 334.5 264.375 335.5C263.8 336.525 262.875 337.3 261.775 337.675C260.525 338.075 259.175 338.125 257.925 338.525C256.675 338.925 256.275 339.225 255.375 339.45C254.475 339.7 252.5 339.65 251.05 339.5C249.6 339.35 248.25 339.125 246.925 338.8C245.55 338.475 244.25 337.925 243.05 337.175C242.325 336.7 240.025 335.075 240.825 333.975C241.625 332.925 240.3 332.875 239.85 333.45Z" fill="black"/>
<path d="M245.625 335.55C245.2 336.525 245.3 337.675 245.9 338.55C246.55 339.375 247.45 339.975 248.45 340.25C248.725 340.325 249.025 340.15 249.1 339.875V339.85C249.175 339.55 249.025 339.25 248.725 339.15C248.35 339.05 248 338.9 247.675 338.7L247.275 338.375L247.025 338.175L246.95 338.05H246.9C246.675 337.775 246.525 337.425 246.45 337.075V336.5C246.45 336.45 246.5 336.375 246.5 336.35C246.5 336.325 246.55 336.2 246.575 336.15C246.725 335.875 246.65 335.55 246.375 335.375C246.1 335.25 245.775 335.325 245.6 335.575V335.55H245.625Z" fill="black"/>
<path d="M278 319.45C276.3 324.275 272.1 327.625 267.8 330.1C267.2 330.475 267.75 331.425 268.375 331.075C272.95 328.45 277.275 324.875 279.1 319.75C279.3 319.05 278.25 318.775 278 319.45Z" fill="black"/>
<path d="M151.55 351.575C150.375 356.95 149.45 362.425 148.75 367.875C148.675 368.6 149.75 368.575 149.875 367.875C150.525 362.5 151.45 357.15 152.625 351.85C152.775 351.175 151.725 350.85 151.55 351.575Z" fill="black"/>
<path d="M228.151 338.025C227.876 345.975 228.451 353.925 229.901 361.725C230.026 362.425 231.076 362.125 230.951 361.45C229.576 353.725 229.001 345.875 229.251 338.025C229.276 337.3 228.151 337.3 228.151 338.025Z" fill="black"/>
<path d="M233.125 318.125C244.35 318.425 255.575 318.425 266.825 318.175L276.45 317.85C277.175 317.8 277.175 316.725 276.45 316.75C265.25 317.15 254 317.325 242.775 317.2L233.1 317.05C232.4 316.975 232.4 318.125 233.125 318.125Z" fill="black"/>
<path d="M186.55 341.375C191.925 338.625 197.275 335.8 202.625 333C209.35 329.475 216.05 326.05 222.9 322.775C226.25 321.15 229.625 319.575 233.05 318.125C233.7 317.85 233.425 316.8 232.775 317.075C226.25 319.775 219.95 322.95 213.675 326.1C207.4 329.25 200.6 332.825 194.125 336.225L186 340.425C185.375 340.725 185.95 341.7 186.55 341.375Z" fill="black"/>
<path d="M225.325 302.65C227.95 301.75 230.725 301.25 233.5 301.2C234.675 301.2 236 301.475 237.1 300.95C239.575 299.725 239.175 296.325 237.225 294.85C235.275 293.35 233.375 293.625 231.45 293.75C227.65 293.95 223.925 294.925 220.275 295.975C218.5 296.5 216.625 296.975 214.85 297.625C213.075 298.275 211.85 299.525 210.6 300.9C208.575 303.125 206.525 305.525 204.925 308.1C203.8 309.875 204.2 312.35 204.65 314.25C205.25 316.825 206.225 319.3 207.475 321.625C208.375 323.25 209.9 325.55 212.1 325.075C212.8 324.925 212.5 323.85 211.775 324.025C210.275 324.35 209.025 322.125 208.425 321.075C207.4 319.175 206.6 317.15 206.05 315.05C205.525 313.2 204.95 310.975 205.725 309.05C205.8 308.875 205.875 308.725 205.975 308.575H205.925L206.725 307.45C207.725 306.025 208.8 304.7 209.925 303.375C210.95 302.075 212.1 300.85 213.325 299.725C214.65 298.625 216.45 298.275 218.05 297.775C221.375 296.8 224.675 295.8 228.075 295.225C229.625 294.95 231.2 294.8 232.775 294.775C233.45 294.75 234.1 294.8 234.75 294.9C235.85 295.15 236.825 295.625 237.35 296.675C237.875 297.725 237.95 299.1 236.825 299.825C235.7 300.55 234.4 300.075 233.3 300.075C230.475 300.075 227.725 300.725 225.05 301.525C224.35 301.775 224.65 302.825 225.325 302.625V302.65Z" fill="black"/>
<path d="M237.9 297.075C238.825 298.525 240.325 299.55 241.45 300.8C242.05 301.475 242.625 302.225 243.1 302.975C243.625 303.7 244.025 304.5 244.275 305.35C244.6 306.575 243.825 307.85 242.5 307.775C241.175 307.7 240.15 306.6 239.475 305.55C238.8 304.5 238.15 305.5 238.5 306.075C239.6 307.775 241.9 309.75 244 308.55C247.225 306.7 244.375 302.6 242.775 300.65C242.2 299.925 241.55 299.25 240.825 298.625C240.075 298 239.4 297.275 238.85 296.475C238.475 295.95 237.55 296.475 237.9 297.075Z" fill="black"/>
<path d="M235.425 301.275C236.2 301.3 236.9 301.625 237.45 302.175C238.025 302.675 238.375 303.4 238.375 304.15C238.375 304.8 238.3 305.4 237.725 305.85C237.225 306.175 236.625 306.325 236.025 306.25C233.4 306.2 230.475 306.25 227.975 307.225C227.325 307.475 227.6 308.55 228.3 308.275C230.6 307.35 233.35 307.35 235.825 307.35C237.05 307.35 238.175 307.2 238.95 306.125C239.625 305.075 239.7 303.775 239.2 302.65C238.8 301.925 238.225 301.3 237.55 300.825C236.925 300.4 236.2 300.175 235.45 300.175C234.7 300.2 234.7 301.325 235.425 301.275Z" fill="black"/>
<path d="M238.15 307.675H238.2L237.75 307.75H237.825L237.575 307.625H237.525C237.575 307.7 237.575 307.75 237.6 307.775C237.65 307.875 237.675 307.975 237.675 308.1C237.75 308.3 237.8 308.5 237.825 308.7C237.9 309.075 237.9 309.475 237.875 309.875C237.775 310.675 237.5 311.45 237.025 312.1C236.9 312.4 237.025 312.725 237.325 312.85C237.575 312.95 237.85 312.875 238 312.675C238.625 311.75 238.975 310.65 239 309.525C239 308.975 238.925 308.425 238.8 307.9C238.65 307.375 238.325 306.325 237.55 306.775C237.3 306.975 237.25 307.325 237.45 307.575C237.6 307.775 237.875 307.85 238.125 307.75V307.675H238.15Z" fill="black"/>
<path d="M229.525 313.475C231.225 313.025 232.975 312.625 234.75 312.7C235.55 312.725 236.35 312.875 237.125 313.1C237.325 313.15 237.725 313.225 237.65 313.55C237.575 313.875 238.625 314.525 238.75 313.825C239.025 312.05 236.9 311.8 235.6 311.65C233.45 311.4 231.35 311.85 229.25 312.425C228.55 312.575 228.85 313.625 229.525 313.475Z" fill="black"/>
<path d="M206.35 327.55H206.275C206.1 327.525 205.975 327.4 205.95 327.225C205.95 327.075 205.975 326.95 206.025 326.825C206.025 326.875 205.825 326.975 205.7 327.075L204.7 327.65C202.425 328.775 200 329.725 197.7 330.775C192.925 332.925 188.275 335.35 183.575 337.7C178.025 340.45 172.5 343.25 166.875 345.825C162.425 347.85 157.9 349.95 153.025 350.675C150.225 351.125 147.2 351.075 144.65 349.7C142.1 348.325 140.325 345.575 139.275 342.825C136.65 335.625 141.825 327.925 147.775 324.175C150.05 322.725 152.625 321.825 155.175 320.95C157.725 320.05 160.95 319 163.875 318.125C167.75 316.9 171.725 315.7 175.7 314.725C179.675 313.75 182.85 313.15 186.425 312.5C190.375 311.775 194.35 311.25 198.35 310.925C199.725 310.85 200.5 311.775 201.175 312.825C201.825 313.875 202.45 314.975 203 316.1C204.3 318.6 205.625 321.325 206.15 324.1C206.3 324.825 206.525 326 205.95 326.6C205.375 327.2 206.225 327.925 206.75 327.4C207.275 326.875 207.475 325.575 207.35 324.6C207.125 323.175 206.75 321.8 206.225 320.475C205.175 317.825 203.9 315.25 202.45 312.775C201.725 311.55 200.8 310.075 199.3 309.825C198.85 309.75 198.375 309.75 197.925 309.825C196.7 309.9 195.5 310.025 194.275 310.2C189.975 310.675 185.775 311.425 181.525 312.3C179.1 312.775 176.625 313.275 174.25 313.925L167.7 315.775C161.875 317.475 156 319.175 150.425 321.525C143.875 324.325 137.975 330.675 137.475 338.025C137.275 341.55 138.65 345.1 140.8 347.85C142.575 350.075 145.175 351.5 148 351.85C153.425 352.575 158.8 350.475 163.65 348.375C169.525 345.875 175.225 343.025 180.925 340.2C186.625 337.375 191.45 334.85 196.75 332.35C199.1 331.225 201.525 330.25 203.875 329.15C204.775 328.8 205.625 328.375 206.425 327.85C206.8 327.6 207.2 327.2 206.95 326.725C206.825 326.525 206.575 326.4 206.35 326.4C206.075 326.55 206 326.95 206.15 327.225C206.2 327.35 206.275 327.425 206.35 327.55Z" fill="black"/>
<path d="M244.65 308L246.425 309.525C246.55 309.625 246.675 309.675 246.825 309.675C246.95 309.675 247.1 309.6 247.2 309.525C247.425 309.3 247.425 308.95 247.2 308.725L245.45 307.225C245.35 307.125 245.2 307.05 245.05 307.075C244.9 307.075 244.75 307.125 244.65 307.225C244.45 307.45 244.45 307.775 244.65 308Z" fill="black"/>
<path d="M250.6 307.725C253.4 303.95 257 301.125 261.575 299.825C266.15 298.525 271.05 297.875 275.05 300.3C276.05 300.95 276.9 301.825 277.525 302.85C277.925 303.55 278.575 304.6 278.3 305.35C278.025 306.125 279.15 306.325 279.35 305.675C279.55 305.025 279.3 303.925 278.975 303.2C278.475 302.175 277.8 301.225 277 300.4C275.3 298.7 272.75 297.925 270.4 297.7C268.05 297.45 265.175 297.825 262.675 298.4C260.4 298.875 258.225 299.725 256.25 300.9C253.625 302.475 251.475 304.7 249.65 307.125C249.225 307.725 250.175 308.275 250.6 307.725Z" fill="black"/>
<path d="M200.6 311.25C201.8 309.7 203.625 308.75 205.575 308.7C205.9 308.7 206.15 308.45 206.15 308.125C206.15 307.825 205.9 307.55 205.575 307.55C203.325 307.625 201.225 308.675 199.825 310.475C199.625 310.675 199.625 311.025 199.825 311.25C200.05 311.45 200.375 311.45 200.6 311.25Z" fill="black"/>
<path d="M171.35 350.975C184.6 354.05 198.425 353.85 211.575 350.325C215.3 349.35 218.95 348.1 222.5 346.6C223.15 346.325 222.575 345.35 221.925 345.625C209.55 350.825 196.075 352.925 182.725 351.7C179 351.35 175.275 350.75 171.65 349.875C170.95 349.725 170.625 350.8 171.35 350.975Z" fill="black"/>
<path d="M438.55 293.675C438.55 293.675 440.375 308.65 440.125 313.45C439.875 318.275 443.65 324.825 441.775 326.025C439.925 327.25 421.775 332.775 421.775 332.775C421.775 332.775 442.6 328.4 447.675 329.55C447.675 329.55 443.6 316.025 442.425 311.475C441.25 306.925 438.55 293.675 438.55 293.675Z" fill="black"/>
<path d="M354.275 275.3C354.325 275.625 355.925 295.725 356.65 300.95C357.375 306.175 356.525 315.425 356.45 315.95C356.375 316.475 360.45 312.3 360.45 310.575C360.45 308.85 354.15 274.875 354.275 275.3Z" fill="black"/>
<path d="M225.575 294.65C222.175 290.025 218.525 285.575 215.025 281.05C214.125 279.925 213.25 278.75 212.4 277.575C211.95 277 211.35 276.35 211.175 275.625C211.025 274.9 212.475 273.85 213.35 274.175C214.225 274.5 214.775 275.225 215.3 275.875C218.9 280.575 222.375 285.3 225.9 290.025L229.25 294.525C229.65 295.1 230.625 294.525 230.175 293.95C227.1 289.775 224.025 285.65 220.9 281.525C219.25 279.3 217.575 277.025 215.85 274.85C215.2 274.05 214.425 273.225 213.35 273.025C212.275 272.825 211.2 273.225 210.525 274.075C209.2 275.65 210.975 277.525 211.9 278.725C216.075 284.275 220.475 289.6 224.65 295.2C225.05 295.75 226 295.225 225.575 294.65Z" fill="black"/>
<path d="M237.825 307.475C238.3 308.2 238.8 308.875 239.375 309.55C239.925 310.15 240.425 310.8 240.9 311.45C241.375 312.225 241.625 313.225 242 314.075C242.075 314.35 242.35 314.525 242.625 314.475C242.725 314.45 242.8 314.4 242.875 314.325C247.7 309.25 253.575 305.325 260.1 302.825C265.65 300.725 272.875 300.8 277.45 304.975C279.8 307.125 281 310.275 279.6 313.275C279.325 313.925 280.25 314.5 280.575 313.85C281.825 311.2 281.475 308.075 279.675 305.75C277.575 302.95 274.225 301.3 270.825 300.7C264.4 299.575 258.25 301.95 252.75 305.1C248.825 307.4 245.225 310.25 242.1 313.55L243.025 313.8C242.725 312.875 242.375 311.975 241.975 311.1C241.6 310.375 240.925 309.725 240.35 309.075C239.8 308.375 239.25 307.675 238.775 306.925C238.575 306.675 238.225 306.625 237.975 306.825C237.8 306.95 237.725 307.225 237.825 307.475Z" fill="black"/>
<path d="M124.95 181.15C124.95 178.85 124.7 174.675 124.95 172.375C125.075 171.125 125.675 168.525 128.6 168.525C130.45 168.525 132.725 169.45 132.725 172.7V181.325C132.725 181.325 132.725 185.375 128.85 185.375C128.825 185.375 124.95 185.65 124.95 181.15Z" fill="#5B03B2"/>
<path d="M125.5 181.15C125.5 179.05 125.375 176.9 125.375 174.75C125.425 173.3 125.325 171.6 126.15 170.3C126.95 169 129.025 168.775 130.4 169.45C131.775 170.15 132.15 171.475 132.15 172.9V180.175C132.15 181.675 132.15 183.3 130.775 184.25C129.875 184.775 128.8 184.925 127.775 184.65C126.1 184.225 125.5 182.775 125.5 181.15C125.5 180.45 124.375 180.45 124.375 181.15C124.425 182.9 125.025 184.625 126.65 185.45C127.45 185.825 128.325 185.975 129.2 185.9C131.75 185.75 133.25 183.6 133.275 181.125V173.125C133.275 171.625 133 170.1 131.775 169.075C130.35 167.9 128.375 167.65 126.675 168.375C124.975 169.225 124.45 171.2 124.325 172.95C124.175 175.7 124.375 178.45 124.375 181.175C124.375 181.5 124.625 181.75 124.95 181.75C125.25 181.725 125.5 181.475 125.5 181.15Z" fill="black"/>
<path d="M121.65 179.5C121.7 182.65 122.55 186.05 125.65 187.5C127.4 188.3 129.525 188.675 131.35 187.875C132.9 187.2 134.15 186 134.9 184.475C135.5 183.05 135.55 181.325 135.5 179.775C135.5 179.075 134.375 179.075 134.4 179.775C134.45 180.925 134.35 182.075 134.125 183.225C133.75 184.575 132.875 185.725 131.7 186.45C130.075 187.45 128.225 187.35 126.475 186.7C126.025 186.5 125.625 186.275 125.225 186L124.95 185.8L124.175 185C122.95 183.475 122.75 181.4 122.75 179.5C122.75 178.8 121.65 178.8 121.65 179.5Z" fill="black"/>
<path d="M128.3 187.825V191.375C128.3 191.675 128.525 191.9 128.825 191.9C128.85 191.9 128.85 191.9 128.875 191.9C129.175 191.9 129.425 191.675 129.45 191.375V187.825C129.425 187.525 129.2 187.275 128.875 187.25C128.55 187.275 128.3 187.525 128.3 187.825Z" fill="black"/>
<path d="M125.7 191.925H132.225C132.525 191.85 132.7 191.525 132.625 191.225C132.575 191.025 132.425 190.875 132.225 190.825H125.7C125.4 190.75 125.075 190.925 125 191.225C124.925 191.525 125.1 191.85 125.4 191.925C125.5 191.95 125.6 191.95 125.7 191.925Z" fill="black"/>
<defs>
<filter id="filter0_f_1357_9982" x="96.4" y="0.399994" width="462.2" height="462.2" filterUnits="userSpaceOnUse" color-interpolation-filters="sRGB">
<feFlood flood-opacity="0" result="BackgroundImageFix"/>
<feBlend mode="normal" in="SourceGraphic" in2="BackgroundImageFix" result="shape"/>
<feGaussianBlur stdDeviation="80.3" result="effect1_foregroundBlur_1357_9982"/>
</filter>
<linearGradient id="paint0_linear_1357_9982" x1="284.012" y1="73.9658" x2="284.012" y2="119.04" gradientUnits="userSpaceOnUse">
<stop stop-color="#9D50BB"/>
<stop offset="1" stop-color="#472455"/>
</linearGradient>
<linearGradient id="paint1_linear_1357_9982" x1="266.576" y1="72.96" x2="266.576" y2="84.192" gradientUnits="userSpaceOnUse">
<stop stop-color="#9D50BB"/>
<stop offset="1" stop-color="#472455"/>
</linearGradient>
<clipPath id="clip0_1357_9982">
<rect width="61" height="60" fill="white" transform="translate(320 68)"/>
</clipPath>
<clipPath id="clip1_1357_9982">
<rect width="48" height="48" fill="white" transform="matrix(-1 0 0 1 308 72)"/>
</clipPath>
</defs>
</svg>
