<svg width="100%" height="100%" viewBox="0 0 21 21" fill="none" xmlns="http://www.w3.org/2000/svg">
<path d="M14.8529 6.63625C14.8004 6.63625 14.7502 6.61542 14.7131 6.57835C14.676 6.54128 14.6552 6.491 14.6552 6.43858C14.6552 6.38615 14.676 6.33588 14.7131 6.29881C14.7502 6.26174 14.8004 6.24091 14.8529 6.24091C14.9051 6.24225 14.955 6.26267 14.9931 6.2983C15.0541 6.35053 15.1326 6.37782 15.2128 6.37472C15.2931 6.37162 15.3692 6.33836 15.426 6.28158C15.4827 6.2248 15.516 6.14869 15.5191 6.06845C15.5222 5.98821 15.4949 5.90976 15.4427 5.84877C15.365 5.77116 15.273 5.70943 15.1717 5.66704V5.62241C15.1717 5.53785 15.1381 5.45676 15.0783 5.39697C15.0185 5.33718 14.9374 5.30359 14.8529 5.30359C14.7683 5.30359 14.6872 5.33718 14.6274 5.39697C14.5676 5.45676 14.5341 5.53785 14.5341 5.62241V5.66704C14.3631 5.74542 14.2236 5.87921 14.1381 6.04674C14.0526 6.21427 14.0262 6.40574 14.0631 6.59016C14.1 6.77458 14.198 6.94115 14.3414 7.06292C14.4847 7.18469 14.6649 7.25453 14.8529 7.26113C14.8787 7.2607 14.9043 7.26542 14.9283 7.27501C14.9522 7.28459 14.9741 7.29885 14.9925 7.31695C15.0108 7.33505 15.0255 7.35663 15.0354 7.38044C15.0454 7.40424 15.0505 7.4298 15.0505 7.45561C15.0505 7.50803 15.0297 7.55831 14.9926 7.59538C14.9556 7.63245 14.9053 7.65327 14.8529 7.65327C14.8268 7.65377 14.8009 7.64893 14.7768 7.63906C14.7527 7.6292 14.7308 7.6145 14.7126 7.59589C14.6498 7.54876 14.5718 7.52647 14.4936 7.53328C14.4154 7.54009 14.3424 7.57552 14.2887 7.63279C14.235 7.69006 14.2043 7.76513 14.2025 7.84362C14.2007 7.92212 14.228 7.99851 14.279 8.05817C14.3567 8.13578 14.4487 8.1975 14.55 8.2399V8.28772C14.55 8.37227 14.5836 8.45337 14.6434 8.51316C14.7032 8.57295 14.7843 8.60654 14.8688 8.60654C14.9534 8.60654 15.0345 8.57295 15.0942 8.51316C15.154 8.45337 15.1876 8.37227 15.1876 8.28772V8.2399C15.3614 8.16372 15.5039 8.03044 15.5916 7.86214C15.6792 7.69385 15.7067 7.50066 15.6695 7.31459C15.6323 7.12853 15.5326 6.96077 15.387 6.83913C15.2414 6.7175 15.0585 6.64929 14.8688 6.64581L14.8529 6.63625Z" fill="#3575FF" stroke="#3575FF" stroke-width="0.170036"/>
<path d="M18.2456 10.309H16.9991C17.7276 9.84417 18.2857 9.15557 18.5897 8.34657C18.8937 7.53757 18.9271 6.65181 18.685 5.82219C18.4429 4.99258 17.9382 4.26386 17.2468 3.74539C16.5554 3.22692 15.7145 2.94666 14.8502 2.94666C13.986 2.94666 13.1451 3.22692 12.4537 3.74539C11.7622 4.26386 11.2576 4.99258 11.0154 5.82219C10.7733 6.65181 10.8067 7.53757 11.1107 8.34657C11.4147 9.15557 11.9729 9.84417 12.7014 10.309H12.0829C11.5402 9.39308 10.736 8.66025 9.77375 8.20466C8.81147 7.74907 7.73497 7.59152 6.68249 7.75224C5.63001 7.91297 4.6496 8.38462 3.86715 9.10664C3.08469 9.82866 2.53592 10.7681 2.2913 11.8043C2.04668 12.8405 2.11738 13.9261 2.49432 14.9219C2.87126 15.9176 3.53723 16.7779 4.40671 17.3924C5.27619 18.0068 6.3095 18.3473 7.37393 18.3702C8.43837 18.3931 9.48534 18.0972 10.3804 17.5207C10.4393 17.7619 10.5769 17.9766 10.7715 18.1307C10.9661 18.2849 11.2066 18.3698 11.4548 18.3719H18.2456C18.5458 18.3719 18.8337 18.2527 19.0459 18.0404C19.2582 17.8282 19.3774 17.5403 19.3774 17.2401V16.4048C19.3772 16.2526 19.3459 16.1021 19.2857 15.9623C19.2254 15.8225 19.1373 15.6965 19.0267 15.5918C19.1384 15.4854 19.2271 15.3572 19.2874 15.2152C19.3477 15.0732 19.3783 14.9204 19.3774 14.7661V13.9181C19.3769 13.7654 19.3455 13.6145 19.2853 13.4742C19.225 13.334 19.1371 13.2074 19.0267 13.1019C19.1373 12.9972 19.2254 12.8712 19.2857 12.7314C19.3459 12.5917 19.3772 12.4411 19.3774 12.2889V11.4408C19.3766 11.1409 19.2571 10.8535 19.045 10.6415C18.8329 10.4294 18.5455 10.3099 18.2456 10.309ZM11.4931 6.95509C11.4925 6.29097 11.6888 5.64159 12.0573 5.08909C12.4258 4.53659 12.9499 4.1058 13.5633 3.85122C14.1767 3.59664 14.8518 3.5297 15.5032 3.65887C16.1547 3.78805 16.7531 4.10754 17.223 4.57691C17.6928 5.04629 18.0128 5.64447 18.1426 6.29578C18.2724 6.94709 18.2061 7.62226 17.9521 8.23589C17.6981 8.84951 17.2678 9.37401 16.7157 9.74304C16.1635 10.1121 15.5143 10.309 14.8502 10.309C13.9607 10.3082 13.1077 9.95467 12.4784 9.32596C11.8491 8.69724 11.4948 7.84465 11.4931 6.95509ZM2.79894 13.0286C2.79831 12.0969 3.07402 11.1861 3.59121 10.4112C4.10839 9.63635 4.84379 9.0323 5.70436 8.6755C6.56494 8.31869 7.51201 8.22517 8.42575 8.40676C9.33949 8.58836 10.1788 9.03691 10.8376 9.69565C11.4963 10.3544 11.9449 11.1937 12.1265 12.1075C12.3081 13.0212 12.2145 13.9683 11.8577 14.8289C11.5009 15.6894 10.8969 16.4249 10.122 16.942C9.34715 17.4592 8.43629 17.7349 7.50468 17.7343C6.25716 17.7326 5.06121 17.2363 4.17908 16.3542C3.29695 15.472 2.80062 14.2761 2.79894 13.0286ZM18.7398 16.4048V17.2529C18.739 17.3837 18.6866 17.5089 18.5941 17.6014C18.5016 17.6939 18.3764 17.7462 18.2456 17.7471H11.4548C11.324 17.7462 11.1988 17.6939 11.1063 17.6014C11.0138 17.5089 10.9615 17.3837 10.9607 17.2529V17.0839C11.3627 16.7458 11.7129 16.3505 12 15.9107H18.2456C18.3767 15.9107 18.5024 15.9627 18.5951 16.0554C18.6877 16.1481 18.7398 16.2738 18.7398 16.4048ZM18.7398 13.9308V14.7789C18.739 14.9097 18.6866 15.0349 18.5941 15.1274C18.5016 15.2199 18.3764 15.2722 18.2456 15.273H12.3635C12.6269 14.6926 12.7835 14.0695 12.8257 13.4335H18.2456C18.3748 13.4342 18.4986 13.4853 18.5908 13.5757C18.6831 13.6661 18.7365 13.7889 18.7398 13.9181V13.9308ZM12.8257 12.7831C12.8038 12.1524 12.6699 11.5306 12.4304 10.9467H18.2456C18.3764 10.9475 18.5016 10.9998 18.5941 11.0923C18.6866 11.1848 18.739 11.31 18.7398 11.4408V12.2889C18.7398 12.42 18.6877 12.5457 18.5951 12.6383C18.5024 12.731 18.3767 12.7831 18.2456 12.7831H12.8257Z" fill="#3575FF" stroke="#3575FF" stroke-width="0.170036"/>
<path d="M8.82092 11.7182C8.79128 11.6884 8.75602 11.6646 8.71717 11.6485C8.67832 11.6323 8.63665 11.6239 8.59456 11.6239C8.55247 11.6239 8.5108 11.6323 8.47195 11.6485C8.4331 11.6646 8.39784 11.6884 8.3682 11.7182L6.20343 13.883C6.17355 13.9126 6.14983 13.9479 6.13364 13.9868C6.11746 14.0256 6.10913 14.0673 6.10913 14.1094C6.10913 14.1515 6.11746 14.1931 6.13364 14.232C6.14983 14.2708 6.17355 14.3061 6.20343 14.3357C6.23322 14.3653 6.26855 14.3887 6.3074 14.4045C6.34624 14.4204 6.38783 14.4284 6.42979 14.4282C6.47175 14.4284 6.51334 14.4204 6.55219 14.4045C6.59103 14.3887 6.62636 14.3653 6.65615 14.3357L8.82092 12.171C8.8508 12.1413 8.87452 12.1061 8.89071 12.0672C8.90689 12.0284 8.91523 11.9867 8.91523 11.9446C8.91523 11.9025 8.90689 11.8608 8.89071 11.822C8.87452 11.7831 8.8508 11.7479 8.82092 11.7182ZM7.06424 12.579C7.23323 12.4099 7.32815 12.1805 7.32815 11.9414C7.32815 11.7023 7.23323 11.473 7.06424 11.3038C6.93848 11.1797 6.77884 11.0955 6.60538 11.0619C6.43192 11.0283 6.25239 11.0467 6.08938 11.1149C5.92637 11.183 5.78715 11.2978 5.68923 11.4449C5.59131 11.592 5.53906 11.7647 5.53906 11.9414C5.53906 12.1181 5.59131 12.2908 5.68923 12.4379C5.78715 12.585 5.92637 12.6998 6.08938 12.768C6.25239 12.8361 6.43192 12.8545 6.60538 12.8209C6.77884 12.7873 6.93848 12.7032 7.06424 12.579ZM6.24488 12.1263C6.19774 12.0776 6.17139 12.0124 6.17139 11.9446C6.17139 11.8768 6.19774 11.8116 6.24488 11.7629C6.26916 11.7386 6.298 11.7193 6.32972 11.7062C6.36145 11.6931 6.39545 11.6863 6.42979 11.6864C6.48061 11.6867 6.5302 11.702 6.57235 11.7304C6.61449 11.7588 6.64733 11.799 6.66673 11.846C6.68613 11.893 6.69124 11.9446 6.68142 11.9945C6.6716 12.0444 6.64728 12.0902 6.61152 12.1263C6.58751 12.1505 6.55895 12.1697 6.52749 12.1828C6.49603 12.1959 6.46228 12.2027 6.4282 12.2027C6.39411 12.2027 6.36037 12.1959 6.3289 12.1828C6.29744 12.1697 6.26888 12.1505 6.24488 12.1263ZM9.22901 13.4749C9.05983 13.3059 8.83049 13.211 8.59137 13.211C8.35225 13.211 8.12291 13.3059 7.95374 13.4749C7.82963 13.6007 7.74547 13.7603 7.71186 13.9338C7.67824 14.1072 7.69667 14.2868 7.76482 14.4498C7.83297 14.6128 7.94781 14.752 8.09488 14.8499C8.24195 14.9479 8.41469 15.0001 8.59137 15.0001C8.76806 15.0001 8.9408 14.9479 9.08787 14.8499C9.23494 14.752 9.34977 14.6128 9.41792 14.4498C9.48607 14.2868 9.5045 14.1072 9.47089 13.9338C9.43727 13.7603 9.35312 13.6007 9.22901 13.4749ZM8.77629 14.2943C8.72793 14.3422 8.66262 14.369 8.59456 14.369C8.5265 14.369 8.46119 14.3422 8.41283 14.2943C8.38827 14.2702 8.36883 14.2414 8.35568 14.2096C8.34253 14.1779 8.33595 14.1438 8.33632 14.1094C8.33562 14.0754 8.34207 14.0417 8.35526 14.0104C8.36844 13.9791 8.38806 13.9509 8.41283 13.9276C8.43657 13.9035 8.46486 13.8844 8.49605 13.8713C8.52725 13.8583 8.56074 13.8516 8.59456 13.8516C8.62838 13.8516 8.66187 13.8583 8.69307 13.8713C8.72427 13.8844 8.75255 13.9035 8.77629 13.9276C8.80048 13.9516 8.81969 13.9802 8.83279 14.0117C8.8459 14.0431 8.85264 14.0769 8.85264 14.111C8.85264 14.145 8.8459 14.1788 8.83279 14.2103C8.81969 14.2417 8.80048 14.2703 8.77629 14.2943Z" fill="#3575FF" stroke="#3575FF" stroke-width="0.170036"/>
<path d="M7.50679 9.29529C6.7684 9.29529 6.0466 9.51425 5.43265 9.92447C4.8187 10.3347 4.34019 10.9178 4.05762 11.5999C3.77506 12.2821 3.70112 13.0328 3.84517 13.757C3.98923 14.4812 4.34479 15.1464 4.86691 15.6685C5.38903 16.1906 6.05425 16.5462 6.77845 16.6903C7.50265 16.8343 8.2533 16.7604 8.93548 16.4778C9.61766 16.1952 10.2007 15.7167 10.611 15.1028C11.0212 14.4888 11.2401 13.767 11.2401 13.0286C11.2393 12.0388 10.8457 11.0897 10.1457 10.3897C9.44578 9.68974 8.49668 9.29614 7.50679 9.29529ZM7.50679 16.1212C6.89438 16.1212 6.29573 15.9395 5.78657 15.5992C5.27741 15.2589 4.88063 14.7752 4.64642 14.2094C4.4122 13.6435 4.35108 13.0209 4.47079 12.4203C4.5905 11.8197 4.88565 11.2681 5.31892 10.8353C5.75218 10.4025 6.30408 10.1079 6.9048 9.98883C7.50552 9.86974 8.12807 9.9315 8.69368 10.1663C9.25929 10.4011 9.74256 10.7984 10.0823 11.3079C10.4221 11.8174 10.6031 12.4162 10.6025 13.0286C10.6017 13.8491 10.2751 14.6357 9.69466 15.2156C9.1142 15.7955 8.32727 16.1212 7.50679 16.1212ZM14.8523 4.14002C14.2954 4.13939 13.7508 4.30396 13.2875 4.61291C12.8241 4.92186 12.4628 5.3613 12.2492 5.87565C12.0356 6.38999 11.9794 6.95613 12.0877 7.50243C12.196 8.04872 12.4638 8.55063 12.8574 8.94466C13.251 9.33868 13.7526 9.60712 14.2988 9.716C14.8449 9.82488 15.4111 9.76932 15.9257 9.55634C16.4403 9.34336 16.8802 8.98254 17.1896 8.51952C17.4991 8.0565 17.6643 7.51209 17.6643 6.95517C17.6635 6.20936 17.367 5.49428 16.84 4.96661C16.3129 4.43894 15.5982 4.1417 14.8523 4.14002ZM14.8523 9.12951C14.4214 9.13014 14 9.00288 13.6414 8.76386C13.2828 8.52483 13.0032 8.18478 12.838 7.78676C12.6728 7.38874 12.6294 6.95065 12.7133 6.52795C12.7972 6.10526 13.0047 5.71697 13.3094 5.41225C13.6141 5.10752 14.0024 4.90007 14.4251 4.81615C14.8478 4.73223 15.2859 4.77562 15.6839 4.94083C16.0819 5.10604 16.422 5.38563 16.661 5.74421C16.9001 6.10279 17.0273 6.52423 17.0267 6.95517C17.025 7.53132 16.7954 8.0834 16.388 8.4908C15.9806 8.8982 15.4285 9.12782 14.8523 9.12951Z" fill="#3575FF" stroke="#3575FF" stroke-width="0.170036"/>
</svg>
