<svg width="15" height="15" viewBox="0 0 15 15" fill="none" xmlns="http://www.w3.org/2000/svg">
<g clip-path="url(#clip0_9501_233518)">
<path fill-rule="evenodd" clip-rule="evenodd" d="M7.09336 2.57128C7.22089 2.56171 7.34991 2.55682 7.47998 2.55682C10.2954 2.55682 12.5811 4.84253 12.5811 7.6579C12.5811 10.4733 10.2954 12.759 7.47998 12.759C4.66461 12.759 2.37891 10.4733 2.37891 7.6579C2.37891 7.52782 2.38379 7.39881 2.39336 7.27128C2.5753 9.50917 4.45143 11.2712 6.73608 11.2712C9.14081 11.2712 11.0932 9.31873 11.0932 6.91399C11.0932 4.62935 9.33125 2.75322 7.09336 2.57128Z" fill="#D195FC" fill-opacity="0.3"/>
<path fill-rule="evenodd" clip-rule="evenodd" d="M7.69232 6.17004C7.80965 6.17004 7.90487 6.07482 7.90487 5.9575V5.53241C7.90487 5.41508 7.80965 5.31986 7.69232 5.31986H7.26723C7.14991 5.31986 7.05469 5.41508 7.05469 5.53241V5.9575C7.05469 6.07482 7.14991 6.17004 7.26723 6.17004H7.69232Z" fill="#7D8398"/>
<path fill-rule="evenodd" clip-rule="evenodd" d="M7.69232 9.99597C7.80965 9.99597 7.90487 9.90065 7.90487 9.78322V7.02013C7.90487 6.9027 7.80965 6.80738 7.69232 6.80738H7.26723C7.14991 6.80738 7.05469 6.9027 7.05469 7.02013V9.78322C7.05469 9.90065 7.14991 9.99597 7.26723 9.99597H7.69232Z" fill="#7D8398"/>
<path fill-rule="evenodd" clip-rule="evenodd" d="M10.7857 10.9643C8.96094 12.789 5.99778 12.789 4.173 10.9643C2.34821 9.13948 2.34822 6.17632 4.173 4.35154C5.99779 2.52676 8.96094 2.52675 10.7857 4.35154C12.2242 5.79001 12.529 7.93582 11.6996 9.67385C11.5984 9.88576 11.6884 10.1395 11.8999 10.2407C12.1117 10.3417 12.3658 10.2517 12.4668 10.04C13.4468 7.98613 13.087 5.45023 11.387 3.75025C9.23038 1.59362 5.72834 1.59362 3.57171 3.75025C1.41508 5.90688 1.41508 9.40892 3.57171 11.5655C5.72834 13.7222 9.23038 13.7222 11.387 11.5655C11.5529 11.3996 11.5529 11.1302 11.387 10.9643C11.2211 10.7983 10.9516 10.7983 10.7857 10.9643Z" fill="#7D8398"/>
</g>
<defs>
<clipPath id="clip0_9501_233518">
<rect width="13.6029" height="13.6029" fill="white" transform="translate(0.679688 0.856201)"/>
</clipPath>
</defs>
</svg>
