<svg width="100%" height="100%" viewBox="0 0 22 21" fill="none" xmlns="http://www.w3.org/2000/svg">
<path d="M5.88371 9.75635C5.71556 9.75635 5.55119 9.80621 5.41138 9.89963C5.27156 9.99305 5.16259 10.1258 5.09825 10.2812C5.0339 10.4365 5.01706 10.6075 5.04987 10.7724C5.08267 10.9373 5.16364 11.0888 5.28254 11.2077C5.40144 11.3266 5.55293 11.4076 5.71785 11.4404C5.88277 11.4732 6.05371 11.4563 6.20906 11.392C6.36441 11.3276 6.49719 11.2187 6.59061 11.0789C6.68403 10.9391 6.73389 10.7747 6.73389 10.6065C6.73389 10.381 6.64432 10.1648 6.48488 10.0054C6.32544 9.84592 6.10919 9.75635 5.88371 9.75635ZM16.0859 9.75635C15.9177 9.75635 15.7533 9.80621 15.6135 9.89963C15.4737 9.99305 15.3647 10.1258 15.3004 10.2812C15.2361 10.4365 15.2192 10.6075 15.252 10.7724C15.2848 10.9373 15.3658 11.0888 15.4847 11.2077C15.6036 11.3266 15.7551 11.4076 15.92 11.4404C16.0849 11.4732 16.2559 11.4563 16.4112 11.392C16.5666 11.3276 16.6993 11.2187 16.7928 11.0789C16.8862 10.9391 16.936 10.7747 16.936 10.6065C16.936 10.381 16.8465 10.1648 16.687 10.0054C16.5276 9.84592 16.3113 9.75635 16.0859 9.75635ZM17.7862 4.65527H4.18335C3.50691 4.65527 2.85817 4.92399 2.37985 5.40231C1.90153 5.88063 1.63281 6.52937 1.63281 7.20581V14.0072C1.63281 14.6837 1.90153 15.3324 2.37985 15.8108C2.85817 16.2891 3.50691 16.5578 4.18335 16.5578H17.7862C18.4627 16.5578 19.1114 16.2891 19.5897 15.8108C20.068 15.3324 20.3368 14.6837 20.3368 14.0072V7.20581C20.3368 6.52937 20.068 5.88063 19.5897 5.40231C19.1114 4.92399 18.4627 4.65527 17.7862 4.65527ZM18.6364 14.0072C18.6364 14.2327 18.5468 14.449 18.3874 14.6084C18.228 14.7679 18.0117 14.8574 17.7862 14.8574H4.18335C3.95787 14.8574 3.74162 14.7679 3.58218 14.6084C3.42274 14.449 3.33317 14.2327 3.33317 14.0072V7.20581C3.33317 6.98033 3.42274 6.76408 3.58218 6.60464C3.74162 6.4452 3.95787 6.35563 4.18335 6.35563H17.7862C18.0117 6.35563 18.228 6.4452 18.3874 6.60464C18.5468 6.76408 18.6364 6.98033 18.6364 7.20581V14.0072ZM10.9848 8.05599C10.4803 8.05599 9.98722 8.20558 9.56778 8.48583C9.14835 8.76609 8.82144 9.16443 8.6284 9.63048C8.43535 10.0965 8.38484 10.6094 8.48326 11.1041C8.58167 11.5989 8.82458 12.0533 9.18128 12.41C9.53798 12.7667 9.99244 13.0096 10.4872 13.1081C10.982 13.2065 11.4948 13.156 11.9608 12.9629C12.4269 12.7699 12.8252 12.443 13.1055 12.0235C13.3857 11.6041 13.5353 11.111 13.5353 10.6065C13.5353 9.93008 13.2666 9.28134 12.7883 8.80303C12.31 8.32471 11.6612 8.05599 10.9848 8.05599ZM10.9848 11.4567C10.8166 11.4567 10.6523 11.4068 10.5125 11.3134C10.3726 11.22 10.2637 11.0872 10.1993 10.9319C10.135 10.7765 10.1181 10.6056 10.1509 10.4407C10.1837 10.2757 10.2647 10.1243 10.3836 10.0054C10.5025 9.88646 10.654 9.80549 10.8189 9.77269C10.9838 9.73988 11.1548 9.75672 11.3101 9.82107C11.4655 9.88541 11.5983 9.99438 11.6917 10.1342C11.7851 10.274 11.835 10.4384 11.835 10.6065C11.835 10.832 11.7454 11.0483 11.586 11.2077C11.4265 11.3671 11.2103 11.4567 10.9848 11.4567Z" fill="#0ACF80"/>
</svg>
