<svg width="100%" height="100%" viewBox="0 0 97 38" fill="none" xmlns="http://www.w3.org/2000/svg">
<g clip-path="url(#clip0_9500_232077)">
<path d="M14.4724 12.2197H1.64678C1.23745 12.2197 0.862236 12.56 0.862236 13.0025V14.4318C0.862236 14.8742 1.23745 15.2486 1.64678 15.2486H14.4724C14.9159 15.2486 15.257 14.8742 15.2911 14.4318V13.0365C15.2911 12.56 14.9159 12.2197 14.4724 12.2197ZM14.4724 20.2513H1.64678C1.44212 20.2513 1.23745 20.3534 1.0669 20.4895C0.930457 20.6256 0.828125 20.8298 0.828125 21.0681V22.4974C0.828125 22.9398 1.20334 23.3142 1.61267 23.3142H14.4383C14.8818 23.3142 15.2229 22.9739 15.257 22.4974V21.0681C15.2911 20.5916 14.9159 20.2513 14.4724 20.2513ZM8.87827 24.233H1.64678C1.44212 24.233 1.23745 24.3011 1.10101 24.4713C0.964568 24.6074 0.862236 24.8116 0.862236 25.0498V26.4792C0.862236 26.9216 1.23745 27.2959 1.64678 27.2959H8.84416C9.2876 27.2959 9.62871 26.9216 9.62871 26.4792V25.0158C9.66282 24.6074 9.32171 24.233 8.87827 24.233ZM15.2911 16.2355H1.64678C1.44212 16.2355 1.23745 16.3036 1.10101 16.4737C0.964568 16.6099 0.862236 16.8141 0.862236 17.0523V18.4816C0.862236 18.924 1.23745 19.2984 1.64678 19.2984H15.257C15.7004 19.2984 16.0415 18.924 16.0415 18.4816V17.0523C16.0756 16.5758 15.7345 16.2355 15.2911 16.2355Z" fill="#00C3F7"/>
<path d="M30.198 15.453C29.7887 15.0446 29.3453 14.7383 28.7995 14.5001C28.2878 14.2619 27.7079 14.1598 27.1281 14.1598C26.5823 14.1598 26.0365 14.2619 25.5249 14.5001C25.1837 14.6703 24.8767 14.8745 24.638 15.1467V14.9085C24.638 14.7724 24.5698 14.6703 24.5015 14.5682C24.3992 14.4661 24.2969 14.398 24.1604 14.398H22.3526C22.2161 14.398 22.0797 14.4661 22.0114 14.5682C21.9091 14.6703 21.875 14.7724 21.875 14.9085V26.8197C21.875 26.9558 21.9432 27.0579 22.0114 27.16C22.1138 27.2621 22.2161 27.2962 22.3526 27.2962H24.1604C24.2969 27.2962 24.3992 27.2621 24.5015 27.16C24.6039 27.0579 24.638 26.9558 24.638 26.8197V22.7359C24.9109 23.0081 25.2179 23.2464 25.5931 23.3484C26.0706 23.5186 26.5823 23.6207 27.0598 23.6207C27.6397 23.6207 28.2196 23.5186 28.7313 23.2804C29.277 23.0762 29.7546 22.7359 30.1298 22.3275C30.5391 21.8851 30.8802 21.3746 31.0849 20.8301C31.3237 20.2175 31.4601 19.5369 31.426 18.8902C31.426 18.2096 31.3237 17.563 31.0849 16.9164C30.9485 16.4059 30.6074 15.8954 30.198 15.453ZM28.5948 19.7751C28.4925 20.0133 28.356 20.2515 28.1855 20.4557C27.8103 20.8641 27.2986 21.0683 26.7528 21.0683C26.48 21.0683 26.2071 21.0002 25.9683 20.8981C25.7295 20.796 25.4907 20.6259 25.3202 20.4557C25.1496 20.2515 24.9791 20.0133 24.8767 19.7751C24.6721 19.2306 24.6721 18.652 24.8767 18.1075C24.9791 17.8693 25.1155 17.6311 25.3202 17.4269C25.5249 17.2227 25.7295 17.0865 25.9683 16.9504C26.2071 16.8483 26.48 16.7803 26.7528 16.7803C27.0257 16.7803 27.2986 16.8483 27.5715 16.9504C27.8103 17.0525 28.0149 17.2227 28.2196 17.3928C28.3902 17.597 28.5266 17.8012 28.6289 18.0735C28.7995 18.618 28.7995 19.2306 28.5948 19.7751ZM41.284 14.432H39.4762C39.3397 14.432 39.2374 14.5001 39.1351 14.5682C39.0327 14.6703 38.9986 14.8064 38.9986 14.9425V15.1467C38.7598 14.8745 38.4869 14.6703 38.18 14.5341C37.7024 14.2959 37.1566 14.1938 36.6109 14.1938C35.4511 14.1938 34.3254 14.6703 33.5068 15.487C33.0974 15.9295 32.7563 16.4399 32.5176 16.9845C32.2447 17.597 32.1423 18.2777 32.1423 18.9583C32.1423 19.639 32.2447 20.3196 32.5176 20.9322C32.7563 21.4767 33.0974 21.9872 33.5068 22.4296C34.3254 23.2464 35.417 23.7228 36.5767 23.7228C37.1225 23.7228 37.6683 23.6207 38.1458 23.3825C38.4528 23.2123 38.7598 23.0081 38.9645 22.7699V23.0081C38.9645 23.1443 39.0327 23.2464 39.1009 23.3484C39.2033 23.4165 39.3056 23.4846 39.442 23.4846H41.2499C41.3864 23.4846 41.4887 23.4165 41.591 23.3484C41.6934 23.2464 41.7275 23.1443 41.7275 23.0081V14.9425C41.7275 14.8064 41.6934 14.7043 41.591 14.6022C41.5228 14.4661 41.4205 14.432 41.284 14.432ZM38.8281 19.741C38.7257 19.9793 38.5893 20.2175 38.4187 20.4217C38.2482 20.5919 38.0094 20.762 37.7706 20.8981C37.259 21.1364 36.6791 21.1364 36.1674 20.8981C35.9286 20.796 35.6899 20.6259 35.5193 20.4217C35.3488 20.2175 35.1782 19.9793 35.11 19.741C34.9053 19.1965 34.9053 18.618 35.11 18.0735C35.2123 17.8353 35.3488 17.597 35.5193 17.3928C35.6899 17.1886 35.9286 17.0525 36.1674 16.9164C36.6791 16.6782 37.259 16.6782 37.7706 16.9164C38.0094 17.0185 38.2141 17.1886 38.4187 17.3588C38.5893 17.563 38.7257 17.7672 38.8281 18.0394C39.0668 18.618 39.0668 19.2306 38.8281 19.741ZM59.2604 18.6861C58.9875 18.4478 58.7146 18.2777 58.3735 18.1415C58.0324 18.0054 57.6913 17.9033 57.3161 17.8353L55.9517 17.563C55.6106 17.4949 55.3377 17.3928 55.2012 17.2907C55.0989 17.2227 55.0307 17.0865 55.0307 16.9504C55.0307 16.8143 55.0989 16.6782 55.3036 16.5761C55.5423 16.4399 55.8152 16.3719 56.054 16.4059C56.3951 16.4059 56.7703 16.474 57.0773 16.6101C57.3843 16.7462 57.6913 16.9164 57.9642 17.0865C58.3735 17.3248 58.7146 17.2907 58.9534 17.0185L59.6015 16.2698C59.738 16.1337 59.8062 15.9635 59.8062 15.7933C59.8062 15.6232 59.7039 15.419 59.5674 15.3169C59.2945 15.0787 58.8511 14.8064 58.2371 14.5682C57.6572 14.33 56.9068 14.1938 56.0199 14.1938C55.4741 14.1938 54.9625 14.2619 54.4508 14.432C54.0074 14.5682 53.598 14.7724 53.2569 15.0446C52.9158 15.2828 52.677 15.6232 52.4724 15.9975C52.3018 16.3719 52.1995 16.7462 52.1995 17.1546C52.1995 17.9033 52.4383 18.5159 52.8817 18.9583C53.3251 19.4007 53.905 19.707 54.6555 19.8431L56.0881 20.1494C56.3951 20.2175 56.7021 20.2856 57.0091 20.4217C57.1797 20.4898 57.282 20.6259 57.282 20.8301C57.282 21.0002 57.2138 21.1364 57.0091 21.2725C56.8385 21.4086 56.5316 21.4767 56.1563 21.4767C55.7811 21.4767 55.3718 21.4086 55.0307 21.2385C54.6896 21.0683 54.3826 20.8641 54.1097 20.6259C53.9732 20.5238 53.8368 20.4557 53.7004 20.3877C53.5298 20.3536 53.3251 20.3877 53.1205 20.5578L52.3359 21.1704C52.1313 21.3406 51.9948 21.6128 52.063 21.851C52.0971 22.1233 52.3359 22.3615 52.7111 22.6678C53.7004 23.3484 54.8942 23.6888 56.0881 23.6547C56.6339 23.6547 57.2138 23.5867 57.7254 23.4165C58.203 23.2804 58.6123 23.0762 58.9875 22.7699C59.3286 22.4976 59.6356 22.1573 59.8062 21.783C60.0108 21.4086 60.0791 21.0002 60.0791 20.5578C60.0791 20.1835 60.0108 19.8091 59.8403 19.4348C59.7038 19.1965 59.4992 18.9243 59.2604 18.6861ZM67.1059 20.8641C67.0377 20.728 66.8671 20.6259 66.6966 20.5919C66.526 20.5919 66.3554 20.6599 66.219 20.728C66.0143 20.8641 65.7415 20.9662 65.4686 20.9662C65.4003 20.9662 65.298 20.9662 65.1957 20.9322C65.0934 20.9322 65.0251 20.8641 64.9569 20.796C64.8887 20.728 64.8205 20.6259 64.7522 20.5238C64.684 20.3877 64.6499 20.2175 64.684 20.0473V16.7803H67.0377C67.1741 16.7803 67.3106 16.7122 67.4129 16.6101C67.5152 16.508 67.5834 16.4059 67.5834 16.2698V14.8745C67.5834 14.7383 67.5152 14.6022 67.4129 14.5341C67.3106 14.432 67.2082 14.398 67.0718 14.398H64.7181V12.1859C64.7181 12.0498 64.684 11.9137 64.5817 11.8456C64.4794 11.7435 64.377 11.7095 64.2406 11.7095H62.4327C62.2963 11.7095 62.1598 11.7435 62.0916 11.8456C61.9893 11.9477 61.9552 12.0838 61.9552 12.1859V14.432H60.9318C60.7954 14.432 60.659 14.5001 60.5907 14.6022C60.4884 14.7043 60.4543 14.8064 60.4543 14.9425V16.3378C60.4543 16.474 60.4884 16.5761 60.5907 16.6782C60.659 16.7803 60.7954 16.8483 60.9318 16.8483H61.9552V20.728C61.9552 21.2044 62.0234 21.6468 62.228 22.0552C62.3986 22.3956 62.6374 22.7018 62.9103 22.9401C63.1831 23.1783 63.5243 23.3484 63.8995 23.4505C64.2747 23.5526 64.6499 23.6207 65.0251 23.6207C65.5368 23.6207 66.0143 23.5526 66.4919 23.3825C66.9353 23.2464 67.3447 22.9741 67.6517 22.6678C67.8563 22.4636 67.8904 22.1233 67.7199 21.8851L67.1059 20.8641ZM76.998 14.432H75.1901C75.0537 14.432 74.9514 14.5001 74.849 14.5682C74.7467 14.6703 74.7126 14.8064 74.7126 14.9425V15.1467C74.4738 14.8745 74.2009 14.6703 73.8939 14.5341C73.4164 14.2959 72.8706 14.1938 72.3248 14.1938C71.1651 14.1938 70.0735 14.6703 69.2549 15.487C68.8455 15.9295 68.5044 16.4399 68.2657 16.9845C67.9928 17.597 67.8904 18.2777 67.8904 18.9243C67.8904 19.6049 67.9928 20.2515 68.2657 20.8981C68.5044 21.4427 68.8455 21.9531 69.2549 22.3956C70.0735 23.2123 71.1651 23.6888 72.3248 23.6888C72.8706 23.6888 73.4164 23.5867 73.8939 23.3484C74.2009 23.1783 74.5079 22.9741 74.7126 22.7359V22.9741C74.7126 23.1102 74.7467 23.2123 74.849 23.3144C74.9514 23.4165 75.0537 23.4505 75.1901 23.4505H76.998C77.2709 23.4505 77.4756 23.2464 77.4756 22.9741V14.9425C77.4756 14.8064 77.4415 14.7043 77.3391 14.6022C77.2368 14.4661 77.1345 14.432 76.998 14.432ZM74.542 19.741C74.4397 19.9793 74.3033 20.2175 74.1327 20.4217C73.928 20.5919 73.7234 20.762 73.4846 20.8981C73.2458 21.0002 72.9388 21.0683 72.6659 21.0683C72.3931 21.0683 72.1202 21.0002 71.8814 20.8981C71.6426 20.796 71.4039 20.6259 71.2333 20.4217C71.0627 20.2175 70.8922 19.9793 70.824 19.741C70.6193 19.1965 70.6193 18.618 70.824 18.0735C70.9263 17.8353 71.0627 17.597 71.2333 17.3928C71.438 17.1886 71.6426 17.0525 71.8814 16.9164C72.1202 16.8143 72.3931 16.7462 72.6659 16.7462C72.9388 16.7462 73.2117 16.8143 73.4846 16.9164C73.7234 17.0185 73.928 17.1886 74.1327 17.3588C74.3033 17.563 74.4738 17.7672 74.542 18.0394C74.7808 18.618 74.7808 19.2306 74.542 19.741ZM86.8901 20.728L85.8668 19.9452C85.6622 19.7751 85.4916 19.741 85.321 19.8091C85.1846 19.8772 85.0482 19.9793 84.9458 20.0814C84.707 20.3536 84.4683 20.5919 84.1613 20.796C83.8543 20.9662 83.5132 21.0683 83.138 21.0343C82.7286 21.0343 82.3534 20.9322 82.0123 20.6939C81.6712 20.4557 81.4324 20.1154 81.296 19.741C81.1936 19.4688 81.1595 19.1965 81.1595 18.9243C81.1595 18.652 81.1936 18.3457 81.296 18.0735C81.3983 17.8353 81.5347 17.597 81.7053 17.3928C81.91 17.1886 82.1146 17.0525 82.3534 16.9504C82.5922 16.8483 82.8992 16.7803 83.1721 16.7803C83.5132 16.7803 83.8884 16.8483 84.1613 17.0185C84.4683 17.2227 84.707 17.4609 84.9458 17.7332C85.0482 17.8353 85.1846 17.9374 85.321 18.0054C85.4916 18.0735 85.6622 18.0394 85.8668 17.8693L86.8901 17.0865C87.0266 16.9845 87.1289 16.8824 87.163 16.7462C87.2312 16.5761 87.1971 16.4059 87.1289 16.2698C86.7196 15.6572 86.1738 15.1467 85.5257 14.7724C84.8435 14.398 84.0248 14.1938 83.1038 14.1938C82.4557 14.1938 81.8076 14.33 81.2277 14.5682C80.6479 14.8064 80.1362 15.1467 79.6928 15.5891C79.2493 16.0316 78.9082 16.542 78.6694 17.0865C78.1919 18.2777 78.1919 19.639 78.6694 20.8301C78.9082 21.4086 79.2493 21.9191 79.6928 22.3275C80.6138 23.2123 81.8076 23.6888 83.1038 23.6888C84.0248 23.6888 84.8435 23.4846 85.5257 23.1102C86.1738 22.7359 86.7196 22.2254 87.1289 21.6128C87.2312 21.4767 87.2312 21.3065 87.163 21.1364C87.0948 20.9662 86.9925 20.8301 86.8901 20.728ZM96.4753 22.5997L93.6441 18.4138L96.0659 15.2148C96.1683 15.0787 96.2024 14.8745 96.1683 14.7043C96.1342 14.5682 95.9977 14.432 95.7248 14.432H93.8146C93.7123 14.432 93.61 14.4661 93.5076 14.5001C93.3712 14.5682 93.303 14.6362 93.2347 14.7724L91.2904 17.4949H90.8129V11.0629C90.8129 10.9267 90.7788 10.8247 90.6764 10.7226C90.5741 10.6205 90.4718 10.5864 90.3353 10.5864H88.5275C88.391 10.5864 88.2887 10.6205 88.1863 10.7226C88.084 10.8247 88.0499 10.9267 88.0499 11.0629V22.906C88.0499 23.0422 88.1181 23.1783 88.1863 23.2464C88.2887 23.3484 88.391 23.3825 88.5275 23.3825H90.3353C90.4718 23.3825 90.5741 23.3144 90.6764 23.2464C90.7788 23.1443 90.8129 23.0422 90.8129 22.906V19.7751H91.3245L93.4394 23.0422C93.5758 23.2804 93.8146 23.4165 94.0534 23.4165H96.0659C96.3729 23.4165 96.5094 23.2804 96.5435 23.1443C96.6117 22.9741 96.5776 22.7699 96.4753 22.5997ZM51.5173 14.432H49.5047C49.3683 14.432 49.1977 14.4661 49.0954 14.6022C48.9931 14.7043 48.9248 14.8064 48.9248 14.9425L47.424 20.4557H47.0487L45.4455 14.9085C45.4114 14.8064 45.3773 14.6703 45.275 14.5682C45.1727 14.4661 45.0362 14.398 44.8998 14.398H42.819C42.5461 14.398 42.3756 14.5001 42.3074 14.6703C42.2391 14.8404 42.2391 15.0106 42.3074 15.1467L44.8657 22.9401C44.8998 23.0422 44.968 23.1783 45.0703 23.2464C45.1727 23.3484 45.3091 23.3825 45.4455 23.3825H46.5371L46.4348 23.6207L46.196 24.3354C46.1278 24.5396 45.9913 24.7438 45.7867 24.9139C45.6161 25.05 45.4114 25.1181 45.1727 25.1181C45.0021 25.1181 44.7974 25.0841 44.6269 25.016C44.4563 24.948 44.2858 24.8459 44.1493 24.7438C44.0129 24.6417 43.8423 24.6076 43.7059 24.6076H43.6718C43.4671 24.6076 43.2966 24.7097 43.2283 24.8799L42.5802 25.8328C42.3074 26.2412 42.4779 26.5134 42.6485 26.6496C42.9896 26.9558 43.3989 27.1941 43.8423 27.3642C44.3199 27.5344 44.8316 27.6025 45.3773 27.6025C46.2983 27.6025 47.0829 27.3642 47.6627 26.8538C48.2767 26.3092 48.7202 25.5946 48.959 24.8118L51.9266 15.1808C51.9948 15.0106 51.9948 14.8404 51.9266 14.6703C51.9266 14.5341 51.7902 14.432 51.5173 14.432Z" fill="#011B33"/>
</g>
<defs>
<clipPath id="clip0_9500_232077">
<rect width="96" height="18" fill="white" transform="translate(0.664062 10)"/>
</clipPath>
</defs>
</svg>
