<svg width="100%" height="100%" viewBox="0 0 241 221" fill="none" xmlns="http://www.w3.org/2000/svg">
<g clip-path="url(#clip0_9504_246541)">
<path d="M197.351 160.212C195.559 160.212 193.391 160.212 193.391 161.243C193.391 162.275 195.551 163.947 197.351 163.947C199.151 163.947 200.591 163.111 200.591 162.08C200.591 161.048 199.142 160.212 197.351 160.212Z" fill="#BF7EFF"/>
<path d="M44.8349 160.592C43.0433 160.592 40.8809 160.592 40.8809 161.623C40.8809 162.655 43.0409 164.327 44.8349 164.327C46.6289 164.327 48.0749 163.485 48.0749 162.46C48.0749 161.434 46.6265 160.592 44.8349 160.592Z" fill="#BF7EFF"/>
<path d="M44.7383 121.308L47.4203 132.462L43.5527 162.98C47.4707 164.442 51.2135 164.8 54.7127 163.625L56.9087 92.3087L46.2731 101.686L44.7383 121.308Z" fill="#E7CEFF"/>
<path d="M194.343 101.687L192.091 96.9335L183.709 92.3087L185.9 163.625C189.401 164.801 193.143 164.442 197.06 162.98L193.194 132.462L197.441 121.415L194.343 101.687Z" fill="#E7CEFF"/>
<path d="M40.8809 162.08C40.8809 162.08 42.1193 172.452 43.2161 184.647C44.4617 198.503 51.9401 209.533 58.0445 210.164C64.1489 210.795 68.7761 206.798 72.7289 194.436C75.7817 184.887 77.5877 174.271 77.5877 174.271V165.29L54.7157 163.625C50.5817 165.165 42.4685 163.891 40.8809 162.08Z" fill="#BF7EFF"/>
<path d="M186.283 163.625L164.833 165.04L163.412 174.271C163.412 174.271 165.218 184.887 168.271 194.436C172.223 206.799 176.85 210.785 182.955 210.164C189.061 209.542 196.538 198.503 197.784 184.647C198.881 172.452 200.119 162.08 200.119 162.08C198.53 163.89 190.418 165.165 186.283 163.625Z" fill="#BF7EFF"/>
<path d="M164.409 166.961H76.9785C78.1425 174.03 79.5813 205.65 79.3785 211.04C79.2753 213.769 78.5541 217.489 77.8665 220.5H163.521C162.834 217.495 162.111 213.768 162.009 211.04C161.807 205.65 163.245 174.03 164.409 166.961Z" fill="#BF7EFF"/>
<path fill-rule="evenodd" clip-rule="evenodd" d="M148.7 48.7078C147.38 43.9628 143.173 38.2945 141.989 36.5814C139.095 32.3629 133.042 31.8364 129.094 32.0996C125.805 32.3629 121.069 28.2767 118.042 28.2767C112.121 28.2767 102.254 32.7584 96.069 40.9309C89.2314 50.0302 89.1006 62.0232 85.6794 69.145C85.5474 69.145 80.1534 79.8228 81.3378 85.7544C82.6578 93.2681 87.2586 93.1358 89.6262 95.5089C91.995 98.0131 94.7586 98.8041 96.8634 98.4086C98.5734 98.0131 99.1002 97.0862 99.1002 97.0862C99.5356 97.9624 100.166 98.7269 100.942 99.3209C101.719 99.9149 102.621 100.323 103.58 100.512C112.922 102.358 125.158 104.863 135.553 101.568C140.026 100.246 142 97.8772 142 97.8772C142 97.8772 145.552 101.04 147.921 99.7226C148.841 99.1948 146.737 99.3271 151.078 96.9576C155.552 94.5844 160.025 87.4603 160.289 86.412C161.609 81.667 156.079 72.3079 154.367 68.7495C152.656 65.191 150.02 53.323 148.7 48.7078Z" fill="#5B03B2"/>
<path fill-rule="evenodd" clip-rule="evenodd" d="M135.284 111.582C133.31 109.077 133.837 98.9279 133.837 98.9279C133.837 98.9279 137.389 94.4462 138.968 90.6232C140.547 86.8003 141.205 82.8499 141.205 82.8499L143.396 81.8473C143.396 81.8473 146.929 80.377 146.698 78.8611C146.468 77.3451 139.669 71.702 139.138 70.7788C136.771 66.8248 135.806 61.4955 133.174 57.4093C131.332 54.6442 128.438 53.8508 127.648 53.4553C126.859 53.0597 121.468 50.0302 114.89 52.7953C110.42 54.6406 109.627 60.5734 106.34 65.0576C103.971 68.2205 102.325 69.4552 100.615 72.2238C94.5619 74.2254 93.3487 78.6338 93.3487 78.6338C94.7959 79.6882 99.8923 83.1156 99.8923 83.1156C99.8923 83.1156 101.077 88.1251 102.524 91.6836C104.103 95.111 107.128 98.536 107.128 98.536C107.128 98.536 107.523 109.871 105.024 112.377C102.784 114.749 93.5743 118.314 89.8903 119.757C86.2063 121.2 76.0747 124.502 76.2103 124.502L163.839 124.107C163.839 124.107 153.84 120.153 147.656 118.175C144.362 117.122 136.863 113.563 135.284 111.582Z" fill="#E7CEFF"/>
<path fill-rule="evenodd" clip-rule="evenodd" d="M143.705 69.9312C143.705 69.9312 143.841 72.1504 144.367 74.128C144.762 76.2366 146.659 77.975 146.659 77.975C147.317 77.975 148.579 75.6019 147.916 72.445C147.389 69.2724 143.705 69.9312 143.705 69.9312Z" fill="#E7CEFF"/>
<path d="M120.7 104.85C120.658 104.85 116.324 104.642 110.156 100.102C105.956 97.0381 104.577 93.8919 103.662 91.7989C101.993 88.1683 100.94 83.1516 100.292 79.6929C100.275 79.6054 100.242 79.5219 100.193 79.4473C100.145 79.3727 100.082 79.3085 100.008 79.2582C99.9351 79.2079 99.8526 79.1726 99.7656 79.1542C99.6786 79.1359 99.5888 79.1349 99.5014 79.1513C99.414 79.1678 99.3307 79.2013 99.2563 79.2499C99.1818 79.2986 99.1177 79.3615 99.0675 79.435C99.0173 79.5085 98.982 79.5912 98.9637 79.6784C98.9454 79.7655 98.9444 79.8554 98.9608 79.943C99.6208 83.4726 100.7 88.5987 102.426 92.3483C103.336 94.4293 104.858 97.9132 109.356 101.192C115.899 106 120.467 106.194 120.658 106.2H120.678C120.858 106.203 121.031 106.134 121.16 106.009C121.289 105.884 121.363 105.713 121.366 105.533C121.369 105.353 121.3 105.179 121.175 105.05C121.051 104.921 120.88 104.847 120.7 104.844V104.85Z" fill="#361557"/>
<path d="M121.507 78.367C120.949 77.8729 120.427 77.4052 120.296 76.1634C120.196 75.4613 120.364 74.2531 120.809 72.469C120.853 72.2937 120.825 72.1081 120.732 71.9533C120.639 71.7984 120.489 71.6868 120.314 71.6431C120.139 71.5995 119.954 71.6272 119.799 71.7203C119.644 71.8134 119.533 71.9643 119.489 72.1396C118.988 74.1521 118.821 75.4517 118.946 76.3269C119.121 78.0712 119.978 78.8298 120.604 79.384C121.059 79.7867 121.28 79.9971 121.312 80.3938C121.395 81.5528 119.872 82.7069 119.281 83.0531C119.133 83.147 119.027 83.2946 118.985 83.4651C118.943 83.6355 118.969 83.8155 119.057 83.9673C119.145 84.1191 119.288 84.231 119.456 84.2796C119.624 84.3281 119.805 84.3095 119.96 84.2276C120.08 84.1603 122.824 82.5446 122.664 80.2893C122.589 79.3239 122.014 78.8154 121.507 78.367Z" fill="#361557"/>
<path fill-rule="evenodd" clip-rule="evenodd" d="M110.153 71.7778C109.1 71.9088 108.311 73.1002 108.311 74.5428C108.311 75.9854 109.232 77.1792 110.285 77.1792C111.337 77.047 112.127 75.8568 112.127 74.4142C112.127 72.8321 111.205 71.7778 110.153 71.7778Z" fill="#361557"/>
<path d="M97.8759 91.074C97.7966 91.1144 97.726 91.1701 97.6682 91.2378C97.6103 91.3055 97.5664 91.384 97.5389 91.4687C97.5113 91.5535 97.5007 91.6428 97.5077 91.7317C97.5147 91.8205 97.5391 91.9071 97.5795 91.9865C98.4831 93.7994 98.6391 95.4728 98.0271 96.8349C97.4379 98.1453 96.3039 98.857 95.5071 99.0686C95.3491 99.1118 95.2121 99.2109 95.1213 99.3475C95.0306 99.4842 94.9923 99.6491 95.0135 99.8118C95.0347 99.9745 95.114 100.124 95.2367 100.233C95.3595 100.341 95.5173 100.402 95.6811 100.403C95.7398 100.403 95.7983 100.395 95.8551 100.38C96.9351 100.092 98.4747 99.1359 99.2583 97.3915C99.8055 96.1761 100.167 94.1456 98.7867 91.3806C98.7472 91.3003 98.6923 91.2287 98.6251 91.1697C98.5579 91.1108 98.4797 91.0658 98.395 91.0373C98.3103 91.0088 98.2209 90.9974 98.1318 91.0037C98.0427 91.01 97.9557 91.0339 97.8759 91.074Z" fill="#361557"/>
<path d="M111.259 28.8213C103.177 31.5166 96.2905 37.5648 92.8273 44.9979C90.5905 49.8535 89.2045 54.7007 87.8641 59.3881C86.8237 63.0295 85.8397 66.4701 84.5305 69.6643C84.2701 70.2726 83.9941 70.8918 83.7133 71.5229C81.8353 75.7354 79.7065 80.5093 80.5393 85.8554C81.0889 89.3898 83.4193 91.2917 85.6813 93.131C87.4417 94.5652 89.1025 95.9189 89.9209 97.995C89.9708 98.1217 90.0575 98.2303 90.1699 98.3069C90.2822 98.3834 90.415 98.4243 90.5509 98.4242C90.6359 98.4239 90.7201 98.4081 90.7993 98.3773C90.9662 98.3112 91.1002 98.1814 91.1717 98.0164C91.2433 97.8514 91.2466 97.6647 91.1809 97.4973C90.2317 95.093 88.3537 93.559 86.5357 92.0791C84.3757 90.3239 82.3465 88.6661 81.8785 85.6462C81.1093 80.698 83.1517 76.1177 84.9529 72.0771C85.2373 71.44 85.5157 70.8136 85.7833 70.1909C87.1249 66.9161 88.1185 63.4418 89.1697 59.7631C90.4957 55.1251 91.8673 50.3284 94.0585 45.5701C97.3669 38.47 103.956 32.6911 111.685 30.1088C120.912 27.0276 124.344 31.1511 124.492 31.335C124.603 31.4766 124.766 31.568 124.945 31.5892C125.123 31.6104 125.303 31.5596 125.444 31.4481C125.586 31.3365 125.677 31.1732 125.698 30.9942C125.719 30.8152 125.669 30.6351 125.557 30.4935C125.392 30.2879 121.459 25.4119 111.259 28.8213Z" fill="#361557"/>
<path d="M114.812 63.3841C110.04 60.8523 105.625 63.6895 105.439 63.8121C105.364 63.861 105.3 63.924 105.25 63.9977C105.2 64.0713 105.165 64.1541 105.147 64.2414C105.129 64.3286 105.128 64.4186 105.145 64.5061C105.161 64.5937 105.195 64.6771 105.244 64.7516C105.292 64.8261 105.355 64.8903 105.429 64.9404C105.502 64.9906 105.585 65.0257 105.672 65.0439C105.759 65.062 105.849 65.0628 105.936 65.0462C106.024 65.0295 106.107 64.9958 106.182 64.947C106.34 64.8424 110.125 62.4332 114.178 64.5863C114.337 64.6705 114.523 64.6879 114.695 64.6347C114.867 64.5815 115.011 64.462 115.095 64.3026C115.179 64.1432 115.197 63.9568 115.143 63.7846C115.09 63.6124 114.971 63.4683 114.812 63.3841Z" fill="#361557"/>
<path d="M113.3 70.8809C111.308 69.4996 107.823 70.0923 106.447 71.1659C106.377 71.2206 106.318 71.2886 106.274 71.366C106.23 71.4435 106.202 71.5289 106.191 71.6173C106.18 71.7057 106.186 71.7954 106.21 71.8813C106.233 71.9673 106.274 72.0477 106.328 72.118C106.383 72.1883 106.451 72.2472 106.528 72.2912C106.605 72.3353 106.691 72.3636 106.779 72.3747C106.867 72.3858 106.957 72.3793 107.042 72.3557C107.128 72.332 107.208 72.2917 107.279 72.237C108.295 71.4448 111.111 71.0132 112.53 71.9966C112.603 72.0473 112.685 72.083 112.772 72.1018C112.859 72.1206 112.949 72.122 113.036 72.1061C113.124 72.0901 113.207 72.057 113.282 72.0088C113.357 71.9605 113.421 71.8979 113.472 71.8247C113.522 71.7514 113.558 71.6689 113.577 71.5818C113.596 71.4948 113.597 71.4048 113.581 71.3172C113.565 71.2296 113.532 71.1459 113.484 71.0711C113.436 70.9962 113.373 70.9316 113.3 70.8809Z" fill="#361557"/>
<path d="M126.161 89.7144C122.833 92.554 117.354 91.8387 114.889 90.075C114.817 90.0233 114.735 89.9863 114.648 89.9662C114.562 89.946 114.472 89.9432 114.384 89.9578C114.296 89.9725 114.213 90.0043 114.137 90.0514C114.062 90.0985 113.996 90.1601 113.945 90.2325C113.893 90.305 113.856 90.387 113.836 90.4737C113.816 90.5605 113.813 90.6504 113.828 90.7382C113.842 90.8261 113.874 90.9102 113.921 90.9858C113.968 91.0613 114.029 91.1269 114.102 91.1787C115.694 92.3183 118.005 92.9819 120.375 92.9819C122.765 92.9819 125.213 92.3039 127.039 90.7435C127.107 90.6857 127.162 90.6151 127.203 90.5358C127.243 90.4564 127.268 90.3699 127.275 90.2811C127.282 90.1923 127.271 90.103 127.244 90.0182C127.217 89.9335 127.173 89.8549 127.115 89.7871C127.057 89.7193 126.987 89.6636 126.908 89.623C126.829 89.5825 126.742 89.558 126.654 89.5509C126.565 89.5438 126.476 89.5543 126.391 89.5817C126.307 89.6091 126.228 89.653 126.161 89.7108V89.7144Z" fill="#361557"/>
<path d="M141.986 79.1507C141.81 79.1184 141.628 79.1572 141.48 79.2587C141.331 79.3603 141.229 79.5163 141.196 79.6929C140.549 83.1516 139.495 88.1683 137.82 91.8049C137.02 93.6383 135.026 97.1895 130.672 100.362C124.565 104.857 120.899 104.846 120.832 104.844C120.652 104.838 120.478 104.904 120.347 105.027C120.216 105.15 120.139 105.32 120.133 105.5C120.127 105.68 120.193 105.855 120.316 105.986C120.439 106.117 120.609 106.194 120.788 106.2H120.845C121.369 106.2 125.252 106.034 131.473 101.456C136.084 98.0972 138.208 94.3067 139.058 92.3604C140.79 88.5987 141.869 83.4714 142.53 79.9418C142.562 79.7647 142.523 79.582 142.421 79.4338C142.319 79.2855 142.163 79.1838 141.986 79.1507Z" fill="#361557"/>
<path fill-rule="evenodd" clip-rule="evenodd" d="M129.888 71.6456C128.836 71.6456 127.914 72.6999 127.914 74.282C127.914 75.7318 128.704 76.9184 129.757 77.047C130.81 77.047 131.73 75.9927 131.73 74.4106C131.73 72.9632 130.939 71.7766 129.888 71.6456Z" fill="#361557"/>
<path d="M134.54 63.8121C134.354 63.6919 129.94 60.8523 125.168 63.3841C125.009 63.4683 124.89 63.6124 124.837 63.7846C124.784 63.9569 124.801 64.1432 124.885 64.3026C124.969 64.462 125.113 64.5815 125.285 64.6347C125.457 64.6879 125.643 64.6705 125.802 64.5863C129.856 62.438 133.64 64.8472 133.798 64.947C133.948 65.0457 134.131 65.0806 134.306 65.044C134.482 65.0075 134.636 64.9026 134.735 64.7522C134.833 64.6019 134.868 64.4185 134.832 64.2424C134.795 64.0663 134.69 63.912 134.54 63.8133V63.8121Z" fill="#361557"/>
<path d="M133.595 71.1659C132.164 70.0514 128.69 69.3782 126.714 70.9002C126.571 71.0099 126.478 71.1717 126.455 71.3502C126.432 71.5286 126.48 71.709 126.59 71.8517C126.699 71.9944 126.861 72.0877 127.039 72.111C127.217 72.1343 127.397 72.0858 127.539 71.9761C128.979 70.8629 131.791 71.4796 132.763 72.237C132.905 72.3475 133.085 72.397 133.263 72.3747C133.441 72.3524 133.603 72.26 133.713 72.118C133.824 71.976 133.873 71.7958 133.851 71.6173C133.828 71.4387 133.736 71.2763 133.595 71.1659Z" fill="#361557"/>
<path d="M106.94 97.8592C106.761 97.873 106.594 97.9575 106.477 98.0941C106.36 98.2307 106.302 98.4082 106.316 98.5877C106.316 98.655 106.826 105.387 106.076 108.916C105.009 113.193 98.8675 115.458 91.7563 118.08C90.7231 118.461 89.6671 118.851 88.6123 119.251C86.1727 120.118 83.5447 121 81.0043 121.855C79.2739 122.435 77.5435 123.017 75.8551 123.598C75.7012 123.648 75.5704 123.752 75.4866 123.891C75.4027 124.03 75.3712 124.194 75.3979 124.354C75.4247 124.514 75.5078 124.659 75.6322 124.763C75.7566 124.867 75.914 124.923 76.0759 124.92C76.1507 124.92 76.2249 124.908 76.2955 124.883C77.9755 124.304 79.7083 123.723 81.4351 123.142C83.9815 122.288 86.6143 121.403 89.0791 120.526C90.1423 120.122 91.1947 119.734 92.2231 119.355C99.6955 116.6 106.143 114.221 107.395 109.226C108.196 105.481 107.694 98.7668 107.671 98.4855C107.657 98.3054 107.572 98.1383 107.435 98.0208C107.298 97.9034 107.12 97.8453 106.94 97.8592Z" fill="#361557"/>
<path d="M164.457 123.604C162.638 122.957 160.769 122.33 158.962 121.721C156.724 120.969 154.411 120.19 152.234 119.39C151.166 118.986 150.11 118.597 149.078 118.216C141.965 115.594 135.824 113.329 134.762 109.079C134.002 105.528 134.506 98.7957 134.511 98.7284C134.525 98.5491 134.467 98.3715 134.35 98.2349C134.233 98.0983 134.067 98.0138 133.888 97.9999C133.709 97.986 133.532 98.044 133.396 98.161C133.259 98.278 133.175 98.4445 133.161 98.6238C133.139 98.9075 132.637 105.619 133.443 109.386C134.684 114.359 141.137 116.738 148.61 119.494C149.638 119.874 150.691 120.261 151.761 120.667C153.962 121.476 156.285 122.258 158.531 123.013C160.331 123.614 162.196 124.245 164.003 124.888C164.088 124.922 164.179 124.938 164.27 124.936C164.361 124.934 164.451 124.914 164.534 124.876C164.617 124.838 164.692 124.784 164.754 124.717C164.816 124.65 164.863 124.571 164.894 124.485C164.924 124.398 164.937 124.307 164.932 124.216C164.926 124.125 164.902 124.035 164.861 123.954C164.821 123.872 164.764 123.799 164.694 123.74C164.625 123.681 164.544 123.636 164.457 123.609V123.604Z" fill="#361557"/>
<path d="M92.6465 84.3539C92.6892 84.1829 92.6638 84.002 92.5758 83.8494C92.4878 83.6968 92.344 83.5844 92.1749 83.536C92.0057 83.4877 91.8244 83.5071 91.6692 83.5901C91.5141 83.6732 91.3972 83.8134 91.3433 83.9812C90.3629 87.4218 90.6461 92.8774 94.6745 96.9059C94.8018 97.0334 94.9745 97.1051 95.1545 97.1051C95.3346 97.1051 95.5072 97.0334 95.6345 96.9059C95.7618 96.7784 95.8333 96.6054 95.8333 96.425C95.8333 96.2446 95.7618 96.0717 95.6345 95.9441C92.0201 92.328 91.7657 87.4411 92.6465 84.3539Z" fill="#361557"/>
<path d="M118.267 47.4011C114.113 47.7365 110.79 54.0407 108.733 59.269C106.057 66.0746 102.853 68.8709 98.7886 72.4113C97.7362 73.3298 96.6478 74.2783 95.4838 75.3651C95.293 75.5418 95.0386 75.7546 94.7422 76.0059C92.2534 78.1049 87.0754 82.4736 88.4374 89.0508C88.4691 89.2034 88.5522 89.3405 88.6728 89.439C88.7934 89.5375 88.9442 89.5914 89.0998 89.5918C89.1466 89.5917 89.1932 89.5868 89.239 89.5773C89.326 89.5593 89.4087 89.5242 89.4822 89.4742C89.5557 89.4241 89.6186 89.3599 89.6673 89.2854C89.716 89.211 89.7496 89.1276 89.7661 89.0401C89.7826 88.9525 89.7817 88.8626 89.7634 88.7755C88.5634 82.9894 93.3262 78.9729 95.6146 77.0434C95.9302 76.7765 96.199 76.5493 96.4042 76.3593C97.5538 75.287 98.6338 74.3456 99.6778 73.4356C103.878 69.7737 107.196 66.8813 109.998 59.7667C112.667 52.9828 115.722 48.9675 118.381 48.7535C119.988 48.6261 121.583 49.8788 123.128 52.4803C123.22 52.6349 123.369 52.7468 123.543 52.7912C123.629 52.8132 123.719 52.8179 123.807 52.8052C123.895 52.7925 123.979 52.7626 124.056 52.7171C124.132 52.6717 124.199 52.6116 124.252 52.5402C124.305 52.4689 124.344 52.3878 124.366 52.3015C124.388 52.2152 124.393 52.1255 124.38 52.0373C124.367 51.9492 124.338 51.8644 124.292 51.7878C122.456 48.7078 120.434 47.2279 118.267 47.4011Z" fill="#361557"/>
<path d="M150.848 78.6134C150.776 78.6134 143.648 78.0808 138.648 68.5631C137.897 67.1205 137.234 65.4735 136.593 63.8746C134.595 58.8915 132.529 53.739 127.247 52.7856C127.074 52.7624 126.898 52.807 126.757 52.9099C126.616 53.0129 126.52 53.1664 126.489 53.3385C126.458 53.5106 126.495 53.688 126.591 53.8338C126.688 53.9796 126.836 54.0826 127.007 54.1213C131.553 54.9412 133.392 59.5311 135.338 64.3795C135.991 66.0085 136.667 67.6927 137.449 69.1883C142.83 79.4297 150.453 79.9466 150.769 79.9635H150.806C150.98 79.9591 151.145 79.8881 151.268 79.7653C151.391 79.6424 151.462 79.477 151.467 79.3031C151.471 79.1292 151.409 78.9601 151.294 78.8307C151.178 78.7013 151.016 78.6213 150.843 78.6074L150.848 78.6134Z" fill="#361557"/>
<path d="M149.001 81.6177C148.926 81.6652 148.86 81.7271 148.809 81.7999C148.758 81.8726 148.722 81.9548 148.702 82.0417C148.683 82.1286 148.68 82.2185 148.696 82.3062C148.711 82.394 148.743 82.4778 148.791 82.553C150.494 85.2543 153.96 92.1272 149.373 97.5707C149.315 97.6386 149.271 97.7173 149.244 97.8022C149.217 97.8871 149.207 97.9765 149.214 98.0654C149.222 98.1542 149.247 98.2407 149.288 98.3198C149.329 98.399 149.385 98.4692 149.453 98.5265C149.575 98.6304 149.729 98.6872 149.889 98.6863C149.987 98.6866 150.085 98.6652 150.174 98.6237C150.263 98.5821 150.343 98.5215 150.406 98.4459C155.573 92.3148 151.798 84.7831 149.936 81.8281C149.839 81.6761 149.687 81.5686 149.512 81.5292C149.336 81.4897 149.153 81.5216 149.001 81.6177Z" fill="#361557"/>
<path d="M157.29 73.3815C156.072 71.1334 154.812 68.8132 153.69 65.4903C151.94 60.4893 151.22 56.9344 150.59 53.8039C149.743 49.6251 149.074 46.3227 146.39 41.6462C139.498 29.7542 130.576 31.1487 127.722 32.6899C127.643 32.7321 127.574 32.7894 127.518 32.8585C127.462 32.9275 127.419 33.007 127.394 33.0923C127.368 33.1776 127.36 33.2672 127.369 33.3559C127.378 33.4445 127.404 33.5305 127.446 33.609C127.488 33.6874 127.545 33.7568 127.614 33.8131C127.683 33.8695 127.763 33.9117 127.848 33.9373C127.933 33.9629 128.022 33.9715 128.111 33.9625C128.199 33.9535 128.285 33.9271 128.364 33.8849C128.454 33.8356 137.686 29.331 145.218 42.3242C147.786 46.8084 148.436 50.0182 149.259 54.0744C149.902 57.247 150.631 60.8427 152.401 65.9315C153.561 69.3554 154.85 71.7309 156.096 74.0283C157.365 76.3701 158.564 78.5809 159.364 81.5888C160.48 85.4358 158.644 88.3355 156.852 90.7351C156.53 91.145 156.171 91.5309 155.823 91.9048C154.609 93.214 153.351 94.5676 153.826 96.8337C153.858 96.9858 153.941 97.1223 154.062 97.2204C154.182 97.3184 154.332 97.372 154.488 97.3723C154.535 97.3723 154.582 97.3674 154.628 97.3579C154.804 97.3206 154.958 97.215 155.056 97.0642C155.154 96.9134 155.188 96.7298 155.151 96.5536C154.821 94.98 155.701 94.029 156.816 92.8268C157.176 92.4325 157.56 92.025 157.926 91.5585C160.075 88.6877 161.894 85.4466 160.669 81.2197C159.836 78.0748 158.599 75.7955 157.29 73.3815Z" fill="#361557"/>
<path d="M126.861 35.0029C126.778 35.0376 126.704 35.0881 126.641 35.1517C126.579 35.2153 126.529 35.2906 126.496 35.3734C126.462 35.4562 126.446 35.5447 126.446 35.634C126.447 35.7233 126.466 35.8116 126.501 35.8937C126.529 35.9611 129.381 42.7714 126.501 49.4929C126.429 49.6587 126.427 49.846 126.494 50.0136C126.56 50.1812 126.691 50.3154 126.856 50.3867C127.022 50.4579 127.209 50.4604 127.376 50.3936C127.543 50.3267 127.677 50.196 127.749 50.0302C130.854 42.7787 127.877 35.6593 127.749 35.3636C127.714 35.2814 127.663 35.2069 127.6 35.1443C127.537 35.0817 127.462 35.0322 127.379 34.9987C127.297 34.9652 127.208 34.9483 127.119 34.9491C127.03 34.9498 126.942 34.9681 126.861 35.0029Z" fill="#361557"/>
<path d="M99.8899 82.3029C99.6055 82.3029 99.2719 82.1923 98.9431 82.0829C97.0399 81.3616 95.5747 80.0693 94.7059 78.3285C94.6699 78.2435 94.6169 78.1668 94.5501 78.103C94.4834 78.0393 94.4044 77.9899 94.3179 77.9578C94.2315 77.9258 94.1394 77.9117 94.0473 77.9166C93.9553 77.9215 93.8651 77.9452 93.7825 77.9862C93.6999 78.0272 93.6266 78.0847 93.5669 78.1551C93.5073 78.2255 93.4626 78.3074 93.4357 78.3958C93.4088 78.4841 93.4002 78.577 93.4104 78.6688C93.4206 78.7606 93.4495 78.8494 93.4951 78.9296C94.5199 80.9829 96.2395 82.5109 98.4919 83.3572C98.9107 83.4967 99.3847 83.6554 99.8899 83.6554C100.065 83.648 100.23 83.5733 100.351 83.4468C100.472 83.3204 100.539 83.1519 100.539 82.9767C100.539 82.8015 100.472 82.6331 100.351 82.5067C100.23 82.3802 100.065 82.3055 99.8899 82.2981V82.3029Z" fill="#361557"/>
<path d="M98.0601 75.0609C98.009 74.9842 97.9427 74.9187 97.8655 74.8685C97.7882 74.8183 97.7015 74.7844 97.6108 74.7689C97.52 74.7534 97.427 74.7566 97.3375 74.7784C97.248 74.8002 97.1639 74.84 97.0903 74.8954C97.0167 74.9509 96.9551 75.0208 96.9095 75.101C96.8638 75.1811 96.8349 75.2697 96.8246 75.3614C96.8143 75.453 96.8227 75.5459 96.8495 75.6342C96.8762 75.7224 96.9206 75.8043 96.9801 75.8748C97.2041 76.1759 97.4047 76.4939 97.5801 76.8258C97.6656 76.976 97.8053 77.0879 97.9704 77.1384C98.1356 77.1889 98.3138 77.1742 98.4685 77.0974C98.6232 77.0206 98.7428 76.8874 98.8027 76.7252C98.8627 76.5629 98.8584 76.3839 98.7909 76.2247C98.5787 75.8178 98.3344 75.4286 98.0601 75.0609Z" fill="#361557"/>
<path d="M147.429 77.4977C147.349 77.4579 147.263 77.4341 147.174 77.4277C147.085 77.4213 146.996 77.4325 146.912 77.4607C146.827 77.4888 146.749 77.5333 146.682 77.5917C146.615 77.65 146.56 77.721 146.52 77.8007C145.595 79.6557 144.102 80.9841 142.306 81.5467C141.954 81.6669 141.622 81.7751 141.337 81.7751C141.246 81.7713 141.155 81.786 141.069 81.8183C140.984 81.8507 140.906 81.9001 140.84 81.9635C140.774 82.0269 140.721 82.103 140.685 82.1872C140.649 82.2715 140.631 82.3622 140.631 82.4538C140.631 82.5454 140.649 82.636 140.685 82.7203C140.721 82.8045 140.774 82.8807 140.84 82.9441C140.906 83.0074 140.984 83.0568 141.069 83.0892C141.155 83.1215 141.246 83.1362 141.337 83.1324C141.84 83.1324 142.315 82.9737 142.723 82.8379C144.861 82.1682 146.64 80.5946 147.731 78.4078C147.771 78.3282 147.795 78.2415 147.801 78.1526C147.808 78.0637 147.797 77.9744 147.768 77.8899C147.74 77.8053 147.696 77.7271 147.638 77.6598C147.579 77.5926 147.508 77.5375 147.429 77.4977Z" fill="#361557"/>
<path d="M148.287 91.6547C148.324 91.5702 148.343 91.479 148.344 91.3868C148.345 91.2945 148.326 91.203 148.291 91.118C148.255 91.033 148.202 90.9562 148.136 90.8923C148.069 90.8284 147.99 90.7788 147.904 90.7465C147.818 90.7142 147.726 90.6999 147.634 90.7045C147.542 90.7091 147.452 90.7324 147.369 90.7731C147.286 90.8138 147.213 90.8709 147.153 90.9411C147.093 91.0112 147.048 91.0929 147.021 91.181C145.375 95.6039 146.29 98.1669 147.07 99.5062C145.726 99.1251 143.682 98.1958 143.458 96.4707C143.435 96.2923 143.342 96.1304 143.199 96.0207C143.057 95.9111 142.877 95.8625 142.699 95.8858C142.521 95.9091 142.359 96.0023 142.25 96.1449C142.14 96.2875 142.092 96.4678 142.115 96.6462C142.267 97.8195 142.969 98.8642 144.144 99.6661C145.548 100.628 147.358 101.067 148.183 101.067C148.282 101.069 148.38 101.06 148.476 101.039C148.524 101.027 148.571 101.01 148.615 100.987C148.715 100.939 148.802 100.869 148.872 100.783C148.942 100.697 148.992 100.597 149.019 100.49C149.116 100.101 148.906 99.8067 148.659 99.4653C148.017 98.5589 146.508 96.4346 148.287 91.6547Z" fill="#361557"/>
<path d="M143.06 89.5629C142.972 89.5778 142.888 89.6098 142.813 89.6572C142.738 89.7046 142.672 89.7664 142.621 89.8391C142.569 89.9117 142.533 89.9939 142.513 90.0808C142.493 90.1677 142.491 90.2577 142.506 90.3455C143.038 93.4784 142.552 96.104 141.099 97.9373C139.749 99.6408 137.644 100.591 134.844 100.759C134.668 100.769 134.503 100.848 134.384 100.978C134.266 101.108 134.202 101.279 134.207 101.456C134.212 101.632 134.286 101.799 134.412 101.922C134.538 102.045 134.707 102.114 134.883 102.114H134.925C138.081 101.924 140.583 100.772 142.16 98.7813C143.858 96.639 144.44 93.6431 143.84 90.1183C143.825 90.0304 143.794 89.9463 143.747 89.8707C143.699 89.7951 143.638 89.7296 143.565 89.678C143.493 89.6264 143.411 89.5896 143.324 89.5699C143.237 89.5501 143.148 89.5478 143.06 89.5629Z" fill="#361557"/>
<path d="M106.7 100.494C104.3 100.615 100.138 99.6744 99.7753 95.4452C99.7594 95.266 99.6731 95.1004 99.5353 94.985C99.3976 94.8696 99.2198 94.8137 99.0409 94.8296C98.862 94.8456 98.6968 94.932 98.5816 95.07C98.4664 95.208 98.4106 95.3862 98.4265 95.5654C98.8009 99.9437 102.67 101.865 106.28 101.865C106.442 101.865 106.604 101.865 106.76 101.853C106.849 101.849 106.936 101.827 107.017 101.789C107.097 101.751 107.17 101.698 107.229 101.632C107.289 101.566 107.336 101.489 107.366 101.405C107.396 101.321 107.409 101.232 107.405 101.144C107.396 100.965 107.317 100.796 107.185 100.675C107.053 100.554 106.879 100.489 106.7 100.494Z" fill="#361557"/>
<path d="M148.473 78.1049C144.792 75.1126 143.949 71.7213 142.884 67.4283C141.99 63.8217 140.976 59.7343 138.105 54.8258C138.06 54.7489 138.001 54.6816 137.93 54.6278C137.859 54.574 137.778 54.5347 137.692 54.5121C137.606 54.4896 137.517 54.4842 137.429 54.4964C137.34 54.5085 137.256 54.5379 137.179 54.5829C137.102 54.6279 137.035 54.6876 136.981 54.7586C136.928 54.8296 136.888 54.9105 136.866 54.9967C136.843 55.0828 136.838 55.1726 136.85 55.2609C136.862 55.3491 136.892 55.4341 136.936 55.511C139.708 60.2572 140.698 64.2413 141.57 67.7553C142.65 72.1156 143.587 75.8796 147.62 79.158C147.759 79.2713 147.938 79.3246 148.117 79.306C148.295 79.2874 148.459 79.1985 148.572 79.0588C148.685 78.9192 148.739 78.7402 148.72 78.5613C148.701 78.3824 148.613 78.2182 148.473 78.1049Z" fill="#361557"/>
<path d="M143.625 69.7858C143.536 69.7959 143.451 69.8236 143.373 69.867C143.295 69.9105 143.226 69.9689 143.171 70.039C143.116 70.1091 143.075 70.1894 143.051 70.2754C143.027 70.3613 143.02 70.4512 143.03 70.5399C143.041 70.6286 143.069 70.7143 143.112 70.7921C143.156 70.8699 143.215 70.9383 143.285 70.9933C143.355 71.0484 143.436 71.089 143.522 71.1128C143.608 71.1366 143.697 71.1432 143.786 71.1322C144.717 71.0204 146 71.0913 146.825 72.0615C147.745 73.1435 147.854 75.1271 147.134 77.6541C147.109 77.7399 147.101 77.8297 147.111 77.9185C147.121 78.0072 147.149 78.0932 147.192 78.1713C147.235 78.2495 147.293 78.3184 147.363 78.374C147.432 78.4296 147.512 78.471 147.598 78.4956C147.659 78.5131 147.721 78.522 147.784 78.522C147.931 78.5218 148.075 78.4735 148.192 78.3846C148.31 78.2957 148.395 78.171 148.436 78.0291C149.524 74.2134 148.721 72.1997 147.855 71.1839C146.908 70.0671 145.406 69.5706 143.625 69.7858Z" fill="#361557"/>
<path d="M186.119 80.145H54.875V166.961H186.119V80.145Z" fill="white"/>
<path d="M47.493 133.048C47.3146 133.029 47.136 133.082 46.9962 133.194C46.8565 133.307 46.7671 133.471 46.7478 133.649C46.725 133.875 44.3478 156.353 42.8934 162.829C42.8739 162.916 42.8717 163.006 42.8869 163.094C42.9021 163.181 42.9344 163.265 42.982 163.34C43.0296 163.416 43.0915 163.481 43.1643 163.532C43.237 163.583 43.319 163.62 43.4058 163.639C43.455 163.651 43.5053 163.656 43.5558 163.656C43.7094 163.656 43.8584 163.604 43.9784 163.507C44.0983 163.411 44.182 163.277 44.2158 163.127C45.6858 156.574 47.997 134.719 48.0954 133.794C48.1139 133.615 48.0609 133.436 47.948 133.296C47.835 133.157 47.6714 133.067 47.493 133.048Z" fill="#361557"/>
<path d="M77.7021 173.603C77.6145 173.588 77.5247 173.59 77.438 173.61C77.3512 173.629 77.2692 173.666 77.1966 173.718C77.124 173.769 77.0623 173.834 77.015 173.91C76.9677 173.985 76.9357 174.069 76.9209 174.157C76.9029 174.263 75.0861 184.837 72.0849 194.234C68.4633 205.561 64.2849 210.124 58.1145 209.493C52.4049 208.91 45.1089 198.136 43.8909 184.592C43.0425 175.165 42.1005 166.742 41.7225 163.461C44.7969 164.928 51.3129 165.625 54.9525 164.266C55.1209 164.203 55.2575 164.076 55.3323 163.912C55.4071 163.749 55.414 163.562 55.3515 163.393C55.289 163.225 55.1621 163.088 54.9988 163.013C54.8356 162.938 54.6493 162.931 54.4809 162.994C50.5365 164.463 42.7209 163.15 41.3889 161.636C41.2935 161.527 41.1659 161.452 41.0245 161.421C40.8832 161.39 40.7357 161.405 40.6037 161.464C40.4716 161.523 40.3619 161.623 40.2907 161.75C40.2196 161.876 40.1906 162.021 40.2081 162.165C40.2213 162.269 41.4585 172.669 42.5421 184.714C43.8549 199.316 51.7305 210.2 57.9765 210.843C58.3851 210.885 58.7957 210.907 59.2065 210.907C65.3961 210.907 69.8025 205.82 73.3737 194.647C76.4061 185.162 78.2373 174.497 78.2565 174.39C78.272 174.302 78.2699 174.212 78.2504 174.124C78.2309 174.037 78.1943 173.954 78.1428 173.881C78.0913 173.808 78.0258 173.746 77.9502 173.698C77.8745 173.65 77.7902 173.618 77.7021 173.603Z" fill="#361557"/>
<path d="M186.122 79.467H54.878C54.789 79.4668 54.701 79.4842 54.6188 79.5182C54.5366 79.5523 54.4619 79.6022 54.399 79.6652C54.3362 79.7282 54.2863 79.803 54.2524 79.8853C54.2184 79.9677 54.201 80.0559 54.2012 80.145V166.961C54.2012 167.05 54.2187 167.138 54.2527 167.22C54.2867 167.303 54.3366 167.377 54.3994 167.44C54.4622 167.503 54.5369 167.553 54.619 167.587C54.7011 167.621 54.7891 167.639 54.878 167.639H186.122C186.301 167.639 186.473 167.567 186.6 167.44C186.727 167.313 186.798 167.141 186.799 166.961V80.145C186.799 80.056 186.781 79.9678 186.747 79.8855C186.713 79.8033 186.663 79.7285 186.601 79.6655C186.538 79.6026 186.463 79.5526 186.381 79.5186C186.299 79.4845 186.211 79.467 186.122 79.467ZM185.445 166.282H55.5548V80.823H185.445V166.282Z" fill="#361557"/>
<path d="M77.6465 166.85C77.6328 166.762 77.6018 166.677 77.5552 166.6C77.5086 166.524 77.4473 166.457 77.3749 166.405C77.3025 166.352 77.2204 166.314 77.1333 166.294C77.0463 166.273 76.956 166.27 76.8678 166.285C76.7795 166.299 76.695 166.331 76.6191 166.378C76.5433 166.426 76.4775 166.488 76.4257 166.561C76.374 166.634 76.3371 166.717 76.3174 166.804C76.2977 166.892 76.2955 166.982 76.3109 167.07C77.4257 173.848 78.9149 205.361 78.7013 211.015C78.5993 213.729 77.8613 217.488 77.1689 220.5H78.5633C79.2461 217.495 79.9517 213.814 80.0549 211.067C80.2433 206.063 78.8453 174.133 77.6465 166.85Z" fill="#361557"/>
<path d="M189.712 90.8492C187.848 89.2972 185.592 90.4597 184.587 91.591C184.044 92.2017 181.614 96.4767 180.147 99.1035C179.999 99.3685 179.919 99.6661 179.914 99.9696C179.909 100.273 179.98 100.573 180.119 100.843C180.258 101.112 180.462 101.343 180.712 101.515C180.962 101.686 181.251 101.793 181.552 101.825C182.418 101.926 183.352 101.89 184.108 101.501C186.483 100.27 188.59 96.5716 188.59 96.5716L194.729 101.683C194.729 101.683 192.323 93.024 189.712 90.8492Z" fill="#E7CEFF"/>
<path d="M190.404 112.222C189.28 112.616 184.907 117.576 183.251 119.489C183.045 119.721 182.94 120.026 182.957 120.336C182.974 120.647 183.113 120.937 183.344 121.146C183.88 121.617 184.736 122.072 185.984 121.95C187.432 121.808 190.913 119.696 190.913 119.696L196.266 121.308L191.896 134.568C196.362 132.142 197.313 126.976 199.242 123.537C200.682 120.97 202.122 117.317 200.54 115.754C198.957 114.191 191.8 111.732 190.404 112.222Z" fill="#E7CEFF"/>
<path d="M189.492 105.186C187.283 105.212 181.859 114.116 180.261 116.825C180.107 117.082 180.055 117.388 180.118 117.681C180.18 117.974 180.35 118.233 180.595 118.405C181.207 118.825 182.218 119.196 183.763 118.899L200.154 115.436C200.154 115.436 201.306 111.628 200.197 109.489C199.329 107.814 192.1 105.155 189.492 105.186Z" fill="#E7CEFF"/>
<path d="M186.499 101.604C184.289 101.629 178.866 110.534 177.268 113.242C177.113 113.499 177.061 113.805 177.123 114.098C177.185 114.391 177.356 114.65 177.601 114.822C178.214 115.243 179.225 115.613 180.769 115.316L198.503 108.103C198.503 108.103 199.14 105.685 198.031 103.548C197.165 101.864 189.108 101.567 186.499 101.604Z" fill="#E7CEFF"/>
<path d="M165.076 167.07C165.103 166.894 165.059 166.714 164.955 166.569C164.85 166.424 164.693 166.327 164.517 166.298C164.341 166.269 164.16 166.311 164.015 166.414C163.869 166.518 163.771 166.674 163.74 166.85C162.54 174.132 161.143 206.063 161.332 211.067C161.435 213.814 162.14 217.492 162.823 220.5H164.218C163.525 217.488 162.787 213.729 162.685 211.015C162.472 205.361 163.961 173.847 165.076 167.07Z" fill="#361557"/>
<path d="M68.1181 175.178C67.1965 173.124 66.3253 171.184 65.7337 167.914C65.6951 167.744 65.5923 167.595 65.4468 167.498C65.3013 167.402 65.1242 167.365 64.9524 167.396C64.7806 167.427 64.6274 167.523 64.5246 167.664C64.4218 167.806 64.3774 167.981 64.4005 168.155C65.0233 171.587 65.9269 173.601 66.8833 175.728C68.0161 178.253 69.1861 180.862 70.1497 186.266C70.1778 186.422 70.2598 186.564 70.3815 186.666C70.5032 186.769 70.6568 186.825 70.8157 186.826C70.856 186.826 70.8961 186.822 70.9357 186.815C71.1124 186.783 71.2693 186.682 71.3719 186.535C71.4744 186.387 71.5144 186.205 71.4829 186.028C70.4905 180.467 69.2305 177.655 68.1181 175.178Z" fill="#361557"/>
<path d="M43.9395 159.168C43.7943 159.182 40.3863 159.529 40.2027 162.029C40.1908 162.208 40.2498 162.384 40.3669 162.519C40.4841 162.654 40.6497 162.738 40.8279 162.751H40.8783C41.0492 162.751 41.2136 162.686 41.3387 162.569C41.4638 162.453 41.5403 162.293 41.5527 162.122C41.6511 160.783 44.0379 160.515 44.0655 160.512C44.2443 160.496 44.4092 160.408 44.5239 160.27C44.6386 160.131 44.6936 159.953 44.6769 159.774C44.6602 159.594 44.5731 159.429 44.4348 159.314C44.2965 159.199 44.1183 159.144 43.9395 159.161V159.168Z" fill="#361557"/>
<path d="M190.145 90.3275C187.908 88.4653 185.238 89.8382 184.081 91.1402C183.633 91.6451 182.109 94.213 179.55 98.7717C179.348 99.1305 179.238 99.534 179.229 99.946C179.22 100.358 179.314 100.766 179.501 101.133C179.691 101.505 179.969 101.825 180.312 102.063C180.655 102.302 181.052 102.451 181.467 102.498C181.755 102.533 182.044 102.551 182.334 102.551C183.141 102.551 183.838 102.402 184.414 102.103C186.934 100.795 189.082 97.0694 189.172 96.9119C189.218 96.8345 189.248 96.7488 189.26 96.6597C189.273 96.5706 189.267 96.4799 189.244 96.3929C189.222 96.3059 189.182 96.2243 189.127 96.1529C189.072 96.0815 189.004 96.0217 188.926 95.9771C188.848 95.9324 188.762 95.9037 188.673 95.8927C188.584 95.8817 188.493 95.8885 188.407 95.9129C188.32 95.9372 188.24 95.9786 188.169 96.0345C188.099 96.0904 188.04 96.1598 187.997 96.2387C187.977 96.2735 185.957 99.7755 183.797 100.898C183.268 101.172 182.539 101.259 181.63 101.152C181.436 101.131 181.251 101.063 181.091 100.952C180.931 100.841 180.801 100.691 180.713 100.517C180.626 100.349 180.583 100.162 180.587 99.9732C180.592 99.7842 180.643 99.5993 180.737 99.4353C184.247 93.1839 184.963 92.1945 185.099 92.0418C185.92 91.1174 187.782 90.1183 189.286 91.3698C191.292 93.0409 193.425 99.5134 194.076 101.867C194.098 101.955 194.137 102.038 194.191 102.11C194.245 102.182 194.314 102.243 194.392 102.289C194.47 102.335 194.556 102.364 194.645 102.376C194.735 102.388 194.826 102.381 194.913 102.357C195 102.333 195.081 102.292 195.152 102.236C195.223 102.18 195.282 102.11 195.326 102.031C195.369 101.951 195.397 101.864 195.406 101.774C195.416 101.684 195.407 101.593 195.381 101.507C195.275 101.144 192.887 92.6117 190.145 90.3275Z" fill="#361557"/>
<path d="M190.181 111.582C189.249 111.908 186.746 114.418 182.741 119.044C182.419 119.413 182.255 119.893 182.285 120.382C182.314 120.871 182.535 121.329 182.9 121.655C183.5 122.181 184.527 122.777 186.048 122.625C187.449 122.488 190.488 120.359 191.594 119.554L195.286 120.882C195.37 120.912 195.458 120.926 195.547 120.922C195.636 120.917 195.723 120.896 195.804 120.858C195.884 120.82 195.956 120.766 196.016 120.7C196.076 120.634 196.122 120.557 196.152 120.474C196.182 120.39 196.196 120.301 196.192 120.212C196.187 120.123 196.166 120.036 196.128 119.955C196.09 119.874 196.037 119.802 195.971 119.742C195.905 119.682 195.828 119.636 195.744 119.606L191.714 118.155C191.608 118.117 191.496 118.105 191.385 118.122C191.274 118.138 191.17 118.181 191.08 118.248C189.459 119.451 186.785 121.19 185.92 121.275C185.087 121.357 184.372 121.142 183.796 120.636C183.7 120.546 183.644 120.422 183.638 120.29C183.633 120.159 183.68 120.031 183.768 119.934C187.769 115.314 190.1 113.052 190.634 112.863C191.714 112.485 198.586 114.775 200.067 116.237C201.252 117.407 200.115 120.603 198.654 123.21C198.119 124.164 197.67 125.215 197.194 126.328C195.938 129.271 194.637 132.314 191.576 133.977C191.418 134.062 191.3 134.207 191.249 134.38C191.198 134.552 191.218 134.738 191.303 134.896C191.389 135.054 191.534 135.172 191.706 135.223C191.878 135.274 192.063 135.255 192.221 135.169C195.701 133.282 197.153 129.871 198.44 126.862C198.9 125.78 199.335 124.765 199.835 123.875C201.155 121.527 203.058 117.289 201.017 115.275C199.385 113.666 191.976 110.95 190.181 111.582Z" fill="#361557"/>
<path d="M189.533 104.507H189.485C187.205 104.535 182.894 111.033 179.678 116.48C179.437 116.885 179.359 117.366 179.458 117.827C179.557 118.288 179.827 118.694 180.213 118.964C180.73 119.324 181.542 119.685 182.7 119.685C183.1 119.683 183.499 119.642 183.891 119.565C183.978 119.548 184.061 119.514 184.135 119.465C184.21 119.416 184.274 119.353 184.323 119.279C184.373 119.205 184.408 119.122 184.426 119.035C184.444 118.948 184.445 118.858 184.428 118.771C184.411 118.683 184.377 118.6 184.328 118.525C184.279 118.451 184.216 118.387 184.143 118.337C184.069 118.287 183.986 118.252 183.899 118.234C183.812 118.216 183.722 118.216 183.635 118.233C182.566 118.438 181.647 118.304 180.978 117.846C180.875 117.771 180.804 117.659 180.779 117.534C180.754 117.409 180.777 117.279 180.844 117.17C185.421 109.418 188.54 105.869 189.501 105.869H189.544C192.12 105.869 198.936 108.532 199.598 109.806C200.399 111.355 199.804 114.255 199.506 115.244C199.481 115.329 199.472 115.419 199.481 115.507C199.489 115.596 199.516 115.682 199.557 115.761C199.599 115.839 199.656 115.909 199.725 115.965C199.794 116.022 199.873 116.064 199.958 116.09C200.043 116.116 200.133 116.124 200.221 116.116C200.31 116.107 200.395 116.081 200.474 116.039C200.552 115.997 200.622 115.939 200.678 115.871C200.734 115.802 200.777 115.722 200.802 115.637C200.853 115.471 202.02 111.538 200.802 109.181C199.768 107.189 192.275 104.507 189.533 104.507Z" fill="#361557"/>
<path d="M186.5 100.919C184.22 100.946 179.907 107.444 176.692 112.89C176.451 113.295 176.372 113.777 176.471 114.238C176.57 114.7 176.84 115.106 177.226 115.376C177.743 115.737 178.556 116.098 179.714 116.098C180.114 116.095 180.512 116.055 180.904 115.977C180.992 115.961 181.075 115.927 181.149 115.878C181.223 115.829 181.287 115.766 181.337 115.692C181.387 115.618 181.422 115.536 181.44 115.448C181.458 115.361 181.459 115.271 181.442 115.184C181.425 115.096 181.391 115.013 181.343 114.939C181.294 114.864 181.231 114.8 181.157 114.75C181.084 114.7 181.001 114.665 180.914 114.647C180.827 114.629 180.737 114.629 180.65 114.645C179.579 114.851 178.66 114.716 177.993 114.258C177.889 114.184 177.818 114.072 177.793 113.947C177.768 113.822 177.791 113.692 177.857 113.583C182.433 105.831 185.553 102.282 186.515 102.282C191.161 102.228 196.943 102.904 197.435 103.858C198.403 105.723 197.86 107.899 197.853 107.929C197.815 108.1 197.845 108.279 197.937 108.429C198.028 108.579 198.173 108.687 198.343 108.732C198.512 108.776 198.692 108.754 198.845 108.668C198.998 108.583 199.112 108.441 199.163 108.274C199.191 108.164 199.852 105.576 198.637 103.233C197.387 100.819 186.939 100.915 186.5 100.919Z" fill="#361557"/>
<path d="M194.252 133.652C194.227 133.478 194.136 133.32 193.997 133.212C193.859 133.104 193.684 133.053 193.509 133.072C193.334 133.091 193.174 133.176 193.061 133.311C192.948 133.446 192.892 133.619 192.904 133.795C193.002 134.722 195.314 156.576 196.784 163.128C196.817 163.278 196.901 163.413 197.021 163.509C197.141 163.605 197.29 163.657 197.444 163.657C197.494 163.658 197.544 163.652 197.592 163.64C197.679 163.621 197.761 163.585 197.834 163.534C197.907 163.482 197.969 163.417 198.017 163.342C198.064 163.267 198.097 163.183 198.112 163.095C198.127 163.007 198.124 162.917 198.105 162.83C196.653 156.355 194.274 133.878 194.252 133.652Z" fill="#361557"/>
<path d="M200.395 161.461C200.264 161.402 200.116 161.386 199.975 161.417C199.834 161.448 199.706 161.523 199.611 161.632C198.282 163.145 190.463 164.459 186.519 162.989C186.35 162.926 186.164 162.933 186.001 163.008C185.837 163.083 185.711 163.22 185.648 163.389C185.585 163.557 185.592 163.744 185.667 163.907C185.742 164.071 185.879 164.198 186.047 164.261C189.688 165.617 196.203 164.923 199.277 163.455C198.899 166.737 197.957 175.16 197.109 184.587C195.891 198.131 188.589 208.905 182.885 209.488C176.716 210.124 172.536 205.556 168.915 194.229C165.915 184.852 164.373 173.831 164.355 173.721C164.326 173.546 164.231 173.389 164.089 173.284C163.946 173.179 163.769 173.133 163.594 173.158C163.418 173.182 163.26 173.274 163.151 173.414C163.043 173.554 162.994 173.731 163.014 173.907C163.029 174.019 164.587 185.148 167.623 194.642C171.195 205.817 175.6 210.902 181.791 210.902C182.201 210.902 182.612 210.881 183.021 210.838C189.261 210.2 197.142 199.312 198.455 184.709C199.535 172.664 200.776 162.264 200.789 162.161C200.806 162.017 200.777 161.872 200.707 161.746C200.636 161.62 200.527 161.52 200.395 161.461Z" fill="#361557"/>
<path d="M176.059 167.364C175.972 167.347 175.882 167.349 175.795 167.367C175.708 167.386 175.625 167.422 175.552 167.473C175.479 167.523 175.416 167.588 175.368 167.663C175.32 167.738 175.287 167.822 175.271 167.909C174.679 171.179 173.808 173.12 172.886 175.173C171.774 177.651 170.514 180.463 169.526 186.029C169.511 186.116 169.512 186.206 169.531 186.293C169.55 186.38 169.586 186.463 169.637 186.536C169.688 186.609 169.752 186.672 169.827 186.72C169.902 186.768 169.986 186.8 170.073 186.816C170.113 186.823 170.153 186.827 170.193 186.827C170.352 186.826 170.506 186.77 170.628 186.668C170.749 186.565 170.831 186.423 170.86 186.267C171.82 180.857 172.993 178.253 174.126 175.73C175.086 173.598 175.986 171.584 176.609 168.156C176.625 168.068 176.624 167.977 176.605 167.889C176.586 167.801 176.55 167.718 176.499 167.645C176.448 167.571 176.383 167.508 176.307 167.46C176.232 167.412 176.147 167.379 176.059 167.364Z" fill="#361557"/>
<path d="M197.032 159.276C196.942 159.269 196.852 159.28 196.766 159.309C196.681 159.337 196.602 159.383 196.534 159.442C196.466 159.502 196.411 159.574 196.371 159.655C196.332 159.737 196.309 159.825 196.304 159.915C196.299 160.005 196.312 160.096 196.342 160.181C196.373 160.266 196.42 160.344 196.481 160.411C196.542 160.477 196.615 160.531 196.697 160.569C196.779 160.606 196.868 160.627 196.958 160.63C196.982 160.63 199.346 160.801 199.444 162.129C199.456 162.3 199.533 162.46 199.658 162.577C199.783 162.693 199.948 162.758 200.119 162.758H200.169C200.347 162.744 200.512 162.661 200.63 162.526C200.747 162.391 200.806 162.215 200.794 162.037C200.647 160.013 198.359 159.35 197.032 159.276Z" fill="#361557"/>
<path d="M56.4137 91.591C55.4081 90.4597 53.1521 89.2972 51.2873 90.8492C48.6773 93.024 46.2773 101.687 46.2773 101.687L52.4165 96.5753C52.4165 96.5753 54.5237 100.27 56.8985 101.504C57.2487 101.68 57.6268 101.792 58.0157 101.837C58.4551 101.893 58.9013 101.826 59.3045 101.642C59.7078 101.459 60.0522 101.167 60.2994 100.799C60.5466 100.431 60.6869 100.001 60.7044 99.5577C60.722 99.1144 60.6162 98.675 60.3989 98.2884C58.9253 95.6712 56.9009 92.1416 56.4137 91.591Z" fill="#E7CEFF"/>
<path d="M50.5964 112.222C49.2008 111.732 42.0488 114.19 40.4648 115.754C38.8808 117.318 40.3208 120.97 41.762 123.537C43.6916 126.976 44.642 132.142 49.1072 134.568L44.738 121.308L50.0912 119.696C50.0912 119.696 53.5712 121.808 55.0208 121.95C56.2652 122.07 57.1196 121.617 57.6608 121.146C57.8912 120.937 58.0301 120.647 58.0474 120.336C58.0648 120.026 57.959 119.721 57.7532 119.489C56.0936 117.576 51.7208 112.616 50.5964 112.222Z" fill="#E7CEFF"/>
<path d="M51.5062 105.187C48.8998 105.155 41.6662 107.815 40.8022 109.489C39.6934 111.628 40.8454 115.436 40.8454 115.436L57.2362 118.899C58.7818 119.196 59.7922 118.825 60.4042 118.405C60.6493 118.233 60.8203 117.974 60.8827 117.681C60.9451 117.388 60.8941 117.082 60.7402 116.825C59.1406 114.116 53.7166 105.211 51.5062 105.187Z" fill="#E7CEFF"/>
<path d="M54.4996 101.604C51.8932 101.573 43.8364 101.87 42.9676 103.546C41.8564 105.677 42.4996 108.096 42.4996 108.096L60.2332 115.309C61.7776 115.606 62.788 115.236 63.4012 114.815C63.6462 114.643 63.8169 114.384 63.8789 114.091C63.9408 113.798 63.8893 113.492 63.7348 113.235C62.1304 110.528 56.7076 101.623 54.4996 101.604Z" fill="#E7CEFF"/>
<path d="M56.9181 91.145C55.7613 89.843 53.0913 88.4701 50.8545 90.3323C48.1125 92.6165 45.7245 101.152 45.6249 101.513C45.5986 101.599 45.59 101.69 45.5994 101.78C45.6088 101.87 45.6361 101.957 45.6797 102.037C45.7233 102.116 45.7822 102.186 45.8531 102.242C45.924 102.298 46.0054 102.339 46.0924 102.363C46.1795 102.387 46.2705 102.394 46.3601 102.382C46.4496 102.37 46.5359 102.341 46.6139 102.295C46.6919 102.249 46.76 102.188 46.8141 102.116C46.8683 102.044 46.9074 101.961 46.9293 101.873C47.5809 99.5206 49.7121 93.0481 51.7197 91.3758C53.2233 90.1243 55.0857 91.1234 55.9065 92.0478C56.0421 92.2005 56.7585 93.1851 60.2685 99.4413C60.3627 99.6051 60.4143 99.7901 60.4185 99.9792C60.4227 100.168 60.3793 100.355 60.2925 100.523C60.2048 100.697 60.075 100.847 59.9148 100.958C59.7546 101.069 59.5693 101.137 59.3757 101.158C58.4661 101.264 57.7365 101.178 57.2085 100.904C55.0413 99.7815 53.0229 96.2795 53.0025 96.2447C52.9591 96.1658 52.9006 96.0964 52.8303 96.0405C52.7599 95.9846 52.6791 95.9432 52.5927 95.9189C52.5062 95.8945 52.4158 95.8877 52.3267 95.8987C52.2375 95.9097 52.1515 95.9384 52.0735 95.9831C51.9955 96.0277 51.9272 96.0875 51.8726 96.1589C51.8179 96.2303 51.778 96.3119 51.7551 96.3989C51.7322 96.4859 51.7268 96.5766 51.7393 96.6657C51.7518 96.7548 51.7818 96.8405 51.8277 96.9179C51.9177 97.0754 54.0633 100.801 56.5857 102.109C57.1617 102.408 57.8589 102.557 58.6653 102.557C58.9552 102.557 59.245 102.539 59.5329 102.504C59.9476 102.457 60.3442 102.308 60.6872 102.069C61.0302 101.831 61.3089 101.511 61.4985 101.139C61.6856 100.772 61.779 100.364 61.7704 99.952C61.7618 99.54 61.6515 99.1365 61.4493 98.7777C58.8909 94.213 57.3669 91.6451 56.9181 91.145Z" fill="#361557"/>
<path d="M50.819 111.582C49.019 110.95 41.615 113.666 39.989 115.271C37.949 117.284 39.8534 121.522 41.171 123.87C41.6714 124.761 42.1058 125.779 42.5666 126.858C43.853 129.864 45.3098 133.277 48.7838 135.164C48.9417 135.25 49.1271 135.269 49.2993 135.218C49.4714 135.167 49.6162 135.05 49.7018 134.891C49.7874 134.733 49.8068 134.547 49.7558 134.375C49.7047 134.203 49.5873 134.057 49.4294 133.972C46.3694 132.309 45.0698 129.266 43.8122 126.325C43.3322 125.21 42.887 124.161 42.3518 123.199C40.8914 120.597 39.7538 117.401 40.9394 116.226C42.4202 114.764 49.289 112.473 50.3726 112.852C50.9066 113.042 53.237 115.302 57.2378 119.922C57.3264 120.019 57.3731 120.147 57.3679 120.279C57.3628 120.411 57.3061 120.535 57.2102 120.625C56.6342 121.131 55.9202 121.346 55.0862 121.265C54.2126 121.178 51.3806 119.384 49.649 118.139C49.566 118.079 49.4705 118.039 49.3697 118.021C49.2688 118.004 49.1653 118.009 49.067 118.038L45.0962 119.178C44.9236 119.227 44.7777 119.343 44.6906 119.501C44.6035 119.658 44.5823 119.844 44.6318 120.017C44.6813 120.19 44.7974 120.336 44.9545 120.423C45.1115 120.51 45.2968 120.532 45.4694 120.482L49.127 119.432C50.2634 120.236 53.5418 122.478 54.9542 122.616C56.4758 122.767 57.5054 122.171 58.103 121.646C58.4674 121.319 58.6884 120.861 58.7178 120.373C58.7472 119.884 58.5828 119.403 58.2602 119.035C54.2594 114.418 51.7514 111.908 50.819 111.582Z" fill="#361557"/>
<path d="M51.5152 104.507H51.4672C48.724 104.507 41.2324 107.189 40.2016 109.177C38.98 111.533 40.1476 115.466 40.2016 115.632C40.2274 115.718 40.2697 115.797 40.326 115.866C40.3824 115.935 40.4518 115.992 40.5301 116.034C40.6085 116.076 40.6944 116.102 40.7829 116.111C40.8714 116.119 40.9607 116.111 41.0458 116.085C41.1309 116.059 41.2101 116.017 41.2789 115.96C41.3476 115.904 41.4046 115.834 41.4466 115.756C41.4885 115.677 41.5146 115.591 41.5234 115.503C41.5321 115.414 41.5234 115.324 41.4976 115.239C41.2 114.252 40.6048 111.35 41.4064 109.802C42.0676 108.527 48.8836 105.865 51.46 105.865H51.5008C52.4608 105.875 55.5808 109.418 60.1576 117.165C60.2254 117.275 60.249 117.406 60.2236 117.532C60.1981 117.659 60.1257 117.771 60.0208 117.846C59.3524 118.304 58.4332 118.438 57.364 118.233C57.1877 118.199 57.0051 118.236 56.8565 118.337C56.7079 118.438 56.6053 118.594 56.5714 118.771C56.5375 118.947 56.5751 119.13 56.6758 119.279C56.7765 119.428 56.9321 119.531 57.1084 119.565C57.5005 119.642 57.8991 119.683 58.2988 119.685C59.4568 119.685 60.2692 119.324 60.7864 118.964C61.1723 118.694 61.4419 118.288 61.541 117.827C61.6401 117.366 61.5613 116.885 61.3204 116.48C58.1068 111.033 53.7952 104.535 51.5152 104.507Z" fill="#361557"/>
<path d="M54.506 100.919C54.0632 100.919 43.6124 100.819 42.3656 103.226C41.15 105.57 41.8112 108.155 41.84 108.268C41.8856 108.442 41.9984 108.59 42.1534 108.681C42.3085 108.772 42.4931 108.797 42.6668 108.751C42.8404 108.705 42.9887 108.592 43.0792 108.437C43.1697 108.282 43.1948 108.097 43.1492 107.923C43.1432 107.901 42.5972 105.721 43.5668 103.852C44.0612 102.898 49.8392 102.216 54.4868 102.276C55.4468 102.287 58.5667 105.83 63.1448 113.577C63.2115 113.685 63.2348 113.815 63.2099 113.94C63.185 114.065 63.1137 114.176 63.0104 114.251C62.342 114.71 61.4228 114.845 60.3524 114.639C60.265 114.623 60.1753 114.623 60.0883 114.641C60.0012 114.659 59.9186 114.694 59.845 114.744C59.7715 114.794 59.7085 114.858 59.6596 114.933C59.6108 115.007 59.5771 115.09 59.5604 115.178C59.5437 115.265 59.5443 115.355 59.5623 115.442C59.5803 115.53 59.6152 115.612 59.6651 115.686C59.715 115.76 59.779 115.823 59.8532 115.872C59.9275 115.921 60.0107 115.955 60.098 115.971C60.4901 116.049 60.8886 116.089 61.2884 116.092C62.4452 116.092 63.2588 115.731 63.776 115.37C64.1619 115.101 64.4315 114.694 64.5306 114.234C64.6296 113.773 64.5508 113.291 64.31 112.887C61.1 107.444 56.786 100.946 54.506 100.919Z" fill="#361557"/>
<path d="M194.154 119.204C191.057 120.351 189.522 123.823 189.458 123.969C189.387 124.135 189.384 124.322 189.45 124.489C189.516 124.656 189.645 124.791 189.81 124.863C189.895 124.899 189.986 124.918 190.079 124.918C190.211 124.918 190.34 124.88 190.45 124.807C190.561 124.735 190.648 124.632 190.7 124.51C190.714 124.479 192.064 121.424 194.623 120.476C194.707 120.446 194.785 120.399 194.851 120.339C194.917 120.278 194.971 120.205 195.008 120.124C195.046 120.043 195.068 119.955 195.071 119.866C195.075 119.776 195.061 119.687 195.03 119.602C194.999 119.518 194.952 119.441 194.891 119.376C194.83 119.31 194.756 119.257 194.675 119.22C194.594 119.183 194.506 119.163 194.416 119.16C194.327 119.157 194.238 119.172 194.154 119.204Z" fill="#361557"/>
<path d="M46.1586 119.204C46.0751 119.173 45.9863 119.159 45.8973 119.163C45.8084 119.166 45.721 119.187 45.6402 119.224C45.5593 119.262 45.4866 119.315 45.4262 119.38C45.3657 119.446 45.3188 119.522 45.288 119.606C45.2572 119.69 45.2431 119.779 45.2466 119.868C45.2501 119.957 45.2711 120.045 45.3084 120.126C45.3456 120.207 45.3985 120.279 45.4639 120.34C45.5292 120.4 45.6059 120.447 45.6894 120.478C48.237 121.422 49.599 124.483 49.6122 124.513C49.6648 124.634 49.7517 124.737 49.8622 124.81C49.9726 124.882 50.1018 124.921 50.2338 124.92C50.3262 124.92 50.4176 124.901 50.5026 124.865C50.6674 124.793 50.797 124.659 50.8629 124.491C50.9289 124.324 50.9257 124.137 50.8542 123.972C50.7906 123.823 49.2558 120.351 46.1586 119.204Z" fill="#361557"/>
<path d="M100.196 114.851C99.386 113.971 98.4025 113.269 97.3079 112.789C96.2133 112.309 95.0313 112.061 93.8364 112.061C92.6414 112.061 91.4594 112.309 90.3648 112.789C89.2702 113.269 88.2868 113.971 87.4764 114.851C86.6795 115.721 86.0556 116.736 85.638 117.841C84.7691 120.201 84.7691 122.794 85.638 125.155C86.0556 126.259 86.6795 127.274 87.4764 128.145C88.2881 129.022 89.272 129.722 90.3664 130.201C91.4608 130.68 92.6422 130.927 93.8364 130.927C95.0306 130.927 96.2119 130.68 97.3063 130.201C98.4007 129.722 99.3846 129.022 100.196 128.145C100.992 127.274 101.616 126.259 102.034 125.155C102.902 122.794 102.902 120.201 102.034 117.841C101.616 116.736 100.992 115.722 100.196 114.851ZM98.592 124.67C98.1573 125.58 97.4924 126.359 96.6636 126.93C95.8158 127.476 94.8295 127.766 93.822 127.766C92.8144 127.766 91.8281 127.476 90.9804 126.93C90.1512 126.361 89.4884 125.581 89.0604 124.67C88.6049 123.672 88.3692 122.588 88.3692 121.491C88.3692 120.393 88.6049 119.309 89.0604 118.311C89.4914 117.406 90.1538 116.631 90.9804 116.065C91.8281 115.52 92.8144 115.23 93.822 115.23C94.8295 115.23 95.8158 115.52 96.6636 116.065C97.4919 116.637 98.1567 117.416 98.592 118.324C99.0559 119.317 99.2964 120.401 99.2964 121.497C99.2964 122.594 99.0559 123.677 98.592 124.67Z" fill="#361557"/>
<path d="M115.656 117.332C114.559 116.724 113.325 116.404 112.071 116.404C110.817 116.404 109.584 116.724 108.487 117.332C107.424 117.944 106.542 118.827 105.932 119.892C105.297 120.979 104.98 122.237 104.98 123.665C104.981 125.094 105.298 126.351 105.932 127.439C106.54 128.502 107.422 129.382 108.487 129.985C109.587 130.585 110.819 130.9 112.071 130.9C113.324 130.9 114.556 130.585 115.656 129.985C116.72 129.382 117.603 128.502 118.212 127.439C118.845 126.351 119.162 125.093 119.162 123.665C119.162 122.238 118.845 120.98 118.212 119.892C117.601 118.827 116.719 117.944 115.656 117.332ZM115.5 125.951C115.165 126.58 114.668 127.108 114.06 127.479C113.456 127.837 112.767 128.027 112.065 128.027C111.363 128.027 110.674 127.837 110.071 127.479C109.465 127.106 108.97 126.579 108.637 125.951C108.269 125.247 108.085 124.461 108.103 123.667C108.103 122.778 108.281 122.007 108.637 121.355C108.97 120.727 109.466 120.2 110.071 119.828C110.674 119.468 111.363 119.279 112.065 119.279C112.767 119.279 113.456 119.468 114.06 119.828C114.667 120.199 115.165 120.726 115.5 121.355C115.856 122.008 116.034 122.779 116.034 123.667C116.052 124.461 115.868 125.247 115.5 125.951Z" fill="#361557"/>
<path d="M132.393 117.332C131.415 116.71 130.278 116.388 129.12 116.404C128.528 116.401 127.941 116.508 127.387 116.718C126.869 116.911 126.381 117.18 125.94 117.515C125.603 117.769 125.296 118.061 125.027 118.387V119.538L124.584 119.304C124.584 119.078 124.704 118.804 124.944 118.481C124.968 118.449 124.997 118.418 125.022 118.387V118.259C125.028 118.05 124.992 117.841 124.916 117.646C124.84 117.451 124.725 117.273 124.579 117.123C124.28 116.83 123.877 116.666 123.459 116.666C123.04 116.666 122.638 116.83 122.338 117.123C122.191 117.273 122.077 117.451 122.001 117.646C121.924 117.841 121.888 118.05 121.894 118.259V134.27C121.886 134.481 121.921 134.692 121.997 134.89C122.073 135.087 122.189 135.267 122.338 135.418C122.484 135.565 122.659 135.68 122.852 135.757C123.045 135.833 123.251 135.869 123.459 135.863C123.667 135.869 123.874 135.831 124.067 135.753C124.26 135.674 124.435 135.556 124.579 135.406C124.725 135.256 124.839 135.078 124.915 134.883C124.992 134.688 125.028 134.479 125.022 134.27V129.145C124.866 128.989 124.722 128.82 124.593 128.641C124.341 128.285 124.215 127.984 124.215 127.74L125.022 127.4V129.145C125.222 129.344 125.436 129.53 125.662 129.699C126.151 130.063 126.691 130.354 127.265 130.561C127.891 130.79 128.553 130.905 129.22 130.9C130.353 130.914 131.464 130.592 132.414 129.973C133.38 129.333 134.162 128.451 134.682 127.414C135.246 126.326 135.529 125.068 135.529 123.639C135.53 122.21 135.249 120.956 134.687 119.877C134.16 118.841 133.368 117.962 132.393 117.332ZM132.054 125.868C131.761 126.504 131.301 127.05 130.725 127.447C130.134 127.838 129.438 128.039 128.73 128.022C128.018 128.038 127.319 127.837 126.723 127.447C126.139 127.054 125.675 126.507 125.38 125.868C125.053 125.169 124.889 124.405 124.9 123.634C124.885 122.863 125.049 122.098 125.38 121.402C125.681 120.773 126.144 120.236 126.723 119.847C127.319 119.458 128.018 119.257 128.73 119.273C129.438 119.256 130.134 119.457 130.725 119.847C131.296 120.24 131.755 120.776 132.054 121.402C132.384 122.099 132.548 122.863 132.534 123.634C132.545 124.407 132.381 125.172 132.054 125.873V125.868Z" fill="#361557"/>
<path d="M124.58 119.304L125.023 119.538V118.387C124.998 118.418 124.969 118.449 124.945 118.482C124.702 118.804 124.58 119.078 124.58 119.304Z" fill="#361557"/>
<path d="M124.221 127.739C124.221 127.98 124.347 128.28 124.599 128.641C124.728 128.82 124.872 128.989 125.028 129.145V127.4L124.221 127.739Z" fill="#361557"/>
<path d="M146.719 123.614C146.259 123.296 145.759 123.041 145.232 122.856C144.693 122.664 144.163 122.498 143.642 122.36C143.138 122.22 142.664 122.076 142.221 121.928C141.833 121.811 141.474 121.615 141.165 121.354C141.034 121.233 140.932 121.085 140.864 120.92C140.797 120.756 140.766 120.578 140.775 120.4C140.775 119.965 140.887 119.648 141.113 119.447C141.339 119.247 141.613 119.112 141.909 119.056C142.188 118.998 142.471 118.967 142.756 118.965C143.343 118.953 143.926 119.069 144.464 119.304C144.928 119.506 145.335 119.82 145.649 120.217C145.886 120.432 146.191 120.556 146.51 120.57C146.838 120.602 147.165 120.504 147.422 120.297C147.788 119.999 147.953 119.668 147.917 119.304C147.893 118.965 147.775 118.64 147.579 118.364C147.213 117.893 146.751 117.505 146.223 117.228C145.689 116.942 145.119 116.731 144.529 116.601C143.973 116.474 143.404 116.408 142.834 116.404C141.996 116.402 141.166 116.57 140.396 116.901C139.658 117.207 139.009 117.693 138.506 118.314C138.012 118.947 137.754 119.732 137.776 120.535C137.776 121.3 137.924 121.936 138.219 122.441C138.5 122.931 138.894 123.347 139.366 123.656C139.85 123.968 140.372 124.218 140.918 124.4C141.478 124.592 142.03 124.767 142.574 124.923C143.095 125.062 143.568 125.21 143.995 125.366C144.369 125.495 144.718 125.69 145.024 125.941C145.154 126.054 145.256 126.196 145.324 126.354C145.392 126.512 145.423 126.684 145.415 126.856C145.415 127.308 145.298 127.643 145.063 127.861C144.834 128.076 144.55 128.221 144.242 128.279C143.958 128.338 143.67 128.378 143.381 128.4C142.548 128.4 141.853 128.26 141.296 127.982C140.706 127.679 140.169 127.282 139.706 126.807C139.409 126.511 139.106 126.35 138.793 126.326C138.481 126.299 138.169 126.378 137.907 126.548C137.472 126.827 137.246 127.158 137.229 127.54C137.198 127.871 137.281 128.203 137.463 128.481C138.103 129.358 138.994 130.018 140.018 130.375C141.006 130.725 142.046 130.905 143.095 130.91C143.918 130.909 144.734 130.746 145.495 130.429C146.254 130.123 146.925 129.634 147.449 129.005C147.975 128.367 148.253 127.56 148.232 126.733C148.232 125.967 148.093 125.336 147.814 124.84C147.549 124.352 147.174 123.932 146.719 123.614Z" fill="#361557"/>
<path d="M152.794 127.06H152.454C151.95 127.06 151.564 127.195 151.295 127.465C151.026 127.735 150.891 128.123 150.891 128.628V129.071C150.891 129.578 151.025 129.966 151.295 130.234C151.565 130.503 151.951 130.638 152.454 130.639H152.794C153.298 130.639 153.685 130.504 153.954 130.234C154.224 129.964 154.358 129.576 154.357 129.071V128.628C154.357 128.123 154.223 127.735 153.954 127.465C153.685 127.195 153.299 127.06 152.794 127.06Z" fill="#361557"/>
<path d="M152.635 124.866C153.209 124.866 153.522 124.536 153.575 123.874L154.304 114.257C154.337 114.014 154.317 113.766 154.245 113.532C154.173 113.297 154.051 113.081 153.887 112.899C153.727 112.719 153.53 112.577 153.309 112.483C153.089 112.388 152.85 112.343 152.61 112.35C152.372 112.342 152.135 112.387 151.916 112.481C151.697 112.576 151.502 112.719 151.345 112.899C151.185 113.083 151.064 113.299 150.99 113.533C150.916 113.767 150.891 114.013 150.916 114.257L151.672 123.874C151.724 124.536 152.045 124.866 152.635 124.866Z" fill="#361557"/>
<path d="M155.762 40.2829C154.482 40.5378 152.11 41.0103 151.625 40.7338C151.054 39.8345 152.225 38.6395 153.696 37.2871C154.837 36.2376 155.736 35.4081 155.201 34.5221C155.132 34.4087 155.041 34.3106 154.933 34.2338C154.825 34.1571 154.703 34.1034 154.573 34.0761C153.895 33.9294 153.142 34.4115 151.754 35.348C150.757 36.0224 149.249 37.043 148.634 36.8952C148.586 36.8832 148.532 36.8627 148.471 36.7521C148.429 36.6734 148.371 36.6039 148.301 36.5476C148.232 36.4914 148.152 36.4494 148.066 36.4243C147.98 36.3992 147.89 36.3913 147.801 36.4012C147.713 36.411 147.627 36.4384 147.548 36.4818C147.47 36.5251 147.401 36.5836 147.346 36.6537C147.29 36.7239 147.249 36.8043 147.225 36.8905C147.2 36.9767 147.193 37.0668 147.204 37.1557C147.215 37.2446 147.243 37.3305 147.287 37.4085C147.391 37.6087 147.538 37.7841 147.716 37.9231C147.894 38.062 148.099 38.1612 148.319 38.214C149.512 38.5025 151.039 37.4698 152.519 36.4732L152.749 36.3169C151.325 37.6285 149.219 39.5917 150.529 41.52C151.204 42.5118 153.06 42.2004 156.032 41.609C156.599 41.4959 157.301 41.3565 157.928 41.2579C157.534 41.4202 157.114 41.5837 156.744 41.728C153.944 42.8195 152.231 43.5625 152.029 44.6649C151.804 45.8971 153.457 46.4441 155.206 47.0236L155.735 47.2015H155.706C154.452 47.2496 153.37 47.2917 153.052 48.0623C152.982 48.2276 152.981 48.4138 153.048 48.5799C153.116 48.746 153.247 48.8785 153.412 48.9483C153.554 49.0074 153.713 49.0158 153.861 48.9721C154.009 48.9283 154.138 48.8351 154.226 48.7079C154.488 48.6045 155.273 48.5744 155.752 48.5564C156.84 48.5143 157.626 48.4842 158.011 48.0094C158.091 47.9119 158.149 47.7982 158.181 47.6762C158.213 47.5542 158.218 47.4267 158.196 47.3025C158.066 46.5427 157.096 46.2205 155.626 45.7397C154.962 45.5197 153.779 45.1277 153.416 44.8344C153.87 44.3067 156.032 43.4627 157.229 42.9951C159.616 42.0646 160.93 41.5524 160.567 40.533C160.165 39.4077 158.419 39.7564 155.762 40.2829Z" fill="#361557"/>
</g>
<defs>
<clipPath id="clip0_9504_246541">
<rect width="240" height="220" fill="white" transform="translate(0.5 0.500183)"/>
</clipPath>
</defs>
</svg>
