<svg width="100%" height="100%" viewBox="0 0 13 13" fill="none" xmlns="http://www.w3.org/2000/svg">
<path d="M4.95723 6.00113C6.29275 6.00113 7.3754 4.91848 7.3754 3.58296C7.3754 2.24745 6.29275 1.16479 4.95723 1.16479C3.62171 1.16479 2.53906 2.24745 2.53906 3.58296C2.53906 4.91848 3.62171 6.00113 4.95723 6.00113Z" stroke="#4524F8" stroke-width="1.36029" stroke-linecap="round" stroke-linejoin="round"/>
<path d="M1.32812 12.0464V10.8373C1.32812 10.196 1.5829 9.58089 2.03639 9.12739C2.48989 8.6739 3.10496 8.41913 3.7463 8.41913H6.16447C6.8058 8.41913 7.42088 8.6739 7.87437 9.12739C8.32786 9.58089 8.58264 10.196 8.58264 10.8373V12.0464" stroke="#4524F8" stroke-width="1.36029" stroke-linecap="round" stroke-linejoin="round"/>
<path d="M9.1875 1.24438C9.70766 1.37757 10.1687 1.68008 10.4979 2.10423C10.8272 2.52838 11.0059 3.05005 11.0059 3.58699C11.0059 4.12392 10.8272 4.64559 10.4979 5.06974C10.1687 5.49389 9.70766 5.79641 9.1875 5.92959" stroke="#4524F8" stroke-width="1.36029" stroke-linecap="round" stroke-linejoin="round"/>
<path d="M12.2121 12.0471V10.838C12.209 10.3043 12.0294 9.78657 11.7014 9.36556C11.3733 8.94456 10.9152 8.64392 10.3984 8.5105" stroke="#4524F8" stroke-width="1.36029" stroke-linecap="round" stroke-linejoin="round"/>
</svg>
