<svg width="100%" height="100%" viewBox="0 0 40 40" fill="none" xmlns="http://www.w3.org/2000/svg">
<path d="M18.865 15.4032H21.6533V25.0782H18.865V15.4032ZM7.04333 22.2582C7.04333 18.9165 2.79833 19.5182 2.79833 18.2532L2.8 18.2565C2.8 17.8198 3.16333 17.6498 3.745 17.6432C4.70976 17.6637 5.65624 17.9103 6.50833 18.3632V15.7232C5.6309 15.3769 4.69491 15.2032 3.75167 15.2115C1.5 15.2115 0 16.3982 0 18.3815C0 21.4882 4.22 20.9832 4.22 22.3232C4.22 22.8398 3.77667 23.0115 3.15667 23.0115C2.23833 23.0115 1.05 22.6265 0.118333 22.1148V24.6415C1.07491 25.0582 2.10661 25.2749 3.15 25.2782C5.45667 25.2765 7.04333 24.2782 7.04333 22.2582ZM18.8567 14.5532L21.645 13.9532V11.6665L18.8567 12.2665V14.5532ZM27.4467 15.2148C26.6346 15.2114 25.8536 15.5268 25.2717 16.0932L25.1283 15.3982H22.6833V28.3332L25.4583 27.7382L25.465 24.5682C25.865 24.8648 26.4583 25.2765 27.4283 25.2765C29.4167 25.2765 31.2283 23.8115 31.2283 20.2498C31.235 16.9898 29.3983 15.2148 27.4467 15.2148ZM26.785 22.9498C26.1333 22.9515 25.7483 22.7115 25.4783 22.4198L25.46 18.2515C25.7483 17.9298 26.1483 17.6948 26.785 17.6948C27.7967 17.6948 28.4967 18.8448 28.4967 20.3098C28.505 21.8198 27.8167 22.9498 26.785 22.9498ZM35.9867 15.2148C33.3483 15.2148 31.7417 17.4815 31.7417 20.3382C31.7417 23.7165 33.635 25.2782 36.3367 25.2782C37.6617 25.2782 38.655 24.9748 39.4117 24.5515V22.4415C38.655 22.8265 37.7867 23.0598 36.6867 23.0598C35.605 23.0598 34.655 22.6748 34.53 21.3615H39.9617C39.9733 21.2165 39.9983 20.6282 39.9983 20.3582C39.9983 17.4832 38.625 15.2148 35.9867 15.2148ZM34.505 19.2948C34.505 18.0315 35.275 17.5015 35.9683 17.5015C36.65 17.5015 37.375 18.0332 37.375 19.2948H34.505ZM12.42 17.7915V15.4032H10.3133L10.3067 12.9715L7.59833 13.5532L7.58667 22.5465C7.58667 24.2082 8.825 25.2815 10.4683 25.2815C11.3817 25.2815 12.05 25.1098 12.42 24.9082V22.7732C12.0633 22.9182 10.3133 23.4365 10.3133 21.7815V17.7898H12.42V17.7915ZM18.195 17.9815V15.4048C17.82 15.2715 16.5267 15.0265 15.8767 16.2315L15.7067 15.4048H13.3067V25.0798H16.0767V18.5682C16.7333 17.6965 17.84 17.8682 18.195 17.9815Z" fill="#646FDE"/>
</svg>
