<svg width="100%" height="100%" viewBox="0 0 85 40" fill="none" xmlns="http://www.w3.org/2000/svg">
<g clip-path="url(#clip0_9500_232038)">
<path d="M14.668 26.8909H17.9055L19.9863 13.9434H16.518L14.668 26.8909Z" fill="#1565C0"/>
<path d="M11.8924 13.7118L8.88661 22.9601L8.31911 20.3551C6.70078 16.4243 3.92578 14.806 3.92578 14.806L6.80578 26.6593H10.2741L15.1299 13.711H11.8924V13.7118ZM37.7883 13.7118H34.3199L29.0016 26.6601H32.2383L32.9316 24.8101H37.0933L37.5558 26.6601H40.3316L37.7883 13.7118ZM33.6266 22.4976L35.4766 17.6426L36.4016 22.4976H33.6266ZM24.3774 17.411C24.3774 16.7176 24.8399 16.0235 26.4583 16.0235C27.6141 16.0235 28.7708 16.9485 28.7708 16.9485L29.4641 14.1743C29.4641 14.1743 27.8458 13.481 26.4583 13.481C22.9899 13.481 21.3716 15.331 21.3716 17.4118C21.3716 21.5735 25.9958 20.8801 25.9958 22.961C25.9958 23.4235 25.7649 24.1168 23.9149 24.1168C22.0649 24.1168 20.6783 23.4235 20.6783 23.4235L20.2158 26.1976C20.2158 26.1976 21.3716 26.891 23.6841 26.891C25.7649 27.1218 29.0024 25.2726 29.0024 22.4976C29.0024 19.261 24.3774 19.0301 24.3774 17.411Z" fill="#1565C0"/>
<path d="M8.42453 20.8792L7.2687 15.0992C7.2687 15.0992 6.8062 13.9434 5.4187 13.9434C4.0312 13.9434 0.332031 13.9434 0.332031 13.9434C0.332031 13.9434 7.03703 16.0242 8.42453 20.8792Z" fill="#FF9800"/>
</g>
<g clip-path="url(#clip1_9500_232038)">
<path d="M84.0195 20C84.0195 26.5 78.7695 31.8125 72.207 31.8125C65.707 31.8125 60.3945 26.5 60.3945 20C60.3945 13.5 65.6445 8.1875 72.1445 8.1875C78.7695 8.1875 84.0195 13.5 84.0195 20Z" fill="#FFB600"/>
<path d="M72.207 8.1875C78.707 8.1875 84.0195 13.5 84.0195 20C84.0195 26.5 78.7695 31.8125 72.207 31.8125C65.707 31.8125 60.3945 26.5 60.3945 20" fill="#F7981D"/>
<path d="M72.207 8.1875C78.707 8.1875 84.0195 13.5 84.0195 20C84.0195 26.5 78.7695 31.8125 72.207 31.8125" fill="#FF8500"/>
<path d="M56.332 8.1875C49.8945 8.25 44.6445 13.5 44.6445 20C44.6445 26.5 49.8945 31.8125 56.457 31.8125C59.5195 31.8125 62.2695 30.625 64.3945 28.75C64.832 28.375 65.207 27.9375 65.582 27.5H63.1445C62.832 27.125 62.5195 26.6875 62.2695 26.3125H66.457C66.707 25.9375 66.957 25.5 67.1445 25.0625H61.582C61.3945 24.6875 61.207 24.25 61.082 23.8125H67.582C67.957 22.625 68.207 21.375 68.207 20.0625C68.207 19.1875 68.082 18.375 67.957 17.5625H60.707C60.7695 17.125 60.8945 16.75 61.0195 16.3125H67.5195C67.3945 15.875 67.207 15.4375 67.0195 15.0625H61.5195C61.707 14.625 61.957 14.25 62.207 13.8125H66.3945C66.1445 13.375 65.832 12.9375 65.457 12.5625H63.1445C63.5195 12.125 63.8945 11.75 64.332 11.375C62.2695 9.4375 59.457 8.3125 56.3945 8.3125C56.3945 8.1875 56.3945 8.1875 56.332 8.1875Z" fill="#FF5050"/>
<path d="M44.6445 20C44.6445 26.5 49.8945 31.8125 56.457 31.8125C59.5195 31.8125 62.2695 30.625 64.3945 28.75C64.832 28.375 65.207 27.9375 65.582 27.5H63.1445C62.832 27.125 62.5195 26.6875 62.2695 26.3125H66.457C66.707 25.9375 66.957 25.5 67.1445 25.0625H61.582C61.3945 24.6875 61.207 24.25 61.082 23.8125H67.582C67.957 22.625 68.207 21.375 68.207 20.0625C68.207 19.1875 68.082 18.375 67.957 17.5625H60.707C60.7695 17.125 60.8945 16.75 61.0195 16.3125H67.5195C67.3945 15.875 67.207 15.4375 67.0195 15.0625H61.5195C61.707 14.625 61.957 14.25 62.207 13.8125H66.3945C66.1445 13.375 65.832 12.9375 65.457 12.5625H63.1445C63.5195 12.125 63.8945 11.75 64.332 11.375C62.2695 9.4375 59.457 8.3125 56.3945 8.3125H56.332" fill="#E52836"/>
<path d="M56.457 31.8125C59.5195 31.8125 62.2695 30.625 64.3945 28.75C64.832 28.375 65.207 27.9375 65.582 27.5H63.1445C62.832 27.125 62.5195 26.6875 62.2695 26.3125H66.457C66.707 25.9375 66.957 25.5 67.1445 25.0625H61.582C61.3945 24.6875 61.207 24.25 61.082 23.8125H67.582C67.957 22.625 68.207 21.375 68.207 20.0625C68.207 19.1875 68.082 18.375 67.957 17.5625H60.707C60.7695 17.125 60.8945 16.75 61.0195 16.3125H67.5195C67.3945 15.875 67.207 15.4375 67.0195 15.0625H61.5195C61.707 14.625 61.957 14.25 62.207 13.8125H66.3945C66.1445 13.375 65.832 12.9375 65.457 12.5625H63.1445C63.5195 12.125 63.8945 11.75 64.332 11.375C62.2695 9.4375 59.457 8.3125 56.3945 8.3125H56.332" fill="#CB2026"/>
<path d="M60.6445 23L60.832 21.9375C60.7695 21.9375 60.6445 22 60.5195 22C60.082 22 60.0195 21.75 60.082 21.625L60.457 19.4375H61.1445L61.332 18.25H60.707L60.832 17.5H59.582C59.582 17.5 58.832 21.625 58.832 22.125C58.832 22.875 59.2695 23.1875 59.832 23.1875C60.207 23.1875 60.5195 23.0625 60.6445 23ZM61.082 21C61.082 22.75 62.2695 23.1875 63.2695 23.1875C64.207 23.1875 64.582 23 64.582 23L64.832 21.8125C64.832 21.8125 64.1445 22.125 63.5195 22.125C62.1445 22.125 62.3945 21.125 62.3945 21.125H64.957C64.957 21.125 65.1445 20.3125 65.1445 20C65.1445 19.1875 64.707 18.1875 63.332 18.1875C62.0195 18.0625 61.082 19.4375 61.082 21ZM63.2695 19.1875C63.957 19.1875 63.832 20 63.832 20.0625H62.457C62.457 20 62.582 19.1875 63.2695 19.1875ZM71.207 23L71.457 21.625C71.457 21.625 70.832 21.9375 70.3945 21.9375C69.5195 21.9375 69.1445 21.25 69.1445 20.5C69.1445 19 69.8945 18.1875 70.7695 18.1875C71.3945 18.1875 71.8945 18.5625 71.8945 18.5625L72.082 17.25C72.082 17.25 71.332 16.9375 70.6445 16.9375C69.207 16.9375 67.7695 18.1875 67.7695 20.5625C67.7695 22.125 68.5195 23.1875 70.0195 23.1875C70.5195 23.1875 71.207 23 71.207 23ZM53.7695 18.0625C52.8945 18.0625 52.2695 18.3125 52.2695 18.3125L52.082 19.375C52.082 19.375 52.6445 19.125 53.457 19.125C53.8945 19.125 54.2695 19.1875 54.2695 19.5625C54.2695 19.8125 54.207 19.875 54.207 19.875H53.6445C52.582 19.875 51.3945 20.3125 51.3945 21.75C51.3945 22.875 52.1445 23.125 52.582 23.125C53.457 23.125 53.832 22.5625 53.8945 22.5625L53.832 23.0625H54.957L55.457 19.625C55.457 18.125 54.207 18.0625 53.7695 18.0625ZM54.0195 20.875C54.0195 21.0625 53.8945 22.0625 53.1445 22.0625C52.7695 22.0625 52.6445 21.75 52.6445 21.5625C52.6445 21.25 52.832 20.8125 53.7695 20.8125C53.957 20.875 54.0195 20.875 54.0195 20.875ZM56.6445 23.125C56.957 23.125 58.5195 23.1875 58.5195 21.5C58.5195 19.9375 57.0195 20.25 57.0195 19.625C57.0195 19.3125 57.2695 19.1875 57.707 19.1875C57.8945 19.1875 58.582 19.25 58.582 19.25L58.7695 18.125C58.7695 18.125 58.332 18 57.582 18C56.6445 18 55.707 18.375 55.707 19.625C55.707 21.0625 57.2695 20.9375 57.2695 21.5C57.2695 21.875 56.832 21.9375 56.5195 21.9375C55.957 21.9375 55.3945 21.75 55.3945 21.75L55.207 22.875C55.2695 23 55.582 23.125 56.6445 23.125ZM81.582 17.0625L81.332 18.75C81.332 18.75 80.832 18.125 80.1445 18.125C79.0195 18.125 78.0195 19.5 78.0195 21.125C78.0195 22.125 78.5195 23.1875 79.582 23.1875C80.332 23.1875 80.7695 22.6875 80.7695 22.6875L80.707 23.125H81.957L82.8945 17.125L81.582 17.0625ZM81.0195 20.375C81.0195 21.0625 80.707 21.9375 80.0195 21.9375C79.582 21.9375 79.332 21.5625 79.332 20.9375C79.332 19.9375 79.7695 19.3125 80.332 19.3125C80.7695 19.3125 81.0195 19.625 81.0195 20.375ZM46.957 23.0625L47.707 18.5625L47.832 23.0625H48.707L50.332 18.5625L49.6445 23.0625H50.957L51.957 17.0625H49.8945L48.6445 20.75L48.582 17.0625H46.7695L45.7695 23.0625H46.957ZM66.332 23.0625C66.707 21 66.7695 19.3125 67.6445 19.625C67.7695 18.8125 67.957 18.5 68.082 18.1875H67.832C67.2695 18.1875 66.832 18.9375 66.832 18.9375L66.957 18.25H65.7695L64.957 23.125H66.332V23.0625ZM74.082 18.0625C73.207 18.0625 72.582 18.3125 72.582 18.3125L72.3945 19.375C72.3945 19.375 72.957 19.125 73.7695 19.125C74.207 19.125 74.582 19.1875 74.582 19.5625C74.582 19.8125 74.5195 19.875 74.5195 19.875H73.957C72.8945 19.875 71.707 20.3125 71.707 21.75C71.707 22.875 72.457 23.125 72.8945 23.125C73.7695 23.125 74.1445 22.5625 74.207 22.5625L74.1445 23.0625H75.2695L75.7695 19.625C75.832 18.125 74.5195 18.0625 74.082 18.0625ZM74.3945 20.875C74.3945 21.0625 74.2695 22.0625 73.5195 22.0625C73.1445 22.0625 73.0195 21.75 73.0195 21.5625C73.0195 21.25 73.207 20.8125 74.1445 20.8125C74.332 20.875 74.332 20.875 74.3945 20.875ZM76.832 23.0625C77.207 21 77.2695 19.3125 78.1445 19.625C78.2695 18.8125 78.457 18.5 78.582 18.1875H78.332C77.7695 18.1875 77.332 18.9375 77.332 18.9375L77.457 18.25H76.2695L75.457 23.125H76.832V23.0625Z" fill="white"/>
<path d="M58.707 22.125C58.707 22.875 59.1445 23.1875 59.707 23.1875C60.1445 23.1875 60.5195 23.0625 60.6445 23L60.832 21.9375C60.7695 21.9375 60.6445 22 60.5195 22C60.082 22 60.0195 21.75 60.082 21.625L60.457 19.4375H61.1445L61.332 18.25H60.707L60.832 17.5M61.707 21C61.707 22.75 62.2695 23.1875 63.2695 23.1875C64.207 23.1875 64.582 23 64.582 23L64.832 21.8125C64.832 21.8125 64.1445 22.125 63.5195 22.125C62.1445 22.125 62.3945 21.125 62.3945 21.125H64.957C64.957 21.125 65.1445 20.3125 65.1445 20C65.1445 19.1875 64.707 18.1875 63.332 18.1875C62.0195 18.0625 61.707 19.4375 61.707 21ZM63.2695 19.1875C63.957 19.1875 64.082 20 64.082 20.0625H62.457C62.457 20 62.582 19.1875 63.2695 19.1875ZM71.207 23L71.457 21.625C71.457 21.625 70.832 21.9375 70.3945 21.9375C69.5195 21.9375 69.1445 21.25 69.1445 20.5C69.1445 19 69.8945 18.1875 70.7695 18.1875C71.3945 18.1875 71.8945 18.5625 71.8945 18.5625L72.082 17.25C72.082 17.25 71.332 16.9375 70.6445 16.9375C69.207 16.9375 68.3945 18.1875 68.3945 20.5625C68.3945 22.125 68.5195 23.1875 70.0195 23.1875C70.5195 23.1875 71.207 23 71.207 23ZM52.082 19.4375C52.082 19.4375 52.6445 19.1875 53.457 19.1875C53.8945 19.1875 54.2695 19.25 54.2695 19.625C54.2695 19.875 54.207 19.9375 54.207 19.9375H53.6445C52.582 19.9375 51.3945 20.375 51.3945 21.8125C51.3945 22.9375 52.1445 23.1875 52.582 23.1875C53.457 23.1875 53.832 22.625 53.8945 22.625L53.832 23.125H54.957L55.457 19.6875C55.457 18.25 54.207 18.1875 53.707 18.1875M54.6445 20.875C54.6445 21.0625 53.8945 22.0625 53.1445 22.0625C52.7695 22.0625 52.6445 21.75 52.6445 21.5625C52.6445 21.25 52.832 20.8125 53.7695 20.8125C53.957 20.875 54.6445 20.875 54.6445 20.875ZM55.2695 23C55.2695 23 55.6445 23.125 56.707 23.125C57.0195 23.125 58.582 23.1875 58.582 21.5C58.582 19.9375 57.082 20.25 57.082 19.625C57.082 19.3125 57.332 19.1875 57.7695 19.1875C57.957 19.1875 58.6445 19.25 58.6445 19.25L58.832 18.125C58.832 18.125 58.3945 18 57.6445 18C56.707 18 56.3945 18.375 56.3945 19.625C56.3945 21.0625 57.332 20.9375 57.332 21.5C57.332 21.875 56.8945 21.9375 56.582 21.9375M81.332 18.75C81.332 18.75 80.832 18.125 80.1445 18.125C79.0195 18.125 78.6445 19.5 78.6445 21.125C78.6445 22.125 78.5195 23.1875 79.582 23.1875C80.332 23.1875 80.7695 22.6875 80.7695 22.6875L80.707 23.125H81.957L82.8945 17.125M81.2695 20.375C81.2695 21.0625 80.707 21.9375 80.0195 21.9375C79.582 21.9375 79.332 21.5625 79.332 20.9375C79.332 19.9375 79.7695 19.3125 80.332 19.3125C80.7695 19.3125 81.2695 19.625 81.2695 20.375ZM46.957 23.0625L47.707 18.5625L47.832 23.0625H48.707L50.332 18.5625L49.6445 23.0625H50.957L51.957 17.0625H50.3945L48.6445 20.75L48.582 17.0625H47.8945L45.7695 23.0625H46.957ZM65.0195 23.0625H66.332C66.707 21 66.7695 19.3125 67.6445 19.625C67.7695 18.8125 67.957 18.5 68.082 18.1875H67.832C67.2695 18.1875 66.832 18.9375 66.832 18.9375L66.957 18.25M72.3945 19.4375C72.3945 19.4375 72.957 19.1875 73.7695 19.1875C74.207 19.1875 74.582 19.25 74.582 19.625C74.582 19.875 74.5195 19.9375 74.5195 19.9375H73.957C72.8945 19.9375 71.707 20.375 71.707 21.8125C71.707 22.9375 72.457 23.1875 72.8945 23.1875C73.7695 23.1875 74.1445 22.625 74.207 22.625L74.1445 23.125H75.2695L75.7695 19.6875C75.7695 18.25 74.5195 18.1875 74.0195 18.1875M74.957 20.875C74.957 21.0625 74.207 22.0625 73.457 22.0625C73.082 22.0625 72.957 21.75 72.957 21.5625C72.957 21.25 73.1445 20.8125 74.082 20.8125C74.332 20.875 74.957 20.875 74.957 20.875ZM75.5195 23.0625H76.832C77.207 21 77.2695 19.3125 78.1445 19.625C78.2695 18.8125 78.457 18.5 78.582 18.1875H78.332C77.7695 18.1875 77.332 18.9375 77.332 18.9375L77.457 18.25" fill="#DCE5E5"/>
</g>
<defs>
<clipPath id="clip0_9500_232038">
<rect width="40" height="40" fill="white" transform="translate(0.332031)"/>
</clipPath>
<clipPath id="clip1_9500_232038">
<rect width="40" height="40" fill="white" transform="translate(44.332)"/>
</clipPath>
</defs>
</svg>
