<svg width="100%" height="100%" viewBox="0 0 18 17" fill="none" xmlns="http://www.w3.org/2000/svg">
<path d="M13.8274 15.4247H4.13533C3.52694 15.4233 2.94386 15.181 2.51366 14.7508C2.08347 14.3206 1.84119 13.7376 1.83984 13.1292V5.22251C1.83984 5.08722 1.89359 4.95747 1.98925 4.86181C2.08491 4.76615 2.21466 4.7124 2.34995 4.7124C2.48524 4.7124 2.61499 4.76615 2.71065 4.86181C2.80632 4.95747 2.86006 5.08722 2.86006 5.22251V13.1292C2.86006 13.4674 2.99442 13.7918 3.23358 14.0309C3.47274 14.2701 3.79711 14.4044 4.13533 14.4044H13.8274C14.1656 14.4044 14.49 14.2701 14.7291 14.0309C14.9683 13.7918 15.1026 13.4674 15.1026 13.1292V7.00789C15.1026 6.66966 14.9683 6.34529 14.7291 6.10614C14.49 5.86698 14.1656 5.73262 13.8274 5.73262H4.90049C4.7652 5.73262 4.63545 5.67887 4.53979 5.58321C4.44413 5.48755 4.39038 5.3578 4.39038 5.22251C4.39038 5.08722 4.44413 4.95747 4.53979 4.86181C4.63545 4.76615 4.7652 4.7124 4.90049 4.7124H13.8274C14.4358 4.71375 15.0188 4.95603 15.449 5.38622C15.8792 5.81642 16.1215 6.3995 16.1229 7.00789V13.1292C16.1215 13.7376 15.8792 14.3206 15.449 14.7508C15.0188 15.181 14.4358 15.4233 13.8274 15.4247Z" fill="#F36643"/>
<path d="M2.34995 5.73276C2.21466 5.73276 2.08491 5.67901 1.98925 5.58335C1.89359 5.48769 1.83984 5.35794 1.83984 5.22265C1.84189 4.67552 2.04105 4.14745 2.40081 3.73522C2.76057 3.323 3.25683 3.05423 3.79866 2.97818L11.5319 1.92735C11.8508 1.88597 12.1749 1.91314 12.4825 2.00705C12.7901 2.10096 13.0741 2.25944 13.3155 2.4719C13.557 2.68436 13.7503 2.94591 13.8825 3.23906C14.0148 3.53222 14.0829 3.85022 14.0824 4.17183V4.71254C14.0824 4.84783 14.0287 4.97758 13.933 5.07324C13.8374 5.16891 13.7076 5.22265 13.5723 5.22265C13.437 5.22265 13.3073 5.16891 13.2116 5.07324C13.116 4.97758 13.0622 4.84783 13.0622 4.71254V4.17183C13.063 3.99418 13.0256 3.81843 12.9526 3.65649C12.8795 3.49455 12.7725 3.3502 12.6388 3.23323C12.504 3.11707 12.3461 3.03068 12.1756 2.9797C12.0051 2.92872 11.8257 2.91429 11.6492 2.93737L3.93639 3.99329C3.63886 4.0339 3.36605 4.1807 3.16825 4.40663C2.97045 4.63255 2.86099 4.92237 2.86006 5.22265C2.86006 5.35794 2.80632 5.48769 2.71065 5.58335C2.61499 5.67901 2.48524 5.73276 2.34995 5.73276ZM9.2364 13.2568C8.58062 13.2568 7.93956 13.0624 7.3943 12.698C6.84904 12.3337 6.42406 11.8159 6.1731 11.21C5.92214 10.6041 5.85648 9.93747 5.98442 9.29428C6.11235 8.6511 6.42814 8.0603 6.89185 7.59659C7.35556 7.13288 7.94636 6.81709 8.58954 6.68916C9.23273 6.56122 9.8994 6.62688 10.5053 6.87784C11.1111 7.12879 11.629 7.55378 11.9933 8.09904C12.3576 8.6443 12.5521 9.28536 12.5521 9.94114C12.5508 10.8201 12.201 11.6627 11.5795 12.2842C10.9579 12.9057 10.1154 13.2555 9.2364 13.2568ZM9.2364 7.64566C8.7824 7.64566 8.33859 7.78029 7.9611 8.03252C7.58361 8.28475 7.28939 8.64326 7.11565 9.0627C6.94191 9.48215 6.89646 9.94369 6.98503 10.389C7.0736 10.8343 7.29222 11.2433 7.61325 11.5643C7.93428 11.8853 8.3433 12.1039 8.78858 12.1925C9.23386 12.2811 9.6954 12.2356 10.1148 12.0619C10.5343 11.8882 10.8928 11.5939 11.145 11.2164C11.3973 10.839 11.5319 10.3951 11.5319 9.94114C11.5305 9.33276 11.2883 8.74967 10.8581 8.31948C10.4279 7.88928 9.84479 7.64701 9.2364 7.64566Z" fill="#F36643"/>
<path d="M10.5092 10.7064H8.97886C8.84357 10.7064 8.71382 10.6527 8.61816 10.557C8.52249 10.4614 8.46875 10.3316 8.46875 10.1963V8.66599C8.46875 8.5307 8.52249 8.40095 8.61816 8.30529C8.71382 8.20963 8.84357 8.15588 8.97886 8.15588C9.11415 8.15588 9.24389 8.20963 9.33956 8.30529C9.43522 8.40095 9.48897 8.5307 9.48897 8.66599V9.68621H10.5092C10.6445 9.68621 10.7742 9.73995 10.8699 9.83561C10.9655 9.93128 11.0193 10.061 11.0193 10.1963C11.0193 10.3316 10.9655 10.4614 10.8699 10.557C10.7742 10.6527 10.6445 10.7064 10.5092 10.7064Z" fill="#F36643"/>
</svg>
